<svg width="263" height="299" viewBox="0 0 263 299" fill="none" xmlns="http://www.w3.org/2000/svg">
<g clip-path="url(#clip0_2310_1923)">
<path d="M190.165 259.995C170.654 259.995 152.324 255.617 138.553 247.664C124.543 239.577 116.827 228.752 116.827 217.184C116.827 205.615 124.545 194.789 138.555 186.701C167.014 170.272 213.318 170.27 241.781 186.699C255.791 194.788 263.507 205.613 263.507 217.181C263.507 228.748 255.791 239.575 241.781 247.664C228.006 255.617 209.675 259.995 190.165 259.995ZM190.169 175.238C171.631 175.238 153.101 179.31 138.99 187.457C125.259 195.385 117.699 205.942 117.699 217.186C117.699 228.43 125.259 238.987 138.988 246.913C152.629 254.79 170.803 259.127 190.165 259.127C209.525 259.127 227.701 254.79 241.346 246.913C255.077 238.985 262.635 228.428 262.635 217.184C262.635 205.942 255.075 195.383 241.346 187.455C227.237 179.31 208.701 175.238 190.169 175.238Z" fill="white"/>
<g opacity="0.67">
<path d="M190.17 248.461C220.09 248.461 244.345 234.457 244.345 217.182C244.345 199.908 220.09 185.904 190.17 185.904C160.249 185.904 135.994 199.908 135.994 217.182C135.994 234.457 160.249 248.461 190.17 248.461Z" fill="#49A8FF"/>
</g>
<path d="M123.822 193.596V178.877H128.911C132.148 174.382 136.923 170.167 143.255 166.511C169.166 151.551 211.174 151.551 237.084 166.511C243.417 170.167 248.191 174.382 251.429 178.877H256.516V193.598C256.516 203.401 250.037 213.205 237.083 220.683C211.172 235.643 169.164 235.643 143.254 220.683C130.298 213.205 123.82 203.401 123.822 193.596Z" fill="url(#paint0_linear_2310_1923)"/>
<path d="M190.17 217.182C226.813 217.182 256.517 200.033 256.517 178.877C256.517 157.722 226.813 140.572 190.17 140.572C153.527 140.572 123.822 157.722 123.822 178.877C123.822 200.033 153.527 217.182 190.17 217.182Z" fill="#49A8FF"/>
<path d="M128.896 178.313V158.22H133.595C136.584 154.069 140.993 150.177 146.843 146.801C170.773 132.984 209.569 132.984 233.497 146.801C239.346 150.177 243.755 154.069 246.745 158.222H251.445V178.314C251.445 187.368 245.461 196.421 233.497 203.329C209.568 217.144 170.771 217.146 146.843 203.329C134.876 196.423 128.894 187.368 128.896 178.313Z" fill="#49A8FF"/>
<g opacity="0.51">
<path d="M128.896 173.476V153.384H133.595C136.584 149.232 140.993 145.341 146.843 141.964C170.773 128.149 209.569 128.148 233.497 141.964C239.346 145.341 243.755 149.232 246.745 153.385H251.445V173.478C251.445 182.531 245.461 191.585 233.497 198.493C209.568 212.308 170.771 212.309 146.843 198.493C134.876 191.585 128.894 182.531 128.896 173.476Z" fill="#453C9E"/>
</g>
<path d="M190.169 193.598C224.01 193.598 251.443 177.76 251.443 158.222C251.443 138.684 224.01 122.845 190.169 122.845C156.329 122.845 128.896 138.684 128.896 158.222C128.896 177.76 156.329 193.598 190.169 193.598Z" fill="#49A8FF"/>
<g opacity="0.51">
<path d="M147.957 184.254C158.49 197.669 172.38 204.84 184.13 208.677C170.518 207.904 157.268 204.511 146.84 198.491C134.875 191.583 128.893 182.53 128.895 173.474V167.472C135.087 170.94 141.659 176.233 147.957 184.254Z" fill="#5351AF"/>
</g>
<path d="M123.822 157.9V143.181H128.911C132.148 138.686 136.923 134.471 143.255 130.815C169.166 115.855 211.174 115.855 237.084 130.815C243.417 134.471 248.191 138.686 251.429 143.181H256.516V157.902C256.516 167.704 250.037 177.509 237.083 184.989C211.172 199.949 169.164 199.949 143.254 184.989C130.298 177.509 123.82 167.704 123.822 157.9Z" fill="url(#paint1_linear_2310_1923)"/>
<path d="M190.17 181.486C226.813 181.486 256.517 164.336 256.517 143.181C256.517 122.026 226.813 104.876 190.17 104.876C153.527 104.876 123.822 122.026 123.822 143.181C123.822 164.336 153.527 181.486 190.17 181.486Z" fill="#49A8FF"/>
<path d="M128.896 141.877V121.784H133.595C136.584 117.633 140.993 113.741 146.843 110.364C170.773 96.5497 209.569 96.5479 233.497 110.364C239.346 113.741 243.755 117.633 246.745 121.786H251.445V141.878C251.445 150.932 245.461 159.985 233.497 166.893C209.568 180.71 170.771 180.71 146.843 166.893C134.876 159.983 128.894 150.93 128.896 141.877Z" fill="#49A8FF"/>
<g opacity="0.51">
<path d="M128.896 137.28V117.187H133.595C136.584 113.036 140.993 109.144 146.843 105.767C170.773 91.9528 209.569 91.9509 233.497 105.767C239.346 109.144 243.755 113.036 246.745 117.187H251.445V137.28C251.445 146.333 245.461 155.386 233.497 162.294C209.568 176.109 170.771 176.111 146.843 162.294C134.876 155.388 128.894 146.335 128.896 137.28Z" fill="#453C9E"/>
</g>
<path d="M190.169 157.16C224.01 157.16 251.443 141.322 251.443 121.784C251.443 102.246 224.01 86.4075 190.169 86.4075C156.329 86.4075 128.896 102.246 128.896 121.784C128.896 141.322 156.329 157.16 190.169 157.16Z" fill="#49A8FF"/>
<g opacity="0.51">
<path d="M147.957 145.931C161.054 162.61 179.336 169.636 192.242 172.601C175.877 172.919 159.334 169.51 146.842 162.298C134.877 155.39 128.895 146.336 128.896 137.281V129.151C135.087 132.615 141.659 137.908 147.957 145.931Z" fill="#5351AF"/>
</g>
<path d="M123.822 121.462V106.743H128.911C132.148 102.248 136.923 98.0333 143.255 94.3772C169.166 79.4169 211.174 79.4169 237.084 94.3772C243.417 98.0333 248.191 102.248 251.429 106.743H256.516V121.464C256.516 131.266 250.037 141.071 237.083 148.551C211.172 163.511 169.164 163.511 143.254 148.551C130.298 141.071 123.82 131.266 123.822 121.462Z" fill="url(#paint2_linear_2310_1923)"/>
<path d="M190.17 145.048C226.813 145.048 256.517 127.899 256.517 106.743C256.517 85.5877 226.813 68.4379 190.17 68.4379C153.527 68.4379 123.822 85.5877 123.822 106.743C123.822 127.899 153.527 145.048 190.17 145.048Z" fill="#49A8FF"/>
<path d="M128.896 105.439V85.3459H133.595C136.584 81.1947 140.993 77.303 146.843 73.9265C170.773 60.1118 209.569 60.11 233.497 73.9265C239.346 77.303 243.755 81.1947 246.745 85.3477H251.445V105.44C251.445 114.494 245.461 123.547 233.497 130.455C209.568 144.27 170.771 144.272 146.843 130.455C134.876 123.547 128.894 114.492 128.896 105.439Z" fill="#49A8FF"/>
<g opacity="0.51">
<path d="M128.896 99.8147V79.7221H133.595C136.584 75.5709 140.993 71.6792 146.843 68.3027C170.773 54.488 209.569 54.4862 233.497 68.3027C239.346 71.6792 243.755 75.5709 246.745 79.7239H251.445V99.8166C251.445 108.87 245.461 117.923 233.497 124.831C209.568 138.646 170.771 138.648 146.843 124.831C134.876 117.923 128.894 108.87 128.896 99.8147Z" fill="#453C9E"/>
</g>
<path d="M190.169 120.722C224.01 120.722 251.443 104.884 251.443 85.346C251.443 65.8081 224.01 49.9696 190.169 49.9696C156.329 49.9696 128.896 65.8081 128.896 85.346C128.896 104.884 156.329 120.722 190.169 120.722Z" fill="#49A8FF"/>
<path d="M123.822 85.0243V70.3052H128.911C132.148 65.8105 136.923 61.5954 143.255 57.9394C169.166 42.9791 211.174 42.9791 237.084 57.9394C243.417 61.5954 248.191 65.8105 251.429 70.3052H256.516V85.0262C256.516 94.8286 250.037 104.633 237.083 112.111C211.172 127.071 169.164 127.071 143.254 112.111C130.298 104.633 123.82 94.8286 123.822 85.0243Z" fill="#49A8FF"/>
<path d="M190.17 108.61C226.813 108.61 256.517 91.4606 256.517 70.3052C256.517 49.1498 226.813 32 190.17 32C153.527 32 123.822 49.1498 123.822 70.3052C123.822 91.4606 153.527 108.61 190.17 108.61Z" fill="#49A8FF"/>
<path d="M190.17 108.61C226.813 108.61 256.517 91.4606 256.517 70.3052C256.517 49.1498 226.813 32 190.17 32C153.527 32 123.822 49.1498 123.822 70.3052C123.822 91.4606 153.527 108.61 190.17 108.61Z" fill="#49A8FF"/>
<g opacity="0.51">
<path d="M147.957 107.606C162.34 125.924 182.975 132.598 195.876 135.036C178.351 135.977 160.259 132.578 146.842 124.831C134.877 117.923 128.895 108.87 128.896 99.8147V90.8236C135.087 94.2896 141.659 99.5827 147.957 107.606Z" fill="#5351AF"/>
</g>
<path d="M123.822 85.0243V70.3052H128.911C132.148 65.8105 136.923 61.5954 143.255 57.9394C169.166 42.9791 211.174 42.9791 237.084 57.9394C243.417 61.5954 248.191 65.8105 251.429 70.3052H256.516V85.0262C256.516 94.8286 250.037 104.633 237.083 112.111C211.172 127.071 169.164 127.071 143.254 112.111C130.298 104.633 123.82 94.8286 123.822 85.0243Z" fill="#49A8FF"/>
<path d="M190.17 108.61C226.813 108.61 256.517 91.4606 256.517 70.3052C256.517 49.1498 226.813 32 190.17 32C153.527 32 123.822 49.1498 123.822 70.3052C123.822 91.4606 153.527 108.61 190.17 108.61Z" fill="#49A8FF"/>
<path d="M190.17 108.61C226.813 108.61 256.517 91.4606 256.517 70.3052C256.517 49.1498 226.813 32 190.17 32C153.527 32 123.822 49.1498 123.822 70.3052C123.822 91.4606 153.527 108.61 190.17 108.61Z" fill="#49A8FF"/>
<path d="M142.877 96.2281C168.787 111.187 210.796 111.187 236.706 96.2281C252.574 87.0671 258.706 74.4217 255.14 62.5583C259.481 74.7524 253.47 87.9294 237.084 97.3902C211.174 112.351 169.165 112.351 143.255 97.3902C133.211 91.5928 127.08 84.3958 124.823 76.8864C127.345 83.9756 133.352 90.7304 142.877 96.2281Z" fill="white"/>
<path d="M142.877 132.666C168.787 147.625 210.796 147.625 236.706 132.666C252.574 123.505 258.706 110.86 255.14 98.9962C259.481 111.19 253.47 124.367 237.084 133.828C211.174 148.788 169.165 148.788 143.255 133.83C133.211 128.033 127.08 120.836 124.823 113.326C127.345 120.414 133.352 127.168 142.877 132.666Z" fill="white"/>
<path d="M142.877 169.106C168.787 184.064 210.796 184.064 236.706 169.104C252.574 159.943 258.706 147.298 255.14 135.434C259.481 147.628 253.47 160.805 237.084 170.266C211.174 185.226 169.165 185.226 143.255 170.266C133.211 164.469 127.08 157.272 124.823 149.764C127.345 156.851 133.352 163.606 142.877 169.106Z" fill="white"/>
<path d="M142.877 205.542C168.787 220.5 210.796 220.5 236.706 205.542C252.574 196.381 258.706 183.735 255.14 171.872C259.481 184.066 253.47 197.243 237.084 206.704C211.174 221.664 169.165 221.664 143.255 206.704C133.211 200.907 127.08 193.71 124.823 186.2C127.345 193.289 133.352 200.044 142.877 205.542Z" fill="white"/>
<path opacity="0.78" d="M250.401 86.3874H190.167V50.8649H247.355C258.449 61.7288 259.464 75.0722 250.401 86.3874Z" fill="white"/>
<path d="M156.104 66.7222V59.1653H158.717C160.38 56.8577 162.83 54.6944 166.082 52.8162C179.385 45.135 200.954 45.135 214.258 52.8162C217.51 54.6926 219.96 56.8577 221.623 59.1653H224.235V66.7241C224.235 71.7577 220.91 76.7896 214.258 80.6301C200.954 88.3113 179.385 88.3113 166.082 80.6301C159.428 76.7896 156.103 71.7559 156.104 66.7222Z" fill="#49A8FF"/>
<path d="M190.169 78.8323C208.982 78.8323 224.233 70.0271 224.233 59.1654C224.233 48.3036 208.982 39.4984 190.169 39.4984C171.356 39.4984 156.104 48.3036 156.104 59.1654C156.104 70.0271 171.356 78.8323 190.169 78.8323Z" fill="#49A8FF"/>
<path d="M190.169 78.8323C208.982 78.8323 224.233 70.0271 224.233 59.1654C224.233 48.3036 208.982 39.4984 190.169 39.4984C171.356 39.4984 156.104 48.3036 156.104 59.1654C156.104 70.0271 171.356 78.8323 190.169 78.8323Z" fill="url(#paint3_linear_2310_1923)"/>
<path d="M173.95 68.5293C182.906 73.7 197.43 73.7 206.386 68.5293C209.184 66.9141 211.108 64.9865 212.156 62.9402C214.47 58.4345 208.689 55.1658 202.528 51.6103C193.571 46.4396 187.218 45.157 178.26 50.3295C172.103 53.885 165.865 58.4327 168.174 62.9365C169.227 64.9847 171.151 66.9141 173.95 68.5293Z" fill="#49A8FF"/>
<path d="M206.386 57.3602C197.429 52.1895 182.906 52.1895 173.949 57.3602C171.154 58.9736 169.232 60.9011 168.181 62.9457C165.864 58.44 167.786 53.3607 173.949 49.8033C182.906 44.6326 197.429 44.6326 206.386 49.8033C212.547 53.3607 214.469 58.4382 212.154 62.9457C211.103 60.9011 209.181 58.9736 206.386 57.3602Z" fill="url(#paint4_linear_2310_1923)"/>
<g opacity="0.51">
<path d="M152.819 126.207C157.288 127.967 160.626 127.492 160.275 125.144C159.924 122.796 156.016 119.467 151.547 117.706C147.078 115.946 143.74 116.421 144.091 118.769C144.443 121.117 148.35 124.448 152.819 126.207Z" fill="#49A8FF"/>
</g>
<g opacity="0.51">
<path d="M152.819 163.166C157.288 164.925 160.626 164.45 160.275 162.103C159.924 159.755 156.016 156.426 151.547 154.664C147.078 152.905 143.74 153.38 144.091 155.728C144.443 158.076 148.35 161.405 152.819 163.166Z" fill="#49A8FF"/>
</g>
<g opacity="0.51">
<path d="M152.575 200.368C157.044 202.127 160.382 201.652 160.031 199.304C159.68 196.956 155.772 193.627 151.303 191.866C146.834 190.107 143.496 190.582 143.847 192.929C144.197 195.279 148.106 198.608 152.575 200.368Z" fill="#49A8FF"/>
</g>
<g opacity="0.51">
<path d="M140.092 116.933C141.144 117.684 142.46 117.645 143.032 116.845C143.603 116.045 143.213 114.788 142.16 114.037C141.108 113.286 139.792 113.324 139.22 114.125C138.648 114.923 139.039 116.18 140.092 116.933Z" fill="#49A8FF"/>
</g>
<g opacity="0.51">
<path d="M140.092 154.061C141.144 154.812 142.46 154.774 143.032 153.974C143.603 153.173 143.213 151.916 142.16 151.165C141.108 150.415 139.792 150.453 139.22 151.253C138.648 152.053 139.039 153.31 140.092 154.061Z" fill="#49A8FF"/>
</g>
<g opacity="0.51">
<path d="M140.092 191.055C141.144 191.806 142.46 191.767 143.032 190.967C143.603 190.167 143.213 188.91 142.16 188.159C141.108 187.408 139.792 187.446 139.22 188.247C138.648 189.045 139.039 190.304 140.092 191.055Z" fill="#49A8FF"/>
</g>
<path d="M149.868 296C148.77 296 147.717 295.772 146.913 295.308L1.76829 211.507C0.925992 211.021 0.461914 210.327 0.461914 209.556C0.461914 208.657 1.10324 207.769 2.2196 207.124L32.3851 189.71C34.3931 188.546 37.3475 188.433 39.107 189.449L184.254 273.247C185.096 273.735 185.56 274.429 185.56 275.202C185.558 276.101 184.919 276.987 183.803 277.63L153.637 295.046C152.544 295.68 151.174 296 149.868 296ZM147.348 294.555C148.837 295.413 151.465 295.295 153.2 294.293L183.366 276.878C184.206 276.392 184.689 275.781 184.689 275.2C184.689 274.625 184.215 274.23 183.817 274L38.6703 190.202C37.1812 189.343 34.5556 189.462 32.8199 190.463L2.65446 207.877C1.81399 208.365 1.33164 208.975 1.33164 209.556C1.33164 210.13 1.80484 210.524 2.20315 210.755L147.348 294.555Z" fill="white"/>
<path d="M60.2765 140.373C64.0915 142.576 67.7019 145.679 70.9139 149.344C75.372 135.023 88.9712 130.581 105.061 139.87C118.371 147.555 129.971 162.671 136.109 178.685C138.142 178.751 140.408 179.42 142.807 180.805C151.493 185.82 158.534 198.016 158.534 208.045C158.534 208.261 158.512 208.458 158.507 208.668C160.985 208.84 163.722 209.715 166.603 211.378C177.712 217.791 186.717 233.391 186.717 246.219C186.717 259.047 177.712 264.247 166.603 257.832L60.2765 196.445C46.8674 188.702 35.9961 169.873 35.9961 154.389C35.9961 138.904 46.8674 132.631 60.2765 140.373Z" fill="url(#paint5_linear_2310_1923)"/>
<path d="M60.2766 140.373C62.4892 141.65 64.6287 143.238 66.6641 145.054L78.5531 138.184L78.5513 138.188C85.0832 133.596 94.5385 133.795 105.061 139.87C118.371 147.555 129.971 162.671 136.109 178.685C138.144 178.751 140.408 179.42 142.807 180.805C151.493 185.82 158.535 198.016 158.535 208.045C158.535 208.261 158.513 208.458 158.507 208.668C160.985 208.84 163.722 209.715 166.603 211.378C177.712 217.791 186.718 233.391 186.718 246.219C186.718 252.575 184.501 257.053 180.918 259.178L180.928 259.182L180.836 259.235C180.831 259.239 180.823 259.242 180.818 259.246L151.696 276.15L145.336 245.552L60.2784 196.445C46.8693 188.703 35.998 169.873 35.998 154.39C35.998 138.908 46.8675 132.631 60.2766 140.373Z" fill="url(#paint6_linear_2310_1923)"/>
<path d="M13.4717 155.892L42.9776 138.749L42.9758 138.756C47.3791 136.132 53.5035 136.463 60.2766 140.373C62.4892 141.65 64.6287 143.238 66.6641 145.054L78.5531 138.184L78.5513 138.188C85.0832 133.596 94.5385 133.795 105.061 139.87C118.371 147.555 129.971 162.671 136.109 178.685C138.144 178.751 140.408 179.42 142.807 180.805C151.493 185.82 158.535 198.016 158.535 208.045C158.535 208.261 158.513 208.458 158.507 208.668C160.985 208.84 163.722 209.715 166.603 211.378C177.712 217.791 186.718 233.391 186.718 246.219C186.718 252.575 184.501 257.053 180.918 259.178L180.928 259.182L180.836 259.235C180.831 259.239 180.823 259.242 180.818 259.246L151.696 276.15L145.336 245.552L60.2784 196.445C49.4072 190.169 40.2095 176.608 37.1144 163.447L13.4717 155.892Z" fill="url(#paint7_linear_2310_1923)"/>
<path d="M31.0608 157.332C34.8758 159.535 38.4861 162.638 41.6981 166.303C46.1563 151.982 59.7554 147.541 75.8449 156.83C89.1553 164.514 100.756 179.63 106.893 195.645C108.926 195.71 111.192 196.379 113.591 197.764C122.277 202.779 129.319 214.975 129.319 225.004C129.319 225.22 129.297 225.417 129.291 225.627C131.769 225.799 134.506 226.674 137.387 228.337C148.498 234.752 157.504 250.35 157.504 263.178C157.504 276.006 148.498 281.206 137.387 274.791L31.0626 213.404C17.6517 205.662 6.78223 186.832 6.78223 171.35C6.7804 155.865 17.6498 149.589 31.0608 157.332Z" fill="url(#paint8_linear_2310_1923)"/>
<path d="M41.6982 166.303C38.4861 162.638 34.8776 159.536 31.0608 157.332C22.848 152.591 15.5944 153.113 11.2002 157.783C15.4994 152.386 23.0946 151.533 31.7551 156.532C35.4513 158.666 38.9484 161.648 42.0837 165.163C41.9503 165.536 41.8188 165.914 41.6982 166.303Z" fill="white"/>
<path d="M157.502 263.178C157.502 250.35 148.496 234.752 137.386 228.337C134.504 226.674 131.767 225.797 129.29 225.627C129.297 225.417 129.317 225.22 129.317 225.004C129.317 214.975 122.275 202.779 113.589 197.764C111.19 196.379 108.925 195.71 106.891 195.645C100.754 179.63 89.1538 164.514 75.8433 156.83C63.6529 149.792 52.8967 150.641 46.458 157.694C52.7999 149.912 63.8995 148.732 76.5376 156.029C89.848 163.714 101.448 178.83 107.586 194.844C109.619 194.91 111.885 195.579 114.284 196.964C122.97 201.979 130.011 214.175 130.011 224.204C130.011 224.42 129.99 224.617 129.984 224.827C132.462 224.999 135.199 225.874 138.08 227.537C149.189 233.95 158.194 249.55 158.194 262.378C158.194 267.417 156.789 271.256 154.429 273.7C156.366 271.248 157.502 267.698 157.502 263.178Z" fill="white"/>
</g>
<defs>
<linearGradient id="paint0_linear_2310_1923" x1="123.822" y1="193.597" x2="247.814" y2="193.612" gradientUnits="userSpaceOnUse">
<stop stop-color="white"/>
<stop offset="1" stop-color="#47A3F7"/>
</linearGradient>
<linearGradient id="paint1_linear_2310_1923" x1="123.822" y1="157.902" x2="247.814" y2="157.917" gradientUnits="userSpaceOnUse">
<stop stop-color="white"/>
<stop offset="1" stop-color="#47A3F7"/>
</linearGradient>
<linearGradient id="paint2_linear_2310_1923" x1="123.822" y1="121.464" x2="247.814" y2="121.479" gradientUnits="userSpaceOnUse">
<stop stop-color="white"/>
<stop offset="1" stop-color="#47A3F7"/>
</linearGradient>
<linearGradient id="paint3_linear_2310_1923" x1="156.104" y1="59.1654" x2="219.766" y2="59.173" gradientUnits="userSpaceOnUse">
<stop stop-color="white"/>
<stop offset="1" stop-color="#47A3F7"/>
</linearGradient>
<linearGradient id="paint4_linear_2310_1923" x1="213.103" y1="54.4343" x2="167.232" y2="54.4343" gradientUnits="userSpaceOnUse">
<stop stop-color="#BCBEFF"/>
<stop offset="0.151" stop-color="#A3A7F5"/>
<stop offset="0.3866" stop-color="#8289E8"/>
<stop offset="0.6124" stop-color="#6A73DF"/>
<stop offset="0.8221" stop-color="#5C66D9"/>
<stop offset="1" stop-color="#5761D7"/>
</linearGradient>
<linearGradient id="paint5_linear_2310_1923" x1="35.9961" y1="197.788" x2="532.014" y2="197.834" gradientUnits="userSpaceOnUse">
<stop stop-color="white"/>
<stop offset="1" stop-color="#041020"/>
</linearGradient>
<linearGradient id="paint6_linear_2310_1923" x1="35.998" y1="205.574" x2="521.486" y2="206.305" gradientUnits="userSpaceOnUse">
<stop stop-color="white"/>
<stop offset="1" stop-color="#040D1A"/>
</linearGradient>
<linearGradient id="paint7_linear_2310_1923" x1="13.4717" y1="205.574" x2="186.718" y2="205.574" gradientUnits="userSpaceOnUse">
<stop stop-color="white"/>
<stop offset="1" stop-color="#3CADFF"/>
</linearGradient>
<linearGradient id="paint8_linear_2310_1923" x1="6.78223" y1="214.747" x2="157.504" y2="214.747" gradientUnits="userSpaceOnUse">
<stop stop-color="white"/>
<stop offset="1" stop-color="#3CADFF"/>
</linearGradient>
<clipPath id="clip0_2310_1923">
<rect width="263" height="299" fill="white"/>
</clipPath>
</defs>
</svg>
