<svg width="300" height="300" viewBox="0 0 300 300" fill="none" xmlns="http://www.w3.org/2000/svg">
<path d="M204.885 256.994C186.486 256.994 169.202 252.866 156.217 245.366C143.005 237.74 135.729 227.532 135.729 216.624C135.729 205.715 143.007 195.506 156.218 187.879C183.054 172.387 226.718 172.385 253.558 187.877C266.769 195.505 274.045 205.713 274.045 216.621C274.045 227.529 266.769 237.738 253.558 245.366C240.569 252.866 223.283 256.994 204.885 256.994ZM204.889 177.07C187.408 177.07 169.934 180.91 156.628 188.592C143.681 196.068 136.551 206.023 136.551 216.626C136.551 227.229 143.681 237.184 156.627 244.658C169.49 252.085 186.628 256.175 204.885 256.175C223.141 256.175 240.281 252.085 253.148 244.658C266.095 237.182 273.223 227.227 273.223 216.624C273.223 206.023 266.094 196.066 253.148 188.591C239.843 180.91 222.364 177.07 204.889 177.07Z" fill="white"/>
<g opacity="0.67">
<path d="M204.89 246.117C233.104 246.117 255.976 232.912 255.976 216.622C255.976 200.333 233.104 187.128 204.89 187.128C176.676 187.128 153.804 200.333 153.804 216.622C153.804 232.912 176.676 246.117 204.89 246.117Z" fill="#49A8FF"/>
</g>
<path d="M142.325 194.381V180.502H147.124C150.177 176.263 154.679 172.288 160.65 168.841C185.083 154.734 224.696 154.734 249.129 168.841C255.1 172.288 259.602 176.263 262.655 180.502H267.452V194.383C267.452 203.627 261.342 212.872 249.127 219.924C224.694 234.031 185.081 234.031 160.648 219.924C148.431 212.872 142.323 203.627 142.325 194.381Z" fill="url(#paint0_linear_2489_435)"/>
<path d="M204.889 216.623C239.443 216.623 267.454 200.451 267.454 180.502C267.454 160.553 239.443 144.381 204.889 144.381C170.336 144.381 142.325 160.553 142.325 180.502C142.325 200.451 170.336 216.623 204.889 216.623Z" fill="#49A8FF"/>
<path d="M147.11 179.969V161.022H151.542C154.36 157.108 158.518 153.438 164.035 150.254C186.6 137.225 223.184 137.225 245.747 150.254C251.262 153.438 255.42 157.108 258.24 161.024H262.671V179.971C262.671 188.508 257.029 197.045 245.747 203.559C223.182 216.586 186.598 216.588 164.035 203.559C152.749 197.047 147.109 188.508 147.11 179.969Z" fill="#49A8FF"/>
<g opacity="0.51">
<path d="M147.11 175.409V156.462H151.542C154.36 152.547 158.518 148.878 164.035 145.694C186.6 132.667 223.184 132.665 245.747 145.694C251.262 148.878 255.42 152.547 258.24 156.464H262.671V175.41C262.671 183.947 257.029 192.484 245.747 198.999C223.182 212.026 186.598 212.027 164.035 198.999C152.749 192.484 147.109 183.947 147.11 175.409Z" fill="#453C9E"/>
</g>
<path d="M204.89 194.383C236.801 194.383 262.67 179.448 262.67 161.024C262.67 142.6 236.801 127.665 204.89 127.665C172.979 127.665 147.11 142.6 147.11 161.024C147.11 179.448 172.979 194.383 204.89 194.383Z" fill="#49A8FF"/>
<g opacity="0.51">
<path d="M165.084 185.572C175.016 198.222 188.114 204.984 199.194 208.602C186.358 207.874 173.864 204.674 164.031 198.997C152.748 192.483 147.107 183.946 147.108 175.407V169.747C152.947 173.017 159.145 178.009 165.084 185.572Z" fill="#5351AF"/>
</g>
<path d="M142.325 160.721V146.841H147.124C150.177 142.603 154.679 138.628 160.65 135.18C185.083 121.073 224.696 121.073 249.129 135.18C255.1 138.628 259.602 142.603 262.655 146.841H267.452V160.723C267.452 169.966 261.342 179.211 249.127 186.265C224.694 200.372 185.081 200.372 160.648 186.265C148.431 179.211 142.323 169.966 142.325 160.721Z" fill="url(#paint1_linear_2489_435)"/>
<path d="M204.889 182.962C239.443 182.962 267.454 166.79 267.454 146.841C267.454 126.892 239.443 110.72 204.889 110.72C170.336 110.72 142.325 126.892 142.325 146.841C142.325 166.79 170.336 182.962 204.889 182.962Z" fill="#49A8FF"/>
<path d="M147.11 145.611V126.664H151.542C154.36 122.749 158.518 119.08 164.035 115.896C186.6 102.869 223.184 102.867 245.747 115.896C251.262 119.08 255.42 122.749 258.24 126.666H262.671V145.613C262.671 154.15 257.029 162.687 245.747 169.201C223.182 182.23 186.598 182.23 164.035 169.201C152.749 162.685 147.109 154.148 147.11 145.611Z" fill="#49A8FF"/>
<g opacity="0.51">
<path d="M147.11 141.276V122.329H151.542C154.36 118.415 158.518 114.745 164.035 111.561C186.6 98.534 223.184 98.5323 245.747 111.561C251.262 114.745 255.42 118.415 258.24 122.329H262.671V141.276C262.671 149.813 257.029 158.35 245.747 164.864C223.182 177.891 186.598 177.893 164.035 164.864C152.749 158.352 147.109 149.815 147.11 141.276Z" fill="#453C9E"/>
</g>
<path d="M204.89 160.023C236.801 160.023 262.67 145.088 262.67 126.664C262.67 108.24 236.801 93.3049 204.89 93.3049C172.979 93.3049 147.11 108.24 147.11 126.664C147.11 145.088 172.979 160.023 204.89 160.023Z" fill="#49A8FF"/>
<g opacity="0.51">
<path d="M165.084 149.434C177.434 165.162 194.673 171.787 206.844 174.583C191.412 174.883 175.812 171.668 164.033 164.868C152.749 158.354 147.109 149.816 147.11 141.278V133.611C152.948 136.877 159.145 141.869 165.084 149.434Z" fill="#5351AF"/>
</g>
<path d="M142.325 126.361V112.481H147.124C150.177 108.243 154.679 104.268 160.65 100.82C185.083 86.713 224.696 86.713 249.129 100.82C255.1 104.268 259.602 108.243 262.655 112.481H267.452V126.362C267.452 135.606 261.342 144.851 249.127 151.905C224.694 166.012 185.081 166.012 160.648 151.905C148.431 144.851 142.323 135.606 142.325 126.361Z" fill="url(#paint2_linear_2489_435)"/>
<path d="M204.889 148.602C239.443 148.602 267.454 132.43 267.454 112.481C267.454 92.5319 239.443 76.36 204.889 76.36C170.336 76.36 142.325 92.5319 142.325 112.481C142.325 132.43 170.336 148.602 204.889 148.602Z" fill="#49A8FF"/>
<path d="M147.11 111.251V92.3039H151.542C154.36 88.3894 158.518 84.7196 164.035 81.5357C186.6 68.5087 223.184 68.507 245.747 81.5357C251.262 84.7196 255.42 88.3894 258.24 92.3056H262.671V111.253C262.671 119.79 257.029 128.327 245.747 134.841C223.182 147.868 186.598 147.87 164.035 134.841C152.749 128.327 147.109 119.788 147.11 111.251Z" fill="#49A8FF"/>
<g opacity="0.51">
<path d="M147.11 105.948V87.0008H151.542C154.36 83.0863 158.518 79.4165 164.035 76.2326C186.6 63.2056 223.184 63.2039 245.747 76.2326C251.262 79.4165 255.42 83.0863 258.24 87.0025H262.671V105.949C262.671 114.486 257.029 123.023 245.747 129.538C223.182 142.565 186.598 142.566 164.035 129.538C152.749 123.023 147.109 114.486 147.11 105.948Z" fill="#453C9E"/>
</g>
<path d="M204.89 125.663C236.801 125.663 262.67 110.728 262.67 92.3039C262.67 73.8802 236.801 58.9449 204.89 58.9449C172.979 58.9449 147.11 73.8802 147.11 92.3039C147.11 110.728 172.979 125.663 204.89 125.663Z" fill="#49A8FF"/>
<path d="M142.325 92.0007V78.1209H147.124C150.177 73.8825 154.679 69.9078 160.65 66.4602C185.083 52.353 224.696 52.353 249.129 66.4602C255.1 69.9078 259.602 73.8825 262.655 78.1209H267.452V92.0024C267.452 101.246 261.342 110.491 249.127 117.543C224.694 131.65 185.081 131.65 160.648 117.543C148.431 110.491 142.323 101.246 142.325 92.0007Z" fill="#49A8FF"/>
<path d="M204.889 114.242C239.443 114.242 267.454 98.0699 267.454 78.1209C267.454 58.1719 239.443 42 204.889 42C170.336 42 142.325 58.1719 142.325 78.1209C142.325 98.0699 170.336 114.242 204.889 114.242Z" fill="#49A8FF"/>
<path d="M204.889 114.242C239.443 114.242 267.454 98.0699 267.454 78.1209C267.454 58.1719 239.443 42 204.889 42C170.336 42 142.325 58.1719 142.325 78.1209C142.325 98.0699 170.336 114.242 204.889 114.242Z" fill="#49A8FF"/>
<g opacity="0.51">
<path d="M165.084 113.294C178.647 130.568 198.105 136.862 210.271 139.16C193.744 140.048 176.684 136.843 164.033 129.538C152.749 123.023 147.109 114.486 147.11 105.948V97.4692C152.948 100.738 159.145 105.729 165.084 113.294Z" fill="#5351AF"/>
</g>
<path d="M142.325 92.0007V78.1209H147.124C150.177 73.8825 154.679 69.9078 160.65 66.4602C185.083 52.353 224.696 52.353 249.129 66.4602C255.1 69.9078 259.602 73.8825 262.655 78.1209H267.452V92.0024C267.452 101.246 261.342 110.491 249.127 117.543C224.694 131.65 185.081 131.65 160.648 117.543C148.431 110.491 142.323 101.246 142.325 92.0007Z" fill="#49A8FF"/>
<path d="M204.889 114.242C239.443 114.242 267.454 98.0699 267.454 78.1209C267.454 58.1719 239.443 42 204.889 42C170.336 42 142.325 58.1719 142.325 78.1209C142.325 98.0699 170.336 114.242 204.889 114.242Z" fill="#49A8FF"/>
<path d="M204.889 114.242C239.443 114.242 267.454 98.0699 267.454 78.1209C267.454 58.1719 239.443 42 204.889 42C170.336 42 142.325 58.1719 142.325 78.1209C142.325 98.0699 170.336 114.242 204.889 114.242Z" fill="#49A8FF"/>
<path d="M160.294 102.566C184.726 116.671 224.34 116.671 248.772 102.566C263.736 93.9269 269.518 82.0026 266.155 70.8157C270.248 82.3145 264.58 94.7401 249.129 103.661C224.696 117.769 185.083 117.769 160.65 103.661C151.179 98.1945 145.397 91.408 143.27 84.3268C145.647 91.0117 151.312 97.3813 160.294 102.566Z" fill="white"/>
<path d="M160.294 136.926C184.726 151.031 224.34 151.031 248.772 136.926C263.736 128.287 269.518 116.363 266.155 105.176C270.248 116.675 264.58 129.1 249.129 138.021C224.696 152.129 185.083 152.129 160.65 138.023C151.179 132.556 145.397 125.77 143.27 118.689C145.647 125.372 151.312 131.741 160.294 136.926Z" fill="white"/>
<path d="M160.294 171.287C184.726 185.393 224.34 185.393 248.772 171.286C263.736 162.647 269.518 150.723 266.155 139.536C270.248 151.035 264.58 163.46 249.129 172.382C224.696 186.489 185.083 186.489 160.65 172.382C151.179 166.915 145.397 160.128 143.27 153.049C145.647 159.732 151.312 166.102 160.294 171.287Z" fill="white"/>
<path d="M160.294 205.646C184.726 219.751 224.34 219.751 248.772 205.646C263.736 197.007 269.518 185.083 266.155 173.896C270.248 185.395 264.58 197.82 249.129 206.742C224.696 220.849 185.083 220.849 160.65 206.742C151.179 201.275 145.397 194.488 143.27 187.407C145.647 194.092 151.312 200.462 160.294 205.646Z" fill="white"/>
<path opacity="0.78" d="M261.686 93.286H204.887V59.7891H258.814C269.275 70.0336 270.232 82.616 261.686 93.286Z" fill="white"/>
<path d="M172.767 74.7422V67.6163H175.23C176.798 65.4402 179.109 63.4003 182.175 61.6292C194.72 54.386 215.059 54.386 227.604 61.6292C230.67 63.3986 232.981 65.4402 234.549 67.6163H237.012V74.744C237.012 79.4906 233.877 84.2355 227.604 87.8571C215.059 95.1002 194.72 95.1002 182.175 87.8571C175.901 84.2355 172.765 79.4889 172.767 74.7422Z" fill="#49A8FF"/>
<path d="M204.889 86.1617C222.629 86.1617 237.011 77.8587 237.011 67.6163C237.011 57.3739 222.629 49.0709 204.889 49.0709C187.148 49.0709 172.767 57.3739 172.767 67.6163C172.767 77.8587 187.148 86.1617 204.889 86.1617Z" fill="#49A8FF"/>
<path d="M204.889 86.1617C222.629 86.1617 237.011 77.8587 237.011 67.6163C237.011 57.3739 222.629 49.0709 204.889 49.0709C187.148 49.0709 172.767 57.3739 172.767 67.6163C172.767 77.8587 187.148 86.1617 204.889 86.1617Z" fill="url(#paint3_linear_2489_435)"/>
<path d="M189.594 76.4462C198.04 81.3221 211.736 81.3221 220.181 76.4462C222.819 74.9232 224.633 73.1055 225.622 71.1758C227.804 66.9271 222.352 63.8448 216.543 60.4921C208.097 55.6162 202.106 54.4067 193.659 59.2843C187.853 62.6371 181.971 66.9254 184.148 71.1724C185.141 73.1038 186.955 74.9232 189.594 76.4462Z" fill="#49A8FF"/>
<path d="M220.18 65.9141C211.735 61.0383 198.039 61.0383 189.593 65.9141C186.957 67.4354 185.145 69.2531 184.154 71.181C181.97 66.9323 183.782 62.1426 189.593 58.7881C198.039 53.9123 211.735 53.9123 220.18 58.7881C225.99 62.1426 227.803 66.9306 225.62 71.181C224.629 69.2531 222.816 67.4354 220.18 65.9141Z" fill="url(#paint4_linear_2489_435)"/>
<g opacity="0.51">
<path d="M169.668 130.835C173.882 132.494 177.03 132.046 176.699 129.832C176.369 127.619 172.683 124.479 168.469 122.818C164.255 121.159 161.107 121.607 161.438 123.821C161.77 126.035 165.454 129.176 169.668 130.835Z" fill="#49A8FF"/>
</g>
<g opacity="0.51">
<path d="M169.668 165.686C173.882 167.345 177.03 166.897 176.699 164.684C176.369 162.47 172.683 159.33 168.469 157.67C164.255 156.01 161.107 156.458 161.438 158.672C161.77 160.886 165.454 164.025 169.668 165.686Z" fill="#49A8FF"/>
</g>
<g opacity="0.51">
<path d="M169.439 200.766C173.653 202.426 176.801 201.978 176.47 199.764C176.139 197.55 172.454 194.411 168.24 192.75C164.025 191.091 160.878 191.539 161.208 193.752C161.539 195.968 165.225 199.107 169.439 200.766Z" fill="#49A8FF"/>
</g>
<g opacity="0.51">
<path d="M157.668 122.09C158.66 122.798 159.901 122.762 160.44 122.007C160.979 121.252 160.61 120.067 159.618 119.359C158.626 118.651 157.385 118.687 156.846 119.442C156.307 120.194 156.675 121.38 157.668 122.09Z" fill="#49A8FF"/>
</g>
<g opacity="0.51">
<path d="M157.668 157.101C158.66 157.809 159.901 157.773 160.44 157.018C160.979 156.264 160.61 155.078 159.618 154.37C158.626 153.662 157.385 153.698 156.846 154.453C156.307 155.207 156.675 156.393 157.668 157.101Z" fill="#49A8FF"/>
</g>
<g opacity="0.51">
<path d="M157.668 191.985C158.66 192.693 159.901 192.657 160.44 191.902C160.979 191.147 160.61 189.962 159.618 189.254C158.626 188.546 157.385 188.582 156.846 189.337C156.307 190.09 156.675 191.277 157.668 191.985Z" fill="#49A8FF"/>
</g>
<path d="M166.886 290.946C165.851 290.946 164.858 290.73 164.1 290.293L27.2319 211.271C26.4376 210.813 26 210.158 26 209.431C26 208.583 26.6048 207.746 27.6575 207.138L56.1028 190.717C57.9963 189.619 60.7822 189.512 62.4413 190.47L199.311 269.49C200.106 269.95 200.543 270.605 200.543 271.334C200.541 272.181 199.938 273.017 198.886 273.623L170.44 290.046C169.41 290.644 168.118 290.946 166.886 290.946ZM164.51 289.583C165.914 290.393 168.392 290.281 170.029 289.336L198.474 272.914C199.267 272.455 199.721 271.88 199.721 271.332C199.721 270.789 199.275 270.417 198.9 270.2L62.0296 191.18C60.6254 190.37 58.1496 190.482 56.5128 191.427L28.0675 207.848C27.275 208.308 26.8201 208.883 26.8201 209.431C26.8201 209.972 27.2663 210.344 27.6419 210.561L164.51 289.583Z" fill="white"/>
<path d="M82.4036 144.193C86.0011 146.271 89.4056 149.196 92.4345 152.652C96.6384 139.148 109.462 134.96 124.634 143.719C137.185 150.966 148.124 165.219 153.911 180.321C155.829 180.383 157.965 181.013 160.228 182.319C168.418 187.049 175.058 198.549 175.058 208.006C175.058 208.209 175.038 208.396 175.033 208.594C177.369 208.756 179.95 209.581 182.667 211.149C193.142 217.196 201.634 231.906 201.634 244.003C201.634 256.1 193.142 261.003 182.667 254.954L82.4036 197.067C69.7591 189.766 59.5078 172.011 59.5078 157.409C59.5078 142.808 69.7591 136.893 82.4036 144.193Z" fill="url(#paint5_linear_2489_435)"/>
<path d="M82.4038 144.193C84.4903 145.397 86.5078 146.894 88.4271 148.607L99.6382 142.129L99.6364 142.132C105.796 137.803 114.712 137.99 124.634 143.719C137.186 150.966 148.124 165.219 153.912 180.321C155.831 180.383 157.966 181.013 160.228 182.319C168.419 187.049 175.059 198.549 175.059 208.006C175.059 208.21 175.038 208.396 175.033 208.594C177.369 208.756 179.95 209.581 182.667 211.149C193.142 217.196 201.635 231.906 201.635 244.003C201.635 249.997 199.545 254.22 196.166 256.224L196.175 256.227L196.089 256.277C196.083 256.281 196.077 256.284 196.071 256.287L168.61 272.228L162.612 243.374L82.4056 197.067C69.7611 189.767 59.5098 172.011 59.5098 157.411C59.5098 142.811 69.7594 136.893 82.4038 144.193Z" fill="url(#paint6_linear_2489_435)"/>
<path d="M38.2676 158.827L66.0909 142.661L66.0892 142.668C70.2414 140.194 76.0166 140.506 82.4035 144.193C84.4899 145.397 86.5074 146.894 88.4268 148.607L99.6378 142.129L99.6361 142.132C105.795 137.803 114.712 137.99 124.634 143.719C137.185 150.966 148.124 165.219 153.911 180.321C155.831 180.383 157.965 181.013 160.227 182.319C168.418 187.049 175.058 198.549 175.058 208.006C175.058 208.21 175.038 208.396 175.032 208.594C177.369 208.756 179.95 209.581 182.667 211.149C193.142 217.196 201.634 231.906 201.634 244.003C201.634 249.997 199.544 254.22 196.166 256.224L196.174 256.227L196.088 256.277C196.083 256.281 196.076 256.284 196.071 256.287L168.609 272.228L162.612 243.374L82.4052 197.067C72.1539 191.149 63.4807 178.362 60.5621 165.952L38.2676 158.827Z" fill="url(#paint7_linear_2489_435)"/>
<path d="M54.854 160.185C58.4515 162.263 61.8559 165.188 64.8848 168.644C69.0887 155.14 81.9124 150.952 97.0843 159.711C109.636 166.958 120.575 181.211 126.362 196.313C128.279 196.375 130.416 197.005 132.678 198.311C140.869 203.041 147.509 214.541 147.509 223.998C147.509 224.202 147.488 224.388 147.483 224.586C149.819 224.748 152.4 225.573 155.117 227.141C165.594 233.19 174.087 247.898 174.087 259.995C174.087 272.092 165.594 276.995 155.117 270.946L54.8558 213.059C42.2096 205.759 31.96 188.003 31.96 173.403C31.9582 158.801 42.2078 152.883 54.854 160.185Z" fill="url(#paint8_linear_2489_435)"/>
<path d="M64.8848 168.645C61.8559 165.188 58.4532 162.263 54.854 160.185C47.1095 155.714 40.2696 156.207 36.126 160.611C40.18 155.521 47.3421 154.716 55.5088 159.43C58.9942 161.443 62.2918 164.255 65.2484 167.569C65.1226 167.921 64.9985 168.278 64.8848 168.645Z" fill="white"/>
<path d="M174.085 259.995C174.085 247.899 165.593 233.19 155.116 227.141C152.399 225.573 149.818 224.746 147.481 224.586C147.488 224.388 147.507 224.202 147.507 223.998C147.507 214.541 140.867 203.041 132.676 198.311C130.414 197.005 128.278 196.375 126.36 196.313C120.573 181.211 109.634 166.958 97.0827 159.711C85.5874 153.075 75.4446 153.876 69.373 160.526C75.3533 153.188 85.82 152.075 97.7373 158.957C110.289 166.203 121.228 180.457 127.015 195.558C128.932 195.62 131.069 196.251 133.331 197.557C141.522 202.286 148.162 213.787 148.162 223.244C148.162 223.447 148.141 223.633 148.136 223.831C150.472 223.993 153.053 224.818 155.77 226.386C166.246 232.434 174.738 247.144 174.738 259.24C174.738 263.992 173.413 267.612 171.187 269.917C173.013 267.605 174.085 264.258 174.085 259.995Z" fill="white"/>
<defs>
<linearGradient id="paint0_linear_2489_435" x1="142.325" y1="194.382" x2="259.247" y2="194.396" gradientUnits="userSpaceOnUse">
<stop stop-color="white"/>
<stop offset="1" stop-color="#47A3F7"/>
</linearGradient>
<linearGradient id="paint1_linear_2489_435" x1="142.325" y1="160.723" x2="259.247" y2="160.736" gradientUnits="userSpaceOnUse">
<stop stop-color="white"/>
<stop offset="1" stop-color="#47A3F7"/>
</linearGradient>
<linearGradient id="paint2_linear_2489_435" x1="142.325" y1="126.362" x2="259.247" y2="126.376" gradientUnits="userSpaceOnUse">
<stop stop-color="white"/>
<stop offset="1" stop-color="#47A3F7"/>
</linearGradient>
<linearGradient id="paint3_linear_2489_435" x1="172.767" y1="67.6163" x2="232.798" y2="67.6234" gradientUnits="userSpaceOnUse">
<stop stop-color="white"/>
<stop offset="1" stop-color="#47A3F7"/>
</linearGradient>
<linearGradient id="paint4_linear_2489_435" x1="226.515" y1="63.155" x2="183.259" y2="63.155" gradientUnits="userSpaceOnUse">
<stop stop-color="#BCBEFF"/>
<stop offset="0.151" stop-color="#A3A7F5"/>
<stop offset="0.3866" stop-color="#8289E8"/>
<stop offset="0.6124" stop-color="#6A73DF"/>
<stop offset="0.8221" stop-color="#5C66D9"/>
<stop offset="1" stop-color="#5761D7"/>
</linearGradient>
<linearGradient id="paint5_linear_2489_435" x1="59.5078" y1="198.334" x2="527.24" y2="198.378" gradientUnits="userSpaceOnUse">
<stop stop-color="white"/>
<stop offset="1" stop-color="#041020"/>
</linearGradient>
<linearGradient id="paint6_linear_2489_435" x1="59.5098" y1="205.676" x2="517.313" y2="206.366" gradientUnits="userSpaceOnUse">
<stop stop-color="white"/>
<stop offset="1" stop-color="#040D1A"/>
</linearGradient>
<linearGradient id="paint7_linear_2489_435" x1="38.2676" y1="205.676" x2="201.634" y2="205.676" gradientUnits="userSpaceOnUse">
<stop stop-color="white"/>
<stop offset="1" stop-color="#3CADFF"/>
</linearGradient>
<linearGradient id="paint8_linear_2489_435" x1="31.96" y1="214.326" x2="174.087" y2="214.326" gradientUnits="userSpaceOnUse">
<stop stop-color="white"/>
<stop offset="1" stop-color="#3CADFF"/>
</linearGradient>
</defs>
</svg>
