<svg width="149" height="36" viewBox="0 0 149 36" fill="none" xmlns="http://www.w3.org/2000/svg">
<path fill-rule="evenodd" clip-rule="evenodd" d="M30.6528 5.51861L30.8399 6.66416C30.9874 7.72984 31.0557 8.80522 31.0444 9.88126C31.0431 12.2592 30.7598 14.6283 30.2006 16.9378C29.4442 20.0754 28.1269 23.0462 26.3137 25.7032C24.2184 28.7547 21.1889 31.756 16.773 34.1676L16.2327 34.4624L15.6925 34.1676C11.2765 31.756 8.24829 28.7547 6.15182 25.7032C4.33866 23.0462 3.0213 20.0754 2.26492 16.9378C1.70576 14.6287 1.42247 12.26 1.42112 9.88251C1.40971 8.80648 1.47805 7.73109 1.62557 6.66542L1.81266 5.51986C1.82864 5.42644 1.82619 5.33074 1.80547 5.23827C1.78475 5.14581 1.74617 5.05842 1.69194 4.98112C1.63772 4.90383 1.56892 4.83817 1.48952 4.78792C1.41012 4.73767 1.32169 4.70383 1.22931 4.68835C1.13694 4.67287 1.04246 4.67606 0.951304 4.69772C0.860152 4.71939 0.774135 4.75911 0.698211 4.81459C0.622287 4.87008 0.557956 4.94023 0.508927 5.021C0.459897 5.10177 0.427138 5.19158 0.412537 5.28523L0.22544 6.43079C0.0645114 7.57395 -0.0104602 8.72785 0.00117198 9.88251C0.00206422 12.3771 0.299089 14.8625 0.885854 17.2853C1.68458 20.5939 3.07502 23.7264 4.98835 26.5276C7.20006 29.751 10.408 32.9204 15.0247 35.4361L15.9019 35.9141C16.0052 35.9707 16.1209 36.0003 16.2383 36.0003C16.3558 36.0003 16.4714 35.9707 16.5747 35.9141L17.4507 35.4361C22.0625 32.9191 25.2716 29.751 27.487 26.5276C29.3994 23.7266 30.789 20.5946 31.5871 17.2866C32.1738 14.8638 32.4709 12.3784 32.4717 9.88377C32.4833 8.7291 32.4084 7.57521 32.2475 6.43204L32.0604 5.28648C32.0458 5.19283 32.013 5.10303 31.964 5.02226C31.915 4.94148 31.8506 4.87133 31.7747 4.81585C31.6988 4.76036 31.6128 4.72065 31.5216 4.69898C31.4305 4.67731 31.336 4.67413 31.2436 4.68961C31.1512 4.70509 31.0628 4.73893 30.9834 4.78917C30.904 4.83942 30.8352 4.90508 30.781 4.98238C30.7267 5.05967 30.6882 5.14707 30.6674 5.23953C30.6467 5.33199 30.6443 5.42769 30.6602 5.52112L30.6528 5.51861V5.51861Z" fill="white"/>
<path fill-rule="evenodd" clip-rule="evenodd" d="M5.68988 4.73783L16.2342 1.47556L27.0139 4.80809C27.1944 4.86273 27.3889 4.84274 27.5549 4.75251C27.7208 4.66228 27.8447 4.50915 27.8994 4.32664C27.9542 4.14412 27.9353 3.94709 27.8469 3.77865C27.7585 3.61022 27.6078 3.4841 27.4278 3.4279L16.4411 0.031384C16.3063 -0.0104613 16.1621 -0.0104613 16.0273 0.031384L5.2748 3.35513C5.18495 3.38233 5.10128 3.42724 5.02861 3.48727C4.95594 3.5473 4.89569 3.62128 4.85133 3.70495C4.80696 3.78862 4.77935 3.88035 4.77009 3.97485C4.76082 4.06936 4.77008 4.16478 4.79732 4.25566C4.82457 4.34653 4.86928 4.43106 4.92887 4.50439C4.98846 4.57773 5.06177 4.63842 5.14459 4.68298C5.2274 4.72755 5.3181 4.75512 5.41146 4.7641C5.50482 4.77308 5.59902 4.7633 5.68864 4.73532L5.68988 4.73783V4.73783Z" fill="white"/>
<path fill-rule="evenodd" clip-rule="evenodd" d="M0.483217 5.72866L15.5996 35.606C15.6586 35.7227 15.748 35.8209 15.8581 35.8899C15.9683 35.9588 16.095 35.9959 16.2245 35.9971C16.3539 35.9982 16.4813 35.9634 16.5926 35.8965C16.704 35.8295 16.7951 35.733 16.856 35.6173L26.0746 18.1579L26.0882 18.1303L31.9886 5.70858C32.0685 5.53716 32.0785 5.3407 32.0162 5.16191C31.9539 4.98312 31.8244 4.83645 31.6559 4.75378C31.4875 4.67112 31.2936 4.65914 31.1164 4.72046C30.9392 4.78177 30.7931 4.91142 30.7099 5.08123L24.8194 17.4929L16.2526 33.7289L1.74581 5.07119C1.704 4.9861 1.64593 4.91026 1.57497 4.84806C1.50401 4.78586 1.42156 4.73853 1.33241 4.70883C1.24326 4.67913 1.14917 4.66764 1.0556 4.67502C0.962033 4.68241 0.87084 4.70852 0.787309 4.75185C0.703778 4.79519 0.629569 4.85487 0.568981 4.92746C0.508393 5.00004 0.462631 5.08408 0.434347 5.1747C0.406062 5.26532 0.395818 5.36072 0.404207 5.45538C0.412595 5.55004 0.439451 5.64208 0.483217 5.72615V5.72866Z" fill="white"/>
<path fill-rule="evenodd" clip-rule="evenodd" d="M7.71912 19.0349H24.5293C24.7175 19.0349 24.8979 18.9592 25.0309 18.8245C25.1639 18.6898 25.2387 18.5071 25.2387 18.3166C25.2387 18.126 25.1639 17.9433 25.0309 17.8086C24.8979 17.6739 24.7175 17.5982 24.5293 17.5982H7.71912C7.53099 17.5982 7.35056 17.6739 7.21753 17.8086C7.0845 17.9433 7.00977 18.126 7.00977 18.3166C7.00977 18.5071 7.0845 18.6898 7.21753 18.8245C7.35056 18.9592 7.53099 19.0349 7.71912 19.0349V19.0349ZM54.6073 12.8366H43.6714C43.4824 12.8376 43.3015 12.914 43.1678 13.0494C43.0342 13.1847 42.9587 13.3679 42.9577 13.5593V22.4477C42.959 22.639 43.0346 22.822 43.1682 22.9573C43.3018 23.0926 43.4825 23.1691 43.6714 23.1704H54.6073V24.6761H43.6714C43.3829 24.6774 43.0969 24.6209 42.8301 24.5097C42.5633 24.3984 42.3209 24.2348 42.1168 24.0282C41.9128 23.8216 41.7512 23.5761 41.6414 23.3059C41.5316 23.0357 41.4757 22.7462 41.4771 22.454V13.5656C41.4757 13.2734 41.5316 12.9838 41.6414 12.7136C41.7512 12.4434 41.9128 12.1979 42.1168 11.9913C42.3209 11.7847 42.5633 11.6211 42.8301 11.5099C43.0969 11.3987 43.3829 11.3421 43.6714 11.3435H54.6073V12.8366V12.8366ZM75.1421 11.3359V12.8416H64.6101V17.2419H73.0753V18.7601H64.6089V23.1679H75.1408V24.6736H63.122V11.3359H75.1421Z" fill="white"/>
<path d="M96.8287 13.5776V17.4848C96.8298 17.7769 96.7738 18.0664 96.664 18.3365C96.5541 18.6066 96.3925 18.8521 96.1885 19.0586C95.9845 19.2652 95.7422 19.4288 95.4754 19.5401C95.2087 19.6514 94.9228 19.708 94.6343 19.7069H92.6233L96.7556 24.6693H94.7991L90.6842 19.7069H85.8519C85.6129 19.6946 85.3747 19.6698 85.1382 19.6329V24.6693H83.6514V11.3555H94.6232C94.9117 11.3543 95.1975 11.411 95.4643 11.5223C95.731 11.6335 95.9734 11.7972 96.1774 12.0037C96.3814 12.2103 96.5429 12.4557 96.6528 12.7259C96.7627 12.996 96.8187 13.2855 96.8175 13.5776H96.8287V13.5776ZM85.8569 18.1887H94.6343C94.7259 18.1899 94.8168 18.1725 94.9017 18.1375C94.9866 18.1025 95.0636 18.0507 95.1284 17.9851C95.1932 17.9195 95.2444 17.8415 95.2789 17.7555C95.3134 17.6696 95.3306 17.5775 95.3294 17.4848V13.5776C95.3308 13.4835 95.3138 13.39 95.2794 13.3025C95.2449 13.2151 95.1937 13.1355 95.1287 13.0682C95.0656 12.9993 94.9888 12.9447 94.9034 12.9079C94.818 12.8712 94.7259 12.8531 94.6331 12.8549H85.8556C85.6667 12.8559 85.4857 12.9323 85.3521 13.0676C85.2184 13.203 85.1429 13.3862 85.1419 13.5776V17.4848C85.14 17.5788 85.1578 17.6721 85.1941 17.7586C85.2304 17.8451 85.2844 17.9228 85.3526 17.9867C85.4191 18.0526 85.498 18.1044 85.5846 18.1391C85.6712 18.1738 85.7638 18.1907 85.8569 18.1887V18.1887Z" fill="white"/>
<path fill-rule="evenodd" clip-rule="evenodd" d="M104.693 11.3359H117.855V12.8416H112.031V24.6748H110.544V12.8416H104.693V11.3359ZM125.832 24.6686V11.3359H127.318V24.6686H125.832ZM147.08 11.3359H148.982L143.478 18.0022L149.001 24.6686H147.08L142.18 18.7614H137.937V24.6686H136.44V11.3359H137.94V17.2419H142.182L147.08 11.3359Z" fill="white"/>
</svg>
