<svg width="300" height="300" viewBox="0 0 300 300" fill="none" xmlns="http://www.w3.org/2000/svg">
<g clip-path="url(#clip0_2489_817)">
<g clip-path="url(#clip1_2489_817)">
<path d="M168.37 62.0274L164.353 59.7015L164.663 57.8409L168.696 60.1667L168.37 62.0274Z" fill="url(#paint0_linear_2489_817)"/>
<path d="M174.219 65.3921L170.201 63.0817L170.511 61.2211L174.545 63.5469L174.219 65.3921Z" fill="url(#paint1_linear_2489_817)"/>
<path d="M162.583 58.6782L153.757 53.5924L154.067 51.7317L162.894 56.8175L162.583 58.6782Z" fill="url(#paint2_linear_2489_817)"/>
<path opacity="0.4" d="M219.297 112.482C219.76 112.051 220.085 111.492 220.23 110.875C220.374 110.259 220.332 109.614 220.11 109.022C219.887 108.429 219.493 107.917 218.978 107.548C218.463 107.18 217.85 106.973 217.218 106.953C216.585 106.934 215.96 107.102 215.424 107.438C214.887 107.774 214.462 108.261 214.203 108.839C213.944 109.416 213.862 110.057 213.968 110.681C214.074 111.305 214.363 111.883 214.799 112.343C215.079 112.657 215.42 112.911 215.802 113.089C216.183 113.267 216.597 113.365 217.018 113.379C217.439 113.392 217.858 113.319 218.25 113.165C218.642 113.011 218.998 112.779 219.297 112.482Z" fill="url(#paint3_linear_2489_817)"/>
<path opacity="0.4" d="M243.201 70.1213C243.495 69.844 243.701 69.4857 243.792 69.0917C243.883 68.6976 243.855 68.2854 243.712 67.9072C243.569 67.529 243.317 67.2016 242.987 66.9664C242.658 66.7313 242.267 66.5989 241.862 66.5859C241.458 66.5729 241.059 66.68 240.715 66.8936C240.372 67.1072 240.099 67.4177 239.932 67.786C239.765 68.1543 239.711 68.5638 239.776 68.9629C239.842 69.362 240.024 69.7327 240.3 70.0283C240.483 70.2272 240.704 70.3876 240.949 70.5002C241.195 70.6127 241.461 70.6751 241.731 70.6838C242.001 70.6925 242.27 70.6472 242.522 70.5506C242.775 70.454 243.005 70.3081 243.201 70.1213Z" fill="url(#paint4_linear_2489_817)"/>
<path opacity="0.8" d="M238.967 65.082C239.152 64.8978 239.278 64.663 239.329 64.4072C239.38 64.1514 239.355 63.8862 239.255 63.6451C239.155 63.404 238.986 63.1979 238.769 63.0529C238.552 62.9079 238.297 62.8304 238.036 62.8304C237.775 62.8304 237.52 62.9079 237.303 63.0529C237.086 63.1979 236.917 63.404 236.818 63.6451C236.718 63.8862 236.692 64.1514 236.743 64.4072C236.795 64.663 236.921 64.8978 237.106 65.082C237.227 65.2057 237.372 65.3041 237.532 65.3712C237.691 65.4383 237.863 65.4729 238.036 65.4729C238.21 65.4729 238.381 65.4383 238.541 65.3712C238.701 65.3041 238.846 65.2057 238.967 65.082Z" fill="url(#paint5_linear_2489_817)"/>
<path opacity="0.4" d="M229.178 56.5691C229.243 56.4942 229.277 56.3982 229.276 56.2993C229.274 56.2003 229.236 56.1055 229.169 56.0327C229.102 55.9599 229.011 55.9143 228.912 55.9046C228.814 55.895 228.715 55.9218 228.635 55.9801C228.598 56.0176 228.567 56.0623 228.547 56.1115C228.526 56.1607 228.516 56.2135 228.516 56.2669C228.516 56.3202 228.526 56.373 228.547 56.4223C228.567 56.4715 228.598 56.5161 228.635 56.5536C228.706 56.6267 228.802 56.6693 228.904 56.6722C229.005 56.6751 229.103 56.6381 229.178 56.5691Z" fill="url(#paint6_linear_2489_817)"/>
<path opacity="0.8" d="M231.581 73.098C231.654 73.0204 231.695 72.9178 231.695 72.8113C231.695 72.7047 231.654 72.6021 231.581 72.5245C231.545 72.487 231.501 72.4572 231.453 72.4368C231.405 72.4164 231.354 72.4059 231.302 72.4059C231.25 72.4059 231.198 72.4164 231.15 72.4368C231.102 72.4572 231.059 72.487 231.023 72.5245C230.95 72.6021 230.909 72.7047 230.909 72.8113C230.909 72.9178 230.95 73.0204 231.023 73.098C231.101 73.1636 231.2 73.1996 231.302 73.1996C231.404 73.1996 231.503 73.1636 231.581 73.098Z" fill="url(#paint7_linear_2489_817)"/>
<path opacity="0.8" d="M236.701 104.559C236.766 104.484 236.801 104.388 236.799 104.289C236.798 104.19 236.76 104.095 236.693 104.022C236.626 103.95 236.534 103.904 236.436 103.894C236.337 103.885 236.239 103.912 236.159 103.97C236.121 104.007 236.091 104.052 236.07 104.101C236.05 104.15 236.039 104.203 236.039 104.257C236.039 104.31 236.05 104.363 236.07 104.412C236.091 104.461 236.121 104.506 236.159 104.543C236.229 104.616 236.326 104.659 236.427 104.662C236.528 104.665 236.627 104.628 236.701 104.559Z" fill="url(#paint8_linear_2489_817)"/>
<path opacity="0.8" d="M233.088 99.5505C233.158 99.4713 233.196 99.3693 233.196 99.2637C233.196 99.1582 233.158 99.0562 233.088 98.977C233.051 98.9383 233.007 98.9073 232.959 98.8856C232.91 98.8638 232.858 98.8519 232.804 98.8505C232.751 98.8491 232.698 98.8581 232.648 98.8772C232.599 98.8962 232.553 98.9249 232.514 98.9615C232.476 98.9981 232.445 99.042 232.423 99.0907C232.401 99.1393 232.389 99.1918 232.388 99.245C232.386 99.2983 232.395 99.3513 232.415 99.4011C232.434 99.4508 232.462 99.4963 232.499 99.535C232.577 99.6112 232.681 99.6551 232.79 99.658C232.899 99.6609 233.006 99.6225 233.088 99.5505Z" fill="url(#paint9_linear_2489_817)"/>
<path opacity="0.4" d="M219.467 75.3312C220.166 74.6737 220.654 73.8239 220.87 72.8891C221.086 71.9544 221.02 70.9766 220.681 70.0794C220.341 69.1821 219.743 68.4056 218.962 67.848C218.181 67.2903 217.252 66.9765 216.293 66.9462C215.334 66.9159 214.387 67.1705 213.572 67.6777C212.758 68.185 212.112 68.9222 211.716 69.7962C211.32 70.6702 211.193 71.6419 211.349 72.5884C211.506 73.5349 211.939 74.4138 212.595 75.1141C213.032 75.5801 213.556 75.9555 214.138 76.2186C214.72 76.4818 215.348 76.6277 215.986 76.6478C216.625 76.668 217.261 76.5621 217.858 76.3361C218.455 76.1102 219.002 75.7687 219.467 75.3312Z" fill="url(#paint10_linear_2489_817)"/>
<path d="M193.267 84.7895C193.614 84.4616 193.857 84.0381 193.965 83.5723C194.072 83.1066 194.039 82.6195 193.869 82.1726C193.7 81.7256 193.402 81.3388 193.013 81.0611C192.624 80.7833 192.161 80.627 191.683 80.6119C191.205 80.5967 190.733 80.7235 190.328 80.9761C189.922 81.2287 189.6 81.5958 189.402 82.0311C189.205 82.4664 189.141 82.9505 189.219 83.4221C189.296 83.8937 189.512 84.3317 189.838 84.681C190.056 84.9137 190.317 85.1012 190.608 85.2327C190.898 85.3642 191.211 85.4371 191.53 85.4472C191.848 85.4573 192.166 85.4044 192.464 85.2915C192.762 85.1786 193.035 85.008 193.267 84.7895Z" fill="url(#paint11_linear_2489_817)"/>
<path opacity="0.4" d="M235.368 85.3942C236.705 85.3942 237.788 84.3112 237.788 82.9753C237.788 81.6394 236.705 80.5565 235.368 80.5565C234.032 80.5565 232.948 81.6394 232.948 82.9753C232.948 84.3112 234.032 85.3942 235.368 85.3942Z" fill="url(#paint12_linear_2489_817)"/>
<path opacity="0.4" d="M219.467 44.9247C219.817 44.5979 220.063 44.1745 220.172 43.7082C220.281 43.2419 220.249 42.7537 220.08 42.3055C219.912 41.8573 219.614 41.4692 219.224 41.1904C218.835 40.9116 218.371 40.7546 217.892 40.7394C217.414 40.7242 216.941 40.8513 216.535 41.1048C216.128 41.3583 215.806 41.7267 215.609 42.1633C215.412 42.5999 215.35 43.0851 215.429 43.5573C215.508 44.0296 215.726 44.4677 216.055 44.8162C216.271 45.0485 216.531 45.2357 216.82 45.3669C217.109 45.4982 217.421 45.571 217.738 45.5811C218.056 45.5912 218.372 45.5384 218.668 45.4257C218.965 45.3131 219.237 45.1428 219.467 44.9247Z" fill="url(#paint13_linear_2489_817)"/>
<path opacity="0.4" d="M188.907 62.2134C189.257 61.8866 189.502 61.4632 189.611 60.9969C189.72 60.5306 189.689 60.0424 189.52 59.5942C189.351 59.146 189.053 58.7579 188.664 58.4791C188.274 58.2003 187.811 58.0433 187.332 58.0281C186.853 58.0129 186.38 58.14 185.974 58.3935C185.567 58.647 185.245 59.0154 185.049 59.452C184.852 59.8886 184.789 60.3738 184.868 60.846C184.948 61.3183 185.165 61.7564 185.494 62.1049C185.71 62.3372 185.97 62.5244 186.259 62.6556C186.548 62.7869 186.86 62.8597 187.178 62.8698C187.495 62.8799 187.811 62.8271 188.108 62.7144C188.405 62.6018 188.676 62.4315 188.907 62.2134Z" fill="url(#paint14_linear_2489_817)"/>
<path opacity="0.4" d="M226.525 104.326C226.725 104.127 226.861 103.873 226.917 103.596C226.972 103.319 226.944 103.032 226.836 102.772C226.728 102.511 226.545 102.288 226.31 102.131C226.075 101.974 225.799 101.89 225.517 101.89C225.235 101.89 224.959 101.974 224.724 102.131C224.489 102.288 224.306 102.511 224.198 102.772C224.09 103.032 224.062 103.319 224.117 103.596C224.173 103.873 224.309 104.127 224.509 104.326C224.776 104.593 225.139 104.743 225.517 104.743C225.895 104.743 226.258 104.593 226.525 104.326Z" fill="url(#paint15_linear_2489_817)"/>
<path d="M223.779 64.1981C224.042 63.9313 224.189 63.5721 224.189 63.198C224.189 62.8238 224.042 62.4647 223.779 62.1979C223.582 62.0012 223.33 61.8675 223.057 61.8136C222.783 61.7597 222.499 61.788 222.242 61.895C221.984 62.002 221.764 62.1829 221.61 62.4148C221.455 62.6467 221.372 62.9192 221.372 63.198C221.372 63.4768 221.455 63.7493 221.61 63.9812C221.764 64.2131 221.984 64.394 222.242 64.5009C222.499 64.6079 222.783 64.6363 223.057 64.5824C223.33 64.5285 223.582 64.3948 223.779 64.1981Z" fill="url(#paint16_linear_2489_817)"/>
<path d="M205.677 63.6555C205.813 63.5216 205.906 63.3503 205.944 63.1635C205.982 62.9766 205.964 62.7825 205.892 62.606C205.819 62.4295 205.696 62.2784 205.538 62.1721C205.379 62.0659 205.193 62.0091 205.002 62.0091C204.811 62.0091 204.624 62.0659 204.466 62.1721C204.307 62.2784 204.184 62.4295 204.112 62.606C204.039 62.7825 204.021 62.9766 204.06 63.1635C204.098 63.3503 204.191 63.5216 204.327 63.6555C204.507 63.8325 204.749 63.9318 205.002 63.9318C205.254 63.9318 205.497 63.8325 205.677 63.6555Z" fill="url(#paint17_linear_2489_817)"/>
<path d="M202.901 63.5314C203.03 63.4032 203.131 63.251 203.201 63.0833C203.271 62.9157 203.306 62.736 203.306 62.5546C203.306 62.3731 203.271 62.1934 203.201 62.0258C203.131 61.8581 203.03 61.7059 202.901 61.5777C202.707 61.3798 202.458 61.2441 202.187 61.188C201.915 61.1318 201.633 61.1578 201.376 61.2626C201.119 61.3674 200.9 61.5463 200.745 61.7764C200.59 62.0065 200.508 62.2774 200.508 62.5546C200.508 62.8317 200.59 63.1027 200.745 63.3328C200.9 63.5628 201.119 63.7417 201.376 63.8465C201.633 63.9513 201.915 63.9773 202.187 63.9212C202.458 63.865 202.707 63.7294 202.901 63.5314Z" fill="url(#paint18_linear_2489_817)"/>
<path d="M202.418 66.8955C202.491 66.8248 202.548 66.7404 202.587 66.6473C202.626 66.5541 202.646 66.4541 202.646 66.353C202.646 66.252 202.626 66.152 202.587 66.0588C202.548 65.9657 202.491 65.8813 202.418 65.8106C202.354 65.7202 202.271 65.6447 202.175 65.5891C202.08 65.5335 201.973 65.4991 201.863 65.4882C201.752 65.4774 201.641 65.4903 201.536 65.5262C201.431 65.562 201.335 65.6199 201.255 65.6961C201.174 65.7722 201.111 65.8647 201.069 65.9673C201.027 66.07 201.008 66.1804 201.012 66.2912C201.017 66.4019 201.045 66.5104 201.095 66.6093C201.145 66.7082 201.216 66.7953 201.302 66.8645C201.446 67.0164 201.645 67.1049 201.854 67.1107C202.063 67.1165 202.266 67.0391 202.418 66.8955Z" fill="url(#paint19_linear_2489_817)"/>
<path opacity="0.4" d="M215.76 89.7358C215.945 89.5474 216.048 89.2941 216.048 89.0303C216.048 88.7665 215.945 88.5132 215.76 88.3248C215.569 88.1391 215.313 88.0353 215.046 88.0353C214.78 88.0353 214.524 88.1391 214.333 88.3248C214.167 88.5136 214.077 88.7575 214.082 89.0087C214.087 89.2599 214.185 89.5003 214.358 89.6827C214.531 89.8652 214.766 89.9765 215.016 89.995C215.267 90.0134 215.516 89.9375 215.713 89.7823L215.76 89.7358Z" fill="url(#paint20_linear_2489_817)"/>
<path d="M221.95 91.2863C222.302 90.9539 222.547 90.5248 222.655 90.0532C222.764 89.5815 222.73 89.0883 222.558 88.6359C222.386 88.1835 222.084 87.7922 221.69 87.5112C221.295 87.2302 220.827 87.0722 220.343 87.057C219.859 87.0419 219.382 87.1704 218.971 87.4262C218.56 87.6821 218.234 88.0539 218.034 88.4946C217.834 88.9354 217.769 89.4255 217.848 89.903C217.926 90.3805 218.145 90.8241 218.475 91.1778C218.696 91.4138 218.961 91.6039 219.255 91.7372C219.549 91.8705 219.867 91.9443 220.19 91.9544C220.513 91.9645 220.835 91.9107 221.137 91.796C221.439 91.6813 221.715 91.5081 221.95 91.2863Z" fill="url(#paint21_linear_2489_817)"/>
<path d="M86.6193 195.778C84.37 203.252 72.2702 217.781 64.7932 215.486C57.3162 213.191 57.2852 195.065 59.55 187.576C60.0858 185.799 60.9664 184.145 62.1415 182.709C63.3167 181.273 64.7634 180.082 66.399 179.204C68.0347 178.326 69.8272 177.78 71.6744 177.594C73.5215 177.409 75.387 177.59 77.1644 178.125C78.9418 178.661 80.5963 179.541 82.0333 180.716C83.4704 181.89 84.6619 183.336 85.5399 184.971C86.4179 186.606 86.9651 188.398 87.1503 190.244C87.3355 192.09 87.155 193.955 86.6193 195.732V195.778Z" fill="url(#paint22_radial_2489_817)"/>
<g style="mix-blend-mode:lighten">
<path d="M86.6193 195.778C84.37 203.252 72.2702 217.781 64.7932 215.486C57.3162 213.191 57.2852 195.065 59.55 187.576C60.0858 185.799 60.9664 184.145 62.1415 182.709C63.3167 181.273 64.7634 180.082 66.399 179.204C68.0347 178.326 69.8272 177.78 71.6744 177.594C73.5215 177.409 75.387 177.59 77.1644 178.125C78.9418 178.661 80.5963 179.541 82.0333 180.716C83.4704 181.89 84.6619 183.336 85.5399 184.971C86.4179 186.606 86.9651 188.398 87.1503 190.244C87.3355 192.09 87.155 193.955 86.6193 195.732V195.778Z" fill="url(#paint23_linear_2489_817)"/>
</g>
<path d="M72.2688 178.272C74.4175 178.195 76.5541 178.625 78.5054 179.528C80.4567 180.43 82.1678 181.78 83.4998 183.467C85.7647 186.692 84.4151 189.592 80.4904 189.948C78.3242 190.033 76.1687 189.603 74.2004 188.695C72.2321 187.787 70.507 186.426 69.1663 184.723C66.948 181.498 68.2976 178.598 72.2688 178.272Z" fill="#251C72"/>
<path style="mix-blend-mode:lighten" opacity="0.5" d="M72.2688 178.272C74.4175 178.195 76.5541 178.625 78.5054 179.528C80.4567 180.43 82.1678 181.78 83.4998 183.467C85.7647 186.692 84.4151 189.592 80.4904 189.948C78.3242 190.033 76.1687 189.603 74.2004 188.695C72.2321 187.787 70.507 186.426 69.1663 184.723C66.948 181.498 68.2976 178.598 72.2688 178.272Z" fill="url(#paint24_radial_2489_817)"/>
<path d="M68.1266 181.916C68.9865 181.248 70.0326 180.864 71.1206 180.815C73.2683 180.74 75.4035 181.173 77.3524 182.078C79.3013 182.983 81.0089 184.336 82.3361 186.025C82.9592 186.838 83.3361 187.812 83.422 188.832C84.8491 187.638 84.9732 185.622 83.422 183.451C82.0962 181.778 80.3969 180.438 78.4602 179.539C76.5234 178.639 74.4029 178.206 72.2685 178.272C69.5072 178.489 68.0181 179.962 68.1266 181.916Z" fill="url(#paint25_linear_2489_817)"/>
<path opacity="0.6" d="M85.4092 174.427C85.1884 174.421 84.9708 174.481 84.7839 174.598C84.5969 174.716 84.449 174.886 84.3589 175.088C84.2688 175.289 84.2405 175.513 84.2776 175.73C84.3146 175.948 84.4155 176.15 84.5672 176.31C84.719 176.471 84.915 176.582 85.1303 176.631C85.3456 176.681 85.5707 176.665 85.777 176.586C85.9834 176.507 86.1617 176.369 86.2895 176.189C86.4173 176.009 86.4889 175.795 86.4951 175.574C86.4992 175.428 86.4744 175.282 86.4221 175.145C86.3697 175.008 86.2909 174.882 86.19 174.776C86.0892 174.669 85.9683 174.584 85.8343 174.524C85.7004 174.464 85.5559 174.431 85.4092 174.427Z" fill="url(#paint26_linear_2489_817)"/>
<path d="M74.8916 166.674C74.3364 166.662 73.7902 166.815 73.3218 167.113C72.8535 167.411 72.4841 167.842 72.2604 168.349C72.0367 168.857 71.9687 169.42 72.065 169.967C72.1613 170.514 72.4176 171.019 72.8015 171.42C73.1853 171.821 73.6795 172.1 74.2216 172.22C74.7636 172.34 75.3292 172.297 75.8468 172.096C76.3644 171.895 76.8108 171.546 77.1295 171.091C77.4482 170.637 77.6249 170.098 77.6373 169.543C77.6476 169.174 77.5845 168.806 77.4517 168.462C77.3189 168.117 77.1191 167.802 76.8637 167.536C76.6083 167.269 76.3025 167.055 75.964 166.907C75.6254 166.76 75.2609 166.68 74.8916 166.674Z" fill="url(#paint27_linear_2489_817)"/>
<path opacity="0.6" d="M90.9936 160.333C90.5822 160.333 90.1876 160.496 89.8967 160.787C89.6058 161.078 89.4424 161.472 89.4424 161.883C89.4424 162.294 89.6058 162.689 89.8967 162.98C90.1876 163.27 90.5822 163.434 90.9936 163.434C91.405 163.434 91.7996 163.27 92.0905 162.98C92.3814 162.689 92.5449 162.294 92.5449 161.883C92.5449 161.472 92.3814 161.078 92.0905 160.787C91.7996 160.496 91.405 160.333 90.9936 160.333Z" fill="url(#paint28_linear_2489_817)"/>
<path d="M84.6783 161.589C84.463 161.582 84.2507 161.64 84.0685 161.755C83.8862 161.87 83.7423 162.036 83.6549 162.233C83.5675 162.43 83.5407 162.648 83.5777 162.86C83.6148 163.073 83.7142 163.269 83.8632 163.424C84.0122 163.58 84.2041 163.687 84.4145 163.734C84.6248 163.78 84.8442 163.762 85.0447 163.684C85.2452 163.605 85.4177 163.468 85.5402 163.291C85.6628 163.114 85.73 162.905 85.7332 162.689C85.7373 162.548 85.7132 162.406 85.6622 162.274C85.6112 162.142 85.5344 162.021 85.4363 161.918C85.3381 161.816 85.2205 161.734 85.0904 161.677C84.9603 161.621 84.8202 161.591 84.6783 161.589Z" fill="url(#paint29_linear_2489_817)"/>
<path d="M85.8882 159.17C85.792 159.165 85.6959 159.181 85.6058 159.215C85.5157 159.249 85.4334 159.301 85.3639 159.367C85.2944 159.434 85.239 159.514 85.2013 159.602C85.1635 159.691 85.1441 159.786 85.1442 159.883C85.1401 159.98 85.1553 160.076 85.1891 160.167C85.2229 160.258 85.2745 160.342 85.3409 160.412C85.4073 160.483 85.4872 160.54 85.5759 160.579C85.6645 160.619 85.7602 160.64 85.8572 160.642C85.9628 160.657 86.0705 160.65 86.173 160.62C86.2755 160.59 86.3703 160.538 86.451 160.469C86.5318 160.399 86.5965 160.312 86.6409 160.215C86.6853 160.118 86.7083 160.013 86.7083 159.906C86.7083 159.799 86.6853 159.694 86.6409 159.597C86.5965 159.499 86.5318 159.413 86.451 159.343C86.3703 159.273 86.2755 159.222 86.173 159.192C86.0705 159.162 85.9628 159.154 85.8572 159.17H85.8882Z" fill="url(#paint30_linear_2489_817)"/>
<path opacity="0.6" d="M76.8142 179.901C76.4027 179.89 76.0041 180.044 75.7059 180.327C75.4077 180.611 75.2344 181.001 75.2241 181.412C75.2138 181.824 75.3674 182.222 75.651 182.52C75.9347 182.818 76.3252 182.991 76.7366 183.002C76.9403 183.007 77.143 182.972 77.3332 182.898C77.5233 182.825 77.6972 182.715 77.8448 182.575C77.9925 182.435 78.111 182.266 78.1937 182.08C78.2764 181.894 78.3215 181.694 78.3266 181.49C78.3317 181.286 78.2966 181.084 78.2234 180.894C78.1501 180.703 78.0401 180.53 77.8997 180.382C77.7592 180.235 77.5911 180.116 77.4048 180.033C77.2186 179.951 77.0179 179.906 76.8142 179.901Z" fill="url(#paint31_linear_2489_817)"/>
<path d="M81.5758 179.389C81.1121 179.377 80.6552 179.502 80.263 179.75C79.8709 179.998 79.5611 180.356 79.373 180.78C79.185 181.204 79.127 181.674 79.2066 182.131C79.2861 182.588 79.4996 183.011 79.8199 183.346C80.1402 183.681 80.5529 183.914 81.0057 184.015C81.4586 184.116 81.9311 184.08 82.3634 183.912C82.7957 183.743 83.1684 183.451 83.4342 183.071C83.6999 182.691 83.8468 182.24 83.8562 181.777C83.8687 181.158 83.6359 180.56 83.2086 180.113C82.7814 179.665 82.1944 179.405 81.5758 179.389Z" fill="url(#paint32_linear_2489_817)"/>
<path d="M127.709 151.84C129.424 140.208 121.379 129.39 109.742 127.676C98.1048 125.962 87.2812 134.003 85.5669 145.635C83.8526 157.267 91.8968 168.086 103.534 169.8C115.171 171.513 125.995 163.473 127.709 151.84Z" fill="url(#paint33_radial_2489_817)"/>
<g style="mix-blend-mode:lighten">
<path d="M115.878 167.9C126.478 162.803 130.938 150.082 125.838 139.487C120.739 128.891 108.012 124.434 97.4121 129.531C86.8119 134.628 82.3525 147.349 87.4517 157.944C92.551 168.54 105.278 172.997 115.878 167.9Z" fill="url(#paint34_linear_2489_817)"/>
</g>
<path d="M212.86 187.39C212.86 228.712 188.241 262.204 157.868 262.204C127.494 262.204 102.876 228.712 102.876 187.39C102.876 146.067 127.494 133.694 157.868 133.694C188.241 133.694 212.86 146.067 212.86 187.39Z" fill="url(#paint35_radial_2489_817)"/>
<g style="mix-blend-mode:lighten">
<path d="M212.859 187.39C212.859 228.712 188.24 262.204 157.867 262.204C127.493 262.204 102.875 228.712 102.875 187.39C102.875 146.067 127.493 133.694 157.867 133.694C188.24 133.694 212.859 146.067 212.859 187.39Z" fill="url(#paint36_linear_2489_817)"/>
</g>
<path d="M157.867 177.559C178.592 177.559 195.392 167.861 195.392 155.898C195.392 143.935 178.592 134.237 157.867 134.237C137.143 134.237 120.343 143.935 120.343 155.898C120.343 167.861 137.143 177.559 157.867 177.559Z" fill="#251C72"/>
<path style="mix-blend-mode:lighten" opacity="0.5" d="M157.867 177.559C178.592 177.559 195.392 167.861 195.392 155.898C195.392 143.935 178.592 134.237 157.867 134.237C137.143 134.237 120.343 143.935 120.343 155.898C120.343 167.861 137.143 177.559 157.867 177.559Z" fill="url(#paint37_radial_2489_817)"/>
<path d="M131.325 146.362C145.984 137.896 169.749 137.896 184.409 146.362C190.459 149.851 193.995 154.239 195.05 158.767C196.602 152.316 193.003 145.54 184.409 140.579C169.749 132.112 145.984 132.112 131.325 140.579C122.731 145.54 119.179 152.316 120.683 158.767C121.738 154.239 125.275 149.851 131.325 146.362Z" fill="url(#paint38_linear_2489_817)"/>
<path d="M136.852 91.4764C143.033 80.7748 143.034 69.2081 136.854 65.6414C130.673 62.0747 120.652 67.8587 114.471 78.5602C108.289 89.2618 108.289 100.829 114.469 104.395C120.649 107.962 130.671 102.178 136.852 91.4764Z" fill="#BCBEFF"/>
<path d="M160.055 160.27C191.026 160.27 216.133 135.175 216.133 104.218C216.133 73.2609 191.026 48.1653 160.055 48.1653C129.084 48.1653 103.978 73.2609 103.978 104.218C103.978 135.175 129.084 160.27 160.055 160.27Z" fill="url(#paint39_linear_2489_817)"/>
<path d="M142.555 130.763C141.112 141.788 132.798 145.246 123.94 138.516C115.083 131.787 109.126 117.336 110.553 106.311C111.98 95.2867 120.31 91.829 129.168 98.5584C138.026 105.288 143.982 119.739 142.555 130.763Z" fill="#251C72"/>
<path style="mix-blend-mode:lighten" opacity="0.5" d="M142.555 130.763C141.112 141.788 132.798 145.246 123.94 138.516C115.083 131.787 109.126 117.336 110.553 106.311C111.98 95.2867 120.31 91.829 129.168 98.5584C138.026 105.288 143.982 119.739 142.555 130.763Z" fill="url(#paint40_radial_2489_817)"/>
<path d="M135.251 121.212C134.739 125.228 131.714 126.484 128.503 124.034C126.824 122.606 125.507 120.8 124.66 118.766C123.814 116.731 123.461 114.525 123.632 112.327C124.144 108.327 127.169 107.071 130.38 109.521C132.056 110.948 133.372 112.751 134.218 114.782C135.065 116.814 135.419 119.018 135.251 121.212Z" fill="url(#paint41_linear_2489_817)"/>
<path d="M128.207 136.888C119.365 130.143 113.361 115.723 114.804 104.699C115.378 100.218 117.115 96.9459 119.551 95.1782C114.897 95.6124 111.438 99.5198 110.554 106.311C109.126 117.336 115.13 131.74 123.956 138.501C129.2 142.501 134.241 142.904 137.794 140.299C134.284 140.401 130.863 139.184 128.207 136.888Z" fill="url(#paint42_linear_2489_817)"/>
<path d="M124.716 138.144C115.89 131.384 109.887 116.979 111.314 105.955C111.981 100.853 114.121 97.38 117.115 95.7675C113.734 97.163 111.283 100.791 110.554 106.311C109.126 117.336 115.13 131.74 123.956 138.501C128.703 142.129 133.264 142.796 136.754 140.935C133.403 142.315 129.122 141.509 124.716 138.144Z" fill="url(#paint43_linear_2489_817)"/>
<path d="M224.189 222.085C235.494 218.836 242.023 207.042 238.773 195.742C235.523 184.442 223.724 177.915 212.419 181.164C201.114 184.413 194.584 196.207 197.834 207.507C201.084 218.807 212.884 225.334 224.189 222.085Z" fill="url(#paint44_radial_2489_817)"/>
<g style="mix-blend-mode:lighten">
<path d="M224.189 222.085C235.494 218.836 242.023 207.042 238.773 195.742C235.523 184.442 223.724 177.915 212.419 181.164C201.114 184.413 194.584 196.207 197.834 207.507C201.084 218.807 212.884 225.334 224.189 222.085Z" fill="#49A8FF"/>
</g>
<path d="M238.765 202.027C238.589 205.292 237.645 208.47 236.008 211.302C234.372 214.134 232.091 216.539 229.349 218.323C224.152 221.316 219.948 218.897 219.948 212.896C220.122 209.63 221.064 206.451 222.698 203.617C224.331 200.783 226.61 198.374 229.349 196.585C234.561 193.592 238.765 196.026 238.765 202.027Z" fill="#251C72"/>
<path style="mix-blend-mode:lighten" opacity="0.5" d="M238.765 202.027C238.589 205.292 237.645 208.47 236.008 211.302C234.372 214.134 232.091 216.539 229.349 218.323C224.152 221.316 219.948 218.897 219.948 212.896C220.122 209.63 221.064 206.451 222.698 203.617C224.331 200.783 226.61 198.374 229.349 196.585C234.561 193.592 238.765 196.026 238.765 202.027Z" fill="url(#paint45_radial_2489_817)"/>
<path d="M233.77 195.329C234.651 196.716 235.089 198.338 235.027 199.98C234.85 203.245 233.905 206.423 232.269 209.254C230.633 212.086 228.351 214.492 225.611 216.277C224.286 217.109 222.754 217.55 221.189 217.548C222.818 219.874 225.843 220.324 229.349 218.308C232.091 216.524 234.373 214.118 236.009 211.286C237.645 208.455 238.589 205.277 238.765 202.012C238.765 197.872 236.702 195.422 233.77 195.329Z" fill="url(#paint46_linear_2489_817)"/>
<path d="M207.384 124.716L187.062 136.438V112.994L207.384 101.272V124.716Z" fill="#251C72"/>
<path opacity="0.8" d="M204.359 103.008V123.088L187.062 133.058V136.438L207.384 124.716V101.272L204.359 103.008Z" fill="url(#paint47_radial_2489_817)"/>
<path d="M190.937 119.397L189.124 120.451V118.359L190.937 117.305V119.397Z" fill="url(#paint48_linear_2489_817)"/>
<path d="M194.801 114.482L192.987 115.536V113.428L194.801 112.374V114.482Z" fill="url(#paint49_linear_2489_817)"/>
<path d="M198.663 114.947L196.85 115.986V113.893L198.663 112.839V114.947Z" fill="url(#paint50_linear_2489_817)"/>
<path d="M198.663 120.451L196.85 121.505V119.397L198.663 118.359V120.451Z" fill="url(#paint51_linear_2489_817)"/>
<path d="M196.337 124.685L194.523 125.739V123.631L196.337 122.592V124.685Z" fill="url(#paint52_linear_2489_817)"/>
<path d="M202.65 118.157L200.837 119.211V117.103L202.65 116.049V118.157Z" fill="url(#paint53_linear_2489_817)"/>
<path d="M223.75 118.53L225.984 114.684L223.75 113.413L203.444 125.135V148.579L205.663 149.851L207.881 146.006L223.75 136.857V118.53Z" fill="url(#paint54_linear_2489_817)"/>
<path d="M225.982 138.129L205.661 149.851V126.406L225.982 114.684V138.129Z" fill="url(#paint55_linear_2489_817)"/>
<path d="M224.974 51.8558C224.721 51.8792 224.465 51.8495 224.224 51.7686C223.983 51.6876 223.761 51.5573 223.573 51.3858C223.385 51.2144 223.234 51.0056 223.132 50.7728C223.029 50.54 222.976 50.2883 222.976 50.0339C222.976 49.7794 223.029 49.5278 223.132 49.295C223.234 49.0622 223.385 48.8534 223.573 48.6819C223.761 48.5105 223.983 48.3801 224.224 48.2992C224.465 48.2183 224.721 48.1886 224.974 48.212C225.429 48.2539 225.851 48.464 226.159 48.801C226.466 49.1381 226.637 49.5778 226.637 50.0339C226.637 50.49 226.466 50.9297 226.159 51.2667C225.851 51.6038 225.429 51.8138 224.974 51.8558Z" fill="url(#paint56_linear_2489_817)"/>
<path d="M215.743 73.9977L215.355 73.6101L224.694 64.2757V50.0261H225.237V64.4928L215.743 73.9977Z" fill="url(#paint57_linear_2489_817)"/>
<path d="M232.933 261.382C230.668 268.856 218.584 283.385 211.107 281.136C203.63 278.888 203.599 260.7 205.848 253.226C206.996 249.715 209.472 246.792 212.748 245.083C216.024 243.373 219.839 243.012 223.377 244.078C226.915 245.143 229.896 247.55 231.682 250.784C233.468 254.018 233.917 257.822 232.933 261.382Z" fill="url(#paint58_radial_2489_817)"/>
<g style="mix-blend-mode:lighten">
<path d="M232.932 261.382C230.667 268.856 218.583 283.385 211.106 281.136C203.629 278.888 203.598 260.7 205.847 253.226C206.995 249.715 209.471 246.792 212.747 245.083C216.023 243.373 219.838 243.012 223.376 244.078C226.914 245.143 229.895 247.55 231.681 250.784C233.467 254.018 233.916 257.822 232.932 261.382Z" fill="url(#paint59_linear_2489_817)"/>
</g>
<path d="M218.536 243.861C220.683 243.783 222.818 244.212 224.767 245.115C226.716 246.018 228.424 247.368 229.752 249.055C232.017 252.28 230.667 255.18 226.742 255.537C224.595 255.612 222.459 255.179 220.511 254.274C218.562 253.369 216.854 252.016 215.527 250.327C213.262 247.102 214.596 244.202 218.536 243.861Z" fill="#251C72"/>
<path style="mix-blend-mode:lighten" opacity="0.5" d="M218.536 243.861C220.683 243.783 222.818 244.212 224.767 245.115C226.716 246.018 228.424 247.368 229.752 249.055C232.017 252.28 230.667 255.18 226.742 255.537C224.595 255.612 222.459 255.179 220.511 254.274C218.562 253.369 216.854 252.016 215.527 250.327C213.262 247.102 214.596 244.202 218.536 243.861Z" fill="url(#paint60_radial_2489_817)"/>
<path d="M214.426 247.52C215.289 246.858 216.333 246.475 217.42 246.419C219.567 246.348 221.701 246.782 223.649 247.687C225.598 248.592 227.306 249.943 228.635 251.629C229.256 252.444 229.637 253.416 229.737 254.436C231.164 253.242 231.288 251.226 229.737 249.055C228.409 247.368 226.701 246.018 224.752 245.115C222.803 244.212 220.668 243.783 218.521 243.861C215.807 244.094 214.333 245.567 214.426 247.52Z" fill="url(#paint61_linear_2489_817)"/>
<path opacity="0.6" d="M229.627 234.883C229.73 234.782 229.812 234.662 229.868 234.528C229.924 234.395 229.953 234.252 229.953 234.108C229.953 233.964 229.924 233.821 229.868 233.687C229.812 233.554 229.73 233.434 229.627 233.333C229.421 233.128 229.142 233.013 228.852 233.013C228.561 233.013 228.282 233.128 228.076 233.333C227.875 233.541 227.763 233.819 227.763 234.108C227.763 234.397 227.875 234.675 228.076 234.883C228.282 235.088 228.561 235.202 228.852 235.202C229.142 235.202 229.421 235.088 229.627 234.883Z" fill="url(#paint62_linear_2489_817)"/>
<path d="M242.566 233.054C242.971 232.673 243.253 232.182 243.378 231.641C243.503 231.101 243.465 230.535 243.269 230.016C243.072 229.497 242.726 229.048 242.274 228.725C241.823 228.403 241.285 228.221 240.73 228.204C240.175 228.187 239.628 228.334 239.157 228.628C238.686 228.922 238.312 229.348 238.084 229.854C237.855 230.36 237.782 230.922 237.873 231.469C237.964 232.017 238.215 232.525 238.595 232.93C238.848 233.199 239.151 233.415 239.487 233.567C239.823 233.719 240.186 233.803 240.555 233.814C240.924 233.826 241.291 233.765 241.636 233.634C241.982 233.504 242.298 233.306 242.566 233.054Z" fill="url(#paint63_linear_2489_817)"/>
<path opacity="0.6" d="M235.523 248.854C235.674 248.712 235.795 248.542 235.88 248.354C235.965 248.166 236.012 247.962 236.019 247.756C236.025 247.549 235.991 247.343 235.918 247.15C235.845 246.957 235.734 246.779 235.593 246.629C235.451 246.478 235.281 246.357 235.093 246.272C234.904 246.187 234.701 246.14 234.494 246.133C234.288 246.127 234.082 246.161 233.888 246.234C233.695 246.307 233.518 246.417 233.367 246.559C233.062 246.845 232.884 247.24 232.871 247.657C232.858 248.074 233.011 248.48 233.297 248.784C233.583 249.088 233.978 249.267 234.396 249.28C234.813 249.293 235.219 249.14 235.523 248.854Z" fill="url(#paint64_linear_2489_817)"/>
<path d="M239.137 243.551C239.242 243.451 239.326 243.331 239.383 243.197C239.44 243.064 239.47 242.921 239.47 242.776C239.47 242.631 239.44 242.487 239.383 242.354C239.326 242.22 239.242 242.1 239.137 242C239.049 241.869 238.934 241.758 238.799 241.675C238.663 241.593 238.512 241.541 238.354 241.523C238.197 241.506 238.038 241.523 237.888 241.573C237.737 241.623 237.6 241.706 237.485 241.815C237.371 241.924 237.281 242.057 237.223 242.204C237.165 242.351 237.14 242.51 237.149 242.668C237.159 242.826 237.203 242.98 237.278 243.119C237.354 243.258 237.459 243.379 237.586 243.473C237.68 243.584 237.797 243.673 237.927 243.737C238.057 243.801 238.2 243.838 238.345 243.845C238.49 243.852 238.635 243.83 238.771 243.78C238.907 243.729 239.032 243.651 239.137 243.551Z" fill="url(#paint65_linear_2489_817)"/>
<path d="M239.99 246.109C240.091 246.006 240.159 245.877 240.186 245.736C240.213 245.595 240.198 245.449 240.143 245.316C240.087 245.184 239.994 245.071 239.874 244.991C239.755 244.912 239.614 244.869 239.471 244.869C239.327 244.869 239.187 244.912 239.067 244.991C238.948 245.071 238.854 245.184 238.799 245.316C238.743 245.449 238.728 245.595 238.755 245.736C238.783 245.877 238.851 246.006 238.951 246.109C239.019 246.178 239.1 246.232 239.189 246.27C239.278 246.307 239.374 246.326 239.471 246.326C239.567 246.326 239.663 246.307 239.752 246.27C239.841 246.232 239.922 246.178 239.99 246.109Z" fill="url(#paint66_linear_2489_817)"/>
<path opacity="0.6" d="M231.923 224.96C232.137 224.742 232.281 224.465 232.338 224.165C232.395 223.866 232.362 223.556 232.244 223.274C232.125 222.993 231.926 222.753 231.672 222.584C231.418 222.415 231.119 222.325 230.814 222.325C230.509 222.325 230.21 222.415 229.956 222.584C229.701 222.753 229.503 222.993 229.384 223.274C229.266 223.556 229.233 223.866 229.29 224.165C229.347 224.465 229.491 224.742 229.705 224.96C229.849 225.107 230.022 225.225 230.212 225.305C230.403 225.385 230.607 225.426 230.814 225.426C231.021 225.426 231.225 225.385 231.416 225.305C231.606 225.225 231.779 225.107 231.923 224.96Z" fill="url(#paint67_linear_2489_817)"/>
<path d="M228.946 228.65C229.395 228.224 229.657 227.637 229.675 227.018C229.692 226.399 229.464 225.798 229.039 225.347C228.722 225.015 228.314 224.784 227.866 224.683C227.417 224.583 226.949 224.617 226.521 224.781C226.092 224.946 225.722 225.234 225.456 225.609C225.191 225.983 225.042 226.428 225.029 226.887C225.016 227.346 225.14 227.798 225.383 228.188C225.627 228.577 225.981 228.885 226.4 229.073C226.819 229.262 227.284 229.322 227.737 229.247C228.19 229.172 228.611 228.964 228.946 228.65Z" fill="url(#paint68_linear_2489_817)"/>
<path d="M182.687 83.239L66.8557 16.8907C66.1486 16.3763 65.3108 16.0714 64.4383 16.0111C63.5658 15.9508 62.694 16.1374 61.9227 16.5496L54.7715 20.6896L59.4252 24.0543V27.8686L56.7881 28.985L56.9277 170.272L64.777 177.823L91.6447 193.235L173.861 238.992H177.351C177.506 238.992 177.708 238.574 177.894 238.015L181.415 240.047L180.299 245.412L187.574 241.225C189.125 240.326 190.195 238.217 190.195 235.193V97.4265C190.164 91.9686 186.783 85.6113 182.687 83.239ZM179.492 231.084L67.9106 167.171C67.3968 166.798 66.9766 166.312 66.6832 165.749C66.3898 165.187 66.2311 164.564 66.2197 163.93V28.0392L89.8917 43.2657L175.753 93.8758L178.282 97.7987L179.678 159.34L179.492 231.084Z" fill="#49A8FF"/>
<path opacity="0.6" d="M187.759 88.8519L176.652 95.2557L178.281 97.7986L179.677 159.34L179.491 231.084L177.428 229.89C177.428 232.108 180.236 243.055 180.236 245.396L186.146 242L187.511 241.209C189.062 240.31 190.133 238.201 190.133 235.178V97.4265C190.052 94.4177 189.238 91.4741 187.759 88.8519Z" fill="#0F054C"/>
<path d="M175.196 87.565L59.3797 21.2013C55.2689 18.8289 51.9492 21.3408 51.9492 26.8143V164.519C51.9492 169.993 55.2689 176.35 59.3797 178.707L175.196 245.07C179.307 247.443 182.626 244.931 182.626 239.457V101.753C182.626 96.2791 179.307 89.8908 175.196 87.565ZM175.847 235.348C175.847 236.589 175.087 237.163 174.141 236.635L60.4345 171.512C59.9144 171.145 59.4886 170.66 59.192 170.097C58.8954 169.533 58.7365 168.908 58.7282 168.271V30.9697C58.7282 29.7293 59.4883 29.1556 60.4345 29.6828L174.141 94.8061C174.661 95.1733 175.087 95.6583 175.384 96.2216C175.68 96.7849 175.839 97.4103 175.847 98.0468V235.348Z" fill="url(#paint69_linear_2489_817)"/>
<path d="M175.196 87.565L59.3797 21.2013C55.2689 18.8289 51.9492 21.3408 51.9492 26.8143V164.519C51.9492 169.993 55.2689 176.35 59.3797 178.707L175.196 245.07C179.307 247.443 182.626 244.931 182.626 239.457V101.753C182.626 96.2791 179.307 89.8909 175.196 87.565ZM175.847 235.348C175.847 236.589 175.087 237.163 174.141 236.635L60.4345 171.512C59.9144 171.145 59.4886 170.66 59.192 170.097C58.8954 169.533 58.7365 168.908 58.7282 168.271V30.9698C58.7282 29.7293 59.4883 29.1556 60.4345 29.6828L174.141 94.8061C174.661 95.1733 175.087 95.6583 175.384 96.2216C175.68 96.7849 175.839 97.4103 175.847 98.0468V235.348Z" fill="url(#paint70_linear_2489_817)"/>
<path d="M67.9109 167.171C67.3972 166.798 66.977 166.312 66.6836 165.749C66.3901 165.187 66.2315 164.564 66.2201 163.93V32.9855L60.4339 29.6363C59.4877 29.1091 58.7275 29.6363 58.7275 30.9233V168.24C58.7358 168.877 58.8948 169.502 59.1914 170.066C59.4879 170.629 59.9137 171.114 60.4339 171.481L174.14 236.604C175.087 237.132 175.847 236.604 175.847 235.317V228.976L67.9109 167.171Z" fill="#251C72"/>
<path opacity="0.4" d="M175.847 235.348C175.847 236.589 175.087 237.163 174.14 236.635L60.4339 171.512C59.9137 171.145 59.4879 170.66 59.1914 170.097C58.8948 169.533 58.7358 168.908 58.7275 168.271V30.9698C58.7275 29.7293 59.4877 29.1556 60.4339 29.6828L174.14 94.8061C174.661 95.1733 175.086 95.6584 175.383 96.2216C175.68 96.7849 175.839 97.4104 175.847 98.0468V235.348Z" fill="url(#paint71_linear_2489_817)"/>
<g opacity="0.4">
<path d="M93.8152 90.9297L82.7393 84.5414V81.7659L93.8152 88.1387V90.9297Z" fill="url(#paint72_linear_2489_817)"/>
<path d="M103.247 96.3722L97.709 93.178V90.4025L103.247 93.5967V96.3722Z" fill="url(#paint73_linear_2489_817)"/>
<path d="M97.0722 99.3337L92.3564 96.6203V93.8293L97.0722 96.5583V99.3337Z" fill="url(#paint74_linear_2489_817)"/>
<path d="M104.968 103.892L99.4297 100.698V97.9227L104.968 101.117V103.892Z" fill="url(#paint75_linear_2489_817)"/>
<path d="M114.089 115.692L92.3564 103.148V100.357L114.089 112.901V115.692Z" fill="url(#paint76_linear_2489_817)"/>
<path d="M97.0722 112.389L92.3564 109.676V106.885L97.0722 109.614V112.389Z" fill="url(#paint77_linear_2489_817)"/>
<path d="M104.968 116.948L99.4297 113.754V110.978L104.968 114.173V116.948Z" fill="url(#paint78_linear_2489_817)"/>
<path d="M104.301 123.104L92.3564 116.204V113.413L104.301 120.313V123.104Z" fill="url(#paint79_linear_2489_817)"/>
<path d="M112.307 127.709L106.769 124.515V121.739L112.307 124.933V127.709Z" fill="url(#paint80_linear_2489_817)"/>
<path d="M120.342 132.361L114.819 129.166V126.375L120.342 129.57V132.361Z" fill="url(#paint81_linear_2489_817)"/>
<path d="M133.326 139.834L122.855 133.803V131.012L133.326 137.059V139.834Z" fill="url(#paint82_linear_2489_817)"/>
<path d="M127.042 149.277L121.52 146.083V143.292L127.042 146.486V149.277Z" fill="url(#paint83_linear_2489_817)"/>
<path d="M140.027 156.766L129.556 150.719V147.944L140.027 153.975V156.766Z" fill="url(#paint84_linear_2489_817)"/>
<path d="M97.8944 132.454L92.3564 129.259V126.468L97.8944 129.663V132.454Z" fill="url(#paint85_linear_2489_817)"/>
<path d="M105.931 137.09L100.393 133.896V131.105L105.931 134.299V137.09Z" fill="url(#paint86_linear_2489_817)"/>
<path d="M118.9 144.579L108.444 138.532V135.756L118.9 141.788V144.579Z" fill="url(#paint87_linear_2489_817)"/>
<path d="M134.907 147.277L129.369 144.083V141.307L134.907 144.501V147.277Z" fill="url(#paint88_linear_2489_817)"/>
<path d="M142.942 151.913L137.404 148.719V145.943L142.942 149.138V151.913Z" fill="url(#paint89_linear_2489_817)"/>
<path d="M155.911 159.402L145.44 153.371V150.58L155.911 156.627V159.402Z" fill="url(#paint90_linear_2489_817)"/>
<path d="M97.8944 145.509L92.3564 142.315V139.524L97.8944 142.718V145.509Z" fill="url(#paint91_linear_2489_817)"/>
<path d="M110.864 152.983L100.393 146.951V144.16L110.864 150.207V152.983Z" fill="url(#paint92_linear_2489_817)"/>
<path d="M130.626 125.228L125.104 122.034V119.258L130.626 122.453V125.228Z" fill="url(#paint93_linear_2489_817)"/>
<path d="M122.265 120.406L116.728 117.212V114.436L122.265 117.63V120.406Z" fill="url(#paint94_linear_2489_817)"/>
<path d="M143.595 132.717L133.14 126.686V123.895L143.595 129.942V132.717Z" fill="url(#paint95_linear_2489_817)"/>
<path d="M97.3515 125.616L92.3564 122.732V119.941L97.3515 122.825V125.616Z" fill="url(#paint96_linear_2489_817)"/>
<path d="M112.15 134.144L100.02 127.151V124.36L112.15 131.368V134.144Z" fill="url(#paint97_linear_2489_817)"/>
<path d="M126.95 142.687L114.819 135.694V132.903L126.95 139.896V142.687Z" fill="url(#paint98_linear_2489_817)"/>
<path d="M151.29 137.152L146.295 134.283V131.492L151.29 134.376V137.152Z" fill="url(#paint99_linear_2489_817)"/>
<path d="M104.597 142.842L92.4658 135.849V133.058L104.597 140.067V142.842Z" fill="url(#paint100_linear_2489_817)"/>
<path d="M110.987 146.533L107.264 144.377V141.602L110.987 143.757V146.533Z" fill="url(#paint101_linear_2489_817)"/>
<path d="M117.395 150.238L113.672 148.083V145.292L117.395 147.447V150.238Z" fill="url(#paint102_linear_2489_817)"/>
<path d="M129.245 157.076L120.077 151.789V148.998L129.245 154.285V157.076Z" fill="url(#paint103_linear_2489_817)"/>
<path d="M131.727 158.503L122.56 153.215V150.44L131.727 155.727V158.503Z" fill="url(#paint104_linear_2489_817)"/>
<path d="M139.499 143.416L135.776 141.261V138.47L139.499 140.625V143.416Z" fill="url(#paint105_linear_2489_817)"/>
<path d="M151.351 150.238L142.184 144.951V142.176L151.351 147.463V150.238Z" fill="url(#paint106_linear_2489_817)"/>
<path d="M86.5716 145.509L82.8486 143.354V140.563L86.5716 142.718V145.509Z" fill="url(#paint107_linear_2489_817)"/>
<path d="M98.4218 152.347L89.2539 147.044V144.269L98.4218 149.556V152.347Z" fill="url(#paint108_linear_2489_817)"/>
<path d="M110.522 159.325L101.37 154.037V151.246L110.522 156.534V159.325Z" fill="url(#paint109_linear_2489_817)"/>
</g>
</g>
</g>
<defs>
<linearGradient id="paint0_linear_2489_817" x1="164.353" y1="59.9341" x2="168.411" y2="59.9344" gradientUnits="userSpaceOnUse">
<stop stop-color="white"/>
<stop offset="1" stop-color="#47A3F7"/>
</linearGradient>
<linearGradient id="paint1_linear_2489_817" x1="170.201" y1="63.3066" x2="174.26" y2="63.3069" gradientUnits="userSpaceOnUse">
<stop stop-color="white"/>
<stop offset="1" stop-color="#47A3F7"/>
</linearGradient>
<linearGradient id="paint2_linear_2489_817" x1="153.757" y1="55.2049" x2="162.295" y2="55.2057" gradientUnits="userSpaceOnUse">
<stop stop-color="white"/>
<stop offset="1" stop-color="#47A3F7"/>
</linearGradient>
<linearGradient id="paint3_linear_2489_817" x1="213.923" y1="110.166" x2="219.895" y2="110.166" gradientUnits="userSpaceOnUse">
<stop stop-color="white"/>
<stop offset="1" stop-color="#47A3F7"/>
</linearGradient>
<linearGradient id="paint4_linear_2489_817" x1="239.749" y1="68.6348" x2="243.576" y2="68.6351" gradientUnits="userSpaceOnUse">
<stop stop-color="white"/>
<stop offset="1" stop-color="#47A3F7"/>
</linearGradient>
<linearGradient id="paint5_linear_2489_817" x1="236.718" y1="64.1517" x2="239.182" y2="64.1518" gradientUnits="userSpaceOnUse">
<stop stop-color="white"/>
<stop offset="1" stop-color="#47A3F7"/>
</linearGradient>
<linearGradient id="paint6_linear_2489_817" x1="228.516" y1="56.2875" x2="229.226" y2="56.2876" gradientUnits="userSpaceOnUse">
<stop stop-color="white"/>
<stop offset="1" stop-color="#47A3F7"/>
</linearGradient>
<linearGradient id="paint7_linear_2489_817" x1="230.909" y1="72.8028" x2="231.643" y2="72.8028" gradientUnits="userSpaceOnUse">
<stop stop-color="white"/>
<stop offset="1" stop-color="#47A3F7"/>
</linearGradient>
<linearGradient id="paint8_linear_2489_817" x1="236.039" y1="104.277" x2="236.75" y2="104.277" gradientUnits="userSpaceOnUse">
<stop stop-color="white"/>
<stop offset="1" stop-color="#47A3F7"/>
</linearGradient>
<linearGradient id="paint9_linear_2489_817" x1="232.388" y1="99.2542" x2="233.143" y2="99.2543" gradientUnits="userSpaceOnUse">
<stop stop-color="white"/>
<stop offset="1" stop-color="#47A3F7"/>
</linearGradient>
<linearGradient id="paint10_linear_2489_817" x1="211.284" y1="71.797" x2="220.358" y2="71.7976" gradientUnits="userSpaceOnUse">
<stop stop-color="white"/>
<stop offset="1" stop-color="#47A3F7"/>
</linearGradient>
<linearGradient id="paint11_linear_2489_817" x1="189.187" y1="83.0295" x2="193.709" y2="83.0298" gradientUnits="userSpaceOnUse">
<stop stop-color="white"/>
<stop offset="1" stop-color="#47A3F7"/>
</linearGradient>
<linearGradient id="paint12_linear_2489_817" x1="232.948" y1="82.9753" x2="237.471" y2="82.9756" gradientUnits="userSpaceOnUse">
<stop stop-color="white"/>
<stop offset="1" stop-color="#47A3F7"/>
</linearGradient>
<linearGradient id="paint13_linear_2489_817" x1="215.396" y1="43.1602" x2="219.918" y2="43.1606" gradientUnits="userSpaceOnUse">
<stop stop-color="white"/>
<stop offset="1" stop-color="#47A3F7"/>
</linearGradient>
<linearGradient id="paint14_linear_2489_817" x1="184.835" y1="60.4489" x2="189.357" y2="60.4492" gradientUnits="userSpaceOnUse">
<stop stop-color="white"/>
<stop offset="1" stop-color="#47A3F7"/>
</linearGradient>
<linearGradient id="paint15_linear_2489_817" x1="224.09" y1="103.317" x2="226.757" y2="103.317" gradientUnits="userSpaceOnUse">
<stop stop-color="white"/>
<stop offset="1" stop-color="#47A3F7"/>
</linearGradient>
<linearGradient id="paint16_linear_2489_817" x1="221.372" y1="63.198" x2="224.004" y2="63.1982" gradientUnits="userSpaceOnUse">
<stop stop-color="white"/>
<stop offset="1" stop-color="#47A3F7"/>
</linearGradient>
<linearGradient id="paint17_linear_2489_817" x1="204.04" y1="62.9704" x2="205.837" y2="62.9706" gradientUnits="userSpaceOnUse">
<stop stop-color="white"/>
<stop offset="1" stop-color="#47A3F7"/>
</linearGradient>
<linearGradient id="paint18_linear_2489_817" x1="200.508" y1="62.5546" x2="203.123" y2="62.5547" gradientUnits="userSpaceOnUse">
<stop stop-color="white"/>
<stop offset="1" stop-color="#47A3F7"/>
</linearGradient>
<linearGradient id="paint19_linear_2489_817" x1="201.012" y1="66.2978" x2="202.539" y2="66.2979" gradientUnits="userSpaceOnUse">
<stop stop-color="white"/>
<stop offset="1" stop-color="#47A3F7"/>
</linearGradient>
<linearGradient id="paint20_linear_2489_817" x1="214.082" y1="89.0165" x2="215.919" y2="89.0166" gradientUnits="userSpaceOnUse">
<stop stop-color="white"/>
<stop offset="1" stop-color="#47A3F7"/>
</linearGradient>
<linearGradient id="paint21_linear_2489_817" x1="217.815" y1="89.5057" x2="222.396" y2="89.506" gradientUnits="userSpaceOnUse">
<stop stop-color="white"/>
<stop offset="1" stop-color="#47A3F7"/>
</linearGradient>
<radialGradient id="paint22_radial_2489_817" cx="0" cy="0" r="1" gradientUnits="userSpaceOnUse" gradientTransform="translate(81.9529 184.566) rotate(16.7529) scale(40.1603 40.1454)">
<stop stop-color="#C0BFF6"/>
<stop offset="1" stop-color="#393091"/>
</radialGradient>
<linearGradient id="paint23_linear_2489_817" x1="72.7286" y1="177.524" x2="72.7286" y2="215.729" gradientUnits="userSpaceOnUse">
<stop stop-color="#49A8FF"/>
<stop offset="1" stop-color="white"/>
</linearGradient>
<radialGradient id="paint24_radial_2489_817" cx="0" cy="0" r="1" gradientUnits="userSpaceOnUse" gradientTransform="translate(96.3902 175.786) rotate(-95.1451) scale(26.1547 26.1662)">
<stop stop-color="#42E8E0"/>
<stop offset="0.11" stop-color="#37B6BF"/>
<stop offset="0.22" stop-color="#2C87A1"/>
<stop offset="0.34" stop-color="#235F87"/>
<stop offset="0.46" stop-color="#1C3F72"/>
<stop offset="0.58" stop-color="#162561"/>
<stop offset="0.71" stop-color="#121355"/>
<stop offset="0.85" stop-color="#10084E"/>
<stop offset="1" stop-color="#0F054C"/>
</radialGradient>
<linearGradient id="paint25_linear_2489_817" x1="68.1211" y1="183.549" x2="83.4627" y2="183.55" gradientUnits="userSpaceOnUse">
<stop stop-color="white"/>
<stop offset="1" stop-color="#47A3F7"/>
</linearGradient>
<linearGradient id="paint26_linear_2489_817" x1="84.2617" y1="175.543" x2="86.349" y2="175.543" gradientUnits="userSpaceOnUse">
<stop stop-color="white"/>
<stop offset="1" stop-color="#47A3F7"/>
</linearGradient>
<linearGradient id="paint27_linear_2489_817" x1="72.0225" y1="169.48" x2="77.2701" y2="169.481" gradientUnits="userSpaceOnUse">
<stop stop-color="white"/>
<stop offset="1" stop-color="#47A3F7"/>
</linearGradient>
<linearGradient id="paint28_linear_2489_817" x1="89.4424" y1="161.883" x2="92.3414" y2="161.883" gradientUnits="userSpaceOnUse">
<stop stop-color="white"/>
<stop offset="1" stop-color="#47A3F7"/>
</linearGradient>
<linearGradient id="paint29_linear_2489_817" x1="83.5615" y1="162.674" x2="85.5912" y2="162.674" gradientUnits="userSpaceOnUse">
<stop stop-color="white"/>
<stop offset="1" stop-color="#47A3F7"/>
</linearGradient>
<linearGradient id="paint30_linear_2489_817" x1="85.1436" y1="159.906" x2="86.6057" y2="159.906" gradientUnits="userSpaceOnUse">
<stop stop-color="white"/>
<stop offset="1" stop-color="#47A3F7"/>
</linearGradient>
<linearGradient id="paint31_linear_2489_817" x1="75.2236" y1="181.451" x2="78.1236" y2="181.451" gradientUnits="userSpaceOnUse">
<stop stop-color="white"/>
<stop offset="1" stop-color="#47A3F7"/>
</linearGradient>
<linearGradient id="paint32_linear_2489_817" x1="79.1719" y1="181.729" x2="83.5494" y2="181.73" gradientUnits="userSpaceOnUse">
<stop stop-color="white"/>
<stop offset="1" stop-color="#47A3F7"/>
</linearGradient>
<radialGradient id="paint33_radial_2489_817" cx="0" cy="0" r="1" gradientUnits="userSpaceOnUse" gradientTransform="translate(208.948 79.7464) rotate(11.2375) scale(123.072 123.022)">
<stop stop-color="#C0BFF6"/>
<stop offset="1" stop-color="#393091"/>
</radialGradient>
<linearGradient id="paint34_linear_2489_817" x1="100.66" y1="171.494" x2="123.487" y2="135.46" gradientUnits="userSpaceOnUse">
<stop stop-color="#706EC4"/>
<stop offset="0.02" stop-color="#6D6BC2"/>
<stop offset="0.25" stop-color="#5651AC"/>
<stop offset="0.49" stop-color="#463F9D"/>
<stop offset="0.73" stop-color="#3C3494"/>
<stop offset="1" stop-color="#393091"/>
</linearGradient>
<radialGradient id="paint35_radial_2489_817" cx="0" cy="0" r="1" gradientUnits="userSpaceOnUse" gradientTransform="translate(193.181 176.424) scale(94.7289 128.677)">
<stop stop-color="#C0BFF6"/>
<stop offset="1" stop-color="#393091"/>
</radialGradient>
<linearGradient id="paint36_linear_2489_817" x1="157.867" y1="133.694" x2="157.867" y2="262.204" gradientUnits="userSpaceOnUse">
<stop stop-color="#49A8FF"/>
<stop offset="1" stop-color="white"/>
</linearGradient>
<radialGradient id="paint37_radial_2489_817" cx="0" cy="0" r="1" gradientUnits="userSpaceOnUse" gradientTransform="translate(156.409 176.706) scale(73.1414 73.1087)">
<stop stop-color="#42E8E0"/>
<stop offset="0.11" stop-color="#37B6BF"/>
<stop offset="0.22" stop-color="#2C87A1"/>
<stop offset="0.34" stop-color="#235F87"/>
<stop offset="0.46" stop-color="#1C3F72"/>
<stop offset="0.58" stop-color="#162561"/>
<stop offset="0.71" stop-color="#121355"/>
<stop offset="0.85" stop-color="#10084E"/>
<stop offset="1" stop-color="#0F054C"/>
</radialGradient>
<linearGradient id="paint38_linear_2489_817" x1="120.348" y1="146.498" x2="190.48" y2="146.513" gradientUnits="userSpaceOnUse">
<stop stop-color="white"/>
<stop offset="1" stop-color="#47A3F7"/>
</linearGradient>
<linearGradient id="paint39_linear_2489_817" x1="103.978" y1="104.218" x2="216.133" y2="104.218" gradientUnits="userSpaceOnUse">
<stop stop-color="white"/>
<stop offset="1" stop-color="#3CADFF"/>
</linearGradient>
<radialGradient id="paint40_radial_2489_817" cx="0" cy="0" r="1" gradientUnits="userSpaceOnUse" gradientTransform="translate(142.586 109.381) scale(46.553 46.5322)">
<stop stop-color="#42E8E0"/>
<stop offset="0.06" stop-color="#3CCBCD"/>
<stop offset="0.18" stop-color="#3098AC"/>
<stop offset="0.3" stop-color="#266B8F"/>
<stop offset="0.42" stop-color="#1E4777"/>
<stop offset="0.54" stop-color="#172A65"/>
<stop offset="0.66" stop-color="#131657"/>
<stop offset="0.78" stop-color="#100A50"/>
<stop offset="0.9" stop-color="#0F064D"/>
<stop offset="1" stop-color="#0F054C"/>
</radialGradient>
<linearGradient id="paint41_linear_2489_817" x1="123.59" y1="116.777" x2="134.524" y2="116.778" gradientUnits="userSpaceOnUse">
<stop stop-color="white"/>
<stop offset="1" stop-color="#47A3F7"/>
</linearGradient>
<linearGradient id="paint42_linear_2489_817" x1="110.344" y1="118.562" x2="135.994" y2="118.563" gradientUnits="userSpaceOnUse">
<stop stop-color="white"/>
<stop offset="1" stop-color="#47A3F7"/>
</linearGradient>
<linearGradient id="paint43_linear_2489_817" x1="110.344" y1="118.855" x2="135.022" y2="118.856" gradientUnits="userSpaceOnUse">
<stop stop-color="white"/>
<stop offset="1" stop-color="#47A3F7"/>
</linearGradient>
<radialGradient id="paint44_radial_2489_817" cx="0" cy="0" r="1" gradientUnits="userSpaceOnUse" gradientTransform="translate(230.917 187.755) rotate(11.1951) scale(44.427 44.4086)">
<stop stop-color="#C0BFF6"/>
<stop offset="1" stop-color="#393091"/>
</radialGradient>
<radialGradient id="paint45_radial_2489_817" cx="0" cy="0" r="1" gradientUnits="userSpaceOnUse" gradientTransform="translate(225.378 204.105) scale(39.6809 39.6632)">
<stop stop-color="#42E8E0"/>
<stop offset="0.11" stop-color="#37B6BF"/>
<stop offset="0.22" stop-color="#2C87A1"/>
<stop offset="0.34" stop-color="#235F87"/>
<stop offset="0.46" stop-color="#1C3F72"/>
<stop offset="0.58" stop-color="#162561"/>
<stop offset="0.71" stop-color="#121355"/>
<stop offset="0.85" stop-color="#10084E"/>
<stop offset="1" stop-color="#0F054C"/>
</radialGradient>
<linearGradient id="paint46_linear_2489_817" x1="221.189" y1="207.458" x2="237.613" y2="207.459" gradientUnits="userSpaceOnUse">
<stop stop-color="white"/>
<stop offset="1" stop-color="#47A3F7"/>
</linearGradient>
<radialGradient id="paint47_radial_2489_817" cx="0" cy="0" r="1" gradientUnits="userSpaceOnUse" gradientTransform="translate(193.438 92.3469) scale(37.4006 47.8514)">
<stop stop-color="#2B237C"/>
<stop offset="0.31" stop-color="#251C72"/>
<stop offset="1" stop-color="#0F054C"/>
</radialGradient>
<linearGradient id="paint48_linear_2489_817" x1="189.124" y1="118.878" x2="190.819" y2="118.878" gradientUnits="userSpaceOnUse">
<stop stop-color="white"/>
<stop offset="1" stop-color="#47A3F7"/>
</linearGradient>
<linearGradient id="paint49_linear_2489_817" x1="192.987" y1="113.955" x2="194.682" y2="113.955" gradientUnits="userSpaceOnUse">
<stop stop-color="white"/>
<stop offset="1" stop-color="#47A3F7"/>
</linearGradient>
<linearGradient id="paint50_linear_2489_817" x1="196.85" y1="114.412" x2="198.544" y2="114.412" gradientUnits="userSpaceOnUse">
<stop stop-color="white"/>
<stop offset="1" stop-color="#47A3F7"/>
</linearGradient>
<linearGradient id="paint51_linear_2489_817" x1="196.85" y1="119.932" x2="198.544" y2="119.932" gradientUnits="userSpaceOnUse">
<stop stop-color="white"/>
<stop offset="1" stop-color="#47A3F7"/>
</linearGradient>
<linearGradient id="paint52_linear_2489_817" x1="194.523" y1="124.165" x2="196.218" y2="124.165" gradientUnits="userSpaceOnUse">
<stop stop-color="white"/>
<stop offset="1" stop-color="#47A3F7"/>
</linearGradient>
<linearGradient id="paint53_linear_2489_817" x1="200.837" y1="117.63" x2="202.531" y2="117.63" gradientUnits="userSpaceOnUse">
<stop stop-color="white"/>
<stop offset="1" stop-color="#47A3F7"/>
</linearGradient>
<linearGradient id="paint54_linear_2489_817" x1="214.714" y1="113.413" x2="214.714" y2="149.851" gradientUnits="userSpaceOnUse">
<stop stop-color="#49A8FF"/>
<stop offset="1" stop-color="white"/>
</linearGradient>
<linearGradient id="paint55_linear_2489_817" x1="205.661" y1="132.267" x2="225.982" y2="132.267" gradientUnits="userSpaceOnUse">
<stop stop-color="white"/>
<stop offset="1" stop-color="#3CADFF"/>
</linearGradient>
<linearGradient id="paint56_linear_2489_817" x1="222.976" y1="50.0339" x2="226.396" y2="50.0341" gradientUnits="userSpaceOnUse">
<stop stop-color="white"/>
<stop offset="1" stop-color="#47A3F7"/>
</linearGradient>
<linearGradient id="paint57_linear_2489_817" x1="215.355" y1="62.0119" x2="224.589" y2="62.0122" gradientUnits="userSpaceOnUse">
<stop stop-color="white"/>
<stop offset="1" stop-color="#47A3F7"/>
</linearGradient>
<radialGradient id="paint58_radial_2489_817" cx="0" cy="0" r="1" gradientUnits="userSpaceOnUse" gradientTransform="translate(228.254 250.191) rotate(16.7529) scale(40.1603 40.1454)">
<stop stop-color="#C0BFF6"/>
<stop offset="1" stop-color="#393091"/>
</radialGradient>
<linearGradient id="paint59_linear_2489_817" x1="218.994" y1="243.477" x2="218.994" y2="281.37" gradientUnits="userSpaceOnUse">
<stop stop-color="#49A8FF"/>
<stop offset="1" stop-color="white"/>
</linearGradient>
<radialGradient id="paint60_radial_2489_817" cx="0" cy="0" r="1" gradientUnits="userSpaceOnUse" gradientTransform="translate(243.323 241.568) rotate(-95.1451) scale(26.1547 26.1662)">
<stop stop-color="#42E8E0"/>
<stop offset="0.11" stop-color="#37B6BF"/>
<stop offset="0.22" stop-color="#2C87A1"/>
<stop offset="0.34" stop-color="#235F87"/>
<stop offset="0.46" stop-color="#1C3F72"/>
<stop offset="0.58" stop-color="#162561"/>
<stop offset="0.71" stop-color="#121355"/>
<stop offset="0.85" stop-color="#10084E"/>
<stop offset="1" stop-color="#0F054C"/>
</radialGradient>
<linearGradient id="paint61_linear_2489_817" x1="214.422" y1="249.144" x2="229.777" y2="249.145" gradientUnits="userSpaceOnUse">
<stop stop-color="white"/>
<stop offset="1" stop-color="#47A3F7"/>
</linearGradient>
<linearGradient id="paint62_linear_2489_817" x1="227.763" y1="234.108" x2="229.809" y2="234.108" gradientUnits="userSpaceOnUse">
<stop stop-color="white"/>
<stop offset="1" stop-color="#47A3F7"/>
</linearGradient>
<linearGradient id="paint63_linear_2489_817" x1="237.835" y1="231.009" x2="243.082" y2="231.01" gradientUnits="userSpaceOnUse">
<stop stop-color="white"/>
<stop offset="1" stop-color="#47A3F7"/>
</linearGradient>
<linearGradient id="paint64_linear_2489_817" x1="232.87" y1="247.706" x2="235.813" y2="247.707" gradientUnits="userSpaceOnUse">
<stop stop-color="white"/>
<stop offset="1" stop-color="#47A3F7"/>
</linearGradient>
<linearGradient id="paint65_linear_2489_817" x1="237.147" y1="242.682" x2="239.318" y2="242.682" gradientUnits="userSpaceOnUse">
<stop stop-color="white"/>
<stop offset="1" stop-color="#47A3F7"/>
</linearGradient>
<linearGradient id="paint66_linear_2489_817" x1="238.742" y1="245.598" x2="240.104" y2="245.598" gradientUnits="userSpaceOnUse">
<stop stop-color="white"/>
<stop offset="1" stop-color="#47A3F7"/>
</linearGradient>
<linearGradient id="paint67_linear_2489_817" x1="229.263" y1="223.876" x2="232.162" y2="223.876" gradientUnits="userSpaceOnUse">
<stop stop-color="white"/>
<stop offset="1" stop-color="#47A3F7"/>
</linearGradient>
<linearGradient id="paint68_linear_2489_817" x1="225.028" y1="226.953" x2="229.371" y2="226.953" gradientUnits="userSpaceOnUse">
<stop stop-color="white"/>
<stop offset="1" stop-color="#47A3F7"/>
</linearGradient>
<linearGradient id="paint69_linear_2489_817" x1="51.9492" y1="133.136" x2="182.626" y2="133.136" gradientUnits="userSpaceOnUse">
<stop stop-color="#BCBEFF"/>
<stop offset="0.17" stop-color="#B6B8FC"/>
<stop offset="0.4" stop-color="#A4A8F5"/>
<stop offset="0.66" stop-color="#868DEA"/>
<stop offset="0.96" stop-color="#5E67DA"/>
<stop offset="1" stop-color="#5761D7"/>
</linearGradient>
<linearGradient id="paint70_linear_2489_817" x1="51.9492" y1="133.136" x2="174.057" y2="133.141" gradientUnits="userSpaceOnUse">
<stop stop-color="white"/>
<stop offset="1" stop-color="#47A3F7"/>
</linearGradient>
<linearGradient id="paint71_linear_2489_817" x1="58.7275" y1="133.159" x2="168.167" y2="133.163" gradientUnits="userSpaceOnUse">
<stop stop-color="white"/>
<stop offset="1" stop-color="#47A3F7"/>
</linearGradient>
<linearGradient id="paint72_linear_2489_817" x1="82.7393" y1="86.3478" x2="93.0889" y2="86.3487" gradientUnits="userSpaceOnUse">
<stop stop-color="white"/>
<stop offset="1" stop-color="#47A3F7"/>
</linearGradient>
<linearGradient id="paint73_linear_2489_817" x1="97.709" y1="93.3873" x2="102.884" y2="93.3877" gradientUnits="userSpaceOnUse">
<stop stop-color="white"/>
<stop offset="1" stop-color="#47A3F7"/>
</linearGradient>
<linearGradient id="paint74_linear_2489_817" x1="92.3564" y1="96.5815" x2="96.763" y2="96.5818" gradientUnits="userSpaceOnUse">
<stop stop-color="white"/>
<stop offset="1" stop-color="#47A3F7"/>
</linearGradient>
<linearGradient id="paint75_linear_2489_817" x1="99.4297" y1="100.907" x2="104.604" y2="100.908" gradientUnits="userSpaceOnUse">
<stop stop-color="white"/>
<stop offset="1" stop-color="#47A3F7"/>
</linearGradient>
<linearGradient id="paint76_linear_2489_817" x1="92.3564" y1="108.025" x2="112.664" y2="108.027" gradientUnits="userSpaceOnUse">
<stop stop-color="white"/>
<stop offset="1" stop-color="#47A3F7"/>
</linearGradient>
<linearGradient id="paint77_linear_2489_817" x1="92.3564" y1="109.637" x2="96.763" y2="109.637" gradientUnits="userSpaceOnUse">
<stop stop-color="white"/>
<stop offset="1" stop-color="#47A3F7"/>
</linearGradient>
<linearGradient id="paint78_linear_2489_817" x1="99.4297" y1="113.963" x2="104.604" y2="113.964" gradientUnits="userSpaceOnUse">
<stop stop-color="white"/>
<stop offset="1" stop-color="#47A3F7"/>
</linearGradient>
<linearGradient id="paint79_linear_2489_817" x1="92.3564" y1="118.258" x2="103.518" y2="118.259" gradientUnits="userSpaceOnUse">
<stop stop-color="white"/>
<stop offset="1" stop-color="#47A3F7"/>
</linearGradient>
<linearGradient id="paint80_linear_2489_817" x1="106.769" y1="124.724" x2="111.943" y2="124.724" gradientUnits="userSpaceOnUse">
<stop stop-color="white"/>
<stop offset="1" stop-color="#47A3F7"/>
</linearGradient>
<linearGradient id="paint81_linear_2489_817" x1="114.819" y1="129.368" x2="119.98" y2="129.368" gradientUnits="userSpaceOnUse">
<stop stop-color="white"/>
<stop offset="1" stop-color="#47A3F7"/>
</linearGradient>
<linearGradient id="paint82_linear_2489_817" x1="122.855" y1="135.423" x2="132.64" y2="135.424" gradientUnits="userSpaceOnUse">
<stop stop-color="white"/>
<stop offset="1" stop-color="#47A3F7"/>
</linearGradient>
<linearGradient id="paint83_linear_2489_817" x1="121.52" y1="146.285" x2="126.68" y2="146.285" gradientUnits="userSpaceOnUse">
<stop stop-color="white"/>
<stop offset="1" stop-color="#47A3F7"/>
</linearGradient>
<linearGradient id="paint84_linear_2489_817" x1="129.556" y1="152.355" x2="139.34" y2="152.356" gradientUnits="userSpaceOnUse">
<stop stop-color="white"/>
<stop offset="1" stop-color="#47A3F7"/>
</linearGradient>
<linearGradient id="paint85_linear_2489_817" x1="92.3564" y1="129.461" x2="97.5313" y2="129.461" gradientUnits="userSpaceOnUse">
<stop stop-color="white"/>
<stop offset="1" stop-color="#47A3F7"/>
</linearGradient>
<linearGradient id="paint86_linear_2489_817" x1="100.393" y1="134.097" x2="105.567" y2="134.098" gradientUnits="userSpaceOnUse">
<stop stop-color="white"/>
<stop offset="1" stop-color="#47A3F7"/>
</linearGradient>
<linearGradient id="paint87_linear_2489_817" x1="108.444" y1="140.168" x2="118.214" y2="140.168" gradientUnits="userSpaceOnUse">
<stop stop-color="white"/>
<stop offset="1" stop-color="#47A3F7"/>
</linearGradient>
<linearGradient id="paint88_linear_2489_817" x1="129.369" y1="144.292" x2="134.544" y2="144.292" gradientUnits="userSpaceOnUse">
<stop stop-color="white"/>
<stop offset="1" stop-color="#47A3F7"/>
</linearGradient>
<linearGradient id="paint89_linear_2489_817" x1="137.404" y1="148.928" x2="142.579" y2="148.929" gradientUnits="userSpaceOnUse">
<stop stop-color="white"/>
<stop offset="1" stop-color="#47A3F7"/>
</linearGradient>
<linearGradient id="paint90_linear_2489_817" x1="145.44" y1="154.991" x2="155.225" y2="154.992" gradientUnits="userSpaceOnUse">
<stop stop-color="white"/>
<stop offset="1" stop-color="#47A3F7"/>
</linearGradient>
<linearGradient id="paint91_linear_2489_817" x1="92.3564" y1="142.517" x2="97.5313" y2="142.517" gradientUnits="userSpaceOnUse">
<stop stop-color="white"/>
<stop offset="1" stop-color="#47A3F7"/>
</linearGradient>
<linearGradient id="paint92_linear_2489_817" x1="100.393" y1="148.572" x2="110.177" y2="148.572" gradientUnits="userSpaceOnUse">
<stop stop-color="white"/>
<stop offset="1" stop-color="#47A3F7"/>
</linearGradient>
<linearGradient id="paint93_linear_2489_817" x1="125.104" y1="122.243" x2="130.264" y2="122.244" gradientUnits="userSpaceOnUse">
<stop stop-color="white"/>
<stop offset="1" stop-color="#47A3F7"/>
</linearGradient>
<linearGradient id="paint94_linear_2489_817" x1="116.728" y1="117.421" x2="121.902" y2="117.421" gradientUnits="userSpaceOnUse">
<stop stop-color="white"/>
<stop offset="1" stop-color="#47A3F7"/>
</linearGradient>
<linearGradient id="paint95_linear_2489_817" x1="133.14" y1="128.306" x2="142.909" y2="128.307" gradientUnits="userSpaceOnUse">
<stop stop-color="white"/>
<stop offset="1" stop-color="#47A3F7"/>
</linearGradient>
<linearGradient id="paint96_linear_2489_817" x1="92.3564" y1="122.778" x2="97.0239" y2="122.778" gradientUnits="userSpaceOnUse">
<stop stop-color="white"/>
<stop offset="1" stop-color="#47A3F7"/>
</linearGradient>
<linearGradient id="paint97_linear_2489_817" x1="100.02" y1="129.252" x2="111.355" y2="129.253" gradientUnits="userSpaceOnUse">
<stop stop-color="white"/>
<stop offset="1" stop-color="#47A3F7"/>
</linearGradient>
<linearGradient id="paint98_linear_2489_817" x1="114.819" y1="137.795" x2="126.155" y2="137.796" gradientUnits="userSpaceOnUse">
<stop stop-color="white"/>
<stop offset="1" stop-color="#47A3F7"/>
</linearGradient>
<linearGradient id="paint99_linear_2489_817" x1="146.295" y1="134.322" x2="150.962" y2="134.322" gradientUnits="userSpaceOnUse">
<stop stop-color="white"/>
<stop offset="1" stop-color="#47A3F7"/>
</linearGradient>
<linearGradient id="paint100_linear_2489_817" x1="92.4658" y1="137.95" x2="103.801" y2="137.951" gradientUnits="userSpaceOnUse">
<stop stop-color="white"/>
<stop offset="1" stop-color="#47A3F7"/>
</linearGradient>
<linearGradient id="paint101_linear_2489_817" x1="107.264" y1="144.067" x2="110.743" y2="144.067" gradientUnits="userSpaceOnUse">
<stop stop-color="white"/>
<stop offset="1" stop-color="#47A3F7"/>
</linearGradient>
<linearGradient id="paint102_linear_2489_817" x1="113.672" y1="147.765" x2="117.151" y2="147.765" gradientUnits="userSpaceOnUse">
<stop stop-color="white"/>
<stop offset="1" stop-color="#47A3F7"/>
</linearGradient>
<linearGradient id="paint103_linear_2489_817" x1="120.077" y1="153.037" x2="128.644" y2="153.038" gradientUnits="userSpaceOnUse">
<stop stop-color="white"/>
<stop offset="1" stop-color="#47A3F7"/>
</linearGradient>
<linearGradient id="paint104_linear_2489_817" x1="122.56" y1="154.471" x2="131.126" y2="154.472" gradientUnits="userSpaceOnUse">
<stop stop-color="white"/>
<stop offset="1" stop-color="#47A3F7"/>
</linearGradient>
<linearGradient id="paint105_linear_2489_817" x1="135.776" y1="140.943" x2="139.255" y2="140.943" gradientUnits="userSpaceOnUse">
<stop stop-color="white"/>
<stop offset="1" stop-color="#47A3F7"/>
</linearGradient>
<linearGradient id="paint106_linear_2489_817" x1="142.184" y1="146.207" x2="150.75" y2="146.208" gradientUnits="userSpaceOnUse">
<stop stop-color="white"/>
<stop offset="1" stop-color="#47A3F7"/>
</linearGradient>
<linearGradient id="paint107_linear_2489_817" x1="82.8486" y1="143.036" x2="86.3275" y2="143.036" gradientUnits="userSpaceOnUse">
<stop stop-color="white"/>
<stop offset="1" stop-color="#47A3F7"/>
</linearGradient>
<linearGradient id="paint108_linear_2489_817" x1="89.2539" y1="148.308" x2="97.8206" y2="148.309" gradientUnits="userSpaceOnUse">
<stop stop-color="white"/>
<stop offset="1" stop-color="#47A3F7"/>
</linearGradient>
<linearGradient id="paint109_linear_2489_817" x1="101.37" y1="155.285" x2="109.922" y2="155.286" gradientUnits="userSpaceOnUse">
<stop stop-color="white"/>
<stop offset="1" stop-color="#47A3F7"/>
</linearGradient>
<clipPath id="clip0_2489_817">
<rect width="300" height="300" fill="white"/>
</clipPath>
<clipPath id="clip1_2489_817">
<rect width="263" height="299" fill="white" transform="translate(18 -21)"/>
</clipPath>
</defs>
</svg>
