<svg width="307" height="323" viewBox="0 0 307 323" fill="none" xmlns="http://www.w3.org/2000/svg">
<path d="M171.37 46.0274L167.353 43.7015L167.663 41.8409L171.696 44.1667L171.37 46.0274Z" fill="url(#paint0_linear_2312_721)"/>
<path d="M177.219 49.3921L173.201 47.0817L173.511 45.2211L177.545 47.5469L177.219 49.3921Z" fill="url(#paint1_linear_2312_721)"/>
<path d="M165.583 42.6782L156.757 37.5924L157.067 35.7317L165.894 40.8175L165.583 42.6782Z" fill="url(#paint2_linear_2312_721)"/>
<path opacity="0.4" d="M222.297 96.4824C222.76 96.0509 223.085 95.4916 223.23 94.8755C223.374 94.2593 223.332 93.6142 223.11 93.0218C222.887 92.4294 222.493 91.9166 221.978 91.5483C221.463 91.18 220.85 90.973 220.218 90.9533C219.585 90.9337 218.96 91.1024 218.424 91.438C217.887 91.7737 217.462 92.2612 217.203 92.8386C216.944 93.416 216.862 94.0573 216.968 94.6812C217.074 95.3051 217.363 95.8835 217.799 96.3428C218.079 96.657 218.42 96.9108 218.802 97.0888C219.183 97.2669 219.597 97.3655 220.018 97.3785C220.439 97.3916 220.858 97.3189 221.25 97.1648C221.642 97.0107 221.998 96.7785 222.297 96.4824Z" fill="url(#paint3_linear_2312_721)"/>
<path opacity="0.4" d="M246.201 54.1213C246.495 53.844 246.701 53.4857 246.792 53.0917C246.883 52.6976 246.855 52.2854 246.712 51.9072C246.569 51.529 246.317 51.2016 245.987 50.9664C245.658 50.7313 245.267 50.5989 244.862 50.5859C244.458 50.5729 244.059 50.68 243.715 50.8936C243.372 51.1072 243.099 51.4177 242.932 51.786C242.765 52.1543 242.711 52.5638 242.776 52.9629C242.842 53.362 243.024 53.7327 243.3 54.0283C243.483 54.2272 243.704 54.3876 243.949 54.5002C244.195 54.6127 244.461 54.6751 244.731 54.6838C245.001 54.6925 245.27 54.6472 245.522 54.5506C245.775 54.454 246.005 54.3081 246.201 54.1213Z" fill="url(#paint4_linear_2312_721)"/>
<path opacity="0.8" d="M241.967 49.082C242.152 48.8978 242.278 48.663 242.329 48.4072C242.38 48.1514 242.355 47.8862 242.255 47.6451C242.155 47.404 241.986 47.1979 241.769 47.0529C241.552 46.9079 241.297 46.8304 241.036 46.8304C240.775 46.8304 240.52 46.9079 240.303 47.0529C240.086 47.1979 239.917 47.404 239.818 47.6451C239.718 47.8862 239.692 48.1514 239.743 48.4072C239.795 48.663 239.921 48.8978 240.106 49.082C240.227 49.2057 240.372 49.3041 240.532 49.3712C240.691 49.4383 240.863 49.4729 241.036 49.4729C241.21 49.4729 241.381 49.4383 241.541 49.3712C241.701 49.3041 241.846 49.2057 241.967 49.082Z" fill="url(#paint5_linear_2312_721)"/>
<path opacity="0.4" d="M232.178 40.5691C232.243 40.4942 232.277 40.3982 232.276 40.2993C232.274 40.2003 232.236 40.1055 232.169 40.0327C232.102 39.9599 232.011 39.9143 231.912 39.9046C231.814 39.895 231.715 39.9218 231.635 39.9801C231.598 40.0176 231.567 40.0623 231.547 40.1115C231.526 40.1607 231.516 40.2135 231.516 40.2669C231.516 40.3202 231.526 40.373 231.547 40.4223C231.567 40.4715 231.598 40.5161 231.635 40.5536C231.706 40.6267 231.802 40.6693 231.904 40.6722C232.005 40.6751 232.103 40.6381 232.178 40.5691Z" fill="url(#paint6_linear_2312_721)"/>
<path opacity="0.8" d="M234.581 57.098C234.654 57.0204 234.695 56.9178 234.695 56.8113C234.695 56.7047 234.654 56.6021 234.581 56.5245C234.545 56.487 234.501 56.4572 234.453 56.4368C234.405 56.4164 234.354 56.4059 234.302 56.4059C234.25 56.4059 234.198 56.4164 234.15 56.4368C234.102 56.4572 234.059 56.487 234.023 56.5245C233.95 56.6021 233.909 56.7047 233.909 56.8113C233.909 56.9178 233.95 57.0204 234.023 57.098C234.101 57.1636 234.2 57.1996 234.302 57.1996C234.404 57.1996 234.503 57.1636 234.581 57.098Z" fill="url(#paint7_linear_2312_721)"/>
<path opacity="0.8" d="M239.701 88.5589C239.766 88.484 239.801 88.3879 239.799 88.289C239.798 88.1901 239.76 88.0952 239.693 88.0224C239.626 87.9497 239.534 87.9041 239.436 87.8944C239.337 87.8847 239.239 87.9116 239.159 87.9699C239.121 88.0074 239.091 88.052 239.07 88.1013C239.05 88.1505 239.039 88.2033 239.039 88.2566C239.039 88.31 239.05 88.3628 239.07 88.412C239.091 88.4612 239.121 88.5059 239.159 88.5434C239.229 88.6165 239.326 88.6591 239.427 88.662C239.528 88.6649 239.627 88.6278 239.701 88.5589Z" fill="url(#paint8_linear_2312_721)"/>
<path opacity="0.8" d="M236.088 83.5505C236.158 83.4713 236.196 83.3693 236.196 83.2637C236.196 83.1582 236.158 83.0562 236.088 82.977C236.051 82.9383 236.007 82.9073 235.959 82.8856C235.91 82.8638 235.858 82.8519 235.804 82.8505C235.751 82.8491 235.698 82.8581 235.648 82.8772C235.599 82.8962 235.553 82.9249 235.514 82.9615C235.476 82.9981 235.445 83.042 235.423 83.0907C235.401 83.1393 235.389 83.1918 235.388 83.245C235.386 83.2983 235.395 83.3513 235.415 83.4011C235.434 83.4508 235.462 83.4963 235.499 83.535C235.577 83.6112 235.681 83.6551 235.79 83.658C235.899 83.6609 236.006 83.6225 236.088 83.5505Z" fill="url(#paint9_linear_2312_721)"/>
<path opacity="0.4" d="M222.467 59.3312C223.166 58.6737 223.654 57.8239 223.87 56.8891C224.086 55.9544 224.02 54.9766 223.681 54.0794C223.341 53.1821 222.743 52.4056 221.962 51.848C221.181 51.2903 220.252 50.9765 219.293 50.9462C218.334 50.9159 217.387 51.1705 216.572 51.6777C215.758 52.185 215.112 52.9222 214.716 53.7962C214.32 54.6702 214.193 55.6419 214.349 56.5884C214.506 57.5349 214.939 58.4138 215.595 59.1141C216.032 59.5801 216.556 59.9555 217.138 60.2186C217.72 60.4818 218.348 60.6277 218.986 60.6478C219.625 60.668 220.261 60.5621 220.858 60.3361C221.455 60.1102 222.002 59.7687 222.467 59.3312Z" fill="url(#paint10_linear_2312_721)"/>
<path d="M196.267 68.7895C196.614 68.4616 196.857 68.0381 196.965 67.5723C197.072 67.1066 197.039 66.6195 196.869 66.1726C196.7 65.7256 196.402 65.3388 196.013 65.0611C195.624 64.7833 195.161 64.627 194.683 64.6119C194.205 64.5967 193.733 64.7235 193.328 64.9761C192.922 65.2287 192.6 65.5958 192.402 66.0311C192.205 66.4664 192.141 66.9505 192.219 67.4221C192.296 67.8937 192.512 68.3317 192.838 68.681C193.056 68.9137 193.317 69.1012 193.608 69.2327C193.898 69.3642 194.211 69.4371 194.53 69.4472C194.848 69.4573 195.166 69.4044 195.464 69.2915C195.762 69.1786 196.035 69.008 196.267 68.7895Z" fill="url(#paint11_linear_2312_721)"/>
<path opacity="0.4" d="M238.368 69.3942C239.705 69.3942 240.788 68.3112 240.788 66.9753C240.788 65.6394 239.705 64.5565 238.368 64.5565C237.032 64.5565 235.948 65.6394 235.948 66.9753C235.948 68.3112 237.032 69.3942 238.368 69.3942Z" fill="url(#paint12_linear_2312_721)"/>
<path opacity="0.4" d="M222.467 28.9247C222.817 28.5979 223.063 28.1745 223.172 27.7082C223.281 27.2419 223.249 26.7537 223.08 26.3055C222.912 25.8573 222.614 25.4692 222.224 25.1904C221.835 24.9116 221.371 24.7546 220.892 24.7394C220.414 24.7242 219.941 24.8513 219.535 25.1048C219.128 25.3583 218.806 25.7267 218.609 26.1633C218.412 26.5999 218.35 27.0851 218.429 27.5573C218.508 28.0296 218.726 28.4677 219.055 28.8162C219.271 29.0485 219.531 29.2357 219.82 29.3669C220.109 29.4982 220.421 29.571 220.738 29.5811C221.056 29.5912 221.372 29.5384 221.668 29.4257C221.965 29.3131 222.237 29.1428 222.467 28.9247Z" fill="url(#paint13_linear_2312_721)"/>
<path opacity="0.4" d="M191.907 46.2134C192.257 45.8866 192.502 45.4632 192.611 44.9969C192.72 44.5306 192.689 44.0424 192.52 43.5942C192.351 43.146 192.053 42.7579 191.664 42.4791C191.274 42.2003 190.811 42.0433 190.332 42.0281C189.853 42.0129 189.38 42.14 188.974 42.3935C188.567 42.647 188.245 43.0154 188.049 43.452C187.852 43.8886 187.789 44.3738 187.868 44.846C187.948 45.3183 188.165 45.7564 188.494 46.1049C188.71 46.3372 188.97 46.5244 189.259 46.6556C189.548 46.7869 189.86 46.8597 190.178 46.8698C190.495 46.8799 190.811 46.8271 191.108 46.7144C191.405 46.6018 191.676 46.4315 191.907 46.2134Z" fill="url(#paint14_linear_2312_721)"/>
<path opacity="0.4" d="M229.525 88.3265C229.725 88.1271 229.861 87.8729 229.917 87.5961C229.972 87.3193 229.944 87.0324 229.836 86.7716C229.728 86.5108 229.545 86.2879 229.31 86.131C229.075 85.9742 228.799 85.8904 228.517 85.8904C228.235 85.8904 227.959 85.9742 227.724 86.131C227.489 86.2879 227.306 86.5108 227.198 86.7716C227.09 87.0324 227.062 87.3193 227.117 87.5961C227.173 87.8729 227.309 88.1271 227.509 88.3265C227.776 88.5935 228.139 88.7435 228.517 88.7435C228.895 88.7435 229.258 88.5935 229.525 88.3265Z" fill="url(#paint15_linear_2312_721)"/>
<path d="M226.779 48.1981C227.042 47.9313 227.189 47.5721 227.189 47.198C227.189 46.8238 227.042 46.4647 226.779 46.1979C226.582 46.0012 226.33 45.8675 226.057 45.8136C225.783 45.7597 225.499 45.788 225.242 45.895C224.984 46.002 224.764 46.1829 224.61 46.4148C224.455 46.6467 224.372 46.9192 224.372 47.198C224.372 47.4768 224.455 47.7493 224.61 47.9812C224.764 48.2131 224.984 48.3939 225.242 48.5009C225.499 48.6079 225.783 48.6363 226.057 48.5824C226.33 48.5285 226.582 48.3948 226.779 48.1981Z" fill="url(#paint16_linear_2312_721)"/>
<path d="M208.677 47.6555C208.813 47.5216 208.906 47.3503 208.944 47.1635C208.982 46.9766 208.964 46.7825 208.892 46.606C208.819 46.4295 208.696 46.2784 208.538 46.1721C208.379 46.0659 208.193 46.0091 208.002 46.0091C207.811 46.0091 207.624 46.0659 207.466 46.1721C207.307 46.2784 207.184 46.4295 207.112 46.606C207.039 46.7825 207.021 46.9766 207.06 47.1635C207.098 47.3503 207.191 47.5216 207.327 47.6555C207.507 47.8325 207.749 47.9318 208.002 47.9318C208.254 47.9318 208.497 47.8325 208.677 47.6555Z" fill="url(#paint17_linear_2312_721)"/>
<path d="M205.901 47.5314C206.03 47.4032 206.131 47.251 206.201 47.0833C206.271 46.9157 206.306 46.736 206.306 46.5546C206.306 46.3731 206.271 46.1934 206.201 46.0258C206.131 45.8581 206.03 45.7059 205.901 45.5777C205.707 45.3798 205.458 45.2441 205.187 45.188C204.915 45.1318 204.633 45.1578 204.376 45.2626C204.119 45.3674 203.9 45.5463 203.745 45.7764C203.59 46.0065 203.508 46.2774 203.508 46.5546C203.508 46.8317 203.59 47.1027 203.745 47.3328C203.9 47.5628 204.119 47.7417 204.376 47.8465C204.633 47.9513 204.915 47.9773 205.187 47.9212C205.458 47.865 205.707 47.7294 205.901 47.5314Z" fill="url(#paint18_linear_2312_721)"/>
<path d="M205.418 50.8955C205.491 50.8248 205.548 50.7404 205.587 50.6473C205.626 50.5541 205.646 50.4541 205.646 50.353C205.646 50.252 205.626 50.152 205.587 50.0588C205.548 49.9657 205.491 49.8813 205.418 49.8106C205.354 49.7202 205.271 49.6447 205.175 49.5891C205.08 49.5335 204.973 49.4991 204.863 49.4882C204.752 49.4774 204.641 49.4903 204.536 49.5262C204.431 49.562 204.335 49.6199 204.255 49.6961C204.174 49.7722 204.111 49.8647 204.069 49.9673C204.027 50.07 204.008 50.1804 204.012 50.2912C204.017 50.4019 204.045 50.5104 204.095 50.6093C204.145 50.7082 204.216 50.7953 204.302 50.8645C204.446 51.0164 204.645 51.1049 204.854 51.1107C205.063 51.1165 205.266 51.0391 205.418 50.8955Z" fill="url(#paint19_linear_2312_721)"/>
<path opacity="0.4" d="M218.76 73.7358C218.945 73.5474 219.048 73.2941 219.048 73.0303C219.048 72.7665 218.945 72.5132 218.76 72.3248C218.569 72.1391 218.313 72.0353 218.046 72.0353C217.78 72.0353 217.524 72.1391 217.333 72.3248C217.167 72.5136 217.077 72.7575 217.082 73.0087C217.087 73.2599 217.185 73.5003 217.358 73.6827C217.531 73.8652 217.766 73.9765 218.016 73.995C218.267 74.0134 218.516 73.9375 218.713 73.7823L218.76 73.7358Z" fill="url(#paint20_linear_2312_721)"/>
<path d="M224.95 75.2863C225.302 74.9539 225.547 74.5248 225.655 74.0532C225.764 73.5815 225.73 73.0883 225.558 72.6359C225.386 72.1835 225.084 71.7922 224.69 71.5112C224.295 71.2302 223.827 71.0722 223.343 71.057C222.859 71.0419 222.382 71.1704 221.971 71.4262C221.56 71.6821 221.234 72.0539 221.034 72.4946C220.834 72.9354 220.769 73.4255 220.848 73.903C220.926 74.3805 221.145 74.8241 221.475 75.1778C221.696 75.4138 221.961 75.6039 222.255 75.7372C222.549 75.8705 222.867 75.9443 223.19 75.9544C223.513 75.9645 223.835 75.9107 224.137 75.796C224.439 75.6813 224.715 75.5081 224.95 75.2863Z" fill="url(#paint21_linear_2312_721)"/>
<path d="M89.6193 179.778C87.37 187.252 75.2702 201.781 67.7932 199.486C60.3162 197.191 60.2852 179.065 62.55 171.576C63.0858 169.799 63.9664 168.145 65.1415 166.709C66.3167 165.273 67.7634 164.082 69.399 163.204C71.0347 162.326 72.8272 161.78 74.6744 161.594C76.5215 161.409 78.387 161.59 80.1644 162.125C81.9418 162.661 83.5963 163.541 85.0333 164.716C86.4704 165.89 87.6619 167.336 88.5399 168.971C89.4179 170.606 89.9651 172.398 90.1503 174.244C90.3355 176.09 90.155 177.955 89.6193 179.732V179.778Z" fill="url(#paint22_radial_2312_721)"/>
<g style="mix-blend-mode:lighten">
<path d="M89.6193 179.778C87.37 187.252 75.2702 201.781 67.7932 199.486C60.3162 197.191 60.2852 179.065 62.55 171.576C63.0858 169.799 63.9664 168.145 65.1415 166.709C66.3167 165.273 67.7634 164.082 69.399 163.204C71.0347 162.326 72.8272 161.78 74.6744 161.594C76.5215 161.409 78.387 161.59 80.1644 162.125C81.9418 162.661 83.5963 163.541 85.0333 164.716C86.4704 165.89 87.6619 167.336 88.5399 168.971C89.4179 170.606 89.9651 172.398 90.1503 174.244C90.3355 176.09 90.155 177.955 89.6193 179.732V179.778Z" fill="url(#paint23_linear_2312_721)"/>
</g>
<path d="M75.2688 162.272C77.4175 162.195 79.5541 162.625 81.5054 163.528C83.4567 164.43 85.1678 165.78 86.4998 167.467C88.7647 170.692 87.4151 173.592 83.4904 173.948C81.3242 174.033 79.1687 173.603 77.2004 172.695C75.2321 171.787 73.507 170.426 72.1663 168.723C69.948 165.498 71.2976 162.598 75.2688 162.272Z" fill="#251C72"/>
<path style="mix-blend-mode:lighten" opacity="0.5" d="M75.2688 162.272C77.4175 162.195 79.5541 162.625 81.5054 163.528C83.4567 164.43 85.1678 165.78 86.4998 167.467C88.7647 170.692 87.4151 173.592 83.4904 173.948C81.3242 174.033 79.1687 173.603 77.2004 172.695C75.2321 171.787 73.507 170.426 72.1663 168.723C69.948 165.498 71.2976 162.598 75.2688 162.272Z" fill="url(#paint24_radial_2312_721)"/>
<path d="M71.1266 165.916C71.9865 165.248 73.0326 164.864 74.1206 164.815C76.2683 164.74 78.4035 165.173 80.3524 166.078C82.3013 166.983 84.0089 168.336 85.3361 170.025C85.9592 170.838 86.3361 171.812 86.422 172.832C87.8491 171.638 87.9732 169.622 86.422 167.451C85.0962 165.778 83.3969 164.438 81.4602 163.539C79.5234 162.639 77.4029 162.206 75.2685 162.272C72.5072 162.489 71.0181 163.962 71.1266 165.916Z" fill="url(#paint25_linear_2312_721)"/>
<path opacity="0.6" d="M88.4092 158.427C88.1884 158.421 87.9708 158.481 87.7839 158.598C87.5969 158.716 87.449 158.886 87.3589 159.088C87.2688 159.289 87.2405 159.513 87.2776 159.73C87.3146 159.948 87.4155 160.15 87.5672 160.31C87.719 160.471 87.915 160.582 88.1303 160.631C88.3456 160.681 88.5707 160.665 88.777 160.586C88.9834 160.507 89.1617 160.369 89.2895 160.189C89.4173 160.009 89.4889 159.795 89.4951 159.574C89.4992 159.428 89.4744 159.282 89.4221 159.145C89.3697 159.008 89.2909 158.882 89.19 158.776C89.0892 158.669 88.9683 158.584 88.8343 158.524C88.7004 158.464 88.5559 158.431 88.4092 158.427Z" fill="url(#paint26_linear_2312_721)"/>
<path d="M77.8916 150.674C77.3364 150.662 76.7902 150.815 76.3218 151.113C75.8535 151.411 75.4841 151.842 75.2604 152.349C75.0367 152.857 74.9687 153.42 75.065 153.967C75.1613 154.514 75.4176 155.019 75.8015 155.42C76.1853 155.821 76.6795 156.1 77.2216 156.22C77.7636 156.34 78.3292 156.297 78.8468 156.096C79.3644 155.895 79.8108 155.546 80.1295 155.091C80.4482 154.637 80.6249 154.098 80.6373 153.543C80.6476 153.174 80.5845 152.806 80.4517 152.462C80.3189 152.117 80.1191 151.802 79.8637 151.536C79.6083 151.269 79.3025 151.055 78.964 150.907C78.6254 150.76 78.2609 150.68 77.8916 150.674Z" fill="url(#paint27_linear_2312_721)"/>
<path opacity="0.6" d="M93.9936 144.333C93.5822 144.333 93.1876 144.496 92.8967 144.787C92.6058 145.078 92.4424 145.472 92.4424 145.883C92.4424 146.294 92.6058 146.689 92.8967 146.98C93.1876 147.27 93.5822 147.434 93.9936 147.434C94.405 147.434 94.7996 147.27 95.0905 146.98C95.3814 146.689 95.5449 146.294 95.5449 145.883C95.5449 145.472 95.3814 145.078 95.0905 144.787C94.7996 144.496 94.405 144.333 93.9936 144.333Z" fill="url(#paint28_linear_2312_721)"/>
<path d="M87.6783 145.589C87.463 145.582 87.2507 145.64 87.0685 145.755C86.8862 145.87 86.7423 146.036 86.6549 146.233C86.5675 146.43 86.5407 146.648 86.5777 146.86C86.6148 147.073 86.7142 147.269 86.8632 147.424C87.0122 147.58 87.2041 147.687 87.4145 147.734C87.6248 147.78 87.8442 147.762 88.0447 147.684C88.2452 147.605 88.4177 147.468 88.5402 147.291C88.6628 147.114 88.73 146.905 88.7332 146.689C88.7373 146.548 88.7132 146.406 88.6622 146.274C88.6112 146.142 88.5344 146.021 88.4363 145.918C88.3381 145.816 88.2205 145.734 88.0904 145.677C87.9603 145.621 87.8202 145.591 87.6783 145.589Z" fill="url(#paint29_linear_2312_721)"/>
<path d="M88.8882 143.17C88.792 143.165 88.6959 143.181 88.6058 143.215C88.5157 143.249 88.4334 143.301 88.3639 143.367C88.2944 143.434 88.239 143.514 88.2013 143.602C88.1635 143.691 88.1441 143.786 88.1442 143.883C88.1401 143.98 88.1553 144.076 88.1891 144.167C88.2229 144.258 88.2745 144.342 88.3409 144.412C88.4073 144.483 88.4872 144.54 88.5759 144.579C88.6645 144.619 88.7602 144.64 88.8572 144.642C88.9628 144.657 89.0705 144.65 89.173 144.62C89.2755 144.59 89.3703 144.538 89.451 144.469C89.5318 144.399 89.5965 144.312 89.6409 144.215C89.6853 144.118 89.7083 144.013 89.7083 143.906C89.7083 143.799 89.6853 143.694 89.6409 143.597C89.5965 143.499 89.5318 143.413 89.451 143.343C89.3703 143.273 89.2755 143.222 89.173 143.192C89.0705 143.162 88.9628 143.154 88.8572 143.17H88.8882Z" fill="url(#paint30_linear_2312_721)"/>
<path opacity="0.6" d="M79.8142 163.901C79.4027 163.89 79.0041 164.044 78.7059 164.327C78.4077 164.611 78.2344 165.001 78.2241 165.412C78.2138 165.824 78.3674 166.222 78.651 166.52C78.9347 166.818 79.3252 166.991 79.7366 167.002C79.9403 167.007 80.143 166.972 80.3332 166.898C80.5233 166.825 80.6972 166.715 80.8448 166.575C80.9925 166.435 81.111 166.266 81.1937 166.08C81.2764 165.894 81.3215 165.694 81.3266 165.49C81.3317 165.286 81.2966 165.084 81.2234 164.894C81.1501 164.703 81.0401 164.53 80.8997 164.382C80.7592 164.235 80.5911 164.116 80.4048 164.033C80.2186 163.951 80.0179 163.906 79.8142 163.901Z" fill="url(#paint31_linear_2312_721)"/>
<path d="M84.5758 163.389C84.1121 163.377 83.6552 163.502 83.263 163.75C82.8709 163.998 82.5611 164.356 82.373 164.78C82.185 165.204 82.127 165.674 82.2066 166.131C82.2861 166.588 82.4996 167.011 82.8199 167.346C83.1402 167.681 83.5529 167.914 84.0057 168.015C84.4586 168.116 84.9311 168.08 85.3634 167.912C85.7957 167.743 86.1684 167.451 86.4342 167.071C86.6999 166.691 86.8468 166.24 86.8562 165.777C86.8687 165.158 86.6359 164.56 86.2086 164.113C85.7814 163.665 85.1944 163.405 84.5758 163.389Z" fill="url(#paint32_linear_2312_721)"/>
<path d="M130.709 135.84C132.424 124.208 124.379 113.39 112.742 111.676C101.105 109.962 90.2812 118.003 88.5669 129.635C86.8526 141.267 94.8968 152.086 106.534 153.8C118.171 155.513 128.995 147.473 130.709 135.84Z" fill="url(#paint33_radial_2312_721)"/>
<g style="mix-blend-mode:lighten">
<path d="M118.878 151.9C129.478 146.803 133.938 134.082 128.838 123.487C123.739 112.891 111.012 108.434 100.412 113.531C89.8119 118.628 85.3525 131.349 90.4517 141.944C95.551 152.54 108.278 156.997 118.878 151.9Z" fill="url(#paint34_linear_2312_721)"/>
</g>
<path d="M215.86 171.39C215.86 212.712 191.241 246.204 160.868 246.204C130.494 246.204 105.876 212.712 105.876 171.39C105.876 130.067 130.494 117.694 160.868 117.694C191.241 117.694 215.86 130.067 215.86 171.39Z" fill="url(#paint35_radial_2312_721)"/>
<g style="mix-blend-mode:lighten">
<path d="M215.859 171.39C215.859 212.712 191.24 246.204 160.867 246.204C130.493 246.204 105.875 212.712 105.875 171.39C105.875 130.067 130.493 117.694 160.867 117.694C191.24 117.694 215.859 130.067 215.859 171.39Z" fill="url(#paint36_linear_2312_721)"/>
</g>
<path d="M160.867 161.559C181.592 161.559 198.392 151.861 198.392 139.898C198.392 127.935 181.592 118.237 160.867 118.237C140.143 118.237 123.343 127.935 123.343 139.898C123.343 151.861 140.143 161.559 160.867 161.559Z" fill="#251C72"/>
<path style="mix-blend-mode:lighten" opacity="0.5" d="M160.867 161.559C181.592 161.559 198.392 151.861 198.392 139.898C198.392 127.935 181.592 118.237 160.867 118.237C140.143 118.237 123.343 127.935 123.343 139.898C123.343 151.861 140.143 161.559 160.867 161.559Z" fill="url(#paint37_radial_2312_721)"/>
<path d="M134.325 130.362C148.984 121.896 172.749 121.896 187.409 130.362C193.459 133.851 196.995 138.239 198.05 142.767C199.602 136.316 196.003 129.54 187.409 124.579C172.749 116.112 148.984 116.112 134.325 124.579C125.731 129.54 122.179 136.316 123.683 142.767C124.738 138.239 128.275 133.851 134.325 130.362Z" fill="url(#paint38_linear_2312_721)"/>
<path d="M139.852 75.4764C146.033 64.7748 146.034 53.2081 139.854 49.6414C133.673 46.0747 123.652 51.8587 117.471 62.5602C111.289 73.2618 111.289 84.8285 117.469 88.3952C123.649 91.9619 133.671 86.1779 139.852 75.4764Z" fill="#BCBEFF"/>
<path d="M163.055 144.27C194.026 144.27 219.133 119.175 219.133 88.2179C219.133 57.2609 194.026 32.1653 163.055 32.1653C132.084 32.1653 106.978 57.2609 106.978 88.2179C106.978 119.175 132.084 144.27 163.055 144.27Z" fill="url(#paint39_linear_2312_721)"/>
<path d="M145.555 114.763C144.112 125.788 135.798 129.246 126.94 122.516C118.083 115.787 112.126 101.336 113.553 90.3112C114.98 79.2867 123.31 75.829 132.168 82.5584C141.026 89.2878 146.982 103.739 145.555 114.763Z" fill="#251C72"/>
<path style="mix-blend-mode:lighten" opacity="0.5" d="M145.555 114.763C144.112 125.788 135.798 129.246 126.94 122.516C118.083 115.787 112.126 101.336 113.553 90.3112C114.98 79.2867 123.31 75.829 132.168 82.5584C141.026 89.2878 146.982 103.739 145.555 114.763Z" fill="url(#paint40_radial_2312_721)"/>
<path d="M138.251 105.212C137.739 109.228 134.714 110.484 131.503 108.034C129.824 106.606 128.507 104.8 127.66 102.766C126.814 100.731 126.461 98.5246 126.632 96.3275C127.144 92.327 130.169 91.0711 133.38 93.521C135.056 94.9477 136.372 96.7506 137.218 98.7824C138.065 100.814 138.419 103.018 138.251 105.212Z" fill="url(#paint41_linear_2312_721)"/>
<path d="M131.207 120.888C122.365 114.143 116.361 99.7231 117.804 88.6986C118.378 84.2175 120.115 80.9459 122.551 79.1782C117.897 79.6124 114.438 83.5198 113.554 90.3112C112.126 101.336 118.13 115.74 126.956 122.501C132.2 126.501 137.241 126.904 140.794 124.299C137.284 124.401 133.863 123.184 131.207 120.888Z" fill="url(#paint42_linear_2312_721)"/>
<path d="M127.716 122.144C118.89 115.384 112.887 100.979 114.314 89.9546C114.981 84.8533 117.121 81.38 120.115 79.7675C116.734 81.163 114.283 84.7912 113.554 90.3112C112.126 101.336 118.13 115.74 126.956 122.501C131.703 126.129 136.264 126.796 139.754 124.935C136.403 126.315 132.122 125.509 127.716 122.144Z" fill="url(#paint43_linear_2312_721)"/>
<path d="M227.189 206.085C238.494 202.836 245.023 191.042 241.773 179.742C238.523 168.442 226.724 161.915 215.419 165.164C204.114 168.413 197.584 180.207 200.834 191.507C204.084 202.807 215.884 209.334 227.189 206.085Z" fill="url(#paint44_radial_2312_721)"/>
<g style="mix-blend-mode:lighten">
<path d="M227.189 206.085C238.494 202.836 245.023 191.042 241.773 179.742C238.523 168.442 226.724 161.915 215.419 165.164C204.114 168.413 197.584 180.207 200.834 191.507C204.084 202.807 215.884 209.334 227.189 206.085Z" fill="#49A8FF"/>
</g>
<path d="M241.765 186.027C241.589 189.292 240.645 192.47 239.008 195.302C237.372 198.134 235.091 200.539 232.349 202.323C227.152 205.316 222.948 202.897 222.948 196.896C223.122 193.63 224.064 190.451 225.698 187.617C227.331 184.783 229.61 182.374 232.349 180.585C237.561 177.592 241.765 180.026 241.765 186.027Z" fill="#251C72"/>
<path style="mix-blend-mode:lighten" opacity="0.5" d="M241.765 186.027C241.589 189.292 240.645 192.47 239.008 195.302C237.372 198.134 235.091 200.539 232.349 202.323C227.152 205.316 222.948 202.897 222.948 196.896C223.122 193.63 224.064 190.451 225.698 187.617C227.331 184.783 229.61 182.374 232.349 180.585C237.561 177.592 241.765 180.026 241.765 186.027Z" fill="url(#paint45_radial_2312_721)"/>
<path d="M236.77 179.329C237.651 180.716 238.089 182.338 238.027 183.98C237.85 187.245 236.905 190.423 235.269 193.254C233.633 196.086 231.351 198.492 228.611 200.277C227.286 201.109 225.754 201.55 224.189 201.548C225.818 203.874 228.843 204.324 232.349 202.308C235.091 200.524 237.373 198.118 239.009 195.286C240.645 192.455 241.589 189.277 241.765 186.012C241.765 181.872 239.702 179.422 236.77 179.329Z" fill="url(#paint46_linear_2312_721)"/>
<path d="M210.384 108.716L190.062 120.438V96.9941L210.384 85.2719V108.716Z" fill="#251C72"/>
<path opacity="0.8" d="M207.359 87.0085V107.088L190.062 117.058V120.438L210.384 108.716V85.2719L207.359 87.0085Z" fill="url(#paint47_radial_2312_721)"/>
<path d="M193.937 103.397L192.124 104.451V102.359L193.937 101.305V103.397Z" fill="url(#paint48_linear_2312_721)"/>
<path d="M197.801 98.4818L195.987 99.5358V97.4279L197.801 96.3739V98.4818Z" fill="url(#paint49_linear_2312_721)"/>
<path d="M201.663 98.947L199.85 99.9855V97.8931L201.663 96.8391V98.947Z" fill="url(#paint50_linear_2312_721)"/>
<path d="M201.663 104.451L199.85 105.505V103.397L201.663 102.359V104.451Z" fill="url(#paint51_linear_2312_721)"/>
<path d="M199.337 108.685L197.523 109.739V107.631L199.337 106.592V108.685Z" fill="url(#paint52_linear_2312_721)"/>
<path d="M205.65 102.157L203.837 103.211V101.103L205.65 100.049V102.157Z" fill="url(#paint53_linear_2312_721)"/>
<path d="M226.75 102.53L228.984 98.6843L226.75 97.4128L206.444 109.135V132.579L208.663 133.851L210.881 130.006L226.75 120.857V102.53Z" fill="url(#paint54_linear_2312_721)"/>
<path d="M228.982 122.129L208.661 133.851V110.406L228.982 98.6842V122.129Z" fill="url(#paint55_linear_2312_721)"/>
<path d="M227.974 35.8558C227.721 35.8792 227.465 35.8495 227.224 35.7686C226.983 35.6876 226.761 35.5573 226.573 35.3858C226.385 35.2144 226.234 35.0056 226.132 34.7728C226.029 34.54 225.976 34.2883 225.976 34.0339C225.976 33.7794 226.029 33.5278 226.132 33.295C226.234 33.0622 226.385 32.8534 226.573 32.6819C226.761 32.5105 226.983 32.3801 227.224 32.2992C227.465 32.2183 227.721 32.1886 227.974 32.212C228.429 32.2539 228.851 32.464 229.159 32.801C229.466 33.1381 229.637 33.5778 229.637 34.0339C229.637 34.49 229.466 34.9297 229.159 35.2667C228.851 35.6038 228.429 35.8138 227.974 35.8558Z" fill="url(#paint56_linear_2312_721)"/>
<path d="M218.743 57.9977L218.355 57.6101L227.694 48.2757V34.0261H228.237V48.4928L218.743 57.9977Z" fill="url(#paint57_linear_2312_721)"/>
<path d="M235.933 245.382C233.668 252.856 221.584 267.385 214.107 265.136C206.63 262.888 206.599 244.7 208.848 237.226C209.996 233.715 212.472 230.792 215.748 229.083C219.024 227.373 222.839 227.012 226.377 228.078C229.915 229.143 232.896 231.55 234.682 234.784C236.468 238.018 236.917 241.822 235.933 245.382Z" fill="url(#paint58_radial_2312_721)"/>
<g style="mix-blend-mode:lighten">
<path d="M235.932 245.382C233.667 252.856 221.583 267.385 214.106 265.136C206.629 262.888 206.598 244.7 208.847 237.226C209.995 233.715 212.471 230.792 215.747 229.083C219.023 227.373 222.838 227.012 226.376 228.078C229.914 229.143 232.895 231.55 234.681 234.784C236.467 238.018 236.916 241.822 235.932 245.382Z" fill="url(#paint59_linear_2312_721)"/>
</g>
<path d="M221.536 227.861C223.683 227.783 225.818 228.212 227.767 229.115C229.716 230.018 231.424 231.368 232.752 233.055C235.017 236.28 233.667 239.18 229.742 239.537C227.595 239.612 225.459 239.179 223.511 238.274C221.562 237.369 219.854 236.016 218.527 234.327C216.262 231.102 217.596 228.202 221.536 227.861Z" fill="#251C72"/>
<path style="mix-blend-mode:lighten" opacity="0.5" d="M221.536 227.861C223.683 227.783 225.818 228.212 227.767 229.115C229.716 230.018 231.424 231.368 232.752 233.055C235.017 236.28 233.667 239.18 229.742 239.537C227.595 239.612 225.459 239.179 223.511 238.274C221.562 237.369 219.854 236.016 218.527 234.327C216.262 231.102 217.596 228.202 221.536 227.861Z" fill="url(#paint60_radial_2312_721)"/>
<path d="M217.426 231.52C218.289 230.858 219.333 230.475 220.42 230.419C222.567 230.348 224.701 230.782 226.649 231.687C228.598 232.592 230.306 233.943 231.635 235.629C232.256 236.444 232.637 237.416 232.737 238.436C234.164 237.242 234.288 235.226 232.737 233.055C231.409 231.368 229.701 230.018 227.752 229.115C225.803 228.212 223.668 227.783 221.521 227.861C218.807 228.094 217.333 229.567 217.426 231.52Z" fill="url(#paint61_linear_2312_721)"/>
<path opacity="0.6" d="M232.627 218.883C232.73 218.782 232.812 218.662 232.868 218.528C232.924 218.395 232.953 218.252 232.953 218.108C232.953 217.964 232.924 217.821 232.868 217.687C232.812 217.554 232.73 217.434 232.627 217.333C232.421 217.128 232.142 217.013 231.852 217.013C231.561 217.013 231.282 217.128 231.076 217.333C230.875 217.541 230.763 217.819 230.763 218.108C230.763 218.397 230.875 218.675 231.076 218.883C231.282 219.088 231.561 219.202 231.852 219.202C232.142 219.202 232.421 219.088 232.627 218.883Z" fill="url(#paint62_linear_2312_721)"/>
<path d="M245.566 217.054C245.971 216.673 246.253 216.182 246.378 215.641C246.503 215.101 246.465 214.535 246.269 214.016C246.072 213.497 245.726 213.048 245.274 212.725C244.823 212.403 244.285 212.221 243.73 212.204C243.175 212.187 242.628 212.334 242.157 212.628C241.686 212.922 241.312 213.348 241.084 213.854C240.855 214.36 240.782 214.922 240.873 215.469C240.964 216.017 241.215 216.525 241.595 216.93C241.848 217.199 242.151 217.415 242.487 217.567C242.823 217.719 243.186 217.803 243.555 217.814C243.924 217.826 244.291 217.765 244.636 217.634C244.982 217.504 245.298 217.306 245.566 217.054Z" fill="url(#paint63_linear_2312_721)"/>
<path opacity="0.6" d="M238.523 232.854C238.674 232.712 238.795 232.542 238.88 232.354C238.965 232.166 239.012 231.962 239.019 231.756C239.025 231.549 238.991 231.343 238.918 231.15C238.845 230.957 238.734 230.779 238.593 230.629C238.451 230.478 238.281 230.357 238.093 230.272C237.904 230.187 237.701 230.14 237.494 230.133C237.288 230.127 237.082 230.161 236.888 230.234C236.695 230.307 236.518 230.417 236.367 230.559C236.062 230.845 235.884 231.24 235.871 231.657C235.858 232.074 236.011 232.48 236.297 232.784C236.583 233.088 236.978 233.267 237.396 233.28C237.813 233.293 238.219 233.14 238.523 232.854Z" fill="url(#paint64_linear_2312_721)"/>
<path d="M242.137 227.551C242.242 227.451 242.326 227.331 242.383 227.197C242.44 227.064 242.47 226.921 242.47 226.776C242.47 226.631 242.44 226.487 242.383 226.354C242.326 226.22 242.242 226.1 242.137 226C242.049 225.869 241.934 225.758 241.799 225.675C241.663 225.593 241.512 225.541 241.354 225.523C241.197 225.506 241.038 225.523 240.888 225.573C240.737 225.623 240.6 225.706 240.485 225.815C240.371 225.924 240.281 226.057 240.223 226.204C240.165 226.351 240.14 226.51 240.149 226.668C240.159 226.826 240.203 226.98 240.278 227.119C240.354 227.258 240.459 227.379 240.586 227.473C240.68 227.584 240.797 227.673 240.927 227.737C241.057 227.801 241.2 227.838 241.345 227.845C241.49 227.852 241.635 227.83 241.771 227.78C241.907 227.729 242.032 227.651 242.137 227.551Z" fill="url(#paint65_linear_2312_721)"/>
<path d="M242.99 230.109C243.091 230.006 243.159 229.877 243.186 229.736C243.213 229.595 243.198 229.449 243.143 229.316C243.087 229.184 242.994 229.071 242.874 228.991C242.755 228.912 242.614 228.869 242.471 228.869C242.327 228.869 242.187 228.912 242.067 228.991C241.948 229.071 241.854 229.184 241.799 229.316C241.743 229.449 241.728 229.595 241.755 229.736C241.783 229.877 241.851 230.006 241.951 230.109C242.019 230.178 242.1 230.232 242.189 230.27C242.278 230.307 242.374 230.326 242.471 230.326C242.567 230.326 242.663 230.307 242.752 230.27C242.841 230.232 242.922 230.178 242.99 230.109Z" fill="url(#paint66_linear_2312_721)"/>
<path opacity="0.6" d="M234.923 208.96C235.137 208.742 235.281 208.465 235.338 208.165C235.395 207.866 235.362 207.556 235.244 207.274C235.125 206.993 234.926 206.753 234.672 206.584C234.418 206.415 234.119 206.325 233.814 206.325C233.509 206.325 233.21 206.415 232.956 206.584C232.701 206.753 232.503 206.993 232.384 207.274C232.266 207.556 232.233 207.866 232.29 208.165C232.347 208.465 232.491 208.742 232.705 208.96C232.849 209.107 233.022 209.225 233.212 209.305C233.403 209.385 233.607 209.426 233.814 209.426C234.021 209.426 234.225 209.385 234.416 209.305C234.606 209.225 234.779 209.107 234.923 208.96Z" fill="url(#paint67_linear_2312_721)"/>
<path d="M231.946 212.65C232.395 212.224 232.657 211.637 232.675 211.018C232.692 210.399 232.464 209.798 232.039 209.347C231.722 209.015 231.314 208.784 230.866 208.683C230.417 208.583 229.949 208.617 229.521 208.781C229.092 208.946 228.722 209.234 228.456 209.609C228.191 209.983 228.042 210.428 228.029 210.887C228.016 211.346 228.14 211.798 228.383 212.188C228.627 212.577 228.981 212.885 229.4 213.073C229.819 213.262 230.284 213.322 230.737 213.247C231.19 213.172 231.611 212.964 231.946 212.65Z" fill="url(#paint68_linear_2312_721)"/>
<path d="M185.687 67.239L69.8557 0.890713C69.1486 0.376283 68.3108 0.0714275 67.4383 0.0110939C66.5658 -0.0492397 65.694 0.137392 64.9227 0.549592L57.7715 4.68957L62.4252 8.05428V11.8686L59.7881 12.985L59.9277 154.272L67.777 161.823L94.6447 177.235L176.861 222.992H180.351C180.506 222.992 180.708 222.574 180.894 222.015L184.415 224.047L183.299 229.412L190.574 225.225C192.125 224.326 193.195 222.217 193.195 219.193V81.4266C193.164 75.9686 189.783 69.6113 185.687 67.239ZM182.492 215.084L70.9106 151.171C70.3968 150.798 69.9766 150.312 69.6832 149.749C69.3898 149.187 69.2311 148.564 69.2197 147.93V12.0392L92.8917 27.2657L178.753 77.8758L181.282 81.7987L182.678 143.34L182.492 215.084Z" fill="#49A8FF"/>
<path opacity="0.6" d="M190.759 72.8519L179.652 79.2557L181.281 81.7986L182.677 143.34L182.491 215.084L180.428 213.89C180.428 216.108 183.236 227.055 183.236 229.396L189.146 226L190.511 225.209C192.062 224.31 193.133 222.201 193.133 219.178V81.4265C193.052 78.4177 192.238 75.4741 190.759 72.8519Z" fill="#0F054C"/>
<path d="M178.196 71.565L62.3797 5.20125C58.2689 2.8289 54.9492 5.3408 54.9492 10.8143V148.519C54.9492 153.993 58.2689 160.35 62.3797 162.707L178.196 229.07C182.307 231.443 185.626 228.931 185.626 223.457V85.7526C185.626 80.2791 182.307 73.8908 178.196 71.565ZM178.847 219.348C178.847 220.589 178.087 221.163 177.141 220.635L63.4345 155.512C62.9144 155.145 62.4886 154.66 62.192 154.097C61.8954 153.533 61.7365 152.908 61.7282 152.271V14.9697C61.7282 13.7293 62.4883 13.1556 63.4345 13.6828L177.141 78.8061C177.661 79.1733 178.087 79.6583 178.384 80.2216C178.68 80.7849 178.839 81.4103 178.847 82.0468V219.348Z" fill="url(#paint69_linear_2312_721)"/>
<path d="M178.196 71.565L62.3797 5.20125C58.2689 2.8289 54.9492 5.3408 54.9492 10.8143V148.519C54.9492 153.993 58.2689 160.35 62.3797 162.707L178.196 229.07C182.307 231.443 185.626 228.931 185.626 223.457V85.7526C185.626 80.2791 182.307 73.8909 178.196 71.565ZM178.847 219.348C178.847 220.589 178.087 221.163 177.141 220.635L63.4345 155.512C62.9144 155.145 62.4886 154.66 62.192 154.097C61.8954 153.533 61.7365 152.908 61.7282 152.271V14.9698C61.7282 13.7293 62.4883 13.1556 63.4345 13.6828L177.141 78.8061C177.661 79.1733 178.087 79.6583 178.384 80.2216C178.68 80.7849 178.839 81.4103 178.847 82.0468V219.348Z" fill="url(#paint70_linear_2312_721)"/>
<path d="M70.9109 151.171C70.3972 150.798 69.977 150.312 69.6836 149.749C69.3901 149.187 69.2315 148.564 69.2201 147.93V16.9855L63.4339 13.6363C62.4877 13.1091 61.7275 13.6363 61.7275 14.9233V152.24C61.7358 152.877 61.8948 153.502 62.1914 154.066C62.4879 154.629 62.9137 155.114 63.4339 155.481L177.14 220.604C178.087 221.132 178.847 220.604 178.847 219.317V212.976L70.9109 151.171Z" fill="#251C72"/>
<path opacity="0.4" d="M178.847 219.348C178.847 220.589 178.087 221.163 177.14 220.635L63.4339 155.512C62.9137 155.145 62.4879 154.66 62.1914 154.097C61.8948 153.533 61.7358 152.908 61.7275 152.271V14.9698C61.7275 13.7293 62.4877 13.1556 63.4339 13.6828L177.14 78.8061C177.661 79.1733 178.086 79.6584 178.383 80.2216C178.68 80.7849 178.839 81.4104 178.847 82.0468V219.348Z" fill="url(#paint71_linear_2312_721)"/>
<g opacity="0.4">
<path d="M96.8152 74.9297L85.7393 68.5414V65.7659L96.8152 72.1387V74.9297Z" fill="url(#paint72_linear_2312_721)"/>
<path d="M106.247 80.3722L100.709 77.178V74.4025L106.247 77.5967V80.3722Z" fill="url(#paint73_linear_2312_721)"/>
<path d="M100.072 83.3337L95.3564 80.6203V77.8293L100.072 80.5583V83.3337Z" fill="url(#paint74_linear_2312_721)"/>
<path d="M107.968 87.8923L102.43 84.6982V81.9227L107.968 85.1168V87.8923Z" fill="url(#paint75_linear_2312_721)"/>
<path d="M117.089 99.692L95.3564 87.1481V84.3571L117.089 96.901V99.692Z" fill="url(#paint76_linear_2312_721)"/>
<path d="M100.072 96.3894L95.3564 93.676V90.8849L100.072 93.6139V96.3894Z" fill="url(#paint77_linear_2312_721)"/>
<path d="M107.968 100.948L102.43 97.7539V94.9785L107.968 98.1726V100.948Z" fill="url(#paint78_linear_2312_721)"/>
<path d="M107.301 107.104L95.3564 100.204V97.4128L107.301 104.313V107.104Z" fill="url(#paint79_linear_2312_721)"/>
<path d="M115.307 111.709L109.769 108.515V105.739L115.307 108.933V111.709Z" fill="url(#paint80_linear_2312_721)"/>
<path d="M123.342 116.361L117.819 113.166V110.375L123.342 113.57V116.361Z" fill="url(#paint81_linear_2312_721)"/>
<path d="M136.326 123.834L125.855 117.803V115.012L136.326 121.059V123.834Z" fill="url(#paint82_linear_2312_721)"/>
<path d="M130.042 133.277L124.52 130.083V127.292L130.042 130.486V133.277Z" fill="url(#paint83_linear_2312_721)"/>
<path d="M143.027 140.766L132.556 134.719V131.944L143.027 137.975V140.766Z" fill="url(#paint84_linear_2312_721)"/>
<path d="M100.894 116.454L95.3564 113.259V110.468L100.894 113.663V116.454Z" fill="url(#paint85_linear_2312_721)"/>
<path d="M108.931 121.09L103.393 117.896V115.105L108.931 118.299V121.09Z" fill="url(#paint86_linear_2312_721)"/>
<path d="M121.9 128.579L111.444 122.532V119.756L121.9 125.788V128.579Z" fill="url(#paint87_linear_2312_721)"/>
<path d="M137.907 131.277L132.369 128.083V125.307L137.907 128.501V131.277Z" fill="url(#paint88_linear_2312_721)"/>
<path d="M145.942 135.913L140.404 132.719V129.943L145.942 133.138V135.913Z" fill="url(#paint89_linear_2312_721)"/>
<path d="M158.911 143.402L148.44 137.371V134.58L158.911 140.627V143.402Z" fill="url(#paint90_linear_2312_721)"/>
<path d="M100.894 129.509L95.3564 126.315V123.524L100.894 126.718V129.509Z" fill="url(#paint91_linear_2312_721)"/>
<path d="M113.864 136.983L103.393 130.951V128.16L113.864 134.207V136.983Z" fill="url(#paint92_linear_2312_721)"/>
<path d="M133.626 109.228L128.104 106.034V103.258L133.626 106.453V109.228Z" fill="url(#paint93_linear_2312_721)"/>
<path d="M125.265 104.406L119.728 101.212V98.4361L125.265 101.63V104.406Z" fill="url(#paint94_linear_2312_721)"/>
<path d="M146.595 116.717L136.14 110.686V107.895L146.595 113.942V116.717Z" fill="url(#paint95_linear_2312_721)"/>
<path d="M100.351 109.616L95.3564 106.732V103.941L100.351 106.825V109.616Z" fill="url(#paint96_linear_2312_721)"/>
<path d="M115.15 118.144L103.02 111.151V108.36L115.15 115.368V118.144Z" fill="url(#paint97_linear_2312_721)"/>
<path d="M129.95 126.687L117.819 119.694V116.903L129.95 123.896V126.687Z" fill="url(#paint98_linear_2312_721)"/>
<path d="M154.29 121.152L149.295 118.283V115.492L154.29 118.376V121.152Z" fill="url(#paint99_linear_2312_721)"/>
<path d="M107.597 126.842L95.4658 119.849V117.058L107.597 124.067V126.842Z" fill="url(#paint100_linear_2312_721)"/>
<path d="M113.987 130.533L110.264 128.377V125.602L113.987 127.757V130.533Z" fill="url(#paint101_linear_2312_721)"/>
<path d="M120.395 134.238L116.672 132.083V129.292L120.395 131.447V134.238Z" fill="url(#paint102_linear_2312_721)"/>
<path d="M132.245 141.076L123.077 135.789V132.998L132.245 138.285V141.076Z" fill="url(#paint103_linear_2312_721)"/>
<path d="M134.727 142.503L125.56 137.215V134.44L134.727 139.727V142.503Z" fill="url(#paint104_linear_2312_721)"/>
<path d="M142.499 127.416L138.776 125.261V122.47L142.499 124.625V127.416Z" fill="url(#paint105_linear_2312_721)"/>
<path d="M154.351 134.238L145.184 128.951V126.176L154.351 131.463V134.238Z" fill="url(#paint106_linear_2312_721)"/>
<path d="M89.5716 129.509L85.8486 127.354V124.563L89.5716 126.718V129.509Z" fill="url(#paint107_linear_2312_721)"/>
<path d="M101.422 136.347L92.2539 131.044V128.269L101.422 133.556V136.347Z" fill="url(#paint108_linear_2312_721)"/>
<path d="M113.522 143.325L104.37 138.037V135.246L113.522 140.534V143.325Z" fill="url(#paint109_linear_2312_721)"/>
</g>
<defs>
<linearGradient id="paint0_linear_2312_721" x1="167.353" y1="43.9341" x2="171.411" y2="43.9344" gradientUnits="userSpaceOnUse">
<stop stop-color="white"/>
<stop offset="1" stop-color="#47A3F7"/>
</linearGradient>
<linearGradient id="paint1_linear_2312_721" x1="173.201" y1="47.3066" x2="177.26" y2="47.3069" gradientUnits="userSpaceOnUse">
<stop stop-color="white"/>
<stop offset="1" stop-color="#47A3F7"/>
</linearGradient>
<linearGradient id="paint2_linear_2312_721" x1="156.757" y1="39.2049" x2="165.295" y2="39.2057" gradientUnits="userSpaceOnUse">
<stop stop-color="white"/>
<stop offset="1" stop-color="#47A3F7"/>
</linearGradient>
<linearGradient id="paint3_linear_2312_721" x1="216.923" y1="94.1659" x2="222.895" y2="94.1663" gradientUnits="userSpaceOnUse">
<stop stop-color="white"/>
<stop offset="1" stop-color="#47A3F7"/>
</linearGradient>
<linearGradient id="paint4_linear_2312_721" x1="242.749" y1="52.6348" x2="246.576" y2="52.6351" gradientUnits="userSpaceOnUse">
<stop stop-color="white"/>
<stop offset="1" stop-color="#47A3F7"/>
</linearGradient>
<linearGradient id="paint5_linear_2312_721" x1="239.718" y1="48.1517" x2="242.182" y2="48.1518" gradientUnits="userSpaceOnUse">
<stop stop-color="white"/>
<stop offset="1" stop-color="#47A3F7"/>
</linearGradient>
<linearGradient id="paint6_linear_2312_721" x1="231.516" y1="40.2875" x2="232.226" y2="40.2876" gradientUnits="userSpaceOnUse">
<stop stop-color="white"/>
<stop offset="1" stop-color="#47A3F7"/>
</linearGradient>
<linearGradient id="paint7_linear_2312_721" x1="233.909" y1="56.8028" x2="234.643" y2="56.8028" gradientUnits="userSpaceOnUse">
<stop stop-color="white"/>
<stop offset="1" stop-color="#47A3F7"/>
</linearGradient>
<linearGradient id="paint8_linear_2312_721" x1="239.039" y1="88.2773" x2="239.75" y2="88.2773" gradientUnits="userSpaceOnUse">
<stop stop-color="white"/>
<stop offset="1" stop-color="#47A3F7"/>
</linearGradient>
<linearGradient id="paint9_linear_2312_721" x1="235.388" y1="83.2542" x2="236.143" y2="83.2543" gradientUnits="userSpaceOnUse">
<stop stop-color="white"/>
<stop offset="1" stop-color="#47A3F7"/>
</linearGradient>
<linearGradient id="paint10_linear_2312_721" x1="214.284" y1="55.797" x2="223.358" y2="55.7976" gradientUnits="userSpaceOnUse">
<stop stop-color="white"/>
<stop offset="1" stop-color="#47A3F7"/>
</linearGradient>
<linearGradient id="paint11_linear_2312_721" x1="192.187" y1="67.0295" x2="196.709" y2="67.0298" gradientUnits="userSpaceOnUse">
<stop stop-color="white"/>
<stop offset="1" stop-color="#47A3F7"/>
</linearGradient>
<linearGradient id="paint12_linear_2312_721" x1="235.948" y1="66.9753" x2="240.471" y2="66.9756" gradientUnits="userSpaceOnUse">
<stop stop-color="white"/>
<stop offset="1" stop-color="#47A3F7"/>
</linearGradient>
<linearGradient id="paint13_linear_2312_721" x1="218.396" y1="27.1602" x2="222.918" y2="27.1606" gradientUnits="userSpaceOnUse">
<stop stop-color="white"/>
<stop offset="1" stop-color="#47A3F7"/>
</linearGradient>
<linearGradient id="paint14_linear_2312_721" x1="187.835" y1="44.4489" x2="192.357" y2="44.4492" gradientUnits="userSpaceOnUse">
<stop stop-color="white"/>
<stop offset="1" stop-color="#47A3F7"/>
</linearGradient>
<linearGradient id="paint15_linear_2312_721" x1="227.09" y1="87.317" x2="229.757" y2="87.3171" gradientUnits="userSpaceOnUse">
<stop stop-color="white"/>
<stop offset="1" stop-color="#47A3F7"/>
</linearGradient>
<linearGradient id="paint16_linear_2312_721" x1="224.372" y1="47.198" x2="227.004" y2="47.1982" gradientUnits="userSpaceOnUse">
<stop stop-color="white"/>
<stop offset="1" stop-color="#47A3F7"/>
</linearGradient>
<linearGradient id="paint17_linear_2312_721" x1="207.04" y1="46.9704" x2="208.837" y2="46.9706" gradientUnits="userSpaceOnUse">
<stop stop-color="white"/>
<stop offset="1" stop-color="#47A3F7"/>
</linearGradient>
<linearGradient id="paint18_linear_2312_721" x1="203.508" y1="46.5546" x2="206.123" y2="46.5547" gradientUnits="userSpaceOnUse">
<stop stop-color="white"/>
<stop offset="1" stop-color="#47A3F7"/>
</linearGradient>
<linearGradient id="paint19_linear_2312_721" x1="204.012" y1="50.2978" x2="205.539" y2="50.2979" gradientUnits="userSpaceOnUse">
<stop stop-color="white"/>
<stop offset="1" stop-color="#47A3F7"/>
</linearGradient>
<linearGradient id="paint20_linear_2312_721" x1="217.082" y1="73.0165" x2="218.919" y2="73.0166" gradientUnits="userSpaceOnUse">
<stop stop-color="white"/>
<stop offset="1" stop-color="#47A3F7"/>
</linearGradient>
<linearGradient id="paint21_linear_2312_721" x1="220.815" y1="73.5057" x2="225.396" y2="73.506" gradientUnits="userSpaceOnUse">
<stop stop-color="white"/>
<stop offset="1" stop-color="#47A3F7"/>
</linearGradient>
<radialGradient id="paint22_radial_2312_721" cx="0" cy="0" r="1" gradientUnits="userSpaceOnUse" gradientTransform="translate(84.9529 168.566) rotate(16.7529) scale(40.1603 40.1454)">
<stop stop-color="#C0BFF6"/>
<stop offset="1" stop-color="#393091"/>
</radialGradient>
<linearGradient id="paint23_linear_2312_721" x1="75.7286" y1="161.524" x2="75.7286" y2="199.729" gradientUnits="userSpaceOnUse">
<stop stop-color="#49A8FF"/>
<stop offset="1" stop-color="white"/>
</linearGradient>
<radialGradient id="paint24_radial_2312_721" cx="0" cy="0" r="1" gradientUnits="userSpaceOnUse" gradientTransform="translate(99.3902 159.786) rotate(-95.1451) scale(26.1547 26.1662)">
<stop stop-color="#42E8E0"/>
<stop offset="0.11" stop-color="#37B6BF"/>
<stop offset="0.22" stop-color="#2C87A1"/>
<stop offset="0.34" stop-color="#235F87"/>
<stop offset="0.46" stop-color="#1C3F72"/>
<stop offset="0.58" stop-color="#162561"/>
<stop offset="0.71" stop-color="#121355"/>
<stop offset="0.85" stop-color="#10084E"/>
<stop offset="1" stop-color="#0F054C"/>
</radialGradient>
<linearGradient id="paint25_linear_2312_721" x1="71.1211" y1="167.549" x2="86.4627" y2="167.55" gradientUnits="userSpaceOnUse">
<stop stop-color="white"/>
<stop offset="1" stop-color="#47A3F7"/>
</linearGradient>
<linearGradient id="paint26_linear_2312_721" x1="87.2617" y1="159.543" x2="89.349" y2="159.543" gradientUnits="userSpaceOnUse">
<stop stop-color="white"/>
<stop offset="1" stop-color="#47A3F7"/>
</linearGradient>
<linearGradient id="paint27_linear_2312_721" x1="75.0225" y1="153.48" x2="80.2701" y2="153.481" gradientUnits="userSpaceOnUse">
<stop stop-color="white"/>
<stop offset="1" stop-color="#47A3F7"/>
</linearGradient>
<linearGradient id="paint28_linear_2312_721" x1="92.4424" y1="145.883" x2="95.3414" y2="145.883" gradientUnits="userSpaceOnUse">
<stop stop-color="white"/>
<stop offset="1" stop-color="#47A3F7"/>
</linearGradient>
<linearGradient id="paint29_linear_2312_721" x1="86.5615" y1="146.674" x2="88.5912" y2="146.674" gradientUnits="userSpaceOnUse">
<stop stop-color="white"/>
<stop offset="1" stop-color="#47A3F7"/>
</linearGradient>
<linearGradient id="paint30_linear_2312_721" x1="88.1436" y1="143.906" x2="89.6057" y2="143.906" gradientUnits="userSpaceOnUse">
<stop stop-color="white"/>
<stop offset="1" stop-color="#47A3F7"/>
</linearGradient>
<linearGradient id="paint31_linear_2312_721" x1="78.2236" y1="165.451" x2="81.1236" y2="165.451" gradientUnits="userSpaceOnUse">
<stop stop-color="white"/>
<stop offset="1" stop-color="#47A3F7"/>
</linearGradient>
<linearGradient id="paint32_linear_2312_721" x1="82.1719" y1="165.729" x2="86.5494" y2="165.73" gradientUnits="userSpaceOnUse">
<stop stop-color="white"/>
<stop offset="1" stop-color="#47A3F7"/>
</linearGradient>
<radialGradient id="paint33_radial_2312_721" cx="0" cy="0" r="1" gradientUnits="userSpaceOnUse" gradientTransform="translate(211.948 63.7464) rotate(11.2375) scale(123.072 123.022)">
<stop stop-color="#C0BFF6"/>
<stop offset="1" stop-color="#393091"/>
</radialGradient>
<linearGradient id="paint34_linear_2312_721" x1="103.66" y1="155.494" x2="126.487" y2="119.46" gradientUnits="userSpaceOnUse">
<stop stop-color="#706EC4"/>
<stop offset="0.02" stop-color="#6D6BC2"/>
<stop offset="0.25" stop-color="#5651AC"/>
<stop offset="0.49" stop-color="#463F9D"/>
<stop offset="0.73" stop-color="#3C3494"/>
<stop offset="1" stop-color="#393091"/>
</linearGradient>
<radialGradient id="paint35_radial_2312_721" cx="0" cy="0" r="1" gradientUnits="userSpaceOnUse" gradientTransform="translate(196.181 160.424) scale(94.7289 128.677)">
<stop stop-color="#C0BFF6"/>
<stop offset="1" stop-color="#393091"/>
</radialGradient>
<linearGradient id="paint36_linear_2312_721" x1="160.867" y1="117.694" x2="160.867" y2="246.204" gradientUnits="userSpaceOnUse">
<stop stop-color="#49A8FF"/>
<stop offset="1" stop-color="white"/>
</linearGradient>
<radialGradient id="paint37_radial_2312_721" cx="0" cy="0" r="1" gradientUnits="userSpaceOnUse" gradientTransform="translate(159.409 160.706) scale(73.1414 73.1087)">
<stop stop-color="#42E8E0"/>
<stop offset="0.11" stop-color="#37B6BF"/>
<stop offset="0.22" stop-color="#2C87A1"/>
<stop offset="0.34" stop-color="#235F87"/>
<stop offset="0.46" stop-color="#1C3F72"/>
<stop offset="0.58" stop-color="#162561"/>
<stop offset="0.71" stop-color="#121355"/>
<stop offset="0.85" stop-color="#10084E"/>
<stop offset="1" stop-color="#0F054C"/>
</radialGradient>
<linearGradient id="paint38_linear_2312_721" x1="123.348" y1="130.498" x2="193.48" y2="130.513" gradientUnits="userSpaceOnUse">
<stop stop-color="white"/>
<stop offset="1" stop-color="#47A3F7"/>
</linearGradient>
<linearGradient id="paint39_linear_2312_721" x1="106.978" y1="88.2179" x2="219.133" y2="88.2179" gradientUnits="userSpaceOnUse">
<stop stop-color="white"/>
<stop offset="1" stop-color="#3CADFF"/>
</linearGradient>
<radialGradient id="paint40_radial_2312_721" cx="0" cy="0" r="1" gradientUnits="userSpaceOnUse" gradientTransform="translate(145.586 93.3813) scale(46.553 46.5322)">
<stop stop-color="#42E8E0"/>
<stop offset="0.06" stop-color="#3CCBCD"/>
<stop offset="0.18" stop-color="#3098AC"/>
<stop offset="0.3" stop-color="#266B8F"/>
<stop offset="0.42" stop-color="#1E4777"/>
<stop offset="0.54" stop-color="#172A65"/>
<stop offset="0.66" stop-color="#131657"/>
<stop offset="0.78" stop-color="#100A50"/>
<stop offset="0.9" stop-color="#0F064D"/>
<stop offset="1" stop-color="#0F054C"/>
</radialGradient>
<linearGradient id="paint41_linear_2312_721" x1="126.59" y1="100.777" x2="137.524" y2="100.778" gradientUnits="userSpaceOnUse">
<stop stop-color="white"/>
<stop offset="1" stop-color="#47A3F7"/>
</linearGradient>
<linearGradient id="paint42_linear_2312_721" x1="113.344" y1="102.562" x2="138.994" y2="102.563" gradientUnits="userSpaceOnUse">
<stop stop-color="white"/>
<stop offset="1" stop-color="#47A3F7"/>
</linearGradient>
<linearGradient id="paint43_linear_2312_721" x1="113.344" y1="102.855" x2="138.022" y2="102.856" gradientUnits="userSpaceOnUse">
<stop stop-color="white"/>
<stop offset="1" stop-color="#47A3F7"/>
</linearGradient>
<radialGradient id="paint44_radial_2312_721" cx="0" cy="0" r="1" gradientUnits="userSpaceOnUse" gradientTransform="translate(233.917 171.755) rotate(11.1951) scale(44.427 44.4086)">
<stop stop-color="#C0BFF6"/>
<stop offset="1" stop-color="#393091"/>
</radialGradient>
<radialGradient id="paint45_radial_2312_721" cx="0" cy="0" r="1" gradientUnits="userSpaceOnUse" gradientTransform="translate(228.378 188.105) scale(39.6809 39.6632)">
<stop stop-color="#42E8E0"/>
<stop offset="0.11" stop-color="#37B6BF"/>
<stop offset="0.22" stop-color="#2C87A1"/>
<stop offset="0.34" stop-color="#235F87"/>
<stop offset="0.46" stop-color="#1C3F72"/>
<stop offset="0.58" stop-color="#162561"/>
<stop offset="0.71" stop-color="#121355"/>
<stop offset="0.85" stop-color="#10084E"/>
<stop offset="1" stop-color="#0F054C"/>
</radialGradient>
<linearGradient id="paint46_linear_2312_721" x1="224.189" y1="191.458" x2="240.613" y2="191.459" gradientUnits="userSpaceOnUse">
<stop stop-color="white"/>
<stop offset="1" stop-color="#47A3F7"/>
</linearGradient>
<radialGradient id="paint47_radial_2312_721" cx="0" cy="0" r="1" gradientUnits="userSpaceOnUse" gradientTransform="translate(196.438 76.3469) scale(37.4006 47.8514)">
<stop stop-color="#2B237C"/>
<stop offset="0.31" stop-color="#251C72"/>
<stop offset="1" stop-color="#0F054C"/>
</radialGradient>
<linearGradient id="paint48_linear_2312_721" x1="192.124" y1="102.878" x2="193.819" y2="102.878" gradientUnits="userSpaceOnUse">
<stop stop-color="white"/>
<stop offset="1" stop-color="#47A3F7"/>
</linearGradient>
<linearGradient id="paint49_linear_2312_721" x1="195.987" y1="97.9548" x2="197.682" y2="97.9549" gradientUnits="userSpaceOnUse">
<stop stop-color="white"/>
<stop offset="1" stop-color="#47A3F7"/>
</linearGradient>
<linearGradient id="paint50_linear_2312_721" x1="199.85" y1="98.4123" x2="201.544" y2="98.4124" gradientUnits="userSpaceOnUse">
<stop stop-color="white"/>
<stop offset="1" stop-color="#47A3F7"/>
</linearGradient>
<linearGradient id="paint51_linear_2312_721" x1="199.85" y1="103.932" x2="201.544" y2="103.932" gradientUnits="userSpaceOnUse">
<stop stop-color="white"/>
<stop offset="1" stop-color="#47A3F7"/>
</linearGradient>
<linearGradient id="paint52_linear_2312_721" x1="197.523" y1="108.165" x2="199.218" y2="108.165" gradientUnits="userSpaceOnUse">
<stop stop-color="white"/>
<stop offset="1" stop-color="#47A3F7"/>
</linearGradient>
<linearGradient id="paint53_linear_2312_721" x1="203.837" y1="101.63" x2="205.531" y2="101.63" gradientUnits="userSpaceOnUse">
<stop stop-color="white"/>
<stop offset="1" stop-color="#47A3F7"/>
</linearGradient>
<linearGradient id="paint54_linear_2312_721" x1="217.714" y1="97.4128" x2="217.714" y2="133.851" gradientUnits="userSpaceOnUse">
<stop stop-color="#49A8FF"/>
<stop offset="1" stop-color="white"/>
</linearGradient>
<linearGradient id="paint55_linear_2312_721" x1="208.661" y1="116.267" x2="228.982" y2="116.267" gradientUnits="userSpaceOnUse">
<stop stop-color="white"/>
<stop offset="1" stop-color="#3CADFF"/>
</linearGradient>
<linearGradient id="paint56_linear_2312_721" x1="225.976" y1="34.0339" x2="229.396" y2="34.0341" gradientUnits="userSpaceOnUse">
<stop stop-color="white"/>
<stop offset="1" stop-color="#47A3F7"/>
</linearGradient>
<linearGradient id="paint57_linear_2312_721" x1="218.355" y1="46.0119" x2="227.589" y2="46.0122" gradientUnits="userSpaceOnUse">
<stop stop-color="white"/>
<stop offset="1" stop-color="#47A3F7"/>
</linearGradient>
<radialGradient id="paint58_radial_2312_721" cx="0" cy="0" r="1" gradientUnits="userSpaceOnUse" gradientTransform="translate(231.254 234.191) rotate(16.7529) scale(40.1603 40.1454)">
<stop stop-color="#C0BFF6"/>
<stop offset="1" stop-color="#393091"/>
</radialGradient>
<linearGradient id="paint59_linear_2312_721" x1="221.994" y1="227.477" x2="221.994" y2="265.37" gradientUnits="userSpaceOnUse">
<stop stop-color="#49A8FF"/>
<stop offset="1" stop-color="white"/>
</linearGradient>
<radialGradient id="paint60_radial_2312_721" cx="0" cy="0" r="1" gradientUnits="userSpaceOnUse" gradientTransform="translate(246.323 225.568) rotate(-95.1451) scale(26.1547 26.1662)">
<stop stop-color="#42E8E0"/>
<stop offset="0.11" stop-color="#37B6BF"/>
<stop offset="0.22" stop-color="#2C87A1"/>
<stop offset="0.34" stop-color="#235F87"/>
<stop offset="0.46" stop-color="#1C3F72"/>
<stop offset="0.58" stop-color="#162561"/>
<stop offset="0.71" stop-color="#121355"/>
<stop offset="0.85" stop-color="#10084E"/>
<stop offset="1" stop-color="#0F054C"/>
</radialGradient>
<linearGradient id="paint61_linear_2312_721" x1="217.422" y1="233.144" x2="232.777" y2="233.145" gradientUnits="userSpaceOnUse">
<stop stop-color="white"/>
<stop offset="1" stop-color="#47A3F7"/>
</linearGradient>
<linearGradient id="paint62_linear_2312_721" x1="230.763" y1="218.108" x2="232.809" y2="218.108" gradientUnits="userSpaceOnUse">
<stop stop-color="white"/>
<stop offset="1" stop-color="#47A3F7"/>
</linearGradient>
<linearGradient id="paint63_linear_2312_721" x1="240.835" y1="215.009" x2="246.082" y2="215.01" gradientUnits="userSpaceOnUse">
<stop stop-color="white"/>
<stop offset="1" stop-color="#47A3F7"/>
</linearGradient>
<linearGradient id="paint64_linear_2312_721" x1="235.87" y1="231.706" x2="238.813" y2="231.707" gradientUnits="userSpaceOnUse">
<stop stop-color="white"/>
<stop offset="1" stop-color="#47A3F7"/>
</linearGradient>
<linearGradient id="paint65_linear_2312_721" x1="240.147" y1="226.682" x2="242.318" y2="226.682" gradientUnits="userSpaceOnUse">
<stop stop-color="white"/>
<stop offset="1" stop-color="#47A3F7"/>
</linearGradient>
<linearGradient id="paint66_linear_2312_721" x1="241.742" y1="229.598" x2="243.104" y2="229.598" gradientUnits="userSpaceOnUse">
<stop stop-color="white"/>
<stop offset="1" stop-color="#47A3F7"/>
</linearGradient>
<linearGradient id="paint67_linear_2312_721" x1="232.263" y1="207.876" x2="235.162" y2="207.876" gradientUnits="userSpaceOnUse">
<stop stop-color="white"/>
<stop offset="1" stop-color="#47A3F7"/>
</linearGradient>
<linearGradient id="paint68_linear_2312_721" x1="228.028" y1="210.953" x2="232.371" y2="210.953" gradientUnits="userSpaceOnUse">
<stop stop-color="white"/>
<stop offset="1" stop-color="#47A3F7"/>
</linearGradient>
<linearGradient id="paint69_linear_2312_721" x1="54.9492" y1="117.136" x2="185.626" y2="117.136" gradientUnits="userSpaceOnUse">
<stop stop-color="#BCBEFF"/>
<stop offset="0.17" stop-color="#B6B8FC"/>
<stop offset="0.4" stop-color="#A4A8F5"/>
<stop offset="0.66" stop-color="#868DEA"/>
<stop offset="0.96" stop-color="#5E67DA"/>
<stop offset="1" stop-color="#5761D7"/>
</linearGradient>
<linearGradient id="paint70_linear_2312_721" x1="54.9492" y1="117.136" x2="177.057" y2="117.141" gradientUnits="userSpaceOnUse">
<stop stop-color="white"/>
<stop offset="1" stop-color="#47A3F7"/>
</linearGradient>
<linearGradient id="paint71_linear_2312_721" x1="61.7275" y1="117.159" x2="171.167" y2="117.163" gradientUnits="userSpaceOnUse">
<stop stop-color="white"/>
<stop offset="1" stop-color="#47A3F7"/>
</linearGradient>
<linearGradient id="paint72_linear_2312_721" x1="85.7393" y1="70.3478" x2="96.0889" y2="70.3487" gradientUnits="userSpaceOnUse">
<stop stop-color="white"/>
<stop offset="1" stop-color="#47A3F7"/>
</linearGradient>
<linearGradient id="paint73_linear_2312_721" x1="100.709" y1="77.3873" x2="105.884" y2="77.3877" gradientUnits="userSpaceOnUse">
<stop stop-color="white"/>
<stop offset="1" stop-color="#47A3F7"/>
</linearGradient>
<linearGradient id="paint74_linear_2312_721" x1="95.3564" y1="80.5815" x2="99.763" y2="80.5818" gradientUnits="userSpaceOnUse">
<stop stop-color="white"/>
<stop offset="1" stop-color="#47A3F7"/>
</linearGradient>
<linearGradient id="paint75_linear_2312_721" x1="102.43" y1="84.9075" x2="107.604" y2="84.9078" gradientUnits="userSpaceOnUse">
<stop stop-color="white"/>
<stop offset="1" stop-color="#47A3F7"/>
</linearGradient>
<linearGradient id="paint76_linear_2312_721" x1="95.3564" y1="92.0246" x2="115.664" y2="92.0265" gradientUnits="userSpaceOnUse">
<stop stop-color="white"/>
<stop offset="1" stop-color="#47A3F7"/>
</linearGradient>
<linearGradient id="paint77_linear_2312_721" x1="95.3564" y1="93.6372" x2="99.763" y2="93.6374" gradientUnits="userSpaceOnUse">
<stop stop-color="white"/>
<stop offset="1" stop-color="#47A3F7"/>
</linearGradient>
<linearGradient id="paint78_linear_2312_721" x1="102.43" y1="97.9633" x2="107.604" y2="97.9636" gradientUnits="userSpaceOnUse">
<stop stop-color="white"/>
<stop offset="1" stop-color="#47A3F7"/>
</linearGradient>
<linearGradient id="paint79_linear_2312_721" x1="95.3564" y1="102.258" x2="106.518" y2="102.259" gradientUnits="userSpaceOnUse">
<stop stop-color="white"/>
<stop offset="1" stop-color="#47A3F7"/>
</linearGradient>
<linearGradient id="paint80_linear_2312_721" x1="109.769" y1="108.724" x2="114.943" y2="108.724" gradientUnits="userSpaceOnUse">
<stop stop-color="white"/>
<stop offset="1" stop-color="#47A3F7"/>
</linearGradient>
<linearGradient id="paint81_linear_2312_721" x1="117.819" y1="113.368" x2="122.98" y2="113.368" gradientUnits="userSpaceOnUse">
<stop stop-color="white"/>
<stop offset="1" stop-color="#47A3F7"/>
</linearGradient>
<linearGradient id="paint82_linear_2312_721" x1="125.855" y1="119.423" x2="135.64" y2="119.424" gradientUnits="userSpaceOnUse">
<stop stop-color="white"/>
<stop offset="1" stop-color="#47A3F7"/>
</linearGradient>
<linearGradient id="paint83_linear_2312_721" x1="124.52" y1="130.285" x2="129.68" y2="130.285" gradientUnits="userSpaceOnUse">
<stop stop-color="white"/>
<stop offset="1" stop-color="#47A3F7"/>
</linearGradient>
<linearGradient id="paint84_linear_2312_721" x1="132.556" y1="136.355" x2="142.34" y2="136.356" gradientUnits="userSpaceOnUse">
<stop stop-color="white"/>
<stop offset="1" stop-color="#47A3F7"/>
</linearGradient>
<linearGradient id="paint85_linear_2312_721" x1="95.3564" y1="113.461" x2="100.531" y2="113.461" gradientUnits="userSpaceOnUse">
<stop stop-color="white"/>
<stop offset="1" stop-color="#47A3F7"/>
</linearGradient>
<linearGradient id="paint86_linear_2312_721" x1="103.393" y1="118.097" x2="108.567" y2="118.098" gradientUnits="userSpaceOnUse">
<stop stop-color="white"/>
<stop offset="1" stop-color="#47A3F7"/>
</linearGradient>
<linearGradient id="paint87_linear_2312_721" x1="111.444" y1="124.168" x2="121.214" y2="124.168" gradientUnits="userSpaceOnUse">
<stop stop-color="white"/>
<stop offset="1" stop-color="#47A3F7"/>
</linearGradient>
<linearGradient id="paint88_linear_2312_721" x1="132.369" y1="128.292" x2="137.544" y2="128.292" gradientUnits="userSpaceOnUse">
<stop stop-color="white"/>
<stop offset="1" stop-color="#47A3F7"/>
</linearGradient>
<linearGradient id="paint89_linear_2312_721" x1="140.404" y1="132.928" x2="145.579" y2="132.929" gradientUnits="userSpaceOnUse">
<stop stop-color="white"/>
<stop offset="1" stop-color="#47A3F7"/>
</linearGradient>
<linearGradient id="paint90_linear_2312_721" x1="148.44" y1="138.991" x2="158.225" y2="138.992" gradientUnits="userSpaceOnUse">
<stop stop-color="white"/>
<stop offset="1" stop-color="#47A3F7"/>
</linearGradient>
<linearGradient id="paint91_linear_2312_721" x1="95.3564" y1="126.517" x2="100.531" y2="126.517" gradientUnits="userSpaceOnUse">
<stop stop-color="white"/>
<stop offset="1" stop-color="#47A3F7"/>
</linearGradient>
<linearGradient id="paint92_linear_2312_721" x1="103.393" y1="132.572" x2="113.177" y2="132.572" gradientUnits="userSpaceOnUse">
<stop stop-color="white"/>
<stop offset="1" stop-color="#47A3F7"/>
</linearGradient>
<linearGradient id="paint93_linear_2312_721" x1="128.104" y1="106.243" x2="133.264" y2="106.244" gradientUnits="userSpaceOnUse">
<stop stop-color="white"/>
<stop offset="1" stop-color="#47A3F7"/>
</linearGradient>
<linearGradient id="paint94_linear_2312_721" x1="119.728" y1="101.421" x2="124.902" y2="101.421" gradientUnits="userSpaceOnUse">
<stop stop-color="white"/>
<stop offset="1" stop-color="#47A3F7"/>
</linearGradient>
<linearGradient id="paint95_linear_2312_721" x1="136.14" y1="112.306" x2="145.909" y2="112.307" gradientUnits="userSpaceOnUse">
<stop stop-color="white"/>
<stop offset="1" stop-color="#47A3F7"/>
</linearGradient>
<linearGradient id="paint96_linear_2312_721" x1="95.3564" y1="106.778" x2="100.024" y2="106.778" gradientUnits="userSpaceOnUse">
<stop stop-color="white"/>
<stop offset="1" stop-color="#47A3F7"/>
</linearGradient>
<linearGradient id="paint97_linear_2312_721" x1="103.02" y1="113.252" x2="114.355" y2="113.253" gradientUnits="userSpaceOnUse">
<stop stop-color="white"/>
<stop offset="1" stop-color="#47A3F7"/>
</linearGradient>
<linearGradient id="paint98_linear_2312_721" x1="117.819" y1="121.795" x2="129.155" y2="121.796" gradientUnits="userSpaceOnUse">
<stop stop-color="white"/>
<stop offset="1" stop-color="#47A3F7"/>
</linearGradient>
<linearGradient id="paint99_linear_2312_721" x1="149.295" y1="118.322" x2="153.962" y2="118.322" gradientUnits="userSpaceOnUse">
<stop stop-color="white"/>
<stop offset="1" stop-color="#47A3F7"/>
</linearGradient>
<linearGradient id="paint100_linear_2312_721" x1="95.4658" y1="121.95" x2="106.801" y2="121.951" gradientUnits="userSpaceOnUse">
<stop stop-color="white"/>
<stop offset="1" stop-color="#47A3F7"/>
</linearGradient>
<linearGradient id="paint101_linear_2312_721" x1="110.264" y1="128.067" x2="113.743" y2="128.067" gradientUnits="userSpaceOnUse">
<stop stop-color="white"/>
<stop offset="1" stop-color="#47A3F7"/>
</linearGradient>
<linearGradient id="paint102_linear_2312_721" x1="116.672" y1="131.765" x2="120.151" y2="131.765" gradientUnits="userSpaceOnUse">
<stop stop-color="white"/>
<stop offset="1" stop-color="#47A3F7"/>
</linearGradient>
<linearGradient id="paint103_linear_2312_721" x1="123.077" y1="137.037" x2="131.644" y2="137.038" gradientUnits="userSpaceOnUse">
<stop stop-color="white"/>
<stop offset="1" stop-color="#47A3F7"/>
</linearGradient>
<linearGradient id="paint104_linear_2312_721" x1="125.56" y1="138.471" x2="134.126" y2="138.472" gradientUnits="userSpaceOnUse">
<stop stop-color="white"/>
<stop offset="1" stop-color="#47A3F7"/>
</linearGradient>
<linearGradient id="paint105_linear_2312_721" x1="138.776" y1="124.943" x2="142.255" y2="124.943" gradientUnits="userSpaceOnUse">
<stop stop-color="white"/>
<stop offset="1" stop-color="#47A3F7"/>
</linearGradient>
<linearGradient id="paint106_linear_2312_721" x1="145.184" y1="130.207" x2="153.75" y2="130.208" gradientUnits="userSpaceOnUse">
<stop stop-color="white"/>
<stop offset="1" stop-color="#47A3F7"/>
</linearGradient>
<linearGradient id="paint107_linear_2312_721" x1="85.8486" y1="127.036" x2="89.3275" y2="127.036" gradientUnits="userSpaceOnUse">
<stop stop-color="white"/>
<stop offset="1" stop-color="#47A3F7"/>
</linearGradient>
<linearGradient id="paint108_linear_2312_721" x1="92.2539" y1="132.308" x2="100.821" y2="132.309" gradientUnits="userSpaceOnUse">
<stop stop-color="white"/>
<stop offset="1" stop-color="#47A3F7"/>
</linearGradient>
<linearGradient id="paint109_linear_2312_721" x1="104.37" y1="139.285" x2="112.922" y2="139.286" gradientUnits="userSpaceOnUse">
<stop stop-color="white"/>
<stop offset="1" stop-color="#47A3F7"/>
</linearGradient>
</defs>
</svg>
