<svg width="341" height="234" viewBox="0 0 341 234" fill="none" xmlns="http://www.w3.org/2000/svg">
<path d="M52.0575 125.105C50.7272 125.105 49.4193 124.756 48.2736 124.095L4.70461 98.9394C4.01892 98.5429 3.60938 97.8339 3.60938 97.0428C3.60938 96.2516 4.01892 95.5435 4.70368 95.1471L83.536 49.6338C83.6712 49.5555 83.8382 49.5555 83.9726 49.6338L84.3392 49.8447L131.108 76.8461C131.793 77.2416 132.202 77.9506 132.202 78.7427C132.202 79.5347 131.793 80.2428 131.108 80.6384L55.8405 124.095C54.6958 124.756 53.3869 125.105 52.0575 125.105ZM83.7561 50.5192L5.14215 95.9065C4.73074 96.1444 4.48538 96.5698 4.48538 97.0446C4.48538 97.5195 4.73074 97.9449 5.14309 98.1828L48.7112 123.338C50.7365 124.507 53.3785 124.507 55.4039 123.338L130.672 79.8818C131.082 79.6448 131.327 79.2194 131.327 78.7445C131.327 78.2688 131.082 77.8433 130.671 77.6055L83.7561 50.5192Z" fill="white"/>
<path d="M136.758 64.6278L132.185 67.0161L86.3258 40.539C85.559 40.0959 84.2184 40.1519 83.3321 40.6631L4.23768 86.3284C3.48109 85.9048 0.0292969 84.2452 0.0292969 84.2452L1.70389 88.6075L1.71041 88.6019C1.77945 88.7959 1.92871 88.9769 2.17874 89.1215L50.4776 117.007C51.2454 117.45 52.5851 117.394 53.4714 116.883L134.41 70.1535C134.774 69.9436 134.997 69.6889 135.089 69.4314L135.096 69.4351L136.758 64.6278Z" fill="#49A8FF"/>
<path d="M136.051 65.3797L53.0988 113.272C52.1911 113.796 50.8169 113.853 50.0314 113.399L0.530857 84.8197C-0.255591 84.3654 -0.156702 83.5724 0.751025 83.0491L83.7031 35.1569C84.6108 34.6326 85.985 34.5757 86.7705 35.03L136.271 63.609C137.057 64.0624 136.959 64.8554 136.051 65.3797Z" fill="url(#paint0_linear_2581_3173)"/>
<path d="M136.05 64.901L53.099 112.793C52.1913 113.317 50.8171 113.374 50.0316 112.92L0.531107 84.3411C0.273623 84.1928 0.120625 84.0062 0.0506564 83.8056C-0.0734213 84.1779 0.0758446 84.5557 0.531107 84.8188L50.0316 113.398C50.818 113.852 52.1913 113.795 53.099 113.271L136.05 65.3787C136.661 65.026 136.896 64.5531 136.751 64.1426C136.661 64.4131 136.432 64.6809 136.05 64.901Z" fill="white"/>
<path d="M28.0781 102.912V102.002C28.0781 101.916 28.1304 101.876 28.1957 101.914L31.404 103.766C31.4683 103.804 31.5215 103.904 31.5215 103.99V104.9C31.5215 104.986 31.4693 105.026 31.404 104.989L28.1957 103.136C28.1304 103.098 28.0781 102.998 28.0781 102.912Z" fill="#2842A2"/>
<path d="M32.877 105.682V104.772C32.877 104.686 32.9292 104.646 32.9945 104.683L36.2028 106.536C36.2672 106.573 36.3203 106.673 36.3203 106.76V107.67C36.3203 107.755 36.2681 107.796 36.2028 107.758L32.9945 105.906C32.9292 105.868 32.877 105.768 32.877 105.682Z" fill="#2842A2"/>
<path d="M28.4393 91.3166L97.3724 51.5184C97.8323 51.2535 98.3986 51.2535 98.8576 51.5193L123.404 65.7211C123.757 65.9254 123.757 66.4339 123.404 66.6372L54.5031 106.417C54.0441 106.682 53.4787 106.682 53.0198 106.417L28.4393 92.2336C28.0866 92.0293 28.0866 91.52 28.4393 91.3166Z" fill="#D3EAFF"/>
<path d="M28.4393 92.2336L28.6865 92.3764L97.3724 52.72C97.8323 52.4551 98.3986 52.4551 98.8576 52.721L123.157 66.78L123.404 66.6372C123.756 66.4339 123.756 65.9245 123.404 65.7211L98.8576 51.5193C98.3986 51.2535 97.8323 51.2535 97.3724 51.5184L28.4393 91.3166C28.0866 91.52 28.0866 92.0293 28.4393 92.2336Z" fill="#3C88AB"/>
<path d="M100.709 55.1158L37.2131 91.7747L34.0654 90.5181L98.0466 53.5784L100.709 55.1158Z" fill="#24126A"/>
<path d="M107.236 58.8839L51.0727 91.3102L48.4102 89.7727L104.574 57.3474L107.236 58.8839Z" fill="#24126A"/>
<path d="M111.487 61.3384L45.3608 99.5161L42.6992 97.9796L108.825 59.8019L111.487 61.3384Z" fill="#24126A"/>
<path d="M115.738 63.7929L49.6118 101.971L46.9502 100.434L113.076 62.2563L115.738 63.7929Z" fill="#24126A"/>
<path d="M119.99 66.2475L53.8638 104.425L51.2021 102.889L117.328 64.7109L119.99 66.2475Z" fill="#24126A"/>
<path d="M37.2128 91.7748L34.5512 93.3122L31.8887 91.7748L34.5503 90.2383L37.2128 91.7748Z" fill="#24126A"/>
<path d="M54.3026 89.4453L41.0776 97.0803L38.415 95.5437L51.7361 87.8528L54.3026 89.4453Z" fill="#24126A"/>
<path d="M52.9797 73.4812L71.5661 62.7499C72.2929 62.33 72.2929 61.6509 71.5661 61.2311L58.8561 53.8928C58.1294 53.4729 56.952 53.4739 56.2253 53.8928L37.6388 64.6241C36.9121 65.0439 36.9121 65.7231 37.6388 66.1429L50.3488 73.4812C51.0746 73.901 52.2529 73.901 52.9797 73.4812Z" fill="url(#paint1_linear_2581_3173)"/>
<path d="M37.6385 65.2454L56.225 54.5141C56.9518 54.0943 58.1291 54.0943 58.8558 54.5141L71.5659 61.8524C71.7898 61.9821 71.9363 62.1369 72.0221 62.3011C72.2143 61.9345 72.0678 61.5212 71.5659 61.2311L58.8558 53.8928C58.1291 53.4729 56.9518 53.4739 56.225 53.8928L37.6385 64.6241C37.1366 64.9142 36.9902 65.3275 37.1814 65.6941C37.2672 65.5309 37.4137 65.3751 37.6385 65.2454Z" fill="#3C88AB"/>
<path d="M136.626 63.3972L126.14 1.18577L126.983 0.830332L125.716 0.104524L125.718 0.111983C125.473 -0.0512769 125.125 -0.0419491 124.741 0.179152L40.9374 48.563C40.2489 48.9604 39.7284 49.9791 39.8496 50.6919L50.4186 113.398C50.4746 113.724 50.636 113.941 50.8599 114.036H50.859L52.0988 114.752L52.3115 113.595L52.2406 113.616L135.537 65.5252C136.226 65.1287 136.747 64.11 136.626 63.3972Z" fill="url(#paint2_linear_2581_3173)"/>
<path d="M41.4051 50.2646L40.0272 49.6554C39.8723 50.008 39.7968 50.3793 39.8499 50.6928L50.4189 113.399C50.4749 113.725 50.6354 113.942 50.8602 114.037H50.8593L52.0991 114.753L52.3118 113.596L52.2409 113.618L56.4558 111.185L41.4051 50.2646Z" fill="url(#paint3_linear_2581_3173)"/>
<path d="M136.852 66.2809L53.0485 114.665C52.4011 115.038 51.8479 114.822 51.734 114.153L41.165 51.4466C41.0438 50.7339 41.5653 49.7151 42.2528 49.3177L126.057 0.933899C126.704 0.560733 127.257 0.776232 127.371 1.44607L137.94 64.152C138.061 64.8647 137.541 65.8835 136.852 66.2809Z" fill="#003B72"/>
<path d="M288.428 125.105C287.099 125.105 285.79 124.756 284.644 124.095L209.377 80.6384C208.692 80.2428 208.283 79.5338 208.283 78.7427C208.283 77.9506 208.692 77.2416 209.377 76.8461L256.511 49.6338C256.647 49.5555 256.813 49.5555 256.949 49.6338L335.781 95.1471C336.467 95.5435 336.875 96.2526 336.875 97.0428C336.875 97.8339 336.466 98.5429 335.781 98.9394L292.211 124.095C291.066 124.756 289.758 125.105 288.428 125.105ZM285.081 123.337C287.106 124.506 289.749 124.506 291.774 123.337L335.343 98.1818C335.753 97.9439 335.999 97.5185 335.999 97.0437C335.999 96.5688 335.754 96.1434 335.343 95.9055L256.729 50.5182L256.582 50.6031L209.814 77.6045C209.404 77.8415 209.157 78.2678 209.157 78.7436C209.157 79.2185 209.403 79.6439 209.814 79.8808L285.081 123.337Z" fill="white"/>
<path d="M203.727 64.6278L208.3 67.0161L254.159 40.539C254.926 40.0959 256.266 40.1519 257.153 40.6631L336.247 86.3284C337.004 85.9048 340.455 84.2452 340.455 84.2452L338.78 88.6075L338.774 88.6019C338.704 88.7959 338.555 88.9769 338.305 89.1215L290.006 117.007C289.239 117.45 287.899 117.394 287.013 116.883L206.074 70.1535C205.71 69.9436 205.487 69.6889 205.395 69.4314L205.388 69.4351L203.727 64.6278Z" fill="url(#paint4_linear_2581_3173)"/>
<path d="M204.434 65.3797L287.386 113.272C288.293 113.796 289.667 113.853 290.453 113.399L339.954 84.8197C340.74 84.3654 340.641 83.5724 339.733 83.0491L256.781 35.1569C255.874 34.6326 254.499 34.5757 253.714 35.03L204.213 63.609C203.427 64.0624 203.526 64.8554 204.434 65.3797Z" fill="url(#paint5_linear_2581_3173)"/>
<path d="M204.433 64.901L287.385 112.793C288.293 113.317 289.666 113.374 290.452 112.92L339.953 84.3411C340.21 84.1928 340.363 84.0062 340.433 83.8056C340.557 84.1779 340.408 84.5557 339.953 84.8188L290.452 113.398C289.666 113.852 288.293 113.795 287.385 113.271L204.433 65.3787C203.822 65.026 203.587 64.5531 203.732 64.1426C203.822 64.4131 204.051 64.6809 204.433 64.901Z" fill="white"/>
<path d="M312.405 102.912V102.002C312.405 101.916 312.353 101.876 312.289 101.914L309.08 103.766C309.016 103.804 308.963 103.904 308.963 103.99V104.9C308.963 104.986 309.015 105.026 309.08 104.989L312.289 103.136C312.353 103.098 312.405 102.998 312.405 102.912Z" fill="#2842A2"/>
<path d="M307.607 105.682V104.772C307.607 104.686 307.555 104.646 307.491 104.683L304.283 106.536C304.218 106.573 304.165 106.673 304.165 106.76V107.67C304.165 107.755 304.217 107.796 304.283 107.758L307.491 105.906C307.555 105.868 307.607 105.768 307.607 105.682Z" fill="#2842A2"/>
<path d="M312.045 91.3166L243.112 51.5184C242.652 51.2535 242.086 51.2535 241.627 51.5193L217.08 65.7211C216.727 65.9254 216.727 66.4339 217.08 66.6372L285.98 106.417C286.439 106.682 287.005 106.682 287.464 106.417L312.045 92.2336C312.398 92.0293 312.398 91.52 312.045 91.3166Z" fill="url(#paint6_linear_2581_3173)"/>
<path d="M312.045 92.2336L311.798 92.3764L243.112 52.72C242.652 52.4551 242.086 52.4551 241.627 52.721L217.327 66.78L217.081 66.6372C216.728 66.4339 216.728 65.9245 217.081 65.7211L241.628 51.5193C242.087 51.2535 242.653 51.2535 243.113 51.5184L312.046 91.3166C312.398 91.52 312.398 92.0293 312.045 92.2336Z" fill="#3C88AB"/>
<path d="M239.774 55.1157L303.271 91.7746L306.418 90.518L242.437 53.5782L239.774 55.1157Z" fill="#24126A"/>
<path d="M233.247 58.8838L289.41 91.3101L292.073 89.7726L235.91 57.3473L233.247 58.8838Z" fill="#24126A"/>
<path d="M228.996 61.3383L295.122 99.516L297.785 97.9795L231.659 59.8018L228.996 61.3383Z" fill="#24126A"/>
<path d="M224.744 63.7927L290.87 101.97L293.533 100.434L227.407 62.2562L224.744 63.7927Z" fill="#24126A"/>
<path d="M220.494 66.2473L286.619 104.425L289.282 102.889L223.156 64.7108L220.494 66.2473Z" fill="#24126A"/>
<path d="M303.271 91.7747L305.932 93.3121L308.595 91.7747L305.932 90.2382L303.271 91.7747Z" fill="#24126A"/>
<path d="M286.181 89.4451L299.406 97.0801L302.068 95.5436L288.747 87.8527L286.181 89.4451Z" fill="#24126A"/>
<path d="M287.504 73.4812L268.917 62.7499C268.19 62.33 268.19 61.6509 268.917 61.2311L281.627 53.8928C282.354 53.4729 283.531 53.4739 284.258 53.8928L302.844 64.6241C303.571 65.0439 303.571 65.7231 302.844 66.1429L290.134 73.4812C289.409 73.901 288.23 73.901 287.504 73.4812Z" fill="url(#paint7_linear_2581_3173)"/>
<path d="M302.844 65.2454L284.257 54.5141C283.531 54.0943 282.353 54.0943 281.627 54.5141L268.917 61.8524C268.693 61.9821 268.546 62.1369 268.46 62.3011C268.268 61.9345 268.415 61.5212 268.917 61.2311L281.627 53.8928C282.353 53.4729 283.531 53.4739 284.257 53.8928L302.844 64.6241C303.346 64.9142 303.492 65.3275 303.3 65.6941C303.215 65.5309 303.069 65.3751 302.844 65.2454Z" fill="#3C88AB"/>
<path d="M203.858 63.3972L214.344 1.18577L213.501 0.830332L214.768 0.104524L214.766 0.111983C215.011 -0.0512769 215.359 -0.0419491 215.743 0.179152L299.547 48.563C300.235 48.9604 300.756 49.9791 300.634 50.6919L290.065 113.398C290.009 113.724 289.848 113.941 289.624 114.036L288.385 114.752L288.173 113.595L288.243 113.616L204.946 65.5262C204.258 65.1287 203.737 64.11 203.858 63.3972Z" fill="url(#paint8_linear_2581_3173)"/>
<path d="M299.08 50.2646L300.458 49.6554C300.613 50.008 300.688 50.3793 300.635 50.6928L290.066 113.399C290.011 113.725 289.85 113.942 289.625 114.037L288.386 114.753L288.173 113.596L288.244 113.618L284.029 111.185L299.08 50.2646Z" fill="#49A8FF"/>
<path d="M203.632 66.2809L287.436 114.665C288.083 115.038 288.636 114.822 288.75 114.153L299.319 51.4466C299.44 50.7339 298.919 49.7151 298.231 49.3177L214.427 0.933899C213.78 0.560733 213.227 0.776232 213.113 1.44607L202.544 64.152C202.423 64.8647 202.943 65.8835 203.632 66.2809Z" fill="#003B72"/>
<path d="M170.243 140.11L92.2109 95.0576L170.241 50.0071L248.273 95.0585L170.243 140.11Z" fill="white"/>
<path d="M170.243 127.809L113.518 95.0577L170.241 62.3086L226.966 95.0586L170.243 127.809Z" fill="#453C9E"/>
<path d="M170.241 64.5261L225.045 96.1678L226.966 95.0586L170.241 62.3086L113.518 95.0577L115.438 96.1669L170.241 64.5261Z" fill="white"/>
<path d="M248.272 95.0586V120.595L170.242 165.646V140.11L248.272 95.0586Z" fill="url(#paint9_linear_2581_3173)"/>
<path d="M92.2109 95.0576V120.594L170.243 165.646V140.11L92.2109 95.0576Z" fill="#24126A"/>
<g opacity="0.51">
<path d="M97.4971 106.531V114.573L164.957 153.521V145.48L97.4971 106.531Z" fill="#453C9E"/>
</g>
<path d="M170.243 138.645L93.4788 94.3262L92.2109 95.0576L170.243 140.11L248.273 95.0585L247.005 94.3271L170.243 138.645Z" fill="white"/>
<path d="M236.569 112.954V117.525L181.947 149.06V144.489L236.569 112.954Z" fill="#453C9E"/>
<path opacity="0.51" d="M92.2109 95.0576V120.594L170.243 165.646V140.11L92.2109 95.0576Z" fill="#49A8FF"/>
<path d="M147.464 138.753L133.334 130.594L133.332 132.279L147.462 140.438L147.464 138.753Z" fill="url(#paint10_linear_2581_3173)"/>
<path d="M131.296 129.436L127.468 127.224L127.466 128.909L131.295 131.12L131.296 129.436Z" fill="url(#paint11_linear_2581_3173)"/>
<path d="M113.362 119.083L105.529 114.56L105.527 116.245L113.36 120.768L113.362 119.083Z" fill="url(#paint12_linear_2581_3173)"/>
<path d="M120.509 123.21L114.845 119.939L114.844 121.624L120.508 124.895L120.509 123.21Z" fill="url(#paint13_linear_2581_3173)"/>
<path d="M125.821 126.278L121.993 124.067L121.991 125.752L125.82 127.963L125.821 126.278Z" fill="url(#paint14_linear_2581_3173)"/>
<path d="M170.323 73.5539L167.845 72.1228L170.323 70.6926L172.8 72.1228L170.323 73.5539Z" fill="url(#paint15_linear_2581_3173)"/>
<path opacity="0.1" d="M175.279 76.4141L172.801 74.984L175.279 73.5538L177.756 74.984L175.279 76.4141Z" fill="url(#paint16_linear_2581_3173)"/>
<path opacity="0.4" d="M180.234 79.2753L177.756 77.8452L180.234 76.4141L182.712 77.8452L180.234 79.2753Z" fill="url(#paint17_linear_2581_3173)"/>
<path d="M185.189 82.1366L182.711 80.7065L185.189 79.2754L187.667 80.7065L185.189 82.1366Z" fill="url(#paint18_linear_2581_3173)"/>
<path opacity="0.4" d="M190.145 84.9978L187.667 83.5677L190.145 82.1366L192.623 83.5677L190.145 84.9978Z" fill="url(#paint19_linear_2581_3173)"/>
<path d="M195.1 87.8592L192.622 86.429L195.1 84.9979L197.578 86.429L195.1 87.8592Z" fill="url(#paint20_linear_2581_3173)"/>
<path d="M200.056 90.7204L197.578 89.2893L200.056 87.8591L202.534 89.2893L200.056 90.7204Z" fill="url(#paint21_linear_2581_3173)"/>
<path d="M205.012 93.5817L202.534 92.1506L205.012 90.7205L207.49 92.1506L205.012 93.5817Z" fill="url(#paint22_linear_2581_3173)"/>
<path opacity="0.1" d="M209.968 96.4429L207.49 95.0118L209.968 93.5817L212.446 95.0118L209.968 96.4429Z" fill="url(#paint23_linear_2581_3173)"/>
<path d="M165.348 76.4262L162.869 74.9951L165.347 73.5649L167.825 74.996L165.348 76.4262Z" fill="url(#paint24_linear_2581_3173)"/>
<path d="M170.303 79.2875L167.825 77.8564L170.302 76.4263L172.78 77.8564L170.303 79.2875Z" fill="url(#paint25_linear_2581_3173)"/>
<path d="M175.258 82.1487L172.78 80.7176L175.258 79.2875L177.736 80.7176L175.258 82.1487Z" fill="url(#paint26_linear_2581_3173)"/>
<path d="M180.214 85.009L177.736 83.5788L180.213 82.1487L182.691 83.5788L180.214 85.009Z" fill="url(#paint27_linear_2581_3173)"/>
<path d="M185.169 87.8703L182.692 86.4401L185.169 85.009L187.647 86.4401L185.169 87.8703Z" fill="url(#paint28_linear_2581_3173)"/>
<path d="M190.126 90.7315L187.647 89.3013L190.125 87.8702L192.603 89.3013L190.126 90.7315Z" fill="url(#paint29_linear_2581_3173)"/>
<path d="M195.081 93.5928L192.604 92.1627L195.081 90.7316L197.559 92.1627L195.081 93.5928Z" fill="url(#paint30_linear_2581_3173)"/>
<path d="M200.036 96.454L197.559 95.0239L200.036 93.5928L202.514 95.0239L200.036 96.454Z" fill="url(#paint31_linear_2581_3173)"/>
<path d="M204.992 99.3154L202.515 97.8843L204.992 96.4541L207.47 97.8852L204.992 99.3154Z" fill="url(#paint32_linear_2581_3173)"/>
<path d="M160.37 79.2986L157.893 77.8685L160.37 76.4374L162.848 77.8685L160.37 79.2986Z" fill="url(#paint33_linear_2581_3173)"/>
<path d="M165.325 82.16L162.848 80.7298L165.325 79.2987L167.803 80.7298L165.325 82.16Z" fill="url(#paint34_linear_2581_3173)"/>
<path d="M170.282 85.0212L167.804 83.5901L170.282 82.1599L172.759 83.5901L170.282 85.0212Z" fill="url(#paint35_linear_2581_3173)"/>
<path opacity="0.1" d="M175.237 87.8825L172.759 86.4514L175.237 85.0212L177.714 86.4514L175.237 87.8825Z" fill="url(#paint36_linear_2581_3173)"/>
<path opacity="0.4" d="M180.193 90.7436L177.715 89.3125L180.193 87.8823L182.671 89.3125L180.193 90.7436Z" fill="url(#paint37_linear_2581_3173)"/>
<path opacity="0.4" d="M185.149 93.6049L182.671 92.1738L185.149 90.7437L187.627 92.1738L185.149 93.6049Z" fill="url(#paint38_linear_2581_3173)"/>
<path d="M190.105 96.4652L187.627 95.035L190.105 93.6049L192.583 95.035L190.105 96.4652Z" fill="url(#paint39_linear_2581_3173)"/>
<path d="M195.06 99.3265L192.582 97.8964L195.06 96.4662L197.538 97.8964L195.06 99.3265Z" fill="url(#paint40_linear_2581_3173)"/>
<path d="M200.016 102.188L197.538 100.758L200.016 99.3265L202.494 100.758L200.016 102.188Z" fill="url(#paint41_linear_2581_3173)"/>
<path opacity="0.4" d="M155.396 82.1712L152.918 80.7411L155.396 79.3109L157.873 80.7411L155.396 82.1712Z" fill="url(#paint42_linear_2581_3173)"/>
<path opacity="0.4" d="M160.35 85.0326L157.872 83.6024L160.35 82.1722L162.828 83.6024L160.35 85.0326Z" fill="url(#paint43_linear_2581_3173)"/>
<path opacity="0.1" d="M165.307 87.8937L162.828 86.4636L165.306 85.0325L167.784 86.4636L165.307 87.8937Z" fill="url(#paint44_linear_2581_3173)"/>
<path d="M170.262 90.7549L167.784 89.3248L170.261 87.8937L172.739 89.3248L170.262 90.7549Z" fill="url(#paint45_linear_2581_3173)"/>
<path d="M175.217 93.6163L172.739 92.1852L175.217 90.755L177.695 92.1852L175.217 93.6163Z" fill="url(#paint46_linear_2581_3173)"/>
<path d="M180.174 96.4775L177.696 95.0464L180.173 93.6162L182.651 95.0464L180.174 96.4775Z" fill="url(#paint47_linear_2581_3173)"/>
<path opacity="0.4" d="M185.129 99.3388L182.652 97.9077L185.129 96.4775L187.607 97.9077L185.129 99.3388Z" fill="url(#paint48_linear_2581_3173)"/>
<path d="M190.084 102.2L187.606 100.769L190.084 99.3387L192.562 100.769L190.084 102.2Z" fill="url(#paint49_linear_2581_3173)"/>
<path d="M195.04 105.061L192.562 103.63L195.04 102.2L197.518 103.63L195.04 105.061Z" fill="url(#paint50_linear_2581_3173)"/>
<path d="M150.42 85.0446L147.942 83.6135L150.42 82.1833L152.898 83.6135L150.42 85.0446Z" fill="url(#paint51_linear_2581_3173)"/>
<path d="M155.375 87.9059L152.897 86.4748L155.375 85.0447L157.853 86.4748L155.375 87.9059Z" fill="url(#paint52_linear_2581_3173)"/>
<path d="M160.331 90.7662L157.854 89.336L160.331 87.9059L162.809 89.336L160.331 90.7662Z" fill="url(#paint53_linear_2581_3173)"/>
<path d="M165.286 93.6274L162.809 92.1972L165.286 90.7661L167.764 92.1972L165.286 93.6274Z" fill="url(#paint54_linear_2581_3173)"/>
<path d="M170.242 96.4887L167.765 95.0585L170.242 93.6274L172.72 95.0585L170.242 96.4887Z" fill="url(#paint55_linear_2581_3173)"/>
<path d="M175.199 99.3499L172.721 97.9197L175.199 96.4886L177.676 97.9197L175.199 99.3499Z" fill="url(#paint56_linear_2581_3173)"/>
<path d="M180.155 102.211L177.677 100.781L180.155 99.35L182.632 100.781L180.155 102.211Z" fill="url(#paint57_linear_2581_3173)"/>
<path d="M185.11 105.072L182.632 103.641L185.11 102.211L187.587 103.641L185.11 105.072Z" fill="url(#paint58_linear_2581_3173)"/>
<path d="M190.066 107.934L187.588 106.503L190.066 105.073L192.544 106.503L190.066 107.934Z" fill="url(#paint59_linear_2581_3173)"/>
<path d="M145.445 87.917L142.967 86.4869L145.444 85.0558L147.922 86.4869L145.445 87.917Z" fill="url(#paint60_linear_2581_3173)"/>
<path d="M150.399 90.7782L147.922 89.3481L150.399 87.917L152.878 89.3481L150.399 90.7782Z" fill="url(#paint61_linear_2581_3173)"/>
<path opacity="0.4" d="M155.356 93.6396L152.878 92.2085L155.356 90.7783L157.833 92.2085L155.356 93.6396Z" fill="url(#paint62_linear_2581_3173)"/>
<path d="M160.31 96.5008L157.832 95.0697L160.31 93.6395L162.788 95.0697L160.31 96.5008Z" fill="url(#paint63_linear_2581_3173)"/>
<path opacity="0.1" d="M165.267 99.361L162.788 97.9309L165.266 96.5007L167.744 97.9309L165.267 99.361Z" fill="url(#paint64_linear_2581_3173)"/>
<path d="M170.221 102.222L167.744 100.792L170.221 99.3619L172.699 100.792L170.221 102.222Z" fill="url(#paint65_linear_2581_3173)"/>
<path d="M175.177 105.084L172.699 103.653L175.177 102.222L177.655 103.653L175.177 105.084Z" fill="url(#paint66_linear_2581_3173)"/>
<path d="M180.133 107.945L177.655 106.515L180.132 105.084L182.61 106.515L180.133 107.945Z" fill="url(#paint67_linear_2581_3173)"/>
<path d="M185.089 110.806L182.612 109.376L185.089 107.945L187.567 109.376L185.089 110.806Z" fill="url(#paint68_linear_2581_3173)"/>
<path d="M140.468 90.7894L137.99 89.3592L140.468 87.9291L142.946 89.3592L140.468 90.7894Z" fill="url(#paint69_linear_2581_3173)"/>
<path d="M145.423 93.6507L142.945 92.2205L145.423 90.7894L147.901 92.2205L145.423 93.6507Z" fill="url(#paint70_linear_2581_3173)"/>
<path opacity="0.4" d="M150.379 96.512L147.901 95.0818L150.379 93.6508L152.857 95.0818L150.379 96.512Z" fill="url(#paint71_linear_2581_3173)"/>
<path d="M155.334 99.3731L152.856 97.9429L155.334 96.5118L157.812 97.9429L155.334 99.3731Z" fill="url(#paint72_linear_2581_3173)"/>
<path d="M160.291 102.234L157.813 100.803L160.291 99.3732L162.769 100.803L160.291 102.234Z" fill="url(#paint73_linear_2581_3173)"/>
<path opacity="0.1" d="M165.246 105.096L162.769 103.665L165.246 102.234L167.724 103.665L165.246 105.096Z" fill="url(#paint74_linear_2581_3173)"/>
<path opacity="0.4" d="M170.202 107.957L167.725 106.526L170.202 105.096L172.68 106.526L170.202 107.957Z" fill="url(#paint75_linear_2581_3173)"/>
<path d="M175.158 110.817L172.68 109.387L175.158 107.957L177.635 109.387L175.158 110.817Z" fill="url(#paint76_linear_2581_3173)"/>
<path opacity="0.1" d="M180.114 113.678L177.636 112.248L180.114 110.817L182.591 112.248L180.114 113.678Z" fill="url(#paint77_linear_2581_3173)"/>
<path d="M135.492 93.6629L133.015 92.2318L135.492 90.8016L137.97 92.2318L135.492 93.6629Z" fill="url(#paint78_linear_2581_3173)"/>
<path opacity="0.4" d="M140.448 96.5242L137.97 95.0931L140.448 93.663L142.925 95.0931L140.448 96.5242Z" fill="url(#paint79_linear_2581_3173)"/>
<path d="M145.404 99.3845L142.926 97.9543L145.403 96.5242L147.88 97.9543L145.404 99.3845Z" fill="url(#paint80_linear_2581_3173)"/>
<path d="M150.359 102.246L147.88 100.815L150.359 99.3844L152.836 100.815L150.359 102.246Z" fill="url(#paint81_linear_2581_3173)"/>
<path d="M155.315 105.107L152.837 103.677L155.314 102.246L157.792 103.677L155.315 105.107Z" fill="url(#paint82_linear_2581_3173)"/>
<path d="M160.27 107.968L157.792 106.537L160.27 105.107L162.748 106.538L160.27 107.968Z" fill="url(#paint83_linear_2581_3173)"/>
<path d="M165.227 110.83L162.748 109.398L165.226 107.968L167.704 109.398L165.227 110.83Z" fill="url(#paint84_linear_2581_3173)"/>
<path opacity="0.4" d="M170.181 113.691L167.704 112.26L170.181 110.829L172.659 112.26L170.181 113.691Z" fill="url(#paint85_linear_2581_3173)"/>
<path d="M175.137 116.552L172.659 115.121L175.137 113.691L177.615 115.121L175.137 116.552Z" fill="url(#paint86_linear_2581_3173)"/>
<path d="M130.517 96.5353L128.039 95.1042L130.517 93.6741L132.995 95.1042L130.517 96.5353Z" fill="url(#paint87_linear_2581_3173)"/>
<path opacity="0.1" d="M135.473 99.3967L132.995 97.9656L135.473 96.5354L137.951 97.9656L135.473 99.3967Z" fill="url(#paint88_linear_2581_3173)"/>
<path d="M140.428 102.258L137.95 100.827L140.428 99.3966L142.906 100.827L140.428 102.258Z" fill="url(#paint89_linear_2581_3173)"/>
<path d="M145.383 105.119L142.905 103.688L145.383 102.258L147.861 103.688L145.383 105.119Z" fill="url(#paint90_linear_2581_3173)"/>
<path d="M150.339 107.979L147.861 106.549L150.339 105.119L152.817 106.549L150.339 107.979Z" fill="url(#paint91_linear_2581_3173)"/>
<path d="M155.294 110.841L152.816 109.41L155.294 107.979L157.772 109.41L155.294 110.841Z" fill="url(#paint92_linear_2581_3173)"/>
<path opacity="0.4" d="M160.251 113.702L157.773 112.272L160.251 110.841L162.729 112.272L160.251 113.702Z" fill="url(#paint93_linear_2581_3173)"/>
<path d="M165.206 116.563L162.729 115.133L165.206 113.702L167.684 115.133L165.206 116.563Z" fill="url(#paint94_linear_2581_3173)"/>
<path d="M170.162 119.424L167.685 117.993L170.162 116.563L172.64 117.993L170.162 119.424Z" fill="url(#paint95_linear_2581_3173)"/>
<path d="M170.243 95.8944L92.2109 50.843L170.241 5.79248L248.273 50.8439L170.243 95.8944Z" fill="white"/>
<path d="M170.243 83.593L113.518 50.843L170.241 18.093L226.966 50.8439L170.243 83.593Z" fill="#49A8FF"/>
<path d="M170.241 20.3115L225.045 51.9532L226.966 50.8439L170.241 18.093L113.518 50.843L115.438 51.9513L170.241 20.3115Z" fill="white"/>
<path d="M248.272 50.8439V76.3806L170.242 121.431V95.8944L248.272 50.8439Z" fill="url(#paint96_linear_2581_3173)"/>
<path d="M92.2109 50.843V76.3797L170.243 121.431V95.8944L92.2109 50.843Z" fill="#24126A"/>
<g opacity="0.51">
<path d="M97.4971 62.3159V70.3577L164.957 109.306V101.264L97.4971 62.3159Z" fill="#453C9E"/>
</g>
<path d="M170.243 94.4306L93.4788 50.1106L92.2109 50.8429L170.243 95.8944L248.273 50.8439L247.005 50.1115L170.243 94.4306Z" fill="white"/>
<path d="M236.569 68.7382V73.3095L181.947 104.845V100.274L236.569 68.7382Z" fill="#453C9E"/>
<path opacity="0.51" d="M92.2109 50.843V76.3797L170.243 121.431V95.8944L92.2109 50.843Z" fill="#006ACB"/>
<path d="M147.464 94.5379L133.334 86.3787L133.332 88.0635L147.462 96.2228L147.464 94.5379Z" fill="#0F272C"/>
<path d="M131.296 85.2201L127.468 83.009L127.466 84.6948L131.295 86.9049L131.296 85.2201Z" fill="#0F272C"/>
<path d="M113.362 74.8674L105.529 70.3446L105.527 72.0294L113.36 76.5532L113.362 74.8674Z" fill="#0F272C"/>
<path d="M120.509 78.9946L114.845 75.7238L114.844 77.4095L120.508 80.6803L120.509 78.9946Z" fill="#0F272C"/>
<path d="M125.821 82.062L121.993 79.8519L121.991 81.5368L125.82 83.7468L125.821 82.062Z" fill="#0F272C"/>
<path d="M170.323 29.3383L167.845 27.9081L170.323 26.4771L172.8 27.9081L170.323 29.3383Z" fill="white"/>
<path opacity="0.1" d="M175.279 32.1996L172.801 30.7685L175.279 29.3384L177.756 30.7695L175.279 32.1996Z" fill="white"/>
<path opacity="0.4" d="M180.234 35.0608L177.756 33.6297L180.234 32.1996L182.712 33.6297L180.234 35.0608Z" fill="white"/>
<path d="M185.189 37.9222L182.711 36.4911L185.189 35.0609L187.667 36.4911L185.189 37.9222Z" fill="white"/>
<path opacity="0.4" d="M190.145 40.7833L187.667 39.3522L190.145 37.922L192.623 39.3522L190.145 40.7833Z" fill="white"/>
<path d="M195.1 43.6436L192.622 42.2135L195.1 40.7833L197.578 42.2135L195.1 43.6436Z" fill="white"/>
<path d="M200.056 46.5049L197.578 45.0748L200.056 43.6437L202.534 45.0748L200.056 46.5049Z" fill="white"/>
<path d="M205.012 49.3661L202.534 47.936L205.012 46.5049L207.49 47.936L205.012 49.3661Z" fill="white"/>
<path opacity="0.1" d="M209.968 52.2275L207.49 50.7973L209.968 49.3662L212.446 50.7973L209.968 52.2275Z" fill="white"/>
<path d="M165.348 32.2107L162.869 30.7806L165.347 29.3495L167.825 30.7806L165.348 32.2107Z" fill="white"/>
<path d="M170.303 35.0721L167.825 33.6419L170.302 32.2108L172.78 33.6419L170.303 35.0721Z" fill="white"/>
<path d="M175.258 37.9333L172.78 36.5031L175.258 35.072L177.736 36.5031L175.258 37.9333Z" fill="white"/>
<path d="M180.214 40.7946L177.736 39.3635L180.213 37.9333L182.691 39.3635L180.214 40.7946Z" fill="white"/>
<path d="M185.169 43.6557L182.692 42.2246L185.169 40.7944L187.647 42.2246L185.169 43.6557Z" fill="white"/>
<path d="M190.126 46.517L187.647 45.0859L190.125 43.6558L192.603 45.0859L190.126 46.517Z" fill="white"/>
<path d="M195.081 49.3782L192.604 47.9471L195.081 46.517L197.559 47.9471L195.081 49.3782Z" fill="white"/>
<path d="M200.036 52.2386L197.559 50.8085L200.036 49.3783L202.514 50.8085L200.036 52.2386Z" fill="white"/>
<path d="M204.992 55.0999L202.515 53.6697L204.992 52.2386L207.47 53.6697L204.992 55.0999Z" fill="white"/>
<path d="M160.37 35.0843L157.893 33.6532L160.37 32.223L162.848 33.6532L160.37 35.0843Z" fill="white"/>
<path d="M165.325 37.9456L162.848 36.5145L165.325 35.0844L167.803 36.5145L165.325 37.9456Z" fill="white"/>
<path d="M170.282 40.8059L167.804 39.3757L170.282 37.9456L172.759 39.3757L170.282 40.8059Z" fill="white"/>
<path opacity="0.1" d="M175.237 43.667L172.759 42.2369L175.237 40.8058L177.714 42.2369L175.237 43.667Z" fill="white"/>
<path opacity="0.4" d="M180.193 46.5284L177.715 45.0982L180.193 43.6671L182.671 45.0982L180.193 46.5284Z" fill="white"/>
<path opacity="0.4" d="M185.149 49.3896L182.671 47.9585L185.149 46.5283L187.627 47.9594L185.149 49.3896Z" fill="white"/>
<path d="M190.105 52.2509L187.627 50.8198L190.105 49.3896L192.583 50.8198L190.105 52.2509Z" fill="white"/>
<path d="M195.06 55.1121L192.582 53.681L195.06 52.2509L197.538 53.681L195.06 55.1121Z" fill="white"/>
<path d="M200.016 57.9734L197.538 56.5423L200.016 55.1122L202.494 56.5423L200.016 57.9734Z" fill="white"/>
<path opacity="0.4" d="M155.396 37.9566L152.918 36.5255L155.396 35.0953L157.873 36.5255L155.396 37.9566Z" fill="white"/>
<path opacity="0.4" d="M160.35 40.8179L157.872 39.3868L160.35 37.9567L162.828 39.3868L160.35 40.8179Z" fill="white"/>
<path opacity="0.1" d="M165.307 43.6791L162.828 42.248L165.306 40.8179L167.784 42.248L165.307 43.6791Z" fill="white"/>
<path d="M170.262 46.5404L167.784 45.1094L170.261 43.6792L172.739 45.1094L170.262 46.5404Z" fill="white"/>
<path d="M175.217 49.4006L172.739 47.9704L175.217 46.5403L177.695 47.9704L175.217 49.4006Z" fill="white"/>
<path d="M180.174 52.2619L177.696 50.8317L180.173 49.4006L182.651 50.8317L180.174 52.2619Z" fill="white"/>
<path opacity="0.4" d="M185.129 55.1232L182.652 53.6931L185.129 52.262L187.607 53.6931L185.129 55.1232Z" fill="white"/>
<path d="M190.084 57.9844L187.606 56.5543L190.084 55.1232L192.562 56.5543L190.084 57.9844Z" fill="white"/>
<path d="M195.04 60.8458L192.562 59.4146L195.04 57.9845L197.518 59.4146L195.04 60.8458Z" fill="white"/>
<path d="M150.42 40.829L147.942 39.3989L150.42 37.9678L152.898 39.3989L150.42 40.829Z" fill="white"/>
<path d="M155.375 43.6903L152.897 42.2602L155.375 40.8291L157.853 42.2602L155.375 43.6903Z" fill="white"/>
<path d="M160.331 46.5516L157.854 45.1205L160.331 43.6903L162.809 45.1205L160.331 46.5516Z" fill="white"/>
<path d="M165.286 49.4129L162.809 47.9818L165.286 46.5516L167.764 47.9818L165.286 49.4129Z" fill="white"/>
<path d="M170.242 52.274L167.765 50.8429L170.242 49.4127L172.72 50.8429L170.242 52.274Z" fill="white"/>
<path d="M175.199 55.1353L172.721 53.7042L175.199 52.274L177.676 53.7042L175.199 55.1353Z" fill="white"/>
<path d="M180.155 57.9956L177.677 56.5654L180.155 55.1353L182.632 56.5654L180.155 57.9956Z" fill="white"/>
<path d="M185.11 60.8569L182.632 59.4267L185.11 57.9956L187.587 59.4267L185.11 60.8569Z" fill="white"/>
<path d="M190.066 63.7182L187.588 62.288L190.066 60.8569L192.544 62.288L190.066 63.7182Z" fill="white"/>
<path d="M145.445 43.7024L142.967 42.2713L145.444 40.8412L147.922 42.2713L145.445 43.7024Z" fill="white"/>
<path d="M150.399 46.5627L147.922 45.1326L150.399 43.7024L152.878 45.1326L150.399 46.5627Z" fill="white"/>
<path opacity="0.4" d="M155.356 49.4239L152.878 47.9937L155.356 46.5626L157.833 47.9937L155.356 49.4239Z" fill="white"/>
<path d="M160.31 52.2852L157.832 50.8551L160.31 49.424L162.788 50.8551L160.31 52.2852Z" fill="white"/>
<path opacity="0.1" d="M165.267 55.1464L162.788 53.7163L165.266 52.2852L167.744 53.7163L165.267 55.1464Z" fill="white"/>
<path d="M170.221 58.0077L167.744 56.5766L170.221 55.1465L172.699 56.5776L170.221 58.0077Z" fill="white"/>
<path d="M175.177 60.8689L172.699 59.4379L175.177 58.0077L177.655 59.4379L175.177 60.8689Z" fill="white"/>
<path d="M180.133 63.7303L177.655 62.2992L180.132 60.869L182.61 62.2992L180.133 63.7303Z" fill="white"/>
<path d="M185.089 66.5905L182.612 65.1604L185.089 63.7302L187.567 65.1604L185.089 66.5905Z" fill="white"/>
<path d="M140.468 46.5748L137.99 45.1437L140.468 43.7135L142.946 45.1437L140.468 46.5748Z" fill="white"/>
<path d="M145.423 49.4361L142.945 48.005L145.423 46.5748L147.901 48.005L145.423 49.4361Z" fill="white"/>
<path opacity="0.4" d="M150.379 52.2973L147.901 50.8662L150.379 49.436L152.857 50.8662L150.379 52.2973Z" fill="white"/>
<path d="M155.334 55.1577L152.856 53.7275L155.334 52.2974L157.812 53.7275L155.334 55.1577Z" fill="white"/>
<path d="M160.291 58.0188L157.813 56.5887L160.291 55.1576L162.769 56.5887L160.291 58.0188Z" fill="white"/>
<path opacity="0.1" d="M165.246 60.8802L162.769 59.45L165.246 58.0189L167.724 59.45L165.246 60.8802Z" fill="white"/>
<path opacity="0.4" d="M170.202 63.7414L167.725 62.3112L170.202 60.8801L172.68 62.3112L170.202 63.7414Z" fill="white"/>
<path d="M175.158 66.6027L172.68 65.1726L175.158 63.7415L177.635 65.1726L175.158 66.6027Z" fill="white"/>
<path opacity="0.1" d="M180.114 69.4639L177.636 68.0328L180.114 66.6027L182.591 68.0328L180.114 69.4639Z" fill="white"/>
<path d="M135.492 49.4474L133.015 48.0173L135.492 46.5862L137.97 48.0173L135.492 49.4474Z" fill="white"/>
<path opacity="0.4" d="M140.448 52.3088L137.97 50.8777L140.448 49.4475L142.925 50.8777L140.448 52.3088Z" fill="white"/>
<path d="M145.404 55.17L142.926 53.7389L145.403 52.3087L147.88 53.7389L145.404 55.17Z" fill="white"/>
<path d="M150.359 58.0313L147.88 56.6002L150.359 55.17L152.836 56.6002L150.359 58.0313Z" fill="white"/>
<path d="M155.315 60.8925L152.837 59.4614L155.314 58.0312L157.792 59.4614L155.315 60.8925Z" fill="white"/>
<path d="M160.27 63.7528L157.792 62.3226L160.27 60.8925L162.748 62.3226L160.27 63.7528Z" fill="white"/>
<path d="M165.227 66.614L162.748 65.1838L165.226 63.7537L167.704 65.1838L165.227 66.614Z" fill="white"/>
<path opacity="0.4" d="M170.181 69.4753L167.704 68.0451L170.181 66.614L172.659 68.0451L170.181 69.4753Z" fill="white"/>
<path d="M175.137 72.3366L172.659 70.9064L175.137 69.4753L177.615 70.9064L175.137 72.3366Z" fill="white"/>
<path d="M130.517 52.3197L128.039 50.8896L130.517 49.4585L132.995 50.8896L130.517 52.3197Z" fill="white"/>
<path opacity="0.1" d="M135.473 55.1811L132.995 53.7509L135.473 52.3198L137.951 53.7509L135.473 55.1811Z" fill="white"/>
<path d="M140.428 58.0423L137.95 56.6121L140.428 55.181L142.906 56.6121L140.428 58.0423Z" fill="white"/>
<path d="M145.383 60.9036L142.905 59.4725L145.383 58.0424L147.861 59.4734L145.383 60.9036Z" fill="white"/>
<path d="M150.339 63.7647L147.861 62.3336L150.339 60.9034L152.817 62.3336L150.339 63.7647Z" fill="white"/>
<path d="M155.294 66.626L152.816 65.1949L155.294 63.7648L157.772 65.1949L155.294 66.626Z" fill="white"/>
<path opacity="0.4" d="M160.251 69.4872L157.773 68.0561L160.251 66.626L162.729 68.0561L160.251 69.4872Z" fill="white"/>
<path d="M165.206 72.3486L162.729 70.9175L165.206 69.4873L167.684 70.9175L165.206 72.3486Z" fill="white"/>
<path d="M170.162 75.2088L167.685 73.7787L170.162 72.3485L172.64 73.7787L170.162 75.2088Z" fill="white"/>
<path d="M254.242 233.342C252.889 233.342 251.558 232.986 250.395 232.315L206.056 206.715C205.361 206.313 204.946 205.595 204.946 204.793C204.946 203.99 205.361 203.271 206.056 202.869L286.283 156.552C286.418 156.473 286.585 156.473 286.72 156.552L334.688 184.245C335.383 184.648 335.797 185.367 335.797 186.17C335.797 186.972 335.383 187.691 334.689 188.093L258.09 232.317C256.924 232.986 255.593 233.342 254.242 233.342ZM286.5 157.436L206.493 203.628C206.072 203.871 205.82 204.307 205.82 204.793C205.82 205.279 206.072 205.714 206.493 205.958L250.832 231.557C252.893 232.747 255.587 232.748 257.65 231.557L334.248 187.333C334.668 187.09 334.92 186.655 334.92 186.169C334.92 185.683 334.668 185.246 334.247 185.002L286.5 157.436Z" fill="white"/>
<path d="M286.599 138.657L275.927 75.3451L276.785 74.9841L275.496 74.2452L275.498 74.2527C275.248 74.0866 274.894 74.0959 274.504 74.3217L189.219 123.562C188.518 123.966 187.988 125.003 188.112 125.728L198.868 189.543C198.924 189.875 199.089 190.097 199.318 190.193L200.578 190.921L200.795 189.743L200.723 189.764L285.492 140.823C286.192 140.418 286.722 139.381 286.599 138.657Z" fill="url(#paint97_linear_2581_3173)"/>
<path d="M189.694 125.292L188.292 124.671C188.134 125.03 188.058 125.408 188.112 125.726L198.869 189.541C198.924 189.874 199.09 190.095 199.318 190.191L200.579 190.919L200.795 189.741L200.723 189.763L205.013 187.286L189.694 125.292Z" fill="url(#paint98_linear_2581_3173)"/>
<path d="M286.828 141.59L201.543 190.829C200.884 191.209 200.321 190.989 200.205 190.307L189.449 126.492C189.325 125.767 189.855 124.73 190.556 124.326L275.841 75.0867C276.5 74.706 277.063 74.9262 277.179 75.6082L287.935 139.423C288.059 140.148 287.529 141.186 286.828 141.59Z" fill="white"/>
<path d="M274.727 79.1606L192.519 126.625L202.713 186.724L284.867 139.294L274.727 79.1606Z" fill="#0F272C"/>
<path d="M340.44 171.802L335.786 174.232L289.116 147.287C288.335 146.836 286.971 146.892 286.07 147.413L205.577 193.885C204.806 193.454 201.295 191.765 201.295 191.765L202.998 196.204L203.005 196.199C203.076 196.396 203.227 196.58 203.482 196.727L252.635 225.105C253.416 225.556 254.78 225.5 255.681 224.979L338.051 177.423C338.421 177.209 338.648 176.95 338.742 176.688L338.749 176.691L340.44 171.802Z" fill="#49A8FF"/>
<path d="M339.72 172.568L255.301 221.307C254.377 221.841 252.979 221.899 252.18 221.437L201.804 192.352C201.004 191.891 201.104 191.084 202.028 190.55L286.446 141.811C287.37 141.277 288.768 141.219 289.568 141.681L339.944 170.766C340.745 171.227 340.644 172.034 339.72 172.568Z" fill="url(#paint99_linear_2581_3173)"/>
<path d="M339.72 172.081L255.301 220.82C254.378 221.354 252.979 221.412 252.18 220.95L201.804 191.865C201.542 191.714 201.386 191.524 201.314 191.321C201.188 191.7 201.34 192.084 201.804 192.351L252.18 221.436C252.98 221.898 254.378 221.84 255.301 221.306L339.72 172.567C340.341 172.208 340.581 171.727 340.434 171.309C340.342 171.585 340.109 171.857 339.72 172.081Z" fill="white"/>
<path d="M229.839 210.763V209.837C229.839 209.749 229.892 209.709 229.958 209.747L233.224 211.632C233.29 211.67 233.343 211.772 233.343 211.86V212.785C233.343 212.873 233.29 212.913 233.224 212.876L229.958 210.99C229.892 210.953 229.839 210.851 229.839 210.763Z" fill="#2842A2"/>
<path d="M234.722 213.583V212.657C234.722 212.57 234.775 212.529 234.841 212.567L238.106 214.452C238.172 214.49 238.226 214.592 238.226 214.68V215.606C238.226 215.694 238.173 215.734 238.106 215.697L234.841 213.811C234.775 213.772 234.722 213.67 234.722 213.583Z" fill="#2842A2"/>
<path d="M214.937 189.627L285.089 149.126C285.556 148.856 286.133 148.856 286.6 149.127L311.581 163.579C311.939 163.786 311.939 164.305 311.581 164.512L241.462 204.995C240.994 205.265 240.419 205.265 239.952 204.995L214.938 190.56C214.578 190.353 214.578 189.834 214.937 189.627Z" fill="url(#paint100_linear_2581_3173)"/>
<path d="M214.937 190.56L215.188 190.705L285.089 150.348C285.556 150.078 286.133 150.078 286.6 150.349L311.33 164.657L311.581 164.512C311.94 164.305 311.94 163.787 311.581 163.579L286.6 149.127C286.133 148.856 285.556 148.856 285.089 149.126L214.937 189.627C214.578 189.834 214.578 190.353 214.937 190.56Z" fill="#3C88AB"/>
<path d="M288.484 152.786L227.548 187.969L224.838 186.404L285.775 151.222L288.484 152.786Z" fill="#24126A"/>
<path d="M295.128 156.622L237.972 189.621L235.263 188.056L292.419 155.057L295.128 156.622Z" fill="#24126A"/>
<path d="M299.454 159.12L232.159 197.972L229.449 196.408L296.744 157.556L299.454 159.12Z" fill="#24126A"/>
<path d="M303.779 161.617L236.485 200.47L233.775 198.906L301.07 160.053L303.779 161.617Z" fill="#24126A"/>
<path d="M308.108 164.115L240.813 202.968L238.103 201.403L305.398 162.551L308.108 164.115Z" fill="#24126A"/>
<path d="M223.867 190.094L221.157 191.658L218.447 190.094L221.157 188.53L223.867 190.094Z" fill="#24126A"/>
<path d="M233.424 192.247L227.8 195.493L225.091 193.929L230.714 190.682L233.424 192.247Z" fill="#24126A"/>
<path d="M287.791 199.429L306.706 188.508C307.445 188.081 307.445 187.389 306.706 186.962L293.771 179.494C293.032 179.067 291.833 179.067 291.093 179.494L272.178 190.415C271.439 190.842 271.438 191.533 272.178 191.961L285.112 199.429C285.852 199.856 287.051 199.856 287.791 199.429Z" fill="#D3EAFF"/>
<path d="M272.178 191.048L291.094 180.127C291.833 179.701 293.032 179.701 293.772 180.127L306.707 187.595C306.935 187.727 307.083 187.886 307.171 188.053C307.367 187.679 307.218 187.259 306.707 186.964L293.772 179.496C293.033 179.069 291.834 179.069 291.094 179.496L272.178 190.417C271.667 190.711 271.518 191.132 271.714 191.506C271.801 191.337 271.95 191.18 272.178 191.048Z" fill="#3C88AB"/>
<g opacity="0.11">
<mask id="mask0_2581_3173" style="mask-type:luminance" maskUnits="userSpaceOnUse" x="192" y="79" width="93" height="108">
<path d="M274.727 79.1606L192.519 126.625L202.713 186.724L284.867 139.294L274.727 79.1606Z" fill="white"/>
</mask>
<g mask="url(#mask0_2581_3173)">
<path d="M286.529 141.71L202.111 190.449C201.186 190.983 199.789 191.041 198.989 190.579L148.614 161.494C147.813 161.032 147.914 160.226 148.837 159.692L233.256 110.953C234.181 110.419 235.578 110.361 236.378 110.823L286.753 139.908C287.554 140.369 287.454 141.176 286.529 141.71Z" fill="url(#paint101_linear_2581_3173)"/>
<path d="M201.86 150.448L220.775 139.527C221.515 139.1 221.515 138.408 220.775 137.981L207.84 130.513C207.102 130.086 205.903 130.086 205.163 130.513L186.247 141.434C185.507 141.861 185.507 142.552 186.247 142.98L199.182 150.448C199.922 150.875 201.121 150.875 201.86 150.448Z" fill="url(#paint102_linear_2581_3173)"/>
<path d="M186.248 142.066L205.163 131.146C205.902 130.718 207.1 130.718 207.84 131.146L220.775 138.614C221.004 138.745 221.152 138.904 221.24 139.071C221.435 138.697 221.286 138.277 220.775 137.982L207.84 130.514C207.101 130.087 205.902 130.087 205.163 130.514L186.247 141.435C185.736 141.729 185.586 142.15 185.782 142.523C185.87 142.356 186.019 142.199 186.248 142.066Z" fill="#3C88AB"/>
<path d="M177.933 167.514L248.085 127.012C248.552 126.742 249.129 126.742 249.596 127.013L274.577 141.465C274.935 141.673 274.935 142.191 274.576 142.398L204.457 182.881C203.99 183.151 203.414 183.151 202.948 182.881L177.933 168.446C177.574 168.24 177.574 167.722 177.933 167.514Z" fill="url(#paint103_linear_2581_3173)"/>
<path d="M177.933 168.447L178.184 168.592L248.085 128.235C248.552 127.964 249.129 127.965 249.596 128.236L274.326 142.544L274.577 142.399C274.936 142.192 274.936 141.674 274.578 141.466L249.597 127.014C249.13 126.743 248.553 126.743 248.086 127.013L177.934 167.515C177.574 167.722 177.574 168.24 177.933 168.447Z" fill="#3C88AB"/>
<path d="M268.038 140.48L206.924 175.765L209.345 177.163L270.459 141.879L268.038 140.48Z" fill="#24126A"/>
<path d="M261.601 136.763L203.513 170.3L205.934 171.698L264.022 138.161L261.601 136.763Z" fill="#24126A"/>
<path d="M199.173 172.805L193.748 175.937L196.169 177.334L201.594 174.202L199.173 172.805Z" fill="#24126A"/>
<path d="M203.966 177.473L200.188 179.654L202.608 181.052L206.387 178.871L203.966 177.473Z" fill="#24126A"/>
<path d="M257.566 134.433L189.715 173.607L192.136 175.005L259.987 135.832L257.566 134.433Z" fill="#24126A"/>
<path d="M253.531 132.104L185.68 171.278L188.101 172.675L255.952 133.501L253.531 132.104Z" fill="#24126A"/>
<path d="M249.495 129.774L181.645 168.948L184.065 170.346L251.916 131.173L249.495 129.774Z" fill="#24126A"/>
</g>
</g>
<path d="M223.475 163.81L230.125 159.966L230.32 161.121L223.67 164.965L223.475 163.81Z" fill="white"/>
<path d="M231.195 159.352L234.819 157.258L235.014 158.413L231.389 160.507L231.195 159.352Z" fill="white"/>
<path d="M240.457 154.003L243.079 152.488L243.274 153.643L240.652 155.158L240.457 154.003Z" fill="white"/>
<path d="M238.546 155.108L239.441 154.591L239.636 155.746L238.741 156.263L238.546 155.108Z" fill="white"/>
<path d="M235.902 156.637L237.529 155.695L237.724 156.85L236.097 157.791L235.902 156.637Z" fill="white"/>
<path d="M228.736 154.977L231.358 153.461L231.553 154.616L228.93 156.132L228.736 154.977Z" fill="white"/>
<path d="M222.582 158.533L227.72 155.564L227.915 156.719L222.778 159.688L222.582 158.533Z" fill="white"/>
<path d="M229.948 139.815L235.086 136.847L235.281 138.001L230.143 140.97L229.948 139.815Z" fill="white"/>
<path d="M227.305 141.343L228.932 140.403L229.128 141.558L227.5 142.498L227.305 141.343Z" fill="white"/>
<path d="M230.807 145.099L235.944 142.13L236.139 143.285L231.002 146.254L230.807 145.099Z" fill="white"/>
<path d="M228.162 146.627L229.789 145.687L229.985 146.841L228.357 147.782L228.162 146.627Z" fill="white"/>
<path d="M226.156 117.014L216.478 122.607L216.283 121.453L225.961 115.859L226.156 117.014Z" fill="white"/>
<path d="M229.567 115.043L227.173 116.427L226.978 115.272L229.372 113.888L229.567 115.043Z" fill="white"/>
<path d="M246.574 113.92L236.896 119.514L236.701 118.359L246.379 112.765L246.574 113.92Z" fill="white"/>
<path d="M249.984 111.949L247.59 113.333L247.395 112.178L249.789 110.794L249.984 111.949Z" fill="white"/>
<path d="M219.545 123.73L216.923 125.246L216.728 124.091L219.35 122.576L219.545 123.73Z" fill="white"/>
<path d="M235.499 120.308L232.877 121.824L232.682 120.669L235.304 119.154L235.499 120.308Z" fill="white"/>
<path d="M225.699 120.173L220.561 123.143L220.366 121.988L225.504 119.019L225.699 120.173Z" fill="white"/>
<path d="M228.342 118.646L226.714 119.587L226.52 118.432L228.147 117.491L228.342 118.646Z" fill="white"/>
<path d="M234.543 115.068L229.406 118.037L229.211 116.882L234.348 113.914L234.543 115.068Z" fill="white"/>
<path d="M237.187 113.541L235.559 114.481L235.364 113.326L236.991 112.386L237.187 113.541Z" fill="white"/>
<path d="M235.052 117.669L232.43 119.185L232.235 118.03L234.857 116.514L235.052 117.669Z" fill="white"/>
<path d="M241.207 114.112L236.069 117.082L235.874 115.927L241.012 112.957L241.207 114.112Z" fill="white"/>
<path d="M243.849 112.584L242.221 113.525L242.027 112.371L243.654 111.43L243.849 112.584Z" fill="white"/>
<path d="M222.735 124.783L217.37 127.884L217.175 126.729L222.539 123.628L222.735 124.783Z" fill="white"/>
<path d="M227.63 121.954L223.751 124.196L223.556 123.041L227.435 120.799L227.63 121.954Z" fill="white"/>
<path d="M231.268 119.851L228.646 121.366L228.451 120.211L231.073 118.696L231.268 119.851Z" fill="white"/>
<path d="M256.699 108.081L251.334 111.181L251.139 110.027L256.504 106.926L256.699 108.081Z" fill="white"/>
<path d="M261.594 105.252L257.714 107.493L257.52 106.338L261.399 104.097L261.594 105.252Z" fill="white"/>
<path d="M265.232 103.149L262.61 104.664L262.415 103.509L265.037 101.994L265.232 103.149Z" fill="white"/>
<path d="M254.603 142.94L259.967 139.84L260.163 140.994L254.798 144.095L254.603 142.94Z" fill="white"/>
<path d="M249.707 145.77L253.586 143.528L253.782 144.683L249.902 146.925L249.707 145.77Z" fill="white"/>
<path d="M246.068 147.873L248.691 146.358L248.886 147.513L246.263 149.028L246.068 147.873Z" fill="white"/>
<path d="M252.822 146.876L258.187 143.775L258.382 144.93L253.017 148.031L252.822 146.876Z" fill="white"/>
<path d="M247.926 149.706L251.805 147.463L252.001 148.618L248.121 150.861L247.926 149.706Z" fill="white"/>
<path d="M244.287 151.809L246.91 150.294L247.105 151.448L244.482 152.964L244.287 151.809Z" fill="white"/>
<path d="M231.16 141.997L232.972 140.95L233.167 142.105L231.355 143.152L231.16 141.997Z" fill="white"/>
<path d="M227.749 143.968L230.143 142.585L230.339 143.739L227.944 145.123L227.749 143.968Z" fill="white"/>
<path d="M223.214 127.405L217.849 130.506L217.654 129.351L223.019 126.25L223.214 127.405Z" fill="white"/>
<path d="M228.109 124.576L224.23 126.819L224.034 125.664L227.914 123.421L228.109 124.576Z" fill="white"/>
<path d="M231.748 122.473L229.126 123.989L228.931 122.834L231.553 121.318L231.748 122.473Z" fill="white"/>
<path d="M220.106 132.097L218.295 133.145L218.1 131.99L219.911 130.942L220.106 132.097Z" fill="white"/>
<path d="M223.518 130.126L221.123 131.51L220.928 130.355L223.323 128.971L223.518 130.126Z" fill="white"/>
<path d="M228.392 127.308L224.534 129.538L224.339 128.384L228.197 126.153L228.392 127.308Z" fill="white"/>
<path d="M233.624 149.271L235.436 148.224L235.631 149.379L233.819 150.426L233.624 149.271Z" fill="white"/>
<path d="M230.213 151.242L232.608 149.859L232.803 151.014L230.408 152.397L230.213 151.242Z" fill="white"/>
<path d="M225.339 154.06L229.197 151.83L229.392 152.985L225.534 155.215L225.339 154.06Z" fill="white"/>
<path d="M236.385 144.988L240.242 142.758L240.437 143.913L236.58 146.143L236.385 144.988Z" fill="white"/>
<path d="M230.074 148.429L235.275 145.423L235.47 146.578L230.269 149.584L230.074 148.429Z" fill="white"/>
<path d="M227.431 149.956L229.058 149.016L229.253 150.17L227.626 151.111L227.431 149.956Z" fill="white"/>
<path d="M224.895 151.422L226.522 150.482L226.717 151.637L225.089 152.577L224.895 151.422Z" fill="white"/>
<path d="M225.242 136.514L230.38 133.546L230.575 134.701L225.437 137.669L225.242 136.514Z" fill="white"/>
<path d="M222.599 138.043L224.226 137.102L224.421 138.257L222.794 139.198L222.599 138.043Z" fill="white"/>
<path d="M225.596 133.412L227.407 132.366L227.602 133.521L225.791 134.567L225.596 133.412Z" fill="white"/>
<path d="M231.993 135.527L233.806 134.479L234.001 135.634L232.188 136.682L231.993 135.527Z" fill="white"/>
<path d="M234.575 134.036L238.924 131.524L239.118 132.679L234.77 135.19L234.575 134.036Z" fill="white"/>
<path d="M239.695 131.08L242.281 129.586L242.476 130.741L239.89 132.235L239.695 131.08Z" fill="white"/>
<path d="M222.186 135.384L224.58 134L224.775 135.155L222.381 136.539L222.186 135.384Z" fill="white"/>
<path d="M221.96 132.674L223.772 131.626L223.967 132.781L222.155 133.829L221.96 132.674Z" fill="white"/>
<path d="M218.549 134.645L220.944 133.26L221.139 134.415L218.744 135.8L218.549 134.645Z" fill="white"/>
<path d="M229.363 137.044L230.99 136.104L231.185 137.259L229.558 138.199L229.363 137.044Z" fill="white"/>
<path d="M226.827 138.511L228.454 137.57L228.649 138.725L227.022 139.666L226.827 138.511Z" fill="white"/>
<path d="M239.325 151.769L244.876 148.561L245.071 149.716L239.52 152.924L239.325 151.769Z" fill="white"/>
<path d="M233.109 155.362L238.309 152.356L238.504 153.511L233.303 156.517L233.109 155.362Z" fill="white"/>
<path d="M230.466 156.89L232.093 155.95L232.288 157.105L230.661 158.045L230.466 156.89Z" fill="white"/>
<path d="M227.93 158.357L229.557 157.417L229.752 158.571L228.125 159.512L227.93 158.357Z" fill="white"/>
<path d="M226.542 159.158L223.031 161.187L223.226 162.342L226.737 160.313L226.542 159.158Z" fill="white"/>
<path d="M86.243 233.342C84.8903 233.342 83.56 232.986 82.3957 232.315L5.79772 188.091C5.10269 187.69 4.68848 186.971 4.68848 186.168C4.68848 185.366 5.10269 184.646 5.79678 184.243L53.7654 156.55C53.9007 156.471 54.0677 156.471 54.203 156.55L134.429 202.867C135.124 203.269 135.538 203.988 135.538 204.791C135.538 205.593 135.124 206.312 134.429 206.714L90.0894 232.313C88.9251 232.986 87.5957 233.342 86.243 233.342ZM82.8332 231.557C84.8968 232.747 87.5901 232.747 89.6519 231.557L133.992 205.958C134.412 205.714 134.664 205.279 134.664 204.793C134.664 204.306 134.412 203.871 133.992 203.627L53.9847 157.436L53.8307 157.525L6.23525 185.002C5.8145 185.245 5.56355 185.682 5.56355 186.168C5.56355 186.655 5.81544 187.089 6.23525 187.332L82.8332 231.557Z" fill="white"/>
<path d="M53.885 138.657L64.5567 75.3451L63.6984 74.9841L64.9877 74.2452L64.9858 74.2527C65.2358 74.0866 65.5894 74.0959 65.9794 74.3217L151.265 123.562C151.965 123.966 152.495 125.003 152.372 125.728L141.615 189.543C141.56 189.875 141.394 190.097 141.166 190.193L139.905 190.921L139.689 189.743L139.761 189.764L54.9915 140.823C54.2918 140.418 53.7619 139.381 53.885 138.657Z" fill="url(#paint104_linear_2581_3173)"/>
<path d="M150.791 125.292L152.193 124.671C152.35 125.03 152.427 125.408 152.373 125.726L141.617 189.541C141.561 189.874 141.396 190.095 141.167 190.191L139.907 190.919L139.69 189.741L139.762 189.763L135.473 187.286L150.791 125.292Z" fill="url(#paint105_linear_2581_3173)"/>
<path d="M53.6555 141.59L138.941 190.829C139.599 191.209 140.163 190.989 140.279 190.307L151.035 126.492C151.158 125.767 150.628 124.73 149.928 124.326L64.6424 75.0867C63.9838 74.706 63.4203 74.9262 63.3046 75.6082L52.5481 139.423C52.425 140.148 52.9549 141.186 53.6555 141.59Z" fill="white"/>
<path d="M65.7561 79.1608L147.965 126.625L137.771 186.724L55.6172 139.294L65.7561 79.1608Z" fill="#0F272C"/>
<path d="M0.0449219 171.802L4.69924 174.232L51.3693 147.287C52.1501 146.836 53.514 146.892 54.4152 147.413L134.908 193.885C135.679 193.454 139.19 191.765 139.19 191.765L137.487 196.204L137.48 196.199C137.409 196.396 137.258 196.58 137.003 196.727L87.85 225.105C87.0691 225.556 85.7052 225.5 84.804 224.979L2.43412 177.423C2.06375 177.209 1.83705 176.95 1.74283 176.688L1.73629 176.691L0.0449219 171.802Z" fill="#49A8FF"/>
<path d="M0.764876 172.568L85.1835 221.307C86.108 221.841 87.5055 221.899 88.305 221.437L138.681 192.352C139.481 191.891 139.38 191.084 138.457 190.55L54.0381 141.811C53.1145 141.277 51.7161 141.219 50.9165 141.681L0.540978 170.766C-0.260396 171.227 -0.159643 172.034 0.764876 172.568Z" fill="url(#paint106_linear_2581_3173)"/>
<path d="M0.764597 172.081L85.1832 220.82C86.1068 221.354 87.5052 221.412 88.3047 220.95L138.68 191.865C138.942 191.714 139.098 191.524 139.17 191.321C139.297 191.7 139.145 192.084 138.68 192.351L88.3047 221.436C87.5043 221.898 86.1068 221.84 85.1832 221.306L0.764597 172.567C0.143275 172.208 -0.0964837 171.727 0.0509169 171.309C0.142343 171.585 0.375571 171.857 0.764597 172.081Z" fill="white"/>
<path d="M110.646 210.763V209.837C110.646 209.749 110.592 209.709 110.526 209.747L107.261 211.632C107.195 211.67 107.142 211.772 107.142 211.86V212.785C107.142 212.873 107.195 212.913 107.261 212.876L110.526 210.99C110.592 210.953 110.646 210.851 110.646 210.763Z" fill="#2842A2"/>
<path d="M105.763 213.583V212.657C105.763 212.57 105.71 212.529 105.643 212.567L102.378 214.452C102.313 214.49 102.259 214.592 102.259 214.68V215.606C102.259 215.694 102.312 215.734 102.378 215.697L105.643 213.811C105.71 213.772 105.763 213.67 105.763 213.583Z" fill="#2842A2"/>
<path d="M125.547 189.627L55.3958 149.126C54.9284 148.856 54.3519 148.856 53.8845 149.127L28.9038 163.579C28.5446 163.786 28.5456 164.305 28.9038 164.512L99.0227 204.995C99.49 205.265 100.066 205.265 100.532 204.995L125.546 190.56C125.906 190.353 125.906 189.834 125.547 189.627Z" fill="#D3EAFF"/>
<path d="M125.548 190.56L125.297 190.705L55.3961 150.348C54.9288 150.078 54.3522 150.078 53.8848 150.349L29.1551 164.657L28.9041 164.512C28.545 164.305 28.545 163.787 28.9041 163.579L53.8848 149.127C54.3522 148.856 54.9288 148.856 55.3961 149.126L125.548 189.627C125.907 189.834 125.907 190.353 125.548 190.56Z" fill="#3C88AB"/>
<path d="M57.8672 156.175L117.247 190.458L119.813 188.81L60.5876 154.617L57.8672 156.175Z" fill="#24126A"/>
<path d="M54.0117 161.618L107.923 192.744L109.77 190.682L56.719 160.053L54.0117 161.618Z" fill="#24126A"/>
<path d="M41.0303 159.12L108.325 197.972L111.035 196.408L43.7395 157.556L41.0303 159.12Z" fill="#24126A"/>
<path d="M36.7031 161.617L103.998 200.471L106.707 198.906L39.4123 160.053L36.7031 161.617Z" fill="#24126A"/>
<path d="M32.377 164.115L99.6719 202.968L102.382 201.403L35.0861 162.551L32.377 164.115Z" fill="#24126A"/>
<path d="M116.617 190.094L119.326 191.658L122.036 190.094L119.326 188.53L116.617 190.094Z" fill="#24126A"/>
<path d="M107.061 192.247L112.684 195.493L115.393 193.929L109.77 190.682L107.061 192.247Z" fill="#24126A"/>
<path d="M52.6945 199.429L33.7788 188.508C33.0399 188.081 33.0399 187.389 33.7788 186.962L46.7136 179.494C47.4525 179.067 48.6513 179.067 49.3911 179.494L68.3069 190.415C69.0458 190.842 69.0458 191.533 68.3069 191.961L55.372 199.429C54.6331 199.856 53.4343 199.856 52.6945 199.429Z" fill="#D3EAFF"/>
<path d="M68.3062 191.048L49.3914 180.127C48.6525 179.701 47.4537 179.701 46.7139 180.127L33.7791 187.595C33.5505 187.727 33.4022 187.886 33.3145 188.053C33.1185 187.679 33.2678 187.259 33.7791 186.964L46.7139 179.496C47.4528 179.069 48.6516 179.069 49.3914 179.496L68.3062 190.417C68.8175 190.711 68.9668 191.132 68.7708 191.506C68.6841 191.337 68.5348 191.18 68.3062 191.048Z" fill="#3C88AB"/>
<g opacity="0.11">
<mask id="mask1_2581_3173" style="mask-type:luminance" maskUnits="userSpaceOnUse" x="55" y="79" width="93" height="108">
<path d="M65.7561 79.1609L147.965 126.625L137.771 186.724L55.6172 139.294L65.7561 79.1609Z" fill="white"/>
</mask>
<g mask="url(#mask1_2581_3173)">
<path d="M53.9546 141.71L138.373 190.449C139.297 190.983 140.695 191.041 141.495 190.579L191.87 161.494C192.671 161.032 192.57 160.226 191.646 159.692L107.228 110.953C106.304 110.419 104.906 110.361 104.106 110.823L53.7307 139.908C52.9303 140.369 53.031 141.176 53.9546 141.71Z" fill="url(#paint107_linear_2581_3173)"/>
<path d="M138.624 150.448L119.708 139.527C118.97 139.1 118.97 138.408 119.708 137.981L132.643 130.513C133.382 130.086 134.581 130.086 135.321 130.513L154.237 141.434C154.976 141.861 154.976 142.552 154.237 142.98L141.302 150.448C140.563 150.875 139.364 150.875 138.624 150.448Z" fill="url(#paint108_linear_2581_3173)"/>
<path d="M154.236 142.066L135.321 131.146C134.581 130.718 133.383 130.718 132.644 131.146L119.709 138.614C119.48 138.745 119.332 138.904 119.244 139.071C119.048 138.698 119.197 138.277 119.709 137.982L132.644 130.514C133.382 130.087 134.581 130.087 135.321 130.514L154.237 141.435C154.748 141.73 154.897 142.15 154.701 142.523C154.614 142.356 154.464 142.199 154.236 142.066Z" fill="#3C88AB"/>
<path d="M162.551 167.514L92.3996 127.013C91.9322 126.743 91.3557 126.743 90.8883 127.014L65.9076 141.466C65.5484 141.674 65.5493 142.192 65.9085 142.399L136.027 182.882C136.495 183.152 137.07 183.152 137.537 182.882L162.551 168.447C162.91 168.24 162.91 167.722 162.551 167.514Z" fill="url(#paint109_linear_2581_3173)"/>
<path d="M162.551 168.447L162.3 168.592L92.3992 128.235C91.9318 127.964 91.3553 127.965 90.8879 128.236L66.1582 142.544L65.9072 142.399C65.548 142.192 65.548 141.674 65.9063 141.466L90.8869 127.014C91.3543 126.743 91.9309 126.743 92.3983 127.013L162.55 167.515C162.91 167.722 162.91 168.24 162.551 168.447Z" fill="#3C88AB"/>
<path d="M72.4453 140.48L133.56 175.765L131.139 177.163L70.0244 141.879L72.4453 140.48Z" fill="#24126A"/>
<path d="M78.8848 136.763L136.973 170.3L134.552 171.697L76.4639 138.161L78.8848 136.763Z" fill="#24126A"/>
<path d="M141.31 172.805L146.735 175.937L144.315 177.334L138.889 174.202L141.31 172.805Z" fill="#24126A"/>
<path d="M136.518 177.473L140.296 179.654L137.875 181.052L134.097 178.871L136.518 177.473Z" fill="#24126A"/>
<path d="M82.919 134.433L150.77 173.607L148.349 175.005L80.498 135.832L82.919 134.433Z" fill="#24126A"/>
<path d="M86.9531 132.104L154.804 171.278L152.383 172.675L84.5322 133.501L86.9531 132.104Z" fill="#24126A"/>
<path d="M90.9883 129.774L158.839 168.948L156.418 170.346L88.5674 131.173L90.9883 129.774Z" fill="#24126A"/>
</g>
</g>
<path d="M84.1631 101.438L90.8138 105.281L91.0088 104.126L84.3581 100.283L84.1631 101.438Z" fill="white"/>
<path d="M91.8838 105.895L95.5072 107.99L95.7022 106.835L92.0788 104.74L91.8838 105.895Z" fill="white"/>
<path d="M101.146 111.245L103.768 112.76L103.963 111.605L101.341 110.09L101.146 111.245Z" fill="white"/>
<path d="M99.2344 110.139L100.13 110.657L100.325 109.502L99.4294 108.984L99.2344 110.139Z" fill="white"/>
<path d="M96.5908 108.611L98.2178 109.552L98.4128 108.397L96.7858 107.456L96.5908 108.611Z" fill="white"/>
<path d="M89.4248 110.271L92.0463 111.787L92.2413 110.632L89.6198 109.116L89.4248 110.271Z" fill="white"/>
<path d="M83.2715 106.714L88.4091 109.684L88.604 108.529L83.4665 105.559L83.2715 106.714Z" fill="white"/>
<path d="M90.6367 125.432L95.7743 128.401L95.9693 127.246L90.8317 124.276L90.6367 125.432Z" fill="white"/>
<path d="M87.9932 123.904L89.6211 124.845L89.8161 123.69L88.1891 122.749L87.9932 123.904Z" fill="white"/>
<path d="M91.4951 120.148L96.6327 123.118L96.8277 121.963L91.6901 118.993L91.4951 120.148Z" fill="white"/>
<path d="M88.8516 118.62L90.4786 119.561L90.6735 118.406L89.0465 117.465L88.8516 118.62Z" fill="white"/>
<path d="M86.8447 148.234L77.1667 142.64L76.9717 143.795L86.6498 149.389L86.8447 148.234Z" fill="white"/>
<path d="M90.2558 150.205L87.861 148.821L87.666 149.976L90.0608 151.36L90.2558 150.205Z" fill="white"/>
<path d="M107.263 151.327L97.5846 145.734L97.3896 146.888L107.068 152.482L107.263 151.327Z" fill="white"/>
<path d="M110.673 153.299L108.278 151.914L108.083 153.069L110.478 154.453L110.673 153.299Z" fill="white"/>
<path d="M80.2334 141.518L77.611 140.002L77.416 141.157L80.0384 142.672L80.2334 141.518Z" fill="white"/>
<path d="M96.1875 144.939L93.566 143.424L93.3701 144.579L95.9925 146.094L96.1875 144.939Z" fill="white"/>
<path d="M86.3882 145.074L81.2506 142.104L81.0557 143.259L86.1932 146.229L86.3882 145.074Z" fill="white"/>
<path d="M89.0309 146.601L87.403 145.661L87.208 146.816L88.835 147.756L89.0309 146.601Z" fill="white"/>
<path d="M95.2319 150.179L90.0944 147.21L89.8994 148.365L95.037 151.334L95.2319 150.179Z" fill="white"/>
<path d="M97.8757 151.707L96.2487 150.767L96.0537 151.922L97.6807 152.862L97.8757 151.707Z" fill="white"/>
<path d="M95.7413 147.579L93.1198 146.063L92.9248 147.218L95.5463 148.733L95.7413 147.579Z" fill="white"/>
<path d="M101.896 151.135L96.7585 148.166L96.5635 149.321L101.7 152.29L101.896 151.135Z" fill="white"/>
<path d="M104.539 152.662L102.912 151.723L102.717 152.877L104.344 153.817L104.539 152.662Z" fill="white"/>
<path d="M83.4235 140.464L78.0583 137.363L77.8633 138.518L83.2285 141.619L83.4235 140.464Z" fill="white"/>
<path d="M88.3191 143.294L84.4391 141.051L84.2441 142.206L88.1241 144.449L88.3191 143.294Z" fill="white"/>
<path d="M91.9561 145.397L89.3346 143.882L89.1396 145.036L91.7612 146.552L91.9561 145.397Z" fill="white"/>
<path d="M117.387 157.166L112.022 154.065L111.827 155.22L117.192 158.321L117.387 157.166Z" fill="white"/>
<path d="M122.283 159.996L118.403 157.754L118.208 158.909L122.088 161.151L122.283 159.996Z" fill="white"/>
<path d="M125.921 162.099L123.298 160.584L123.104 161.739L125.726 163.254L125.921 162.099Z" fill="white"/>
<path d="M115.292 122.307L120.657 125.407L120.852 124.252L115.487 121.152L115.292 122.307Z" fill="white"/>
<path d="M110.396 119.478L114.275 121.719L114.47 120.564L110.59 118.323L110.396 119.478Z" fill="white"/>
<path d="M106.757 117.375L109.379 118.89L109.574 117.735L106.952 116.22L106.757 117.375Z" fill="white"/>
<path d="M113.511 118.371L118.876 121.472L119.071 120.317L113.706 117.216L113.511 118.371Z" fill="white"/>
<path d="M108.614 115.542L112.494 117.784L112.689 116.629L108.809 114.387L108.614 115.542Z" fill="white"/>
<path d="M104.976 113.439L107.598 114.954L107.793 113.799L105.171 112.284L104.976 113.439Z" fill="white"/>
<path d="M91.8486 123.25L93.6604 124.298L93.8553 123.143L92.0436 122.095L91.8486 123.25Z" fill="white"/>
<path d="M88.4375 121.279L90.8323 122.663L91.0273 121.508L88.6325 120.124L88.4375 121.279Z" fill="white"/>
<path d="M83.903 137.842L78.5378 134.741L78.3428 135.896L83.707 138.997L83.903 137.842Z" fill="white"/>
<path d="M88.7986 140.672L84.9186 138.429L84.7236 139.584L88.6027 141.827L88.7986 140.672Z" fill="white"/>
<path d="M92.4366 142.774L89.8151 141.258L89.6201 142.413L92.2416 143.929L92.4366 142.774Z" fill="white"/>
<path d="M80.7957 133.15L78.9831 132.103L78.7881 133.258L80.6007 134.305L80.7957 133.15Z" fill="white"/>
<path d="M84.207 135.122L81.8122 133.737L81.6172 134.892L84.012 136.277L84.207 135.122Z" fill="white"/>
<path d="M89.0809 137.939L85.2223 135.708L85.0273 136.863L88.8859 139.094L89.0809 137.939Z" fill="white"/>
<path d="M94.3125 115.976L96.1252 117.023L96.3201 115.868L94.5075 114.821L94.3125 115.976Z" fill="white"/>
<path d="M90.9023 114.004L93.2971 115.389L93.4921 114.234L91.0973 112.85L90.9023 114.004Z" fill="white"/>
<path d="M86.0273 111.188L89.8859 113.417L90.0809 112.263L86.2223 110.033L86.0273 111.188Z" fill="white"/>
<path d="M97.0732 120.259L100.932 122.489L101.127 121.334L97.2682 119.104L97.0732 120.259Z" fill="white"/>
<path d="M90.7627 116.819L95.9637 119.825L96.1587 118.67L90.9577 115.664L90.7627 116.819Z" fill="white"/>
<path d="M88.1191 115.292L89.7461 116.232L89.9411 115.077L88.3141 114.137L88.1191 115.292Z" fill="white"/>
<path d="M85.583 113.825L87.21 114.765L87.405 113.61L85.778 112.67L85.583 113.825Z" fill="white"/>
<path d="M85.9307 128.732L91.0682 131.702L91.2632 130.547L86.1256 127.578L85.9307 128.732Z" fill="white"/>
<path d="M83.2871 127.205L84.9141 128.145L85.1091 126.99L83.4821 126.05L83.2871 127.205Z" fill="white"/>
<path d="M86.2842 131.835L88.0959 132.882L88.2918 131.727L86.4792 130.68L86.2842 131.835Z" fill="white"/>
<path d="M92.6826 129.721L94.4943 130.769L94.6893 129.613L92.8776 128.566L92.6826 129.721Z" fill="white"/>
<path d="M95.2646 131.212L99.612 133.723L99.807 132.568L95.4587 130.057L95.2646 131.212Z" fill="white"/>
<path d="M100.384 134.167L102.97 135.662L103.165 134.507L100.579 133.012L100.384 134.167Z" fill="white"/>
<path d="M82.874 129.864L85.2688 131.247L85.4638 130.092L83.069 128.709L82.874 129.864Z" fill="white"/>
<path d="M82.6484 132.574L84.4602 133.622L84.6551 132.467L82.8434 131.419L82.6484 132.574Z" fill="white"/>
<path d="M79.2373 130.603L81.6321 131.987L81.8271 130.832L79.4323 129.448L79.2373 130.603Z" fill="white"/>
<path d="M90.0518 128.203L91.6788 129.144L91.8737 127.989L90.2467 127.048L90.0518 128.203Z" fill="white"/>
<path d="M87.5156 126.737L89.1426 127.678L89.3376 126.523L87.7106 125.582L87.5156 126.737Z" fill="white"/>
<path d="M100.015 113.478L105.565 116.686L105.76 115.531L100.21 112.323L100.015 113.478Z" fill="white"/>
<path d="M93.7979 109.884L98.9979 112.89L99.1929 111.736L93.9928 108.73L93.7979 109.884Z" fill="white"/>
<path d="M91.1543 108.357L92.7813 109.298L92.9772 108.143L91.3493 107.202L91.1543 108.357Z" fill="white"/>
<path d="M88.6182 106.891L90.2452 107.831L90.4402 106.676L88.8131 105.736L88.6182 106.891Z" fill="white"/>
<path d="M87.2312 106.089L83.7197 104.06L83.9147 102.905L87.4262 104.934L87.2312 106.089Z" fill="white"/>
<path d="M51.999 152.786L54.7082 154.351L57.4174 152.786L54.7082 151.222L51.999 152.786Z" fill="#24126A"/>
<path d="M45.3564 156.622L50.9801 159.868L53.6892 158.304L48.0656 155.057L45.3564 156.622Z" fill="#24126A"/>
<defs>
<linearGradient id="paint0_linear_2581_3173" x1="68.4009" y1="34.7233" x2="68.4009" y2="113.705" gradientUnits="userSpaceOnUse">
<stop stop-color="#49A8FF"/>
<stop offset="1" stop-color="white"/>
</linearGradient>
<linearGradient id="paint1_linear_2581_3173" x1="54.6025" y1="53.5782" x2="54.6025" y2="73.796" gradientUnits="userSpaceOnUse">
<stop stop-color="#49A8FF"/>
<stop offset="1" stop-color="white"/>
</linearGradient>
<linearGradient id="paint2_linear_2581_3173" x1="88.2376" y1="0" x2="88.2376" y2="114.752" gradientUnits="userSpaceOnUse">
<stop stop-color="#49A8FF"/>
<stop offset="1" stop-color="white"/>
</linearGradient>
<linearGradient id="paint3_linear_2581_3173" x1="39.8333" y1="82.2044" x2="56.4568" y2="82.2044" gradientUnits="userSpaceOnUse">
<stop stop-color="#5761D7"/>
<stop offset="0.1779" stop-color="#5C66D9"/>
<stop offset="0.3876" stop-color="#6A73DF"/>
<stop offset="0.6134" stop-color="#8289E8"/>
<stop offset="0.849" stop-color="#A3A7F5"/>
<stop offset="1" stop-color="#BCBEFF"/>
</linearGradient>
<linearGradient id="paint4_linear_2581_3173" x1="272.091" y1="40.24" x2="272.091" y2="117.306" gradientUnits="userSpaceOnUse">
<stop stop-color="#49A8FF"/>
<stop offset="1" stop-color="white"/>
</linearGradient>
<linearGradient id="paint5_linear_2581_3173" x1="272.084" y1="34.7233" x2="272.084" y2="113.705" gradientUnits="userSpaceOnUse">
<stop stop-color="#49A8FF"/>
<stop offset="1" stop-color="white"/>
</linearGradient>
<linearGradient id="paint6_linear_2581_3173" x1="216.815" y1="78.9677" x2="306.048" y2="78.9782" gradientUnits="userSpaceOnUse">
<stop stop-color="white"/>
<stop offset="1" stop-color="#47A3F7"/>
</linearGradient>
<linearGradient id="paint7_linear_2581_3173" x1="285.881" y1="53.5782" x2="285.881" y2="73.796" gradientUnits="userSpaceOnUse">
<stop stop-color="#49A8FF"/>
<stop offset="1" stop-color="white"/>
</linearGradient>
<linearGradient id="paint8_linear_2581_3173" x1="300.652" y1="57.3768" x2="203.841" y2="57.3768" gradientUnits="userSpaceOnUse">
<stop stop-color="#C0BFF6"/>
<stop offset="0.2938" stop-color="#C5C4F7"/>
<stop offset="0.6399" stop-color="#D3D2F9"/>
<stop offset="1" stop-color="#E9E9FD"/>
</linearGradient>
<linearGradient id="paint9_linear_2581_3173" x1="209.257" y1="95.0586" x2="209.257" y2="165.646" gradientUnits="userSpaceOnUse">
<stop stop-color="#49A8FF"/>
<stop offset="1" stop-color="white"/>
</linearGradient>
<linearGradient id="paint10_linear_2581_3173" x1="140.398" y1="130.594" x2="140.398" y2="140.438" gradientUnits="userSpaceOnUse">
<stop stop-color="#49A8FF"/>
<stop offset="1" stop-color="white"/>
</linearGradient>
<linearGradient id="paint11_linear_2581_3173" x1="129.381" y1="127.224" x2="129.381" y2="131.12" gradientUnits="userSpaceOnUse">
<stop stop-color="#49A8FF"/>
<stop offset="1" stop-color="white"/>
</linearGradient>
<linearGradient id="paint12_linear_2581_3173" x1="109.445" y1="114.56" x2="109.445" y2="120.768" gradientUnits="userSpaceOnUse">
<stop stop-color="#49A8FF"/>
<stop offset="1" stop-color="white"/>
</linearGradient>
<linearGradient id="paint13_linear_2581_3173" x1="117.677" y1="119.939" x2="117.677" y2="124.895" gradientUnits="userSpaceOnUse">
<stop stop-color="#49A8FF"/>
<stop offset="1" stop-color="white"/>
</linearGradient>
<linearGradient id="paint14_linear_2581_3173" x1="123.906" y1="124.067" x2="123.906" y2="127.963" gradientUnits="userSpaceOnUse">
<stop stop-color="#49A8FF"/>
<stop offset="1" stop-color="white"/>
</linearGradient>
<linearGradient id="paint15_linear_2581_3173" x1="170.323" y1="70.6926" x2="170.323" y2="73.5539" gradientUnits="userSpaceOnUse">
<stop stop-color="#49A8FF"/>
<stop offset="1" stop-color="white"/>
</linearGradient>
<linearGradient id="paint16_linear_2581_3173" x1="175.279" y1="73.5538" x2="175.279" y2="76.4141" gradientUnits="userSpaceOnUse">
<stop stop-color="#49A8FF"/>
<stop offset="1" stop-color="white"/>
</linearGradient>
<linearGradient id="paint17_linear_2581_3173" x1="180.234" y1="76.4141" x2="180.234" y2="79.2753" gradientUnits="userSpaceOnUse">
<stop stop-color="#49A8FF"/>
<stop offset="1" stop-color="white"/>
</linearGradient>
<linearGradient id="paint18_linear_2581_3173" x1="185.189" y1="79.2754" x2="185.189" y2="82.1366" gradientUnits="userSpaceOnUse">
<stop stop-color="#49A8FF"/>
<stop offset="1" stop-color="white"/>
</linearGradient>
<linearGradient id="paint19_linear_2581_3173" x1="190.145" y1="82.1366" x2="190.145" y2="84.9978" gradientUnits="userSpaceOnUse">
<stop stop-color="#49A8FF"/>
<stop offset="1" stop-color="white"/>
</linearGradient>
<linearGradient id="paint20_linear_2581_3173" x1="195.1" y1="84.9979" x2="195.1" y2="87.8592" gradientUnits="userSpaceOnUse">
<stop stop-color="#49A8FF"/>
<stop offset="1" stop-color="white"/>
</linearGradient>
<linearGradient id="paint21_linear_2581_3173" x1="200.056" y1="87.8591" x2="200.056" y2="90.7204" gradientUnits="userSpaceOnUse">
<stop stop-color="#49A8FF"/>
<stop offset="1" stop-color="white"/>
</linearGradient>
<linearGradient id="paint22_linear_2581_3173" x1="205.012" y1="90.7205" x2="205.012" y2="93.5817" gradientUnits="userSpaceOnUse">
<stop stop-color="#49A8FF"/>
<stop offset="1" stop-color="white"/>
</linearGradient>
<linearGradient id="paint23_linear_2581_3173" x1="209.968" y1="93.5817" x2="209.968" y2="96.4429" gradientUnits="userSpaceOnUse">
<stop stop-color="#49A8FF"/>
<stop offset="1" stop-color="white"/>
</linearGradient>
<linearGradient id="paint24_linear_2581_3173" x1="165.347" y1="73.5649" x2="165.347" y2="76.4262" gradientUnits="userSpaceOnUse">
<stop stop-color="#49A8FF"/>
<stop offset="1" stop-color="white"/>
</linearGradient>
<linearGradient id="paint25_linear_2581_3173" x1="170.303" y1="76.4263" x2="170.303" y2="79.2875" gradientUnits="userSpaceOnUse">
<stop stop-color="#49A8FF"/>
<stop offset="1" stop-color="white"/>
</linearGradient>
<linearGradient id="paint26_linear_2581_3173" x1="175.258" y1="79.2875" x2="175.258" y2="82.1487" gradientUnits="userSpaceOnUse">
<stop stop-color="#49A8FF"/>
<stop offset="1" stop-color="white"/>
</linearGradient>
<linearGradient id="paint27_linear_2581_3173" x1="180.214" y1="82.1487" x2="180.214" y2="85.009" gradientUnits="userSpaceOnUse">
<stop stop-color="#49A8FF"/>
<stop offset="1" stop-color="white"/>
</linearGradient>
<linearGradient id="paint28_linear_2581_3173" x1="185.17" y1="85.009" x2="185.17" y2="87.8703" gradientUnits="userSpaceOnUse">
<stop stop-color="#49A8FF"/>
<stop offset="1" stop-color="white"/>
</linearGradient>
<linearGradient id="paint29_linear_2581_3173" x1="190.125" y1="87.8702" x2="190.125" y2="90.7315" gradientUnits="userSpaceOnUse">
<stop stop-color="#49A8FF"/>
<stop offset="1" stop-color="white"/>
</linearGradient>
<linearGradient id="paint30_linear_2581_3173" x1="195.081" y1="90.7316" x2="195.081" y2="93.5928" gradientUnits="userSpaceOnUse">
<stop stop-color="#49A8FF"/>
<stop offset="1" stop-color="white"/>
</linearGradient>
<linearGradient id="paint31_linear_2581_3173" x1="200.036" y1="93.5928" x2="200.036" y2="96.454" gradientUnits="userSpaceOnUse">
<stop stop-color="#49A8FF"/>
<stop offset="1" stop-color="white"/>
</linearGradient>
<linearGradient id="paint32_linear_2581_3173" x1="204.992" y1="96.4541" x2="204.992" y2="99.3154" gradientUnits="userSpaceOnUse">
<stop stop-color="#49A8FF"/>
<stop offset="1" stop-color="white"/>
</linearGradient>
<linearGradient id="paint33_linear_2581_3173" x1="160.37" y1="76.4374" x2="160.37" y2="79.2986" gradientUnits="userSpaceOnUse">
<stop stop-color="#49A8FF"/>
<stop offset="1" stop-color="white"/>
</linearGradient>
<linearGradient id="paint34_linear_2581_3173" x1="165.325" y1="79.2987" x2="165.325" y2="82.16" gradientUnits="userSpaceOnUse">
<stop stop-color="#49A8FF"/>
<stop offset="1" stop-color="white"/>
</linearGradient>
<linearGradient id="paint35_linear_2581_3173" x1="170.282" y1="82.1599" x2="170.282" y2="85.0212" gradientUnits="userSpaceOnUse">
<stop stop-color="#49A8FF"/>
<stop offset="1" stop-color="white"/>
</linearGradient>
<linearGradient id="paint36_linear_2581_3173" x1="175.237" y1="85.0212" x2="175.237" y2="87.8825" gradientUnits="userSpaceOnUse">
<stop stop-color="#49A8FF"/>
<stop offset="1" stop-color="white"/>
</linearGradient>
<linearGradient id="paint37_linear_2581_3173" x1="180.193" y1="87.8823" x2="180.193" y2="90.7436" gradientUnits="userSpaceOnUse">
<stop stop-color="#49A8FF"/>
<stop offset="1" stop-color="white"/>
</linearGradient>
<linearGradient id="paint38_linear_2581_3173" x1="185.149" y1="90.7437" x2="185.149" y2="93.6049" gradientUnits="userSpaceOnUse">
<stop stop-color="#49A8FF"/>
<stop offset="1" stop-color="white"/>
</linearGradient>
<linearGradient id="paint39_linear_2581_3173" x1="190.105" y1="93.6049" x2="190.105" y2="96.4652" gradientUnits="userSpaceOnUse">
<stop stop-color="#49A8FF"/>
<stop offset="1" stop-color="white"/>
</linearGradient>
<linearGradient id="paint40_linear_2581_3173" x1="195.06" y1="96.4662" x2="195.06" y2="99.3265" gradientUnits="userSpaceOnUse">
<stop stop-color="#49A8FF"/>
<stop offset="1" stop-color="white"/>
</linearGradient>
<linearGradient id="paint41_linear_2581_3173" x1="200.016" y1="99.3265" x2="200.016" y2="102.188" gradientUnits="userSpaceOnUse">
<stop stop-color="#49A8FF"/>
<stop offset="1" stop-color="white"/>
</linearGradient>
<linearGradient id="paint42_linear_2581_3173" x1="155.395" y1="79.3109" x2="155.395" y2="82.1712" gradientUnits="userSpaceOnUse">
<stop stop-color="#49A8FF"/>
<stop offset="1" stop-color="white"/>
</linearGradient>
<linearGradient id="paint43_linear_2581_3173" x1="160.35" y1="82.1722" x2="160.35" y2="85.0326" gradientUnits="userSpaceOnUse">
<stop stop-color="#49A8FF"/>
<stop offset="1" stop-color="white"/>
</linearGradient>
<linearGradient id="paint44_linear_2581_3173" x1="165.306" y1="85.0325" x2="165.306" y2="87.8937" gradientUnits="userSpaceOnUse">
<stop stop-color="#49A8FF"/>
<stop offset="1" stop-color="white"/>
</linearGradient>
<linearGradient id="paint45_linear_2581_3173" x1="170.262" y1="87.8937" x2="170.262" y2="90.7549" gradientUnits="userSpaceOnUse">
<stop stop-color="#49A8FF"/>
<stop offset="1" stop-color="white"/>
</linearGradient>
<linearGradient id="paint46_linear_2581_3173" x1="175.217" y1="90.755" x2="175.217" y2="93.6163" gradientUnits="userSpaceOnUse">
<stop stop-color="#49A8FF"/>
<stop offset="1" stop-color="white"/>
</linearGradient>
<linearGradient id="paint47_linear_2581_3173" x1="180.174" y1="93.6162" x2="180.174" y2="96.4775" gradientUnits="userSpaceOnUse">
<stop stop-color="#49A8FF"/>
<stop offset="1" stop-color="white"/>
</linearGradient>
<linearGradient id="paint48_linear_2581_3173" x1="185.13" y1="96.4775" x2="185.13" y2="99.3388" gradientUnits="userSpaceOnUse">
<stop stop-color="#49A8FF"/>
<stop offset="1" stop-color="white"/>
</linearGradient>
<linearGradient id="paint49_linear_2581_3173" x1="190.084" y1="99.3387" x2="190.084" y2="102.2" gradientUnits="userSpaceOnUse">
<stop stop-color="#49A8FF"/>
<stop offset="1" stop-color="white"/>
</linearGradient>
<linearGradient id="paint50_linear_2581_3173" x1="195.04" y1="102.2" x2="195.04" y2="105.061" gradientUnits="userSpaceOnUse">
<stop stop-color="#49A8FF"/>
<stop offset="1" stop-color="white"/>
</linearGradient>
<linearGradient id="paint51_linear_2581_3173" x1="150.42" y1="82.1833" x2="150.42" y2="85.0446" gradientUnits="userSpaceOnUse">
<stop stop-color="#49A8FF"/>
<stop offset="1" stop-color="white"/>
</linearGradient>
<linearGradient id="paint52_linear_2581_3173" x1="155.375" y1="85.0447" x2="155.375" y2="87.9059" gradientUnits="userSpaceOnUse">
<stop stop-color="#49A8FF"/>
<stop offset="1" stop-color="white"/>
</linearGradient>
<linearGradient id="paint53_linear_2581_3173" x1="160.331" y1="87.9059" x2="160.331" y2="90.7662" gradientUnits="userSpaceOnUse">
<stop stop-color="#49A8FF"/>
<stop offset="1" stop-color="white"/>
</linearGradient>
<linearGradient id="paint54_linear_2581_3173" x1="165.286" y1="90.7661" x2="165.286" y2="93.6274" gradientUnits="userSpaceOnUse">
<stop stop-color="#49A8FF"/>
<stop offset="1" stop-color="white"/>
</linearGradient>
<linearGradient id="paint55_linear_2581_3173" x1="170.242" y1="93.6274" x2="170.242" y2="96.4887" gradientUnits="userSpaceOnUse">
<stop stop-color="#49A8FF"/>
<stop offset="1" stop-color="white"/>
</linearGradient>
<linearGradient id="paint56_linear_2581_3173" x1="175.199" y1="96.4886" x2="175.199" y2="99.3499" gradientUnits="userSpaceOnUse">
<stop stop-color="#49A8FF"/>
<stop offset="1" stop-color="white"/>
</linearGradient>
<linearGradient id="paint57_linear_2581_3173" x1="180.155" y1="99.35" x2="180.155" y2="102.211" gradientUnits="userSpaceOnUse">
<stop stop-color="#49A8FF"/>
<stop offset="1" stop-color="white"/>
</linearGradient>
<linearGradient id="paint58_linear_2581_3173" x1="185.11" y1="102.211" x2="185.11" y2="105.072" gradientUnits="userSpaceOnUse">
<stop stop-color="#49A8FF"/>
<stop offset="1" stop-color="white"/>
</linearGradient>
<linearGradient id="paint59_linear_2581_3173" x1="190.066" y1="105.073" x2="190.066" y2="107.934" gradientUnits="userSpaceOnUse">
<stop stop-color="#49A8FF"/>
<stop offset="1" stop-color="white"/>
</linearGradient>
<linearGradient id="paint60_linear_2581_3173" x1="145.444" y1="85.0558" x2="145.444" y2="87.917" gradientUnits="userSpaceOnUse">
<stop stop-color="#49A8FF"/>
<stop offset="1" stop-color="white"/>
</linearGradient>
<linearGradient id="paint61_linear_2581_3173" x1="150.4" y1="87.917" x2="150.4" y2="90.7782" gradientUnits="userSpaceOnUse">
<stop stop-color="#49A8FF"/>
<stop offset="1" stop-color="white"/>
</linearGradient>
<linearGradient id="paint62_linear_2581_3173" x1="155.355" y1="90.7783" x2="155.355" y2="93.6396" gradientUnits="userSpaceOnUse">
<stop stop-color="#49A8FF"/>
<stop offset="1" stop-color="white"/>
</linearGradient>
<linearGradient id="paint63_linear_2581_3173" x1="160.31" y1="93.6395" x2="160.31" y2="96.5008" gradientUnits="userSpaceOnUse">
<stop stop-color="#49A8FF"/>
<stop offset="1" stop-color="white"/>
</linearGradient>
<linearGradient id="paint64_linear_2581_3173" x1="165.266" y1="96.5007" x2="165.266" y2="99.361" gradientUnits="userSpaceOnUse">
<stop stop-color="#49A8FF"/>
<stop offset="1" stop-color="white"/>
</linearGradient>
<linearGradient id="paint65_linear_2581_3173" x1="170.221" y1="99.3619" x2="170.221" y2="102.222" gradientUnits="userSpaceOnUse">
<stop stop-color="#49A8FF"/>
<stop offset="1" stop-color="white"/>
</linearGradient>
<linearGradient id="paint66_linear_2581_3173" x1="175.177" y1="102.222" x2="175.177" y2="105.084" gradientUnits="userSpaceOnUse">
<stop stop-color="#49A8FF"/>
<stop offset="1" stop-color="white"/>
</linearGradient>
<linearGradient id="paint67_linear_2581_3173" x1="180.133" y1="105.084" x2="180.133" y2="107.945" gradientUnits="userSpaceOnUse">
<stop stop-color="#49A8FF"/>
<stop offset="1" stop-color="white"/>
</linearGradient>
<linearGradient id="paint68_linear_2581_3173" x1="185.09" y1="107.945" x2="185.09" y2="110.806" gradientUnits="userSpaceOnUse">
<stop stop-color="#49A8FF"/>
<stop offset="1" stop-color="white"/>
</linearGradient>
<linearGradient id="paint69_linear_2581_3173" x1="140.468" y1="87.9291" x2="140.468" y2="90.7894" gradientUnits="userSpaceOnUse">
<stop stop-color="#49A8FF"/>
<stop offset="1" stop-color="white"/>
</linearGradient>
<linearGradient id="paint70_linear_2581_3173" x1="145.423" y1="90.7894" x2="145.423" y2="93.6507" gradientUnits="userSpaceOnUse">
<stop stop-color="#49A8FF"/>
<stop offset="1" stop-color="white"/>
</linearGradient>
<linearGradient id="paint71_linear_2581_3173" x1="150.379" y1="93.6508" x2="150.379" y2="96.512" gradientUnits="userSpaceOnUse">
<stop stop-color="#49A8FF"/>
<stop offset="1" stop-color="white"/>
</linearGradient>
<linearGradient id="paint72_linear_2581_3173" x1="155.334" y1="96.5118" x2="155.334" y2="99.3731" gradientUnits="userSpaceOnUse">
<stop stop-color="#49A8FF"/>
<stop offset="1" stop-color="white"/>
</linearGradient>
<linearGradient id="paint73_linear_2581_3173" x1="160.291" y1="99.3732" x2="160.291" y2="102.234" gradientUnits="userSpaceOnUse">
<stop stop-color="#49A8FF"/>
<stop offset="1" stop-color="white"/>
</linearGradient>
<linearGradient id="paint74_linear_2581_3173" x1="165.246" y1="102.234" x2="165.246" y2="105.096" gradientUnits="userSpaceOnUse">
<stop stop-color="#49A8FF"/>
<stop offset="1" stop-color="white"/>
</linearGradient>
<linearGradient id="paint75_linear_2581_3173" x1="170.202" y1="105.096" x2="170.202" y2="107.957" gradientUnits="userSpaceOnUse">
<stop stop-color="#49A8FF"/>
<stop offset="1" stop-color="white"/>
</linearGradient>
<linearGradient id="paint76_linear_2581_3173" x1="175.158" y1="107.957" x2="175.158" y2="110.817" gradientUnits="userSpaceOnUse">
<stop stop-color="#49A8FF"/>
<stop offset="1" stop-color="white"/>
</linearGradient>
<linearGradient id="paint77_linear_2581_3173" x1="180.114" y1="110.817" x2="180.114" y2="113.678" gradientUnits="userSpaceOnUse">
<stop stop-color="#49A8FF"/>
<stop offset="1" stop-color="white"/>
</linearGradient>
<linearGradient id="paint78_linear_2581_3173" x1="135.492" y1="90.8016" x2="135.492" y2="93.6629" gradientUnits="userSpaceOnUse">
<stop stop-color="#49A8FF"/>
<stop offset="1" stop-color="white"/>
</linearGradient>
<linearGradient id="paint79_linear_2581_3173" x1="140.448" y1="93.663" x2="140.448" y2="96.5242" gradientUnits="userSpaceOnUse">
<stop stop-color="#49A8FF"/>
<stop offset="1" stop-color="white"/>
</linearGradient>
<linearGradient id="paint80_linear_2581_3173" x1="145.403" y1="96.5242" x2="145.403" y2="99.3845" gradientUnits="userSpaceOnUse">
<stop stop-color="#49A8FF"/>
<stop offset="1" stop-color="white"/>
</linearGradient>
<linearGradient id="paint81_linear_2581_3173" x1="150.358" y1="99.3844" x2="150.358" y2="102.246" gradientUnits="userSpaceOnUse">
<stop stop-color="#49A8FF"/>
<stop offset="1" stop-color="white"/>
</linearGradient>
<linearGradient id="paint82_linear_2581_3173" x1="155.314" y1="102.246" x2="155.314" y2="105.107" gradientUnits="userSpaceOnUse">
<stop stop-color="#49A8FF"/>
<stop offset="1" stop-color="white"/>
</linearGradient>
<linearGradient id="paint83_linear_2581_3173" x1="160.27" y1="105.107" x2="160.27" y2="107.968" gradientUnits="userSpaceOnUse">
<stop stop-color="#49A8FF"/>
<stop offset="1" stop-color="white"/>
</linearGradient>
<linearGradient id="paint84_linear_2581_3173" x1="165.226" y1="107.968" x2="165.226" y2="110.83" gradientUnits="userSpaceOnUse">
<stop stop-color="#49A8FF"/>
<stop offset="1" stop-color="white"/>
</linearGradient>
<linearGradient id="paint85_linear_2581_3173" x1="170.181" y1="110.829" x2="170.181" y2="113.691" gradientUnits="userSpaceOnUse">
<stop stop-color="#49A8FF"/>
<stop offset="1" stop-color="white"/>
</linearGradient>
<linearGradient id="paint86_linear_2581_3173" x1="175.137" y1="113.691" x2="175.137" y2="116.552" gradientUnits="userSpaceOnUse">
<stop stop-color="#49A8FF"/>
<stop offset="1" stop-color="white"/>
</linearGradient>
<linearGradient id="paint87_linear_2581_3173" x1="130.517" y1="93.6741" x2="130.517" y2="96.5353" gradientUnits="userSpaceOnUse">
<stop stop-color="#49A8FF"/>
<stop offset="1" stop-color="white"/>
</linearGradient>
<linearGradient id="paint88_linear_2581_3173" x1="135.473" y1="96.5354" x2="135.473" y2="99.3967" gradientUnits="userSpaceOnUse">
<stop stop-color="#49A8FF"/>
<stop offset="1" stop-color="white"/>
</linearGradient>
<linearGradient id="paint89_linear_2581_3173" x1="140.428" y1="99.3966" x2="140.428" y2="102.258" gradientUnits="userSpaceOnUse">
<stop stop-color="#49A8FF"/>
<stop offset="1" stop-color="white"/>
</linearGradient>
<linearGradient id="paint90_linear_2581_3173" x1="145.383" y1="102.258" x2="145.383" y2="105.119" gradientUnits="userSpaceOnUse">
<stop stop-color="#49A8FF"/>
<stop offset="1" stop-color="white"/>
</linearGradient>
<linearGradient id="paint91_linear_2581_3173" x1="150.339" y1="105.119" x2="150.339" y2="107.979" gradientUnits="userSpaceOnUse">
<stop stop-color="#49A8FF"/>
<stop offset="1" stop-color="white"/>
</linearGradient>
<linearGradient id="paint92_linear_2581_3173" x1="155.294" y1="107.979" x2="155.294" y2="110.841" gradientUnits="userSpaceOnUse">
<stop stop-color="#49A8FF"/>
<stop offset="1" stop-color="white"/>
</linearGradient>
<linearGradient id="paint93_linear_2581_3173" x1="160.251" y1="110.841" x2="160.251" y2="113.702" gradientUnits="userSpaceOnUse">
<stop stop-color="#49A8FF"/>
<stop offset="1" stop-color="white"/>
</linearGradient>
<linearGradient id="paint94_linear_2581_3173" x1="165.206" y1="113.702" x2="165.206" y2="116.563" gradientUnits="userSpaceOnUse">
<stop stop-color="#49A8FF"/>
<stop offset="1" stop-color="white"/>
</linearGradient>
<linearGradient id="paint95_linear_2581_3173" x1="170.162" y1="116.563" x2="170.162" y2="119.424" gradientUnits="userSpaceOnUse">
<stop stop-color="#49A8FF"/>
<stop offset="1" stop-color="white"/>
</linearGradient>
<linearGradient id="paint96_linear_2581_3173" x1="209.257" y1="50.8439" x2="209.257" y2="121.431" gradientUnits="userSpaceOnUse">
<stop stop-color="#49A8FF"/>
<stop offset="1" stop-color="white"/>
</linearGradient>
<linearGradient id="paint97_linear_2581_3173" x1="237.355" y1="74.1388" x2="237.355" y2="190.921" gradientUnits="userSpaceOnUse">
<stop stop-color="#49A8FF"/>
<stop offset="1" stop-color="white"/>
</linearGradient>
<linearGradient id="paint98_linear_2581_3173" x1="188.095" y1="157.795" x2="205.012" y2="157.795" gradientUnits="userSpaceOnUse">
<stop stop-color="#5761D7"/>
<stop offset="0.1779" stop-color="#5C66D9"/>
<stop offset="0.3876" stop-color="#6A73DF"/>
<stop offset="0.6134" stop-color="#8289E8"/>
<stop offset="0.849" stop-color="#A3A7F5"/>
<stop offset="1" stop-color="#BCBEFF"/>
</linearGradient>
<linearGradient id="paint99_linear_2581_3173" x1="270.874" y1="141.369" x2="270.874" y2="221.749" gradientUnits="userSpaceOnUse">
<stop stop-color="#49A8FF"/>
<stop offset="1" stop-color="white"/>
</linearGradient>
<linearGradient id="paint100_linear_2581_3173" x1="263.259" y1="148.924" x2="263.259" y2="205.197" gradientUnits="userSpaceOnUse">
<stop stop-color="#49A8FF"/>
<stop offset="1" stop-color="white"/>
</linearGradient>
<linearGradient id="paint101_linear_2581_3173" x1="148.073" y1="150.701" x2="278.165" y2="150.716" gradientUnits="userSpaceOnUse">
<stop stop-color="white"/>
<stop offset="1" stop-color="#47A3F7"/>
</linearGradient>
<linearGradient id="paint102_linear_2581_3173" x1="185.694" y1="140.481" x2="221.33" y2="140.481" gradientUnits="userSpaceOnUse">
<stop stop-color="#C0BFF6"/>
<stop offset="0.2938" stop-color="#C5C4F7"/>
<stop offset="0.6399" stop-color="#D3D2F9"/>
<stop offset="1" stop-color="#E9E9FD"/>
</linearGradient>
<linearGradient id="paint103_linear_2581_3173" x1="177.664" y1="154.947" x2="268.473" y2="154.957" gradientUnits="userSpaceOnUse">
<stop stop-color="white"/>
<stop offset="1" stop-color="#47A3F7"/>
</linearGradient>
<linearGradient id="paint104_linear_2581_3173" x1="152.39" y1="132.529" x2="53.8671" y2="132.529" gradientUnits="userSpaceOnUse">
<stop stop-color="#C0BFF6"/>
<stop offset="0.2938" stop-color="#C5C4F7"/>
<stop offset="0.6399" stop-color="#D3D2F9"/>
<stop offset="1" stop-color="#E9E9FD"/>
</linearGradient>
<linearGradient id="paint105_linear_2581_3173" x1="152.391" y1="157.795" x2="135.473" y2="157.795" gradientUnits="userSpaceOnUse">
<stop stop-color="#5761D7"/>
<stop offset="0.1779" stop-color="#5C66D9"/>
<stop offset="0.3876" stop-color="#6A73DF"/>
<stop offset="0.6134" stop-color="#8289E8"/>
<stop offset="0.849" stop-color="#A3A7F5"/>
<stop offset="1" stop-color="#BCBEFF"/>
</linearGradient>
<linearGradient id="paint106_linear_2581_3173" x1="69.6104" y1="141.369" x2="69.6104" y2="221.749" gradientUnits="userSpaceOnUse">
<stop stop-color="#49A8FF"/>
<stop offset="1" stop-color="white"/>
</linearGradient>
<linearGradient id="paint107_linear_2581_3173" x1="122.801" y1="110.511" x2="122.801" y2="190.891" gradientUnits="userSpaceOnUse">
<stop stop-color="#49A8FF"/>
<stop offset="1" stop-color="white"/>
</linearGradient>
<linearGradient id="paint108_linear_2581_3173" x1="136.973" y1="130.193" x2="136.973" y2="150.768" gradientUnits="userSpaceOnUse">
<stop stop-color="#49A8FF"/>
<stop offset="1" stop-color="white"/>
</linearGradient>
<linearGradient id="paint109_linear_2581_3173" x1="65.6387" y1="154.948" x2="156.448" y2="154.958" gradientUnits="userSpaceOnUse">
<stop stop-color="white"/>
<stop offset="1" stop-color="#47A3F7"/>
</linearGradient>
</defs>
</svg>
