<svg width="300" height="300" viewBox="0 0 300 300" fill="none" xmlns="http://www.w3.org/2000/svg">
<path d="M149.712 289.301C144.584 289.301 139.451 288.292 135.546 286.274L60.3911 247.466C56.4884 245.45 54.3389 242.732 54.3389 239.812C54.3389 236.891 56.4884 234.173 60.3911 232.157L135.543 193.354C143.356 189.322 156.063 189.322 163.876 193.354L239.031 232.159C242.931 234.175 245.08 236.893 245.08 239.814C245.08 242.734 242.931 245.452 239.031 247.468L163.878 286.274C159.971 288.292 154.84 289.301 149.712 289.301ZM136.205 285.256C143.653 289.101 155.771 289.101 163.217 285.256L238.369 246.451C241.849 244.654 243.762 242.299 243.762 239.816C243.762 237.333 241.849 234.977 238.369 233.181L163.214 194.376C155.767 190.531 143.648 190.531 136.202 194.376L61.0476 233.179C57.5704 234.975 55.6544 237.33 55.6544 239.814C55.6544 242.297 57.5704 244.652 61.0476 246.448L136.205 285.256Z" fill="url(#paint0_linear_2489_734)"/>
<path opacity="0.4" d="M247.425 224.922V201.906L242.715 199.564C241.385 206.751 231.926 211.488 224.018 212.471L170.167 240.634L146.665 248.223L71.6494 213.601L73.3831 212.705C66.9711 210.026 63.5182 203.9 60.0508 198.31L55.0005 201.004L52 201.758V225.164C52 228.147 54.2005 231.131 58.5992 233.403L133.754 272.209C142.554 276.751 156.871 276.751 165.671 272.209L240.825 233.405C245.153 231.17 247.352 228.245 247.422 225.312C247.425 225.181 247.42 225.051 247.412 224.918L247.425 224.922Z" fill="url(#paint1_linear_2489_734)"/>
<path d="M247.425 204.464V189.235L242.715 186.893C241.385 194.08 231.926 198.816 224.018 199.799L170.167 227.962L146.665 235.552L71.6494 200.93L73.3831 200.034C66.9711 197.355 63.5182 191.229 60.0508 185.638L55.0005 188.333L52 189.087V204.705C52 207.689 54.2005 210.672 58.5992 212.945L133.754 251.75C142.554 256.293 156.871 256.293 165.671 251.75L240.825 212.947C245.153 210.711 247.352 207.789 247.422 204.853C247.425 204.722 247.42 204.592 247.412 204.459L247.425 204.464Z" fill="url(#paint2_linear_2489_734)"/>
<path opacity="0.3" d="M224.019 199.799L170.168 227.962L149.711 234.569V255.16C155.491 255.16 161.271 254.025 165.672 251.752L240.826 212.949C245.155 210.713 247.353 207.791 247.423 204.855C247.426 204.725 247.421 204.594 247.413 204.461L247.423 204.466V189.237L243.119 187.095H242.67C241.203 194.167 231.851 198.825 224.019 199.799Z" fill="url(#paint3_linear_2489_734)"/>
<path d="M133.755 236.28L58.5999 197.475C49.8 192.932 49.8 185.538 58.5999 180.993L133.755 142.19C142.554 137.647 156.871 137.647 165.671 142.19L240.828 180.995C249.628 185.538 249.628 192.932 240.828 197.475L165.674 236.278C156.871 240.823 142.554 240.823 133.755 236.28Z" fill="url(#paint4_linear_2489_734)"/>
<path d="M133.755 236.28L58.5999 197.475C49.8 192.932 49.8 185.538 58.5999 180.993L133.755 142.19C142.554 137.647 156.871 137.647 165.671 142.19L240.828 180.995C249.628 185.538 249.628 192.932 240.828 197.475L165.674 236.278C156.871 240.823 142.554 240.823 133.755 236.28Z" fill="#49A8FF"/>
<g opacity="0.51">
<path d="M133.755 236.28L58.5999 197.475C49.8 192.932 49.8 185.538 58.5999 180.993L133.755 142.19C142.554 137.647 156.871 137.647 165.671 142.19L240.828 180.995C249.628 185.538 249.628 192.932 240.828 197.475L165.674 236.278C156.871 240.823 142.554 240.823 133.755 236.28Z" fill="#453C9E"/>
</g>
<path d="M240.827 197.475L165.672 236.278C156.872 240.821 142.555 240.821 133.755 236.278L58.6006 197.472C54.6663 195.441 52.4973 192.84 52.0791 190.181C51.5636 193.473 53.7326 196.857 58.6006 199.371L133.755 238.176C142.555 242.719 156.872 242.719 165.672 238.176L240.827 199.373C245.692 196.859 247.863 193.475 247.346 190.185C246.927 192.845 244.758 195.446 240.827 197.475Z" fill="white"/>
<g opacity="0.2">
<mask id="mask0_2489_734" style="mask-type:luminance" maskUnits="userSpaceOnUse" x="52" y="138" width="196" height="102">
<path d="M133.755 236.28L58.5999 197.475C49.8 192.932 49.8 185.538 58.5999 180.993L133.755 142.19C142.554 137.647 156.871 137.647 165.671 142.19L240.828 180.995C249.628 185.538 249.628 192.932 240.828 197.475L165.674 236.278C156.871 240.823 142.554 240.823 133.755 236.28Z" fill="white"/>
</mask>
<g mask="url(#mask0_2489_734)">
<path d="M94.6973 191.516V271.819L94.7021 271.822C94.7264 273.561 95.9106 275.223 98.3178 276.464L172.928 314.987C178.297 317.76 187.678 317.412 193.878 314.211C197.355 312.415 199.094 310.103 199.001 307.931V227.608L94.6973 191.516Z" fill="url(#paint5_linear_2489_734)"/>
</g>
<mask id="mask1_2489_734" style="mask-type:luminance" maskUnits="userSpaceOnUse" x="52" y="138" width="196" height="102">
<path d="M133.755 236.28L58.5999 197.475C49.8 192.932 49.8 185.538 58.5999 180.993L133.755 142.19C142.554 137.647 156.871 137.647 165.671 142.19L240.828 180.995C249.628 185.538 249.628 192.932 240.828 197.475L165.674 236.278C156.871 240.823 142.554 240.823 133.755 236.28Z" fill="white"/>
</mask>
<g mask="url(#mask1_2489_734)">
<path opacity="0.3" d="M178.522 316.594C183.543 317.277 189.496 316.473 193.877 314.209C197.354 312.413 199.093 310.101 199.001 307.929V227.606L178.887 220.647H178.52V316.594H178.522Z" fill="#49A8FF"/>
</g>
<path d="M172.927 234.684L98.3166 196.161C92.9453 193.388 93.6188 188.546 99.8218 185.342C106.022 182.141 115.403 181.793 120.772 184.566L195.382 223.089C200.753 225.862 200.08 230.704 193.877 233.908C187.676 237.109 178.296 237.457 172.927 234.684Z" fill="url(#paint6_linear_2489_734)"/>
</g>
<path opacity="0.5" d="M172.929 214.012L98.3185 175.49C92.9472 172.717 93.6208 167.874 99.8237 164.671C106.024 161.47 115.405 161.122 120.774 163.895L195.384 202.417C200.755 205.19 200.082 210.033 193.879 213.236C187.678 216.437 178.297 216.785 172.929 214.012Z" fill="url(#paint7_linear_2489_734)"/>
<path d="M94.6973 69.7869V150.09L94.7021 150.092C94.7264 151.832 95.9106 153.493 98.3178 154.735L172.928 193.258C178.297 196.031 187.678 195.683 193.878 192.482C197.355 190.686 199.094 188.374 199.001 186.202V105.879L94.6973 69.7869Z" fill="url(#paint8_linear_2489_734)"/>
<path opacity="0.3" d="M178.525 194.867C183.546 195.55 189.499 194.746 193.88 192.482C197.357 190.686 199.096 188.374 199.004 186.202V105.879L178.89 98.9199H178.522V194.867H178.525Z" fill="url(#paint9_linear_2489_734)"/>
<path d="M172.929 112.955L98.3185 74.4317C92.9472 71.6591 93.6208 66.8163 99.8237 63.6131C106.024 60.4121 115.405 60.0642 120.774 62.8368L195.384 101.36C200.755 104.132 200.082 108.975 193.879 112.178C187.678 115.379 178.297 115.727 172.929 112.955Z" fill="#046DCD"/>
<path d="M180.376 107.79C176.816 107.79 173.927 105.209 173.927 102.023V66.3444C173.927 54.1754 163.972 38.7554 152.187 32.6709L135.066 23.8312C130.543 21.4956 126.458 20.9259 123.861 22.2676C121.265 23.6093 119.774 27.0561 119.774 31.7271V67.4056C119.774 70.5914 116.888 73.1727 113.325 73.1727C109.763 73.1727 106.877 70.5914 106.877 67.4056V31.7249C106.877 22.6917 110.619 15.7873 117.413 12.2797C124.207 8.77209 132.766 9.32662 141.512 13.8432L158.633 22.683C174.438 30.8442 186.819 50.0219 186.819 66.3444V102.023C186.824 105.209 183.938 107.79 180.376 107.79Z" fill="#49A8FF"/>
<defs>
<linearGradient id="paint0_linear_2489_734" x1="149.71" y1="190.33" x2="149.71" y2="289.301" gradientUnits="userSpaceOnUse">
<stop stop-color="#49A8FF"/>
<stop offset="1" stop-color="white"/>
</linearGradient>
<linearGradient id="paint1_linear_2489_734" x1="149.712" y1="198.31" x2="149.712" y2="275.616" gradientUnits="userSpaceOnUse">
<stop stop-color="#49A8FF"/>
<stop offset="1" stop-color="white"/>
</linearGradient>
<linearGradient id="paint2_linear_2489_734" x1="52" y1="220.398" x2="247.425" y2="220.398" gradientUnits="userSpaceOnUse">
<stop stop-color="white"/>
<stop offset="1" stop-color="#3CADFF"/>
</linearGradient>
<linearGradient id="paint3_linear_2489_734" x1="149.711" y1="221.127" x2="241.016" y2="221.136" gradientUnits="userSpaceOnUse">
<stop stop-color="white"/>
<stop offset="1" stop-color="#47A3F7"/>
</linearGradient>
<linearGradient id="paint4_linear_2489_734" x1="52" y1="189.235" x2="247.428" y2="189.235" gradientUnits="userSpaceOnUse">
<stop stop-color="white"/>
<stop offset="1" stop-color="#3CADFF"/>
</linearGradient>
<linearGradient id="paint5_linear_2489_734" x1="94.6973" y1="254.188" x2="192.165" y2="254.193" gradientUnits="userSpaceOnUse">
<stop stop-color="white"/>
<stop offset="1" stop-color="#47A3F7"/>
</linearGradient>
<linearGradient id="paint6_linear_2489_734" x1="94.6904" y1="209.625" x2="199.008" y2="209.625" gradientUnits="userSpaceOnUse">
<stop stop-color="white"/>
<stop offset="1" stop-color="#3CADFF"/>
</linearGradient>
<linearGradient id="paint7_linear_2489_734" x1="146.851" y1="162.023" x2="146.851" y2="215.884" gradientUnits="userSpaceOnUse">
<stop stop-color="#49A8FF"/>
<stop offset="1" stop-color="white"/>
</linearGradient>
<linearGradient id="paint8_linear_2489_734" x1="146.851" y1="69.7869" x2="146.851" y2="195.13" gradientUnits="userSpaceOnUse">
<stop stop-color="#49A8FF"/>
<stop offset="1" stop-color="white"/>
</linearGradient>
<linearGradient id="paint9_linear_2489_734" x1="188.765" y1="98.9199" x2="188.765" y2="195.103" gradientUnits="userSpaceOnUse">
<stop stop-color="#49A8FF"/>
<stop offset="1" stop-color="white"/>
</linearGradient>
</defs>
</svg>
