<svg width="196" height="314" viewBox="0 0 196 314" fill="none" xmlns="http://www.w3.org/2000/svg">
<path d="M98.2062 313.438C93.078 313.438 87.9449 312.308 84.0399 310.049L8.8852 266.595C4.98254 264.338 2.83301 261.294 2.83301 258.024C2.83301 254.754 4.98254 251.71 8.8852 249.453L84.0375 206.004C91.8501 201.49 104.557 201.49 112.37 206.004L187.525 249.455C191.425 251.713 193.574 254.756 193.574 258.026C193.574 261.297 191.425 264.34 187.525 266.597L112.372 310.049C108.465 312.308 103.334 313.438 98.2062 313.438ZM84.6988 308.909C92.1467 313.214 104.266 313.214 111.711 308.909L186.863 265.458C190.343 263.447 192.256 260.81 192.256 258.029C192.256 255.248 190.343 252.611 186.863 250.6L111.709 207.148C104.261 202.843 92.1419 202.843 84.6964 207.148L9.54169 250.597C6.06456 252.609 4.14852 255.246 4.14852 258.026C4.14852 260.807 6.06456 263.444 9.54169 265.455L84.6988 308.909Z" fill="url(#paint0_linear_2312_680)"/>
<path opacity="0.4" d="M195.919 241.352V215.581L191.209 212.958C189.879 221.006 180.42 226.309 172.512 227.41L118.661 258.945L95.1596 267.442L20.1436 228.676L21.8772 227.673C15.4652 224.673 12.0124 217.814 8.54498 211.553L3.49463 214.57L0.494141 215.415V241.622C0.494141 244.963 2.69468 248.304 7.09337 250.848L82.248 294.3C91.0478 299.386 105.365 299.386 114.165 294.3L189.319 250.851C193.648 248.348 195.846 245.073 195.916 241.788C195.919 241.642 195.914 241.496 195.906 241.347L195.919 241.352Z" fill="url(#paint1_linear_2312_680)"/>
<path d="M195.919 218.444V201.392L191.209 198.77C189.879 206.817 180.42 212.121 172.512 213.221L118.661 244.756L95.1596 253.254L20.1436 214.487L21.8772 213.484C15.4652 210.484 12.0124 203.625 8.54498 197.365L3.49463 200.382L0.494141 201.227V218.714C0.494141 222.055 2.69468 225.396 7.09337 227.94L82.248 271.392C91.0478 276.478 105.365 276.478 114.165 271.392L189.319 227.943C193.648 225.44 195.846 222.167 195.916 218.88C195.919 218.734 195.914 218.588 195.906 218.439L195.919 218.444Z" fill="url(#paint2_linear_2312_680)"/>
<path opacity="0.3" d="M172.514 213.221L118.662 244.756L98.2051 252.153V275.21C103.985 275.21 109.765 273.939 114.166 271.394L189.32 227.945C193.649 225.442 195.847 222.17 195.917 218.882C195.92 218.736 195.915 218.59 195.908 218.442L195.917 218.447V201.395L191.614 198.996H191.164C189.697 206.915 180.346 212.13 172.514 213.221Z" fill="url(#paint3_linear_2312_680)"/>
<path d="M82.2487 254.07L7.094 210.618C-1.70581 205.532 -1.70581 197.253 7.094 192.164L82.2487 148.715C91.0485 143.628 105.366 143.628 114.165 148.715L189.322 192.166C198.122 197.253 198.122 205.532 189.322 210.618L114.168 254.067C105.366 259.156 91.0485 259.156 82.2487 254.07Z" fill="url(#paint4_linear_2312_680)"/>
<path d="M82.2487 254.07L7.094 210.618C-1.70581 205.532 -1.70581 197.253 7.094 192.164L82.2487 148.715C91.0485 143.628 105.366 143.628 114.165 148.715L189.322 192.166C198.122 197.253 198.122 205.532 189.322 210.618L114.168 254.067C105.366 259.156 91.0485 259.156 82.2487 254.07Z" fill="#49A8FF"/>
<g opacity="0.51">
<path d="M82.2487 254.07L7.094 210.618C-1.70581 205.532 -1.70581 197.253 7.094 192.164L82.2487 148.715C91.0485 143.628 105.366 143.628 114.165 148.715L189.322 192.166C198.122 197.253 198.122 205.532 189.322 210.618L114.168 254.067C105.366 259.156 91.0485 259.156 82.2487 254.07Z" fill="#453C9E"/>
</g>
<path d="M189.321 210.618L114.166 254.067C105.366 259.154 91.0492 259.154 82.2494 254.067L7.09471 210.616C3.16045 208.342 0.99148 205.429 0.573252 202.451C0.0577611 206.138 2.22673 209.927 7.09471 212.741L82.2494 256.193C91.0492 261.28 105.366 261.28 114.166 256.193L189.321 212.744C194.186 209.929 196.358 206.14 195.84 202.456C195.421 205.434 193.253 208.346 189.321 210.618Z" fill="white"/>
<g opacity="0.2">
<mask id="mask0_2312_680" style="mask-type:luminance" maskUnits="userSpaceOnUse" x="0" y="144" width="196" height="114">
<path d="M82.2487 254.07L7.094 210.618C-1.70581 205.532 -1.70581 197.253 7.094 192.164L82.2487 148.715C91.0485 143.628 105.366 143.628 114.165 148.715L189.322 192.166C198.122 197.253 198.122 205.532 189.322 210.618L114.168 254.067C105.366 259.156 91.0485 259.156 82.2487 254.07Z" fill="white"/>
</mask>
<g mask="url(#mask0_2312_680)">
<path d="M43.1914 203.946V293.864L43.1962 293.866C43.2205 295.814 44.4047 297.675 46.812 299.065L121.422 342.2C126.791 345.304 136.172 344.915 142.372 341.331C145.849 339.319 147.588 336.731 147.496 334.298V244.359L43.1914 203.946Z" fill="url(#paint5_linear_2312_680)"/>
</g>
<mask id="mask1_2312_680" style="mask-type:luminance" maskUnits="userSpaceOnUse" x="0" y="144" width="196" height="114">
<path d="M82.2487 254.07L7.094 210.618C-1.70581 205.532 -1.70581 197.253 7.094 192.164L82.2487 148.715C91.0485 143.628 105.366 143.628 114.165 148.715L189.322 192.166C198.122 197.253 198.122 205.532 189.322 210.618L114.168 254.067C105.366 259.156 91.0485 259.156 82.2487 254.07Z" fill="white"/>
</mask>
<g mask="url(#mask1_2312_680)">
<path opacity="0.3" d="M127.016 343.999C132.037 344.764 137.99 343.863 142.371 341.328C145.849 339.317 147.587 336.729 147.495 334.296V244.357L127.381 236.565H127.014V343.999H127.016Z" fill="#49A8FF"/>
</g>
<path d="M121.421 252.282L46.8107 209.147C41.4394 206.043 42.113 200.62 48.3159 197.034C54.5164 193.449 63.8973 193.06 69.2662 196.164L143.876 239.299C149.248 242.404 148.574 247.826 142.371 251.413C136.171 254.997 126.79 255.387 121.421 252.282Z" fill="url(#paint6_linear_2312_680)"/>
</g>
<path opacity="0.5" d="M121.423 229.136L46.8127 186.001C41.4413 182.897 42.1149 177.474 48.3178 173.887C54.5183 170.303 63.8993 169.914 69.2682 173.018L143.878 216.153C149.249 219.258 148.576 224.68 142.373 228.267C136.173 231.851 126.792 232.241 121.423 229.136Z" fill="url(#paint7_linear_2312_680)"/>
<path d="M43.1914 67.6436V157.561L43.1962 157.563C43.2205 159.511 44.4047 161.372 46.812 162.762L121.422 205.897C126.791 209.002 136.172 208.612 142.372 205.028C145.849 203.016 147.588 200.428 147.496 197.996V108.056L43.1914 67.6436Z" fill="url(#paint8_linear_2312_680)"/>
<path opacity="0.3" d="M127.019 207.699C132.04 208.463 137.993 207.563 142.374 205.028C145.851 203.016 147.59 200.428 147.498 197.996V108.056L127.384 100.265H127.017V207.699H127.019Z" fill="url(#paint9_linear_2312_680)"/>
<path d="M121.423 115.98L46.8127 72.8446C41.4413 69.74 42.1149 64.3174 48.3178 60.7307C54.5183 57.1465 63.8993 56.7569 69.2682 59.8615L143.878 102.996C149.249 106.101 148.576 111.524 142.373 115.11C136.173 118.694 126.792 119.084 121.423 115.98Z" fill="#046DCD"/>
<path d="M128.87 110.197C125.31 110.197 122.421 107.306 122.421 103.739V63.7891C122.421 50.1631 112.467 32.897 100.681 26.0841L83.5601 16.186C79.0374 13.5709 74.9525 12.9329 72.3556 14.4353C69.7587 15.9377 68.2681 19.797 68.2681 25.0273V64.9773C68.2681 68.5445 65.3818 71.4348 61.8196 71.4348C58.2574 71.4348 55.3711 68.5445 55.3711 64.9773V25.0248C55.3711 14.9101 59.1133 7.17917 65.9071 3.25162C72.7008 -0.675941 81.2599 -0.0550273 90.0062 5.00234L107.127 14.9004C122.932 24.0387 135.314 45.5124 135.314 63.7891V103.739C135.318 107.306 132.432 110.197 128.87 110.197Z" fill="#49A8FF"/>
<defs>
<linearGradient id="paint0_linear_2312_680" x1="98.2037" y1="202.618" x2="98.2037" y2="313.438" gradientUnits="userSpaceOnUse">
<stop stop-color="#49A8FF"/>
<stop offset="1" stop-color="white"/>
</linearGradient>
<linearGradient id="paint1_linear_2312_680" x1="98.2064" y1="211.553" x2="98.2064" y2="298.115" gradientUnits="userSpaceOnUse">
<stop stop-color="#49A8FF"/>
<stop offset="1" stop-color="white"/>
</linearGradient>
<linearGradient id="paint2_linear_2312_680" x1="0.494141" y1="236.286" x2="195.919" y2="236.286" gradientUnits="userSpaceOnUse">
<stop stop-color="white"/>
<stop offset="1" stop-color="#3CADFF"/>
</linearGradient>
<linearGradient id="paint3_linear_2312_680" x1="98.2051" y1="237.103" x2="189.511" y2="237.111" gradientUnits="userSpaceOnUse">
<stop stop-color="white"/>
<stop offset="1" stop-color="#47A3F7"/>
</linearGradient>
<linearGradient id="paint4_linear_2312_680" x1="0.494141" y1="201.392" x2="195.922" y2="201.392" gradientUnits="userSpaceOnUse">
<stop stop-color="white"/>
<stop offset="1" stop-color="#3CADFF"/>
</linearGradient>
<linearGradient id="paint5_linear_2312_680" x1="43.1914" y1="274.121" x2="140.659" y2="274.126" gradientUnits="userSpaceOnUse">
<stop stop-color="white"/>
<stop offset="1" stop-color="#47A3F7"/>
</linearGradient>
<linearGradient id="paint6_linear_2312_680" x1="43.1846" y1="224.223" x2="147.502" y2="224.223" gradientUnits="userSpaceOnUse">
<stop stop-color="white"/>
<stop offset="1" stop-color="#3CADFF"/>
</linearGradient>
<linearGradient id="paint7_linear_2312_680" x1="95.3454" y1="170.922" x2="95.3454" y2="231.232" gradientUnits="userSpaceOnUse">
<stop stop-color="#49A8FF"/>
<stop offset="1" stop-color="white"/>
</linearGradient>
<linearGradient id="paint8_linear_2312_680" x1="95.3453" y1="67.6436" x2="95.3453" y2="207.993" gradientUnits="userSpaceOnUse">
<stop stop-color="#49A8FF"/>
<stop offset="1" stop-color="white"/>
</linearGradient>
<linearGradient id="paint9_linear_2312_680" x1="137.259" y1="100.265" x2="137.259" y2="207.963" gradientUnits="userSpaceOnUse">
<stop stop-color="#49A8FF"/>
<stop offset="1" stop-color="white"/>
</linearGradient>
</defs>
</svg>
