<svg width="588" height="588" viewBox="0 0 588 588" fill="none" xmlns="http://www.w3.org/2000/svg">
<path d="M104.719 514.031C207.341 568.143 373.72 568.143 476.338 514.031C578.957 459.918 578.957 372.185 476.338 318.073C373.719 263.96 207.339 263.96 104.719 318.073C2.09809 372.184 2.09809 459.918 104.719 514.031Z" fill="#F5F5F5"/>
<path d="M192.294 420.18L195.368 416.511L102.027 362.62L95.7053 366.27L128.859 385.411L97.0259 403.789L63.5876 384.483L57.2654 388.133L152.81 443.29L153.814 442.091L154.315 442.381L190.962 421.262L191.249 421.428L191.787 420.787L192.565 420.338L192.294 420.18Z" fill="#E0E0E0"/>
<path d="M457.087 466.707C436.779 476.387 403.857 476.387 383.55 466.707C363.243 457.03 363.243 441.338 383.55 431.659C403.856 421.982 436.779 421.982 457.087 431.659C477.393 441.338 477.393 457.03 457.087 466.707Z" fill="#E0E0E0"/>
<path d="M299.995 517.787C279.688 527.467 246.766 527.467 226.459 517.787C206.152 508.11 206.152 492.417 226.459 482.739C246.766 473.061 279.688 473.061 299.995 482.739C320.301 492.418 320.301 508.111 299.995 517.787Z" fill="#E0E0E0"/>
<path d="M461.781 480.14C471.87 485.964 488.228 485.964 498.318 480.14C508.407 474.315 508.407 464.87 498.318 459.045C488.229 453.22 471.871 453.22 461.781 459.045C451.691 464.869 451.691 474.315 461.781 480.14Z" fill="#E0E0E0"/>
<path d="M105.65 490.692C119.918 490.692 131.485 484.014 131.485 475.776C131.485 467.537 119.918 460.859 105.65 460.859C91.3809 460.859 79.814 467.537 79.814 475.776C79.814 484.014 91.3809 490.692 105.65 490.692Z" fill="#E0E0E0"/>
<path d="M154.105 222.833L101.703 365.447L101.691 365.47C101.574 365.835 101.268 366.176 100.774 366.458C99.4568 367.222 97.3165 367.222 95.9993 366.458C95.4231 366.129 95.1056 365.717 95.0233 365.282C94.9997 365.153 94.9997 365.023 95.0233 364.894C95.035 364.576 95.0938 364.247 95.2114 363.918L147.755 220.505C148.402 218.752 150.342 217.847 152.095 218.494C153.847 219.141 154.752 221.081 154.105 222.833Z" fill="black"/>
<path d="M84.0581 320.956L136.605 351.294" stroke="black" stroke-width="6" stroke-miterlimit="10"/>
<path d="M122.273 298.893L174.821 329.231" stroke="black" stroke-width="6" stroke-miterlimit="10"/>
<path d="M111.346 213.037L139.37 196.855C141.663 195.538 144.227 195.338 146.403 196.303C148.578 197.267 150.142 199.301 150.695 201.889L197.218 419.543C197.253 419.696 197.277 419.837 197.277 419.99C197.3 420.142 197.3 420.307 197.288 420.46C197.206 420.883 196.888 421.295 196.312 421.624C194.995 422.389 192.855 422.389 191.538 421.624C191.044 421.33 190.738 420.977 190.609 420.613C190.585 420.542 190.573 420.472 190.562 420.413L144.086 203.3C143.98 202.829 143.792 202.535 143.651 202.477C143.522 202.418 143.181 202.465 142.757 202.712L114.721 218.894" fill="#455A64"/>
<path d="M157.083 421.035L140.012 411.179C139.45 410.854 138.994 410.064 138.994 409.415V409.009C138.994 408.36 139.45 407.57 140.012 407.245L180.968 383.599C181.53 383.275 182.442 383.275 183.005 383.599L200.075 393.456C200.637 393.78 201.094 394.57 201.094 395.22V395.625C201.094 396.274 200.637 397.065 200.075 397.389L159.12 421.035C158.558 421.36 157.645 421.36 157.083 421.035Z" fill="#0C71BC"/>
<path opacity="0.1" d="M139.293 408.005C139.108 408.325 138.994 408.684 138.994 409.009V409.415C138.994 410.064 139.45 410.854 140.012 411.179L157.083 421.035C157.364 421.197 157.732 421.279 158.102 421.279V418.864L139.293 408.005Z" fill="white"/>
<path opacity="0.15" d="M158.102 418.864V421.279C158.47 421.279 158.839 421.197 159.12 421.035L179.598 409.213L200.075 397.39C200.637 397.066 201.094 396.276 201.094 395.626V395.221C201.094 394.896 200.98 394.536 200.795 394.216L158.102 418.864Z" fill="white"/>
<path d="M149.681 386.423L132.61 376.567C132.048 376.242 131.592 375.452 131.592 374.803V374.397C131.592 373.748 132.048 372.958 132.61 372.633L173.566 348.987C174.128 348.663 175.041 348.663 175.603 348.987L192.673 358.843C193.236 359.168 193.692 359.958 193.692 360.607V361.013C193.692 361.662 193.236 362.453 192.673 362.777L151.718 386.423C151.155 386.749 150.243 386.749 149.681 386.423Z" fill="#0C71BC"/>
<path opacity="0.1" d="M131.891 373.393C131.706 373.712 131.592 374.073 131.592 374.397V374.803C131.592 375.452 132.048 376.242 132.61 376.567L149.681 386.423C149.962 386.585 150.33 386.666 150.7 386.666V384.252L131.891 373.393Z" fill="white"/>
<path opacity="0.15" d="M150.7 384.253V386.668C151.068 386.668 151.437 386.586 151.718 386.424L172.196 374.601L192.674 362.778C193.236 362.454 193.692 361.663 193.692 361.014V360.609C193.692 360.284 193.578 359.924 193.393 359.604L150.7 384.253Z" fill="white"/>
<path d="M142.279 351.812L125.209 341.956C124.646 341.632 124.19 340.841 124.19 340.192V339.786C124.19 339.137 124.646 338.347 125.209 338.022L166.164 314.377C166.726 314.052 167.639 314.052 168.201 314.377L185.272 324.233C185.834 324.557 186.29 325.347 186.29 325.997V326.402C186.29 327.051 185.834 327.842 185.272 328.166L144.316 351.812C143.754 352.137 142.842 352.137 142.279 351.812Z" fill="#0C71BC"/>
<path opacity="0.1" d="M124.488 338.782C124.303 339.101 124.189 339.462 124.189 339.786V340.192C124.189 340.841 124.646 341.632 125.208 341.956L133.743 346.885L142.278 351.813C142.56 351.976 142.928 352.057 143.297 352.057V349.642L124.488 338.782Z" fill="white"/>
<path opacity="0.15" d="M143.298 349.642V352.057C143.666 352.057 144.035 351.976 144.317 351.813L164.794 339.99L185.272 328.167C185.834 327.843 186.29 327.053 186.29 326.403V325.998C186.29 325.673 186.176 325.313 185.992 324.993L143.298 349.642Z" fill="white"/>
<path d="M134.878 317.201L117.807 307.345C117.245 307.021 116.789 306.23 116.789 305.581V305.176C116.789 304.526 117.245 303.736 117.807 303.412L158.762 279.766C159.324 279.441 160.237 279.441 160.799 279.766L177.87 289.622C178.432 289.946 178.888 290.737 178.888 291.386V291.791C178.888 292.441 178.432 293.231 177.87 293.555L136.915 317.201C136.351 317.526 135.44 317.526 134.878 317.201Z" fill="#0C71BC"/>
<path opacity="0.15" d="M135.896 315.03V317.445C136.265 317.445 136.634 317.364 136.915 317.201L157.393 305.379L177.87 293.557C178.432 293.232 178.889 292.442 178.889 291.793V291.387C178.889 291.062 178.775 290.702 178.59 290.383L135.896 315.03Z" fill="white"/>
<path opacity="0.1" d="M117.086 304.171C116.902 304.491 116.788 304.85 116.788 305.176V305.581C116.788 306.23 117.244 307.021 117.806 307.345L134.877 317.201C135.158 317.364 135.526 317.445 135.895 317.445V315.03L117.086 304.171Z" fill="white"/>
<path d="M127.476 282.589L99.1075 266.215C98.5454 265.89 98.0891 265.1 98.0891 264.451V264.045C98.0891 263.396 98.5454 262.605 99.1075 262.281L140.063 238.635C140.625 238.311 141.538 238.311 142.1 238.635L170.468 255.01C171.031 255.334 171.487 256.125 171.487 256.774V257.179C171.487 257.829 171.031 258.619 170.468 258.943L129.513 282.589C128.95 282.915 128.038 282.915 127.476 282.589Z" fill="#0C71BC"/>
<path opacity="0.15" d="M128.495 280.42V282.834C128.863 282.834 129.232 282.753 129.513 282.59L149.991 270.768L170.468 258.946C171.031 258.621 171.487 257.831 171.487 257.182V256.775C171.487 256.45 171.373 256.09 171.188 255.771L128.495 280.42Z" fill="white"/>
<path opacity="0.1" d="M98.3878 263.041C98.2032 263.359 98.0891 263.719 98.0891 264.045V264.451C98.0891 265.1 98.5454 265.89 99.1075 266.215L127.476 282.59C127.757 282.753 128.127 282.834 128.495 282.834V280.42L98.3878 263.041Z" fill="white"/>
<path d="M115.897 244.895L63.5417 387.344L63.53 387.391L63.4124 387.708C63.2595 388.002 62.9773 388.285 62.5657 388.532C61.2485 389.284 59.1082 389.284 57.7793 388.532C57.2031 388.191 56.8856 387.779 56.8033 387.356C56.7915 387.226 56.7915 387.097 56.8033 386.967C56.815 386.626 56.8856 386.309 57.0032 385.98L109.547 242.566C110.182 240.814 112.122 239.92 113.886 240.556C115.639 241.202 116.532 243.143 115.897 244.895Z" fill="black"/>
<path d="M114.721 218.894C113.169 219.799 112.099 222.198 112.475 223.95L159.009 441.593C159.056 441.769 159.08 441.946 159.08 442.122C159.092 442.24 159.092 442.369 159.08 442.498C159.009 442.922 158.68 443.345 158.104 443.686C156.787 444.45 154.646 444.45 153.329 443.686C152.847 443.404 152.541 443.063 152.4 442.71C152.4 442.698 152.4 442.686 152.388 442.675L152.33 442.392L105.866 225.373C104.89 220.799 107.289 215.377 111.346 213.037" fill="#455A64"/>
<path d="M127.708 438.715L84.5426 438.128L84.1675 473.379H84.171C84.1357 476.569 86.2067 479.783 90.3956 482.262C98.7699 487.22 112.436 487.367 120.92 482.592C125.199 480.182 127.335 476.98 127.333 473.761L127.708 438.715Z" fill="black"/>
<path d="M90.9671 429.392C82.487 434.169 82.4023 442.06 90.7766 447.018C99.1509 451.976 112.817 452.123 121.301 447.347C129.785 442.571 129.869 434.68 121.491 429.721C113.114 424.763 99.4461 424.615 90.9671 429.392Z" fill="#455A64"/>
<path d="M125.852 438.574C125.852 439.137 125.734 439.701 125.546 440.265C124.889 442.284 123.127 444.163 120.38 445.713C116.552 447.85 111.457 449.002 106.008 448.954C100.583 448.884 95.5111 447.64 91.7291 445.409C89.0749 443.835 87.3379 441.933 86.7264 439.96C86.5147 439.374 86.4207 438.763 86.4207 438.152C86.4677 435.521 88.3928 432.986 91.8926 431.036C95.6969 428.875 100.817 427.724 106.241 427.795C111.689 427.842 116.763 429.109 120.543 431.34C123.997 433.383 125.875 435.943 125.852 438.574Z" fill="#263238"/>
<path d="M125.547 440.265C124.89 442.284 123.128 444.163 120.381 445.713C116.553 447.85 111.458 449.001 106.009 448.954C100.584 448.884 95.5123 447.64 91.7302 445.409C89.076 443.835 87.3391 441.933 86.7275 439.96C87.3849 437.941 89.1466 436.062 91.8937 434.535C95.6981 432.375 100.818 431.224 106.242 431.271C111.69 431.341 116.764 432.609 120.545 434.841C123.199 436.414 124.912 438.292 125.547 440.265Z" fill="#0C71BC"/>
<path d="M115.327 451.921C116.272 451.389 117.031 451.837 117.018 452.922C117.006 454.009 116.229 455.321 115.282 455.855C114.335 456.389 113.578 455.941 113.591 454.854C113.604 453.768 114.38 452.455 115.327 451.921Z" fill="#263238"/>
<path d="M84.4721 444.327C82.1001 449 77.3796 460.132 83.5089 464.665C83.7677 464.853 84.0029 465.017 84.2604 465.181L84.2369 467.435C83.6265 467.06 82.9927 466.637 82.3812 466.191C73.2225 459.404 83.5548 441.978 84.0017 441.251C84.1193 441.039 84.3075 440.921 84.518 440.851L84.4721 444.327Z" fill="#E0E0E0"/>
<path d="M116.13 454.332C115.871 454.872 109.202 467.625 98.2348 470.185C96.9671 470.491 95.7217 470.631 94.454 470.631C91.0483 470.631 87.6437 469.573 84.238 467.437L84.2616 465.182C88.7939 468.329 93.3497 469.409 97.8126 468.376C107.934 466.004 114.417 453.581 114.464 453.463C114.699 452.993 115.286 452.829 115.731 453.063C116.201 453.299 116.388 453.862 116.13 454.332Z" fill="#E0E0E0"/>
<path d="M205.712 330.518L201.251 327.943C199.845 327.131 198.705 325.157 198.705 323.533L198.704 119.806C198.704 118.182 199.843 116.208 201.25 115.396L349.02 30.0809C350.427 29.2694 352.706 29.2694 354.112 30.0809L358.575 32.6563C359.982 33.4678 361.121 35.4423 361.121 37.0663V240.794C361.121 242.418 359.982 244.393 358.575 245.204L210.804 330.52C209.397 331.33 207.118 331.33 205.712 330.518Z" fill="#0C71BC"/>
<path opacity="0.4" d="M361.093 36.6489C360.917 35.3317 359.847 34.8496 358.576 35.5905L210.8 120.909C210.106 121.309 209.471 122.015 209.001 122.814L199.452 117.299C199.911 116.499 200.546 115.805 201.251 115.394L349.016 30.075C350.427 29.2636 352.708 29.2636 354.108 30.075L358.576 32.6505C359.858 33.3913 360.928 35.1201 361.093 36.6489Z" fill="white"/>
<path opacity="0.1" d="M210.212 330.778C208.825 331.319 206.931 331.225 205.708 330.519L201.251 327.944C199.84 327.133 198.699 325.157 198.699 323.534V119.804C198.699 118.992 198.993 118.099 199.452 117.299L209.001 122.814C208.542 123.614 208.26 124.508 208.26 125.319V329.049C208.26 330.437 209.095 331.119 210.212 330.778Z" fill="white"/>
<path d="M372.667 197.009L372.669 197.021C372.333 196.819 371.89 196.837 371.437 197.134L365.489 201.049C364.675 201.584 363.66 201.309 363.101 200.51C362.742 199.998 362.354 199.524 361.941 199.09C361.27 198.384 360.906 197.17 361.244 196.257L370.698 190.265L363.64 186.193L363.634 186.2C363.493 186.118 363.342 186.05 363.168 186.011L358.684 185.008C357.733 184.795 356.595 185.322 356.142 186.185L351.926 194.219C351.473 195.082 350.323 195.895 349.379 196.134C349.293 196.156 349.205 196.187 349.119 196.21C349.379 195.45 349.488 194.341 349.488 194.341L342.41 190.257L342.412 190.265C342.034 190.044 341.546 190.085 341.086 190.447L334.366 195.73C333.601 196.332 333.029 197.608 333.09 198.581L333.491 204.973C333.552 205.946 333.071 207.319 332.446 208.067C331.345 209.384 330.303 210.766 329.326 212.197C328.777 213.002 327.565 213.632 326.592 213.584L322.272 213.371C321.3 213.323 320.188 214.005 319.792 214.895L315.731 224C315.368 224.815 315.682 225.741 316.424 226.187L316.422 226.195L321.209 228.958C321.363 229.351 321.415 229.783 321.321 230.197C320.988 231.661 320.736 233.113 320.573 234.54C320.462 235.508 319.834 236.831 319.117 237.491L313.164 242.965C312.447 243.625 312 244.937 312.164 245.897L313.283 252.39C313.356 252.813 313.555 253.107 313.82 253.269L313.811 253.275L320.912 257.372L321.006 249.244C321.819 248.709 322.834 248.984 323.393 249.782C323.752 250.295 324.14 250.769 324.552 251.203C325.224 251.909 325.587 253.122 325.25 254.036L322.217 262.241C321.948 262.969 322.213 263.69 322.811 264.064L322.806 264.071L329.895 268.162L331.826 262.88L334.566 256.073C335.019 255.21 336.169 254.398 337.113 254.157C338.015 253.928 338.937 253.624 339.875 253.245C340.778 252.879 341.714 253.281 341.995 254.214L343.511 259.246C343.624 259.622 343.833 259.884 344.088 260.031L344.082 260.036L351.192 264.135L349.948 256.274L352.124 254.563C352.889 253.961 353.461 252.685 353.4 251.712L352.999 245.319C352.938 244.347 353.419 242.973 354.044 242.225C355.146 240.908 356.808 240.205 357.785 238.775C358.334 237.971 358.926 236.662 359.898 236.71L364.218 236.923C365.19 236.971 366.302 236.289 366.698 235.399L370.759 226.294C371.156 225.404 370.75 224.374 369.854 223.992L366.364 222.503C365.468 222.121 364.95 221.048 365.167 220.098C365.5 218.634 365.751 217.181 365.915 215.755C366.025 214.787 366.653 213.464 367.369 212.805L373.322 207.331C373.832 206.863 374.193 206.066 374.307 205.299L379.714 201.082L372.667 197.009ZM345.633 238.994C338.35 244.72 331.379 243.16 330.062 235.512C328.745 227.863 334.704 218.144 341.987 212.42C349.27 206.695 355.117 207.13 356.434 214.778C357.751 222.426 352.915 233.268 345.633 238.994Z" fill="#263238"/>
<path d="M319.053 237.55L313.168 242.962C312.733 243.361 312.42 244.002 312.26 244.657L321.003 249.706L321.009 249.241C321.823 248.706 322.838 248.982 323.396 249.78C323.399 249.784 323.402 249.786 323.405 249.789L331.831 244.924L319.053 237.55Z" fill="#455A64"/>
<path d="M334.051 221.162C334.715 220.134 335.44 219.133 336.217 218.168L327.826 213.321C327.415 213.49 326.987 213.603 326.593 213.583L322.273 213.37C321.661 213.339 320.993 213.6 320.483 214.019L333.399 221.476L334.051 221.162Z" fill="#455A64"/>
<path d="M379.722 201.075C379.393 200.887 378.958 200.922 378.511 201.216L372.56 205.132C371.749 205.661 370.738 205.391 370.173 204.591C369.809 204.074 369.432 203.603 369.009 203.168C368.339 202.462 367.974 201.251 368.315 200.334L368.879 198.817L371.431 197.135C371.89 196.841 372.337 196.818 372.666 197.018V197.006L379.722 201.075Z" fill="#455A64"/>
<path d="M362.139 199.333C362.069 199.257 362.012 199.165 361.941 199.091C361.27 198.385 360.906 197.172 361.244 196.258L370.698 190.266L363.64 186.194L363.635 186.201C363.493 186.12 363.342 186.051 363.168 186.013L358.684 185.009C357.733 184.797 356.595 185.323 356.142 186.187L351.926 194.22C351.723 194.608 351.368 194.978 350.964 195.298L360.489 200.797L362.139 199.333Z" fill="#455A64"/>
<path d="M333.263 197.492L342.01 202.541L349.199 195.953C349.403 195.223 349.49 194.342 349.49 194.342L342.411 190.258L342.414 190.266C342.035 190.045 341.547 190.086 341.087 190.448L334.367 195.731C333.871 196.122 333.477 196.8 333.263 197.492Z" fill="#455A64"/>
<path d="M381.401 208.477L380.283 201.984C380.117 201.024 379.323 200.68 378.51 201.215L372.561 205.13C371.748 205.665 370.733 205.39 370.174 204.591C369.815 204.078 369.427 203.604 369.015 203.172C368.343 202.466 367.98 201.252 368.317 200.339L371.351 192.133C371.689 191.219 371.193 190.306 370.241 190.093L365.757 189.091C364.806 188.879 363.669 189.405 363.216 190.269L359 198.302C358.547 199.165 357.397 199.978 356.453 200.218C355.551 200.447 354.629 200.75 353.691 201.13C352.788 201.496 351.852 201.094 351.571 200.161L350.055 195.129C349.774 194.196 348.925 193.928 348.159 194.53L341.44 199.813C340.674 200.415 340.103 201.691 340.164 202.664L340.565 209.056C340.626 210.029 340.145 211.402 339.519 212.15C338.419 213.468 337.377 214.849 336.399 216.281C335.85 217.085 334.639 217.714 333.665 217.667L329.346 217.454C328.373 217.406 327.262 218.088 326.866 218.978L322.805 228.083C322.407 228.973 322.813 230.003 323.709 230.385L327.198 231.874C328.095 232.256 328.612 233.329 328.397 234.279C328.064 235.743 327.812 237.196 327.649 238.622C327.538 239.59 326.91 240.913 326.193 241.573L320.24 247.047C319.523 247.707 319.076 249.019 319.24 249.979L320.359 256.471C320.525 257.431 321.317 257.776 322.132 257.241L328.082 253.326C328.895 252.791 329.91 253.066 330.469 253.864C330.828 254.377 331.216 254.851 331.628 255.285C332.3 255.99 332.663 257.204 332.326 258.118L329.293 266.323C328.955 267.237 329.452 268.149 330.403 268.362L334.886 269.364C335.837 269.577 336.975 269.05 337.427 268.187L341.643 260.154C342.096 259.292 343.246 258.479 344.19 258.238C345.092 258.009 346.014 257.705 346.952 257.325C347.855 256.96 348.791 257.361 349.072 258.294L350.588 263.326C350.869 264.259 351.718 264.527 352.484 263.925L359.202 258.642C359.968 258.04 360.539 256.764 360.478 255.792L360.077 249.399C360.016 248.426 360.497 247.053 361.122 246.306C362.224 244.989 363.266 243.607 364.242 242.176C364.792 241.372 366.003 240.741 366.977 240.79L371.296 241.002C372.269 241.051 373.38 240.369 373.776 239.478L377.837 230.374C378.233 229.483 377.829 228.453 376.933 228.071L373.443 226.582C372.547 226.2 372.03 225.128 372.246 224.177C372.579 222.713 372.831 221.262 372.994 219.834C373.105 218.867 373.733 217.544 374.45 216.885L380.403 211.411C381.119 210.75 381.566 209.437 381.401 208.477ZM352.706 243.076C345.424 248.802 338.452 247.242 337.134 239.594C335.817 231.945 340.653 221.103 347.936 215.379C355.218 209.653 362.189 211.211 363.506 218.859C364.823 226.508 359.989 237.35 352.706 243.076Z" fill="black"/>
<path d="M339.038 134.15L332.073 130.133L332.072 130.139C331.785 129.976 331.403 129.964 330.979 130.156L318.396 135.828C317.508 136.228 316.594 135.785 316.3 134.857C315.569 132.545 314.626 130.463 313.496 128.619C312.986 127.789 312.871 126.443 313.304 125.571L321.691 108.661C322.124 107.788 321.791 106.685 320.947 106.198L311.846 100.944C311.001 100.457 309.881 100.719 309.341 101.531L298.891 117.247C298.351 118.058 297.128 118.631 296.154 118.605C294.971 118.575 293.75 118.636 292.504 118.776V107.281L285.521 103.255C285.212 103.09 284.806 103.111 284.379 103.358L270.242 111.52C269.399 112.007 268.644 113.189 268.556 114.159L267.14 129.889C267.053 130.859 266.386 132.167 265.67 132.827C262.919 135.36 260.291 138.151 257.817 141.139C257.196 141.889 255.96 142.246 255.039 141.925L245.965 138.756C245.045 138.435 243.905 138.858 243.418 139.701L233.025 157.701C232.539 158.544 232.742 159.744 233.479 160.38L240.761 166.654C241.5 167.29 241.807 168.54 241.468 169.454C240.118 173.09 239.014 176.763 238.195 180.412C237.982 181.362 237.184 182.591 236.386 183.152L223.473 192.243C222.677 192.804 222.03 194.048 222.03 195.022V211.345C222.03 211.848 222.224 212.211 222.532 212.394L222.528 212.397L229.492 216.412L239.833 211.517C240.233 212.355 240.658 213.164 241.122 213.921C241.631 214.751 241.747 216.097 241.313 216.969L232.925 233.879C232.493 234.752 232.825 235.855 233.67 236.342L242.771 241.596C243.614 242.083 244.736 241.821 245.276 241.009L255.727 225.291C256.267 224.479 257.49 223.907 258.463 223.932C260.626 223.989 262.9 223.765 265.269 223.242C266.22 223.032 267.059 223.602 267.156 224.572L268.536 238.306C268.583 238.775 268.788 239.104 269.08 239.269L269.077 239.271L276.028 243.279L284.377 231.015C285.22 230.529 285.975 229.347 286.063 228.377L287.479 212.648C287.566 211.677 288.389 210.645 289.288 210.268C293.326 208.576 297.409 205.654 300.268 202.566C300.93 201.851 302.165 201.492 303.083 201.815L308.654 203.777C309.572 204.1 310.713 203.679 311.2 202.835L321.592 184.835C322.079 183.992 321.876 182.792 321.138 182.156L316.352 178.032C315.614 177.396 315.308 176.146 315.575 175.208C316.722 171.181 316.982 165.912 316.873 162.164C316.845 161.19 317.434 159.946 318.23 159.385L331.145 150.295C331.941 149.734 332.588 148.49 332.588 147.516L338.76 140.118L339.038 134.15ZM277.309 198.847C264.12 206.463 255.921 201.06 255.921 185.83C255.921 170.601 266.82 151.944 280.01 144.329C293.199 136.713 301.19 142.253 301.19 157.483C301.191 172.713 290.499 191.233 277.309 198.847Z" fill="#263238"/>
<path d="M318.918 114.252L321.692 108.659C322.125 107.786 321.792 106.683 320.948 106.196L311.847 100.942C311.002 100.455 309.882 100.717 309.342 101.529L298.891 117.247C298.721 117.502 298.471 117.72 298.196 117.918L309.895 124.671L318.918 114.252Z" fill="#455A64"/>
<path d="M237.385 182.094C237.083 182.521 236.739 182.908 236.388 183.156L223.474 192.247C223.149 192.476 222.865 192.831 222.624 193.223L230.504 197.773L247.649 188.019L237.385 182.094Z" fill="#455A64"/>
<path d="M245.236 138.653C244.508 138.68 243.781 139.075 243.418 139.704L233.025 157.704C232.798 158.096 232.736 158.565 232.792 159.019L241.75 164.191L255.975 144.947L245.236 138.653Z" fill="#455A64"/>
<path d="M268.829 113.225L279.912 119.625L292.503 112.356V107.284L285.52 103.258C285.21 103.093 284.805 103.114 284.378 103.361L270.241 111.522C269.66 111.858 269.137 112.527 268.829 113.225Z" fill="#455A64"/>
<path d="M339.539 151.526V135.202C339.539 134.229 338.819 133.763 337.932 134.164L325.35 139.836C324.462 140.236 323.548 139.795 323.254 138.866C322.523 136.554 321.578 134.471 320.448 132.627C319.939 131.797 319.825 130.451 320.256 129.579L328.644 112.668C329.076 111.795 328.744 110.692 327.899 110.205L318.798 104.951C317.955 104.464 316.833 104.726 316.293 105.538L305.841 121.256C305.301 122.068 304.078 122.64 303.104 122.614C300.943 122.558 298.667 122.783 296.299 123.305C295.347 123.515 294.509 122.945 294.411 121.975L293.032 108.243C292.934 107.274 292.171 106.882 291.328 107.369L277.191 115.53C276.348 116.017 275.593 117.199 275.505 118.169L274.089 133.898C274.002 134.868 273.335 136.176 272.619 136.836C269.868 139.369 267.241 142.161 264.766 145.148C264.144 145.898 262.908 146.256 261.988 145.935L252.913 142.765C251.993 142.444 250.852 142.868 250.365 143.712L239.973 161.713C239.486 162.556 239.69 163.756 240.427 164.392L247.709 170.666C248.447 171.302 248.754 172.552 248.416 173.466C247.066 177.102 245.963 180.774 245.144 184.423C244.931 185.373 244.133 186.602 243.335 187.163L230.422 196.253C229.626 196.814 228.979 198.058 228.979 199.032V215.355C228.979 216.33 229.698 216.794 230.586 216.395L243.17 210.723C244.057 210.323 244.971 210.764 245.265 211.693C245.997 214.005 246.94 216.088 248.07 217.932C248.579 218.762 248.694 220.108 248.26 220.981L239.873 237.891C239.44 238.763 239.773 239.865 240.618 240.353L249.719 245.608C250.562 246.094 251.684 245.832 252.224 245.021L262.676 229.304C263.216 228.492 264.439 227.919 265.414 227.944C267.576 228.001 269.851 227.776 272.219 227.254C273.17 227.043 274.009 227.614 274.107 228.584L275.486 242.317C275.584 243.286 276.347 243.678 277.19 243.19L291.327 235.027C292.17 234.54 292.925 233.358 293.013 232.388L294.429 216.658C294.516 215.688 295.183 214.381 295.899 213.722C298.65 211.188 301.277 208.398 303.75 205.412C304.371 204.662 305.608 204.303 306.528 204.624L315.603 207.792C316.523 208.113 317.663 207.69 318.15 206.845L328.542 188.846C329.029 188.002 328.826 186.803 328.089 186.167L320.807 179.893C320.068 179.257 319.761 178.006 320.1 177.093C321.45 173.456 322.554 169.785 323.373 166.136C323.586 165.186 324.384 163.957 325.181 163.396L338.095 154.305C338.894 153.746 339.539 152.501 339.539 151.526ZM284.261 202.856C271.071 210.471 260.378 204.298 260.378 189.068C260.378 173.839 271.071 155.319 284.261 147.703C297.45 140.089 308.142 146.261 308.142 161.491C308.142 176.722 297.45 195.241 284.261 202.856Z" fill="black"/>
<path d="M339.043 134.151V134.163C338.761 133.975 338.361 133.963 337.926 134.163L325.343 139.831C324.461 140.231 323.543 139.796 323.249 138.867C322.755 137.279 322.156 135.809 321.45 134.445L330.976 130.153C331.399 129.964 331.787 129.976 332.069 130.141V130.129L339.043 134.151Z" fill="#455A64"/>
<path d="M438.103 440.612V439.274C437.575 440.844 435.128 447.601 431.414 450.988C428.462 453.68 424.436 456.79 423.412 459.791C422.346 462.914 429.015 463.961 431.773 463.473C434.978 462.906 439.123 461.088 441.38 458.315C442.966 456.366 443.976 454.056 445.109 452.522C446.241 450.99 448.853 449.278 449.466 447.504C449.802 446.53 449.402 444.395 448.93 442.592C448.496 440.938 448.025 439.118 447.461 439.274C447.46 439.476 447.461 440.293 447.461 440.293C446.781 441.046 444.902 441.794 442.783 441.875C441.414 441.928 438.093 441.656 438.103 440.612Z" fill="#263238"/>
<path d="M428.744 453.356C429.658 452.539 430.58 451.74 431.415 450.978C434.01 448.612 435.986 444.6 437.123 441.861C437.77 440.298 438.104 438.629 438.104 436.937V431.604H447.462V440.285V440.286V440.518L447.415 440.541C446.964 442.486 442.67 447.659 440.231 451.031C438.595 453.293 435.488 456.169 431.774 456.664C428.254 457.134 426.456 456.025 428.744 453.356Z" fill="#FFA8A7"/>
<path d="M401.603 431.387V430.049C401.075 431.619 398.627 438.376 394.914 441.763C391.962 444.455 387.935 447.566 386.911 450.567C385.845 453.689 392.514 454.737 395.272 454.249C398.477 453.681 402.622 451.863 404.879 449.091C406.465 447.142 407.476 444.831 408.609 443.299C409.742 441.767 412.354 440.054 412.966 438.281C413.303 437.306 412.903 435.172 412.43 433.369C411.996 431.714 411.526 429.895 410.961 430.05C410.96 430.253 410.961 431.071 410.961 431.071C410.281 431.824 408.402 432.572 406.283 432.653C404.913 432.703 401.592 432.432 401.603 431.387Z" fill="#263238"/>
<path d="M392.242 444.13C393.156 443.313 394.078 442.515 394.913 441.753C397.508 439.387 399.485 435.374 400.621 432.635C401.269 431.072 401.602 429.403 401.602 427.711V422.378H410.96V431.059V431.06V431.292L410.913 431.316C410.462 433.261 406.169 438.433 403.729 441.806C402.094 444.067 398.986 446.944 395.272 447.439C391.753 447.909 389.955 446.799 392.242 444.13Z" fill="#FFA8A7"/>
<path d="M445.599 295.182C452.854 311.027 445.337 366.844 445.337 366.844C445.556 369.416 448.494 374.475 449.59 385.791C450.884 399.164 447.559 432.739 447.559 432.739C447.559 432.739 443.227 435.572 438.102 433.115C438.102 433.115 429.183 382.548 427.506 369.253C426.043 357.651 423.234 332.139 423.234 332.139L415.25 369.191C415.25 369.191 417.3 375.691 417.778 380.643C418.536 388.463 410.959 424.874 410.959 424.874C410.959 424.874 407.729 426.058 401.601 425.156C401.601 425.156 398.921 376.837 398.215 367.418C397.028 351.597 401.23 302.232 404.132 292.866L445.599 295.182Z" fill="black"/>
<path d="M423.235 332.136L420.88 317.42C420.88 317.42 410.915 315.356 406.396 311.107C406.396 311.107 411.138 317.005 418.18 318.937L420.824 330.268L416.2 364.576L423.235 332.136Z" fill="#263238"/>
<path d="M407.893 285.192C413.384 266.916 420.389 239.702 417.746 239.702C415.102 239.702 411.044 239.459 408.072 242.445C402.214 248.331 401.144 259.239 399.915 265.464C398.685 271.69 397.805 276.606 395.845 285.843C394.356 292.858 392.544 301.323 389.889 306.737C389.418 307.697 388.588 308.428 387.6 308.833C384.946 309.916 383.715 311.286 381.585 312.862C379.917 314.095 378.651 314.255 378.755 314.758C378.889 315.403 379.728 316.556 381.548 316.328C382.464 316.212 383.706 315.727 385.264 315.074C385.264 315.074 383.753 317.842 380.75 320.449C376.681 323.983 376.095 326.486 382.862 327.719C387.103 328.493 390.945 326.46 395.761 317.655C397.149 315.119 399.327 311.112 400.567 307.663C403.792 298.682 406.233 290.718 407.893 285.192Z" fill="#FFA8A7"/>
<path d="M432.803 240.133C442.104 240.773 442.757 245.264 445.084 250.178C446.856 253.917 446.876 258.254 445.524 262.166L439.043 280.916C439.043 280.916 442.078 288.252 445.6 295.182C429.335 304.261 409.026 299.488 404.135 292.863C403.928 291.457 405.185 280.472 405.959 273.297C403.094 266.11 402.338 261.555 403.547 256.805C405.79 247.988 414.5 239.398 418.354 239.71L432.803 240.133Z" fill="#0C71BC"/>
<path d="M423.862 232.426H427.471C437.971 232.426 446.481 223.915 446.481 213.416C446.481 202.86 437.925 194.302 427.368 194.302H423.964C413.409 194.302 404.851 202.86 404.851 213.416C404.851 223.914 413.363 232.426 423.862 232.426Z" fill="#263238"/>
<path d="M456.661 242.445C450.457 242.445 445.429 237.417 445.429 231.213V207.162C451.632 207.162 456.661 212.19 456.661 218.394V242.445Z" fill="#263238"/>
<path d="M447.488 202.896L444.673 207.422C445.92 208.257 447.563 207.92 448.341 206.67C449.117 205.42 448.736 203.731 447.488 202.896Z" fill="#263238"/>
<path d="M411.689 202.72C409.49 204.02 406.773 209.549 407.042 221.142C407.269 230.968 410.453 233.394 412.053 234.093C413.652 234.793 416.735 234.367 419.734 233.868V239.764C419.734 239.764 415.591 244.577 415.851 247.281C416.112 249.985 421.835 250.624 425.712 247.982C429.589 245.341 432.075 241.32 432.075 241.32V227.067C432.075 227.067 434.099 229.769 437.409 227.571C440.72 225.373 440.846 219.931 438.921 217.977C436.995 216.023 432.848 216.643 432.074 219.342C432.074 219.342 427.292 219.516 420.925 216.018C414.559 212.521 412.112 206.529 411.689 202.72Z" fill="#FFA8A7"/>
<path d="M419.111 218.674C419.076 219.382 419.599 219.981 420.28 220.014C420.962 220.046 421.543 219.499 421.578 218.791C421.614 218.083 421.09 217.484 420.408 217.451C419.727 217.418 419.146 217.966 419.111 218.674Z" fill="#263238"/>
<path d="M417.681 227.002L414.812 227.917C415.049 228.738 415.885 229.199 416.678 228.947C417.469 228.694 417.919 227.823 417.681 227.002Z" fill="#F28F8F"/>
<path d="M408.981 214.88L411.481 213.148C411.025 212.434 410.096 212.243 409.406 212.722C408.714 213.199 408.525 214.166 408.981 214.88Z" fill="#263238"/>
<path d="M409.557 217.781C409.522 218.489 410.045 219.089 410.727 219.122C411.409 219.153 411.99 218.607 412.026 217.899C412.061 217.191 411.537 216.591 410.855 216.558C410.175 216.525 409.592 217.072 409.557 217.781Z" fill="#263238"/>
<path d="M415.591 217.073L415.395 224.51L411.48 223.298L415.591 217.073Z" fill="#F28F8F"/>
<path d="M419.733 233.868C422.893 233.454 429.394 231.586 430.407 229.017C430.407 229.017 430.069 230.631 428.127 232.295C426.186 233.959 419.733 235.835 419.733 235.835V233.868Z" fill="#F28F8F"/>
<path opacity="0.1" d="M428.643 296.94C433.985 295.675 437.374 290.271 435.963 284.965C435.909 284.764 435.854 284.591 435.797 284.453C434.752 281.939 432.503 282.269 432.503 282.269C434.612 280.871 436.075 278.69 436.569 276.209L438.542 266.296C438.542 266.296 434.875 254.649 435.248 250.659L444.582 251.197C444.582 251.197 445.051 251.524 445.79 252.037C446.808 255.312 446.657 258.886 445.523 262.166L439.042 280.916C439.042 280.916 442.077 288.252 445.599 295.182C433.612 301.872 419.436 301.037 410.846 297.484C417.632 298.536 423.917 298.06 428.643 296.94Z" fill="white"/>
<path d="M442.086 287.861C438.644 288.773 428.192 290.016 427.423 282.679C426.92 277.878 427.157 270.608 427.466 265.116C427.954 256.446 431.047 248.114 436.418 241.291C436.682 240.957 436.832 240.775 436.832 240.775C436.832 240.775 435.322 239.543 432.075 240.113C432.075 240.113 425.016 246.801 422.873 256.539C418.201 255.856 412.295 255.351 408.369 255.057C411.66 244.261 419.734 239.764 419.734 239.764C417.998 238.85 415.592 239.697 415.592 239.697C409.102 243.404 405.685 249.667 404.115 254.765C400.37 265.135 400.505 303.735 400.57 317.445L407.023 307.168H448.219C447.689 292.429 442.086 287.861 442.086 287.861Z" fill="black"/>
<path d="M462.209 277.835C462.209 277.835 457.817 268.456 451.717 254.555C447.308 244.508 446.321 242.244 439.311 241.158L436.831 240.773C433.509 251.693 435.797 256.64 440.177 264.118L448.826 280.883C452.268 280.201 462.283 278.874 462.209 277.835Z" fill="#FFA8A7"/>
<path d="M448.826 280.884C451.398 286.05 453.598 289.245 456.712 290.082C459.826 290.917 485.576 290.62 485.576 290.62V280.884L461.078 277.163L448.826 280.884Z" fill="#FFA8A7"/>
<path d="M500.305 387.792H459.805V466.69C459.615 469.82 461.568 472.987 465.708 475.377C473.622 479.947 486.455 479.947 494.369 475.377C498.331 473.089 500.309 470.091 500.304 467.093H500.305V387.792Z" fill="#0C71BC"/>
<path d="M496.044 380.629H496.063C491.583 377.699 494.369 370.574 494.369 370.574H465.708C465.708 370.574 468.418 377.655 464.015 380.629H464.033C457.857 385.219 458.405 391.849 465.708 396.065C473.622 400.635 486.455 400.635 494.369 396.065C501.673 391.849 502.22 385.22 496.044 380.629Z" fill="#0C71BC"/>
<path opacity="0.05" d="M496.044 380.629H496.063C491.583 377.699 494.369 370.574 494.369 370.574H465.708C465.708 370.574 468.418 377.655 464.015 380.629H464.033C457.857 385.219 458.405 391.849 465.708 396.065C473.622 400.635 486.455 400.635 494.369 396.065C501.673 391.849 502.22 385.22 496.044 380.629Z" fill="white"/>
<path opacity="0.05" d="M493.576 374.08C493.769 372.129 494.369 370.575 494.369 370.575H465.708C465.708 370.575 466.292 372.121 466.474 374.067C474.165 378.079 485.876 378.084 493.576 374.08Z" fill="white"/>
<path d="M500.305 356.784H497.91C496.991 355.794 495.815 354.862 494.369 354.027C486.454 349.457 473.622 349.457 465.707 354.027C464.261 354.862 463.085 355.794 462.167 356.784H459.772V362.3C459.772 365.294 461.75 368.289 465.709 370.574C473.623 375.144 486.456 375.144 494.37 370.574C498.327 368.289 500.307 365.295 500.307 362.3V356.784H500.305Z" fill="#0C71BC"/>
<path d="M465.708 365.059C473.622 369.629 486.455 369.629 494.369 365.059C502.284 360.489 502.284 353.08 494.369 348.511C486.455 343.941 473.622 343.941 465.708 348.511C457.793 353.08 457.793 360.489 465.708 365.059Z" fill="#0C71BC"/>
<path opacity="0.4" d="M465.708 365.059C473.622 369.629 486.455 369.629 494.369 365.059C502.284 360.489 502.284 353.08 494.369 348.511C486.455 343.941 473.622 343.941 465.708 348.511C457.793 353.08 457.793 360.489 465.708 365.059Z" fill="white"/>
<path opacity="0.2" d="M480.049 470.195C477.867 470.195 476.099 468.427 476.099 466.245V409.887C476.099 407.705 477.867 405.936 480.049 405.936C482.23 405.936 483.999 407.705 483.999 409.887V466.245C483.999 468.427 482.23 470.195 480.049 470.195Z" fill="white"/>
<path opacity="0.2" d="M493.542 467.817C491.652 468.505 490.121 467.531 490.121 465.642V408.225C490.121 406.335 491.652 404.246 493.542 403.558C495.432 402.871 496.963 403.845 496.963 405.734V463.151C496.963 465.041 495.432 467.13 493.542 467.817Z" fill="white"/>
<path opacity="0.2" d="M466.556 467.817C468.445 468.505 469.977 467.531 469.977 465.642V408.225C469.977 406.335 468.445 404.246 466.556 403.558C464.666 402.871 463.135 403.845 463.135 405.734V463.151C463.135 465.041 464.667 467.13 466.556 467.817Z" fill="white"/>
<path d="M485.576 214.87L477.301 210.092L472.085 234.661C472.085 234.661 477.302 243.189 477.302 248.705V353.508L482.775 359.898L485.576 358.285V253.481C485.576 247.965 490.793 245.461 490.793 245.461L485.576 214.87Z" fill="#E0E0E0"/>
<path d="M482.775 216.484L474.499 211.706L469.284 236.275C469.284 236.275 474.5 244.802 474.5 250.319V355.121L482.775 359.898V255.096C482.775 249.579 487.992 247.075 487.992 247.075L482.775 216.484Z" fill="#EBEBEB"/>
<path d="M474.5 211.706L477.302 210.092L485.576 214.87L482.775 216.484L474.5 211.706Z" fill="#FAFAFA"/>
<path d="M485.576 214.87L482.775 216.484L487.992 247.075L490.793 245.462L485.576 214.87Z" fill="#F5F5F5"/>
<path d="M485.576 273.164C486.001 271.314 488.923 270.275 488.634 273.362C488.345 276.449 489.823 278.598 490.24 280.034C491.118 283.051 490.918 288.76 489.731 289.882C488.544 291.004 487.023 292.308 484.76 292.135C482.497 291.962 480.907 291.428 478.564 289.609C476.657 288.129 474.617 279.612 479.041 280.818C485.617 282.613 485.575 277.883 485.575 277.883V273.164H485.576Z" fill="#FFA8A7"/>
<path d="M269.376 301.083C274.002 302.011 276.735 305.407 282.303 314.063C287.87 322.718 296.513 337.506 296.513 337.506L318.129 345.779L317.204 355.501C317.204 355.501 293.622 351.317 290.396 348.919C287.17 346.521 274.676 328.436 274.676 328.436L269.376 301.083Z" fill="#FFA8A7"/>
<path d="M265.509 299.304C270.31 300.154 275.055 301.321 278.004 305.889C280.953 310.458 291.712 327.936 291.712 327.936C291.712 327.936 287.786 337.132 280.644 338.525L270.361 323.715L265.509 299.304Z" fill="#E6E6E6"/>
<path d="M247.914 299.698C246.266 300.094 244.605 300.198 243.153 300.489C236.013 301.924 234.692 305.635 234.523 314.258C234.241 328.688 234.484 362.086 234.484 362.086C240.843 366.718 264.345 369.547 277.727 359.774C277.727 359.774 277.046 321.351 277.046 314.545C277.046 307.738 273.264 299.56 262.821 298.953L247.914 299.698Z" fill="#F5F5F5"/>
<path d="M232.832 495.624H242.065V479.819H232.832V495.624Z" fill="#FFA8A7"/>
<path d="M270.595 483.656L279.822 483.972L280.285 467.246L270.595 466.93V483.656Z" fill="#FFA8A7"/>
<path d="M279.059 359.775L277.407 322.268L248.355 326.949C248.355 326.949 248.616 333.825 247.327 344.71C246.778 349.343 242.335 355.655 234.457 357.742C234.457 357.742 233.975 363.357 234.386 375.955C234.529 380.328 232.475 428.699 232.475 428.699C232.26 431.236 229.818 435.747 229.628 444.884C229.353 458.137 232.437 487.721 232.437 487.721C232.437 487.721 236.918 490.34 242.716 487.925C242.716 487.925 248.922 445.403 250.576 432.286C252.02 420.839 258.047 388.649 258.047 388.649L265.103 427.345C265.103 427.345 263.402 434.173 263.959 442.018C264.391 448.085 270.009 478.476 270.009 478.476C270.009 478.476 274.354 481.424 280.669 479.292C280.669 479.292 281.219 431.589 281.326 426.022C281.451 419.674 279.059 359.778 279.059 359.775Z" fill="black"/>
<path d="M277.407 322.268C277.102 314.845 276.066 307.993 269.666 301.575C267.932 299.834 265.548 298.893 263.091 298.893H261.724C261.724 298.893 268.14 303.99 270.652 311.377C272.83 317.78 272.692 325.771 272.692 325.771L277.407 322.268Z" fill="black"/>
<path d="M242.066 491.067V489.749C242.561 489.738 242.868 490.23 243.056 491.419C243.191 492.269 243.316 492.911 243.596 494.031C244.024 495.74 244.408 496.786 245.208 498.756C246.513 501.972 247.609 503.17 250.598 506.93C251.307 507.823 252.907 509.239 253.465 510.232C254.023 511.226 254.22 513.99 253.271 514.622C249.785 516.946 244.492 517.011 240.747 515.914C237.867 515.069 235.788 512.769 235.311 509.805C235.173 508.954 235.224 508.084 235.126 507.228C234.904 505.274 233.922 503.489 232.814 501.864C232.171 500.922 231.472 500.001 231.041 498.945C230.266 497.047 230.887 494.913 231.383 493.023C231.811 491.39 232.274 489.596 232.832 489.749C232.833 489.948 232.832 490.755 232.832 490.755C233.502 491.499 235.357 492.236 237.448 492.316C238.8 492.365 242.076 492.097 242.066 491.067Z" fill="#263238"/>
<path d="M279.92 481.126C280.4 481.143 280.79 481.819 281.847 482.964C283.126 484.347 285.215 485.84 287.278 486.872C290.735 488.602 297.456 491.265 300.499 492.636C302.399 493.492 302.31 495.788 300.346 497.094C298.381 498.401 293.639 499.341 287.944 498.068C284.841 497.374 280.803 494.509 278.246 494.663C275.691 494.818 270.907 494.781 269.021 493.48C267.134 492.18 267.889 489.402 268.422 487.016C269.004 484.411 269.732 480.349 270.594 480.527V481.424C271.704 483.104 277.433 483.789 279.87 482.552L279.92 481.126Z" fill="#263238"/>
<path d="M258.049 388.648C258.049 388.648 265.428 386.569 270.905 381.277C270.905 381.277 268.424 385.922 261.046 390.244L264.615 424.664L258.049 388.648Z" fill="#263238"/>
<path d="M264.269 281.694C271.277 281.694 276.958 276.013 276.958 269.005C276.958 261.997 271.277 256.316 264.269 256.316C257.261 256.316 251.58 261.997 251.58 269.005C251.58 276.013 257.261 281.694 264.269 281.694Z" fill="#263238"/>
<path d="M242.335 278.028C242.335 278.028 244.391 287.687 245.215 289.275C246.039 290.862 247.743 291.313 247.743 291.313L247.6 284.518L242.335 278.028Z" fill="#263238"/>
<path d="M244.915 264.188C244.915 264.188 242.701 263.809 240.974 265.574C239.282 267.305 240.228 272.721 242.335 278.026L246.207 278.471L244.915 264.188Z" fill="#263238"/>
<path d="M247.369 278.474C246.593 278.938 245.485 277.447 244.527 276.445C243.57 275.443 240.443 274.074 238.883 277.36C237.295 280.709 240.261 285.134 242.722 285.907C246.964 287.238 247.6 284.517 247.6 284.517L247.913 300.286C253.187 307.048 267.822 306.476 261.725 299.413L261.713 294.756C261.713 294.756 265.556 295.339 267.432 295.05C270.552 294.568 272.515 292.107 273.46 288.73C274.98 283.307 275.557 278.927 274.268 268.261C272.855 256.569 259.256 256.448 251.913 261.07C244.569 265.691 247.369 278.474 247.369 278.474Z" fill="#FFA8A7"/>
<path d="M248.349 329.231C248.566 319.639 246.371 305.411 243.154 300.489C243.154 300.489 245.433 299.365 247.914 299.698C247.914 299.698 253.954 309.106 253.695 329.231H248.349Z" fill="black"/>
<path d="M247.37 279.781C246.979 279.788 245.494 277.324 244.527 276.445C243.188 275.226 244.915 264.188 244.915 264.188C244.915 264.188 243.258 261.068 245.837 258.23C247.672 256.21 250.232 253.744 258.559 254.729C264.494 255.431 270.955 257.282 276.174 254.718C276.956 257.966 276.325 261.588 273.08 264.155C273.08 264.155 271.191 265.374 266.222 265.978C261.253 266.583 253.513 265.862 252.456 265.717C251.015 265.52 250.707 266.917 249.931 270.732C249.248 274.08 248.682 279.756 247.37 279.781Z" fill="#263238"/>
<path d="M244.923 265.047L240.228 262.527C240.894 261.181 242.485 260.655 243.781 261.351C245.079 262.047 245.59 263.702 244.923 265.047Z" fill="#263238"/>
<path d="M261.713 294.756C261.713 294.756 254.75 293.353 252.314 292.06C250.685 291.193 249.343 289.692 248.949 288.73C248.949 288.73 249.405 290.797 250.861 292.658C252.641 294.934 261.712 296.611 261.712 296.611L261.713 294.756Z" fill="#F28F8F"/>
<path d="M261.453 277.616C261.453 278.417 260.829 279.065 260.057 279.062C259.286 279.06 258.661 278.41 258.661 277.609C258.661 276.808 259.286 276.161 260.057 276.162C260.829 276.165 261.453 276.816 261.453 277.616Z" fill="#263238"/>
<path d="M259.974 272.347L256.988 273.995C256.548 273.138 256.86 272.073 257.684 271.618C258.508 271.163 259.534 271.49 259.974 272.347Z" fill="#263238"/>
<path d="M261.083 286.374L264.269 287.568C263.953 288.481 262.984 288.954 262.105 288.625C261.225 288.294 260.768 287.287 261.083 286.374Z" fill="#F28F8F"/>
<path d="M273.897 273.509L271.175 271.413C271.73 270.633 272.79 270.471 273.541 271.049C274.294 271.629 274.453 272.73 273.897 273.509Z" fill="#263238"/>
<path d="M273.059 277.22C273.059 278.021 272.434 278.667 271.663 278.665C270.893 278.663 270.268 278.012 270.268 277.211C270.268 276.411 270.893 275.764 271.663 275.765C272.434 275.767 273.059 276.419 273.059 277.22Z" fill="#263238"/>
<path d="M265.583 276.162L266.041 284.554L270.422 283.061L265.583 276.162Z" fill="#F28F8F"/>
<path d="M332.173 291.75C332.19 289.173 334.335 285.562 333.674 283.638L328.899 280.881L319.334 304.93L309.575 310.477L304.754 303.443L319.178 281.913L314.404 279.155C313.798 279.435 313.194 279.748 312.574 280.1C301.674 286.297 292.769 301.563 292.685 314.198C292.643 320.573 294.855 325.044 298.454 327.123H298.453L303.212 329.872L303.765 328.429C303.882 328.427 303.995 328.437 304.114 328.432V440.331C297.416 447.795 292.748 458.283 292.687 467.42C292.655 472.158 293.865 475.841 295.961 478.29L300.735 481.047L305.526 454.239L315.285 448.692L320.106 455.726L310.457 480.014L315.232 482.771C315.232 482.771 332.092 457.606 332.175 444.97C332.2 441.259 331.45 438.205 330.117 435.88L331.309 434.878L326.571 432.141L326.578 432.156C324.911 431.144 322.942 430.649 320.748 430.736V318.837C327.443 311.374 332.113 300.887 332.173 291.75Z" fill="#455A64"/>
<path d="M304.113 440.332L308.887 443.091V331.192L304.113 328.433V440.332Z" fill="#263238"/>
<path d="M325.521 433.496V321.597C332.218 314.133 336.887 303.646 336.948 294.508C336.98 289.77 335.769 286.087 333.674 283.638L324.108 307.687L314.35 313.235L309.528 306.201L319.177 281.913C318.572 282.193 317.967 282.506 317.347 282.857C306.446 289.055 297.542 304.321 297.459 316.956C297.398 326.218 302.093 331.461 308.886 331.191V443.09C302.189 450.554 297.52 461.041 297.459 470.179C297.427 474.917 298.637 478.6 300.733 481.049L310.298 456.999L320.057 451.452L324.878 458.486L315.229 482.774C315.835 482.494 316.44 482.181 317.059 481.83C327.96 475.632 336.864 460.366 336.948 447.731C337.009 438.468 332.313 433.224 325.521 433.496Z" fill="black"/>
<path d="M317.982 452.632L320.058 451.452L324.878 458.486L315.229 482.774L310.455 480.016L320.104 455.728L317.982 452.632Z" fill="#263238"/>
<path d="M325.52 341.512C325.52 343.31 322.79 345.315 320.785 346.568C318.779 347.822 316.255 349.577 317.204 353.21C318.153 356.845 322.063 357.77 324.043 356.811C326.024 355.853 327.983 354.184 328.478 350.836C328.973 347.488 330.102 339.459 325.52 338.525V341.512Z" fill="#FFA8A7"/>
<path d="M215.948 351.128C223.895 315.441 228.87 307.659 239.938 303.535L238.436 324.993C238.436 324.993 228.059 348.12 226.497 356.296C225.124 363.48 223.587 372.513 223.825 378.659C223.867 379.748 224.337 380.773 225.092 381.559C227.119 383.666 227.7 385.453 229.033 387.801C230.077 389.641 231.192 390.313 230.887 390.738C230.495 391.285 229.237 392.013 227.633 391.046C226.826 390.56 225.87 389.592 224.687 388.34C224.687 388.34 224.951 391.546 226.672 395.218C229.004 400.195 228.515 402.771 221.696 401.122C217.424 400.089 214.681 396.605 213.833 386.405C213.589 383.467 213.215 378.831 213.486 375.104C214.191 365.397 214.668 356.871 215.948 351.128Z" fill="#FFA8A7"/>
<path d="M240.908 301.083C240.908 301.083 236.567 301.083 232.921 303.535C230.141 305.405 225.519 312.941 222.591 322.269C219.663 331.597 218.125 336.773 218.125 336.773C218.125 336.773 222.919 344.08 233.269 341.193C233.269 341.193 239.097 326.608 238.763 327.538C238.763 327.536 246.474 313.161 240.908 301.083Z" fill="#E6E6E6"/>
</svg>
