<svg width="140" height="24" viewBox="0 0 140 24" fill="none" xmlns="http://www.w3.org/2000/svg">
<path d="M20.5581 14.3488C20.1395 14.6047 19.6512 14.6512 19.2791 14.4419C18.814 14.1628 18.5349 13.5349 18.5349 12.6744V10.0465C18.5349 8.7907 18.0465 7.88372 17.2093 7.65116C15.7907 7.23256 14.7209 8.97674 14.3256 9.6279L11.814 13.6512V8.69767C11.7907 7.55814 11.4186 6.88372 10.7209 6.67442C10.2558 6.53489 9.55814 6.60465 8.88372 7.62791L3.27907 16.6046C2.53488 15.186 2.13953 13.6047 2.13953 12C2.13953 6.5814 6.48837 2.18604 11.814 2.18604C17.1395 2.18604 21.4884 6.5814 21.4884 12V12.0233V12.0465C21.5349 13.093 21.2093 13.9302 20.5581 14.3488ZM23.6279 12V11.9767V11.9535C23.6047 5.37209 18.3023 0 11.814 0C5.30232 0 0 5.37209 0 12C0 18.6047 5.30232 24 11.814 24C14.814 24 17.6512 22.8605 19.8372 20.7907C20.2791 20.3721 20.3023 19.6977 19.8837 19.2558C19.4884 18.814 18.814 18.7907 18.3721 19.186C18.3721 19.186 18.3721 19.186 18.3488 19.2093C16.5814 20.8837 14.2093 21.8372 11.7674 21.8372C8.90698 21.8372 6.34884 20.5814 4.5814 18.5814L9.62791 10.4884V14.2326C9.62791 16.0233 10.3256 16.6047 10.907 16.7674C11.4884 16.9302 12.3721 16.814 13.3256 15.3023L16.093 10.814C16.186 10.6744 16.2558 10.5349 16.3488 10.4419V12.7209C16.3488 14.3954 17.0233 15.7442 18.186 16.3953C19.2326 17 20.5581 16.9302 21.6512 16.2558C23 15.3721 23.7209 13.8372 23.6279 12ZM40.093 7.90698C40.3721 8.06977 40.6279 8.46511 40.6279 8.81395C40.6279 9.37209 40.1628 9.83721 39.6279 9.83721C39.4884 9.83721 39.3721 9.7907 39.2558 9.76744C38.6279 9.30232 37.8372 9 37 9C35.0233 9 33.6744 10.6047 33.6744 12.6047C33.6744 14.6047 35.0465 16.186 37 16.186C37.9767 16.186 38.8605 15.7907 39.5116 15.1628C39.6744 15.0465 39.8837 14.9767 40.093 14.9767C40.6279 14.9767 41.0465 15.3953 41.0465 15.9302C41.0465 16.2791 40.8372 16.5814 40.5814 16.7442C39.6279 17.5581 38.3488 18.093 37.0233 18.093C34 18.093 31.5349 15.6046 31.5349 12.5349C31.5349 9.46511 34 6.97674 37.0233 6.97674C38.1395 6.95349 39.2093 7.30232 40.093 7.90698ZM45.6279 10.2326C47.6977 10.2326 49.4186 11.9767 49.4186 14.1395C49.4186 16.2791 47.6744 18.1163 45.6279 18.1163C43.4651 18.1163 41.6744 16.3023 41.6744 14.1395C41.6744 11.9767 43.4651 10.2326 45.6279 10.2326ZM45.6046 16.186C46.5116 16.186 47.2791 15.3256 47.2791 14.1628C47.2791 13 46.5116 12.2558 45.6046 12.2558C44.6279 12.2558 43.814 12.9767 43.814 14.1628C43.814 15.3023 44.6279 16.186 45.6046 16.186ZM50.7209 16.907V11.4186C50.7209 10.814 51.186 10.3256 51.7907 10.3256C52.3721 10.3256 52.8605 10.814 52.8605 11.4186V16.907C52.8605 17.5116 52.3721 18 51.7907 18C51.2093 18 50.7209 17.4884 50.7209 16.907ZM50.5581 8.25581C50.5581 7.53488 51.1163 6.97674 51.7907 6.97674C52.4884 6.97674 53.0465 7.55814 53.0465 8.25581C53.0465 8.95349 52.4884 9.51163 51.7907 9.51163C51.093 9.48837 50.5581 8.93023 50.5581 8.25581ZM56.9535 13.9302V16.907C56.9535 17.5116 56.4651 18 55.8837 18C55.3023 18 54.8139 17.5116 54.8139 16.907V11.1628C54.8139 10.6977 55.186 10.3256 55.6512 10.3256C56.1163 10.3256 56.4651 10.7209 56.4651 11.1628C57.3256 10.3488 58.093 10.2326 58.8139 10.2326C60.9535 10.2326 61.907 11.8372 61.907 13.6744V16.907C61.907 17.5116 61.4186 18 60.8372 18C60.2558 18 59.7674 17.5116 59.7674 16.907V13.9302C59.7674 13 59.6512 12.2093 58.3023 12.2093C57.3488 12.2093 56.9535 13 56.9535 13.9302ZM68.8372 15.0698C68.5814 15.0698 68.4186 14.9535 68.2791 14.7907L65.7907 12.093V16.907C65.7907 17.5116 65.3023 18 64.7209 18C64.1395 18 63.6512 17.5116 63.6512 16.907V7.3721C63.7209 7.2093 63.8837 7.09302 64.0465 7.09302C64.2326 7.09302 64.3953 7.25582 64.5116 7.3721L68.4884 11.8372C68.6046 11.9767 68.7442 12.0465 68.8372 12.0465C68.907 12.0465 69.0698 11.9767 69.186 11.8372L73.1628 7.3721C73.2791 7.25582 73.4186 7.09302 73.6279 7.09302C73.8139 7.09302 73.9767 7.2093 74.0232 7.3721V16.907C74.0232 17.5116 73.5581 18 72.9535 18C72.3721 18 71.8837 17.5116 71.8837 16.907V12.093L69.3953 14.7907C69.2093 14.9535 69.0465 15.0698 68.8372 15.0698ZM79.1163 16.186C80.0698 16.186 80.8837 15.3256 80.8837 14.1628C80.8837 13 80.0465 12.2326 79.1163 12.2326C78.186 12.2326 77.4186 13.0233 77.4186 14.1628C77.4186 15.2791 78.1628 16.186 79.1163 16.186ZM81.3953 17.1628L81.3488 16.907C80.9302 17.7209 79.6046 18.093 78.7674 18.093C76.7674 18.093 75.2791 16.2791 75.2791 14.1163C75.2791 11.9767 76.7907 10.2093 78.8837 10.2093C79.2325 10.2093 80.4419 10.3023 81.3721 11.3953L81.4186 11.1395C81.4186 10.6744 81.7674 10.3023 82.2325 10.3023C82.6977 10.3023 83.0698 10.6977 83.0698 11.1395V17.1395C83.0698 17.6047 82.6977 17.9767 82.2325 17.9767C81.7442 18 81.3953 17.6047 81.3953 17.1628ZM88.9535 12.2093H88.7209C87.3721 12.2791 87.1163 13.0465 87.1163 13.9302V16.907C87.1163 17.5116 86.6279 18 86.0465 18C85.4651 18 84.9767 17.5116 84.9767 16.907V11.1628C84.9767 10.6977 85.3488 10.3256 85.8139 10.3256C86.2791 10.3256 86.6279 10.7209 86.6279 11.1628C87.4186 10.4186 88.0698 10.2558 88.7209 10.2326H88.9302C89.4419 10.2326 89.907 10.6744 89.907 11.2326C89.9302 11.7442 89.4651 12.2093 88.9535 12.2093ZM97.2093 16.3953C97.3023 16.5581 97.3721 16.7209 97.3721 16.907C97.3721 17.4651 96.8604 17.9767 96.3023 17.9767C95.9302 17.9767 95.6046 17.6977 95.3488 17.3721L92.8837 14.5116V16.8837C92.8837 17.4884 92.3953 17.9767 91.8139 17.9767C91.2325 17.9767 90.7442 17.4884 90.7442 16.8837V8.16279C90.7442 7.55814 91.2093 7.06977 91.8139 7.06977C92.4186 7.06977 92.8837 7.55814 92.8837 8.16279V13.6046L95.3488 10.8837C95.6046 10.6047 95.907 10.3023 96.2791 10.3023C96.8139 10.3023 97.3023 10.7907 97.3023 11.3488C97.3023 11.5116 97.2558 11.6977 97.1628 11.8372L95.2093 13.9767L97.2093 16.3953ZM101.395 12.2326C100.814 12.2326 99.8605 12.5349 99.8605 13.4419H102.953C102.93 12.5349 101.953 12.2326 101.395 12.2326ZM104.186 14.814H99.8605C99.8605 16.093 101.093 16.3023 101.628 16.3023C102.023 16.3023 102.581 16.2326 103.023 16.0233C103.163 15.9302 103.372 15.8605 103.581 15.8605C104.046 15.8605 104.442 16.2558 104.442 16.7442C104.442 17.0698 104.233 17.3488 103.977 17.5116C103.326 18 102.465 18.1163 101.651 18.1163C99.4884 18.1163 97.6977 16.9535 97.6977 14.2326C97.6977 12.093 98.7907 10.2326 101.349 10.2326C103.419 10.2326 104.977 11.5814 105.023 13.9767C105.023 14.4186 104.651 14.814 104.186 14.814ZM110.14 18.093H109.558C107.93 18.093 106.977 17.3721 106.977 14.8372V12.2093H106.419C105.907 12.2093 105.465 11.7442 105.465 11.2326C105.465 10.6744 105.93 10.2326 106.419 10.2326H106.977V8.20931C106.977 7.60465 107.442 7.11628 108.046 7.11628C108.628 7.11628 109.116 7.60465 109.116 8.20931V10.2326H110C110.512 10.2326 110.953 10.6744 110.953 11.2326C110.953 11.7442 110.488 12.2093 110 12.2093H109.116V14.4186C109.116 15.8837 109.186 16.186 109.837 16.186H110.14C110.651 16.186 111.093 16.6047 111.093 17.1395C111.093 17.6512 110.651 18.093 110.14 18.093ZM120.488 7.90698C120.767 8.06977 121.023 8.46511 121.023 8.81395C121.023 9.37209 120.558 9.83721 120.023 9.83721C119.884 9.83721 119.767 9.7907 119.651 9.76744C119.023 9.30232 118.233 9 117.395 9C115.419 9 114.07 10.6047 114.07 12.6047C114.07 14.6047 115.442 16.186 117.395 16.186C118.372 16.186 119.256 15.7907 119.907 15.1628C120.07 15.0465 120.279 14.9767 120.488 14.9767C121.023 14.9767 121.442 15.3953 121.442 15.9302C121.442 16.2791 121.233 16.5814 120.977 16.7442C120.023 17.5581 118.744 18.093 117.419 18.093C114.395 18.093 111.93 15.6046 111.93 12.5349C111.93 9.46511 114.395 6.97674 117.419 6.97674C118.535 6.95349 119.628 7.30232 120.488 7.90698ZM125.907 16.186C126.86 16.186 127.674 15.3256 127.674 14.1628C127.674 13 126.837 12.2326 125.907 12.2326C124.953 12.2326 124.209 13.0233 124.209 14.1628C124.209 15.2791 124.977 16.186 125.907 16.186ZM128.186 17.1628L128.14 16.907C127.721 17.7209 126.395 18.093 125.558 18.093C123.558 18.093 122.07 16.2791 122.07 14.1163C122.07 11.9767 123.581 10.2093 125.674 10.2093C126.023 10.2093 127.233 10.3023 128.163 11.3953L128.209 11.1395C128.209 10.6744 128.558 10.3023 129.023 10.3023C129.488 10.3023 129.86 10.6977 129.86 11.1395V17.1395C129.86 17.6047 129.488 17.9767 129.023 17.9767C128.535 18 128.186 17.6047 128.186 17.1628ZM135.698 16.186C136.651 16.186 137.395 15.2791 137.395 14.1628C137.395 13 136.628 12.2326 135.698 12.2326C134.744 12.2326 133.93 13 133.93 14.1628C133.93 15.3256 134.744 16.186 135.698 16.186ZM133.93 17.4651V20.186C133.93 20.7907 133.442 21.2791 132.86 21.2791C132.279 21.2791 131.791 20.7907 131.791 20.186V11.1628C131.791 10.6977 132.163 10.3256 132.628 10.3256C133.093 10.3256 133.442 10.7209 133.442 11.2558C134.233 10.4419 135.209 10.2326 135.953 10.2326C138.023 10.2326 139.558 11.9767 139.558 14.1395C139.558 16.2791 138.093 18.1163 136.07 18.1163C135.442 18.093 134.512 17.907 133.93 17.4651Z" fill="#17181B"/>
</svg>
