<svg width="104" height="24" viewBox="0 0 104 24" fill="none" xmlns="http://www.w3.org/2000/svg">
<path d="M81.8253 12.0026C81.8253 11.3897 81.8253 10.8131 81.8055 10.2806C81.792 9.77832 81.7422 9.27763 81.6567 8.78248C81.5766 8.33033 81.4353 7.89121 81.2366 7.47723C81.0269 7.05041 80.7466 6.66205 80.4076 6.32853C79.9268 5.8359 79.3547 5.44162 78.7232 5.16771C78.04 4.89096 77.3083 4.75378 76.5713 4.76423C75.8315 4.75467 75.0971 4.8918 74.4106 5.16771C73.7754 5.43788 73.1997 5.83045 72.7162 6.32302C72.3778 6.65634 72.0986 7.04478 71.8905 7.47172C71.6935 7.88578 71.5544 8.32498 71.4771 8.77696C71.3935 9.27227 71.3456 9.77295 71.3338 10.2751C71.3206 10.8076 71.3139 11.3841 71.3172 11.9971C71.3206 12.61 71.3172 13.1822 71.3338 13.7179C71.3456 14.2201 71.3935 14.7208 71.4771 15.2161C71.5544 15.6681 71.6935 16.1073 71.8905 16.5213C72.0994 16.9478 72.3786 17.3361 72.7162 17.67C73.1989 18.163 73.7749 18.555 74.4106 18.8231C75.0966 19.1008 75.8312 19.2388 76.5713 19.2288C77.3086 19.2397 78.0405 19.1017 78.7232 18.8231C79.3548 18.5529 79.9271 18.1611 80.4076 17.67C80.7459 17.3359 81.0261 16.9476 81.2366 16.5213C81.4353 16.1074 81.5766 15.6682 81.6567 15.2161C81.7413 14.7223 81.7903 14.2231 81.8033 13.7223C81.8198 13.1866 81.8275 12.6133 81.8231 12.0015L81.8253 12.0026ZM79.0473 12.0026C79.0473 12.6817 79.0374 13.2472 79.0142 13.697C79.0012 14.0664 78.9644 14.4347 78.904 14.7994C78.8626 15.0424 78.7885 15.2786 78.6835 15.5016C78.5983 15.6813 78.4868 15.8474 78.3528 15.9944C78.1458 16.2313 77.8891 16.4195 77.6009 16.5456C77.2767 16.6843 76.9273 16.7549 76.5746 16.7529C76.2202 16.7544 75.8691 16.6839 75.5427 16.5456C75.2476 16.4218 74.9839 16.2335 74.7711 15.9944C74.6362 15.8481 74.5246 15.6819 74.4404 15.5016C74.3383 15.2784 74.2678 15.042 74.2309 14.7994C74.172 14.4345 74.1352 14.0663 74.1206 13.697C74.1008 13.2472 74.0909 12.6824 74.0909 12.0026C74.0909 11.3235 74.1008 10.7569 74.1206 10.3071C74.1353 9.93775 74.1721 9.56962 74.2309 9.2047C74.2678 8.96204 74.3383 8.72569 74.4404 8.50247C74.5249 8.32235 74.6364 8.15618 74.7711 8.00969C74.9842 7.77092 75.2478 7.58262 75.5427 7.45849C75.8686 7.31862 76.22 7.24804 76.5746 7.25124C76.9275 7.24758 77.2771 7.31819 77.6009 7.45849C77.8889 7.58496 78.1455 7.77312 78.3528 8.00969C78.4866 8.15685 78.598 8.32288 78.6835 8.50247C78.7885 8.72546 78.8626 8.96171 78.904 9.2047C78.9643 9.56942 79.0011 9.93765 79.0142 10.3071C79.0385 10.7558 79.0473 11.3224 79.0473 12.0026Z" fill="#23AF91"/>
<path d="M103.962 5.1323C103.961 4.99825 103.852 4.88987 103.718 4.88867H101.426C101.292 4.88928 101.183 4.998 101.183 5.1323V13.5987L95.5936 4.95702C95.5561 4.89859 95.523 4.88867 95.4403 4.88867H93.3149C93.1811 4.89045 93.0731 4.99849 93.0713 5.1323V18.8704C93.0731 19.004 93.1813 19.1118 93.3149 19.1129H95.6057C95.7394 19.1123 95.8476 19.0041 95.8482 18.8704V10.3819L101.439 19.0435C101.477 19.1019 101.508 19.1118 101.592 19.1118H103.716C103.85 19.1112 103.958 19.0032 103.96 18.8693L103.962 5.1323Z" fill="#23AF91"/>
<path d="M88.5982 5.1323C88.5976 4.998 88.4889 4.88928 88.3546 4.88867H86.0649C85.9306 4.88928 85.8219 4.998 85.8213 5.1323V18.8693C85.8219 19.0036 85.9306 19.1123 86.0649 19.1129H88.3546C88.4889 19.1123 88.5976 19.0036 88.5982 18.8693V5.1323Z" fill="#23AF91"/>
<path d="M61.189 12.0028C61.189 11.3193 61.1967 10.7505 61.2165 10.2974C61.23 9.92796 61.2668 9.55976 61.3268 9.19498C61.5384 7.97132 62.4755 7.24924 63.6716 7.24924C64.4521 7.25586 65.1598 7.54469 65.6118 8.20172C65.8165 8.50846 65.9657 8.84875 66.0528 9.20711C66.0595 9.24485 66.094 9.27119 66.1321 9.26774H68.8275C68.8661 9.26774 68.8804 9.24128 68.8738 9.2038C68.5795 7.53587 67.6898 6.03771 66.1178 5.29579C65.3452 4.93807 64.5019 4.75909 63.6506 4.77215C62.133 4.77215 60.8546 5.29175 59.8154 6.33094C59.2221 6.90918 58.8171 7.65303 58.6535 8.46519C58.4947 9.2648 58.4146 10.4436 58.4131 12.0017C58.4117 13.5597 58.4918 14.7382 58.6535 15.5371C58.8157 16.3503 59.2195 17.0956 59.8121 17.6757C60.8505 18.7142 62.1289 19.2334 63.6473 19.2334C64.4985 19.2463 65.3416 19.0677 66.1145 18.7109C67.6865 17.969 68.5762 16.4708 68.8705 14.8029C68.8771 14.7643 68.8628 14.7389 68.8242 14.7389H66.1277C66.0894 14.7349 66.0546 14.7615 66.0484 14.7996C65.9611 15.1575 65.8119 15.4974 65.6074 15.8039C65.1554 16.4653 64.4477 16.7508 63.6672 16.7563C62.4711 16.7563 61.534 16.0354 61.3224 14.8117C61.2625 14.4469 61.2257 14.0787 61.2121 13.7093C61.1967 13.254 61.189 12.6841 61.189 12.0028Z" fill="#23AF91"/>
<path d="M32.7203 5.1323C32.7197 4.998 32.611 4.88928 32.4767 4.88867H30.187C30.0527 4.88928 29.944 4.998 29.9434 5.1323V18.8704C29.9446 19.0043 30.0531 19.1123 30.187 19.1131H32.4767C32.6105 19.1123 32.7191 19.0043 32.7203 18.8704V14.8378L34.558 12.6407L38.3326 19.0402C38.3617 19.0874 38.4139 19.1152 38.4693 19.1131H41.2518C41.3797 19.1131 41.4028 19.0336 41.3389 18.9244L36.3968 10.5462L40.931 5.10695C41.0225 4.99671 40.9839 4.89198 40.8406 4.89198H37.7991C37.7621 4.8898 37.7264 4.90637 37.7043 4.93607L32.7203 10.9133V5.1323Z" fill="#23AF91"/>
<path d="M49.4022 16.756C48.1135 16.756 46.9449 15.5632 46.9449 14.1389V5.1323C46.9443 4.998 46.8356 4.88928 46.7013 4.88867H44.4116C44.2773 4.88928 44.1686 4.998 44.168 5.1323V14.1036C44.168 17.24 46.5139 19.2331 49.4022 19.2331C52.2905 19.2331 54.6364 17.24 54.6364 14.1036V5.1323C54.6352 4.99825 54.5268 4.88987 54.3927 4.88867H52.1019C51.9681 4.88988 51.86 4.99843 51.8594 5.1323V14.1389C51.8594 15.5621 50.6898 16.756 49.4022 16.756Z" fill="#23AF91"/>
<path fill-rule="evenodd" clip-rule="evenodd" d="M6.92748 12.0024L14.0358 19.1118L18.5225 14.625C19.3248 13.9026 20.5522 13.9348 21.3156 14.6982C22.079 15.4616 22.1112 16.689 21.3888 17.4913L15.4678 23.4134C14.6724 24.1955 13.3969 24.1955 12.6015 23.4134L4.05904 14.8687V19.9474C4.05904 21.0683 3.15039 21.9769 2.02952 21.9769C0.908646 21.9769 0 21.0683 0 19.9474V4.05082C0 2.92994 0.908646 2.0213 2.02952 2.0213C3.15039 2.0213 4.05904 2.92994 4.05904 4.05082V9.12957L12.6004 0.587074C13.3955 -0.195691 14.6716 -0.195691 15.4667 0.587074L21.3921 6.50806C22.1145 7.31036 22.0823 8.53778 21.3189 9.30118C20.5556 10.0646 19.3281 10.0967 18.5258 9.37431L14.0391 4.88754L6.92748 12.0024ZM14.0391 9.9707C13.2172 9.97026 12.476 10.465 12.1612 11.2242C11.8464 11.9833 12.0199 12.8574 12.6009 13.4387C13.1819 14.02 14.0559 14.194 14.8152 13.8796C15.5746 13.5652 16.0697 12.8243 16.0697 12.0024C16.07 11.4636 15.8562 10.9467 15.4754 10.5655C15.0946 10.1842 14.5779 9.96989 14.0391 9.9696V9.9707Z" fill="#23AF91"/>
</svg>
