<svg width="106" height="24" viewBox="0 0 106 24" fill="none" xmlns="http://www.w3.org/2000/svg">
<path d="M43.6282 0H52.0309C55.2965 0 58.4284 1.29684 60.7376 3.60521C63.0467 5.91359 64.3439 9.04439 64.3439 12.309V20.7089C64.3443 21.1408 64.2596 21.5685 64.0946 21.9675C63.9296 22.3666 63.6876 22.7293 63.3824 23.035C63.0773 23.3406 62.7148 23.583 62.3159 23.7486C61.9169 23.9142 61.4893 23.9997 61.0573 24H52.707C51.083 24.0011 49.4746 23.6822 47.9739 23.0616C46.4732 22.4409 45.1095 21.5308 43.9609 20.383C42.8123 19.2353 41.9012 17.8725 41.2796 16.3726C40.6582 14.8726 40.3384 13.2649 40.3389 11.6414V3.28828C40.3389 2.41617 40.6854 1.57978 41.3023 0.963113C41.9192 0.346442 42.7558 0 43.6282 0Z" fill="#0A7542"/>
<path d="M52.4097 8.39136C53.123 8.39136 53.8203 8.60286 54.4134 8.99899C55.0065 9.3952 55.4688 9.95828 55.7418 10.6171C56.0148 11.2759 56.0862 12.0009 55.947 12.7003C55.8079 13.3997 55.4643 14.0421 54.96 14.5464C54.4556 15.0506 53.8129 15.394 53.1133 15.5331C52.4137 15.6723 51.6885 15.6008 51.0294 15.3279C50.3704 15.055 49.8071 14.5929 49.4108 14C49.0145 13.4071 48.803 12.71 48.803 11.9968C48.8044 11.0411 49.1849 10.1249 49.861 9.44903C50.537 8.77316 51.4536 8.39282 52.4097 8.39136ZM52.4097 4.5293C50.9324 4.52984 49.4883 4.96827 48.2603 5.78915C47.0322 6.61003 46.0752 7.7765 45.5102 9.14109C44.9452 10.5057 44.7977 12.007 45.0862 13.4555C45.3748 14.9039 46.0865 16.2342 47.1313 17.2782C48.1761 18.3224 49.5071 19.0333 50.9561 19.3212C52.405 19.6091 53.9069 19.461 55.2717 18.8958C56.6365 18.3305 57.8031 17.3733 58.6237 16.1454C59.4444 14.9174 59.8824 13.4737 59.8824 11.9968C59.8824 10.0164 59.0954 8.11695 57.6946 6.7165C56.2936 5.31606 54.3936 4.5293 52.4124 4.5293H52.4097Z" fill="#F1F2F2"/>
<path d="M48.8083 4.5293H47.4285C47.0848 4.5293 46.7444 4.59703 46.4268 4.72863C46.1092 4.86022 45.8207 5.05311 45.5778 5.29623C45.3348 5.53937 45.1421 5.82799 45.0108 6.1456C44.8795 6.4632 44.8122 6.80357 44.8125 7.14723V21.1279C45.9954 22.1154 47.3524 22.8733 48.8138 23.3624V4.5293H48.8083Z" fill="#F1F2F2"/>
<path d="M52.4478 4.53223H47.7842V7.01775H52.4478V4.53223Z" fill="#F1F2F2"/>
<path d="M5.10007 5.04785H5.4864C6.85328 5.04785 8.10427 5.61153 9.23937 6.73889C10.1126 7.66324 10.6053 8.88272 10.6191 10.1541V10.2396C10.6191 11.9812 9.82619 13.4111 8.2404 14.5293C7.37623 15.0873 6.36894 15.3833 5.34014 15.3817H5.24356C4.39776 15.3711 3.56547 15.1682 2.80966 14.7885V20.5099C2.8106 20.5159 2.81011 20.5221 2.80823 20.5279C2.80634 20.5336 2.80312 20.539 2.79881 20.5432C2.79451 20.5475 2.78924 20.5508 2.78346 20.5527C2.77767 20.5546 2.77152 20.555 2.76551 20.554H0.0446189C0.0386056 20.555 0.0324545 20.5546 0.026667 20.5527C0.0208796 20.5508 0.0156195 20.5475 0.0113155 20.5432C0.00701142 20.539 0.00378528 20.5336 0.00189994 20.5279C1.46146e-05 20.5221 -0.000476545 20.5159 0.000466497 20.5099V10.0271C0.000466497 8.73985 0.568008 7.52969 1.70309 6.39682C2.80874 5.49751 3.94106 5.04785 5.10007 5.04785ZM5.26563 7.80647H5.16629C4.34948 7.80647 3.66052 8.23038 3.09941 9.07821C2.92168 9.43362 2.82284 9.82315 2.80966 10.2203C2.80966 11.1619 3.28982 11.8911 4.25013 12.4078C4.56375 12.5446 4.90143 12.6178 5.24356 12.623H5.35394C6.27378 12.623 6.9931 12.1844 7.51189 11.3071C7.68832 10.9866 7.78309 10.6275 7.78784 10.2616V10.1541C7.78784 9.27678 7.33803 8.57341 6.43843 8.04371C6.12972 7.89817 5.79444 7.81743 5.45328 7.80647H5.3429C5.33989 7.80694 5.33682 7.8067 5.33393 7.80576C5.33103 7.80482 5.3284 7.8032 5.32625 7.80105C5.3241 7.7989 5.32249 7.79627 5.32155 7.79338C5.3206 7.79049 5.32035 7.78741 5.32083 7.7844L5.26563 7.80647Z" fill="#212121"/>
<path d="M31.288 5.04785H31.6743C33.0375 5.04785 34.2876 5.61153 35.4246 6.73889C36.2978 7.66324 36.7905 8.88272 36.8043 10.1541V10.2396C36.8043 11.9812 36.0114 13.4111 34.4256 14.5293C33.5623 15.0869 32.5559 15.383 31.5281 15.3817H31.4398C30.5939 15.3716 29.7615 15.1687 29.0059 14.7885V20.5099C29.0063 20.5158 29.0055 20.5217 29.0033 20.5273C29.0013 20.5329 28.998 20.5378 28.9939 20.542C28.9897 20.5462 28.9846 20.5495 28.9791 20.5516C28.9736 20.5536 28.9677 20.5545 28.9618 20.554H26.2298C26.2239 20.5545 26.218 20.5536 26.2124 20.5516C26.2069 20.5495 26.2019 20.5462 26.1977 20.542C26.1935 20.5378 26.1902 20.5329 26.1882 20.5273C26.1861 20.5217 26.1853 20.5158 26.1856 20.5099V10.0271C26.1856 8.73985 26.7541 7.52969 27.8911 6.39682C28.9985 5.49751 30.1309 5.04785 31.288 5.04785ZM31.4536 7.80647H31.3542C30.5356 7.80647 29.8457 8.23038 29.2846 9.07821C29.1111 9.43448 29.017 9.82409 29.0086 10.2203C29.0086 11.1619 29.4879 11.8911 30.4463 12.4078C30.761 12.5447 31.0995 12.6178 31.4426 12.623H31.5529C32.4727 12.623 33.192 12.1844 33.7109 11.3071C33.8873 10.9866 33.9821 10.6275 33.9868 10.2616V10.1541C33.9868 9.27678 33.537 8.57341 32.6375 8.04371C32.3285 7.89875 31.9933 7.81804 31.6523 7.80647H31.5419C31.5254 7.80647 31.5198 7.80647 31.5198 7.7844L31.4536 7.80647Z" fill="#212121"/>
<path d="M17.7217 5.00977H18.0666C19.2625 5.00977 20.3754 5.49805 21.4057 6.4746C22.2556 7.45115 22.6797 8.43873 22.6778 9.43734V9.83732C22.6778 10.573 22.3614 11.3518 21.7285 12.1739L17.7438 17.9504H22.435C22.4653 17.9504 22.4791 17.9726 22.4791 17.9946V20.3863C22.4791 20.4139 22.4791 20.4277 22.435 20.4277H12.9863V20.3863C16.1304 15.8236 17.7861 13.4328 17.9535 13.2139C19.2836 11.5385 19.9477 10.6549 19.9459 10.5629C20.0815 10.2882 20.1533 9.98644 20.1556 9.68014C20.1556 8.85249 19.7444 8.18494 18.9166 7.71874C18.6458 7.58075 18.3483 7.50354 18.0445 7.49253H17.9314H17.8873H17.7879C17.1312 7.49253 16.5563 7.81253 16.0632 8.45253C15.807 8.81015 15.6716 9.24022 15.6768 9.68014C15.6821 10.0389 15.777 10.3908 15.9528 10.7035L15.9087 10.7256H13.2458C13.163 10.7035 13.1078 10.3395 13.0802 9.636C13.0802 8.29161 13.6321 7.12471 14.7359 6.13529C15.569 5.42285 16.6254 5.02464 17.7217 5.00977Z" fill="#212121"/>
<path d="M68.3901 4.94629H71.1111C71.1414 4.94629 71.1552 4.96836 71.1552 4.99043V10.7008H71.1772C71.9464 10.3091 72.7977 10.1058 73.6609 10.1076C75.4233 10.1076 76.895 10.8764 78.0761 12.4139C78.6425 13.2551 78.9496 14.244 78.9591 15.258V15.3436C78.9591 17.0263 78.1772 18.4415 76.6136 19.589C75.7966 20.1147 74.8526 20.4092 73.8816 20.4415H73.429C72.2176 20.4415 71.0586 19.9615 69.9438 18.9987C68.8822 17.8953 68.3516 16.7201 68.3516 15.4732V4.99043C68.3516 4.9656 68.3681 4.94629 68.3901 4.94629ZM71.1772 15.1532V15.2718C71.1778 15.2748 71.1775 15.2779 71.1766 15.2808C71.1756 15.2837 71.174 15.2863 71.1718 15.2885C71.1697 15.2906 71.167 15.2922 71.1642 15.2932C71.1613 15.2941 71.1582 15.2944 71.1552 15.2939L71.1772 15.338V15.4014C71.1772 16.2649 71.6491 16.9629 72.5929 17.5035C72.9285 17.6348 73.2841 17.7076 73.6443 17.7187C74.6671 17.7187 75.4416 17.2083 75.9678 16.1877C76.0626 15.9217 76.1148 15.6423 76.1224 15.3601V15.2525C76.1224 14.3827 75.6873 13.6893 74.8171 13.1725C74.4618 12.9882 74.0667 12.8935 73.6664 12.8966C72.5295 12.8966 71.7292 13.4677 71.2656 14.6098C71.2147 14.782 71.185 14.9599 71.1772 15.1394V15.1532Z" fill="#212121"/>
<path d="M94.8511 4.94629H97.5722C97.6022 4.94629 97.6159 4.96836 97.6159 4.99043V10.7008H97.6382C98.407 10.3095 99.2589 10.1062 100.122 10.1076C101.886 10.1076 103.357 10.8764 104.537 12.4139C105.102 13.2552 105.407 14.2444 105.414 15.258V15.3436C105.414 17.0263 104.633 18.4415 103.068 19.589C102.252 20.114 101.308 20.4085 100.337 20.4415H99.8957C98.6864 20.4415 97.5251 19.9606 96.4101 18.9987C95.3482 17.8953 94.8177 16.7201 94.8177 15.4732V4.99043C94.8151 4.9656 94.8288 4.94629 94.8511 4.94629ZM97.6382 15.1532V15.2718C97.6382 15.2718 97.6382 15.2939 97.6159 15.2939L97.6382 15.338V15.4014C97.6382 16.2649 98.1096 16.9629 99.0566 17.5035C99.3909 17.6345 99.7457 17.7073 100.105 17.7187C101.132 17.7187 101.906 17.2083 102.428 16.1877C102.525 15.922 102.577 15.6425 102.583 15.3601V15.2525C102.583 14.3827 102.148 13.6893 101.278 13.1725C100.922 12.9876 100.527 12.8928 100.127 12.8966C98.9941 12.8966 98.1936 13.4677 97.7265 14.6098C97.6759 14.782 97.6459 14.9599 97.6382 15.1394V15.1532Z" fill="#212121"/>
<path d="M86.0673 5.00977H86.4092C87.6057 5.00977 88.719 5.49805 89.7517 6.4746C90.5993 7.45115 91.0236 8.43873 91.0236 9.43734V9.83732C91.0236 10.573 90.7065 11.3518 90.0714 12.1739L86.0981 17.9504H90.7887C90.8196 17.9504 90.8333 17.9726 90.8333 17.9946V20.3863C90.8333 20.4139 90.8196 20.4277 90.7887 20.4277H81.332V20.3863C84.4742 15.8236 86.1299 13.4328 86.2995 13.2139C87.6254 11.5385 88.2896 10.6549 88.2913 10.5629C88.4276 10.2882 88.4987 9.98644 88.5013 9.68014C88.5013 8.83963 88.0882 8.18586 87.262 7.71874C86.9903 7.58069 86.6921 7.5035 86.3878 7.49253H86.2773H86.2327H86.1333C85.4769 7.49253 84.902 7.81253 84.4089 8.45253C84.1519 8.80989 84.0156 9.23996 84.0198 9.68014C84.0238 10.0391 84.1188 10.3912 84.2958 10.7035L84.2516 10.7256H81.6274C81.5473 10.7035 81.4921 10.3395 81.4618 9.636C81.4618 8.29161 82.0192 7.12471 83.1341 6.13529C83.9534 5.4342 84.9893 5.03672 86.0673 5.00977Z" fill="#212121"/>
</svg>
