<svg width="24" height="24" viewBox="0 0 24 24" fill="none" xmlns="http://www.w3.org/2000/svg">
<path fill-rule="evenodd" clip-rule="evenodd" d="M7.00006 11.0372L12.0206 7.77364L17.0001 11.0574L11.9987 2L7.00006 11.0372ZM7.19161 11.9797L12.0261 8.79386L16.7976 11.956L12.0288 15.1452L7.19161 11.9797ZM7.00006 12.8919C8.76203 14.0473 10.6006 15.2568 12.0206 16.1926L17.0001 12.8919C15.1971 16.1993 13.695 18.9527 12.0206 22L10.9937 20.1386C9.61432 17.6384 8.19184 15.0601 7.00006 12.8919Z" fill="#3AB83A"/>
<path fill-rule="evenodd" clip-rule="evenodd" d="M12.0002 2L12.0189 7.77364L17.0002 11.0574L12.0002 2ZM12.0236 8.79386L16.8267 11.956L12.026 15.1452L12.0236 8.79386ZM12.0189 16.1926L17.0001 12.8919C15.4551 16.1993 12.0189 22 12.0189 22V16.1926Z" fill="#0B8311"/>
</svg>
