<svg width="133" height="76" viewBox="0 0 133 76" fill="none" xmlns="http://www.w3.org/2000/svg">
<path d="M126.5 -5.68248e-07L126.5 13M120 6.5L133 6.5L120 6.5Z" stroke="#D5EDFF" stroke-miterlimit="10"/>
<path d="M126.5 32L126.5 45M120 38.5L133 38.5L120 38.5Z" stroke="#D5EDFF" stroke-miterlimit="10"/>
<path d="M126.5 63L126.5 76M120 69.5L133 69.5L120 69.5Z" stroke="#D5EDFF" stroke-miterlimit="10"/>
<path d="M126.5 -5.68248e-07L126.5 13M120 6.5L133 6.5L120 6.5Z" stroke="#D5EDFF" stroke-width="2" stroke-miterlimit="10"/>
<path d="M126.5 32L126.5 45M120 38.5L133 38.5L120 38.5Z" stroke="#D5EDFF" stroke-width="2" stroke-miterlimit="10"/>
<path d="M126.5 63L126.5 76M120 69.5L133 69.5L120 69.5Z" stroke="#D5EDFF" stroke-width="2" stroke-miterlimit="10"/>
<path d="M96.5 -5.68248e-07L96.5 13M90 6.5L103 6.5L90 6.5Z" stroke="#D5EDFF" stroke-miterlimit="10"/>
<path d="M96.5 32L96.5 45M90 38.5L103 38.5L90 38.5Z" stroke="#D5EDFF" stroke-miterlimit="10"/>
<path d="M96.5 63L96.5 76M90 69.5L103 69.5L90 69.5Z" stroke="#D5EDFF" stroke-miterlimit="10"/>
<path d="M96.5 -5.68248e-07L96.5 13M90 6.5L103 6.5L90 6.5Z" stroke="#D5EDFF" stroke-width="2" stroke-miterlimit="10"/>
<path d="M96.5 32L96.5 45M90 38.5L103 38.5L90 38.5Z" stroke="#D5EDFF" stroke-width="2" stroke-miterlimit="10"/>
<path d="M96.5 63L96.5 76M90 69.5L103 69.5L90 69.5Z" stroke="#D5EDFF" stroke-width="2" stroke-miterlimit="10"/>
<path d="M66.5 32L66.5 45M60 38.5L73 38.5L60 38.5Z" stroke="#D5EDFF" stroke-miterlimit="10"/>
<path d="M66.5 63L66.5 76M60 69.5L73 69.5L60 69.5Z" stroke="#D5EDFF" stroke-miterlimit="10"/>
<path d="M66.5 32L66.5 45M60 38.5L73 38.5L60 38.5Z" stroke="#D5EDFF" stroke-width="2" stroke-miterlimit="10"/>
<path d="M66.5 63L66.5 76M60 69.5L73 69.5L60 69.5Z" stroke="#D5EDFF" stroke-width="2" stroke-miterlimit="10"/>
<path d="M36.5 32L36.5 45M30 38.5L43 38.5L30 38.5Z" stroke="#D5EDFF" stroke-miterlimit="10"/>
<path d="M36.5 63L36.5 76M30 69.5L43 69.5L30 69.5Z" stroke="#D5EDFF" stroke-miterlimit="10"/>
<path d="M36.5 32L36.5 45M30 38.5L43 38.5L30 38.5Z" stroke="#D5EDFF" stroke-width="2" stroke-miterlimit="10"/>
<path d="M36.5 63L36.5 76M30 69.5L43 69.5L30 69.5Z" stroke="#D5EDFF" stroke-width="2" stroke-miterlimit="10"/>
<path d="M6.5 32L6.5 45M5.68248e-07 38.5L13 38.5L5.68248e-07 38.5Z" stroke="#D5EDFF" stroke-miterlimit="10"/>
<path d="M6.5 63L6.5 76M5.68248e-07 69.5L13 69.5L5.68248e-07 69.5Z" stroke="#D5EDFF" stroke-miterlimit="10"/>
<path d="M6.5 32L6.5 45M5.68248e-07 38.5L13 38.5L5.68248e-07 38.5Z" stroke="#D5EDFF" stroke-width="2" stroke-miterlimit="10"/>
<path d="M6.5 63L6.5 76M5.68248e-07 69.5L13 69.5L5.68248e-07 69.5Z" stroke="#D5EDFF" stroke-width="2" stroke-miterlimit="10"/>
</svg>
