<svg width="299" height="330" viewBox="0 0 299 330" fill="none" xmlns="http://www.w3.org/2000/svg">
<path d="M142.555 109.539C145.014 110.502 143.812 113.164 143.794 115.037C145.033 119.195 151.256 119.92 154.12 117.01C155.735 115.431 155.533 112.558 153.624 111.264C151.531 109.502 148.144 110.53 146.318 108.364C145.758 107.088 146.419 105.702 146.263 104.389C143.996 100.975 137.222 101.232 135.661 105.151C135.606 108.777 139.948 108.813 142.555 109.539Z" fill="#407BFF"/>
<path d="M163.39 105.206C162.233 101.736 157.167 101.452 154.275 102.902C153.376 103.397 152.853 104.141 152.715 105.151C153.339 110.116 163.16 110.438 163.39 105.206Z" fill="#407BFF"/>
<path d="M162.215 115.156C163.574 119.901 172.358 120.442 173.257 115.174C173.422 111.007 167.933 109.024 164.51 110.603C162.683 111.209 161.435 113.366 162.215 115.156Z" fill="#407BFF"/>
<path d="M189.476 118.221C190.972 114.531 186.998 110.759 183.271 111.282C181.591 111.154 179.701 112.512 179.866 114.265C179.361 118.763 186.658 122.251 189.476 118.221Z" fill="#407BFF"/>
<path d="M108.749 129.465C110.686 127.152 108.685 123.655 110.952 121.507C112.962 119.782 115.982 119.91 117.928 118.028C119.562 116.551 120.223 113.935 118.617 112.191C115.184 108.941 108.061 112.631 109.273 117.166C109.576 120.011 107.152 122.113 104.481 122.664C100.764 123.536 98.5703 128.666 101.278 131.539C103.729 133.439 107.318 131.851 108.749 129.465Z" fill="#407BFF"/>
<path d="M117.607 123.013C115.872 124.83 115.496 128.143 117.671 129.786C119.149 131.227 121.691 130.365 123.142 131.888C124.555 133.091 124.831 135.083 124.298 136.771C123.188 140.406 127.217 144.105 130.879 143.04C134.955 142.49 137.699 137.083 134.743 133.935C132.972 131.494 129.154 132.687 127.428 130.199C125.721 127.969 127.511 125.215 126.914 122.719C126.896 119.47 130.696 118.744 133.284 118.451C133.284 118.451 137.102 116.349 137.001 114.32C137.405 111.154 133.504 109.63 130.824 110.162C127.088 110.447 124.775 114.256 125.904 117.661C124.638 121.287 119.709 120.222 117.607 123.013Z" fill="#407BFF"/>
<path d="M138.002 120.59C134.78 121.452 132.853 125.73 135.349 128.263C138.332 131.925 145.648 129.979 145.831 125.151C146.052 121.305 141.279 119.378 138.002 120.59Z" fill="#407BFF"/>
<path d="M164.721 126.519C165.85 122.269 160.609 119.139 156.8 120.544C153.78 121.232 152.137 125.087 154.074 127.547C156.414 131.31 163.445 131.007 164.721 126.519Z" fill="#407BFF"/>
<path d="M172.422 128.437C171.761 133.063 165.464 131.017 163.739 134.752C161.977 137.8 164.078 141.958 167.465 142.857C170.302 143.995 174.056 142.306 174.717 139.314C175.552 137.249 173.615 134.991 174.928 133.008C175.754 131.292 177.764 130.851 179.517 130.659C181.72 130.374 183.262 128.052 182.83 125.959C182.417 122.407 178.039 119.736 174.625 121.195C171.366 122.242 172.192 125.913 172.422 128.437Z" fill="#407BFF"/>
<path d="M197.452 131.787C201.95 128.18 196.094 120.213 191.082 123.013C186.19 126.445 192.477 134.725 197.452 131.787Z" fill="#407BFF"/>
<path d="M148.007 131.98C144.262 132.65 142.022 137.331 144.427 140.369C146.125 143.416 150.411 142.297 152.614 144.692C152.614 144.692 153.973 147.712 153.587 149.328C153.073 151.723 154.606 154.468 152.917 156.597C151.072 158.993 147.465 158.148 145.354 160.14C142.417 162.536 142.692 167.51 145.868 169.594C148.833 171.962 153.78 170.622 155.221 167.198C156.699 164.546 154.423 161.388 156.148 158.809C157.993 156.184 161.949 157.295 163.95 154.908C166.465 152.558 166.052 148.07 163.197 146.142C161.582 144.885 159.361 144.949 157.552 144.077C155.662 142.847 155.001 140.626 155.524 138.524C156.561 134.44 151.953 130.805 148.007 131.98Z" fill="#407BFF"/>
<path d="M188.117 143.959C190.596 143.949 192.514 141.636 192.45 139.314C192.542 135.413 187.934 131.705 184.116 133.679C179.269 136.469 182.858 144.473 188.117 143.959Z" fill="#407BFF"/>
<path d="M203.786 145.785L203.997 145.711C207.485 148.171 204.309 152.65 206.42 155.725C207.117 157.341 209.311 158.727 210.945 157.414C212.882 155.624 212.863 152.54 211.964 150.273C211.284 147.455 207.09 147.666 206.833 144.573C207.007 141.746 207.273 138.433 205.015 136.257C203.354 134.256 199.618 134.431 198.655 137.01C197.232 140.709 199.903 144.913 203.786 145.785Z" fill="#407BFF"/>
<path d="M88.9969 157.873C92.6041 158.231 93.9442 153.779 93.4027 150.989C92.751 148.823 93.8433 145.454 96.5143 145.344C99.1669 145.858 99.222 148.979 98.8089 151.044C98.1756 153.917 100.121 157.634 103.508 157.313C107.281 156.781 108.832 152.513 108.006 149.273C107.29 145.941 110.493 143.692 113.532 143.417L113.761 143.407C116.808 141.792 118.525 137.368 116.102 134.577C113.935 132.136 109.823 133.045 108.034 135.459C106.161 137.533 106.84 140.443 106.648 142.948C106.225 144.5 104.913 145.509 103.545 146.271C102.214 145.931 100.92 145.353 100.342 144.059C99.9471 141.416 101.774 138.579 99.9379 136.193C98.4969 134.183 95.2293 134.633 93.8341 136.468C91.6037 138.662 92.3471 141.902 92.2095 144.674C91.8882 145.913 91.0805 147.015 89.8322 147.529C85.8395 149.006 85.1878 155.89 88.9969 157.873Z" fill="#407BFF"/>
<path d="M117.699 156.313C122.04 158.69 127.208 153.568 125.656 149.291C125.051 146.244 121.37 144.509 118.47 145.693C114.119 147.418 113.366 154.156 117.699 156.313Z" fill="#407BFF"/>
<path d="M191.624 160.911C190.082 158.479 186.254 159.323 184.942 156.643C183.188 154.248 185.208 151.118 183.656 148.685C182.583 146.042 179.287 144.711 176.571 145.656C172.973 147.171 172.036 152.155 174.726 154.872C176.396 157.231 180.031 156.423 181.628 158.864C183.849 161.572 181.252 165.189 183.299 167.96C184.62 170.531 188.622 171.393 190.779 169.337C193.257 167.309 193.569 163.362 191.624 160.911Z" fill="#407BFF"/>
<path d="M196.672 157.249C202.748 155.936 200.747 145.188 194.46 146.381C188.595 147.905 190.541 158.103 196.672 157.249Z" fill="#407BFF"/>
<path d="M95.2017 159.378C90.3278 161.03 91.0162 170.337 96.6336 170.08C102.26 168.887 101.306 158.497 95.2017 159.378Z" fill="#407BFF"/>
<path d="M163.959 167.052C165.07 169.98 168.897 171.623 171.816 170.218C175.139 168.988 176.497 164.628 174.68 161.71C173.193 158.828 169.007 157.717 166.272 159.617C163.812 161.104 162.647 164.482 163.959 167.052Z" fill="#407BFF"/>
<path d="M202.702 170.099C208.953 170.108 208.393 158.25 202.014 159.443C197.296 161.04 197.672 169.264 202.702 170.099Z" fill="#407BFF"/>
<path d="M124.087 182.729C127.511 179.82 125.84 173.597 121.407 172.688C118.965 172.321 116.377 170.898 116.313 168.199C116.505 165.951 117.185 163.491 115.78 161.462C114.495 159.177 111.274 158.13 108.951 159.562C105.574 161.563 105.335 166.602 108.061 169.237L108.19 169.2C109.934 170.65 112.733 170.246 114.119 172.211C116.047 174.67 113.88 177.865 115.276 180.49C116.524 183.84 121.389 185.354 124.087 182.729Z" fill="#407BFF"/>
<path d="M144.354 182.325C147.181 179.168 145.143 173.642 140.948 172.88C138.525 172.522 135.551 171.467 135.294 168.713C135.395 166.382 135.863 164.078 135.294 161.765C134.927 158.883 137.607 156.882 140.297 156.625C143.179 156.294 145.574 153.779 145.629 150.943C145.868 147.666 142.747 144.656 139.406 144.849C136.221 144.922 133.339 147.74 133.504 150.897C133.633 152.889 134.193 155.257 132.678 156.9C130.888 158.947 127.658 158.268 125.739 160.085C123.132 162.114 122.912 166.217 125.042 168.649C127.006 170.953 130.696 170.136 132.531 172.614C134.973 175.212 132.284 178.947 134.404 181.673C136.377 185.088 141.93 185.519 144.354 182.325Z" fill="#407BFF"/>
<path d="M88.3452 171.88C85.4814 174.23 85.9771 179.746 89.2538 181.591C95.734 182.491 94.3297 169.613 88.3452 171.88Z" fill="#407BFF"/>
<path d="M207.98 171.935C205.171 173.698 205.511 177.332 205.759 180.141C205.86 182.252 203.418 185.208 201.307 183.308C198.453 180.398 202.299 175.102 198.177 172.716C193.358 169.889 188.861 176.984 191.67 180.894C192.56 182.785 194.79 183.06 196.626 183.455C199.159 184.253 199.049 187.255 198.425 189.283C197.783 191.504 199.178 194.46 201.812 194.506C205.254 194.368 207.237 190.623 206.805 187.594C206.475 185.373 207.062 182.592 209.467 181.711C212.606 180.444 213.038 176.387 212.092 173.624C211.652 172 209.495 170.66 207.98 171.935Z" fill="#407BFF"/>
<path d="M107.776 193.459C109.392 196.166 113.761 197.277 116.074 194.799C118.726 191.687 116.432 186.483 112.558 185.611C110.952 185.143 109.07 184.491 108.4 182.848C107.29 180.443 108.96 177.708 107.629 175.349C106.693 172.605 102.866 170.925 100.479 172.999C97.5879 175.597 98.2947 181.095 101.92 182.729C103.591 183.289 105.573 183.894 106.317 185.647C107.372 188.153 105.904 191.191 107.776 193.459Z" fill="#407BFF"/>
<path d="M147.245 197.122C151.237 198.912 156.625 195.286 155.487 190.889C154.615 188.136 156.341 185.079 159.361 184.703C162.637 184.455 165.859 181.858 165.62 178.471C165.813 174.304 160.71 171.311 156.974 173.248C155.478 173.955 154.34 175.24 153.752 176.745C152.789 179.196 154.606 181.986 153.055 184.299C151.1 187.099 146.731 185.86 144.739 188.641C142.178 191.33 143.72 196.066 147.245 197.122Z" fill="#407BFF"/>
<path d="M182.665 182.279C184.721 180.159 184.942 176.524 182.968 174.285C181.619 172.678 179.168 172.008 177.186 172.798C175.635 173.358 174.386 174.569 173.725 176.038C172.33 178.553 174.313 181.637 172.642 184.069C170.926 186.538 167.309 185.776 165.244 187.75C162.895 189.595 162.335 193.45 164.556 195.607C167.227 198.516 172.587 197.442 174.276 194.019C175.791 191.568 173.78 188.521 175.534 186.162C177.186 183.748 180.793 184.445 182.665 182.279Z" fill="#407BFF"/>
<path d="M94.3112 184.409C89.8229 187.061 93.0446 195.698 98.3407 194.266C103.481 192.054 99.6991 182.527 94.3112 184.409Z" fill="#407BFF"/>
<path d="M184.171 195.671C188.714 197.966 194.029 192.413 191.972 188.053C190.926 185.4 187.291 184.657 184.997 186.226C181.683 188.062 180.398 193.661 184.171 195.671Z" fill="#407BFF"/>
<path d="M126.556 196.02C129.502 198.526 134.954 197.231 135.817 193.349C136.992 188.677 131.035 184.418 126.822 186.942C123.343 188.732 123.408 193.927 126.556 196.02Z" fill="#407BFF"/>
<path d="M102.177 197.241C99.3045 198.59 99.5248 202.592 101.406 204.666C103.049 206.961 107.143 207.998 109.043 205.465C111.714 201.509 106.693 195.561 102.177 197.241Z" fill="#407BFF"/>
<path d="M193.643 197.223C190.348 198.342 187.897 202.647 190.146 205.685C193.258 208.788 198.627 205.603 199.003 201.766C199.848 198.82 196.608 195.818 193.643 197.223Z" fill="#407BFF"/>
<path d="M136.423 217.195C137.993 215.341 135.726 212.945 136.946 210.981C138.745 208.54 142.564 209.806 144.51 207.548C146.621 205.74 146.18 202.188 143.996 200.619C141.288 198.241 136.185 198.719 134.597 202.115C133.211 204.373 135.983 207.484 133.615 209.357C131.09 211.706 126.363 209.311 126.951 205.924C128.199 201.417 122.793 196.965 118.47 198.985C115.634 200.233 115.992 203.592 116.698 205.997C117.185 208.145 114.798 209.292 112.944 209.219C111.007 209.146 109.163 210.669 109.098 212.588C108.795 217.195 115.854 220.362 118.956 216.654C120.59 214.488 117.598 211.743 119.452 209.724C121.948 207.209 126.474 210.229 125.932 213.395C124.922 218.792 133.431 221.298 136.423 217.195Z" fill="#407BFF"/>
<path d="M183.097 208.319C181.123 206.19 183.905 203.363 182.564 201.031C181.665 198.773 178.709 197.993 176.516 198.81C173.221 199.737 170.641 203.803 172.762 206.86C174.258 209.164 177.378 208.172 179.444 209.522C181.702 211.614 178.241 214.726 180.334 216.91C183.941 220.756 191.881 216.066 189.568 211.155C188.384 208.549 185.033 209.834 183.097 208.319Z" fill="#407BFF"/>
<path d="M164.886 204.244C165.217 200.251 160.104 198.021 156.772 199.627C153.908 200.591 152.036 204.234 153.936 206.823C156.671 210.953 164.629 209.356 164.886 204.244Z" fill="#407BFF"/>
<path d="M155.588 219.398C153.982 217.975 155.386 215.947 155.065 214.23C154.037 210.889 149.558 209.843 146.602 211.321C144.353 212.248 142.949 215.277 144.757 217.241C146.593 219.793 150.356 218.636 152.568 220.573C154.11 222.17 151.632 224.722 153.817 226.071C156.662 228.154 163.06 227.631 163.344 223.455C162.518 219.921 158.057 220.986 155.588 219.398Z" fill="#407BFF"/>
<path d="M165.281 211.156C162.904 212 161.086 215.057 162.729 217.297C165.501 220.601 172.202 219.371 173.12 215.057C173.579 211.119 168.292 209.467 165.281 211.156Z" fill="#407BFF"/>
<path d="M137.892 221.05C135.478 221.702 134.927 225.116 137.286 226.217C139.975 227.815 145.418 227.879 146.272 224.235C145.859 220.618 140.765 219.664 137.892 221.05Z" fill="#407BFF"/>
<path d="M171.291 14.0893C167.867 5.79175 158.835 0 149.326 0C146.701 0 144.149 0.431398 141.836 1.28502C135.842 3.14829 130.813 7.64584 128.031 13.612C125.305 19.4496 125.14 25.9389 127.554 31.4278C130.757 40.0466 139.909 46.0586 149.84 46.0586C153.319 46.0586 156.614 45.3243 159.542 43.8924C164.966 41.5243 169.363 36.8616 171.603 31.0882C173.787 25.4066 173.668 19.1834 171.291 14.0893ZM294.257 79.6801C290.026 73.9893 282.729 70.4647 275.202 70.4647C272.118 70.4647 269.172 71.0338 266.483 72.1536C256.092 76.0913 249.722 87.7757 252.265 98.1201C254.22 108.171 263.555 116.009 273.927 116.376C274.468 116.413 275.019 116.441 275.569 116.441C279.553 116.441 283.491 115.367 286.96 113.467C290.421 111.567 293.404 108.841 295.46 105.536C300.6 97.6061 300.095 86.9496 294.257 79.6801ZM172.621 301.575C170.749 291.249 160.561 283.171 149.399 283.171C147.362 283.171 145.352 283.447 143.507 283.979C137.724 285.347 132.538 289.165 129.28 294.47C126.076 299.675 125.058 305.797 126.499 311.295C128.536 321.382 138.669 329.285 149.592 329.285C151.501 329.285 153.383 329.037 155.109 328.569C160.946 327.303 166.224 323.567 169.592 318.307C172.86 313.167 173.971 307.073 172.621 301.575ZM45.0929 83.8656C41.4489 75.871 32.7842 70.4831 23.523 70.4831C21.2742 70.4831 19.0621 70.8135 17.0153 71.456C8.85543 73.7323 2.25596 80.6347 0.612976 88.5467C-1.60826 97.395 2.34775 107.225 10.2047 112.43C13.9955 115.046 18.7776 116.487 23.6698 116.487C26.35 116.487 28.9659 116.055 31.3983 115.266C33.8306 114.458 36.0794 113.283 38.0253 111.76C46.7083 105.518 49.8107 93.2462 45.0929 83.8656ZM292.431 219.866C288.016 215.378 281.756 212.808 275.276 212.808C273.688 212.808 272.109 212.964 270.576 213.276C264.647 214.478 259.305 217.948 255.945 222.748C252.366 227.549 251.007 233.873 252.228 240.114C253.449 246.337 257.093 251.716 262.215 254.892C265.895 257.434 270.365 258.784 275.138 258.784C279.25 258.784 283.206 257.792 286.657 256.021C290.09 254.249 293.027 251.679 295.056 248.531C301.132 239.912 299.985 227.31 292.431 219.866ZM46.1943 229.017C43.3673 219.637 33.8582 212.826 23.5689 212.826C22.0085 212.826 20.4573 212.991 18.9887 213.303C9.97523 215.029 2.42118 222.271 0.631333 230.853C-1.70923 240.05 2.69654 250.348 11.0675 255.333C14.7298 257.636 19.0713 258.857 23.6239 258.857C26.0471 258.857 28.4519 258.499 30.7099 257.82C32.9678 257.141 35.0973 256.14 36.9697 254.855C45.4508 249.421 49.4068 238.279 46.1943 229.017Z" fill="black"/>
<path d="M48.9963 82.1027C49.547 83.2134 50.006 84.3699 50.3823 85.5356C58.4687 80.9646 69.0058 74.9342 76.0918 70.9415C91.8332 62.0657 112.228 50.6566 128.924 41.3861C126.593 38.9446 124.739 36.0992 123.546 32.9601C123.344 32.4828 123.151 32.0055 122.986 31.519C100.883 43.846 74.7609 58.4952 53.604 70.4366L44.6548 75.5675C46.4171 77.5134 47.8949 79.7071 48.9963 82.1027Z" fill="black"/>
<path d="M175.607 32.5566C174.358 35.7691 172.532 38.6879 170.283 41.1754C172.082 42.3043 174 43.4609 174.808 43.8923C184.914 49.5004 195.139 55.283 205.033 60.8728C217.865 68.124 234.91 77.8993 248.724 85.5267C249.899 81.9195 251.836 78.5234 254.387 75.6321C254.369 75.623 254.35 75.6138 254.332 75.6046L254.25 75.5495L254.167 75.5036C228.32 60.9921 197.663 43.3966 176.102 31.189C175.946 31.6387 175.781 32.1068 175.607 32.5566Z" fill="black"/>
<path d="M281.281 195.754H281.272C281.309 187.612 281.309 179.379 281.272 171.256L281.263 169.686C281.254 151.301 281.254 130.842 281.272 121.03V120.011C279.409 120.406 277.5 120.626 275.581 120.626C274.948 120.626 274.324 120.608 273.7 120.562C272.277 120.507 270.882 120.332 269.505 120.057V121.048C269.496 127.198 269.505 137.12 269.505 148.126C269.505 157.414 269.505 167.483 269.505 176.717C269.404 177.929 269.441 179.14 269.468 180.306C269.496 181.288 269.523 182.215 269.468 183.105L269.459 183.188V183.271C269.505 184.253 269.477 185.253 269.459 186.309C269.432 187.575 269.404 188.888 269.496 190.191V191.889L269.45 191.871L269.468 194.551C269.477 195.91 269.477 197.268 269.477 198.636L269.487 200.875L269.468 205.125L269.496 205.116C269.496 205.612 269.496 207.411 269.505 209.246C269.578 209.228 269.643 209.21 269.716 209.2C271.524 208.833 273.406 208.641 275.288 208.641C277.316 208.641 279.326 208.861 281.281 209.274C281.29 205.088 281.29 199.829 281.29 197.277V195.754H281.281Z" fill="black"/>
<path d="M248.743 243.795C241.179 248.054 231.294 253.616 224.474 257.471C207.806 266.879 187.475 278.399 170.118 287.963C172.844 290.817 174.928 294.204 176.121 297.922C190.587 289.734 207.98 279.922 221.877 272.12C231.432 266.751 244.374 259.481 254.424 253.818C251.854 250.973 249.908 247.549 248.743 243.795Z" fill="black"/>
<path d="M23.5712 208.64C25.5905 208.64 27.5914 208.879 29.5281 209.31C29.5373 204.179 29.5557 199.214 29.5832 197.552C29.6566 192.164 29.7209 186.593 29.3262 181.095C29.6475 173.486 29.6016 165.767 29.5557 158.286C29.5281 153.063 29.4914 147.666 29.5924 142.352C29.6016 139.213 29.5832 136.083 29.574 132.953C29.5557 129.869 29.5465 124.196 29.5557 120.066C27.6465 120.451 25.6914 120.672 23.6905 120.672C21.7079 120.672 19.7345 120.451 17.8161 120.066C17.7794 126.537 17.7427 135.899 17.7611 142.343C17.7611 144.334 17.7702 146.326 17.7886 148.318C17.8253 152.935 17.8528 157.717 17.6509 162.426C17.5867 165.987 17.5591 169.622 17.5775 173.22L17.5958 178.02C17.6142 183.5 17.6326 189.163 17.5408 194.734V194.835C17.6326 196.68 17.6234 198.571 17.6142 200.407C17.6142 201.435 17.605 205.189 17.6234 209.319C17.7978 209.283 17.9722 209.228 18.1466 209.2C19.8813 208.824 21.7171 208.64 23.5712 208.64Z" fill="black"/>
<path d="M125.592 292.313C126.547 290.753 127.658 289.303 128.878 287.981C105.73 275.094 79.3042 260.142 56.8624 247.476L50.2996 243.841C49.1247 247.54 47.1605 251.009 44.5354 253.919C55.7609 260.197 70.5661 268.403 79.4511 273.405C92.5766 280.785 109.236 290.184 122.958 297.94C123.619 295.994 124.491 294.103 125.592 292.313Z" fill="black"/>
<path d="M95.1742 127.446C92.9254 130.548 90.9428 133.861 89.2906 137.331C75.8531 129.795 59.9005 120.828 57.5783 119.506C53.5122 117.202 49.3175 114.825 45.1596 112.558L44.1499 112.016C46.8117 109.217 48.8035 105.866 50.0518 102.259L50.9054 102.7C55.7885 105.252 60.644 108.014 65.3343 110.676C67.2618 111.778 82.3057 120.231 95.1742 127.446Z" fill="black"/>
<path d="M95.6515 202.491C80.5342 210.632 57.5233 222.941 51.1624 226.667L50.1253 227.273C48.8861 223.519 46.7567 220.132 43.9939 217.305L45.1321 216.681C52.3557 212.743 59.6435 208.622 66.702 204.629L89.5477 192.495C91.2733 196.011 93.3201 199.361 95.6515 202.491Z" fill="black"/>
<path d="M155.395 65.7927V100.167C153.45 99.9924 151.495 99.9098 149.512 99.9098C147.538 99.9098 145.574 99.9924 143.647 100.167C143.656 85.7471 143.647 67.1511 143.647 64.37C143.647 59.8081 143.638 55.2555 143.665 50.6937L143.674 49.5464C145.675 49.987 147.74 50.2256 149.833 50.2256C151.733 50.2256 153.578 50.0329 155.368 49.6657L155.377 50.7029C155.405 55.7512 155.395 60.7719 155.395 65.7927Z" fill="black"/>
<path d="M155.395 278.674L155.386 279.656C153.45 279.224 151.43 278.995 149.402 278.995C147.438 278.995 145.501 279.224 143.647 279.628L143.638 278.573C143.61 274.745 143.628 270.863 143.638 267.099C143.647 263.749 143.665 244.318 143.638 229.109C145.574 229.283 147.529 229.366 149.503 229.366C151.485 229.366 153.45 229.283 155.377 229.109C155.359 244.309 155.377 263.74 155.386 267.072C155.414 270.872 155.423 274.8 155.395 278.674Z" fill="black"/>
<path d="M254.947 111.98L253.947 112.522C249.743 114.826 245.503 117.231 241.4 119.544C239.307 120.728 223.841 129.732 209.954 137.791C208.329 134.33 206.401 131.035 204.198 127.933C221.574 117.901 243.015 105.454 247.972 102.591L248.889 102.067C250.147 105.776 252.24 109.144 254.947 111.98Z" fill="black"/>
<path d="M254.957 217.268C254.039 218.232 253.194 219.251 252.432 220.343C250.881 222.426 249.688 224.749 248.853 227.208L247.935 226.676C242.896 223.757 220.683 211.283 203.813 201.875C206.071 198.764 208.054 195.441 209.724 191.953C219.775 197.543 230.56 203.601 231.404 204.069C233.24 205.106 235.085 206.153 236.911 207.19C242.474 210.338 248.21 213.596 253.91 216.699L254.957 217.268Z" fill="black"/>
</svg>
