<svg width="96" height="100" viewBox="0 0 96 100" fill="none" xmlns="http://www.w3.org/2000/svg">
<g clip-path="url(#clip0_1663_133)">
<g filter="url(#filter0_d_1663_133)">
<path d="M48 72C67.8823 72 84 55.8823 84 36C84 16.1177 67.8823 0 48 0C28.1177 0 12 16.1177 12 36C12 55.8823 28.1177 72 48 72Z" fill="black"/>
<path d="M48 71.5C67.6061 71.5 83.5 55.6061 83.5 36C83.5 16.3939 67.6061 0.5 48 0.5C28.3939 0.5 12.5 16.3939 12.5 36C12.5 55.6061 28.3939 71.5 48 71.5Z" stroke="#E8EBED"/>
</g>
<path d="M47.7627 29.6443C48.0169 29.7483 47.8927 30.0285 47.8898 30.2221C48.0169 30.6642 48.6612 30.7393 48.9588 30.4331C48.9985 30.391 49.0288 30.3411 49.0478 30.2866C49.0668 30.2321 49.0741 30.1741 49.0692 30.1166C49.0643 30.059 49.0473 30.0032 49.0193 29.9527C48.9913 29.9021 48.953 29.8581 48.9068 29.8234C48.6901 29.6356 48.329 29.7454 48.1498 29.5142C48.092 29.3785 48.1498 29.2253 48.1498 29.0924C47.9158 28.7284 47.2137 28.7572 47.0519 29.1733C47.0432 29.5576 47.4911 29.5576 47.7627 29.6443Z" fill="#0C71BC"/>
<path d="M49.9211 29.1814C49.8026 28.8116 49.2767 28.7827 48.9763 28.9358C48.9318 28.9596 48.8938 28.9939 48.8656 29.0357C48.8374 29.0775 48.8198 29.1255 48.8145 29.1756C48.8925 29.7044 49.8951 29.7391 49.9211 29.1814Z" fill="#0C71BC"/>
<path d="M49.7959 30.2391C49.9374 30.7447 50.8476 30.8025 50.9516 30.2391C50.9689 29.797 50.3997 29.5861 50.0472 29.7536C49.9985 29.7684 49.9532 29.7928 49.914 29.8254C49.8748 29.8579 49.8425 29.898 49.8191 29.9433C49.7957 29.9885 49.7815 30.038 49.7775 30.0888C49.7735 30.1396 49.7798 30.1907 49.7959 30.2391Z" fill="#0C71BC"/>
<path d="M52.6224 30.5658C52.6504 30.4723 52.6542 30.3734 52.6336 30.2781C52.613 30.1828 52.5687 30.0942 52.5046 30.0207C52.4406 29.9472 52.359 29.891 52.2675 29.8575C52.1759 29.824 52.0774 29.8142 51.981 29.829C51.9373 29.8246 51.8932 29.8292 51.8514 29.8424C51.8095 29.8556 51.7708 29.8772 51.7376 29.9058C51.7043 29.9345 51.6773 29.9696 51.658 30.009C51.6388 30.0485 51.6277 30.0914 51.6256 30.1352C51.5736 30.6235 52.3277 31.002 52.6224 30.5658Z" fill="#0C71BC"/>
<path d="M44.2687 31.7612C44.471 31.5156 44.2687 31.1429 44.497 30.9147C44.705 30.7326 45.0171 30.7442 45.2193 30.5448C45.3094 30.4708 45.3672 30.3646 45.3807 30.2488C45.3942 30.133 45.3622 30.0164 45.2915 29.9236C44.9362 29.5798 44.1994 29.9699 44.3236 30.4524C44.325 30.5926 44.2754 30.7285 44.1839 30.8349C44.0925 30.9412 43.9655 31.0106 43.8267 31.0302C43.7318 31.0564 43.6446 31.1051 43.5727 31.1722C43.5007 31.2394 43.4461 31.3229 43.4134 31.4157C43.3808 31.5086 43.3711 31.6079 43.3852 31.7053C43.3993 31.8027 43.4368 31.8953 43.4944 31.975C43.5586 32.0145 43.6302 32.0404 43.7048 32.0509C43.7794 32.0615 43.8554 32.0567 43.9281 32.0366C44.0007 32.0165 44.0685 31.9817 44.1271 31.9344C44.1857 31.887 44.2339 31.8281 44.2687 31.7612Z" fill="#0C71BC"/>
<path d="M45.1789 31.0744C45.1309 31.1212 45.0928 31.1772 45.0668 31.2389C45.0407 31.3007 45.0273 31.3671 45.0273 31.4341C45.0273 31.5011 45.0407 31.5675 45.0668 31.6293C45.0928 31.6911 45.1309 31.747 45.1789 31.7938C45.332 31.947 45.5949 31.8545 45.7567 32.0163C45.8239 32.0821 45.8708 32.1658 45.8918 32.2575C45.9128 32.3492 45.907 32.445 45.8752 32.5335C45.8588 32.6261 45.8653 32.7212 45.894 32.8107C45.9227 32.9002 45.9728 32.9814 46.04 33.0472C46.1072 33.1129 46.1894 33.1613 46.2795 33.1881C46.3696 33.2149 46.4649 33.2193 46.5571 33.2009C46.9789 33.1431 47.2621 32.5682 46.9558 32.233C46.7738 31.973 46.3779 32.1001 46.1988 31.8343C46.0197 31.5685 46.1988 31.3055 46.1468 31.0397C46.1468 30.6959 46.5368 30.6179 46.8056 30.5861C46.8056 30.5861 47.2014 30.3636 47.1898 30.1469C47.2303 29.8118 46.8287 29.65 46.5513 29.7049C46.4611 29.7148 46.3743 29.7448 46.2972 29.7927C46.2201 29.8406 46.1548 29.9052 46.106 29.9817C46.0572 30.0583 46.0262 30.1448 46.0152 30.2348C46.0043 30.3249 46.0137 30.4163 46.0428 30.5023C45.907 30.8895 45.3956 30.7797 45.1789 31.0744Z" fill="#0C71BC"/>
<path d="M47.2912 30.8172C47.2087 30.8388 47.1329 30.8806 47.0706 30.9387C47.0083 30.9969 46.9614 31.0697 46.9341 31.1505C46.9069 31.2313 46.9002 31.3176 46.9146 31.4017C46.9291 31.4857 46.9641 31.5649 47.0167 31.632C47.3259 32.022 48.0829 31.814 48.1031 31.2997C48.1234 30.8923 47.6293 30.6872 47.2912 30.8172Z" fill="#0C71BC"/>
<path d="M50.0473 31.4464C50.1629 30.9957 49.6226 30.6634 49.2268 30.8108C49.1506 30.8296 49.0801 30.8664 49.0212 30.9182C48.9624 30.97 48.9168 31.0353 48.8885 31.1084C48.8601 31.1815 48.8498 31.2604 48.8584 31.3383C48.867 31.4163 48.8942 31.491 48.9378 31.5562C49.195 31.9549 49.926 31.9232 50.0473 31.4464Z" fill="#0C71BC"/>
<path d="M50.8539 31.6517C50.7845 32.1428 50.1344 31.9261 49.9553 32.322C49.916 32.4034 49.895 32.4924 49.8936 32.5828C49.8923 32.6732 49.9107 32.7628 49.9476 32.8453C49.9844 32.9278 50.0389 33.0013 50.1071 33.0606C50.1753 33.12 50.2556 33.1637 50.3425 33.1888C50.4163 33.2157 50.4949 33.2273 50.5734 33.2228C50.6519 33.2184 50.7286 33.1979 50.799 33.1628C50.8693 33.1276 50.9317 33.0785 50.9824 33.0184C51.033 32.9582 51.0709 32.8884 51.0937 32.8132C51.1804 32.5936 50.9781 32.3538 51.1168 32.1428C51.1678 32.0642 51.2382 32.0001 51.3212 31.9566C51.4042 31.9131 51.497 31.8916 51.5906 31.8944C51.7023 31.8733 51.8011 31.8089 51.8656 31.7153C51.93 31.6216 51.9547 31.5063 51.9345 31.3945C51.9195 31.3014 51.8843 31.2128 51.8313 31.1348C51.7783 31.0568 51.7089 30.9914 51.6279 30.9432C51.5469 30.895 51.4563 30.8651 51.3625 30.8557C51.2687 30.8464 51.174 30.8577 51.085 30.8889C50.7441 31.0016 50.8307 31.3829 50.8539 31.6517Z" fill="#0C71BC"/>
<path d="M53.4452 32.0072C53.9104 31.6229 53.3036 30.7763 52.7864 31.0739C52.2808 31.438 52.9367 32.3192 53.4452 32.0072Z" fill="#0C71BC"/>
<path d="M48.3142 32.0281C48.22 32.046 48.1317 32.087 48.0574 32.1475C47.983 32.208 47.9249 32.286 47.8882 32.3746C47.8515 32.4632 47.8374 32.5595 47.8472 32.6548C47.857 32.7502 47.8904 32.8416 47.9443 32.9208C48.1206 33.2445 48.5626 33.126 48.7909 33.3802C48.8621 33.534 48.8968 33.7021 48.892 33.8714C48.84 34.1257 48.996 34.4175 48.8227 34.6429C48.6493 34.8682 48.2448 34.8076 48.0397 35.0185C47.9673 35.0825 47.9102 35.1619 47.8725 35.2509C47.8348 35.3399 47.8176 35.4362 47.822 35.5328C47.8264 35.6293 47.8523 35.7236 47.898 35.8088C47.9436 35.894 48.0077 35.9679 48.0856 36.0251C48.1635 36.0822 48.2533 36.1212 48.3482 36.1392C48.4432 36.1571 48.541 36.1536 48.6344 36.1288C48.7278 36.1041 48.8145 36.0587 48.888 35.9961C48.9616 35.9334 49.0202 35.8551 49.0596 35.7668C49.2127 35.4779 48.9787 35.1485 49.1549 34.874C49.3312 34.5995 49.7588 34.718 49.9784 34.4695C50.0393 34.4054 50.086 34.3291 50.1153 34.2457C50.1447 34.1622 50.1561 34.0735 50.1487 33.9854C50.1413 33.8973 50.1154 33.8117 50.0726 33.7343C50.0298 33.6569 49.9711 33.5894 49.9004 33.5363C49.7328 33.4034 49.5017 33.4091 49.3225 33.3167C49.2328 33.2533 49.1645 33.164 49.1268 33.0607C49.0891 32.9575 49.0838 32.8452 49.1116 32.7388C49.1322 32.6331 49.1249 32.5238 49.0904 32.4217C49.056 32.3196 48.9956 32.2282 48.9152 32.1565C48.8347 32.0848 48.737 32.0353 48.6317 32.0127C48.5263 31.9902 48.4169 31.9955 48.3142 32.0281Z" fill="#0C71BC"/>
<path d="M52.4801 33.3136C52.5433 33.3107 52.6054 33.2952 52.6627 33.2682C52.7199 33.2411 52.7712 33.203 52.8137 33.156C52.8561 33.1089 52.8888 33.054 52.9099 32.9943C52.931 32.9346 52.9401 32.8713 52.9366 32.808C52.9366 32.3948 52.4685 31.999 52.0698 32.2099C51.5642 32.5046 51.934 33.357 52.4801 33.3136Z" fill="#0C71BC"/>
<path d="M54.093 33.4953H54.1162C54.4773 33.7553 54.1479 34.232 54.3675 34.5585C54.4398 34.729 54.6565 34.8764 54.8356 34.7377C54.9279 34.6356 54.9888 34.509 55.0108 34.3732C55.0329 34.2373 55.0152 34.098 54.9598 33.972C54.8905 33.6831 54.4542 33.6831 54.4282 33.3652C54.4455 33.0763 54.4744 32.7123 54.2404 32.4811C54.1988 32.4292 54.1446 32.3888 54.083 32.3637C54.0214 32.3387 53.9545 32.3298 53.8885 32.3379C53.8224 32.346 53.7596 32.3708 53.7059 32.4101C53.6522 32.4493 53.6094 32.5016 53.5816 32.562C53.5508 32.6568 53.5398 32.7569 53.5491 32.8561C53.5584 32.9554 53.5879 33.0517 53.6358 33.1391C53.6837 33.2265 53.749 33.3032 53.8276 33.3644C53.9063 33.4257 53.9966 33.4702 54.093 33.4953Z" fill="#0C71BC"/>
<path d="M42.2144 34.7783C42.5872 34.8158 42.7259 34.342 42.671 34.0473C42.6045 33.8161 42.7172 33.4694 42.9917 33.4463C43.2806 33.5012 43.2806 33.8335 43.2286 34.053C43.1621 34.3593 43.3644 34.7523 43.714 34.7205C44.0636 34.6887 44.2659 34.212 44.1792 33.8537C44.0925 33.4954 44.4363 33.2614 44.757 33.2325H44.7802C44.8619 33.1909 44.9338 33.1324 44.9912 33.0609C45.0486 32.9893 45.0902 32.9064 45.1131 32.8177C45.1361 32.7289 45.1399 32.6362 45.1243 32.5459C45.1088 32.4555 45.0742 32.3694 45.0229 32.2934C44.9647 32.2387 44.8953 32.1973 44.8195 32.172C44.7438 32.1467 44.6634 32.1381 44.584 32.1469C44.5046 32.1557 44.4281 32.1816 44.3597 32.2229C44.2913 32.2641 44.2326 32.3198 44.1878 32.3859C43.9943 32.6055 44.0636 32.9147 44.0434 33.1834C44.0162 33.2606 43.9738 33.3315 43.9187 33.3921C43.8636 33.4526 43.797 33.5015 43.7227 33.5359C43.656 33.525 43.5926 33.4994 43.5372 33.4609C43.4817 33.4224 43.4355 33.372 43.402 33.3134C43.3615 33.0244 43.5493 32.7355 43.3615 32.4784C43.3218 32.432 43.272 32.3952 43.216 32.371C43.1599 32.3467 43.0991 32.3355 43.0381 32.3383C42.9771 32.3411 42.9175 32.3578 42.8639 32.387C42.8103 32.4163 42.7641 32.4574 42.7287 32.5073C42.4976 32.7413 42.5756 33.0851 42.5612 33.3741C42.5466 33.4402 42.5168 33.5021 42.4742 33.5547C42.4316 33.6074 42.3773 33.6494 42.3156 33.6774C41.888 33.8363 41.8215 34.5702 42.2144 34.7783Z" fill="#0C71BC"/>
<path d="M45.1877 34.6132C45.6385 34.8645 46.173 34.3242 46.0112 33.8677C45.9921 33.7907 45.9567 33.7186 45.9074 33.6564C45.8581 33.5942 45.796 33.5433 45.7254 33.5072C45.6547 33.471 45.5771 33.4505 45.4978 33.4469C45.4185 33.4433 45.3394 33.4567 45.2657 33.4863C45.1602 33.5341 45.0696 33.6095 45.0035 33.7046C44.9373 33.7997 44.8982 33.9109 44.8902 34.0265C44.8822 34.142 44.9056 34.2576 44.958 34.3609C45.0104 34.4642 45.0898 34.5513 45.1877 34.6132Z" fill="#0C71BC"/>
<path d="M52.841 35.102C52.682 34.8448 52.2862 34.9315 52.1475 34.6484C51.9655 34.3941 52.1735 34.0705 52.0146 33.8018C51.9574 33.6639 51.8491 33.5535 51.7122 33.4937C51.5754 33.4339 51.4208 33.4294 51.2807 33.4811C51.1924 33.5233 51.1152 33.5857 51.0555 33.6633C50.9957 33.7409 50.955 33.8314 50.9368 33.9276C50.9185 34.0238 50.9231 34.123 50.9502 34.217C50.9773 34.3111 51.0262 34.3975 51.0929 34.4692C51.2663 34.7206 51.6419 34.6339 51.8095 34.8939C52.0406 35.1829 51.7719 35.5672 51.9828 35.859C52.0187 35.9253 52.069 35.9829 52.1299 36.0274C52.1908 36.072 52.2609 36.1024 52.335 36.1165C52.4091 36.1306 52.4855 36.1281 52.5585 36.109C52.6315 36.0899 52.6994 36.0549 52.7572 36.0063C52.8821 35.8936 52.96 35.738 52.9756 35.5705C52.9911 35.403 52.943 35.2357 52.841 35.102Z" fill="#0C71BC"/>
<path d="M53.3642 34.7115C53.9941 34.5728 53.786 33.4286 53.136 33.5557C52.5292 33.7204 52.7315 34.8039 53.3642 34.7115Z" fill="#0C71BC"/>
<path d="M42.8594 34.9394C42.3537 35.1157 42.426 36.0951 43.0067 36.0778C43.5903 35.9507 43.4892 34.8441 42.8594 34.9394Z" fill="#0C71BC"/>
<path d="M49.9783 35.755C50.0086 35.8314 50.054 35.9009 50.1118 35.9594C50.1695 36.0179 50.2385 36.0641 50.3145 36.0954C50.3906 36.1267 50.4721 36.1423 50.5543 36.1414C50.6365 36.1405 50.7177 36.1231 50.793 36.0901C50.8744 36.053 50.947 35.9993 51.0063 35.9324C51.0657 35.8656 51.1104 35.787 51.1376 35.7019C51.1648 35.6167 51.1739 35.5268 51.1643 35.4379C51.1547 35.3491 51.1267 35.2632 51.082 35.1858C51.0417 35.1122 50.9867 35.0476 50.9205 34.9961C50.8543 34.9446 50.7781 34.9073 50.6969 34.8864C50.6156 34.8656 50.5309 34.8616 50.448 34.8748C50.3652 34.8881 50.2859 34.9182 50.2152 34.9633C50.0878 35.0454 49.994 35.1702 49.9505 35.3154C49.9071 35.4605 49.9169 35.6164 49.9783 35.755Z" fill="#0C71BC"/>
<path d="M53.9917 36.0781C54.6389 36.0781 54.5695 34.8184 53.9194 34.9455C53.4311 35.116 53.4687 35.9886 53.9917 36.0781Z" fill="#0C71BC"/>
<path d="M45.85 37.422C45.9286 37.3425 45.9851 37.2437 46.0136 37.1356C46.0421 37.0274 46.0418 36.9137 46.0125 36.8057C45.9832 36.6978 45.9261 36.5994 45.8469 36.5204C45.7677 36.4415 45.6691 36.3847 45.561 36.3558C45.3068 36.3183 45.0409 36.1651 45.0323 35.8791C45.0979 35.6411 45.0785 35.3877 44.9774 35.1626C44.9445 35.1025 44.9 35.0495 44.8465 35.0067C44.793 34.964 44.7316 34.9323 44.6657 34.9135C44.5999 34.8946 44.5309 34.8891 44.4629 34.8971C44.3949 34.9052 44.3291 34.9266 44.2695 34.9603C44.1894 35.0171 44.1226 35.0906 44.0737 35.1757C44.0248 35.2608 43.9949 35.3555 43.9861 35.4533C43.9773 35.5511 43.9899 35.6496 44.0228 35.742C44.0558 35.8345 44.1084 35.9187 44.177 35.9889C44.3562 36.142 44.648 36.1016 44.7925 36.3096C44.9918 36.5696 44.7665 36.9106 44.9109 37.1764C44.9411 37.2681 44.9938 37.3507 45.0641 37.4168C45.1344 37.4829 45.2202 37.5304 45.3136 37.5548C45.407 37.5792 45.505 37.5798 45.5987 37.5566C45.6924 37.5335 45.7787 37.4872 45.85 37.422Z" fill="#0C71BC"/>
<path d="M47.9473 37.379C48.012 37.2954 48.0547 37.197 48.0716 37.0927C48.0885 36.9884 48.0789 36.8815 48.0439 36.7818C48.0088 36.6821 47.9494 36.5928 47.8709 36.5219C47.7925 36.4511 47.6975 36.4011 47.5948 36.3764C47.3434 36.3388 47.0372 36.2262 47.0169 35.9343C47.0519 35.69 47.0519 35.4419 47.0169 35.1976C47.0142 35.1276 47.0255 35.0577 47.0502 34.9921C47.0749 34.9265 47.1124 34.8666 47.1606 34.8157C47.2088 34.7648 47.2666 34.7241 47.3308 34.6959C47.3949 34.6677 47.4641 34.6526 47.5341 34.6515C47.6822 34.6313 47.8186 34.5599 47.9194 34.4495C48.0203 34.3392 48.0792 34.197 48.086 34.0476C48.0887 33.9625 48.0742 33.8777 48.0432 33.7983C48.0122 33.719 47.9655 33.6467 47.9058 33.586C47.8461 33.5252 47.7747 33.4772 47.6959 33.4448C47.6171 33.4124 47.5326 33.3963 47.4474 33.3975C47.2821 33.4043 47.1259 33.4749 47.0116 33.5945C46.8974 33.7142 46.834 33.8735 46.8349 34.039C46.8349 34.2499 46.9071 34.5012 46.7482 34.6775C46.5893 34.8537 46.2281 34.822 46.0288 35.0155C45.9029 35.1265 45.8243 35.2816 45.8093 35.4487C45.7942 35.6159 45.8438 35.7824 45.9479 35.9141C46.1501 36.1597 46.5257 36.073 46.7222 36.336C46.9765 36.6249 46.6962 37.0092 46.9158 37.2981C46.9684 37.3843 47.0407 37.4568 47.1268 37.5096C47.2128 37.5624 47.3102 37.5941 47.4109 37.602C47.5116 37.6099 47.6127 37.5938 47.7059 37.555C47.7992 37.5163 47.8819 37.4559 47.9473 37.379Z" fill="#0C71BC"/>
<path d="M42.1484 36.2691C42.08 36.3399 42.0278 36.4247 41.9953 36.5177C41.9628 36.6106 41.9508 36.7095 41.9601 36.8075C41.9694 36.9055 41.9999 37.0003 42.0494 37.0854C42.0988 37.1706 42.1661 37.244 42.2467 37.3006C42.9141 37.3959 42.7668 36.0264 42.1484 36.2691Z" fill="#0C71BC"/>
<path d="M54.5375 36.2751C54.2486 36.4629 54.2804 36.853 54.3064 37.1419C54.3064 37.3644 54.0637 37.6793 53.8441 37.4771C53.5551 37.1679 53.9481 36.6103 53.5205 36.3502C53.0206 36.0613 52.5554 36.8039 52.8473 37.217C52.9397 37.4193 53.1709 37.4482 53.3616 37.4886C53.6245 37.5724 53.6129 37.8931 53.5494 38.1069C53.5302 38.1665 53.5243 38.2294 53.5322 38.2915C53.54 38.3535 53.5613 38.4131 53.5947 38.4659C53.628 38.5188 53.6725 38.5638 53.7251 38.5976C53.7777 38.6314 53.837 38.6533 53.899 38.6617C53.9807 38.6484 54.059 38.619 54.1293 38.5753C54.1997 38.5316 54.2607 38.4743 54.3087 38.4069C54.3568 38.3395 54.3911 38.2632 54.4095 38.1824C54.428 38.1017 54.4302 38.0181 54.4162 37.9365C54.386 37.8151 54.3982 37.6871 54.4508 37.5736C54.5033 37.4601 54.593 37.3679 54.7051 37.3124C55.0287 37.1766 55.0749 36.7345 54.9767 36.4456C54.916 36.2809 54.6935 36.1393 54.5375 36.2751Z" fill="#0C71BC"/>
<path d="M44.1616 38.5636C44.2028 38.6374 44.2601 38.7009 44.3292 38.7494C44.3983 38.7979 44.4775 38.8302 44.5608 38.8438C44.6442 38.8574 44.7295 38.852 44.8105 38.828C44.8915 38.804 44.966 38.762 45.0284 38.7052C45.0852 38.6206 45.1211 38.5238 45.133 38.4226C45.1449 38.3215 45.1326 38.2189 45.097 38.1235C45.0614 38.028 45.0036 37.9424 44.9284 37.8738C44.8532 37.8051 44.7627 37.7553 44.6644 37.7286C44.5756 37.7156 44.4909 37.6829 44.4164 37.6329C44.3419 37.5829 44.2795 37.5169 44.2339 37.4397C44.1183 37.1825 44.2917 36.8936 44.153 36.6422C44.1315 36.5673 44.0921 36.4987 44.0383 36.4423C43.9844 36.3859 43.9178 36.3434 43.8439 36.3184C43.7701 36.2934 43.6913 36.2867 43.6143 36.2988C43.5373 36.3109 43.4644 36.3415 43.4018 36.388C43.3318 36.4606 43.2794 36.5483 43.2485 36.6443C43.2177 36.7403 43.2092 36.8421 43.2237 36.9419C43.2382 37.0417 43.2753 37.1369 43.3322 37.2202C43.3891 37.3034 43.4643 37.3726 43.552 37.4223C43.7254 37.483 43.9305 37.5466 44.0056 37.7315C44.1183 37.9973 43.9796 38.3209 44.1616 38.5636Z" fill="#0C71BC"/>
<path d="M48.2474 38.9509C48.3493 38.9973 48.4618 39.0152 48.5731 39.0027C48.6843 38.9902 48.7901 38.9477 48.879 38.8798C48.968 38.8118 49.0369 38.721 49.0783 38.617C49.1197 38.513 49.1321 38.3997 49.1142 38.2892C49.0911 38.2195 49.0834 38.1457 49.0917 38.0727C49.1 37.9998 49.1242 37.9295 49.1624 37.8668C49.2006 37.8041 49.252 37.7505 49.313 37.7097C49.3741 37.6689 49.4433 37.6418 49.5158 37.6305C49.6878 37.6238 49.8508 37.5516 49.9712 37.4285C50.0915 37.3054 50.1602 37.1409 50.163 36.9688C50.1611 36.864 50.1329 36.7614 50.081 36.6704C50.0292 36.5793 49.9554 36.5026 49.8663 36.4475C49.7772 36.3923 49.6757 36.3603 49.5711 36.3545C49.4664 36.3487 49.362 36.3691 49.2673 36.4141C49.1091 36.4875 48.985 36.6188 48.9206 36.781C48.8195 37.041 49.0102 37.3386 48.8484 37.5842C48.6461 37.8732 48.1925 37.7518 47.9816 38.0465C47.9244 38.119 47.8855 38.2041 47.8679 38.2947C47.8504 38.3853 47.8548 38.4788 47.8809 38.5674C47.9069 38.6559 47.9538 38.7369 48.0175 38.8037C48.0813 38.8704 48.1601 38.9209 48.2474 38.9509Z" fill="#0C71BC"/>
<path d="M51.9144 37.3723C52.0197 37.2575 52.0808 37.109 52.0866 36.9534C52.0924 36.7978 52.0426 36.6451 51.9462 36.5228C51.8753 36.4376 51.7797 36.3765 51.6725 36.348C51.5654 36.3195 51.452 36.3251 51.3481 36.3639C51.2686 36.3945 51.1959 36.4407 51.1344 36.4997C51.0729 36.5588 51.0237 36.6295 50.9899 36.7077C50.8454 36.9764 51.0505 37.3029 50.8772 37.5745C50.7038 37.8461 50.3253 37.7566 50.1115 37.9646C50.0504 38.0141 50 38.0756 49.9635 38.1453C49.927 38.215 49.9051 38.2914 49.8991 38.3698C49.8932 38.4483 49.9033 38.5271 49.9289 38.6015C49.9545 38.6759 49.995 38.7443 50.0479 38.8025C50.1198 38.8704 50.2065 38.9207 50.3011 38.9494C50.3957 38.9781 50.4957 38.9844 50.5932 38.9679C50.6907 38.9513 50.783 38.9124 50.8628 38.8541C50.9427 38.7958 51.008 38.7198 51.0534 38.632C51.2095 38.372 51.0014 38.0542 51.1834 37.797C51.3655 37.5399 51.7209 37.6034 51.9144 37.3723Z" fill="#0C71BC"/>
<path d="M42.7671 37.6007C42.3019 37.8897 42.6371 38.7998 43.1832 38.6495C43.7148 38.4126 43.3248 37.3985 42.7671 37.6007Z" fill="#0C71BC"/>
<path d="M52.0699 38.8032C52.5409 39.0459 53.0899 38.4564 52.8789 37.9942C52.8492 37.9292 52.8055 37.8717 52.7509 37.8256C52.6964 37.7795 52.6323 37.746 52.5633 37.7275C52.4943 37.709 52.4221 37.706 52.3518 37.7186C52.2815 37.7312 52.2148 37.7592 52.1566 37.8006C51.8128 37.9884 51.6799 38.5836 52.0699 38.8032Z" fill="#0C71BC"/>
<path d="M46.1039 38.8351C46.1802 38.8985 46.271 38.942 46.3682 38.9617C46.4655 38.9814 46.5661 38.9768 46.661 38.9482C46.756 38.9196 46.8425 38.8679 46.9126 38.7977C46.9828 38.7276 47.0345 38.6412 47.0631 38.5462C47.0823 38.4284 47.0685 38.3075 47.0233 38.197C46.9781 38.0865 46.9032 37.9907 46.8069 37.9201C46.7106 37.8495 46.5967 37.807 46.4777 37.7971C46.3587 37.7873 46.2393 37.8105 46.1328 37.8643C46.05 37.9143 45.9812 37.9841 45.9324 38.0675C45.8837 38.151 45.8566 38.2453 45.8538 38.3419C45.8509 38.4384 45.8723 38.5342 45.916 38.6204C45.9597 38.7065 46.0243 38.7804 46.1039 38.8351Z" fill="#0C71BC"/>
<path d="M43.5816 38.9639C43.2927 39.1084 43.3071 39.5418 43.5007 39.7527C43.6943 39.9636 44.0959 40.1081 44.2924 39.8365C44.5582 39.4147 44.0497 38.7848 43.5816 38.9639Z" fill="#0C71BC"/>
<path d="M53.0524 38.9626C52.7115 39.0811 52.4572 39.5405 52.6913 39.8641C53.012 40.1934 53.5581 39.8641 53.6072 39.448C53.6272 39.3738 53.626 39.2956 53.6038 39.2221C53.5815 39.1485 53.5391 39.0828 53.4813 39.0322C53.4235 38.9816 53.3526 38.9483 53.2768 38.936C53.201 38.9237 53.1233 38.9329 53.0524 38.9626Z" fill="#0C71BC"/>
<path d="M47.1265 41.0858C47.2883 40.8894 47.0543 40.6351 47.1814 40.4242C47.3663 40.1642 47.7593 40.3 47.9644 40.0601C48.0136 40.0105 48.0516 39.9508 48.0759 39.8853C48.1002 39.8197 48.1103 39.7497 48.1053 39.68C48.1004 39.6102 48.0807 39.5423 48.0474 39.4808C48.0141 39.4193 47.9681 39.3657 47.9124 39.3234C47.8418 39.2606 47.758 39.2143 47.6673 39.188C47.5765 39.1617 47.481 39.1559 47.3877 39.1711C47.2945 39.1864 47.2058 39.2222 47.1281 39.276C47.0504 39.3298 46.9857 39.4003 46.9387 39.4823C46.7942 39.7221 47.0832 40.0601 46.8376 40.2508C46.773 40.3031 46.6945 40.3353 46.6118 40.3434C46.5291 40.3515 46.4458 40.3351 46.3723 40.2964C46.2988 40.2576 46.2383 40.1982 46.1983 40.1254C46.1582 40.0526 46.1404 39.9696 46.147 39.8868C46.1681 39.7733 46.1588 39.6563 46.1202 39.5476C46.0815 39.4388 46.0149 39.3422 45.9269 39.2675C45.839 39.1927 45.7329 39.1425 45.6194 39.1219C45.5058 39.1013 45.3888 39.111 45.2802 39.15C44.9913 39.2829 45.0231 39.6383 45.0982 39.8954C45.1733 40.1526 44.8873 40.2479 44.6966 40.2479C44.5968 40.2447 44.4995 40.2802 44.4252 40.3469C44.3509 40.4137 44.3053 40.5066 44.2979 40.6062C44.2661 41.0974 44.9971 41.4326 45.3178 41.0367C45.4883 40.8056 45.1762 40.5138 45.3698 40.3C45.627 40.0312 46.095 40.3548 46.0401 40.69C45.9361 41.2534 46.8174 41.5221 47.1265 41.0858Z" fill="#0C71BC"/>
<path d="M51.9607 40.1407C51.7555 39.9153 52.0445 39.6148 51.9058 39.3663C51.8512 39.2543 51.7559 39.1674 51.6394 39.1233C51.5228 39.0793 51.3938 39.0815 51.2788 39.1294C50.9379 39.2277 50.672 39.6611 50.8916 39.9962C51.0476 40.2418 51.3684 40.1349 51.5851 40.2851C51.8191 40.5076 51.4608 40.837 51.6775 41.071C52.0502 41.4813 52.8737 40.9815 52.6339 40.4585C52.5068 40.1667 52.16 40.3025 51.9607 40.1407Z" fill="#0C71BC"/>
<path d="M50.0742 39.707C50.1088 39.2823 49.5772 39.0454 49.2334 39.2159C49.1588 39.2404 49.0907 39.2813 49.0341 39.3356C48.9774 39.3899 48.9336 39.4562 48.9059 39.5296C48.8782 39.6031 48.8673 39.6818 48.874 39.7599C48.8806 39.8381 48.9047 39.9138 48.9444 39.9815C49.2247 40.4207 50.0482 40.2473 50.0742 39.707Z" fill="#0C71BC"/>
<path d="M49.112 41.32C48.9444 41.1698 49.0917 40.9531 49.0571 40.771C49.0231 40.6916 48.973 40.62 48.9101 40.5608C48.8471 40.5016 48.7726 40.4561 48.6912 40.4271C48.6098 40.398 48.5233 40.3861 48.4371 40.3921C48.3509 40.3981 48.2669 40.4219 48.1903 40.4619C48.1305 40.4841 48.0767 40.5198 48.0331 40.5662C47.9894 40.6126 47.9571 40.6685 47.9386 40.7295C47.9202 40.7905 47.9161 40.8549 47.9266 40.9178C47.9372 40.9806 47.9622 41.0402 47.9996 41.0918C48.1903 41.3634 48.5774 41.2391 48.8086 41.4471C48.9675 41.6176 48.7132 41.8892 48.9386 42.025C49.2275 42.2475 49.895 42.1897 49.9267 41.7361C49.8285 41.3749 49.3691 41.4876 49.112 41.32Z" fill="#0C71BC"/>
<path d="M50.1142 40.4444C50.0501 40.4648 49.9913 40.4991 49.942 40.5448C49.8927 40.5905 49.8541 40.6466 49.8289 40.709C49.8038 40.7714 49.7928 40.8386 49.7967 40.9057C49.8005 40.9728 49.8192 41.0383 49.8513 41.0974C49.9278 41.1752 50.0229 41.2322 50.1276 41.2629C50.2323 41.2937 50.3431 41.2973 50.4496 41.2733C50.5561 41.2492 50.6546 41.1985 50.736 41.1257C50.8173 41.053 50.8788 40.9607 50.9145 40.8576C50.9752 40.4387 50.4262 40.2624 50.1142 40.4444Z" fill="#0C71BC"/>
<path d="M47.2798 41.4931C47.2189 41.5042 47.1633 41.5346 47.121 41.5798C47.0787 41.625 47.052 41.6826 47.0449 41.744C47.0378 41.8055 47.0506 41.8677 47.0814 41.9213C47.1123 41.975 47.1595 42.0173 47.2162 42.042C47.5052 42.2125 48.057 42.2183 48.1466 41.8311C48.1033 41.4469 47.5774 41.3486 47.2798 41.4931Z" fill="#0C71BC"/>
<path d="M37.7825 42.3396C37.6262 41.8395 37.315 41.402 36.8938 41.0904C36.4726 40.7788 35.9632 40.6092 35.4392 40.606C35.2799 40.6065 35.121 40.624 34.9654 40.658C34.4844 40.7546 34.0435 40.9936 33.7 41.3439C33.3565 41.6941 33.1262 42.1395 33.039 42.6223C32.9518 43.1051 33.0117 43.603 33.2109 44.0513C33.4102 44.4996 33.7396 44.8777 34.1564 45.1365C34.5445 45.3844 34.996 45.5148 35.4566 45.5121C35.7014 45.511 35.9448 45.474 36.1789 45.4023C36.4108 45.332 36.6301 45.2258 36.829 45.0874C37.2609 44.7916 37.5866 44.3651 37.7582 43.8705C37.9298 43.3759 37.9383 42.8394 37.7825 42.3396ZM63.2806 41.3659C63.05 41.1279 62.7738 40.9387 62.4685 40.8097C62.1633 40.6806 61.8352 40.6143 61.5037 40.6147C61.3407 40.6145 61.178 40.631 61.0183 40.6638C60.4032 40.7938 59.8613 41.1547 59.5043 41.6722C59.3219 41.9393 59.1941 42.2399 59.1284 42.5567C59.0626 42.8734 59.0601 43.2 59.1211 43.5177C59.182 43.8354 59.3052 44.1379 59.4836 44.4078C59.6619 44.6776 59.8919 44.9096 60.1602 45.0902C60.5522 45.364 61.0199 45.5085 61.4979 45.5034C61.9133 45.5054 62.3228 45.4063 62.6912 45.2145C63.0449 45.029 63.3437 44.754 63.558 44.417C63.8625 43.9524 64.0011 43.3985 63.9513 42.8452C63.9014 42.2918 63.6661 41.7716 63.2835 41.3688L63.2806 41.3659ZM37.6698 26.9194C37.4716 26.4943 37.1561 26.1346 36.7604 25.8828C36.3647 25.6309 35.9054 25.4974 35.4363 25.4978C35.2079 25.4977 34.9808 25.5328 34.7631 25.6018C34.2037 25.7705 33.7233 26.1342 33.4092 26.627C33.0951 27.1197 32.9682 27.7087 33.0514 28.2871C33.1346 28.8654 33.4225 29.3948 33.8628 29.7789C34.303 30.1631 34.8665 30.3766 35.4508 30.3807C35.7228 30.381 35.9931 30.337 36.2511 30.2507C36.4994 30.1675 36.7312 30.0413 36.9359 29.878C37.3762 29.5403 37.6886 29.063 37.822 28.5243C37.9553 27.9857 37.9017 27.4177 37.6698 26.9136V26.9194ZM50.8768 50.0599C50.7595 49.5085 50.457 49.0138 50.0198 48.658C49.5825 48.3022 49.0367 48.1066 48.4729 48.1038C48.2666 48.1038 48.0614 48.1329 47.8633 48.1905C47.5563 48.2703 47.2682 48.4099 47.0153 48.6012C46.7625 48.7926 46.5499 49.032 46.3897 49.3058C46.0603 49.8401 45.9564 50.4833 46.1008 51.0942C46.2272 51.6352 46.5318 52.118 46.9657 52.4649C47.3996 52.8118 47.9376 53.0027 48.4931 53.007C48.6883 53.0079 48.8826 52.9826 49.071 52.9318C49.3806 52.8576 49.6725 52.7229 49.9298 52.5355C50.1872 52.348 50.4049 52.1116 50.5706 51.8397C50.7368 51.577 50.8495 51.2839 50.902 50.9775C50.9546 50.671 50.946 50.3572 50.8768 50.0541V50.0599ZM63.4742 26.4744C63.244 26.1691 62.9458 25.9216 62.6032 25.7516C62.2607 25.5816 61.8832 25.4937 61.5008 25.4949C61.1903 25.4926 60.8826 25.5535 60.5965 25.6741C60.0686 25.8911 59.633 26.2854 59.3645 26.789C59.0961 27.2927 59.0117 27.8742 59.1258 28.4334C59.2329 28.9588 59.5109 29.434 59.9165 29.7847C60.3222 30.1355 60.8325 30.342 61.3679 30.3721H61.5384C61.9903 30.3689 62.4325 30.2403 62.8157 30.0007C63.1989 29.761 63.508 29.4197 63.7087 29.0148C63.9094 28.6098 63.9937 28.1571 63.9523 27.7071C63.9109 27.257 63.7454 26.8273 63.4742 26.4657V26.4744ZM50.7381 19.4967C50.5458 19.053 50.2283 18.6751 49.8244 18.4093C49.4205 18.1434 48.9478 18.0012 48.4642 18C48.1991 17.9985 47.9359 18.0444 47.687 18.1358C47.3707 18.2426 47.0802 18.4141 46.8339 18.6395C46.5877 18.8649 46.3911 19.1391 46.2568 19.4447C46.118 19.7395 46.0419 20.06 46.0334 20.3858C46.025 20.7116 46.0843 21.0356 46.2077 21.3372C46.3909 21.7994 46.7098 22.1953 47.1224 22.4728C47.535 22.7503 48.022 22.8963 48.5191 22.8916C48.8678 22.8943 49.2122 22.8152 49.5246 22.6605C50.1041 22.3896 50.5529 21.9003 50.7728 21.2996C50.999 20.7175 50.9866 20.0697 50.7381 19.4967Z" fill="white"/>
<path d="M38.0738 26.7256C38.131 26.8432 38.1793 26.9649 38.2182 27.0897C39.0561 26.6043 40.1483 25.9629 40.8793 25.5381C42.5089 24.5962 44.6354 23.3827 46.3517 22.3975C46.108 22.139 45.9185 21.8345 45.794 21.5018C45.7738 21.4526 45.7536 21.4006 45.7362 21.3486C43.4479 22.6604 40.7406 24.2148 38.5505 25.4861L37.623 26.0322C37.8077 26.239 37.9597 26.4729 38.0738 26.7256Z" fill="white"/>
<path d="M51.1826 21.4669C51.0531 21.8013 50.8642 22.1097 50.625 22.377C50.8099 22.4983 51.0093 22.6197 51.0931 22.6659C52.139 23.2611 53.1994 23.8765 54.2222 24.4717C55.5513 25.2432 57.3166 26.2805 58.7469 27.0923C58.8672 26.7067 59.0637 26.3491 59.3247 26.0406C56.6463 24.4977 53.4739 22.6284 51.2346 21.3311C51.2202 21.3628 51.2029 21.412 51.1826 21.4669Z" fill="white"/>
<path d="M62.128 38.8035C62.128 37.9367 62.128 37.0699 62.128 36.2032V36.0356C62.128 34.0824 62.128 31.9067 62.128 30.8637V30.7539C61.9382 30.7964 61.7445 30.8187 61.5501 30.8204H61.3565C61.2108 30.8141 61.0658 30.7957 60.9231 30.7655V30.8695C60.9231 31.5225 60.9231 32.5771 60.9231 33.7588C60.9231 34.7469 60.9231 35.816 60.9231 36.7983C60.9162 36.9254 60.9162 37.0527 60.9231 37.1797C60.9231 37.2838 60.9231 37.382 60.9231 37.4687V37.486C60.9231 37.59 60.9231 37.6969 60.9231 37.8096C60.9231 37.9223 60.9231 38.0841 60.9231 38.2228V38.4019V38.6909C60.9231 38.8353 60.9231 38.9798 60.9231 39.1242V39.8148C60.9231 39.8668 60.9231 40.0575 60.9231 40.254H60.9434C61.1334 40.2139 61.327 40.1936 61.5212 40.1933C61.7301 40.1932 61.9383 40.2155 62.1424 40.2597C62.1424 39.8148 62.1424 39.2543 62.1424 38.9856L62.128 38.8035Z" fill="white"/>
<path d="M58.7593 43.9111L56.2456 45.3558C54.512 46.3555 52.4143 47.5806 50.6172 48.5976C50.9006 48.8993 51.1129 49.2606 51.2384 49.6551C52.7351 48.7883 54.538 47.7424 55.9769 46.9131L59.3487 44.9686C59.0797 44.6617 58.8789 44.3013 58.7593 43.9111Z" fill="white"/>
<path d="M35.4389 40.1761C35.647 40.1772 35.8544 40.2015 36.0572 40.2483C36.0572 39.7022 36.0572 39.1764 36.0572 38.9972C36.0572 38.4194 36.0716 37.8415 36.0312 37.2492C36.063 36.4402 36.0601 35.6196 36.0543 34.8251C36.0543 34.2703 36.0543 33.6953 36.0543 33.1319C36.0543 32.7997 36.0543 32.4645 36.0543 32.1322C36.0543 31.8 36.0543 31.2019 36.0543 30.7627C35.8548 30.8047 35.6514 30.826 35.4475 30.8263C35.2427 30.8262 35.0384 30.8049 34.8379 30.7627C34.8379 31.4504 34.8379 32.4443 34.8379 33.1319C34.8379 33.3429 34.8379 33.5567 34.8379 33.7676C34.8379 34.2588 34.8379 34.7673 34.8379 35.2671C34.8379 35.6456 34.8379 36.0328 34.8379 36.4229V36.9343C34.8379 37.5121 34.8379 38.1189 34.8379 38.7112C34.8379 38.9077 34.8379 39.107 34.8379 39.2891C34.8379 39.3989 34.8379 39.7976 34.8379 40.2368H34.8928C35.0722 40.1978 35.2552 40.1775 35.4389 40.1761Z" fill="white"/>
<path d="M46.0021 49.0686C46.1008 48.905 46.215 48.7511 46.343 48.6092C43.9478 47.2397 41.2116 45.6477 38.8886 44.2926L38.2009 43.917C38.0846 44.3096 37.8878 44.6737 37.623 44.986C38.7788 45.6535 40.3188 46.526 41.2376 47.0577L45.742 49.6581C45.807 49.4527 45.8942 49.2551 46.0021 49.0686Z" fill="white"/>
<path d="M42.8558 31.5448C42.6215 31.8764 42.4175 32.2283 42.2462 32.5965L38.961 30.7126C38.5392 30.4671 38.0943 30.2157 37.6753 29.973L37.5713 29.9152C37.8461 29.6163 38.0548 29.2629 38.1838 28.8779L38.2705 28.9242C38.7761 29.1958 39.2789 29.502 39.7643 29.7736L42.8558 31.5448Z" fill="white"/>
<path d="M42.9049 39.5232C41.3389 40.39 38.9552 41.6959 38.2993 42.0918L38.2011 42.1554C38.0719 41.7585 37.8545 41.396 37.5654 41.095L37.6839 41.0285C38.4322 40.6096 39.1863 40.1617 39.9173 39.7457L42.2837 38.457C42.4578 38.8306 42.6657 39.1875 42.9049 39.5232Z" fill="white"/>
<path d="M49.0914 24.9926V28.6476C48.8988 28.6283 48.6956 28.6187 48.4818 28.6187C48.2679 28.6187 48.0657 28.6283 47.875 28.6476C47.875 27.1163 47.875 25.14 47.875 24.8424C47.875 24.357 47.875 23.8745 47.875 23.3977V23.2764C48.0845 23.3241 48.2987 23.3483 48.5135 23.3486C48.7078 23.3487 48.9015 23.3284 49.0914 23.2879V23.3977C49.0914 23.9265 49.0914 24.4581 49.0914 24.9926Z" fill="white"/>
<path d="M49.0914 47.6187V47.7227C48.8886 47.6764 48.6812 47.6531 48.4731 47.6533C48.2729 47.6533 48.0732 47.6756 47.8779 47.7198V47.6071C47.8779 47.1997 47.8779 46.7865 47.8779 46.3878C47.8779 46.0324 47.8779 43.9666 47.8779 42.3428C48.0706 42.362 48.2728 42.3717 48.4847 42.3717C48.6966 42.3717 48.8998 42.362 49.0943 42.3428C49.0943 43.9579 49.0943 46.0238 49.0943 46.3878C49.0943 46.7894 49.0943 47.2084 49.0914 47.6187Z" fill="white"/>
<path d="M59.4002 29.9013L59.2962 29.9591C58.8599 30.2047 58.4294 30.4589 57.996 30.7045C57.7793 30.8287 56.1786 31.788 54.7397 32.6432C54.5726 32.2768 54.3735 31.9258 54.1445 31.5944C55.9446 30.5283 58.1636 29.205 58.6779 28.9016L58.7732 28.8467C58.9035 29.2394 59.1175 29.5992 59.4002 29.9013Z" fill="white"/>
<path d="M59.4006 41.0913C59.3049 41.1934 59.2171 41.3026 59.1377 41.4178C58.9776 41.641 58.8528 41.8876 58.7678 42.1488L58.6725 42.091C58.1524 41.7819 55.8496 40.4557 54.1045 39.456C54.3397 39.1234 54.5447 38.7705 54.717 38.4014L56.962 39.69L57.5399 40.0223C58.1177 40.3574 58.7101 40.7041 59.2995 41.0335L59.4006 41.0913Z" fill="white"/>
</g>
<defs>
<filter id="filter0_d_1663_133" x="-12" y="-8" width="120" height="120" filterUnits="userSpaceOnUse" color-interpolation-filters="sRGB">
<feFlood flood-opacity="0" result="BackgroundImageFix"/>
<feColorMatrix in="SourceAlpha" type="matrix" values="0 0 0 0 0 0 0 0 0 0 0 0 0 0 0 0 0 0 127 0" result="hardAlpha"/>
<feOffset dy="16"/>
<feGaussianBlur stdDeviation="12"/>
<feColorMatrix type="matrix" values="0 0 0 0 0.109804 0 0 0 0 0.145098 0 0 0 0 0.207843 0 0 0 0.24 0"/>
<feBlend mode="normal" in2="BackgroundImageFix" result="effect1_dropShadow_1663_133"/>
<feBlend mode="normal" in="SourceGraphic" in2="effect1_dropShadow_1663_133" result="shape"/>
</filter>
<clipPath id="clip0_1663_133">
<rect width="96" height="100" fill="white"/>
</clipPath>
</defs>
</svg>
