<svg width="663" height="640" viewBox="0 0 663 640" fill="none" xmlns="http://www.w3.org/2000/svg">
<g opacity="0.24">
<path opacity="0.54" d="M-246.885 504.965C-265.199 480.822 -253.987 443.524 -230.375 424.553C-206.763 405.569 -174.959 400.746 -144.706 399.026C-114.454 397.292 -83.3489 397.824 -54.9978 387.157C3.67559 365.069 34.8366 302.3 58.7981 244.367C82.7595 186.435 109.447 122.924 165.324 94.4753C209.137 72.1774 261.268 76.8047 309.471 67.1587C393.615 50.3269 466.464 -14.3997 493.054 -96" stroke="url(#paint0_linear)" stroke-miterlimit="10"/>
<path opacity="0.54" d="M-243.544 512.43C-261.858 488.329 -250.898 451.115 -227.537 431.934C-225.454 430.215 -223.287 428.621 -221.079 427.111C-198.515 411.845 -169.843 407.386 -142.4 405.512C-137.102 405.149 -131.775 404.855 -126.449 404.562C-101.439 403.192 -76.2615 401.766 -52.9711 392.861C-45.422 389.981 -38.3203 386.416 -31.6379 382.278C13.4611 354.388 39.5754 300.286 60.0279 249.735C61.5098 246.058 63.0056 242.368 64.5154 238.663C86.8692 183.82 112.956 126.978 163.591 98.7667C178.074 90.7004 193.465 85.1643 209.892 81.7253C229.282 77.6572 249.678 76.5248 269.684 75.1967C283.342 74.288 296.888 73.2675 310.211 71.1566C316.474 70.164 322.695 68.9058 328.86 67.368C368.116 57.5961 404.841 36.4306 434.282 8.00964C463.794 -20.4813 486.147 -56.1159 498.505 -95.2314" stroke="url(#paint1_linear)" stroke-miterlimit="10"/>
<path opacity="0.54" d="M-240.203 519.895C-258.53 495.822 -247.822 458.706 -224.713 439.316C-222.644 437.582 -220.505 435.96 -218.31 434.437C-195.957 418.975 -167.438 414.194 -140.079 411.999C-134.795 411.579 -129.496 411.23 -124.184 410.88C-99.2581 409.245 -74.1363 407.595 -50.9298 398.578C-43.4086 395.656 -36.3208 392.078 -29.6525 387.912C15.3486 359.84 41.2532 305.752 61.2864 255.117C62.7403 251.44 64.2082 247.736 65.676 244.031C87.5125 189.118 112.956 132.78 161.913 103.086C176.215 94.405 191.369 87.7925 208.131 83.8922C227.94 79.2788 249.091 78.468 269.558 77.755C283.524 77.2657 297.336 76.7904 310.966 75.1687C317.383 74.3999 323.744 73.3653 330.091 72.0093C370.478 63.3977 408.783 41.7989 438.952 12.3853C469.19 -17.0842 491.586 -54.1168 503.944 -94.4766" stroke="url(#paint2_linear)" stroke-miterlimit="10"/>
<path opacity="0.54" d="M-236.875 527.361C-255.203 503.329 -244.76 466.297 -221.889 446.711C-219.848 444.963 -217.737 443.314 -215.556 441.776C-193.398 426.105 -165.047 421.002 -137.772 418.5C-132.516 418.024 -127.218 417.605 -121.933 417.199C-97.091 415.298 -72.0392 413.425 -48.9026 404.296C-41.4094 401.346 -34.3496 397.739 -27.6952 393.56C17.1941 365.32 42.903 311.246 62.5167 260.513C63.9427 256.823 65.3686 253.118 66.8085 249.413C88.1278 194.417 112.942 138.539 160.194 107.406C174.327 98.0957 189.23 90.4347 206.341 86.073C226.57 80.9005 248.476 80.4252 269.404 80.3413C283.692 80.2714 297.755 80.3553 311.693 79.2089C318.25 78.6777 324.778 77.8529 331.293 76.6786C372.813 69.2273 412.698 47.2091 443.593 16.803C474.558 -13.6591 496.996 -52.0757 509.368 -93.6797" stroke="url(#paint3_linear)" stroke-miterlimit="10"/>
<path opacity="0.54" d="M-233.534 534.84C-251.861 510.836 -241.67 473.902 -219.065 454.106C-217.038 452.331 -214.955 450.681 -212.802 449.115C-190.853 433.234 -162.656 427.824 -135.465 425.014C-130.223 424.469 -124.952 424.008 -119.668 423.546C-94.9097 421.379 -69.9137 419.268 -46.847 410.042C-39.3818 407.05 -32.3359 403.429 -25.7095 399.221C19.0819 370.814 44.5671 316.74 63.7894 265.924C65.1874 262.233 66.5854 258.514 67.9834 254.796C88.7854 199.729 112.957 144.215 158.517 111.74C172.469 101.786 187.147 93.077 204.594 88.2679C225.257 82.5362 247.904 82.3964 269.293 82.9276C283.888 83.2911 298.217 83.9062 312.477 83.2491C319.173 82.9416 325.869 82.3265 332.566 81.3479C375.218 75.0709 416.682 52.6053 448.305 21.2206C479.997 -10.2201 502.477 -50.0346 514.863 -92.8828" stroke="url(#paint4_linear)" stroke-miterlimit="10"/>
<path opacity="0.54" d="M-230.193 542.305C-248.534 518.344 -238.595 481.479 -216.241 461.488C-214.242 459.698 -212.173 458.021 -210.034 456.441C-188.295 440.35 -160.252 434.632 -133.145 431.501C-127.916 430.9 -122.66 430.382 -117.403 429.865C-92.7289 427.433 -67.7889 425.098 -44.806 415.759C-37.3687 412.74 -30.3509 409.091 -23.7244 404.855C20.9691 376.266 46.2446 322.22 65.0475 271.306C66.4175 267.601 67.7736 263.897 69.1436 260.164C89.4284 205.027 112.942 149.807 156.825 116.046C170.623 105.435 185.036 95.7051 202.819 90.4207C223.9 84.1438 247.303 84.3256 269.167 85.4719C284.084 86.2548 298.679 87.4151 313.232 87.2473C320.082 87.1635 326.918 86.772 333.796 85.9752C377.581 80.8586 420.625 57.9736 452.974 25.5963C485.379 -6.83696 507.915 -48.0355 520.315 -92.1279" stroke="url(#paint5_linear)" stroke-miterlimit="10"/>
<path opacity="0.54" d="M-226.852 549.77C-245.193 525.837 -235.519 489.07 -213.403 468.869C-211.432 467.065 -209.377 465.36 -207.266 463.766C-185.723 447.48 -157.847 441.426 -130.838 438.001C-125.624 437.344 -120.395 436.757 -115.153 436.184C-90.5625 433.5 -65.6924 430.928 -42.7794 421.477C-35.3701 418.416 -28.3662 414.739 -21.7677 410.489C22.828 381.733 47.8938 327.687 66.2773 276.688C67.6194 272.983 68.9475 269.265 70.2755 265.532C90.043 210.326 112.9 155.329 155.105 120.366C168.736 109.084 182.897 98.3334 201.029 92.6016C222.53 85.7655 246.687 86.2828 269.013 88.0582C284.237 89.2605 299.097 90.966 313.958 91.2875C320.948 91.4413 327.952 91.2596 335.012 90.6444C379.929 86.6882 424.553 63.3698 457.629 30.0139C490.761 -3.39789 513.338 -45.9945 525.753 -91.3311" stroke="url(#paint6_linear)" stroke-miterlimit="10"/>
<path opacity="0.54" d="M-223.525 557.236C-241.88 533.345 -232.444 496.661 -210.593 476.265C-208.636 474.447 -206.609 472.728 -204.512 471.106C-183.179 454.61 -155.457 448.249 -128.532 444.503C-123.345 443.79 -118.117 443.147 -112.902 442.518C-88.3818 439.568 -63.5816 436.758 -40.7525 427.21C-33.3711 424.12 -26.3812 420.415 -19.8107 416.138C24.6871 387.213 49.5433 333.181 67.5074 282.085C68.8075 278.366 70.1076 274.648 71.4078 270.915C90.658 215.639 112.816 160.796 153.385 124.686C166.848 112.705 180.758 100.976 199.239 94.7691C221.16 87.3738 246.072 88.2266 268.859 90.6171C284.405 92.2388 299.517 94.4896 314.699 95.3004C321.843 95.6778 328.986 95.7198 336.228 95.2864C382.277 92.5044 428.481 68.7527 462.284 34.4042C496.143 -0.000150709 518.762 -43.9807 531.177 -90.5615" stroke="url(#paint7_linear)" stroke-miterlimit="10"/>
<path opacity="0.54" d="M-220.184 564.715C-238.539 540.866 -229.369 504.267 -207.756 483.66C-205.827 481.815 -203.813 480.081 -201.744 478.446C-180.607 461.74 -153.067 455.058 -126.211 451.003C-121.039 450.22 -115.838 449.522 -110.638 448.837C-86.2011 445.621 -61.4568 442.588 -38.7116 432.927C-31.3442 429.81 -24.3962 426.077 -17.8257 421.786C26.5602 392.679 51.2207 338.661 68.7654 287.481C70.0375 283.763 71.3097 280.03 72.5679 276.283C91.2869 220.937 112.746 166.206 151.694 129.006C164.989 116.312 178.661 103.604 197.464 96.95C219.803 89.0095 245.47 90.1838 268.719 93.1895C284.572 95.2305 299.95 98.0405 315.44 99.3406C322.723 99.9417 330.034 100.207 337.444 99.9557C384.626 98.334 432.395 74.1489 466.939 38.8219C501.525 3.43893 524.186 -41.9536 536.614 -89.7646" stroke="url(#paint8_linear)" stroke-miterlimit="10"/>
<path opacity="0.54" d="M-216.842 572.18C-235.211 548.358 -226.278 511.857 -204.931 491.041C-203.016 489.182 -201.031 487.42 -198.99 485.771C-178.062 468.869 -150.675 461.865 -123.904 457.503C-118.745 456.664 -113.559 455.91 -108.372 455.169C-84.0195 451.688 -59.345 448.43 -36.6697 438.658C-29.3303 435.499 -22.3963 431.752 -15.8538 427.433C28.4343 398.159 52.8851 344.155 70.0243 292.877C71.2686 289.158 72.4988 285.412 73.729 281.665C91.9308 226.249 112.649 171.56 150.003 133.339C163.116 119.918 176.551 106.246 195.703 99.1302C218.462 90.6305 244.884 92.1263 268.608 95.7611C284.783 98.2355 300.412 101.577 316.223 103.366C323.647 104.205 331.126 104.68 338.717 104.61C387.031 104.163 436.38 79.5445 471.651 43.2249C506.964 6.86332 529.681 -39.9272 542.109 -88.9824" stroke="url(#paint9_linear)" stroke-miterlimit="10"/>
<path opacity="0.54" d="M-213.501 579.645C-231.87 555.866 -223.203 519.434 -202.107 498.437C-200.22 496.563 -198.263 494.788 -196.222 493.11C-175.489 475.999 -148.271 468.674 -121.583 464.004C-116.453 463.11 -111.28 462.299 -106.108 461.502C-81.8386 457.769 -57.2201 454.26 -34.6287 444.391C-27.3172 441.203 -20.4112 437.429 -13.8826 433.081C30.3077 403.639 54.5487 349.649 71.2686 298.273C72.4848 294.541 73.6871 290.794 74.8754 287.048C92.5599 231.562 112.509 176.858 148.298 137.659C161.229 123.497 174.426 108.888 193.928 101.311C217.106 92.2525 244.283 94.0839 268.468 98.3477C284.964 101.242 300.845 105.128 316.964 107.407C324.541 108.469 332.16 109.168 339.933 109.28C389.38 109.993 440.308 84.941 476.306 47.6289C512.346 10.2747 535.106 -37.8998 547.548 -88.1992" stroke="url(#paint10_linear)" stroke-miterlimit="10"/>
<path opacity="0.54" d="M-210.174 587.111C-228.557 563.359 -220.141 527.025 -199.283 505.818C-197.424 503.917 -195.481 502.127 -193.468 500.436C-172.945 483.115 -145.881 475.482 -119.291 470.505C-114.174 469.554 -109.016 468.674 -103.871 467.821C-79.686 463.823 -55.1234 460.09 -32.6019 450.108C-25.3184 446.879 -18.4263 443.09 -11.9117 438.715C32.1807 409.091 56.198 355.115 72.5125 303.656C73.7007 299.923 74.8611 296.162 76.0214 292.402C93.1886 236.846 112.327 182.101 146.592 141.965C159.327 127.048 172.301 111.503 192.138 103.464C215.736 93.8601 243.668 96.013 268.314 100.892C285.118 104.205 301.264 108.637 317.691 111.405C325.408 112.705 333.194 113.614 341.149 113.907C391.728 115.781 444.236 90.2953 480.961 52.0045C517.728 13.6718 540.529 -35.9007 552.985 -87.4443" stroke="url(#paint11_linear)" stroke-miterlimit="10"/>
<path opacity="0.54" d="M-206.833 594.59C-225.216 570.88 -217.052 534.63 -196.46 513.213C-194.614 511.298 -192.699 509.48 -190.7 507.761C-170.387 490.23 -143.476 482.276 -116.97 476.991C-111.868 475.971 -106.737 475.048 -101.607 474.139C-77.5053 469.875 -53.0126 465.919 -30.561 455.826C-23.3055 452.568 -16.4274 448.738 -9.94077 444.348C34.0538 414.557 57.8614 360.595 73.7565 309.037C74.9168 305.291 76.0492 301.53 77.1676 297.77C93.8176 242.13 112.103 187.301 144.886 146.27C157.426 130.585 170.189 114.131 190.362 105.631C214.38 95.4675 243.066 97.9559 268.188 103.45C285.313 107.183 301.726 112.173 318.46 115.417C326.33 116.941 334.271 118.073 342.393 118.548C394.104 121.596 448.192 95.6772 485.644 56.3939C523.138 17.0686 545.981 -33.8879 558.437 -86.6758" stroke="url(#paint12_linear)" stroke-miterlimit="10"/>
<path opacity="0.54" d="M-203.492 602.055C-221.889 578.373 -213.976 542.221 -193.622 520.594C-191.804 518.665 -189.903 516.834 -187.932 515.086C-167.815 497.36 -141.072 489.084 -114.65 483.492C-109.561 482.415 -104.458 481.423 -99.3418 480.472C-75.3245 475.943 -50.8877 471.749 -28.52 461.557C-21.2924 458.272 -14.4423 454.414 -7.96962 449.996C35.9131 420.037 59.525 366.075 75.0007 314.434C76.1191 310.687 77.2235 306.913 78.3139 303.152C94.4467 247.442 111.852 192.502 143.194 150.604C155.511 134.136 168.078 116.773 188.601 107.812C213.038 97.0892 242.479 99.9131 268.062 106.036C285.495 110.202 302.173 115.724 319.214 119.457C327.225 121.204 335.319 122.546 343.623 123.218C396.467 127.425 452.135 101.073 490.314 60.8115C528.535 20.5076 551.42 -31.8468 563.89 -85.8789" stroke="url(#paint13_linear)" stroke-miterlimit="10"/>
<path opacity="0.54" d="M-200.164 609.52C-218.562 585.88 -210.915 549.812 -190.812 527.99C-189.023 526.047 -187.135 524.187 -185.192 522.426C-165.285 504.49 -138.695 495.892 -112.357 489.993C-107.296 488.86 -102.194 487.812 -97.0912 486.791C-73.1437 482.01 -48.7769 477.579 -26.493 467.276C-19.2934 463.948 -12.4572 460.076 -5.99856 455.644C37.7863 425.518 61.1885 371.57 76.2588 319.83C77.3492 316.07 78.4257 312.295 79.4741 308.535C95.0896 252.755 111.586 197.66 141.503 154.924C153.595 137.659 165.967 119.415 186.825 109.993C211.681 98.7251 241.864 101.871 267.922 108.609C285.677 113.194 302.606 119.262 319.969 123.483C328.119 125.469 336.382 127.02 344.867 127.873C398.843 133.241 456.091 106.47 494.997 65.2155C533.945 23.919 556.871 -29.8194 569.355 -85.0957" stroke="url(#paint14_linear)" stroke-miterlimit="10"/>
<path opacity="0.54" d="M-196.824 616.986C-215.235 593.374 -207.826 557.403 -187.988 535.371C-186.213 533.4 -184.354 531.527 -182.424 529.751C-162.713 511.606 -136.291 502.7 -110.051 496.479C-105.004 495.291 -99.9293 494.187 -94.8407 493.11C-70.9771 488.064 -46.6801 483.408 -24.4662 472.993C-17.2945 469.638 -10.4863 465.738 -4.04164 461.278C39.6453 430.97 62.8379 377.036 77.4888 325.212C78.5512 321.452 79.5857 317.677 80.6062 313.889C95.7045 258.039 111.236 202.763 139.783 159.23C151.624 141.168 163.828 122.03 185.036 112.146C210.311 100.319 241.249 103.8 267.768 111.153C285.83 116.158 303.025 122.77 320.696 127.482C329 129.69 337.402 131.466 346.069 132.5C401.178 139.043 460.005 111.824 499.638 69.5911C539.313 27.3161 562.281 -27.8203 574.779 -84.3408" stroke="url(#paint15_linear)" stroke-miterlimit="10"/>
<path opacity="0.54" d="M-193.482 624.465C-211.893 600.895 -204.749 564.995 -185.15 542.767C-183.402 540.782 -181.571 538.894 -179.656 537.091C-160.154 518.736 -133.886 509.523 -107.729 502.994C-102.697 501.736 -97.6359 500.576 -92.5752 499.443C-68.7955 494.131 -44.5545 489.238 -22.4244 478.725C-15.2807 475.328 -8.48654 471.414 -2.06979 466.926C41.5193 436.45 64.5022 382.53 78.7337 330.609C79.7682 326.834 80.7747 323.06 81.7533 319.271C96.3343 263.352 110.887 207.894 138.078 163.55C149.653 144.677 161.718 124.672 183.261 114.327C208.956 101.941 240.648 105.757 267.643 113.726C286.027 119.15 303.474 126.322 321.452 131.508C329.895 133.955 338.465 135.94 347.3 137.156C403.541 144.859 463.948 117.221 504.308 73.9951C544.71 30.7275 567.72 -25.7929 580.232 -83.5576" stroke="url(#paint16_linear)" stroke-miterlimit="10"/>
<path opacity="0.54" d="M-190.141 631.93C-208.552 608.388 -201.674 572.586 -182.326 550.162C-180.593 548.163 -178.789 546.248 -176.888 544.43C-157.596 525.879 -131.481 516.331 -105.409 509.495C-100.39 508.181 -95.3575 506.964 -90.3108 505.776C-66.6149 500.198 -42.4298 495.081 -20.3836 484.457C-13.2679 481.032 -6.48767 477.089 -0.0849053 472.574C43.4064 441.93 66.1795 388.024 79.9916 336.005C80.9981 332.23 81.9627 328.442 82.9134 324.653C96.9771 268.664 110.496 213.01 136.386 167.883C147.682 148.186 159.607 127.314 181.485 116.522C207.6 103.59 240.047 107.728 267.503 116.326C286.194 122.169 303.907 129.886 322.206 135.562C330.804 138.232 339.527 140.441 348.544 141.839C405.917 150.716 467.904 122.631 508.991 78.4265C550.119 34.1803 573.172 -23.7382 585.684 -82.7471" stroke="url(#paint17_linear)" stroke-miterlimit="10"/>
<path opacity="0.54" d="M-186.813 639.395C-205.239 615.895 -198.598 580.176 -179.502 557.543C-177.796 555.516 -176.007 553.587 -174.134 551.755C-155.037 532.994 -129.091 523.139 -103.102 515.995C-98.1114 514.625 -93.0786 513.339 -88.0599 512.109C-64.4479 506.265 -40.3327 500.925 -18.3425 490.188C-11.2547 486.735 -4.50242 482.751 1.88637 478.221C45.2658 447.396 67.8432 393.504 81.2359 341.401C82.2145 337.612 83.1511 333.824 84.0598 330.035C97.6063 273.976 110.076 218.099 134.681 172.203C145.683 151.68 157.482 129.956 179.71 118.688C206.244 105.197 239.446 109.657 267.363 118.884C286.376 125.161 304.354 133.409 322.947 139.588C331.685 142.482 340.562 144.914 349.761 146.494C408.28 156.531 471.832 128.027 513.646 82.8158C555.502 37.591 578.597 -21.7254 591.122 -81.9785" stroke="url(#paint18_linear)" stroke-miterlimit="10"/>
<path opacity="0.54" d="M-183.472 646.86C-201.898 623.388 -195.523 587.767 -176.678 564.924C-175 562.883 -173.225 560.94 -171.38 559.081C-152.493 540.11 -126.7 529.933 -100.795 522.482C-95.8186 521.056 -90.8138 519.714 -85.7951 518.413C-62.267 512.318 -38.2077 506.726 -16.3013 495.878C-9.24148 492.383 -2.50319 488.385 3.85763 483.841C47.1392 452.848 69.493 398.97 82.4942 346.769C83.4309 342.98 84.3535 339.178 85.2342 335.375C98.2634 279.246 109.643 223.159 133.003 176.495C143.684 155.147 155.385 132.556 177.963 120.841C204.916 106.791 238.873 111.586 267.252 121.428C286.586 128.124 304.816 136.918 323.716 143.586C332.607 146.718 341.638 149.36 351.019 151.121C410.671 162.319 475.803 133.381 518.344 87.1914C560.926 40.9741 584.077 -19.7263 596.603 -81.2236" stroke="url(#paint19_linear)" stroke-miterlimit="10"/>
<path opacity="0.54" d="M-180.132 654.339C-198.571 630.909 -192.448 595.372 -173.855 572.32C-172.191 570.265 -170.443 568.293 -168.612 566.42C-149.921 547.254 -124.296 536.755 -98.4893 528.982C-93.5264 527.486 -88.5356 526.102 -83.5448 524.746C-60.1006 518.385 -36.0973 512.57 -14.2747 501.61C-7.24288 498.087 -0.532577 494.061 5.81427 489.489C48.998 458.328 71.1421 404.45 83.7239 352.165C84.6326 348.363 85.5133 344.56 86.3661 340.758C98.864 284.559 109.139 228.262 131.283 180.828C141.642 158.656 153.26 135.212 176.159 123.022C203.531 108.427 238.243 113.543 267.097 124.014C286.739 131.13 305.234 140.469 324.457 147.626C333.488 150.981 342.686 153.847 352.235 155.791C413.019 168.163 479.731 138.791 522.998 91.6091C566.308 44.4132 589.5 -17.6992 602.04 -80.4268" stroke="url(#paint20_linear)" stroke-miterlimit="10"/>
<path opacity="0.54" d="M-176.79 661.805C-195.23 638.403 -189.358 602.95 -171.016 579.715C-169.381 577.646 -167.647 575.647 -165.844 573.76C-147.363 554.384 -121.891 543.564 -96.1684 535.497C-91.2195 533.945 -86.2567 532.491 -81.2799 531.08C-57.9056 524.453 -33.9861 518.414 -12.2335 507.342C-5.22956 503.777 1.46675 499.737 7.79961 495.137C50.8855 463.795 72.8198 409.944 84.9823 357.562C85.863 353.759 86.7158 349.943 87.5266 346.14C99.5074 289.857 108.636 233.351 129.592 185.149C139.602 162.138 151.149 137.841 174.397 125.203C202.189 110.049 237.656 115.501 266.972 126.587C286.935 134.122 305.682 144.02 325.212 151.653C334.383 155.232 343.735 158.321 353.465 160.446C415.382 173.979 483.659 144.174 527.668 96.0131C571.704 47.8246 594.939 -15.6718 607.493 -79.6436" stroke="url(#paint21_linear)" stroke-miterlimit="10"/>
<path opacity="0.54" d="M-173.463 669.27C-191.916 645.91 -186.296 610.541 -168.206 587.096C-166.584 584.999 -164.879 583 -163.103 581.085C-144.832 561.499 -119.514 550.371 -93.8753 541.983C-88.9544 540.376 -83.9916 538.866 -79.0427 537.398C-55.7523 530.506 -31.8887 524.243 -10.22 513.059C-3.24406 509.466 3.43831 505.398 9.74321 500.771C52.7312 469.26 74.4559 415.41 86.1989 362.944C87.0517 359.127 87.8625 355.311 88.6454 351.508C100.109 295.155 108.049 238.439 127.859 189.468C137.505 165.632 148.996 140.483 172.594 127.37C200.82 111.656 237.027 117.444 266.804 129.145C287.075 137.113 306.088 147.542 325.939 155.665C335.264 159.481 344.77 162.78 354.682 165.087C417.731 179.78 487.588 149.555 532.323 100.402C577.087 51.2353 600.363 -13.6591 612.917 -78.875" stroke="url(#paint22_linear)" stroke-miterlimit="10"/>
<path opacity="0.54" d="M-170.122 676.736C-188.575 653.403 -183.221 618.132 -165.369 594.478C-163.775 592.367 -162.098 590.34 -160.322 588.411C-142.246 568.616 -117.096 557.166 -91.5413 548.485C-86.6344 546.821 -81.6995 545.241 -76.7646 543.732C-53.5581 536.588 -29.7504 530.073 -8.16558 518.792C-1.2176 515.157 5.43683 511.075 11.7278 506.419C54.6039 474.741 76.1328 420.905 87.4565 368.341C88.2813 364.524 89.0642 360.694 89.8051 356.877C100.751 300.454 107.504 243.543 126.167 193.774C135.421 169.1 146.885 143.097 170.818 129.537C199.463 113.278 236.426 119.388 266.678 131.704C287.27 140.092 306.534 151.066 326.693 159.678C336.158 163.718 345.818 167.227 355.911 169.729C420.093 185.596 491.53 154.924 536.992 104.793C582.469 54.633 605.801 -11.6453 618.369 -78.1055" stroke="url(#paint23_linear)" stroke-miterlimit="10"/>
<path opacity="0.54" d="M-166.519 684.627C-184.986 661.337 -179.869 626.15 -162.283 602.3C-160.717 600.175 -159.053 598.12 -157.306 596.177C-139.44 576.186 -114.444 564.415 -88.9866 555.412C-84.0936 553.692 -79.1727 552.056 -74.2518 550.477C-51.1291 543.067 -27.3914 536.329 -5.87642 524.935C1.0436 521.273 7.68399 517.163 13.9609 512.479C56.7392 480.619 78.0585 426.811 88.9628 374.149C89.7596 370.319 90.5005 366.488 91.2135 362.672C101.642 306.179 107.164 249.071 124.737 198.52C133.6 173.021 145.05 146.152 169.319 132.13C198.383 115.312 236.101 121.757 266.814 134.702C287.714 143.51 307.244 155.029 327.71 164.13C337.328 168.408 347.142 172.126 357.418 174.81C422.731 191.838 495.748 160.747 541.937 109.622C588.141 58.4842 611.515 -9.19213 624.097 -76.8965" stroke="url(#paint24_linear)" stroke-miterlimit="10"/>
<path opacity="0.54" d="M-163.439 691.68C-181.906 668.418 -177.055 633.328 -159.706 609.269C-158.155 607.116 -156.519 605.061 -154.785 603.076C-137.115 582.875 -112.287 570.783 -86.9133 561.472C-82.0483 559.683 -77.1414 558.005 -72.2345 556.369C-49.1957 548.694 -25.5139 541.732 -4.06881 530.227C2.82325 526.536 9.43571 522.384 15.6987 517.701C58.3791 485.673 79.4886 431.865 89.9875 379.119C90.7564 375.289 91.4694 371.458 92.1404 367.628C102.052 311.065 106.33 253.776 122.812 202.414C131.256 176.076 142.705 148.368 167.324 133.885C196.807 116.508 235.28 123.288 266.455 136.848C287.676 146.075 307.472 158.154 328.246 167.73C338.004 172.231 347.985 176.174 358.428 179.04C424.874 197.241 499.471 165.703 546.401 113.586C593.331 61.4692 616.748 -7.60516 629.344 -76.5537" stroke="url(#paint25_linear)" stroke-miterlimit="10"/>
<path opacity="0.54" d="M-160.112 699.145C-178.593 675.925 -173.98 640.905 -156.897 616.65C-155.373 614.483 -153.751 612.4 -152.046 610.401C-134.585 589.99 -109.91 577.59 -84.621 567.972C-79.77 566.127 -74.877 564.379 -69.9981 562.702C-47.0432 554.761 -23.4172 547.562 -2.05604 535.958C4.80806 532.226 11.4065 528.06 17.6415 523.349C60.2241 491.153 81.124 437.359 91.2035 384.515C91.9304 380.67 92.6154 376.84 93.2585 372.996C102.653 316.363 105.673 258.906 121.078 206.733C129.103 179.571 140.552 150.996 165.506 136.051C195.409 118.129 234.637 125.231 266.273 139.406C287.802 149.053 307.863 161.676 328.945 171.742C338.842 176.467 348.978 180.633 359.602 183.681C427.181 203.043 503.357 171.071 551.014 117.975C598.671 64.866 622.13 -5.5924 634.739 -75.7852" stroke="url(#paint26_linear)" stroke-miterlimit="10"/>
<path opacity="0.54" d="M-156.771 706.61C-175.252 683.417 -170.905 648.496 -154.073 624.031C-152.563 621.85 -150.969 619.739 -149.292 617.726C-132.027 597.12 -107.52 584.398 -82.3144 574.459C-77.4774 572.557 -72.6124 570.754 -67.7474 569.006C-44.8764 560.8 -21.3204 553.377 -0.0291193 541.662C6.80702 537.901 13.3915 533.707 19.6126 528.968C62.0973 496.605 82.7734 442.81 92.4475 389.883C93.1465 386.038 93.8035 382.194 94.4047 378.349C103.282 321.647 105.015 264.036 119.373 211.025C126.95 183.037 138.441 153.61 163.731 138.204C194.053 119.722 234.035 127.146 266.147 141.964C287.997 152.044 308.31 165.199 329.713 175.754C339.765 180.717 350.054 185.092 360.86 188.322C429.571 208.844 507.327 176.453 555.711 122.365C604.095 68.2767 627.596 -3.57965 640.219 -75.0166" stroke="url(#paint27_linear)" stroke-miterlimit="10"/>
<path opacity="0.54" d="M-153.43 714.09C-171.925 690.939 -167.829 656.101 -151.235 631.441C-149.753 629.246 -148.173 627.121 -146.51 625.08C-129.454 604.264 -105.101 591.221 -79.9797 580.988C-75.1567 579.031 -70.3056 577.157 -65.4686 575.368C-42.6675 566.91 -19.1814 559.249 2.02603 547.422C8.8342 543.62 15.3907 539.412 21.5978 534.645C63.9707 502.1 84.4511 448.333 93.7058 395.308C94.3768 391.449 94.9919 387.605 95.5651 383.76C103.925 326.988 104.358 269.238 117.681 215.387C124.811 186.575 136.33 156.28 161.969 140.413C192.711 121.373 233.448 129.132 266.021 144.565C288.193 155.064 308.758 168.764 330.468 179.809C340.66 184.995 351.116 189.594 362.091 193.005C431.934 214.702 511.269 181.864 560.381 126.797C609.492 71.7164 633.034 -1.52392 645.658 -74.2051" stroke="url(#paint28_linear)" stroke-miterlimit="10"/>
<path opacity="0.54" d="M-150.103 721.555C-168.598 698.432 -164.754 663.692 -148.425 638.822C-146.971 636.599 -145.405 634.46 -143.77 632.405C-126.924 611.38 -102.725 598.029 -77.7011 587.474C-72.906 585.447 -68.069 583.532 -63.232 581.673C-40.5148 572.949 -17.0845 565.051 4.03899 553.126C10.8192 549.295 17.3618 545.059 23.5408 540.264C65.8159 507.551 86.0866 453.785 94.9219 400.676C95.5649 396.817 96.1521 392.959 96.6833 389.114C104.526 332.272 103.645 274.396 115.948 219.679C122.602 190.055 134.177 158.894 160.152 142.566C191.313 122.98 232.805 131.061 265.839 147.109C288.319 158.028 309.149 172.273 331.167 183.82C341.512 189.231 352.109 194.054 363.265 197.646C434.24 220.504 515.156 187.245 564.994 131.186C614.832 75.1272 638.416 0.488848 651.054 -73.4365" stroke="url(#paint29_linear)" stroke-miterlimit="10"/>
<path opacity="0.54" d="M-146.762 729.02C-165.257 705.94 -161.678 671.284 -145.587 646.204C-144.147 643.967 -142.624 641.8 -140.988 639.731C-124.338 618.496 -100.307 604.823 -75.3666 593.975C-70.5855 591.892 -65.7624 589.921 -60.9534 588.006C-38.32 579.017 -14.9597 570.894 6.09394 558.858C12.8602 554.999 19.3608 550.735 25.5399 545.926C67.7171 513.046 87.7781 459.293 96.208 406.086C96.8231 402.214 97.3683 398.355 97.8716 394.497C105.197 337.571 103.002 279.597 114.284 224.013C120.463 193.579 132.094 161.537 158.418 144.747C189.999 124.602 232.246 133.018 265.741 149.682C288.543 161.02 309.624 175.824 331.964 187.847C342.449 193.495 353.213 198.528 364.551 202.302C436.659 226.319 519.154 192.628 569.719 135.59C620.284 78.5386 643.924 2.51626 656.562 -72.6533" stroke="url(#paint30_linear)" stroke-miterlimit="10"/>
<path opacity="0.54" d="M-143.42 736.486C-163.579 711.378 -157.834 672.612 -138.234 647.057C-118.634 621.515 -88.4936 606.543 -58.7026 594.325C-28.9116 582.106 2.19357 571.44 27.5111 551.56C72.638 516.107 92.2097 456.847 99.0039 399.865C105.812 342.869 102.275 284.797 112.564 228.333C118.254 197.088 129.969 164.179 156.629 146.928C188.629 126.224 231.631 134.975 265.602 152.268C299.573 169.561 329.727 194.571 365.767 206.971C439.007 232.163 523.082 198.038 574.374 140.008C625.666 81.9776 649.348 4.55734 662 -71.8564" stroke="url(#paint31_linear)" stroke-miterlimit="10"/>
</g>
<defs>
<linearGradient id="paint0_linear" x1="473.956" y1="-117.985" x2="-239.077" y2="514.669" gradientUnits="userSpaceOnUse">
<stop stop-color="#7ED4EF"/>
<stop offset="0.2294" stop-color="#66BFE6"/>
<stop offset="0.711" stop-color="#298BD0"/>
<stop offset="1" stop-color="#0169C2"/>
</linearGradient>
<linearGradient id="paint1_linear" x1="481.223" y1="-115.166" x2="-236.317" y2="521.486" gradientUnits="userSpaceOnUse">
<stop stop-color="#7ED4EF"/>
<stop offset="0.2294" stop-color="#66BFE6"/>
<stop offset="0.711" stop-color="#298BD0"/>
<stop offset="1" stop-color="#0169C2"/>
</linearGradient>
<linearGradient id="paint2_linear" x1="488.488" y1="-112.349" x2="-233.559" y2="528.302" gradientUnits="userSpaceOnUse">
<stop stop-color="#7ED4EF"/>
<stop offset="0.2294" stop-color="#66BFE6"/>
<stop offset="0.711" stop-color="#298BD0"/>
<stop offset="1" stop-color="#0169C2"/>
</linearGradient>
<linearGradient id="paint3_linear" x1="495.182" y1="-110.175" x2="-231.372" y2="534.474" gradientUnits="userSpaceOnUse">
<stop stop-color="#7ED4EF"/>
<stop offset="0.2294" stop-color="#66BFE6"/>
<stop offset="0.711" stop-color="#298BD0"/>
<stop offset="1" stop-color="#0169C2"/>
</linearGradient>
<linearGradient id="paint4_linear" x1="500.898" y1="-109.103" x2="-230.161" y2="539.545" gradientUnits="userSpaceOnUse">
<stop stop-color="#7ED4EF"/>
<stop offset="0.2294" stop-color="#66BFE6"/>
<stop offset="0.711" stop-color="#298BD0"/>
<stop offset="1" stop-color="#0169C2"/>
</linearGradient>
<linearGradient id="paint5_linear" x1="506.557" y1="-108.095" x2="-229.009" y2="544.551" gradientUnits="userSpaceOnUse">
<stop stop-color="#7ED4EF"/>
<stop offset="0.2294" stop-color="#66BFE6"/>
<stop offset="0.711" stop-color="#298BD0"/>
<stop offset="1" stop-color="#0169C2"/>
</linearGradient>
<linearGradient id="paint6_linear" x1="512.152" y1="-107.157" x2="-227.92" y2="549.487" gradientUnits="userSpaceOnUse">
<stop stop-color="#7ED4EF"/>
<stop offset="0.2294" stop-color="#66BFE6"/>
<stop offset="0.711" stop-color="#298BD0"/>
<stop offset="1" stop-color="#0169C2"/>
</linearGradient>
<linearGradient id="paint7_linear" x1="517.681" y1="-106.294" x2="-226.896" y2="554.348" gradientUnits="userSpaceOnUse">
<stop stop-color="#7ED4EF"/>
<stop offset="0.2294" stop-color="#66BFE6"/>
<stop offset="0.711" stop-color="#298BD0"/>
<stop offset="1" stop-color="#0169C2"/>
</linearGradient>
<linearGradient id="paint8_linear" x1="523.066" y1="-105.593" x2="-226.017" y2="559.047" gradientUnits="userSpaceOnUse">
<stop stop-color="#7ED4EF"/>
<stop offset="0.2294" stop-color="#66BFE6"/>
<stop offset="0.711" stop-color="#298BD0"/>
<stop offset="1" stop-color="#0169C2"/>
</linearGradient>
<linearGradient id="paint9_linear" x1="528.335" y1="-105.024" x2="-225.254" y2="563.613" gradientUnits="userSpaceOnUse">
<stop stop-color="#7ED4EF"/>
<stop offset="0.2294" stop-color="#66BFE6"/>
<stop offset="0.711" stop-color="#298BD0"/>
<stop offset="1" stop-color="#0169C2"/>
</linearGradient>
<linearGradient id="paint10_linear" x1="533.532" y1="-104.535" x2="-224.562" y2="568.1" gradientUnits="userSpaceOnUse">
<stop stop-color="#7ED4EF"/>
<stop offset="0.2294" stop-color="#66BFE6"/>
<stop offset="0.711" stop-color="#298BD0"/>
<stop offset="1" stop-color="#0169C2"/>
</linearGradient>
<linearGradient id="paint11_linear" x1="538.679" y1="-104.102" x2="-223.921" y2="572.531" gradientUnits="userSpaceOnUse">
<stop stop-color="#7ED4EF"/>
<stop offset="0.2294" stop-color="#66BFE6"/>
<stop offset="0.711" stop-color="#298BD0"/>
<stop offset="1" stop-color="#0169C2"/>
</linearGradient>
<linearGradient id="paint12_linear" x1="543.79" y1="-103.709" x2="-223.315" y2="576.921" gradientUnits="userSpaceOnUse">
<stop stop-color="#7ED4EF"/>
<stop offset="0.2294" stop-color="#66BFE6"/>
<stop offset="0.711" stop-color="#298BD0"/>
<stop offset="1" stop-color="#0169C2"/>
</linearGradient>
<linearGradient id="paint13_linear" x1="548.875" y1="-103.346" x2="-222.735" y2="581.281" gradientUnits="userSpaceOnUse">
<stop stop-color="#7ED4EF"/>
<stop offset="0.2294" stop-color="#66BFE6"/>
<stop offset="0.711" stop-color="#298BD0"/>
<stop offset="1" stop-color="#0169C2"/>
</linearGradient>
<linearGradient id="paint14_linear" x1="553.939" y1="-103.006" x2="-222.177" y2="585.618" gradientUnits="userSpaceOnUse">
<stop stop-color="#7ED4EF"/>
<stop offset="0.2294" stop-color="#66BFE6"/>
<stop offset="0.711" stop-color="#298BD0"/>
<stop offset="1" stop-color="#0169C2"/>
</linearGradient>
<linearGradient id="paint15_linear" x1="558.986" y1="-102.684" x2="-221.634" y2="589.937" gradientUnits="userSpaceOnUse">
<stop stop-color="#7ED4EF"/>
<stop offset="0.2294" stop-color="#66BFE6"/>
<stop offset="0.711" stop-color="#298BD0"/>
<stop offset="1" stop-color="#0169C2"/>
</linearGradient>
<linearGradient id="paint16_linear" x1="564.021" y1="-102.377" x2="-221.104" y2="594.241" gradientUnits="userSpaceOnUse">
<stop stop-color="#7ED4EF"/>
<stop offset="0.2294" stop-color="#66BFE6"/>
<stop offset="0.711" stop-color="#298BD0"/>
<stop offset="1" stop-color="#0169C2"/>
</linearGradient>
<linearGradient id="paint17_linear" x1="569.044" y1="-102.082" x2="-220.586" y2="598.533" gradientUnits="userSpaceOnUse">
<stop stop-color="#7ED4EF"/>
<stop offset="0.2294" stop-color="#66BFE6"/>
<stop offset="0.711" stop-color="#298BD0"/>
<stop offset="1" stop-color="#0169C2"/>
</linearGradient>
<linearGradient id="paint18_linear" x1="574.06" y1="-101.797" x2="-220.075" y2="602.815" gradientUnits="userSpaceOnUse">
<stop stop-color="#7ED4EF"/>
<stop offset="0.2294" stop-color="#66BFE6"/>
<stop offset="0.711" stop-color="#298BD0"/>
<stop offset="1" stop-color="#0169C2"/>
</linearGradient>
<linearGradient id="paint19_linear" x1="579.067" y1="-101.52" x2="-219.572" y2="607.089" gradientUnits="userSpaceOnUse">
<stop stop-color="#7ED4EF"/>
<stop offset="0.2294" stop-color="#66BFE6"/>
<stop offset="0.711" stop-color="#298BD0"/>
<stop offset="1" stop-color="#0169C2"/>
</linearGradient>
<linearGradient id="paint20_linear" x1="584.068" y1="-101.25" x2="-219.076" y2="611.357" gradientUnits="userSpaceOnUse">
<stop stop-color="#7ED4EF"/>
<stop offset="0.2294" stop-color="#66BFE6"/>
<stop offset="0.711" stop-color="#298BD0"/>
<stop offset="1" stop-color="#0169C2"/>
</linearGradient>
<linearGradient id="paint21_linear" x1="589.065" y1="-100.985" x2="-218.584" y2="615.618" gradientUnits="userSpaceOnUse">
<stop stop-color="#7ED4EF"/>
<stop offset="0.2294" stop-color="#66BFE6"/>
<stop offset="0.711" stop-color="#298BD0"/>
<stop offset="1" stop-color="#0169C2"/>
</linearGradient>
<linearGradient id="paint22_linear" x1="594.057" y1="-100.725" x2="-218.096" y2="619.875" gradientUnits="userSpaceOnUse">
<stop stop-color="#7ED4EF"/>
<stop offset="0.2294" stop-color="#66BFE6"/>
<stop offset="0.711" stop-color="#298BD0"/>
<stop offset="1" stop-color="#0169C2"/>
</linearGradient>
<linearGradient id="paint23_linear" x1="599.045" y1="-100.469" x2="-217.614" y2="624.127" gradientUnits="userSpaceOnUse">
<stop stop-color="#7ED4EF"/>
<stop offset="0.2294" stop-color="#66BFE6"/>
<stop offset="0.711" stop-color="#298BD0"/>
<stop offset="1" stop-color="#0169C2"/>
</linearGradient>
<linearGradient id="paint24_linear" x1="604.291" y1="-99.8055" x2="-216.871" y2="628.788" gradientUnits="userSpaceOnUse">
<stop stop-color="#7ED4EF"/>
<stop offset="0.2294" stop-color="#66BFE6"/>
<stop offset="0.711" stop-color="#298BD0"/>
<stop offset="1" stop-color="#0169C2"/>
</linearGradient>
<linearGradient id="paint25_linear" x1="609.011" y1="-99.9691" x2="-216.655" y2="632.621" gradientUnits="userSpaceOnUse">
<stop stop-color="#7ED4EF"/>
<stop offset="0.2294" stop-color="#66BFE6"/>
<stop offset="0.711" stop-color="#298BD0"/>
<stop offset="1" stop-color="#0169C2"/>
</linearGradient>
<linearGradient id="paint26_linear" x1="613.99" y1="-99.7238" x2="-216.181" y2="636.863" gradientUnits="userSpaceOnUse">
<stop stop-color="#7ED4EF"/>
<stop offset="0.2294" stop-color="#66BFE6"/>
<stop offset="0.711" stop-color="#298BD0"/>
<stop offset="1" stop-color="#0169C2"/>
</linearGradient>
<linearGradient id="paint27_linear" x1="618.967" y1="-99.4813" x2="-215.709" y2="641.102" gradientUnits="userSpaceOnUse">
<stop stop-color="#7ED4EF"/>
<stop offset="0.2294" stop-color="#66BFE6"/>
<stop offset="0.711" stop-color="#298BD0"/>
<stop offset="1" stop-color="#0169C2"/>
</linearGradient>
<linearGradient id="paint28_linear" x1="623.942" y1="-99.2398" x2="-215.239" y2="645.34" gradientUnits="userSpaceOnUse">
<stop stop-color="#7ED4EF"/>
<stop offset="0.2294" stop-color="#66BFE6"/>
<stop offset="0.711" stop-color="#298BD0"/>
<stop offset="1" stop-color="#0169C2"/>
</linearGradient>
<linearGradient id="paint29_linear" x1="628.914" y1="-99.0013" x2="-214.77" y2="649.575" gradientUnits="userSpaceOnUse">
<stop stop-color="#7ED4EF"/>
<stop offset="0.2294" stop-color="#66BFE6"/>
<stop offset="0.711" stop-color="#298BD0"/>
<stop offset="1" stop-color="#0169C2"/>
</linearGradient>
<linearGradient id="paint30_linear" x1="633.885" y1="-98.7641" x2="-214.304" y2="653.809" gradientUnits="userSpaceOnUse">
<stop stop-color="#D5EDFF"/>
<stop offset="0.2294" stop-color="#9FD2F9"/>
<stop offset="0.711" stop-color="#59B5FF"/>
<stop offset="1" stop-color="#0C71BC"/>
</linearGradient>
<linearGradient id="paint31_linear" x1="638.855" y1="-98.5288" x2="-213.838" y2="658.04" gradientUnits="userSpaceOnUse">
<stop stop-color="#7ED4EF"/>
<stop offset="0.2294" stop-color="#66BFE6"/>
<stop offset="0.711" stop-color="#298BD0"/>
<stop offset="1" stop-color="#0169C2"/>
</linearGradient>
</defs>
</svg>
