<svg width="1440" height="632" viewBox="0 0 1440 632" fill="none" xmlns="http://www.w3.org/2000/svg">
<mask id="mask0" mask-type="alpha" maskUnits="userSpaceOnUse" x="-1" y="0" width="1443" height="632">
<rect x="-1" width="1443" height="632" fill="#C4C4C4"/>
</mask>
<g mask="url(#mask0)">
<g opacity="0.29">
<path opacity="0.54" d="M15.0456 918.908C-17.1927 876.408 2.54403 810.75 44.1093 777.355C85.6745 743.936 141.661 735.445 194.916 732.418C248.17 729.367 302.926 730.302 352.834 711.525C456.12 672.642 510.974 562.146 553.154 460.165C595.335 358.183 642.314 246.383 740.678 196.303C817.804 157.051 909.572 165.197 994.425 148.216C1142.55 118.586 1270.79 4.645 1317.6 -139" stroke="url(#paint0_linear)" stroke-miterlimit="10"/>
<path opacity="0.54" d="M20.9267 932.051C-11.3116 889.624 7.98212 824.114 49.1044 790.35C52.7712 787.323 56.5857 784.517 60.4739 781.86C100.193 754.986 150.667 747.136 198.976 743.838C208.303 743.198 217.679 742.682 227.055 742.165C271.081 739.753 315.403 737.243 356.402 721.567C369.691 716.497 382.192 710.222 393.956 702.937C473.346 653.842 519.316 558.603 555.32 469.616C557.928 463.143 560.561 456.647 563.219 450.125C602.57 353.583 648.491 253.521 737.626 203.859C763.121 189.659 790.216 179.914 819.132 173.86C853.265 166.699 889.17 164.705 924.387 162.368C948.43 160.768 972.276 158.971 995.729 155.255C1006.75 153.508 1017.71 151.293 1028.56 148.586C1097.66 131.384 1162.31 94.1257 1214.14 44.0948C1266.09 -6.0591 1305.44 -68.7884 1327.19 -137.646" stroke="url(#paint1_linear)" stroke-miterlimit="10"/>
<path opacity="0.54" d="M26.8084 945.191C-5.45451 902.814 13.3963 837.476 54.0756 803.343C57.7178 800.291 61.483 797.437 65.3467 794.754C104.697 767.536 154.9 759.12 203.061 755.256C212.363 754.518 221.69 753.902 231.042 753.287C274.92 750.408 319.143 747.504 359.995 731.631C373.235 726.488 385.712 720.188 397.45 712.854C476.668 663.438 522.269 568.225 557.534 479.089C560.094 472.617 562.678 466.096 565.262 459.574C603.702 362.909 648.491 263.733 734.673 211.462C759.848 196.18 786.525 184.54 816.031 177.674C850.903 169.553 888.137 168.125 924.165 166.87C948.75 166.009 973.064 165.172 997.058 162.318C1008.35 160.964 1019.55 159.143 1030.72 156.756C1101.82 141.596 1169.25 103.575 1222.36 51.7968C1275.59 -0.0798238 1315.01 -65.2701 1336.77 -136.317" stroke="url(#paint2_linear)" stroke-miterlimit="10"/>
<path opacity="0.54" d="M32.6661 958.333C0.403207 916.03 18.7864 850.839 59.0474 816.362C62.6403 813.286 66.3564 810.382 70.1954 807.675C109.201 780.088 159.109 771.105 207.122 766.7C216.375 765.863 225.702 765.125 235.005 764.411C278.735 761.064 322.835 757.767 363.564 741.697C376.755 736.504 389.182 730.155 400.896 722.797C479.917 673.086 525.174 577.897 559.701 488.589C562.211 482.092 564.721 475.571 567.256 469.049C604.785 372.236 648.467 273.872 731.646 219.067C756.527 202.677 782.76 189.191 812.882 181.513C848.492 172.408 887.055 171.571 923.895 171.424C949.046 171.301 973.803 171.448 998.338 169.43C1009.88 168.495 1021.37 167.043 1032.84 164.976C1105.93 151.859 1176.14 113.099 1230.53 59.5739C1285.04 5.95007 1324.54 -61.6765 1346.32 -134.914" stroke="url(#paint3_linear)" stroke-miterlimit="10"/>
<path opacity="0.54" d="M38.5479 971.499C6.28498 929.245 24.2252 864.227 64.0186 829.38C67.587 826.254 71.2538 823.35 75.0436 820.594C113.68 792.638 163.317 783.114 211.183 778.168C220.411 777.208 229.689 776.396 238.991 775.584C282.575 771.769 326.576 768.053 367.182 751.811C380.323 746.545 392.726 740.171 404.391 732.763C483.24 682.757 528.102 587.568 561.94 498.113C564.401 491.616 566.862 485.07 569.323 478.524C605.942 381.587 648.492 283.863 728.694 226.696C753.254 209.174 779.094 193.842 809.806 185.377C846.179 175.287 886.046 175.041 923.698 175.976C949.391 176.616 974.615 177.699 999.717 176.542C1011.5 176.001 1023.29 174.918 1035.08 173.195C1110.16 162.145 1183.16 122.598 1238.82 67.3501C1294.61 12.0036 1334.18 -58.0839 1355.99 -133.512" stroke="url(#paint4_linear)" stroke-miterlimit="10"/>
<path opacity="0.54" d="M44.4288 984.64C12.1413 942.459 29.6385 877.564 68.9889 842.373C72.5081 839.223 76.1503 836.27 79.9155 833.489C118.183 805.163 167.55 795.098 215.267 789.586C224.471 788.527 233.724 787.617 242.977 786.706C286.413 782.424 330.316 778.314 370.774 761.875C383.866 756.56 396.22 750.137 407.885 742.68C486.561 692.354 531.055 597.214 564.154 507.587C566.566 501.065 568.953 494.544 571.365 487.973C607.073 390.914 648.466 293.706 725.715 234.275C750.005 215.596 775.377 198.468 806.68 189.166C843.791 178.116 884.987 178.436 923.476 180.454C949.734 181.832 975.427 183.875 1001.04 183.579C1013.1 183.432 1025.14 182.743 1037.25 181.34C1114.32 172.333 1190.09 132.047 1247.04 75.0521C1304.08 17.9583 1343.76 -54.5656 1365.58 -132.184" stroke="url(#paint5_linear)" stroke-miterlimit="10"/>
<path opacity="0.54" d="M50.3111 997.782C18.0236 955.65 35.0533 890.928 73.9854 855.367C77.4553 852.192 81.0729 849.19 84.7889 846.385C122.712 817.715 171.783 807.059 219.328 801.03C228.508 799.873 237.712 798.839 246.94 797.83C290.228 793.105 334.008 788.577 374.343 771.941C387.386 766.552 399.715 760.08 411.331 752.598C489.835 701.977 533.959 606.837 566.321 517.062C568.683 510.54 571.021 503.994 573.359 497.424C608.157 400.241 648.393 303.428 722.689 241.88C746.683 222.02 771.612 203.095 803.531 193.005C841.38 180.971 883.905 181.882 923.206 185.007C950.006 187.124 976.166 190.126 1002.33 190.692C1014.63 190.963 1026.96 190.643 1039.39 189.56C1118.46 182.596 1197.01 141.547 1255.24 82.8292C1313.56 24.0128 1353.3 -50.972 1375.16 -130.78" stroke="url(#paint6_linear)" stroke-miterlimit="10"/>
<path opacity="0.54" d="M56.1679 1010.92C23.8558 968.865 40.4671 904.29 78.9316 868.385C82.3769 865.186 85.9453 862.159 89.6367 859.304C127.191 830.265 175.991 819.068 223.389 812.473C232.519 811.218 241.723 810.086 250.902 808.978C294.067 803.786 337.724 798.839 377.911 782.031C390.905 776.592 403.209 770.071 414.776 762.54C493.108 711.624 536.863 616.508 568.486 526.561C570.775 520.015 573.064 513.469 575.352 506.898C609.239 409.593 648.245 313.05 719.662 249.484C743.36 228.394 767.847 207.746 800.38 196.82C838.968 183.801 882.822 185.303 922.935 189.511C950.301 192.366 976.904 196.328 1003.63 197.755C1016.2 198.419 1028.78 198.493 1041.53 197.73C1122.59 192.833 1203.93 151.022 1263.43 90.5565C1323.03 29.9928 1362.85 -47.4283 1384.71 -129.427" stroke="url(#paint7_linear)" stroke-miterlimit="10"/>
<path opacity="0.54" d="M62.0501 1024.09C29.7379 982.105 45.8817 917.678 83.9278 881.403C87.3239 878.155 90.8677 875.103 94.5098 872.224C131.719 842.816 180.2 831.053 227.474 823.916C236.58 822.538 245.735 821.307 254.889 820.102C297.906 814.441 341.465 809.101 381.505 792.096C394.474 786.608 406.705 780.037 418.271 772.482C496.406 721.246 539.817 626.155 570.701 536.06C572.941 529.514 575.18 522.943 577.395 516.348C610.347 418.919 648.123 322.573 716.684 257.088C740.088 234.743 764.156 212.373 797.255 200.659C836.581 186.68 881.764 188.748 922.69 194.039C950.597 197.632 977.667 202.578 1004.93 204.867C1017.76 205.925 1030.63 206.393 1043.67 205.95C1126.73 203.095 1210.82 160.521 1271.63 98.3328C1332.51 36.0464 1372.4 -43.8603 1394.28 -128.024" stroke="url(#paint8_linear)" stroke-miterlimit="10"/>
<path opacity="0.54" d="M67.931 1037.23C35.5943 995.296 51.3197 931.041 88.8982 894.398C92.2697 891.125 95.7643 888.024 99.3572 885.12C136.197 855.367 184.407 843.038 231.534 835.36C240.615 833.883 249.745 832.554 258.875 831.25C301.745 825.122 345.18 819.388 385.097 802.186C398.017 796.625 410.223 790.029 421.74 782.425C499.703 730.893 542.745 635.827 572.916 545.56C575.106 539.014 577.272 532.418 579.437 525.823C611.479 428.272 647.95 332 713.706 264.718C736.79 241.093 760.439 217.025 794.154 204.498C834.218 189.536 880.73 192.169 922.492 198.567C950.965 202.923 978.479 208.805 1006.31 211.955C1019.38 213.432 1032.55 214.268 1045.91 214.145C1130.96 213.358 1217.83 170.021 1279.92 106.085C1342.08 42.0764 1382.07 -40.2912 1403.95 -126.646" stroke="url(#paint9_linear)" stroke-miterlimit="10"/>
<path opacity="0.54" d="M73.8126 1050.37C41.4759 1008.51 56.7337 944.379 93.8693 907.416C97.1915 904.118 100.637 900.993 104.23 898.04C140.726 867.918 188.64 855.023 235.619 846.803C244.651 845.228 253.756 843.801 262.862 842.398C305.584 835.827 348.921 829.65 388.69 812.276C401.56 806.665 413.717 800.021 425.21 792.367C503 740.54 545.673 645.498 575.106 555.059C577.247 548.488 579.363 541.893 581.455 535.298C612.586 437.623 647.704 341.326 710.704 272.322C733.467 247.392 756.698 221.676 791.029 208.337C831.831 192.39 879.672 195.614 922.246 203.12C951.285 208.214 979.241 215.056 1007.62 219.067C1020.95 220.937 1034.37 222.168 1048.05 222.365C1135.09 223.62 1224.74 179.52 1288.11 113.837C1351.56 48.0809 1391.62 -36.723 1413.52 -125.268" stroke="url(#paint10_linear)" stroke-miterlimit="10"/>
<path opacity="0.54" d="M79.6706 1063.51C47.3093 1021.7 62.1242 957.743 98.8414 920.41C102.114 917.063 105.535 913.913 109.079 910.936C145.205 880.444 192.849 867.008 239.656 858.247C248.663 856.573 257.744 855.023 266.8 853.522C309.375 846.483 352.613 839.913 392.259 822.342C405.081 816.657 417.213 809.988 428.681 802.285C506.299 750.138 548.578 655.121 577.297 564.534C579.389 557.963 581.431 551.343 583.474 544.723C613.694 446.926 647.385 350.555 707.702 279.902C730.121 253.643 752.959 226.278 787.88 212.127C829.42 195.221 878.59 199.011 921.976 207.599C951.557 213.432 979.98 221.233 1008.9 226.105C1022.48 228.394 1036.19 229.994 1050.19 230.511C1139.23 233.808 1231.66 188.945 1296.31 121.54C1361.03 54.0612 1401.17 -33.2037 1423.1 -123.938" stroke="url(#paint11_linear)" stroke-miterlimit="10"/>
<path opacity="0.54" d="M85.5519 1076.68C53.1905 1034.94 67.5624 971.13 103.812 933.429C107.06 930.057 110.432 926.858 113.951 923.831C149.709 892.971 197.082 878.968 243.741 869.666C252.723 867.869 261.755 866.245 270.787 864.645C313.213 857.139 356.329 850.175 395.852 832.407C408.624 826.673 420.732 819.93 432.151 812.203C509.596 759.76 551.506 664.768 579.487 574.008C581.529 567.413 583.523 560.793 585.492 554.173C614.801 456.228 646.99 359.71 704.699 287.481C726.774 259.87 749.242 230.904 784.754 215.942C827.033 198.051 877.531 202.431 921.754 212.103C951.901 218.673 980.792 227.459 1010.25 233.168C1024.1 235.851 1038.08 237.844 1052.38 238.681C1143.41 244.046 1238.62 198.42 1304.55 129.268C1370.56 60.0413 1410.77 -29.6599 1432.69 -122.585" stroke="url(#paint12_linear)" stroke-miterlimit="10"/>
<path opacity="0.54" d="M91.4338 1089.82C59.0478 1048.13 72.9767 984.494 108.808 946.423C112.007 943.027 115.354 939.803 118.824 936.727C154.237 905.522 201.315 890.953 247.826 881.11C256.784 879.215 265.767 877.467 274.774 875.794C317.053 867.82 360.07 860.438 399.445 842.497C412.168 836.714 424.227 829.922 435.621 822.145C512.87 769.407 554.435 674.415 581.677 583.508C583.646 576.913 585.59 570.268 587.51 563.648C615.909 465.58 646.548 368.865 701.722 295.111C723.403 266.121 745.527 235.556 781.653 219.781C824.67 200.906 876.498 205.877 921.533 216.656C952.221 223.99 981.58 233.71 1011.58 240.281C1025.68 243.357 1039.93 245.72 1054.55 246.901C1147.57 254.308 1245.56 207.92 1312.77 137.045C1380.06 66.0958 1420.34 -26.0663 1442.29 -121.182" stroke="url(#paint13_linear)" stroke-miterlimit="10"/>
<path opacity="0.54" d="M97.2893 1102.96C64.9033 1061.35 78.3646 997.855 113.753 959.44C116.903 956.019 120.225 952.746 123.646 949.645C158.69 918.072 205.497 902.937 251.861 892.552C260.769 890.558 269.752 888.713 278.734 886.916C320.89 878.5 363.784 870.699 403.012 852.561C415.686 846.704 427.72 839.888 439.089 832.086C516.166 779.053 557.362 684.086 583.891 593.006C585.81 586.386 587.705 579.742 589.551 573.122C617.04 474.93 646.079 377.945 698.743 302.714C720.03 272.321 741.809 240.206 778.526 223.619C822.282 203.784 875.413 209.321 921.285 221.183C952.539 229.255 982.341 239.935 1012.91 247.367C1027.25 250.862 1041.8 253.594 1056.74 255.095C1151.75 264.545 1252.53 217.418 1321.02 144.795C1389.58 72.0993 1429.94 -22.4992 1451.91 -119.805" stroke="url(#paint14_linear)" stroke-miterlimit="10"/>
<path opacity="0.54" d="M103.172 1116.1C70.7618 1074.54 83.8048 1011.22 118.726 972.434C121.851 968.964 125.124 965.666 128.52 962.541C163.219 930.598 209.731 914.922 255.923 903.971C264.807 901.879 273.74 899.935 282.698 898.04C324.706 889.156 367.477 880.961 406.582 862.627C419.206 856.721 431.191 849.855 442.536 842.004C519.44 788.651 560.267 693.708 586.058 602.481C587.928 595.861 589.749 589.217 591.546 582.547C618.124 484.233 645.465 386.927 695.717 310.294C716.561 278.498 738.045 244.808 775.378 227.409C819.872 206.59 874.332 212.718 921.016 225.662C952.812 234.472 983.081 246.112 1014.19 254.406C1028.81 258.294 1043.6 261.42 1058.85 263.241C1155.86 274.758 1259.42 226.843 1329.19 152.498C1399.03 78.0796 1439.46 -18.9798 1461.46 -118.476" stroke="url(#paint15_linear)" stroke-miterlimit="10"/>
<path opacity="0.54" d="M109.053 1129.27C76.6422 1087.78 89.2176 1024.58 123.72 985.451C126.796 981.956 130.02 978.634 133.391 975.46C167.722 943.147 213.963 926.93 260.007 915.437C268.866 913.222 277.775 911.18 286.683 909.187C328.544 899.835 371.217 891.222 410.173 872.715C422.749 866.735 434.709 859.845 446.005 851.945C522.737 798.297 563.194 703.378 588.247 611.979C590.068 605.334 591.84 598.69 593.562 592.021C619.23 493.583 644.848 395.958 692.714 317.897C713.09 284.674 734.328 249.458 772.251 231.247C817.483 209.443 873.273 216.162 920.794 230.189C953.155 239.737 983.867 252.362 1015.52 261.492C1030.38 265.799 1045.46 269.293 1061.02 271.434C1160.02 284.994 1266.36 236.341 1337.41 160.249C1408.53 84.0831 1449.03 -15.4127 1471.06 -117.099" stroke="url(#paint16_linear)" stroke-miterlimit="10"/>
<path opacity="0.54" d="M114.935 1142.41C82.5249 1100.97 94.6328 1037.94 128.692 998.471C131.744 994.952 134.918 991.58 138.265 988.381C172.226 955.724 218.196 938.916 264.093 926.882C272.928 924.569 281.787 922.428 290.671 920.336C332.384 910.517 374.958 901.51 413.767 882.807C426.294 876.777 438.229 869.838 449.5 861.889C526.06 807.945 566.149 713.051 590.463 621.48C592.235 614.835 593.933 608.166 595.606 601.497C620.363 502.936 644.16 404.966 689.737 325.527C709.621 290.853 730.613 254.111 769.127 235.112C815.097 212.349 872.216 219.633 920.548 234.768C953.451 245.054 984.631 258.639 1016.84 268.63C1031.98 273.331 1047.34 277.219 1063.21 279.68C1164.21 295.307 1273.32 245.867 1345.65 168.052C1418.05 90.163 1458.63 -11.7937 1480.66 -115.67" stroke="url(#paint17_linear)" stroke-miterlimit="10"/>
<path opacity="0.54" d="M120.792 1155.55C88.3571 1114.18 100.047 1051.31 133.663 1011.46C136.665 1007.9 139.815 1004.5 143.113 1001.28C176.729 968.25 222.404 950.9 268.153 938.325C276.939 935.913 285.798 933.649 294.633 931.483C336.198 921.197 378.649 911.796 417.36 892.896C429.837 886.817 441.723 879.803 452.97 871.83C529.333 817.566 569.077 722.697 592.653 630.978C594.375 624.309 596.024 617.64 597.624 610.97C621.47 512.287 643.422 413.923 686.734 333.131C706.102 297.004 726.872 258.761 766.001 238.926C812.71 215.178 871.157 223.028 920.302 239.27C953.771 250.32 985.418 264.839 1018.15 275.717C1033.53 280.811 1049.16 285.093 1065.35 287.874C1168.36 305.543 1280.24 255.365 1353.85 175.778C1427.53 96.1667 1468.18 -8.25092 1490.23 -114.317" stroke="url(#paint18_linear)" stroke-miterlimit="10"/>
<path opacity="0.54" d="M126.674 1168.69C94.2384 1127.37 105.46 1064.67 138.634 1024.46C141.587 1020.87 144.712 1017.44 147.961 1014.17C181.208 980.777 226.612 962.861 272.214 949.744C280.974 947.234 289.785 944.872 298.619 942.583C340.037 931.853 382.39 922.01 420.953 902.913C433.38 896.76 445.242 889.722 456.439 881.724C532.63 827.165 571.98 732.32 594.867 640.429C596.516 633.76 598.14 627.066 599.691 620.372C622.627 521.566 642.659 422.833 683.781 340.687C702.582 303.108 723.181 263.339 762.925 242.717C810.372 217.984 870.148 226.425 920.105 243.75C954.14 255.538 986.23 271.018 1019.5 282.756C1035.15 288.269 1051.05 292.92 1067.56 296.021C1172.57 315.733 1287.23 264.791 1362.11 183.482C1437.07 102.123 1477.83 -4.73062 1499.88 -112.987" stroke="url(#paint19_linear)" stroke-miterlimit="10"/>
<path opacity="0.54" d="M132.555 1181.86C100.095 1140.62 110.874 1078.06 143.604 1037.48C146.533 1033.86 149.609 1030.39 152.833 1027.09C185.736 993.353 230.845 974.871 276.274 961.188C285.01 958.555 293.795 956.119 302.581 953.732C343.851 942.534 386.105 932.297 424.521 913.003C436.899 906.802 448.711 899.714 459.884 891.667C535.903 836.813 574.884 741.968 597.032 649.929C598.632 643.235 600.182 636.541 601.683 629.848C623.684 530.918 641.772 431.816 680.753 348.316C698.989 309.286 719.439 268.016 759.75 246.556C807.935 220.864 869.04 229.871 919.834 248.304C954.41 260.83 986.968 277.269 1020.81 289.869C1036.7 295.775 1052.9 300.82 1069.7 304.241C1176.71 326.02 1294.14 274.316 1370.31 191.259C1446.55 108.178 1487.38 -1.16167 1509.45 -111.584" stroke="url(#paint20_linear)" stroke-miterlimit="10"/>
<path opacity="0.54" d="M138.438 1195C105.978 1153.8 116.314 1091.4 148.601 1050.49C151.481 1046.85 154.532 1043.33 157.707 1040.01C190.24 1005.9 235.079 986.855 280.36 972.655C289.072 969.924 297.808 967.364 306.569 964.879C347.716 953.214 389.822 942.583 428.115 923.092C440.444 916.817 452.232 909.704 463.38 901.608C539.226 846.434 577.838 751.638 599.248 659.427C600.799 652.733 602.3 646.015 603.727 639.321C624.817 540.244 640.887 440.773 677.777 355.919C695.397 315.412 715.725 272.641 756.65 250.394C805.573 223.718 868.007 233.315 919.613 252.831C954.756 266.095 987.757 283.519 1022.14 296.955C1038.28 303.255 1054.74 308.694 1071.87 312.435C1180.87 336.256 1301.06 283.789 1378.53 199.01C1456.05 114.181 1496.95 2.40552 1519.05 -110.207" stroke="url(#paint21_linear)" stroke-miterlimit="10"/>
<path opacity="0.54" d="M144.293 1208.14C111.809 1167.02 121.702 1104.76 153.547 1063.49C156.401 1059.8 159.404 1056.28 162.529 1052.91C194.693 1018.43 239.261 998.84 284.395 984.074C293.057 981.244 301.793 978.586 310.505 976.002C351.504 963.87 393.513 952.845 431.657 933.157C443.937 926.832 455.701 919.671 466.799 911.526C542.473 856.056 580.716 761.261 601.388 668.901C602.889 662.183 604.317 655.465 605.695 648.771C625.875 549.571 639.853 449.73 674.724 363.524C691.705 321.565 711.934 277.292 753.474 254.209C803.161 226.548 866.899 236.736 919.317 257.334C955.001 271.362 988.469 289.72 1023.41 304.018C1039.83 310.737 1056.56 316.544 1074.01 320.605C1185 346.469 1307.97 293.264 1386.72 206.737C1465.52 120.186 1506.5 5.94928 1528.6 -108.854" stroke="url(#paint22_linear)" stroke-miterlimit="10"/>
<path opacity="0.54" d="M150.176 1221.28C117.692 1180.21 127.117 1118.12 158.543 1076.48C161.349 1072.77 164.302 1069.2 167.427 1065.8C199.247 1030.95 243.52 1010.8 288.506 995.517C297.144 992.589 305.831 989.808 314.518 987.15C355.369 974.575 397.279 963.107 435.276 943.247C447.507 936.849 459.221 929.663 470.295 921.468C545.772 865.703 583.671 770.932 603.604 678.401C605.056 671.682 606.434 664.939 607.739 658.221C627.008 558.898 638.894 458.713 671.748 371.103C688.039 327.668 708.219 281.894 750.35 258.023C800.775 229.403 865.842 240.157 919.097 261.838C955.346 276.603 989.258 295.922 1024.74 311.081C1041.41 318.193 1058.41 324.37 1076.18 328.775C1189.16 356.707 1314.91 302.714 1394.94 214.465C1475 126.166 1516.07 9.49303 1538.2 -107.5" stroke="url(#paint23_linear)" stroke-miterlimit="10"/>
<path opacity="0.54" d="M156.518 1235.18C124.009 1194.18 133.016 1132.24 163.975 1090.25C166.731 1086.51 169.659 1082.89 172.736 1079.47C204.186 1044.28 248.188 1023.56 293.002 1007.71C301.615 1004.69 310.277 1001.81 318.94 999.025C359.644 985.983 401.431 974.121 439.304 954.064C451.486 947.616 463.176 940.381 474.225 932.137C549.53 876.052 587.059 781.331 606.254 688.627C607.657 681.884 608.961 675.141 610.217 668.423C628.575 568.976 638.296 468.447 669.23 379.459C684.832 334.572 704.987 287.273 747.709 262.589C798.872 232.984 865.268 244.329 919.335 267.118C956.126 282.622 990.505 302.9 1026.53 318.92C1043.46 326.451 1060.74 332.997 1078.83 337.722C1193.8 367.696 1322.34 312.965 1403.65 222.968C1484.98 132.947 1526.13 13.8132 1548.28 -105.37" stroke="url(#paint24_linear)" stroke-miterlimit="10"/>
<path opacity="0.54" d="M161.939 1247.59C129.43 1206.64 137.969 1144.87 168.509 1102.52C171.241 1098.73 174.12 1095.11 177.172 1091.62C208.278 1056.06 251.984 1034.77 296.65 1018.38C305.215 1015.23 313.852 1012.28 322.49 1009.4C363.047 995.886 404.735 983.631 442.486 963.377C454.618 956.88 466.258 949.571 477.283 941.327C552.416 884.947 589.576 790.226 608.058 697.374C609.411 690.631 610.666 683.888 611.848 677.146C629.296 577.576 636.826 476.727 665.841 386.312C680.705 339.948 700.86 291.172 744.197 265.677C796.098 235.087 863.823 247.023 918.702 270.894C956.059 287.136 990.906 308.398 1027.48 325.256C1044.65 333.18 1062.22 340.12 1080.61 345.165C1197.58 377.206 1328.89 321.688 1411.5 229.944C1494.12 138.2 1535.34 16.6049 1557.51 -104.769" stroke="url(#paint25_linear)" stroke-miterlimit="10"/>
<path opacity="0.54" d="M167.796 1260.73C135.262 1219.86 143.383 1158.21 173.456 1115.51C176.138 1111.7 178.993 1108.03 181.995 1104.51C212.733 1068.58 256.168 1046.75 300.687 1029.82C309.226 1026.57 317.839 1023.5 326.428 1020.54C366.837 1006.57 408.426 993.893 446.03 973.467C458.113 966.896 469.728 959.563 480.704 951.269C555.664 894.594 592.455 799.897 610.199 706.874C611.479 700.106 612.684 693.363 613.816 686.595C630.354 586.903 635.67 485.758 662.789 393.916C676.915 346.1 697.07 295.798 740.998 269.491C793.637 237.942 862.691 250.443 918.382 275.397C956.281 292.378 991.595 314.6 1028.71 332.319C1046.13 340.637 1063.97 347.97 1082.67 353.335C1201.64 387.419 1335.73 331.138 1419.63 237.671C1503.52 144.18 1544.81 20.1487 1567.01 -103.415" stroke="url(#paint26_linear)" stroke-miterlimit="10"/>
<path opacity="0.54" d="M173.678 1273.87C141.144 1233.05 148.798 1171.57 178.428 1128.51C181.085 1124.67 183.891 1120.95 186.844 1117.41C217.237 1081.13 260.377 1058.74 304.748 1041.24C313.262 1037.9 321.826 1034.72 330.391 1031.64C370.652 1017.2 412.118 1004.13 449.598 983.509C461.632 976.889 473.223 969.506 484.175 961.163C558.963 904.193 595.36 809.496 612.39 716.325C613.62 709.557 614.777 702.789 615.835 696.022C631.462 596.206 634.513 494.791 659.787 401.472C673.126 352.204 693.354 300.401 737.873 273.282C791.251 240.748 861.633 253.816 918.161 279.902C956.626 297.645 992.383 320.803 1030.06 339.383C1047.75 348.119 1065.87 355.822 1084.89 361.506C1205.84 397.633 1342.72 340.613 1427.9 245.399C1513.07 150.186 1554.44 23.6934 1576.66 -102.061" stroke="url(#paint27_linear)" stroke-miterlimit="10"/>
<path opacity="0.54" d="M179.559 1287.04C147.001 1246.29 154.211 1184.96 183.423 1141.55C186.031 1137.69 188.812 1133.94 191.741 1130.35C221.764 1093.71 264.634 1070.75 308.857 1052.73C317.347 1049.29 325.886 1045.99 334.401 1042.84C374.539 1027.95 415.883 1014.47 453.215 993.646C465.2 986.953 476.742 979.545 487.668 971.153C562.259 913.863 598.312 819.215 614.604 725.872C615.785 719.079 616.868 712.312 617.877 705.544C632.593 605.606 633.356 503.944 656.809 409.149C669.36 358.429 689.638 305.1 734.771 277.169C788.887 243.651 860.599 257.309 917.939 284.478C956.969 302.959 993.17 327.076 1031.39 346.518C1049.33 355.648 1067.74 363.744 1087.05 369.749C1210 407.943 1349.66 350.135 1436.11 253.199C1522.57 156.238 1564.01 27.3095 1586.23 -100.635" stroke="url(#paint28_linear)" stroke-miterlimit="10"/>
<path opacity="0.54" d="M185.416 1300.18C152.858 1259.48 159.625 1198.32 188.369 1154.54C190.928 1150.63 193.685 1146.87 196.564 1143.25C226.218 1106.24 268.817 1082.73 312.868 1064.15C321.309 1060.58 329.824 1057.21 338.339 1053.94C378.329 1038.58 419.574 1024.68 456.759 1003.69C468.695 996.945 480.212 989.488 491.089 981.047C565.508 923.461 601.191 828.814 616.745 735.323C617.877 728.53 618.91 721.738 619.845 714.971C633.651 614.909 632.101 513.026 653.757 416.705C665.471 364.557 685.848 309.703 731.572 280.959C786.426 246.482 859.467 260.706 917.619 288.957C957.191 308.177 993.859 333.254 1032.62 353.582C1050.83 363.106 1069.48 371.596 1089.12 377.92C1214.06 418.157 1356.5 359.611 1444.24 260.927C1531.97 162.244 1573.48 30.8542 1595.73 -99.2803" stroke="url(#paint29_linear)" stroke-miterlimit="10"/>
<path opacity="0.54" d="M191.297 1313.32C158.739 1272.69 165.039 1211.69 193.365 1167.54C195.899 1163.6 198.582 1159.79 201.461 1156.14C230.771 1118.76 273.074 1094.69 316.978 1075.6C325.394 1071.93 333.884 1068.46 342.35 1065.09C382.192 1049.26 423.315 1034.97 460.376 1013.78C472.287 1006.99 483.731 999.479 494.608 991.014C568.855 933.132 604.169 838.509 619.009 744.846C620.091 738.029 621.051 731.237 621.937 724.445C634.832 624.236 630.969 522.18 650.828 424.333C661.706 370.759 682.181 314.354 728.52 284.798C784.113 249.336 858.482 264.151 917.447 293.485C957.584 313.444 994.695 339.505 1034.02 360.669C1052.48 370.611 1071.43 379.471 1091.39 386.115C1218.32 428.394 1363.54 369.085 1452.55 268.679C1541.57 168.248 1583.18 34.4223 1605.43 -97.9023" stroke="url(#paint30_linear)" stroke-miterlimit="10"/>
<path opacity="0.54" d="M197.18 1326.46C161.693 1282.27 171.808 1214.02 206.31 1169.04C240.812 1124.08 293.87 1097.72 346.313 1076.21C398.756 1054.7 453.511 1035.93 498.079 1000.93C577.518 938.523 611.971 834.203 623.931 733.896C635.916 633.563 629.69 531.336 647.803 431.938C657.819 376.936 678.441 319.006 725.371 288.638C781.702 252.191 857.401 267.597 917.201 298.039C977.002 328.48 1030.08 372.507 1093.53 394.335C1222.46 438.681 1370.46 378.61 1460.75 276.456C1551.04 174.303 1592.73 38.0159 1615 -96.499" stroke="url(#paint31_linear)" stroke-miterlimit="10"/>
</g>
</g>
<defs>
<linearGradient id="paint0_linear" x1="1283.98" y1="-177.701" x2="28.791" y2="935.99" gradientUnits="userSpaceOnUse">
<stop stop-color="#7ED4EF"/>
<stop offset="0.2294" stop-color="#66BFE6"/>
<stop offset="0.711" stop-color="#298BD0"/>
<stop offset="1" stop-color="#0169C2"/>
</linearGradient>
<linearGradient id="paint1_linear" x1="1296.77" y1="-172.737" x2="33.6487" y2="947.993" gradientUnits="userSpaceOnUse">
<stop stop-color="#7ED4EF"/>
<stop offset="0.2294" stop-color="#66BFE6"/>
<stop offset="0.711" stop-color="#298BD0"/>
<stop offset="1" stop-color="#0169C2"/>
</linearGradient>
<linearGradient id="paint2_linear" x1="1309.56" y1="-167.779" x2="38.504" y2="959.99" gradientUnits="userSpaceOnUse">
<stop stop-color="#7ED4EF"/>
<stop offset="0.2294" stop-color="#66BFE6"/>
<stop offset="0.711" stop-color="#298BD0"/>
<stop offset="1" stop-color="#0169C2"/>
</linearGradient>
<linearGradient id="paint3_linear" x1="1321.34" y1="-163.952" x2="42.3546" y2="970.856" gradientUnits="userSpaceOnUse">
<stop stop-color="#7ED4EF"/>
<stop offset="0.2294" stop-color="#66BFE6"/>
<stop offset="0.711" stop-color="#298BD0"/>
<stop offset="1" stop-color="#0169C2"/>
</linearGradient>
<linearGradient id="paint4_linear" x1="1331.4" y1="-162.064" x2="44.4847" y2="979.782" gradientUnits="userSpaceOnUse">
<stop stop-color="#7ED4EF"/>
<stop offset="0.2294" stop-color="#66BFE6"/>
<stop offset="0.711" stop-color="#298BD0"/>
<stop offset="1" stop-color="#0169C2"/>
</linearGradient>
<linearGradient id="paint5_linear" x1="1341.36" y1="-160.291" x2="46.5119" y2="988.593" gradientUnits="userSpaceOnUse">
<stop stop-color="#7ED4EF"/>
<stop offset="0.2294" stop-color="#66BFE6"/>
<stop offset="0.711" stop-color="#298BD0"/>
<stop offset="1" stop-color="#0169C2"/>
</linearGradient>
<linearGradient id="paint6_linear" x1="1351.22" y1="-158.64" x2="48.4313" y2="997.282" gradientUnits="userSpaceOnUse">
<stop stop-color="#7ED4EF"/>
<stop offset="0.2294" stop-color="#66BFE6"/>
<stop offset="0.711" stop-color="#298BD0"/>
<stop offset="1" stop-color="#0169C2"/>
</linearGradient>
<linearGradient id="paint7_linear" x1="1360.95" y1="-157.121" x2="50.233" y2="1005.84" gradientUnits="userSpaceOnUse">
<stop stop-color="#7ED4EF"/>
<stop offset="0.2294" stop-color="#66BFE6"/>
<stop offset="0.711" stop-color="#298BD0"/>
<stop offset="1" stop-color="#0169C2"/>
</linearGradient>
<linearGradient id="paint8_linear" x1="1370.43" y1="-155.887" x2="51.7816" y2="1014.11" gradientUnits="userSpaceOnUse">
<stop stop-color="#7ED4EF"/>
<stop offset="0.2294" stop-color="#66BFE6"/>
<stop offset="0.711" stop-color="#298BD0"/>
<stop offset="1" stop-color="#0169C2"/>
</linearGradient>
<linearGradient id="paint9_linear" x1="1379.7" y1="-154.885" x2="53.1238" y2="1022.15" gradientUnits="userSpaceOnUse">
<stop stop-color="#7ED4EF"/>
<stop offset="0.2294" stop-color="#66BFE6"/>
<stop offset="0.711" stop-color="#298BD0"/>
<stop offset="1" stop-color="#0169C2"/>
</linearGradient>
<linearGradient id="paint10_linear" x1="1388.85" y1="-154.025" x2="54.3402" y2="1030.05" gradientUnits="userSpaceOnUse">
<stop stop-color="#7ED4EF"/>
<stop offset="0.2294" stop-color="#66BFE6"/>
<stop offset="0.711" stop-color="#298BD0"/>
<stop offset="1" stop-color="#0169C2"/>
</linearGradient>
<linearGradient id="paint11_linear" x1="1397.91" y1="-153.261" x2="55.4714" y2="1037.85" gradientUnits="userSpaceOnUse">
<stop stop-color="#7ED4EF"/>
<stop offset="0.2294" stop-color="#66BFE6"/>
<stop offset="0.711" stop-color="#298BD0"/>
<stop offset="1" stop-color="#0169C2"/>
</linearGradient>
<linearGradient id="paint12_linear" x1="1406.91" y1="-152.57" x2="56.538" y2="1045.58" gradientUnits="userSpaceOnUse">
<stop stop-color="#7ED4EF"/>
<stop offset="0.2294" stop-color="#66BFE6"/>
<stop offset="0.711" stop-color="#298BD0"/>
<stop offset="1" stop-color="#0169C2"/>
</linearGradient>
<linearGradient id="paint13_linear" x1="1415.86" y1="-151.93" x2="57.5581" y2="1053.25" gradientUnits="userSpaceOnUse">
<stop stop-color="#7ED4EF"/>
<stop offset="0.2294" stop-color="#66BFE6"/>
<stop offset="0.711" stop-color="#298BD0"/>
<stop offset="1" stop-color="#0169C2"/>
</linearGradient>
<linearGradient id="paint14_linear" x1="1424.77" y1="-151.333" x2="58.5401" y2="1060.89" gradientUnits="userSpaceOnUse">
<stop stop-color="#7ED4EF"/>
<stop offset="0.2294" stop-color="#66BFE6"/>
<stop offset="0.711" stop-color="#298BD0"/>
<stop offset="1" stop-color="#0169C2"/>
</linearGradient>
<linearGradient id="paint15_linear" x1="1433.66" y1="-150.767" x2="59.4966" y2="1068.49" gradientUnits="userSpaceOnUse">
<stop stop-color="#7ED4EF"/>
<stop offset="0.2294" stop-color="#66BFE6"/>
<stop offset="0.711" stop-color="#298BD0"/>
<stop offset="1" stop-color="#0169C2"/>
</linearGradient>
<linearGradient id="paint16_linear" x1="1442.52" y1="-150.227" x2="60.4279" y2="1076.06" gradientUnits="userSpaceOnUse">
<stop stop-color="#7ED4EF"/>
<stop offset="0.2294" stop-color="#66BFE6"/>
<stop offset="0.711" stop-color="#298BD0"/>
<stop offset="1" stop-color="#0169C2"/>
</linearGradient>
<linearGradient id="paint17_linear" x1="1451.37" y1="-149.707" x2="61.3421" y2="1083.62" gradientUnits="userSpaceOnUse">
<stop stop-color="#7ED4EF"/>
<stop offset="0.2294" stop-color="#66BFE6"/>
<stop offset="0.711" stop-color="#298BD0"/>
<stop offset="1" stop-color="#0169C2"/>
</linearGradient>
<linearGradient id="paint18_linear" x1="1460.19" y1="-149.206" x2="62.2397" y2="1091.16" gradientUnits="userSpaceOnUse">
<stop stop-color="#7ED4EF"/>
<stop offset="0.2294" stop-color="#66BFE6"/>
<stop offset="0.711" stop-color="#298BD0"/>
<stop offset="1" stop-color="#0169C2"/>
</linearGradient>
<linearGradient id="paint19_linear" x1="1469.01" y1="-148.716" x2="63.1249" y2="1098.68" gradientUnits="userSpaceOnUse">
<stop stop-color="#7ED4EF"/>
<stop offset="0.2294" stop-color="#66BFE6"/>
<stop offset="0.711" stop-color="#298BD0"/>
<stop offset="1" stop-color="#0169C2"/>
</linearGradient>
<linearGradient id="paint20_linear" x1="1477.81" y1="-148.239" x2="63.9989" y2="1106.2" gradientUnits="userSpaceOnUse">
<stop stop-color="#7ED4EF"/>
<stop offset="0.2294" stop-color="#66BFE6"/>
<stop offset="0.711" stop-color="#298BD0"/>
<stop offset="1" stop-color="#0169C2"/>
</linearGradient>
<linearGradient id="paint21_linear" x1="1486.61" y1="-147.775" x2="64.8658" y2="1113.7" gradientUnits="userSpaceOnUse">
<stop stop-color="#7ED4EF"/>
<stop offset="0.2294" stop-color="#66BFE6"/>
<stop offset="0.711" stop-color="#298BD0"/>
<stop offset="1" stop-color="#0169C2"/>
</linearGradient>
<linearGradient id="paint22_linear" x1="1495.4" y1="-147.318" x2="65.7224" y2="1121.19" gradientUnits="userSpaceOnUse">
<stop stop-color="#7ED4EF"/>
<stop offset="0.2294" stop-color="#66BFE6"/>
<stop offset="0.711" stop-color="#298BD0"/>
<stop offset="1" stop-color="#0169C2"/>
</linearGradient>
<linearGradient id="paint23_linear" x1="1504.18" y1="-146.868" x2="66.5748" y2="1128.67" gradientUnits="userSpaceOnUse">
<stop stop-color="#7ED4EF"/>
<stop offset="0.2294" stop-color="#66BFE6"/>
<stop offset="0.711" stop-color="#298BD0"/>
<stop offset="1" stop-color="#0169C2"/>
</linearGradient>
<linearGradient id="paint24_linear" x1="1513.41" y1="-145.698" x2="67.8797" y2="1136.88" gradientUnits="userSpaceOnUse">
<stop stop-color="#7ED4EF"/>
<stop offset="0.2294" stop-color="#66BFE6"/>
<stop offset="0.711" stop-color="#298BD0"/>
<stop offset="1" stop-color="#0169C2"/>
</linearGradient>
<linearGradient id="paint25_linear" x1="1521.72" y1="-145.988" x2="68.2591" y2="1143.63" gradientUnits="userSpaceOnUse">
<stop stop-color="#7ED4EF"/>
<stop offset="0.2294" stop-color="#66BFE6"/>
<stop offset="0.711" stop-color="#298BD0"/>
<stop offset="1" stop-color="#0169C2"/>
</linearGradient>
<linearGradient id="paint26_linear" x1="1530.49" y1="-145.555" x2="69.0947" y2="1151.09" gradientUnits="userSpaceOnUse">
<stop stop-color="#7ED4EF"/>
<stop offset="0.2294" stop-color="#66BFE6"/>
<stop offset="0.711" stop-color="#298BD0"/>
<stop offset="1" stop-color="#0169C2"/>
</linearGradient>
<linearGradient id="paint27_linear" x1="1539.25" y1="-145.127" x2="69.9267" y2="1158.56" gradientUnits="userSpaceOnUse">
<stop stop-color="#7ED4EF"/>
<stop offset="0.2294" stop-color="#66BFE6"/>
<stop offset="0.711" stop-color="#298BD0"/>
<stop offset="1" stop-color="#0169C2"/>
</linearGradient>
<linearGradient id="paint28_linear" x1="1548" y1="-144.705" x2="70.7536" y2="1166.02" gradientUnits="userSpaceOnUse">
<stop stop-color="#7ED4EF"/>
<stop offset="0.2294" stop-color="#66BFE6"/>
<stop offset="0.711" stop-color="#298BD0"/>
<stop offset="1" stop-color="#0169C2"/>
</linearGradient>
<linearGradient id="paint29_linear" x1="1556.76" y1="-144.283" x2="71.5782" y2="1173.47" gradientUnits="userSpaceOnUse">
<stop stop-color="#7ED4EF"/>
<stop offset="0.2294" stop-color="#66BFE6"/>
<stop offset="0.711" stop-color="#298BD0"/>
<stop offset="1" stop-color="#0169C2"/>
</linearGradient>
<linearGradient id="paint30_linear" x1="1565.51" y1="-143.866" x2="72.4" y2="1180.92" gradientUnits="userSpaceOnUse">
<stop stop-color="#D5EDFF"/>
<stop offset="0.2294" stop-color="#9FD2F9"/>
<stop offset="0.711" stop-color="#59B5FF"/>
<stop offset="1" stop-color="#0C71BC"/>
</linearGradient>
<linearGradient id="paint31_linear" x1="1574.26" y1="-143.452" x2="73.2203" y2="1188.37" gradientUnits="userSpaceOnUse">
<stop stop-color="#7ED4EF"/>
<stop offset="0.2294" stop-color="#66BFE6"/>
<stop offset="0.711" stop-color="#298BD0"/>
<stop offset="1" stop-color="#0169C2"/>
</linearGradient>
</defs>
</svg>
