<svg width="796" height="640" viewBox="0 0 796 640" fill="none" xmlns="http://www.w3.org/2000/svg">
<g opacity="0.54">
<path opacity="0.54" d="M958.398 71.4561C977.689 96.8879 965.879 136.177 941.007 156.16C916.135 176.143 882.633 181.239 850.766 183.05C818.898 184.876 786.133 184.316 756.269 195.552C694.464 218.819 661.654 284.939 636.399 345.964C611.144 406.989 583.046 473.904 524.186 503.857C478.035 527.345 423.122 522.47 372.346 532.631C283.71 550.361 206.973 618.543 178.964 704.499" stroke="url(#paint0_linear)" stroke-miterlimit="10"/>
<path opacity="0.54" d="M954.879 63.5918C974.17 88.9795 962.624 128.18 938.017 148.384C935.823 150.196 933.541 151.874 931.214 153.465C907.446 169.546 877.243 174.243 848.336 176.217C842.755 176.599 837.144 176.909 831.533 177.218C805.188 178.661 778.667 180.163 754.133 189.544C746.181 192.592 738.7 196.332 731.661 200.691C684.155 230.07 656.647 287.059 635.103 340.309C633.542 344.182 631.966 348.069 630.376 351.972C606.829 409.742 579.35 469.618 526.012 499.335C510.756 507.832 494.543 513.664 477.24 517.286C456.815 521.572 435.329 522.764 414.256 524.163C399.869 525.12 385.599 526.195 371.566 528.419C364.968 529.465 358.415 530.79 351.921 532.41C310.57 542.703 271.885 564.999 240.872 594.937C209.785 624.948 186.239 662.485 173.221 703.688" stroke="url(#paint1_linear)" stroke-miterlimit="10"/>
<path opacity="0.54" d="M951.375 55.7285C970.68 81.0867 959.4 120.184 935.058 140.609C932.879 142.435 930.626 144.144 928.314 145.749C904.767 162.036 874.726 167.072 845.907 169.384C840.34 169.826 834.759 170.194 829.163 170.562C802.907 172.285 776.444 174.023 751.999 183.521C744.076 186.599 736.61 190.369 729.586 194.757C682.183 224.327 654.895 281.302 633.793 334.64C632.261 338.513 630.715 342.415 629.169 346.317C606.167 404.161 579.366 463.507 527.795 494.785C512.73 503.93 496.767 510.896 479.111 515.004C458.244 519.864 435.963 520.718 414.404 521.469C399.693 521.984 385.144 522.485 370.786 524.193C364.027 525.003 357.326 526.093 350.641 527.521C308.097 536.592 267.748 559.344 235.969 590.328C204.117 621.37 180.526 660.379 167.508 702.894" stroke="url(#paint2_linear)" stroke-miterlimit="10"/>
<path opacity="0.54" d="M947.855 47.8506C967.161 73.1646 956.16 112.174 932.069 132.805C929.919 134.646 927.695 136.384 925.398 138.003C902.057 154.511 872.193 159.886 843.462 162.522C837.925 163.023 832.344 163.465 826.778 163.892C800.609 165.894 774.22 167.868 749.849 177.484C741.956 180.591 734.519 184.39 727.509 188.793C680.224 218.54 653.143 275.5 632.482 328.941C630.98 332.829 629.478 336.731 627.961 340.634C605.504 398.566 579.366 457.426 529.592 490.221C514.703 500.028 499.006 508.098 480.981 512.693C459.672 518.141 436.597 518.642 414.552 518.73C399.502 518.804 384.687 518.716 370.005 519.923C363.099 520.483 356.222 521.351 349.36 522.588C305.623 530.437 263.61 553.631 231.065 585.66C198.447 617.748 174.812 658.215 161.779 702.04" stroke="url(#paint3_linear)" stroke-miterlimit="10"/>
<path opacity="0.54" d="M944.335 39.9863C963.641 65.2709 952.905 104.177 929.093 125.029C926.958 126.899 924.764 128.637 922.496 130.286C899.376 147.015 869.674 152.714 841.032 155.674C835.509 156.248 829.958 156.734 824.406 157.22C798.326 159.503 771.996 161.726 747.698 171.446C739.834 174.597 732.412 178.411 725.432 182.844C678.25 212.767 651.404 269.727 631.156 323.256C629.683 327.144 628.211 331.061 626.738 334.978C604.826 392.984 579.365 451.461 531.372 485.67C516.676 496.155 501.214 505.329 482.835 510.395C461.07 516.433 437.214 516.58 414.683 516.02C399.309 515.637 384.215 514.989 369.195 515.681C362.141 516.005 355.087 516.653 348.033 517.684C303.104 524.296 259.427 547.961 226.116 581.021C192.733 614.14 169.053 656.079 156.006 701.215" stroke="url(#paint4_linear)" stroke-miterlimit="10"/>
<path opacity="0.54" d="M940.815 32.123C960.136 57.3635 949.666 96.196 926.119 117.254C924.013 119.139 921.833 120.906 919.58 122.57C896.681 139.52 867.141 145.543 838.587 148.842C833.08 149.475 827.543 150.02 822.006 150.565C796.014 153.127 769.743 155.586 745.533 165.423C737.699 168.604 730.307 172.462 723.326 176.909C676.247 207.024 649.623 263.955 629.816 317.587C628.373 321.49 626.945 325.392 625.501 329.324C604.134 387.403 579.365 445.571 533.14 481.135C518.605 492.312 503.423 502.561 484.691 508.127C462.484 514.739 437.833 514.548 414.801 513.34C399.089 512.516 383.715 511.294 368.385 511.47C361.169 511.559 353.968 511.971 346.723 512.81C300.601 518.2 255.259 542.307 221.183 576.412C187.048 610.576 163.31 653.974 150.248 700.42" stroke="url(#paint5_linear)" stroke-miterlimit="10"/>
<path opacity="0.54" d="M937.311 24.2588C956.632 49.4698 946.441 88.1992 923.145 109.478C921.069 111.378 918.904 113.175 916.68 114.853C893.987 132.009 864.624 138.386 836.173 141.993C830.68 142.686 825.173 143.304 819.65 143.908C793.747 146.735 767.55 149.445 743.414 159.4C735.609 162.625 728.231 166.498 721.28 170.974C674.304 201.266 647.9 258.197 628.536 311.917C627.122 315.82 625.723 319.737 624.324 323.668C603.502 381.822 579.424 439.754 534.967 476.584C520.609 488.468 505.691 499.792 486.592 505.83C463.943 513.031 438.496 512.486 414.979 510.616C398.942 509.349 383.288 507.552 367.635 507.214C360.272 507.052 352.894 507.243 345.457 507.891C298.142 512.059 251.137 536.622 216.295 571.758C181.394 606.953 157.612 651.823 144.535 699.58" stroke="url(#paint6_linear)" stroke-miterlimit="10"/>
<path opacity="0.54" d="M933.792 16.3809C953.127 41.5477 943.187 80.1888 920.17 101.674C918.109 103.588 915.973 105.4 913.764 107.108C891.292 124.485 862.091 131.185 833.728 135.132C828.265 135.883 822.757 136.56 817.265 137.223C791.435 140.33 765.311 143.29 741.264 153.348C733.488 156.602 726.125 160.505 719.204 165.011C672.331 195.479 646.148 252.395 627.225 306.219C625.856 310.136 624.486 314.053 623.117 317.985C602.839 376.212 579.498 433.982 536.763 472.019C522.582 484.639 507.929 496.994 488.462 503.533C465.371 511.323 439.129 510.425 415.126 507.907C398.751 506.198 382.832 503.827 366.839 502.973C359.314 502.576 351.789 502.531 344.161 502.988C295.654 505.918 246.984 530.938 211.377 567.12C175.71 603.361 151.883 649.689 138.807 698.756" stroke="url(#paint7_linear)" stroke-miterlimit="10"/>
<path opacity="0.54" d="M930.272 8.5166C949.607 33.6392 939.947 72.192 917.181 93.8982C915.148 95.842 913.028 97.6681 910.848 99.391C888.583 116.989 859.572 124.028 831.284 128.298C825.835 129.123 820.357 129.859 814.879 130.581C789.138 133.968 763.073 137.163 739.113 147.339C731.353 150.623 724.034 154.555 717.113 159.076C670.357 189.735 644.381 246.637 625.9 300.549C624.56 304.466 623.219 308.398 621.894 312.344C602.176 370.645 579.571 428.297 538.545 467.483C524.54 480.854 510.138 494.24 490.332 501.25C466.8 509.614 439.763 508.377 415.273 505.211C398.574 503.061 382.375 500.101 366.059 498.732C358.386 498.098 350.685 497.819 342.88 498.084C293.18 499.792 242.861 525.268 206.473 562.481C170.04 599.752 146.17 647.568 133.078 697.931" stroke="url(#paint8_linear)" stroke-miterlimit="10"/>
<path opacity="0.54" d="M926.753 0.65332C946.103 25.7465 936.693 64.1962 914.206 86.1232C912.189 88.0818 910.098 89.9373 907.948 91.6749C885.903 109.479 857.054 116.856 828.854 121.451C823.42 122.335 817.957 123.13 812.493 123.91C786.841 127.577 760.849 131.008 736.964 141.302C729.232 144.63 721.928 148.576 715.037 153.127C668.384 183.963 642.629 240.85 624.575 294.865C623.264 298.782 621.968 302.728 620.672 306.675C601.499 365.049 579.675 422.657 540.327 462.918C526.514 477.055 512.362 491.457 492.187 498.953C468.213 507.906 440.381 506.331 415.391 502.502C398.353 499.895 381.889 496.376 365.234 494.491C357.415 493.607 349.536 493.107 341.54 493.18C290.647 493.652 238.664 519.584 201.51 557.842C164.312 596.145 140.382 645.433 127.291 697.106" stroke="url(#paint9_linear)" stroke-miterlimit="10"/>
<path opacity="0.54" d="M923.248 -7.21094C942.598 17.838 933.468 56.1994 911.246 78.3326C909.258 80.3059 907.196 82.1761 905.046 83.9432C883.208 101.968 854.536 109.684 826.424 114.603C821.02 115.545 815.571 116.399 810.122 117.239C784.558 121.171 758.625 124.867 734.828 135.263C727.126 138.621 719.852 142.597 712.975 147.177C666.426 178.19 640.891 235.062 623.278 289.18C621.997 293.112 620.731 297.058 619.479 301.005C600.851 359.453 579.837 417.076 542.138 458.367C528.516 473.285 514.615 488.674 494.072 496.655C469.656 506.198 441.029 504.268 415.553 499.777C398.176 496.729 381.448 492.635 364.468 490.235C356.487 489.115 348.461 488.379 340.273 488.261C288.187 487.51 234.541 513.899 196.621 553.203C158.657 592.551 134.683 643.297 121.577 696.281" stroke="url(#paint10_linear)" stroke-miterlimit="10"/>
<path opacity="0.54" d="M919.728 -15.0889C939.093 9.93066 930.228 48.2036 908.257 70.543C906.298 72.5458 904.251 74.4307 902.131 76.2125C880.513 94.4581 852.003 102.499 823.994 107.741C818.605 108.742 813.171 109.67 807.752 110.568C782.276 114.78 756.402 118.712 732.678 129.226C725.006 132.628 717.746 136.619 710.884 141.228C664.438 172.432 639.138 229.29 621.953 283.496C620.701 287.428 619.479 291.389 618.257 295.351C600.173 353.872 580.013 411.539 543.92 453.817C530.504 469.53 516.839 485.906 495.942 494.373C471.085 504.49 441.662 502.222 415.7 497.083C398 493.593 380.991 488.924 363.688 486.009C355.559 484.639 347.357 483.682 338.978 483.373C285.699 481.399 230.388 508.245 191.703 548.58C152.973 588.958 128.955 641.177 115.834 695.472" stroke="url(#paint11_linear)" stroke-miterlimit="10"/>
<path opacity="0.54" d="M916.209 -22.9521C935.573 2.02321 926.974 40.2078 905.282 62.7681C903.338 64.7856 901.321 66.7 899.215 68.5113C877.818 86.9777 849.47 95.3568 821.55 100.923C816.175 101.998 810.77 102.97 805.366 103.927C779.978 108.419 754.178 112.586 730.528 123.218C722.885 126.65 715.64 130.685 708.807 135.309C662.464 166.69 637.386 223.532 620.642 277.842C619.42 281.788 618.227 285.75 617.049 289.711C599.511 348.321 580.249 406.076 545.716 449.297C532.507 465.82 519.062 483.152 497.813 492.106C472.513 502.811 442.296 500.19 415.833 494.403C397.793 490.471 380.505 485.214 362.878 481.797C354.587 480.192 346.223 478.999 337.667 478.499C283.195 475.289 226.22 502.591 186.769 543.971C147.274 585.395 123.212 639.071 110.091 694.677" stroke="url(#paint12_linear)" stroke-miterlimit="10"/>
<path opacity="0.54" d="M912.689 -30.8164C932.069 -5.8705 923.734 32.211 902.293 54.9922C900.378 57.0244 898.376 58.9535 896.299 60.7943C875.108 79.4669 846.938 88.1847 819.105 94.0751C813.745 95.209 808.37 96.2546 802.98 97.2559C777.681 102.027 751.94 106.445 728.378 117.18C720.765 120.641 713.549 124.705 706.731 129.359C660.506 160.917 635.634 217.759 619.332 272.157C618.154 276.104 616.99 280.08 615.842 284.041C598.848 342.724 580.514 400.598 547.498 444.731C534.525 462.079 521.286 480.368 499.668 489.808C473.927 501.103 442.914 498.128 415.965 491.678C397.602 487.29 380.034 481.473 362.083 477.541C353.645 475.7 345.118 474.272 336.371 473.58C280.707 469.147 222.068 496.906 181.851 539.317C141.59 581.772 117.483 636.921 104.348 693.837" stroke="url(#paint13_linear)" stroke-miterlimit="10"/>
<path opacity="0.54" d="M909.185 -38.6797C928.564 -13.778 920.509 24.2152 899.333 47.2026C897.448 49.2495 895.46 51.208 893.413 53.0635C872.443 71.957 844.434 81.0135 816.69 87.2279C811.359 88.4207 805.984 89.5252 800.609 90.6002C775.384 95.6365 749.716 100.305 726.243 111.158C718.659 114.663 711.458 118.742 704.655 123.41C658.533 155.144 633.881 211.972 618.007 266.473C616.858 270.435 615.724 274.411 614.62 278.372C598.171 337.129 580.794 395.164 549.28 440.182C536.542 458.368 523.51 477.586 501.538 487.511C475.355 499.38 443.562 496.067 416.113 488.969C397.411 484.139 379.577 477.748 361.288 473.3C352.688 471.209 343.999 469.575 335.061 468.676C278.203 463.022 217.9 491.222 176.918 534.679C135.891 578.179 111.74 634.786 98.5898 693.013" stroke="url(#paint14_linear)" stroke-miterlimit="10"/>
<path opacity="0.54" d="M905.665 -46.5439C925.059 -21.6717 917.254 16.2184 896.358 39.4267C894.488 41.503 892.529 43.4763 890.497 45.3465C869.733 64.4609 841.901 73.8414 814.26 80.3945C808.944 81.6462 803.599 82.8095 798.238 83.9434C773.101 89.2595 747.507 94.1633 724.108 105.134C716.553 108.668 709.382 112.777 702.593 117.475C656.574 149.401 632.143 206.214 616.711 260.803C615.591 264.764 614.502 268.74 613.427 272.731C597.523 331.562 581.162 389.788 551.091 435.645C538.618 454.671 525.763 474.831 503.423 485.243C476.799 497.701 444.21 494.034 416.275 486.288C397.248 481.016 379.135 474.051 360.522 469.088C351.774 466.761 342.924 464.891 333.794 463.802C275.744 456.91 213.777 485.581 172.028 530.069C130.236 574.6 106.041 632.68 92.876 692.217" stroke="url(#paint15_linear)" stroke-miterlimit="10"/>
<path opacity="0.54" d="M902.145 -54.4219C921.539 -29.5938 914.014 8.22268 893.369 31.6371C891.528 33.7282 889.599 35.7162 887.581 37.6158C867.038 56.9511 839.368 66.6556 811.816 73.5326C806.514 74.858 801.183 76.0802 795.853 77.2731C770.804 82.8689 745.269 88.0231 721.957 99.097C714.432 102.675 707.276 106.799 700.516 111.526C654.601 143.629 630.391 200.427 615.4 255.119C614.31 259.095 613.25 263.071 612.219 267.062C596.86 325.966 581.53 384.385 552.888 431.095C540.695 450.976 527.986 472.049 505.293 482.946C478.227 495.993 444.843 491.973 416.407 483.579C397.042 477.865 378.664 470.311 359.726 464.848C350.832 462.271 341.805 460.179 332.498 458.898C273.255 450.784 209.624 479.898 167.11 525.43C124.552 571.008 100.313 630.545 87.1328 691.393" stroke="url(#paint16_linear)" stroke-miterlimit="10"/>
<path opacity="0.54" d="M898.64 -62.2861C918.035 -37.4875 910.79 0.225873 890.409 23.8464C888.583 25.9523 886.683 27.9697 884.68 29.8841C864.358 49.4256 836.85 59.4834 809.386 66.6845C804.099 68.0687 798.798 69.3499 793.482 70.6016C768.521 76.4773 743.045 81.867 719.808 93.0588C712.312 96.6667 705.17 100.819 698.425 105.576C652.613 137.855 628.624 194.639 614.075 249.435C613.014 253.411 611.983 257.401 610.997 261.392C596.182 320.37 581.942 379.009 554.67 426.53C542.771 447.279 530.21 469.265 507.164 480.633C479.655 494.255 445.476 489.896 416.554 480.84C396.866 474.684 378.208 466.555 358.931 460.576C349.875 457.764 340.686 455.437 331.187 453.965C270.752 444.613 205.457 474.198 162.177 520.762C118.853 567.37 94.5695 628.38 81.3896 690.538" stroke="url(#paint17_linear)" stroke-miterlimit="10"/>
<path opacity="0.54" d="M895.121 -70.1494C914.53 -45.3949 907.535 -7.76995 887.419 16.0715C885.623 18.2068 883.738 20.239 881.764 22.1681C861.649 41.9304 834.317 52.3123 806.941 59.8373C801.684 61.2804 796.383 62.6352 791.096 63.9311C766.224 70.0866 740.821 75.7119 717.657 87.0215C710.191 90.6589 703.079 94.8558 696.349 99.627C650.654 132.098 626.871 188.867 612.764 243.751C611.733 247.742 610.746 251.732 609.789 255.723C595.52 314.774 582.384 373.634 556.466 421.98C544.877 443.598 532.448 466.482 509.034 478.351C481.084 492.562 446.109 487.864 416.701 478.145C396.674 471.533 377.736 462.845 358.151 456.351C348.947 453.302 339.596 450.74 329.906 449.076C268.263 438.503 201.318 468.529 157.273 516.153C113.183 563.792 88.8557 626.274 75.6611 689.744" stroke="url(#paint18_linear)" stroke-miterlimit="10"/>
<path opacity="0.54" d="M891.601 -78.0137C911.01 -53.2887 904.295 -15.7667 884.445 8.2956C882.677 10.4456 880.807 12.4925 878.863 14.4511C858.968 34.4343 831.799 45.1549 804.512 53.0039C799.269 54.5059 793.997 55.9196 788.711 57.2891C763.927 63.7097 738.583 69.6001 715.508 81.0275C708.071 84.709 700.973 88.9206 694.273 93.7066C648.681 126.354 625.134 183.108 611.439 238.095C610.452 242.086 609.48 246.092 608.552 250.097C594.828 309.222 582.841 368.303 558.233 417.458C546.968 439.945 534.657 463.742 510.875 476.083C482.483 490.882 446.713 485.831 416.819 475.464C396.453 468.411 377.25 459.148 357.341 452.124C347.975 448.825 338.462 446.042 328.581 444.186C265.745 432.391 197.136 462.874 152.325 511.528C107.47 560.213 83.0832 624.153 69.8887 688.933" stroke="url(#paint19_linear)" stroke-miterlimit="10"/>
<path opacity="0.54" d="M888.082 -85.8916C907.505 -61.2108 901.055 -23.7772 881.47 0.506024C879.717 2.67075 877.877 4.74712 875.948 6.72041C856.259 26.9098 829.266 37.9691 802.082 46.1567C796.854 47.7324 791.597 49.1903 786.34 50.6187C761.644 57.3191 736.36 63.4451 713.372 74.9903C705.965 78.7013 698.897 82.9424 692.211 87.7578C646.722 120.582 623.396 177.336 610.143 232.412C609.185 236.417 608.258 240.423 607.36 244.428C594.194 303.627 583.371 362.928 560.045 412.894C549.133 436.249 536.895 460.945 512.774 473.786C483.941 489.16 447.376 483.77 416.981 472.741C396.291 465.245 376.809 455.408 356.56 447.868C347.047 444.334 337.358 441.315 327.3 439.268C263.271 426.236 192.998 457.175 147.421 506.876C101.8 556.591 77.3694 622.018 64.1602 688.094" stroke="url(#paint20_linear)" stroke-miterlimit="10"/>
<path opacity="0.54" d="M884.577 -93.7549C904.001 -69.1035 897.816 -31.7583 878.495 -7.28359C876.772 -5.10414 874.946 -2.99835 873.046 -1.01033C853.579 19.4 826.748 30.7979 799.652 39.2948C794.439 40.9294 789.211 42.4609 783.969 43.9483C759.347 50.9284 734.15 57.2901 711.237 68.9531C703.859 72.7082 696.805 76.9641 690.134 81.8089C644.749 114.825 621.644 171.549 608.832 226.728C607.904 230.733 607.006 234.754 606.152 238.759C593.532 298.046 583.915 357.569 561.841 408.344C551.297 432.583 539.134 458.177 514.644 471.489C485.369 487.452 448.009 481.709 417.128 470.031C396.1 462.094 376.352 451.668 355.78 443.628C346.119 439.858 336.268 436.603 326.018 434.365C260.797 420.11 188.875 451.506 142.517 502.237C96.1303 552.998 71.6556 619.884 58.4316 687.27" stroke="url(#paint21_linear)" stroke-miterlimit="10"/>
<path opacity="0.54" d="M881.057 -101.619C900.496 -77.0119 894.576 -39.7551 875.52 -15.0595C873.812 -12.8506 872.016 -10.7448 870.131 -8.72733C850.884 11.9038 824.215 23.6258 797.207 32.4614C792.024 34.1549 786.796 35.7453 781.583 37.2915C757.05 44.5515 731.912 51.1487 709.087 62.9296C701.738 66.7142 694.699 70.9994 688.058 75.8738C642.775 109.066 619.891 165.791 607.521 221.058C606.623 225.078 605.769 229.098 604.944 233.104C592.869 292.464 584.505 352.208 563.638 403.793C553.477 428.901 541.372 455.393 516.514 469.206C486.783 485.758 448.642 479.662 417.276 467.336C395.923 458.942 375.896 447.956 354.985 439.401C345.162 435.38 335.149 431.905 324.708 429.475C258.293 413.998 184.707 445.836 137.584 497.613C90.4313 549.404 65.9125 617.762 52.6885 686.459" stroke="url(#paint22_linear)" stroke-miterlimit="10"/>
<path opacity="0.54" d="M877.538 -109.482C896.976 -84.9047 891.336 -47.7508 872.531 -22.8344C870.852 -20.6108 869.085 -18.4755 867.215 -16.4433C848.174 4.40877 821.682 16.4694 794.763 25.6143C789.594 27.3667 784.396 29.0307 779.197 30.6211C754.752 38.1461 729.674 45.0084 706.937 56.8923C699.618 60.7211 692.608 65.0211 685.982 69.9249C640.817 103.294 618.139 160.004 606.211 215.374C605.342 219.394 604.517 223.429 603.737 227.449C592.206 286.884 585.094 346.833 565.434 399.258C555.686 425.249 543.596 452.64 518.399 466.924C488.226 484.05 449.29 477.615 417.423 464.642C395.731 455.806 375.439 444.246 354.204 435.175C344.234 430.919 334.059 427.223 323.427 424.587C255.819 407.873 180.569 440.182 132.68 492.989C84.7765 545.826 60.1987 615.642 46.96 685.65" stroke="url(#paint23_linear)" stroke-miterlimit="10"/>
<path opacity="0.54" d="M874.019 -117.361C893.472 -92.8278 888.082 -55.7623 869.556 -30.6397C867.907 -28.4013 866.155 -26.2366 864.314 -24.1897C845.494 -3.13146 819.164 9.26786 792.348 18.7514C787.194 20.5627 782.01 22.2857 776.827 23.9497C752.47 31.7545 727.465 38.8525 704.787 50.8542C697.497 54.7124 690.503 59.0419 683.891 63.9751C638.829 97.5357 616.372 154.216 604.885 209.689C604.046 213.724 603.266 217.759 602.515 221.779C591.529 281.287 585.712 341.443 567.202 394.692C557.865 421.553 545.805 449.856 520.24 464.626C489.625 482.342 449.894 475.553 417.541 461.917C395.525 452.639 374.953 440.505 353.394 430.918C343.263 426.412 332.925 422.495 322.101 419.668C253.301 401.731 176.387 434.482 127.732 488.335C79.0629 542.203 54.4409 613.492 41.1875 684.81" stroke="url(#paint24_linear)" stroke-miterlimit="10"/>
<path opacity="0.54" d="M870.514 -125.225C889.967 -100.72 884.857 -63.7581 866.582 -38.4146C864.947 -36.1468 863.224 -33.9821 861.398 -31.891C842.785 -10.6119 816.631 2.12615 789.904 11.9337C784.779 13.8186 779.61 15.5857 774.441 17.3087C750.173 25.3933 725.227 32.7269 702.637 44.8464C695.377 48.7341 688.412 53.1077 681.814 58.0409C636.856 91.7782 614.619 148.459 603.56 204.02C602.75 208.055 601.999 212.09 601.292 216.125C590.852 275.706 586.346 336.054 568.984 390.157C560.089 417.901 548.028 447.088 522.096 462.344C491.039 480.649 450.513 473.507 417.673 459.222C395.319 449.503 374.467 436.78 352.584 426.692C342.306 421.951 331.791 417.798 320.791 414.779C250.798 395.606 172.22 428.828 122.785 483.726C73.3493 538.625 48.6832 611.386 35.415 684.015" stroke="url(#paint25_linear)" stroke-miterlimit="10"/>
<path opacity="0.54" d="M866.994 -133.089C886.462 -108.629 881.602 -71.7402 863.607 -46.1905C862.002 -43.908 860.294 -41.7138 858.497 -39.608C840.104 -18.108 814.113 -5.04599 787.473 5.08553C782.364 7.02936 777.209 8.8701 772.07 10.6372C747.89 19.0016 723.003 26.5855 700.501 38.8081C693.271 42.74 686.32 47.1283 679.752 52.091C634.897 86.0051 612.882 142.671 602.264 198.335C601.498 202.385 600.777 206.42 600.099 210.47C590.203 270.125 587.023 330.649 570.795 385.606C562.342 414.219 550.281 444.319 523.995 460.061C492.496 478.94 451.175 471.459 417.85 456.527C395.172 446.366 374.04 433.068 351.833 422.466C341.407 417.488 330.731 413.1 319.539 409.89C248.353 389.494 168.111 423.172 117.91 479.102C67.7089 535.046 42.9987 609.265 29.7158 683.205" stroke="url(#paint26_linear)" stroke-miterlimit="10"/>
<path opacity="0.54" d="M863.475 -140.952C882.942 -116.522 878.363 -79.736 860.632 -53.9655C859.042 -51.6682 857.363 -49.4446 855.596 -47.324C837.41 -25.6178 811.595 -12.2172 785.044 -1.74696C779.949 0.255783 774.824 2.15548 769.699 3.99623C745.607 12.6404 720.794 20.4599 698.366 32.8004C691.165 36.7617 684.229 41.1794 677.676 46.1716C632.924 80.2623 611.144 136.928 600.954 192.681C600.217 196.731 599.525 200.78 598.892 204.83C589.541 264.559 587.715 325.245 572.591 381.086C564.61 410.567 552.505 441.566 525.866 457.794C493.925 477.262 451.808 469.442 417.983 453.832C394.966 443.215 373.569 429.358 351.038 418.24C340.45 413.012 329.612 408.403 318.228 405.001C245.85 383.383 163.944 417.503 112.977 474.478C62.0101 531.453 37.2556 607.145 23.958 682.395" stroke="url(#paint27_linear)" stroke-miterlimit="10"/>
<path opacity="0.54" d="M859.955 -148.831C879.438 -124.445 875.123 -87.7474 857.643 -61.7707C856.082 -59.4587 854.418 -57.2204 852.666 -55.0704C834.7 -33.1433 809.047 -19.4039 782.584 -8.62446C777.504 -6.56281 772.394 -4.58954 767.299 -2.70461C743.281 6.20464 718.541 14.2745 696.201 26.7327C689.03 30.7382 682.123 35.1708 675.585 40.1923C630.95 74.4746 609.377 131.111 599.628 186.967C598.921 191.031 598.273 195.081 597.67 199.13C588.863 258.933 588.407 319.766 574.373 376.491C566.863 406.841 554.728 438.752 527.721 455.467C495.338 475.523 452.427 467.35 418.115 451.093C394.76 440.034 373.098 425.602 350.228 413.969C339.493 408.505 328.478 403.66 316.918 400.067C243.346 377.212 159.776 411.804 108.044 469.81C56.3111 527.83 31.5125 604.98 18.2148 681.541" stroke="url(#paint28_linear)" stroke-miterlimit="10"/>
<path opacity="0.54" d="M856.45 -156.694C875.932 -132.337 871.883 -95.7433 854.683 -69.5456C853.151 -67.2042 851.502 -64.9511 849.779 -62.7864C832.034 -40.6384 806.543 -26.5751 780.184 -15.4569C775.133 -13.3217 770.037 -11.3042 764.942 -9.34564C741.012 -0.156591 716.332 8.16364 694.081 20.7249C686.938 24.7599 680.047 29.2219 673.538 34.2729C629.006 68.7318 607.653 125.368 598.347 181.312C597.669 185.377 597.051 189.441 596.491 193.491C588.23 253.367 589.158 314.333 576.199 371.97C569.189 403.175 556.996 435.999 529.635 453.199C496.811 473.83 453.104 465.319 418.306 448.413C394.627 436.912 372.685 421.906 349.491 409.743C338.594 404.044 327.432 398.963 315.68 395.179C240.916 371.102 155.682 406.135 103.184 465.186C50.6854 524.238 25.8426 602.86 12.5303 680.731" stroke="url(#paint29_linear)" stroke-miterlimit="10"/>
<path opacity="0.54" d="M852.931 -164.559C872.413 -140.246 868.644 -103.74 851.694 -77.3215C850.177 -74.9654 848.572 -72.6829 846.849 -70.5034C829.31 -48.1346 803.996 -33.7325 777.725 -22.3051C772.689 -20.1109 767.608 -18.0346 762.542 -16.0171C738.701 -6.54825 714.094 2.00758 691.916 14.6867C684.789 18.7511 677.941 23.2425 671.432 28.3083C627.004 62.9439 605.872 119.566 596.992 175.613C596.344 179.692 595.77 183.756 595.24 187.821C587.523 247.785 589.835 308.854 577.951 367.405C571.443 399.463 559.19 433.215 531.461 450.901C498.195 472.122 453.693 463.256 418.41 445.703C394.391 433.76 372.185 418.165 348.652 405.501C337.608 399.552 326.269 394.25 314.326 390.274C238.369 364.975 151.471 400.465 98.2067 460.547C44.9426 520.644 20.0409 600.724 6.72852 679.906" stroke="url(#paint30_linear)" stroke-miterlimit="10"/>
<path opacity="0.54" d="M849.411 -172.422C870.646 -145.974 864.594 -105.139 843.948 -78.2194C823.302 -51.315 791.553 -35.5434 760.171 -22.6728C728.79 -9.80226 696.025 1.4337 669.356 22.3741C621.82 59.7341 601.204 122.143 594.047 182.166C586.875 242.204 590.601 303.376 579.763 362.855C573.769 395.768 561.429 430.433 533.346 448.604C499.638 470.414 454.341 461.195 418.557 442.979C382.773 424.763 351.008 398.418 313.045 385.356C235.895 358.82 147.333 394.766 93.3028 455.894C39.273 517.022 14.3271 598.574 1 679.067" stroke="url(#paint31_linear)" stroke-miterlimit="10"/>
</g>
<defs>
<linearGradient id="paint0_linear" x1="199.083" y1="727.656" x2="950.176" y2="61.2338" gradientUnits="userSpaceOnUse">
<stop stop-color="#7ED4EF"/>
<stop offset="0.2294" stop-color="#66BFE6"/>
<stop offset="0.711" stop-color="#298BD0"/>
<stop offset="1" stop-color="#0169C2"/>
</linearGradient>
<linearGradient id="paint1_linear" x1="191.428" y1="724.686" x2="947.269" y2="54.0517" gradientUnits="userSpaceOnUse">
<stop stop-color="#7ED4EF"/>
<stop offset="0.2294" stop-color="#66BFE6"/>
<stop offset="0.711" stop-color="#298BD0"/>
<stop offset="1" stop-color="#0169C2"/>
</linearGradient>
<linearGradient id="paint2_linear" x1="183.777" y1="721.719" x2="944.364" y2="46.8725" gradientUnits="userSpaceOnUse">
<stop stop-color="#7ED4EF"/>
<stop offset="0.2294" stop-color="#66BFE6"/>
<stop offset="0.711" stop-color="#298BD0"/>
<stop offset="1" stop-color="#0169C2"/>
</linearGradient>
<linearGradient id="paint3_linear" x1="176.726" y1="719.43" x2="942.06" y2="40.3711" gradientUnits="userSpaceOnUse">
<stop stop-color="#7ED4EF"/>
<stop offset="0.2294" stop-color="#66BFE6"/>
<stop offset="0.711" stop-color="#298BD0"/>
<stop offset="1" stop-color="#0169C2"/>
</linearGradient>
<linearGradient id="paint4_linear" x1="170.704" y1="718.3" x2="940.785" y2="35.0291" gradientUnits="userSpaceOnUse">
<stop stop-color="#7ED4EF"/>
<stop offset="0.2294" stop-color="#66BFE6"/>
<stop offset="0.711" stop-color="#298BD0"/>
<stop offset="1" stop-color="#0169C2"/>
</linearGradient>
<linearGradient id="paint5_linear" x1="164.743" y1="717.239" x2="939.571" y2="29.7564" gradientUnits="userSpaceOnUse">
<stop stop-color="#7ED4EF"/>
<stop offset="0.2294" stop-color="#66BFE6"/>
<stop offset="0.711" stop-color="#298BD0"/>
<stop offset="1" stop-color="#0169C2"/>
</linearGradient>
<linearGradient id="paint6_linear" x1="158.85" y1="716.25" x2="938.424" y2="24.5568" gradientUnits="userSpaceOnUse">
<stop stop-color="#7ED4EF"/>
<stop offset="0.2294" stop-color="#66BFE6"/>
<stop offset="0.711" stop-color="#298BD0"/>
<stop offset="1" stop-color="#0169C2"/>
</linearGradient>
<linearGradient id="paint7_linear" x1="153.025" y1="715.342" x2="937.346" y2="19.4369" gradientUnits="userSpaceOnUse">
<stop stop-color="#7ED4EF"/>
<stop offset="0.2294" stop-color="#66BFE6"/>
<stop offset="0.711" stop-color="#298BD0"/>
<stop offset="1" stop-color="#0169C2"/>
</linearGradient>
<linearGradient id="paint8_linear" x1="147.352" y1="714.603" x2="936.419" y2="14.487" gradientUnits="userSpaceOnUse">
<stop stop-color="#7ED4EF"/>
<stop offset="0.2294" stop-color="#66BFE6"/>
<stop offset="0.711" stop-color="#298BD0"/>
<stop offset="1" stop-color="#0169C2"/>
</linearGradient>
<linearGradient id="paint9_linear" x1="141.803" y1="714.004" x2="935.616" y2="9.67696" gradientUnits="userSpaceOnUse">
<stop stop-color="#7ED4EF"/>
<stop offset="0.2294" stop-color="#66BFE6"/>
<stop offset="0.711" stop-color="#298BD0"/>
<stop offset="1" stop-color="#0169C2"/>
</linearGradient>
<linearGradient id="paint10_linear" x1="136.329" y1="713.489" x2="934.888" y2="4.95055" gradientUnits="userSpaceOnUse">
<stop stop-color="#7ED4EF"/>
<stop offset="0.2294" stop-color="#66BFE6"/>
<stop offset="0.711" stop-color="#298BD0"/>
<stop offset="1" stop-color="#0169C2"/>
</linearGradient>
<linearGradient id="paint11_linear" x1="130.907" y1="713.032" x2="934.212" y2="0.283624" gradientUnits="userSpaceOnUse">
<stop stop-color="#7ED4EF"/>
<stop offset="0.2294" stop-color="#66BFE6"/>
<stop offset="0.711" stop-color="#298BD0"/>
<stop offset="1" stop-color="#0169C2"/>
</linearGradient>
<linearGradient id="paint12_linear" x1="125.522" y1="712.619" x2="933.573" y2="-4.34092" gradientUnits="userSpaceOnUse">
<stop stop-color="#7ED4EF"/>
<stop offset="0.2294" stop-color="#66BFE6"/>
<stop offset="0.711" stop-color="#298BD0"/>
<stop offset="1" stop-color="#0169C2"/>
</linearGradient>
<linearGradient id="paint13_linear" x1="120.166" y1="712.236" x2="932.963" y2="-8.9343" gradientUnits="userSpaceOnUse">
<stop stop-color="#7ED4EF"/>
<stop offset="0.2294" stop-color="#66BFE6"/>
<stop offset="0.711" stop-color="#298BD0"/>
<stop offset="1" stop-color="#0169C2"/>
</linearGradient>
<linearGradient id="paint14_linear" x1="114.832" y1="711.878" x2="932.374" y2="-13.5024" gradientUnits="userSpaceOnUse">
<stop stop-color="#7ED4EF"/>
<stop offset="0.2294" stop-color="#66BFE6"/>
<stop offset="0.711" stop-color="#298BD0"/>
<stop offset="1" stop-color="#0169C2"/>
</linearGradient>
<linearGradient id="paint15_linear" x1="109.515" y1="711.539" x2="931.803" y2="-18.0523" gradientUnits="userSpaceOnUse">
<stop stop-color="#7ED4EF"/>
<stop offset="0.2294" stop-color="#66BFE6"/>
<stop offset="0.711" stop-color="#298BD0"/>
<stop offset="1" stop-color="#0169C2"/>
</linearGradient>
<linearGradient id="paint16_linear" x1="104.212" y1="711.216" x2="931.245" y2="-22.5854" gradientUnits="userSpaceOnUse">
<stop stop-color="#7ED4EF"/>
<stop offset="0.2294" stop-color="#66BFE6"/>
<stop offset="0.711" stop-color="#298BD0"/>
<stop offset="1" stop-color="#0169C2"/>
</linearGradient>
<linearGradient id="paint17_linear" x1="98.9203" y1="710.905" x2="930.698" y2="-27.1072" gradientUnits="userSpaceOnUse">
<stop stop-color="#7ED4EF"/>
<stop offset="0.2294" stop-color="#66BFE6"/>
<stop offset="0.711" stop-color="#298BD0"/>
<stop offset="1" stop-color="#0169C2"/>
</linearGradient>
<linearGradient id="paint18_linear" x1="93.6374" y1="710.605" x2="930.161" y2="-31.6176" gradientUnits="userSpaceOnUse">
<stop stop-color="#7ED4EF"/>
<stop offset="0.2294" stop-color="#66BFE6"/>
<stop offset="0.711" stop-color="#298BD0"/>
<stop offset="1" stop-color="#0169C2"/>
</linearGradient>
<linearGradient id="paint19_linear" x1="88.3626" y1="710.312" x2="929.631" y2="-36.1206" gradientUnits="userSpaceOnUse">
<stop stop-color="#7ED4EF"/>
<stop offset="0.2294" stop-color="#66BFE6"/>
<stop offset="0.711" stop-color="#298BD0"/>
<stop offset="1" stop-color="#0169C2"/>
</linearGradient>
<linearGradient id="paint20_linear" x1="83.094" y1="710.028" x2="929.108" y2="-40.6152" gradientUnits="userSpaceOnUse">
<stop stop-color="#7ED4EF"/>
<stop offset="0.2294" stop-color="#66BFE6"/>
<stop offset="0.711" stop-color="#298BD0"/>
<stop offset="1" stop-color="#0169C2"/>
</linearGradient>
<linearGradient id="paint21_linear" x1="77.8308" y1="709.75" x2="928.59" y2="-45.1037" gradientUnits="userSpaceOnUse">
<stop stop-color="#7ED4EF"/>
<stop offset="0.2294" stop-color="#66BFE6"/>
<stop offset="0.711" stop-color="#298BD0"/>
<stop offset="1" stop-color="#0169C2"/>
</linearGradient>
<linearGradient id="paint22_linear" x1="72.5725" y1="709.476" x2="928.076" y2="-49.5877" gradientUnits="userSpaceOnUse">
<stop stop-color="#7ED4EF"/>
<stop offset="0.2294" stop-color="#66BFE6"/>
<stop offset="0.711" stop-color="#298BD0"/>
<stop offset="1" stop-color="#0169C2"/>
</linearGradient>
<linearGradient id="paint23_linear" x1="67.3183" y1="709.207" x2="927.567" y2="-54.0666" gradientUnits="userSpaceOnUse">
<stop stop-color="#7ED4EF"/>
<stop offset="0.2294" stop-color="#66BFE6"/>
<stop offset="0.711" stop-color="#298BD0"/>
<stop offset="1" stop-color="#0169C2"/>
</linearGradient>
<linearGradient id="paint24_linear" x1="62.0676" y1="708.941" x2="927.061" y2="-58.5423" gradientUnits="userSpaceOnUse">
<stop stop-color="#7ED4EF"/>
<stop offset="0.2294" stop-color="#66BFE6"/>
<stop offset="0.711" stop-color="#298BD0"/>
<stop offset="1" stop-color="#0169C2"/>
</linearGradient>
<linearGradient id="paint25_linear" x1="56.8203" y1="708.68" x2="926.559" y2="-63.0135" gradientUnits="userSpaceOnUse">
<stop stop-color="#7ED4EF"/>
<stop offset="0.2294" stop-color="#66BFE6"/>
<stop offset="0.711" stop-color="#298BD0"/>
<stop offset="1" stop-color="#0169C2"/>
</linearGradient>
<linearGradient id="paint26_linear" x1="51.5753" y1="708.421" x2="926.059" y2="-67.4827" gradientUnits="userSpaceOnUse">
<stop stop-color="#7ED4EF"/>
<stop offset="0.2294" stop-color="#66BFE6"/>
<stop offset="0.711" stop-color="#298BD0"/>
<stop offset="1" stop-color="#0169C2"/>
</linearGradient>
<linearGradient id="paint27_linear" x1="46.333" y1="708.165" x2="925.561" y2="-71.9484" gradientUnits="userSpaceOnUse">
<stop stop-color="#7ED4EF"/>
<stop offset="0.2294" stop-color="#66BFE6"/>
<stop offset="0.711" stop-color="#298BD0"/>
<stop offset="1" stop-color="#0169C2"/>
</linearGradient>
<linearGradient id="paint28_linear" x1="41.0928" y1="707.911" x2="925.066" y2="-76.4122" gradientUnits="userSpaceOnUse">
<stop stop-color="#7ED4EF"/>
<stop offset="0.2294" stop-color="#66BFE6"/>
<stop offset="0.711" stop-color="#298BD0"/>
<stop offset="1" stop-color="#0169C2"/>
</linearGradient>
<linearGradient id="paint29_linear" x1="35.8543" y1="707.66" x2="924.572" y2="-80.873" gradientUnits="userSpaceOnUse">
<stop stop-color="#7ED4EF"/>
<stop offset="0.2294" stop-color="#66BFE6"/>
<stop offset="0.711" stop-color="#298BD0"/>
<stop offset="1" stop-color="#0169C2"/>
</linearGradient>
<linearGradient id="paint30_linear" x1="30.6182" y1="707.41" x2="924.08" y2="-85.3332" gradientUnits="userSpaceOnUse">
<stop stop-color="#7ED4EF"/>
<stop offset="0.2294" stop-color="#66BFE6"/>
<stop offset="0.711" stop-color="#298BD0"/>
<stop offset="1" stop-color="#0169C2"/>
</linearGradient>
<linearGradient id="paint31_linear" x1="25.3834" y1="707.162" x2="923.59" y2="-89.7902" gradientUnits="userSpaceOnUse">
<stop stop-color="#7ED4EF"/>
<stop offset="0.2294" stop-color="#66BFE6"/>
<stop offset="0.711" stop-color="#298BD0"/>
<stop offset="1" stop-color="#0169C2"/>
</linearGradient>
</defs>
</svg>
