<svg width="96" height="96" viewBox="0 0 96 96" fill="none" xmlns="http://www.w3.org/2000/svg">
<path d="M92.298 7.40301C90.2581 7.40301 88.596 5.74111 88.596 3.7015C88.596 1.6619 90.2581 0 92.298 0C94.3379 0 96 1.6619 96 3.7015C96 5.74111 94.3505 7.40301 92.298 7.40301ZM96 25.8476C96 23.808 94.3379 22.1461 92.298 22.1461C90.2581 22.1461 88.596 23.808 88.596 25.8476C88.596 27.8872 90.2581 29.5491 92.298 29.5491C94.3505 29.5491 96 27.8998 96 25.8476ZM96 47.9937C96 45.9541 94.3379 44.2922 92.298 44.2922C90.2581 44.2922 88.596 45.9541 88.596 47.9937C88.596 50.0333 90.2581 51.6952 92.298 51.6952C94.3505 51.6952 96 50.0459 96 47.9937ZM96 70.1398C96 68.1002 94.3379 66.4383 92.298 66.4383C90.2581 66.4383 88.596 68.1002 88.596 70.1398C88.596 72.1794 90.2581 73.8413 92.298 73.8413C94.3505 73.8539 96 72.192 96 70.1398ZM96 92.2985C96 90.2589 94.3379 88.597 92.298 88.597C90.2581 88.597 88.596 90.2589 88.596 92.2985C88.596 94.3381 90.2581 96 92.298 96C94.3505 96 96 94.3381 96 92.2985ZM73.851 3.7015C73.851 1.6619 72.1889 0 70.149 0C68.1091 0 66.447 1.6619 66.447 3.7015C66.447 5.74111 68.1091 7.40301 70.149 7.40301C72.2015 7.40301 73.851 5.74111 73.851 3.7015ZM73.851 25.8476C73.851 23.808 72.1889 22.1461 70.149 22.1461C68.1091 22.1461 66.447 23.808 66.447 25.8476C66.447 27.8872 68.1091 29.5491 70.149 29.5491C72.2015 29.5491 73.851 27.8998 73.851 25.8476ZM73.851 47.9937C73.851 45.9541 72.1889 44.2922 70.149 44.2922C68.1091 44.2922 66.447 45.9541 66.447 47.9937C66.447 50.0333 68.1091 51.6952 70.149 51.6952C72.2015 51.6952 73.851 50.0459 73.851 47.9937ZM73.851 70.1398C73.851 68.1002 72.1889 66.4383 70.149 66.4383C68.1091 66.4383 66.447 68.1002 66.447 70.1398C66.447 72.1794 68.1091 73.8413 70.149 73.8413C72.2015 73.8539 73.851 72.192 73.851 70.1398ZM73.851 92.2985C73.851 90.2589 72.1889 88.597 70.149 88.597C68.1091 88.597 66.447 90.2589 66.447 92.2985C66.447 94.3381 68.1091 96 70.149 96C72.2015 96 73.851 94.3381 73.851 92.2985ZM51.702 3.7015C51.702 1.6619 50.0399 0 48 0C45.9601 0 44.298 1.6619 44.298 3.7015C44.298 5.74111 45.9601 7.40301 48 7.40301C50.0399 7.40301 51.702 5.74111 51.702 3.7015ZM51.702 25.8476C51.702 23.808 50.0399 22.1461 48 22.1461C45.9601 22.1461 44.298 23.808 44.298 25.8476C44.298 27.8872 45.9601 29.5491 48 29.5491C50.0399 29.5491 51.702 27.8998 51.702 25.8476ZM51.702 47.9937C51.702 45.9541 50.0399 44.2922 48 44.2922C45.9601 44.2922 44.298 45.9541 44.298 47.9937C44.298 50.0333 45.9601 51.6952 48 51.6952C50.0399 51.6952 51.702 50.0459 51.702 47.9937ZM51.702 70.1398C51.702 68.1002 50.0399 66.4383 48 66.4383C45.9601 66.4383 44.298 68.1002 44.298 70.1398C44.298 72.1794 45.9601 73.8413 48 73.8413C50.0399 73.8413 51.702 72.192 51.702 70.1398ZM51.702 92.2985C51.702 90.2589 50.0399 88.597 48 88.597C45.9601 88.597 44.298 90.2589 44.298 92.2985C44.298 94.3381 45.9601 96 48 96C50.0399 96 51.702 94.3381 51.702 92.2985ZM29.553 3.7015C29.553 1.6619 27.8909 0 25.851 0C23.8111 0 22.149 1.6619 22.149 3.7015C22.149 5.74111 23.8111 7.40301 25.851 7.40301C27.8909 7.40301 29.553 5.74111 29.553 3.7015ZM29.553 25.8476C29.553 23.808 27.8909 22.1461 25.851 22.1461C23.8111 22.1461 22.149 23.808 22.149 25.8476C22.149 27.8872 23.8111 29.5491 25.851 29.5491C27.8909 29.5491 29.553 27.8998 29.553 25.8476ZM29.553 47.9937C29.553 45.9541 27.8909 44.2922 25.851 44.2922C23.8111 44.2922 22.149 45.9541 22.149 47.9937C22.149 50.0333 23.8111 51.6952 25.851 51.6952C27.8909 51.6952 29.553 50.0459 29.553 47.9937ZM29.553 70.1398C29.553 68.1002 27.8909 66.4383 25.851 66.4383C23.8111 66.4383 22.149 68.1002 22.149 70.1398C22.149 72.1794 23.8111 73.8413 25.851 73.8413C27.8909 73.8539 29.553 72.192 29.553 70.1398ZM29.553 92.2985C29.553 90.2589 27.8909 88.597 25.851 88.597C23.8111 88.597 22.149 90.2589 22.149 92.2985C22.149 94.3381 23.8111 96 25.851 96C27.8909 96 29.553 94.3381 29.553 92.2985ZM7.40399 3.7015C7.40399 1.6619 5.74187 0 3.702 0C1.66212 0 0 1.6619 0 3.7015C0 5.74111 1.66212 7.40301 3.702 7.40301C5.74187 7.40301 7.40399 5.74111 7.40399 3.7015ZM7.40399 25.8476C7.40399 23.808 5.74187 22.1461 3.702 22.1461C1.66212 22.1461 0 23.808 0 25.8476C0 27.8872 1.66212 29.5491 3.702 29.5491C5.74187 29.5491 7.40399 27.8998 7.40399 25.8476ZM7.40399 47.9937C7.40399 45.9541 5.74187 44.2922 3.702 44.2922C1.66212 44.2922 0 45.9541 0 47.9937C0 50.0333 1.66212 51.6952 3.702 51.6952C5.74187 51.6952 7.40399 50.0459 7.40399 47.9937ZM7.40399 70.1398C7.40399 68.1002 5.74187 66.4383 3.702 66.4383C1.66212 66.4383 0 68.1002 0 70.1398C0 72.1794 1.66212 73.8413 3.702 73.8413C5.74187 73.8539 7.40399 72.192 7.40399 70.1398ZM7.40399 92.2985C7.40399 90.2589 5.74187 88.597 3.702 88.597C1.66212 88.597 0 90.2589 0 92.2985C0 94.3381 1.66212 96 3.702 96C5.74187 96 7.40399 94.3381 7.40399 92.2985Z" fill="#D5EDFF"/>
</svg>
