<svg width="72" height="72" viewBox="0 0 72 72" fill="none" xmlns="http://www.w3.org/2000/svg">
<path d="M4.72754 18.1595L18.1668 4.71875C15.7776 6.08416 13.5676 7.71412 11.5623 9.56597L9.57418 11.5544C7.72256 13.5513 6.09279 15.7701 4.72754 18.1595Z" fill="#D5EDFF"/>
<path d="M0.716797 28.8441L28.8496 0.708008C28.0731 0.861617 27.3051 1.04936 26.5457 1.25417L1.26291 26.5399C1.04959 27.2995 0.870388 28.0675 0.716797 28.8441Z" fill="#D5EDFF"/>
<path d="M0 35.9958C0 36.0726 0 36.1493 0 36.2262L36.2218 0C36.145 0 36.0683 0 35.9915 0C35.471 0 34.9505 0.017062 34.43 0.0341296L0.0341126 34.434C0.0170469 34.9546 0 35.4667 0 35.9958Z" fill="#D5EDFF"/>
<path d="M0.563411 42.3368L42.3487 0.546564C41.8452 0.461225 41.3333 0.375888 40.8299 0.307617L0.333008 40.8092C0.392738 41.3298 0.46955 41.8333 0.563411 42.3368Z" fill="#D5EDFF"/>
<path d="M1.92884 47.6442L47.6478 1.91986C47.2041 1.76625 46.7604 1.62971 46.3167 1.49316L1.51074 46.3044C1.63873 46.7566 1.77525 47.2004 1.92884 47.6442Z" fill="#D5EDFF"/>
<path d="M3.91714 52.3294L52.341 3.89989C51.9485 3.70361 51.5559 3.50734 51.1549 3.32812L3.33691 51.1432C3.52464 51.5443 3.71235 51.9369 3.91714 52.3294Z" fill="#D5EDFF"/>
<path d="M6.40863 56.5029L56.5049 6.40069C56.1551 6.16175 55.8052 5.9228 55.4554 5.69238L5.70898 55.4447C5.93937 55.8031 6.16971 56.153 6.40863 56.5029Z" fill="#D5EDFF"/>
<path d="M9.36873 60.2144L60.2158 9.36123C59.9087 9.07962 59.593 8.80654 59.2773 8.54199L8.54102 59.2842C8.81407 59.6 9.08714 59.9072 9.36873 60.2144Z" fill="#D5EDFF"/>
<path d="M12.7648 63.4917L63.4925 12.7581C63.228 12.4423 62.9549 12.1266 62.6733 11.8193L11.8262 62.6725C12.1334 62.9541 12.449 63.2272 12.7648 63.4917Z" fill="#D5EDFF"/>
<path d="M16.6049 66.3249L66.3343 16.5897C66.1039 16.2313 65.8735 15.8814 65.6261 15.54L15.5469 65.6251C15.8967 65.8641 16.2466 66.103 16.6049 66.3249Z" fill="#D5EDFF"/>
<path d="M20.9136 68.6889L68.6889 20.9079C68.5012 20.5068 68.3135 20.1142 68.1172 19.7217L19.7275 68.1171C20.12 68.3134 20.5125 68.5011 20.9136 68.6889Z" fill="#D5EDFF"/>
<path d="M25.7609 70.5151L70.5241 25.7551C70.3875 25.3028 70.251 24.8591 70.106 24.4238L24.4297 70.1055C24.8649 70.242 25.3086 70.3786 25.7609 70.5151Z" fill="#D5EDFF"/>
<path d="M31.2561 71.6845L71.6847 31.2512C71.6164 30.7391 71.5397 30.2357 71.4543 29.7236L29.7373 71.4456C30.2407 71.5394 30.7442 71.6162 31.2561 71.6845Z" fill="#D5EDFF"/>
<path d="M36.0001 72.0002C36.5547 72.0002 37.1093 71.9831 37.6554 71.9575L71.9574 37.6515C71.983 37.1053 72.0001 36.5506 72.0001 35.9959C72.0001 35.9533 72.0001 35.902 72.0001 35.8594L35.8721 71.9917C35.9062 71.9917 35.9574 72.0002 36.0001 72.0002Z" fill="#D5EDFF"/>
<path d="M45.5827 70.7029L70.7033 45.5793C70.9167 44.8198 71.1044 44.0432 71.2579 43.2666L43.2617 71.2661C44.0467 71.104 44.8233 70.9162 45.5827 70.7029Z" fill="#D5EDFF"/>
<path d="M67.1451 54.0537L54.0557 67.1446C59.474 63.9957 63.9964 59.4727 67.1451 54.0537Z" fill="#D5EDFF"/>
<path d="M13.7527 12.576L11.1781 10L13.7527 7.42403C14.0767 7.09986 14.0767 6.56729 13.7527 6.24313C13.4287 5.91896 12.8964 5.91896 12.5724 6.24313L9.99783 8.81911L7.42324 6.24313C7.09925 5.91896 6.56699 5.91896 6.24299 6.24313C5.919 6.56729 5.919 7.09986 6.24299 7.42403L8.81755 10L6.24299 12.576C5.919 12.9001 5.919 13.4327 6.24299 13.7569C6.56699 14.081 7.09925 14.081 7.42324 13.7569L9.99783 11.1809L12.5724 13.7569C12.8964 14.081 13.4287 14.081 13.7527 13.7569C14.0824 13.4327 14.0824 12.9059 13.7527 12.576Z" fill="#9FD2F9"/>
</svg>
