<svg width="305" height="369" viewBox="0 0 305 369" fill="none" xmlns="http://www.w3.org/2000/svg">
<path d="M17.96 100.2C17.12 100.2 16.3867 100.1 15.76 99.9C15.1333 99.6867 14.6067 99.4067 14.18 99.06C13.7533 98.7133 13.4267 98.3333 13.2 97.92C12.9867 97.5067 12.8733 97.08 12.86 96.64C12.86 96.52 12.9 96.4267 12.98 96.36C13.06 96.2933 13.16 96.26 13.28 96.26H14.26C14.38 96.26 14.4867 96.2867 14.58 96.34C14.6733 96.3933 14.7533 96.5067 14.82 96.68C14.9533 97.16 15.18 97.5333 15.5 97.8C15.8333 98.0667 16.2133 98.2533 16.64 98.36C17.08 98.4533 17.52 98.5 17.96 98.5C18.88 98.5 19.6267 98.28 20.2 97.84C20.7733 97.4 21.06 96.7533 21.06 95.9C21.06 95.0333 20.8 94.4133 20.28 94.04C19.76 93.6667 19.04 93.48 18.12 93.48H16.22C16.0867 93.48 15.9733 93.44 15.88 93.36C15.8 93.28 15.76 93.1667 15.76 93.02V92.48C15.76 92.36 15.78 92.26 15.82 92.18C15.8733 92.0867 15.9267 92.0067 15.98 91.94L19.86 87.7H13.96C13.8267 87.7 13.7133 87.66 13.62 87.58C13.54 87.5 13.5 87.3867 13.5 87.24V86.48C13.5 86.3333 13.54 86.22 13.62 86.14C13.7133 86.0467 13.8267 86 13.96 86H21.94C22.0867 86 22.2 86.0467 22.28 86.14C22.3733 86.22 22.42 86.3333 22.42 86.48V87.2C22.42 87.2933 22.3933 87.38 22.34 87.46C22.3 87.5267 22.2533 87.5933 22.2 87.66L18.34 91.96L18.66 91.98C19.54 92.0067 20.3067 92.1667 20.96 92.46C21.6267 92.7533 22.14 93.1933 22.5 93.78C22.8733 94.3533 23.06 95.08 23.06 95.96C23.06 96.8533 22.84 97.62 22.4 98.26C21.96 98.8867 21.3533 99.3667 20.58 99.7C19.8067 100.033 18.9333 100.2 17.96 100.2ZM30.3517 100.2C29.4317 100.2 28.6517 100.06 28.0117 99.78C27.3851 99.4867 26.8717 99.0867 26.4717 98.58C26.0717 98.0733 25.7784 97.4933 25.5917 96.84C25.4184 96.1867 25.3184 95.4933 25.2917 94.76C25.2784 94.4 25.2651 94.02 25.2517 93.62C25.2517 93.22 25.2517 92.82 25.2517 92.42C25.2651 92.0067 25.2784 91.6133 25.2917 91.24C25.3051 90.5067 25.4051 89.8133 25.5917 89.16C25.7917 88.4933 26.0851 87.9133 26.4717 87.42C26.8717 86.9133 27.3917 86.52 28.0317 86.24C28.6717 85.9467 29.4451 85.8 30.3517 85.8C31.2717 85.8 32.0451 85.9467 32.6717 86.24C33.3117 86.52 33.8317 86.9133 34.2317 87.42C34.6317 87.9133 34.9251 88.4933 35.1117 89.16C35.3117 89.8133 35.4184 90.5067 35.4317 91.24C35.4451 91.6133 35.4517 92.0067 35.4517 92.42C35.4651 92.82 35.4651 93.22 35.4517 93.62C35.4517 94.02 35.4451 94.4 35.4317 94.76C35.4184 95.4933 35.3117 96.1867 35.1117 96.84C34.9251 97.4933 34.6317 98.0733 34.2317 98.58C33.8451 99.0867 33.3317 99.4867 32.6917 99.78C32.0651 100.06 31.2851 100.2 30.3517 100.2ZM30.3517 98.5C31.3917 98.5 32.1584 98.16 32.6517 97.48C33.1584 96.7867 33.4184 95.8467 33.4317 94.66C33.4584 94.2733 33.4717 93.9 33.4717 93.54C33.4717 93.1667 33.4717 92.8 33.4717 92.44C33.4717 92.0667 33.4584 91.7 33.4317 91.34C33.4184 90.18 33.1584 89.2533 32.6517 88.56C32.1584 87.8533 31.3917 87.5 30.3517 87.5C29.3251 87.5 28.5584 87.8533 28.0517 88.56C27.5584 89.2533 27.2984 90.18 27.2717 91.34C27.2717 91.7 27.2651 92.0667 27.2517 92.44C27.2517 92.8 27.2517 93.1667 27.2517 93.54C27.2651 93.9 27.2717 94.2733 27.2717 94.66C27.2984 95.8467 27.5651 96.7867 28.0717 97.48C28.5784 98.16 29.3384 98.5 30.3517 98.5ZM43.8094 100C43.6627 100 43.5494 99.96 43.4694 99.88C43.3894 99.7867 43.3494 99.6733 43.3494 99.54V86.48C43.3494 86.3333 43.3894 86.22 43.4694 86.14C43.5494 86.0467 43.6627 86 43.8094 86H48.3494C49.7227 86 50.8294 86.2067 51.6694 86.62C52.5094 87.0333 53.1227 87.6467 53.5094 88.46C53.896 89.26 54.096 90.2467 54.1094 91.42C54.1227 92.02 54.1294 92.5467 54.1294 93C54.1294 93.4533 54.1227 93.9733 54.1094 94.56C54.0827 95.7867 53.876 96.8067 53.4894 97.62C53.116 98.42 52.516 99.02 51.6894 99.42C50.876 99.8067 49.796 100 48.4494 100H43.8094ZM45.3094 98.3H48.3494C49.2694 98.3 50.0027 98.1733 50.5494 97.92C51.096 97.6667 51.4894 97.26 51.7294 96.7C51.9827 96.14 52.116 95.4 52.1294 94.48C52.156 94.08 52.1694 93.7333 52.1694 93.44C52.1694 93.1333 52.1694 92.8333 52.1694 92.54C52.1694 92.2333 52.156 91.8867 52.1294 91.5C52.1027 90.2067 51.796 89.2533 51.2094 88.64C50.6227 88.0133 49.636 87.7 48.2494 87.7H45.3094V98.3ZM59.7784 100.2C59.1118 100.2 58.5051 100.067 57.9584 99.8C57.4118 99.5333 56.9718 99.1733 56.6384 98.72C56.3051 98.2667 56.1384 97.7533 56.1384 97.18C56.1384 96.26 56.5118 95.5267 57.2584 94.98C58.0051 94.4333 58.9784 94.0733 60.1784 93.9L63.1584 93.48V92.9C63.1584 92.26 62.9718 91.76 62.5984 91.4C62.2384 91.04 61.6451 90.86 60.8184 90.86C60.2184 90.86 59.7318 90.98 59.3584 91.22C58.9984 91.46 58.7451 91.7667 58.5984 92.14C58.5184 92.34 58.3784 92.44 58.1784 92.44H57.2784C57.1318 92.44 57.0184 92.4 56.9384 92.32C56.8718 92.2267 56.8384 92.12 56.8384 92C56.8384 91.8 56.9118 91.5533 57.0584 91.26C57.2184 90.9667 57.4584 90.68 57.7784 90.4C58.0984 90.12 58.5051 89.8867 58.9984 89.7C59.5051 89.5 60.1184 89.4 60.8384 89.4C61.6384 89.4 62.3118 89.5067 62.8584 89.72C63.4051 89.92 63.8318 90.1933 64.1384 90.54C64.4584 90.8867 64.6851 91.28 64.8184 91.72C64.9651 92.16 65.0384 92.6067 65.0384 93.06V99.54C65.0384 99.6733 64.9918 99.7867 64.8984 99.88C64.8184 99.96 64.7118 100 64.5784 100H63.6584C63.5118 100 63.3984 99.96 63.3184 99.88C63.2384 99.7867 63.1984 99.6733 63.1984 99.54V98.68C63.0251 98.92 62.7918 99.16 62.4984 99.4C62.2051 99.6267 61.8384 99.82 61.3984 99.98C60.9584 100.127 60.4184 100.2 59.7784 100.2ZM60.1984 98.7C60.7451 98.7 61.2451 98.5867 61.6984 98.36C62.1518 98.12 62.5051 97.7533 62.7584 97.26C63.0251 96.7667 63.1584 96.1467 63.1584 95.4V94.84L60.8384 95.18C59.8918 95.3133 59.1784 95.54 58.6984 95.86C58.2184 96.1667 57.9784 96.56 57.9784 97.04C57.9784 97.4133 58.0851 97.7267 58.2984 97.98C58.5251 98.22 58.8051 98.4 59.1384 98.52C59.4851 98.64 59.8384 98.7 60.1984 98.7ZM69.5188 103.8C69.4121 103.8 69.3188 103.76 69.2388 103.68C69.1588 103.6 69.1188 103.507 69.1188 103.4C69.1188 103.347 69.1254 103.293 69.1388 103.24C69.1521 103.187 69.1788 103.12 69.2188 103.04L70.7588 99.38L66.9388 90.36C66.8721 90.2 66.8388 90.0867 66.8388 90.02C66.8388 89.9 66.8788 89.8 66.9588 89.72C67.0388 89.64 67.1388 89.6 67.2588 89.6H68.2388C68.3721 89.6 68.4788 89.6333 68.5588 89.7C68.6388 89.7667 68.6921 89.8467 68.7188 89.94L71.7588 97.22L74.8788 89.94C74.9188 89.8467 74.9721 89.7667 75.0388 89.7C75.1188 89.6333 75.2321 89.6 75.3788 89.6H76.3187C76.4387 89.6 76.5388 89.64 76.6188 89.72C76.6988 89.8 76.7388 89.8933 76.7388 90C76.7388 90.0667 76.7054 90.1867 76.6388 90.36L70.9588 103.46C70.9188 103.553 70.8588 103.633 70.7788 103.7C70.7121 103.767 70.6054 103.8 70.4588 103.8H69.5188ZM82.0019 100.2C81.2552 100.2 80.6152 100.107 80.0819 99.92C79.5485 99.7333 79.1152 99.5067 78.7819 99.24C78.4485 98.9733 78.1952 98.7067 78.0219 98.44C77.8619 98.1733 77.7752 97.96 77.7619 97.8C77.7485 97.6533 77.7952 97.54 77.9019 97.46C78.0085 97.38 78.1152 97.34 78.2219 97.34H79.1019C79.1819 97.34 79.2419 97.3533 79.2819 97.38C79.3352 97.3933 79.4019 97.4467 79.4819 97.54C79.6552 97.7267 79.8485 97.9133 80.0619 98.1C80.2752 98.2867 80.5352 98.44 80.8419 98.56C81.1619 98.68 81.5552 98.74 82.0219 98.74C82.7019 98.74 83.2619 98.6133 83.7019 98.36C84.1419 98.0933 84.3619 97.7067 84.3619 97.2C84.3619 96.8667 84.2685 96.6 84.0819 96.4C83.9085 96.2 83.5885 96.02 83.1219 95.86C82.6685 95.7 82.0419 95.5333 81.2419 95.36C80.4419 95.1733 79.8085 94.9467 79.3419 94.68C78.8752 94.4 78.5419 94.0733 78.3419 93.7C78.1419 93.3133 78.0419 92.88 78.0419 92.4C78.0419 91.9067 78.1885 91.4333 78.4819 90.98C78.7752 90.5133 79.2019 90.1333 79.7619 89.84C80.3352 89.5467 81.0485 89.4 81.9019 89.4C82.5952 89.4 83.1885 89.4867 83.6819 89.66C84.1752 89.8333 84.5819 90.0533 84.9019 90.32C85.2219 90.5733 85.4619 90.8267 85.6219 91.08C85.7819 91.3333 85.8685 91.5467 85.8819 91.72C85.8952 91.8533 85.8552 91.9667 85.7619 92.06C85.6685 92.14 85.5619 92.18 85.4419 92.18H84.6019C84.5085 92.18 84.4285 92.16 84.3619 92.12C84.3085 92.08 84.2552 92.0333 84.2019 91.98C84.0685 91.8067 83.9085 91.6333 83.7219 91.46C83.5485 91.2867 83.3152 91.1467 83.0219 91.04C82.7419 90.92 82.3685 90.86 81.9019 90.86C81.2352 90.86 80.7352 91 80.4019 91.28C80.0685 91.56 79.9019 91.9133 79.9019 92.34C79.9019 92.5933 79.9752 92.82 80.1219 93.02C80.2685 93.22 80.5485 93.4 80.9619 93.56C81.3752 93.72 81.9885 93.8933 82.8019 94.08C83.6819 94.2533 84.3752 94.4867 84.8819 94.78C85.3885 95.0733 85.7485 95.4133 85.9619 95.8C86.1752 96.1867 86.2819 96.6333 86.2819 97.14C86.2819 97.7 86.1152 98.2133 85.7819 98.68C85.4619 99.1467 84.9819 99.52 84.3419 99.8C83.7152 100.067 82.9352 100.2 82.0019 100.2ZM15.86 159C15.74 159 15.64 158.96 15.56 158.88C15.4933 158.787 15.46 158.68 15.46 158.56C15.46 158.493 15.4667 158.44 15.48 158.4C15.5067 158.36 15.5267 158.327 15.54 158.3L18.6 154.04C18.2667 154.12 17.9067 154.16 17.52 154.16C16.7733 154.147 16.1067 154.013 15.52 153.76C14.9333 153.507 14.4333 153.167 14.02 152.74C13.6067 152.3 13.2933 151.807 13.08 151.26C12.8667 150.713 12.76 150.14 12.76 149.54C12.76 148.953 12.86 148.38 13.06 147.82C13.2733 147.26 13.5867 146.753 14 146.3C14.4267 145.847 14.9533 145.487 15.58 145.22C16.2067 144.94 16.9467 144.8 17.8 144.8C18.64 144.8 19.3733 144.933 20 145.2C20.64 145.453 21.1733 145.807 21.6 146.26C22.04 146.7 22.36 147.2 22.56 147.76C22.7733 148.32 22.88 148.9 22.88 149.5C22.88 150.047 22.8 150.547 22.64 151C22.48 151.453 22.2867 151.86 22.06 152.22C21.8467 152.58 21.6333 152.913 21.42 153.22L17.58 158.6C17.5267 158.667 17.4533 158.753 17.36 158.86C17.2667 158.953 17.1267 159 16.94 159H15.86ZM17.8 152.54C18.36 152.54 18.8733 152.42 19.34 152.18C19.82 151.927 20.2 151.58 20.48 151.14C20.76 150.687 20.9 150.147 20.9 149.52C20.9 148.893 20.76 148.36 20.48 147.92C20.2 147.467 19.82 147.12 19.34 146.88C18.8733 146.627 18.36 146.5 17.8 146.5C17.2533 146.5 16.7467 146.627 16.28 146.88C15.8133 147.12 15.44 147.467 15.16 147.92C14.88 148.36 14.74 148.893 14.74 149.52C14.74 150.147 14.88 150.687 15.16 151.14C15.44 151.58 15.8133 151.927 16.28 152.18C16.7467 152.42 17.2533 152.54 17.8 152.54ZM30.1955 159.2C29.2755 159.2 28.4955 159.06 27.8555 158.78C27.2288 158.487 26.7155 158.087 26.3155 157.58C25.9155 157.073 25.6221 156.493 25.4355 155.84C25.2621 155.187 25.1621 154.493 25.1355 153.76C25.1221 153.4 25.1088 153.02 25.0955 152.62C25.0955 152.22 25.0955 151.82 25.0955 151.42C25.1088 151.007 25.1221 150.613 25.1355 150.24C25.1488 149.507 25.2488 148.813 25.4355 148.16C25.6355 147.493 25.9288 146.913 26.3155 146.42C26.7155 145.913 27.2355 145.52 27.8755 145.24C28.5155 144.947 29.2888 144.8 30.1955 144.8C31.1155 144.8 31.8888 144.947 32.5155 145.24C33.1555 145.52 33.6755 145.913 34.0755 146.42C34.4755 146.913 34.7688 147.493 34.9555 148.16C35.1555 148.813 35.2621 149.507 35.2755 150.24C35.2888 150.613 35.2955 151.007 35.2955 151.42C35.3088 151.82 35.3088 152.22 35.2955 152.62C35.2955 153.02 35.2888 153.4 35.2755 153.76C35.2621 154.493 35.1555 155.187 34.9555 155.84C34.7688 156.493 34.4755 157.073 34.0755 157.58C33.6888 158.087 33.1755 158.487 32.5355 158.78C31.9088 159.06 31.1288 159.2 30.1955 159.2ZM30.1955 157.5C31.2355 157.5 32.0021 157.16 32.4955 156.48C33.0021 155.787 33.2621 154.847 33.2755 153.66C33.3021 153.273 33.3155 152.9 33.3155 152.54C33.3155 152.167 33.3155 151.8 33.3155 151.44C33.3155 151.067 33.3021 150.7 33.2755 150.34C33.2621 149.18 33.0021 148.253 32.4955 147.56C32.0021 146.853 31.2355 146.5 30.1955 146.5C29.1688 146.5 28.4021 146.853 27.8955 147.56C27.4021 148.253 27.1421 149.18 27.1155 150.34C27.1155 150.7 27.1088 151.067 27.0955 151.44C27.0955 151.8 27.0955 152.167 27.0955 152.54C27.1088 152.9 27.1155 153.273 27.1155 153.66C27.1421 154.847 27.4088 155.787 27.9155 156.48C28.4221 157.16 29.1821 157.5 30.1955 157.5ZM43.6531 159C43.5065 159 43.3931 158.96 43.3131 158.88C43.2331 158.787 43.1931 158.673 43.1931 158.54V145.48C43.1931 145.333 43.2331 145.22 43.3131 145.14C43.3931 145.047 43.5065 145 43.6531 145H48.1931C49.5665 145 50.6731 145.207 51.5131 145.62C52.3531 146.033 52.9665 146.647 53.3531 147.46C53.7398 148.26 53.9398 149.247 53.9531 150.42C53.9665 151.02 53.9731 151.547 53.9731 152C53.9731 152.453 53.9665 152.973 53.9531 153.56C53.9265 154.787 53.7198 155.807 53.3331 156.62C52.9598 157.42 52.3598 158.02 51.5331 158.42C50.7198 158.807 49.6398 159 48.2931 159H43.6531ZM45.1531 157.3H48.1931C49.1131 157.3 49.8465 157.173 50.3931 156.92C50.9398 156.667 51.3331 156.26 51.5731 155.7C51.8265 155.14 51.9598 154.4 51.9731 153.48C51.9998 153.08 52.0131 152.733 52.0131 152.44C52.0131 152.133 52.0131 151.833 52.0131 151.54C52.0131 151.233 51.9998 150.887 51.9731 150.5C51.9465 149.207 51.6398 148.253 51.0531 147.64C50.4665 147.013 49.4798 146.7 48.0931 146.7H45.1531V157.3ZM59.6222 159.2C58.9555 159.2 58.3489 159.067 57.8022 158.8C57.2555 158.533 56.8155 158.173 56.4822 157.72C56.1489 157.267 55.9822 156.753 55.9822 156.18C55.9822 155.26 56.3555 154.527 57.1022 153.98C57.8489 153.433 58.8222 153.073 60.0222 152.9L63.0022 152.48V151.9C63.0022 151.26 62.8155 150.76 62.4422 150.4C62.0822 150.04 61.4889 149.86 60.6622 149.86C60.0622 149.86 59.5755 149.98 59.2022 150.22C58.8422 150.46 58.5889 150.767 58.4422 151.14C58.3622 151.34 58.2222 151.44 58.0222 151.44H57.1222C56.9755 151.44 56.8622 151.4 56.7822 151.32C56.7155 151.227 56.6822 151.12 56.6822 151C56.6822 150.8 56.7555 150.553 56.9022 150.26C57.0622 149.967 57.3022 149.68 57.6222 149.4C57.9422 149.12 58.3489 148.887 58.8422 148.7C59.3489 148.5 59.9622 148.4 60.6822 148.4C61.4822 148.4 62.1555 148.507 62.7022 148.72C63.2489 148.92 63.6755 149.193 63.9822 149.54C64.3022 149.887 64.5289 150.28 64.6622 150.72C64.8089 151.16 64.8822 151.607 64.8822 152.06V158.54C64.8822 158.673 64.8355 158.787 64.7422 158.88C64.6622 158.96 64.5555 159 64.4222 159H63.5022C63.3555 159 63.2422 158.96 63.1622 158.88C63.0822 158.787 63.0422 158.673 63.0422 158.54V157.68C62.8689 157.92 62.6355 158.16 62.3422 158.4C62.0489 158.627 61.6822 158.82 61.2422 158.98C60.8022 159.127 60.2622 159.2 59.6222 159.2ZM60.0422 157.7C60.5889 157.7 61.0889 157.587 61.5422 157.36C61.9955 157.12 62.3489 156.753 62.6022 156.26C62.8689 155.767 63.0022 155.147 63.0022 154.4V153.84L60.6822 154.18C59.7355 154.313 59.0222 154.54 58.5422 154.86C58.0622 155.167 57.8222 155.56 57.8222 156.04C57.8222 156.413 57.9289 156.727 58.1422 156.98C58.3689 157.22 58.6489 157.4 58.9822 157.52C59.3289 157.64 59.6822 157.7 60.0422 157.7ZM69.3625 162.8C69.2558 162.8 69.1625 162.76 69.0825 162.68C69.0025 162.6 68.9625 162.507 68.9625 162.4C68.9625 162.347 68.9692 162.293 68.9825 162.24C68.9958 162.187 69.0225 162.12 69.0625 162.04L70.6025 158.38L66.7825 149.36C66.7158 149.2 66.6825 149.087 66.6825 149.02C66.6825 148.9 66.7225 148.8 66.8025 148.72C66.8825 148.64 66.9825 148.6 67.1025 148.6H68.0825C68.2158 148.6 68.3225 148.633 68.4025 148.7C68.4825 148.767 68.5358 148.847 68.5625 148.94L71.6025 156.22L74.7225 148.94C74.7625 148.847 74.8158 148.767 74.8825 148.7C74.9625 148.633 75.0758 148.6 75.2225 148.6H76.1625C76.2825 148.6 76.3825 148.64 76.4625 148.72C76.5425 148.8 76.5825 148.893 76.5825 149C76.5825 149.067 76.5492 149.187 76.4825 149.36L70.8025 162.46C70.7625 162.553 70.7025 162.633 70.6225 162.7C70.5558 162.767 70.4492 162.8 70.3025 162.8H69.3625ZM81.8456 159.2C81.099 159.2 80.459 159.107 79.9256 158.92C79.3923 158.733 78.959 158.507 78.6256 158.24C78.2923 157.973 78.039 157.707 77.8656 157.44C77.7056 157.173 77.619 156.96 77.6056 156.8C77.5923 156.653 77.639 156.54 77.7456 156.46C77.8523 156.38 77.959 156.34 78.0656 156.34H78.9456C79.0256 156.34 79.0856 156.353 79.1256 156.38C79.179 156.393 79.2456 156.447 79.3256 156.54C79.499 156.727 79.6923 156.913 79.9056 157.1C80.119 157.287 80.379 157.44 80.6856 157.56C81.0056 157.68 81.399 157.74 81.8656 157.74C82.5456 157.74 83.1056 157.613 83.5456 157.36C83.9856 157.093 84.2056 156.707 84.2056 156.2C84.2056 155.867 84.1123 155.6 83.9256 155.4C83.7523 155.2 83.4323 155.02 82.9656 154.86C82.5123 154.7 81.8856 154.533 81.0856 154.36C80.2856 154.173 79.6523 153.947 79.1856 153.68C78.719 153.4 78.3856 153.073 78.1856 152.7C77.9856 152.313 77.8856 151.88 77.8856 151.4C77.8856 150.907 78.0323 150.433 78.3256 149.98C78.619 149.513 79.0456 149.133 79.6056 148.84C80.179 148.547 80.8923 148.4 81.7456 148.4C82.439 148.4 83.0323 148.487 83.5256 148.66C84.019 148.833 84.4256 149.053 84.7456 149.32C85.0656 149.573 85.3056 149.827 85.4656 150.08C85.6256 150.333 85.7123 150.547 85.7256 150.72C85.739 150.853 85.699 150.967 85.6056 151.06C85.5123 151.14 85.4056 151.18 85.2856 151.18H84.4456C84.3523 151.18 84.2723 151.16 84.2056 151.12C84.1523 151.08 84.099 151.033 84.0456 150.98C83.9123 150.807 83.7523 150.633 83.5656 150.46C83.3923 150.287 83.159 150.147 82.8656 150.04C82.5856 149.92 82.2123 149.86 81.7456 149.86C81.079 149.86 80.579 150 80.2456 150.28C79.9123 150.56 79.7456 150.913 79.7456 151.34C79.7456 151.593 79.819 151.82 79.9656 152.02C80.1123 152.22 80.3923 152.4 80.8056 152.56C81.219 152.72 81.8323 152.893 82.6456 153.08C83.5256 153.253 84.219 153.487 84.7256 153.78C85.2323 154.073 85.5923 154.413 85.8056 154.8C86.019 155.187 86.1256 155.633 86.1256 156.14C86.1256 156.7 85.959 157.213 85.6256 157.68C85.3056 158.147 84.8256 158.52 84.1856 158.8C83.559 159.067 82.779 159.2 81.8456 159.2ZM17.52 218C17.3867 218 17.2733 217.96 17.18 217.88C17.1 217.787 17.06 217.673 17.06 217.54V206.34L13.74 208.9C13.6333 208.98 13.52 209.013 13.4 209C13.28 208.987 13.18 208.927 13.1 208.82L12.58 208.16C12.5 208.04 12.4667 207.92 12.48 207.8C12.5067 207.68 12.5733 207.58 12.68 207.5L17.04 204.14C17.1333 204.073 17.22 204.033 17.3 204.02C17.38 204.007 17.4667 204 17.56 204H18.58C18.7133 204 18.82 204.047 18.9 204.14C18.98 204.22 19.02 204.327 19.02 204.46V217.54C19.02 217.673 18.98 217.787 18.9 217.88C18.82 217.96 18.7133 218 18.58 218H17.52ZM26.9147 218.2C26.1414 218.2 25.428 218.107 24.7747 217.92C24.1347 217.72 23.5814 217.44 23.1147 217.08C22.6614 216.707 22.308 216.26 22.0547 215.74C21.8014 215.22 21.6747 214.633 21.6747 213.98C21.6747 213.167 21.868 212.467 22.2547 211.88C22.6547 211.293 23.1814 210.847 23.8347 210.54C23.3147 210.233 22.908 209.833 22.6147 209.34C22.3214 208.847 22.1747 208.26 22.1747 207.58C22.1747 206.78 22.368 206.107 22.7547 205.56C23.1547 205 23.708 204.567 24.4147 204.26C25.1347 203.953 25.968 203.8 26.9147 203.8C27.848 203.8 28.668 203.953 29.3747 204.26C30.0947 204.553 30.648 204.98 31.0347 205.54C31.4347 206.1 31.6347 206.773 31.6347 207.56C31.6347 208.24 31.488 208.833 31.1947 209.34C30.9014 209.833 30.5014 210.233 29.9947 210.54C30.648 210.847 31.168 211.293 31.5547 211.88C31.9547 212.467 32.1547 213.167 32.1547 213.98C32.1547 214.847 31.9347 215.6 31.4947 216.24C31.0547 216.867 30.4414 217.353 29.6547 217.7C28.868 218.033 27.9547 218.2 26.9147 218.2ZM26.9147 216.6C27.528 216.6 28.0814 216.493 28.5747 216.28C29.068 216.067 29.4614 215.767 29.7547 215.38C30.048 214.98 30.1947 214.513 30.1947 213.98C30.1947 213.433 30.048 212.973 29.7547 212.6C29.4614 212.213 29.068 211.92 28.5747 211.72C28.0814 211.507 27.528 211.4 26.9147 211.4C26.3014 211.4 25.7414 211.507 25.2347 211.72C24.7414 211.92 24.348 212.213 24.0547 212.6C23.7614 212.973 23.6147 213.433 23.6147 213.98C23.6147 214.513 23.7614 214.98 24.0547 215.38C24.348 215.767 24.7414 216.067 25.2347 216.28C25.7414 216.493 26.3014 216.6 26.9147 216.6ZM26.9147 209.82C27.4214 209.82 27.888 209.727 28.3147 209.54C28.7547 209.353 29.1014 209.1 29.3547 208.78C29.6214 208.46 29.7547 208.073 29.7547 207.62C29.7547 207.167 29.628 206.773 29.3747 206.44C29.1347 206.107 28.7947 205.853 28.3547 205.68C27.928 205.493 27.448 205.4 26.9147 205.4C26.3814 205.4 25.8947 205.493 25.4547 205.68C25.028 205.853 24.688 206.107 24.4347 206.44C24.1814 206.773 24.0547 207.167 24.0547 207.62C24.0547 208.087 24.1814 208.487 24.4347 208.82C24.688 209.14 25.028 209.387 25.4547 209.56C25.8947 209.733 26.3814 209.82 26.9147 209.82ZM39.6095 218.2C38.6895 218.2 37.9095 218.06 37.2695 217.78C36.6429 217.487 36.1295 217.087 35.7295 216.58C35.3295 216.073 35.0362 215.493 34.8495 214.84C34.6762 214.187 34.5762 213.493 34.5495 212.76C34.5362 212.4 34.5229 212.02 34.5095 211.62C34.5095 211.22 34.5095 210.82 34.5095 210.42C34.5229 210.007 34.5362 209.613 34.5495 209.24C34.5629 208.507 34.6629 207.813 34.8495 207.16C35.0495 206.493 35.3429 205.913 35.7295 205.42C36.1295 204.913 36.6495 204.52 37.2895 204.24C37.9295 203.947 38.7029 203.8 39.6095 203.8C40.5295 203.8 41.3029 203.947 41.9295 204.24C42.5695 204.52 43.0895 204.913 43.4895 205.42C43.8895 205.913 44.1829 206.493 44.3695 207.16C44.5695 207.813 44.6762 208.507 44.6895 209.24C44.7029 209.613 44.7095 210.007 44.7095 210.42C44.7229 210.82 44.7229 211.22 44.7095 211.62C44.7095 212.02 44.7029 212.4 44.6895 212.76C44.6762 213.493 44.5695 214.187 44.3695 214.84C44.1829 215.493 43.8895 216.073 43.4895 216.58C43.1029 217.087 42.5895 217.487 41.9495 217.78C41.3229 218.06 40.5429 218.2 39.6095 218.2ZM39.6095 216.5C40.6495 216.5 41.4162 216.16 41.9095 215.48C42.4162 214.787 42.6762 213.847 42.6895 212.66C42.7162 212.273 42.7295 211.9 42.7295 211.54C42.7295 211.167 42.7295 210.8 42.7295 210.44C42.7295 210.067 42.7162 209.7 42.6895 209.34C42.6762 208.18 42.4162 207.253 41.9095 206.56C41.4162 205.853 40.6495 205.5 39.6095 205.5C38.5829 205.5 37.8162 205.853 37.3095 206.56C36.8162 207.253 36.5562 208.18 36.5295 209.34C36.5295 209.7 36.5229 210.067 36.5095 210.44C36.5095 210.8 36.5095 211.167 36.5095 211.54C36.5229 211.9 36.5295 212.273 36.5295 212.66C36.5562 213.847 36.8229 214.787 37.3295 215.48C37.8362 216.16 38.5962 216.5 39.6095 216.5ZM53.0672 218C52.9205 218 52.8072 217.96 52.7272 217.88C52.6472 217.787 52.6072 217.673 52.6072 217.54V204.48C52.6072 204.333 52.6472 204.22 52.7272 204.14C52.8072 204.047 52.9205 204 53.0672 204H57.6072C58.9805 204 60.0872 204.207 60.9272 204.62C61.7672 205.033 62.3805 205.647 62.7672 206.46C63.1539 207.26 63.3539 208.247 63.3672 209.42C63.3805 210.02 63.3872 210.547 63.3872 211C63.3872 211.453 63.3805 211.973 63.3672 212.56C63.3405 213.787 63.1339 214.807 62.7472 215.62C62.3739 216.42 61.7739 217.02 60.9472 217.42C60.1339 217.807 59.0539 218 57.7072 218H53.0672ZM54.5672 216.3H57.6072C58.5272 216.3 59.2605 216.173 59.8072 215.92C60.3539 215.667 60.7472 215.26 60.9872 214.7C61.2405 214.14 61.3739 213.4 61.3872 212.48C61.4139 212.08 61.4272 211.733 61.4272 211.44C61.4272 211.133 61.4272 210.833 61.4272 210.54C61.4272 210.233 61.4139 209.887 61.3872 209.5C61.3605 208.207 61.0539 207.253 60.4672 206.64C59.8805 206.013 58.8939 205.7 57.5072 205.7H54.5672V216.3ZM69.0363 218.2C68.3696 218.2 67.7629 218.067 67.2163 217.8C66.6696 217.533 66.2296 217.173 65.8963 216.72C65.5629 216.267 65.3963 215.753 65.3963 215.18C65.3963 214.26 65.7696 213.527 66.5163 212.98C67.2629 212.433 68.2363 212.073 69.4363 211.9L72.4163 211.48V210.9C72.4163 210.26 72.2296 209.76 71.8563 209.4C71.4963 209.04 70.9029 208.86 70.0763 208.86C69.4763 208.86 68.9896 208.98 68.6163 209.22C68.2563 209.46 68.0029 209.767 67.8563 210.14C67.7763 210.34 67.6363 210.44 67.4363 210.44H66.5363C66.3896 210.44 66.2763 210.4 66.1963 210.32C66.1296 210.227 66.0963 210.12 66.0963 210C66.0963 209.8 66.1696 209.553 66.3163 209.26C66.4763 208.967 66.7163 208.68 67.0363 208.4C67.3563 208.12 67.7629 207.887 68.2563 207.7C68.7629 207.5 69.3763 207.4 70.0963 207.4C70.8963 207.4 71.5696 207.507 72.1163 207.72C72.6629 207.92 73.0896 208.193 73.3963 208.54C73.7163 208.887 73.9429 209.28 74.0763 209.72C74.2229 210.16 74.2963 210.607 74.2963 211.06V217.54C74.2963 217.673 74.2496 217.787 74.1563 217.88C74.0763 217.96 73.9696 218 73.8363 218H72.9163C72.7696 218 72.6563 217.96 72.5763 217.88C72.4963 217.787 72.4563 217.673 72.4563 217.54V216.68C72.2829 216.92 72.0496 217.16 71.7563 217.4C71.4629 217.627 71.0963 217.82 70.6563 217.98C70.2163 218.127 69.6763 218.2 69.0363 218.2ZM69.4563 216.7C70.0029 216.7 70.5029 216.587 70.9563 216.36C71.4096 216.12 71.7629 215.753 72.0163 215.26C72.2829 214.767 72.4163 214.147 72.4163 213.4V212.84L70.0963 213.18C69.1496 213.313 68.4363 213.54 67.9563 213.86C67.4763 214.167 67.2363 214.56 67.2363 215.04C67.2363 215.413 67.3429 215.727 67.5563 215.98C67.7829 216.22 68.0629 216.4 68.3963 216.52C68.7429 216.64 69.0963 216.7 69.4563 216.7ZM78.7766 221.8C78.6699 221.8 78.5766 221.76 78.4966 221.68C78.4166 221.6 78.3766 221.507 78.3766 221.4C78.3766 221.347 78.3832 221.293 78.3966 221.24C78.4099 221.187 78.4366 221.12 78.4766 221.04L80.0166 217.38L76.1966 208.36C76.1299 208.2 76.0966 208.087 76.0966 208.02C76.0966 207.9 76.1366 207.8 76.2166 207.72C76.2966 207.64 76.3966 207.6 76.5166 207.6H77.4966C77.6299 207.6 77.7366 207.633 77.8166 207.7C77.8966 207.767 77.9499 207.847 77.9766 207.94L81.0166 215.22L84.1366 207.94C84.1766 207.847 84.2299 207.767 84.2966 207.7C84.3766 207.633 84.4899 207.6 84.6366 207.6H85.5766C85.6966 207.6 85.7966 207.64 85.8766 207.72C85.9566 207.8 85.9966 207.893 85.9966 208C85.9966 208.067 85.9632 208.187 85.8966 208.36L80.2166 221.46C80.1766 221.553 80.1166 221.633 80.0366 221.7C79.9699 221.767 79.8632 221.8 79.7166 221.8H78.7766ZM91.2597 218.2C90.513 218.2 89.873 218.107 89.3397 217.92C88.8064 217.733 88.373 217.507 88.0397 217.24C87.7064 216.973 87.453 216.707 87.2797 216.44C87.1197 216.173 87.033 215.96 87.0197 215.8C87.0064 215.653 87.053 215.54 87.1597 215.46C87.2664 215.38 87.373 215.34 87.4797 215.34H88.3597C88.4397 215.34 88.4997 215.353 88.5397 215.38C88.593 215.393 88.6597 215.447 88.7397 215.54C88.913 215.727 89.1064 215.913 89.3197 216.1C89.533 216.287 89.793 216.44 90.0997 216.56C90.4197 216.68 90.813 216.74 91.2797 216.74C91.9597 216.74 92.5197 216.613 92.9597 216.36C93.3997 216.093 93.6197 215.707 93.6197 215.2C93.6197 214.867 93.5264 214.6 93.3397 214.4C93.1664 214.2 92.8464 214.02 92.3797 213.86C91.9264 213.7 91.2997 213.533 90.4997 213.36C89.6997 213.173 89.0664 212.947 88.5997 212.68C88.133 212.4 87.7997 212.073 87.5997 211.7C87.3997 211.313 87.2997 210.88 87.2997 210.4C87.2997 209.907 87.4464 209.433 87.7397 208.98C88.033 208.513 88.4597 208.133 89.0197 207.84C89.593 207.547 90.3064 207.4 91.1597 207.4C91.853 207.4 92.4464 207.487 92.9397 207.66C93.433 207.833 93.8397 208.053 94.1597 208.32C94.4797 208.573 94.7197 208.827 94.8797 209.08C95.0397 209.333 95.1264 209.547 95.1397 209.72C95.153 209.853 95.113 209.967 95.0197 210.06C94.9264 210.14 94.8197 210.18 94.6997 210.18H93.8597C93.7664 210.18 93.6864 210.16 93.6197 210.12C93.5664 210.08 93.513 210.033 93.4597 209.98C93.3264 209.807 93.1664 209.633 92.9797 209.46C92.8064 209.287 92.573 209.147 92.2797 209.04C91.9997 208.92 91.6264 208.86 91.1597 208.86C90.493 208.86 89.993 209 89.6597 209.28C89.3264 209.56 89.1597 209.913 89.1597 210.34C89.1597 210.593 89.233 210.82 89.3797 211.02C89.5264 211.22 89.8064 211.4 90.2197 211.56C90.633 211.72 91.2464 211.893 92.0597 212.08C92.9397 212.253 93.633 212.487 94.1397 212.78C94.6464 213.073 95.0064 213.413 95.2197 213.8C95.433 214.187 95.5397 214.633 95.5397 215.14C95.5397 215.7 95.373 216.213 95.0397 216.68C94.7197 217.147 94.2397 217.52 93.5997 217.8C92.973 218.067 92.193 218.2 91.2597 218.2ZM17.96 277.2C17.12 277.2 16.3867 277.1 15.76 276.9C15.1333 276.687 14.6067 276.407 14.18 276.06C13.7533 275.713 13.4267 275.333 13.2 274.92C12.9867 274.507 12.8733 274.08 12.86 273.64C12.86 273.52 12.9 273.427 12.98 273.36C13.06 273.293 13.16 273.26 13.28 273.26H14.26C14.38 273.26 14.4867 273.287 14.58 273.34C14.6733 273.393 14.7533 273.507 14.82 273.68C14.9533 274.16 15.18 274.533 15.5 274.8C15.8333 275.067 16.2133 275.253 16.64 275.36C17.08 275.453 17.52 275.5 17.96 275.5C18.88 275.5 19.6267 275.28 20.2 274.84C20.7733 274.4 21.06 273.753 21.06 272.9C21.06 272.033 20.8 271.413 20.28 271.04C19.76 270.667 19.04 270.48 18.12 270.48H16.22C16.0867 270.48 15.9733 270.44 15.88 270.36C15.8 270.28 15.76 270.167 15.76 270.02V269.48C15.76 269.36 15.78 269.26 15.82 269.18C15.8733 269.087 15.9267 269.007 15.98 268.94L19.86 264.7H13.96C13.8267 264.7 13.7133 264.66 13.62 264.58C13.54 264.5 13.5 264.387 13.5 264.24V263.48C13.5 263.333 13.54 263.22 13.62 263.14C13.7133 263.047 13.8267 263 13.96 263H21.94C22.0867 263 22.2 263.047 22.28 263.14C22.3733 263.22 22.42 263.333 22.42 263.48V264.2C22.42 264.293 22.3933 264.38 22.34 264.46C22.3 264.527 22.2533 264.593 22.2 264.66L18.34 268.96L18.66 268.98C19.54 269.007 20.3067 269.167 20.96 269.46C21.6267 269.753 22.14 270.193 22.5 270.78C22.8733 271.353 23.06 272.08 23.06 272.96C23.06 273.853 22.84 274.62 22.4 275.26C21.96 275.887 21.3533 276.367 20.58 276.7C19.8067 277.033 18.9333 277.2 17.96 277.2ZM30.1717 277.2C29.0651 277.2 28.1251 276.98 27.3517 276.54C26.5784 276.087 25.9851 275.5 25.5717 274.78C25.1717 274.047 24.9717 273.253 24.9717 272.4C24.9717 272 25.0184 271.62 25.1117 271.26C25.2184 270.887 25.3451 270.54 25.4917 270.22C25.6517 269.887 25.8051 269.593 25.9517 269.34C26.1117 269.073 26.2517 268.86 26.3717 268.7L30.1717 263.4C30.2384 263.333 30.3184 263.253 30.4117 263.16C30.5051 263.053 30.6451 263 30.8317 263H31.8917C32.0117 263 32.1051 263.047 32.1717 263.14C32.2517 263.22 32.2917 263.32 32.2917 263.44C32.2917 263.493 32.2851 263.547 32.2717 263.6C32.2584 263.64 32.2384 263.673 32.2117 263.7L29.2917 267.78C29.4517 267.727 29.6317 267.693 29.8317 267.68C30.0451 267.653 30.2451 267.64 30.4317 267.64C31.1651 267.653 31.8317 267.787 32.4317 268.04C33.0317 268.293 33.5451 268.64 33.9717 269.08C34.4117 269.507 34.7451 270.007 34.9717 270.58C35.1984 271.14 35.3117 271.74 35.3117 272.38C35.3117 273.22 35.1117 274.007 34.7117 274.74C34.3117 275.473 33.7251 276.067 32.9517 276.52C32.1917 276.973 31.2651 277.2 30.1717 277.2ZM30.1517 275.5C30.7117 275.5 31.2317 275.38 31.7117 275.14C32.1917 274.9 32.5784 274.553 32.8717 274.1C33.1784 273.633 33.3317 273.067 33.3317 272.4C33.3317 271.72 33.1851 271.153 32.8917 270.7C32.5984 270.233 32.2051 269.887 31.7117 269.66C31.2317 269.42 30.7117 269.3 30.1517 269.3C29.5917 269.3 29.0717 269.42 28.5917 269.66C28.1117 269.887 27.7184 270.233 27.4117 270.7C27.1184 271.153 26.9717 271.72 26.9717 272.4C26.9717 273.067 27.1184 273.633 27.4117 274.1C27.7184 274.553 28.1117 274.9 28.5917 275.14C29.0717 275.38 29.5917 275.5 30.1517 275.5ZM41.9025 277.2C40.8492 277.2 39.9558 277.02 39.2225 276.66C38.5025 276.287 37.9492 275.807 37.5625 275.22C37.1892 274.633 36.9892 274.013 36.9625 273.36C36.9492 273.24 36.9825 273.147 37.0625 273.08C37.1425 273.013 37.2425 272.98 37.3625 272.98H38.4425C38.5625 272.98 38.6692 273.007 38.7625 273.06C38.8558 273.113 38.9292 273.227 38.9825 273.4C39.1158 273.893 39.3292 274.3 39.6225 274.62C39.9292 274.927 40.2758 275.153 40.6625 275.3C41.0625 275.433 41.4758 275.5 41.9025 275.5C42.4758 275.5 42.9958 275.387 43.4625 275.16C43.9425 274.92 44.3225 274.573 44.6025 274.12C44.8825 273.653 45.0225 273.093 45.0225 272.44C45.0225 271.84 44.8825 271.327 44.6025 270.9C44.3358 270.46 43.9625 270.127 43.4825 269.9C43.0158 269.66 42.4892 269.54 41.9025 269.54C41.4625 269.54 41.1025 269.593 40.8225 269.7C40.5425 269.807 40.3025 269.933 40.1025 270.08C39.9158 270.227 39.7425 270.353 39.5825 270.46C39.4358 270.567 39.2692 270.62 39.0825 270.62H38.0425C37.9225 270.62 37.8158 270.58 37.7225 270.5C37.6292 270.407 37.5892 270.3 37.6025 270.18L38.2425 263.5C38.2558 263.34 38.3025 263.22 38.3825 263.14C38.4758 263.047 38.5958 263 38.7425 263H45.7225C45.8558 263 45.9625 263.047 46.0425 263.14C46.1358 263.22 46.1825 263.327 46.1825 263.46V264.24C46.1825 264.387 46.1358 264.5 46.0425 264.58C45.9625 264.66 45.8558 264.7 45.7225 264.7H39.9625L39.5825 268.64C39.7692 268.52 40.0692 268.38 40.4825 268.22C40.8958 268.047 41.4625 267.96 42.1825 267.96C42.8358 267.96 43.4492 268.06 44.0225 268.26C44.6092 268.46 45.1292 268.753 45.5825 269.14C46.0358 269.527 46.3892 270 46.6425 270.56C46.8958 271.107 47.0225 271.74 47.0225 272.46C47.0225 273.473 46.7958 274.333 46.3425 275.04C45.9025 275.747 45.2958 276.287 44.5225 276.66C43.7625 277.02 42.8892 277.2 41.9025 277.2ZM55.0398 277C54.8932 277 54.7798 276.96 54.6998 276.88C54.6198 276.787 54.5798 276.673 54.5798 276.54V263.48C54.5798 263.333 54.6198 263.22 54.6998 263.14C54.7798 263.047 54.8932 263 55.0398 263H59.5798C60.9532 263 62.0598 263.207 62.8998 263.62C63.7398 264.033 64.3532 264.647 64.7398 265.46C65.1265 266.26 65.3265 267.247 65.3398 268.42C65.3532 269.02 65.3598 269.547 65.3598 270C65.3598 270.453 65.3532 270.973 65.3398 271.56C65.3132 272.787 65.1065 273.807 64.7198 274.62C64.3465 275.42 63.7465 276.02 62.9198 276.42C62.1065 276.807 61.0265 277 59.6798 277H55.0398ZM56.5398 275.3H59.5798C60.4998 275.3 61.2332 275.173 61.7798 274.92C62.3265 274.667 62.7198 274.26 62.9598 273.7C63.2132 273.14 63.3465 272.4 63.3598 271.48C63.3865 271.08 63.3998 270.733 63.3998 270.44C63.3998 270.133 63.3998 269.833 63.3998 269.54C63.3998 269.233 63.3865 268.887 63.3598 268.5C63.3332 267.207 63.0265 266.253 62.4398 265.64C61.8532 265.013 60.8665 264.7 59.4798 264.7H56.5398V275.3ZM71.0089 277.2C70.3422 277.2 69.7356 277.067 69.1889 276.8C68.6422 276.533 68.2022 276.173 67.8689 275.72C67.5356 275.267 67.3689 274.753 67.3689 274.18C67.3689 273.26 67.7422 272.527 68.4889 271.98C69.2356 271.433 70.2089 271.073 71.4089 270.9L74.3889 270.48V269.9C74.3889 269.26 74.2022 268.76 73.8289 268.4C73.4689 268.04 72.8756 267.86 72.0489 267.86C71.4489 267.86 70.9622 267.98 70.5889 268.22C70.2289 268.46 69.9756 268.767 69.8289 269.14C69.7489 269.34 69.6089 269.44 69.4089 269.44H68.5089C68.3622 269.44 68.2489 269.4 68.1689 269.32C68.1022 269.227 68.0689 269.12 68.0689 269C68.0689 268.8 68.1422 268.553 68.2889 268.26C68.4489 267.967 68.6889 267.68 69.0089 267.4C69.3289 267.12 69.7356 266.887 70.2289 266.7C70.7356 266.5 71.3489 266.4 72.0689 266.4C72.8689 266.4 73.5422 266.507 74.0889 266.72C74.6356 266.92 75.0622 267.193 75.3689 267.54C75.6889 267.887 75.9156 268.28 76.0489 268.72C76.1956 269.16 76.2689 269.607 76.2689 270.06V276.54C76.2689 276.673 76.2222 276.787 76.1289 276.88C76.0489 276.96 75.9422 277 75.8089 277H74.8889C74.7422 277 74.6289 276.96 74.5489 276.88C74.4689 276.787 74.4289 276.673 74.4289 276.54V275.68C74.2556 275.92 74.0222 276.16 73.7289 276.4C73.4356 276.627 73.0689 276.82 72.6289 276.98C72.1889 277.127 71.6489 277.2 71.0089 277.2ZM71.4289 275.7C71.9756 275.7 72.4756 275.587 72.9289 275.36C73.3822 275.12 73.7356 274.753 73.9889 274.26C74.2556 273.767 74.3889 273.147 74.3889 272.4V271.84L72.0689 272.18C71.1222 272.313 70.4089 272.54 69.9289 272.86C69.4489 273.167 69.2089 273.56 69.2089 274.04C69.2089 274.413 69.3156 274.727 69.5289 274.98C69.7556 275.22 70.0356 275.4 70.3689 275.52C70.7156 275.64 71.0689 275.7 71.4289 275.7ZM80.7492 280.8C80.6426 280.8 80.5492 280.76 80.4692 280.68C80.3892 280.6 80.3492 280.507 80.3492 280.4C80.3492 280.347 80.3559 280.293 80.3692 280.24C80.3826 280.187 80.4092 280.12 80.4492 280.04L81.9892 276.38L78.1692 267.36C78.1026 267.2 78.0692 267.087 78.0692 267.02C78.0692 266.9 78.1092 266.8 78.1892 266.72C78.2692 266.64 78.3692 266.6 78.4892 266.6H79.4692C79.6026 266.6 79.7092 266.633 79.7892 266.7C79.8692 266.767 79.9226 266.847 79.9492 266.94L82.9892 274.22L86.1092 266.94C86.1492 266.847 86.2026 266.767 86.2692 266.7C86.3492 266.633 86.4626 266.6 86.6092 266.6H87.5492C87.6692 266.6 87.7692 266.64 87.8492 266.72C87.9292 266.8 87.9692 266.893 87.9692 267C87.9692 267.067 87.9359 267.187 87.8692 267.36L82.1892 280.46C82.1492 280.553 82.0892 280.633 82.0092 280.7C81.9426 280.767 81.8359 280.8 81.6892 280.8H80.7492ZM93.2323 277.2C92.4857 277.2 91.8457 277.107 91.3123 276.92C90.779 276.733 90.3457 276.507 90.0123 276.24C89.679 275.973 89.4257 275.707 89.2523 275.44C89.0923 275.173 89.0057 274.96 88.9923 274.8C88.979 274.653 89.0257 274.54 89.1323 274.46C89.239 274.38 89.3457 274.34 89.4523 274.34H90.3323C90.4123 274.34 90.4723 274.353 90.5123 274.38C90.5657 274.393 90.6323 274.447 90.7123 274.54C90.8857 274.727 91.079 274.913 91.2923 275.1C91.5057 275.287 91.7657 275.44 92.0723 275.56C92.3923 275.68 92.7857 275.74 93.2523 275.74C93.9323 275.74 94.4923 275.613 94.9323 275.36C95.3723 275.093 95.5923 274.707 95.5923 274.2C95.5923 273.867 95.499 273.6 95.3123 273.4C95.139 273.2 94.819 273.02 94.3523 272.86C93.899 272.7 93.2723 272.533 92.4723 272.36C91.6723 272.173 91.039 271.947 90.5723 271.68C90.1057 271.4 89.7723 271.073 89.5723 270.7C89.3723 270.313 89.2723 269.88 89.2723 269.4C89.2723 268.907 89.419 268.433 89.7123 267.98C90.0057 267.513 90.4323 267.133 90.9923 266.84C91.5657 266.547 92.279 266.4 93.1323 266.4C93.8257 266.4 94.419 266.487 94.9123 266.66C95.4057 266.833 95.8123 267.053 96.1323 267.32C96.4523 267.573 96.6923 267.827 96.8523 268.08C97.0123 268.333 97.099 268.547 97.1123 268.72C97.1257 268.853 97.0857 268.967 96.9923 269.06C96.899 269.14 96.7923 269.18 96.6723 269.18H95.8323C95.739 269.18 95.659 269.16 95.5923 269.12C95.539 269.08 95.4857 269.033 95.4323 268.98C95.299 268.807 95.139 268.633 94.9523 268.46C94.779 268.287 94.5457 268.147 94.2523 268.04C93.9723 267.92 93.599 267.86 93.1323 267.86C92.4657 267.86 91.9657 268 91.6323 268.28C91.299 268.56 91.1323 268.913 91.1323 269.34C91.1323 269.593 91.2057 269.82 91.3523 270.02C91.499 270.22 91.779 270.4 92.1923 270.56C92.6057 270.72 93.219 270.893 94.0323 271.08C94.9123 271.253 95.6057 271.487 96.1123 271.78C96.619 272.073 96.979 272.413 97.1923 272.8C97.4057 273.187 97.5123 273.633 97.5123 274.14C97.5123 274.7 97.3457 275.213 97.0123 275.68C96.6923 276.147 96.2123 276.52 95.5723 276.8C94.9457 277.067 94.1657 277.2 93.2323 277.2Z" fill="black"/>
<rect width="88" height="43" rx="18" fill="#F6F6F6"/>
<path d="M21.98 28C21.8333 28 21.7133 27.9533 21.62 27.86C21.5267 27.7667 21.48 27.6467 21.48 27.5V14.5C21.48 14.3533 21.5267 14.2333 21.62 14.14C21.7133 14.0467 21.8333 14 21.98 14H27C28.3333 14 29.4467 14.2133 30.34 14.64C31.2333 15.0533 31.9133 15.6667 32.38 16.48C32.86 17.28 33.1133 18.2733 33.14 19.46C33.1533 20.0467 33.16 20.56 33.16 21C33.16 21.44 33.1533 21.9467 33.14 22.52C33.1 23.76 32.8533 24.7867 32.4 25.6C31.9467 26.4133 31.28 27.02 30.4 27.42C29.52 27.8067 28.42 28 27.1 28H21.98ZM24.66 25.42H27C27.6667 25.42 28.2133 25.32 28.64 25.12C29.0667 24.92 29.38 24.6067 29.58 24.18C29.7933 23.74 29.9067 23.1733 29.92 22.48C29.9333 22.0933 29.94 21.7467 29.94 21.44C29.9533 21.1333 29.9533 20.8267 29.94 20.52C29.94 20.2133 29.9333 19.8733 29.92 19.5C29.8933 18.5 29.6333 17.7667 29.14 17.3C28.66 16.82 27.9133 16.58 26.9 16.58H24.66V25.42ZM38.4997 28.2C37.793 28.2 37.1597 28.0667 36.5997 27.8C36.0397 27.52 35.593 27.1467 35.2597 26.68C34.9264 26.2133 34.7597 25.6933 34.7597 25.12C34.7597 24.1733 35.1397 23.4267 35.8997 22.88C36.673 22.3333 37.6864 21.96 38.9397 21.76L41.5597 21.38V21.02C41.5597 20.5 41.4397 20.1 41.1997 19.82C40.9597 19.54 40.5397 19.4 39.9397 19.4C39.4997 19.4 39.1464 19.4867 38.8797 19.66C38.613 19.8333 38.4064 20.06 38.2597 20.34C38.153 20.5133 37.9997 20.6 37.7997 20.6H35.8997C35.753 20.6 35.6397 20.56 35.5597 20.48C35.4797 20.3867 35.4464 20.28 35.4597 20.16C35.4597 19.9333 35.5464 19.6667 35.7197 19.36C35.893 19.0533 36.1597 18.7533 36.5197 18.46C36.8797 18.1533 37.3397 17.9 37.8997 17.7C38.4597 17.5 39.1464 17.4 39.9597 17.4C40.7997 17.4 41.5197 17.5 42.1197 17.7C42.7197 17.9 43.1997 18.18 43.5597 18.54C43.9197 18.9 44.1864 19.32 44.3597 19.8C44.533 20.2667 44.6197 20.7733 44.6197 21.32V27.5C44.6197 27.6467 44.573 27.7667 44.4797 27.86C44.3864 27.9533 44.2664 28 44.1197 28H42.1597C42.0264 28 41.913 27.9533 41.8197 27.86C41.7264 27.7667 41.6797 27.6467 41.6797 27.5V26.76C41.5064 27.0133 41.273 27.2533 40.9797 27.48C40.6864 27.6933 40.333 27.8667 39.9197 28C39.5197 28.1333 39.0464 28.2 38.4997 28.2ZM39.2997 26.12C39.7397 26.12 40.133 26.0267 40.4797 25.84C40.8264 25.6533 41.0997 25.3667 41.2997 24.98C41.4997 24.5933 41.5997 24.1067 41.5997 23.52V23.18L39.7397 23.48C39.0197 23.6 38.493 23.78 38.1597 24.02C37.8264 24.26 37.6597 24.5533 37.6597 24.9C37.6597 25.1533 37.733 25.3733 37.8797 25.56C38.0397 25.7467 38.2464 25.8867 38.4997 25.98C38.753 26.0733 39.0197 26.12 39.2997 26.12ZM48.6288 31.8C48.5221 31.8 48.4221 31.76 48.3288 31.68C48.2488 31.6 48.2088 31.5 48.2088 31.38C48.2088 31.3533 48.2154 31.3133 48.2288 31.26C48.2421 31.22 48.2621 31.1667 48.2888 31.1L49.8488 27.36L46.0088 18.3C45.9688 18.1933 45.9488 18.1067 45.9488 18.04C45.9621 17.92 46.0088 17.82 46.0888 17.74C46.1688 17.6467 46.2688 17.6 46.3888 17.6H48.3288C48.5021 17.6 48.6288 17.6467 48.7088 17.74C48.7888 17.82 48.8488 17.9067 48.8888 18L51.3688 24.2L53.9088 18C53.9621 17.8933 54.0288 17.8 54.1088 17.72C54.1888 17.64 54.3154 17.6 54.4888 17.6H56.3888C56.5088 17.6 56.6088 17.6467 56.6888 17.74C56.7821 17.82 56.8288 17.9133 56.8288 18.02C56.8288 18.0867 56.8021 18.18 56.7488 18.3L51.0888 31.4C51.0488 31.5067 50.9821 31.6 50.8888 31.68C50.8088 31.76 50.6821 31.8 50.5088 31.8H48.6288ZM62.1959 28.2C61.3693 28.2 60.6559 28.1067 60.0559 27.92C59.4693 27.72 58.9893 27.48 58.6159 27.2C58.2559 26.92 57.9826 26.64 57.7959 26.36C57.6226 26.0667 57.5293 25.82 57.5159 25.62C57.5026 25.4733 57.5493 25.3533 57.6559 25.26C57.7626 25.1667 57.8693 25.12 57.9759 25.12H59.9159C59.9559 25.12 59.9959 25.1267 60.0359 25.14C60.0759 25.1533 60.1159 25.1867 60.1559 25.24C60.3293 25.36 60.5093 25.5 60.6959 25.66C60.8826 25.8067 61.0959 25.9333 61.3359 26.04C61.5893 26.1467 61.9026 26.2 62.2759 26.2C62.7159 26.2 63.0893 26.1133 63.3959 25.94C63.7026 25.7533 63.8559 25.4933 63.8559 25.16C63.8559 24.92 63.7826 24.72 63.6359 24.56C63.5026 24.4 63.2426 24.2533 62.8559 24.12C62.4693 23.9867 61.8959 23.84 61.1359 23.68C60.4159 23.52 59.8026 23.3067 59.2959 23.04C58.7893 22.7733 58.4093 22.44 58.1559 22.04C57.9026 21.6267 57.7759 21.1333 57.7759 20.56C57.7759 20.04 57.9359 19.54 58.2559 19.06C58.5893 18.58 59.0759 18.1867 59.7159 17.88C60.3559 17.56 61.1559 17.4 62.1159 17.4C62.8493 17.4 63.4893 17.4933 64.0359 17.68C64.5959 17.8533 65.0626 18.08 65.4359 18.36C65.8093 18.6267 66.0893 18.9067 66.2759 19.2C66.4759 19.48 66.5826 19.7267 66.5959 19.94C66.6093 20.0733 66.5693 20.1867 66.4759 20.28C66.3826 20.3733 66.2759 20.42 66.1559 20.42H64.3759C64.3093 20.42 64.2493 20.4133 64.1959 20.4C64.1426 20.3733 64.0959 20.34 64.0559 20.3C63.8959 20.1933 63.7293 20.0733 63.5559 19.94C63.3959 19.7933 63.2026 19.6667 62.9759 19.56C62.7493 19.4533 62.4559 19.4 62.0959 19.4C61.6559 19.4 61.3159 19.5 61.0759 19.7C60.8493 19.8867 60.7359 20.1267 60.7359 20.42C60.7359 20.6067 60.7959 20.78 60.9159 20.94C61.0359 21.1 61.2826 21.2467 61.6559 21.38C62.0293 21.5133 62.5959 21.6533 63.3559 21.8C64.2626 21.96 64.9826 22.2 65.5159 22.52C66.0493 22.84 66.4293 23.2133 66.6559 23.64C66.8959 24.0533 67.0159 24.5 67.0159 24.98C67.0159 25.6067 66.8293 26.1667 66.4559 26.66C66.0826 27.14 65.5359 27.52 64.8159 27.8C64.1093 28.0667 63.2359 28.2 62.1959 28.2Z" fill="black"/>
<rect x="150" y="13" width="155" height="293" rx="18" fill="#0C71BC" fill-opacity="0.4"/>
<path d="M214.34 100C214.193 100 214.067 99.9533 213.96 99.86C213.867 99.7667 213.82 99.6467 213.82 99.5V98.08C213.82 97.9867 213.847 97.8467 213.9 97.66C213.953 97.46 214.093 97.2733 214.32 97.1L216.4 95.06C217.467 94.2467 218.34 93.56 219.02 93C219.713 92.4267 220.227 91.92 220.56 91.48C220.893 91.04 221.06 90.6267 221.06 90.24C221.06 89.7867 220.94 89.4133 220.7 89.12C220.473 88.8133 220.073 88.66 219.5 88.66C219.113 88.66 218.787 88.7467 218.52 88.92C218.267 89.08 218.073 89.2933 217.94 89.56C217.807 89.8267 217.713 90.1 217.66 90.38C217.607 90.5533 217.513 90.6733 217.38 90.74C217.26 90.8067 217.127 90.84 216.98 90.84H214.48C214.36 90.84 214.26 90.8 214.18 90.72C214.1 90.64 214.06 90.54 214.06 90.42C214.073 89.78 214.207 89.18 214.46 88.62C214.727 88.06 215.093 87.5667 215.56 87.14C216.04 86.7 216.607 86.36 217.26 86.12C217.927 85.88 218.673 85.76 219.5 85.76C220.633 85.76 221.593 85.94 222.38 86.3C223.18 86.66 223.787 87.1667 224.2 87.82C224.613 88.46 224.82 89.2133 224.82 90.08C224.82 90.7333 224.673 91.3467 224.38 91.92C224.1 92.48 223.693 93.02 223.16 93.54C222.64 94.0467 222.02 94.5733 221.3 95.12L219.46 96.98H224.6C224.747 96.98 224.867 97.0267 224.96 97.12C225.067 97.2133 225.12 97.3333 225.12 97.48V99.5C225.12 99.6467 225.067 99.7667 224.96 99.86C224.867 99.9533 224.747 100 224.6 100H214.34ZM228.248 100C227.941 100 227.788 99.8667 227.788 99.6C227.788 99.52 227.814 99.4467 227.868 99.38L237.748 86.38C237.841 86.26 237.934 86.1667 238.028 86.1C238.121 86.0333 238.261 86 238.448 86H239.868C240.174 86 240.328 86.1333 240.328 86.4C240.328 86.48 240.301 86.5533 240.248 86.62L230.368 99.62C230.274 99.74 230.181 99.8333 230.088 99.9C229.994 99.9667 229.854 100 229.668 100H228.248ZM238.308 100.1C237.401 100.1 236.674 99.86 236.128 99.38C235.594 98.9 235.294 98.26 235.228 97.46C235.214 97.1133 235.208 96.8067 235.208 96.54C235.208 96.2733 235.214 95.9533 235.228 95.58C235.281 94.7667 235.568 94.12 236.088 93.64C236.621 93.1467 237.361 92.9 238.308 92.9C239.268 92.9 240.008 93.1467 240.528 93.64C241.048 94.12 241.334 94.7667 241.388 95.58C241.414 95.9533 241.428 96.2733 241.428 96.54C241.428 96.8067 241.414 97.1133 241.388 97.46C241.334 98.26 241.034 98.9 240.488 99.38C239.941 99.86 239.214 100.1 238.308 100.1ZM238.308 98.34C238.534 98.34 238.708 98.2933 238.828 98.2C238.961 98.1067 239.061 97.9867 239.128 97.84C239.194 97.68 239.228 97.5133 239.228 97.34C239.254 97.0333 239.268 96.7533 239.268 96.5C239.268 96.2467 239.254 95.9733 239.228 95.68C239.214 95.4267 239.141 95.2 239.008 95C238.874 94.7867 238.641 94.68 238.308 94.68C237.974 94.68 237.741 94.7867 237.608 95C237.474 95.2 237.401 95.4267 237.388 95.68C237.374 95.9733 237.368 96.2467 237.368 96.5C237.368 96.7533 237.374 97.0333 237.388 97.34C237.401 97.5133 237.434 97.68 237.488 97.84C237.554 97.9867 237.654 98.1067 237.788 98.2C237.921 98.2933 238.094 98.34 238.308 98.34ZM229.848 93.06C228.928 93.06 228.194 92.8267 227.648 92.36C227.114 91.88 226.821 91.24 226.768 90.44C226.741 90.0933 226.728 89.7933 226.728 89.54C226.741 89.2733 226.754 88.9533 226.768 88.58C226.808 87.7667 227.088 87.12 227.608 86.64C228.141 86.1467 228.888 85.9 229.848 85.9C230.808 85.9 231.548 86.1467 232.068 86.64C232.588 87.12 232.868 87.7667 232.908 88.58C232.934 88.9533 232.948 89.2733 232.948 89.54C232.948 89.7933 232.934 90.0933 232.908 90.44C232.868 91.24 232.574 91.88 232.028 92.36C231.481 92.8267 230.754 93.06 229.848 93.06ZM229.848 91.34C230.061 91.34 230.234 91.2933 230.368 91.2C230.501 91.0933 230.601 90.9667 230.668 90.82C230.734 90.66 230.768 90.5 230.768 90.34C230.794 90.0333 230.808 89.7533 230.808 89.5C230.808 89.2467 230.794 88.9733 230.768 88.68C230.754 88.4267 230.674 88.2 230.528 88C230.394 87.7867 230.168 87.68 229.848 87.68C229.514 87.68 229.274 87.7867 229.128 88C228.994 88.2 228.921 88.4267 228.908 88.68C228.894 88.9733 228.888 89.2467 228.888 89.5C228.888 89.7533 228.894 90.0333 228.908 90.34C228.921 90.5 228.954 90.66 229.008 90.82C229.074 90.9667 229.174 91.0933 229.308 91.2C229.441 91.2933 229.621 91.34 229.848 91.34ZM216.48 159C216.36 159 216.26 158.96 216.18 158.88C216.1 158.787 216.06 158.68 216.06 158.56C216.06 158.493 216.067 158.44 216.08 158.4C216.107 158.36 216.127 158.327 216.14 158.3L218.96 154.44C218.773 154.48 218.58 154.5 218.38 154.5C217.78 154.46 217.193 154.327 216.62 154.1C216.047 153.86 215.527 153.54 215.06 153.14C214.607 152.727 214.247 152.24 213.98 151.68C213.713 151.12 213.58 150.493 213.58 149.8C213.58 149.16 213.7 148.547 213.94 147.96C214.18 147.36 214.54 146.827 215.02 146.36C215.5 145.88 216.093 145.5 216.8 145.22C217.52 144.94 218.353 144.8 219.3 144.8C220.247 144.8 221.08 144.927 221.8 145.18C222.533 145.433 223.147 145.787 223.64 146.24C224.147 146.68 224.527 147.193 224.78 147.78C225.033 148.367 225.16 148.993 225.16 149.66C225.16 150.273 225.047 150.84 224.82 151.36C224.607 151.88 224.34 152.373 224.02 152.84C223.7 153.293 223.38 153.753 223.06 154.22L219.86 158.6C219.807 158.667 219.727 158.753 219.62 158.86C219.513 158.953 219.353 159 219.14 159H216.48ZM219.34 151.88C219.74 151.88 220.1 151.793 220.42 151.62C220.74 151.447 220.993 151.207 221.18 150.9C221.367 150.593 221.46 150.22 221.46 149.78C221.46 149.34 221.367 148.967 221.18 148.66C220.993 148.34 220.74 148.1 220.42 147.94C220.1 147.767 219.74 147.68 219.34 147.68C218.953 147.68 218.6 147.767 218.28 147.94C217.96 148.1 217.707 148.34 217.52 148.66C217.333 148.967 217.24 149.34 217.24 149.78C217.24 150.22 217.333 150.593 217.52 150.9C217.707 151.207 217.96 151.447 218.28 151.62C218.6 151.793 218.953 151.88 219.34 151.88ZM228.053 159C227.746 159 227.593 158.867 227.593 158.6C227.593 158.52 227.619 158.447 227.673 158.38L237.553 145.38C237.646 145.26 237.739 145.167 237.833 145.1C237.926 145.033 238.066 145 238.253 145H239.673C239.979 145 240.133 145.133 240.133 145.4C240.133 145.48 240.106 145.553 240.053 145.62L230.173 158.62C230.079 158.74 229.986 158.833 229.893 158.9C229.799 158.967 229.659 159 229.473 159H228.053ZM238.113 159.1C237.206 159.1 236.479 158.86 235.933 158.38C235.399 157.9 235.099 157.26 235.033 156.46C235.019 156.113 235.013 155.807 235.013 155.54C235.013 155.273 235.019 154.953 235.033 154.58C235.086 153.767 235.373 153.12 235.893 152.64C236.426 152.147 237.166 151.9 238.113 151.9C239.073 151.9 239.813 152.147 240.333 152.64C240.853 153.12 241.139 153.767 241.193 154.58C241.219 154.953 241.233 155.273 241.233 155.54C241.233 155.807 241.219 156.113 241.193 156.46C241.139 157.26 240.839 157.9 240.293 158.38C239.746 158.86 239.019 159.1 238.113 159.1ZM238.113 157.34C238.339 157.34 238.513 157.293 238.633 157.2C238.766 157.107 238.866 156.987 238.933 156.84C238.999 156.68 239.033 156.513 239.033 156.34C239.059 156.033 239.073 155.753 239.073 155.5C239.073 155.247 239.059 154.973 239.033 154.68C239.019 154.427 238.946 154.2 238.813 154C238.679 153.787 238.446 153.68 238.113 153.68C237.779 153.68 237.546 153.787 237.413 154C237.279 154.2 237.206 154.427 237.193 154.68C237.179 154.973 237.173 155.247 237.173 155.5C237.173 155.753 237.179 156.033 237.193 156.34C237.206 156.513 237.239 156.68 237.293 156.84C237.359 156.987 237.459 157.107 237.593 157.2C237.726 157.293 237.899 157.34 238.113 157.34ZM229.653 152.06C228.733 152.06 227.999 151.827 227.453 151.36C226.919 150.88 226.626 150.24 226.573 149.44C226.546 149.093 226.533 148.793 226.533 148.54C226.546 148.273 226.559 147.953 226.573 147.58C226.613 146.767 226.893 146.12 227.413 145.64C227.946 145.147 228.693 144.9 229.653 144.9C230.612 144.9 231.353 145.147 231.873 145.64C232.393 146.12 232.673 146.767 232.713 147.58C232.739 147.953 232.753 148.273 232.753 148.54C232.753 148.793 232.739 149.093 232.713 149.44C232.673 150.24 232.379 150.88 231.833 151.36C231.286 151.827 230.559 152.06 229.653 152.06ZM229.653 150.34C229.866 150.34 230.039 150.293 230.173 150.2C230.306 150.093 230.406 149.967 230.473 149.82C230.539 149.66 230.573 149.5 230.573 149.34C230.599 149.033 230.613 148.753 230.613 148.5C230.613 148.247 230.599 147.973 230.573 147.68C230.559 147.427 230.479 147.2 230.333 147C230.199 146.787 229.973 146.68 229.653 146.68C229.319 146.68 229.079 146.787 228.933 147C228.799 147.2 228.726 147.427 228.713 147.68C228.699 147.973 228.693 148.247 228.693 148.5C228.693 148.753 228.699 149.033 228.713 149.34C228.726 149.5 228.759 149.66 228.813 149.82C228.879 149.967 228.979 150.093 229.113 150.2C229.246 150.293 229.426 150.34 229.653 150.34ZM214.34 218C214.193 218 214.067 217.953 213.96 217.86C213.867 217.767 213.82 217.647 213.82 217.5V216.08C213.82 215.987 213.847 215.847 213.9 215.66C213.953 215.46 214.093 215.273 214.32 215.1L216.4 213.06C217.467 212.247 218.34 211.56 219.02 211C219.713 210.427 220.227 209.92 220.56 209.48C220.893 209.04 221.06 208.627 221.06 208.24C221.06 207.787 220.94 207.413 220.7 207.12C220.473 206.813 220.073 206.66 219.5 206.66C219.113 206.66 218.787 206.747 218.52 206.92C218.267 207.08 218.073 207.293 217.94 207.56C217.807 207.827 217.713 208.1 217.66 208.38C217.607 208.553 217.513 208.673 217.38 208.74C217.26 208.807 217.127 208.84 216.98 208.84H214.48C214.36 208.84 214.26 208.8 214.18 208.72C214.1 208.64 214.06 208.54 214.06 208.42C214.073 207.78 214.207 207.18 214.46 206.62C214.727 206.06 215.093 205.567 215.56 205.14C216.04 204.7 216.607 204.36 217.26 204.12C217.927 203.88 218.673 203.76 219.5 203.76C220.633 203.76 221.593 203.94 222.38 204.3C223.18 204.66 223.787 205.167 224.2 205.82C224.613 206.46 224.82 207.213 224.82 208.08C224.82 208.733 224.673 209.347 224.38 209.92C224.1 210.48 223.693 211.02 223.16 211.54C222.64 212.047 222.02 212.573 221.3 213.12L219.46 214.98H224.6C224.747 214.98 224.867 215.027 224.96 215.12C225.067 215.213 225.12 215.333 225.12 215.48V217.5C225.12 217.647 225.067 217.767 224.96 217.86C224.867 217.953 224.747 218 224.6 218H214.34ZM233.71 218C233.576 218 233.456 217.953 233.35 217.86C233.256 217.767 233.21 217.647 233.21 217.5V215.24H226.99C226.856 215.24 226.736 215.193 226.63 215.1C226.536 215.007 226.49 214.887 226.49 214.74V212.84C226.49 212.72 226.51 212.613 226.55 212.52C226.603 212.413 226.656 212.313 226.71 212.22L232.53 204.34C232.703 204.113 232.95 204 233.27 204H236.17C236.316 204 236.436 204.047 236.53 204.14C236.636 204.233 236.69 204.353 236.69 204.5V212.26H238.45C238.61 212.26 238.736 212.313 238.83 212.42C238.923 212.513 238.97 212.627 238.97 212.76V214.74C238.97 214.887 238.916 215.007 238.81 215.1C238.716 215.193 238.603 215.24 238.47 215.24H236.69V217.5C236.69 217.647 236.636 217.767 236.53 217.86C236.436 217.953 236.316 218 236.17 218H233.71ZM229.93 212.4H233.29V207.68L229.93 212.4ZM241.803 218C241.496 218 241.343 217.867 241.343 217.6C241.343 217.52 241.369 217.447 241.423 217.38L251.303 204.38C251.396 204.26 251.489 204.167 251.583 204.1C251.676 204.033 251.816 204 252.003 204H253.423C253.729 204 253.883 204.133 253.883 204.4C253.883 204.48 253.856 204.553 253.803 204.62L243.923 217.62C243.829 217.74 243.736 217.833 243.643 217.9C243.549 217.967 243.409 218 243.223 218H241.803ZM251.863 218.1C250.956 218.1 250.229 217.86 249.683 217.38C249.149 216.9 248.849 216.26 248.783 215.46C248.769 215.113 248.763 214.807 248.763 214.54C248.763 214.273 248.769 213.953 248.783 213.58C248.836 212.767 249.123 212.12 249.643 211.64C250.176 211.147 250.916 210.9 251.863 210.9C252.823 210.9 253.563 211.147 254.083 211.64C254.603 212.12 254.889 212.767 254.943 213.58C254.969 213.953 254.983 214.273 254.983 214.54C254.983 214.807 254.969 215.113 254.943 215.46C254.889 216.26 254.589 216.9 254.043 217.38C253.496 217.86 252.769 218.1 251.863 218.1ZM251.863 216.34C252.089 216.34 252.263 216.293 252.383 216.2C252.516 216.107 252.616 215.987 252.683 215.84C252.749 215.68 252.783 215.513 252.783 215.34C252.809 215.033 252.823 214.753 252.823 214.5C252.823 214.247 252.809 213.973 252.783 213.68C252.769 213.427 252.696 213.2 252.563 213C252.429 212.787 252.196 212.68 251.863 212.68C251.529 212.68 251.296 212.787 251.163 213C251.029 213.2 250.956 213.427 250.943 213.68C250.929 213.973 250.923 214.247 250.923 214.5C250.923 214.753 250.929 215.033 250.943 215.34C250.956 215.513 250.989 215.68 251.043 215.84C251.109 215.987 251.209 216.107 251.343 216.2C251.476 216.293 251.649 216.34 251.863 216.34ZM243.403 211.06C242.483 211.06 241.749 210.827 241.203 210.36C240.669 209.88 240.376 209.24 240.323 208.44C240.296 208.093 240.283 207.793 240.283 207.54C240.296 207.273 240.309 206.953 240.323 206.58C240.363 205.767 240.643 205.12 241.163 204.64C241.696 204.147 242.443 203.9 243.403 203.9C244.362 203.9 245.103 204.147 245.623 204.64C246.143 205.12 246.423 205.767 246.463 206.58C246.489 206.953 246.503 207.273 246.503 207.54C246.503 207.793 246.489 208.093 246.463 208.44C246.423 209.24 246.129 209.88 245.583 210.36C245.036 210.827 244.309 211.06 243.403 211.06ZM243.403 209.34C243.616 209.34 243.789 209.293 243.923 209.2C244.056 209.093 244.156 208.967 244.223 208.82C244.289 208.66 244.323 208.5 244.323 208.34C244.349 208.033 244.363 207.753 244.363 207.5C244.363 207.247 244.349 206.973 244.323 206.68C244.309 206.427 244.229 206.2 244.083 206C243.949 205.787 243.723 205.68 243.403 205.68C243.069 205.68 242.829 205.787 242.683 206C242.549 206.2 242.476 206.427 242.463 206.68C242.449 206.973 242.443 207.247 242.443 207.5C242.443 207.753 242.449 208.033 242.463 208.34C242.476 208.5 242.509 208.66 242.563 208.82C242.629 208.967 242.729 209.093 242.863 209.2C242.996 209.293 243.176 209.34 243.403 209.34ZM219.6 277.2C218.427 277.2 217.393 276.987 216.5 276.56C215.607 276.133 214.907 275.547 214.4 274.8C213.907 274.04 213.66 273.173 213.66 272.2C213.66 271.787 213.72 271.38 213.84 270.98C213.973 270.567 214.133 270.18 214.32 269.82C214.507 269.447 214.693 269.12 214.88 268.84C215.067 268.547 215.22 268.313 215.34 268.14L218.86 263.4C218.927 263.333 219.013 263.253 219.12 263.16C219.227 263.053 219.38 263 219.58 263H222.24C222.36 263 222.46 263.047 222.54 263.14C222.62 263.22 222.66 263.32 222.66 263.44C222.66 263.493 222.653 263.547 222.64 263.6C222.627 263.64 222.607 263.673 222.58 263.7L219.88 267.38C219.96 267.353 220.053 267.34 220.16 267.34C220.28 267.327 220.387 267.32 220.48 267.32C221.08 267.347 221.673 267.48 222.26 267.72C222.847 267.96 223.38 268.287 223.86 268.7C224.34 269.113 224.72 269.613 225 270.2C225.293 270.773 225.44 271.42 225.44 272.14C225.44 273.06 225.2 273.907 224.72 274.68C224.24 275.44 223.56 276.053 222.68 276.52C221.813 276.973 220.787 277.2 219.6 277.2ZM219.58 274.32C219.967 274.32 220.327 274.24 220.66 274.08C220.993 273.907 221.26 273.667 221.46 273.36C221.673 273.04 221.78 272.647 221.78 272.18C221.78 271.713 221.68 271.327 221.48 271.02C221.28 270.7 221.013 270.46 220.68 270.3C220.347 270.14 219.98 270.06 219.58 270.06C219.18 270.06 218.807 270.14 218.46 270.3C218.127 270.46 217.86 270.7 217.66 271.02C217.46 271.327 217.36 271.713 217.36 272.18C217.36 272.647 217.46 273.04 217.66 273.36C217.873 273.667 218.147 273.907 218.48 274.08C218.813 274.24 219.18 274.32 219.58 274.32ZM232.807 277.2C231.847 277.2 231.014 277.067 230.307 276.8C229.601 276.52 229.014 276.14 228.547 275.66C228.094 275.18 227.747 274.62 227.507 273.98C227.267 273.34 227.127 272.653 227.087 271.92C227.074 271.56 227.061 271.153 227.047 270.7C227.047 270.233 227.047 269.767 227.047 269.3C227.061 268.82 227.074 268.393 227.087 268.02C227.127 267.287 227.267 266.607 227.507 265.98C227.761 265.34 228.121 264.787 228.587 264.32C229.067 263.84 229.654 263.467 230.347 263.2C231.054 262.933 231.874 262.8 232.807 262.8C233.754 262.8 234.574 262.933 235.267 263.2C235.961 263.467 236.541 263.84 237.007 264.32C237.487 264.787 237.854 265.34 238.107 265.98C238.361 266.607 238.501 267.287 238.527 268.02C238.554 268.393 238.567 268.82 238.567 269.3C238.581 269.767 238.581 270.233 238.567 270.7C238.567 271.153 238.554 271.56 238.527 271.92C238.501 272.653 238.361 273.34 238.107 273.98C237.867 274.62 237.514 275.18 237.047 275.66C236.594 276.14 236.014 276.52 235.307 276.8C234.614 277.067 233.781 277.2 232.807 277.2ZM232.807 274.3C233.501 274.3 234.001 274.08 234.307 273.64C234.627 273.187 234.794 272.58 234.807 271.82C234.834 271.433 234.847 271.027 234.847 270.6C234.861 270.173 234.861 269.747 234.847 269.32C234.847 268.893 234.834 268.5 234.807 268.14C234.794 267.407 234.627 266.813 234.307 266.36C234.001 265.907 233.501 265.673 232.807 265.66C232.114 265.673 231.614 265.907 231.307 266.36C231.001 266.813 230.834 267.407 230.807 268.14C230.794 268.5 230.781 268.893 230.767 269.32C230.767 269.747 230.767 270.173 230.767 270.6C230.781 271.027 230.794 271.433 230.807 271.82C230.834 272.58 231.007 273.187 231.327 273.64C231.647 274.08 232.141 274.3 232.807 274.3ZM241.861 277C241.554 277 241.401 276.867 241.401 276.6C241.401 276.52 241.428 276.447 241.481 276.38L251.361 263.38C251.454 263.26 251.548 263.167 251.641 263.1C251.734 263.033 251.874 263 252.061 263H253.481C253.788 263 253.941 263.133 253.941 263.4C253.941 263.48 253.914 263.553 253.861 263.62L243.981 276.62C243.888 276.74 243.794 276.833 243.701 276.9C243.608 276.967 243.468 277 243.281 277H241.861ZM251.921 277.1C251.014 277.1 250.288 276.86 249.741 276.38C249.208 275.9 248.908 275.26 248.841 274.46C248.828 274.113 248.821 273.807 248.821 273.54C248.821 273.273 248.828 272.953 248.841 272.58C248.894 271.767 249.181 271.12 249.701 270.64C250.234 270.147 250.974 269.9 251.921 269.9C252.881 269.9 253.621 270.147 254.141 270.64C254.661 271.12 254.948 271.767 255.001 272.58C255.028 272.953 255.041 273.273 255.041 273.54C255.041 273.807 255.028 274.113 255.001 274.46C254.948 275.26 254.648 275.9 254.101 276.38C253.554 276.86 252.828 277.1 251.921 277.1ZM251.921 275.34C252.148 275.34 252.321 275.293 252.441 275.2C252.574 275.107 252.674 274.987 252.741 274.84C252.808 274.68 252.841 274.513 252.841 274.34C252.868 274.033 252.881 273.753 252.881 273.5C252.881 273.247 252.868 272.973 252.841 272.68C252.828 272.427 252.754 272.2 252.621 272C252.488 271.787 252.254 271.68 251.921 271.68C251.588 271.68 251.354 271.787 251.221 272C251.088 272.2 251.014 272.427 251.001 272.68C250.988 272.973 250.981 273.247 250.981 273.5C250.981 273.753 250.988 274.033 251.001 274.34C251.014 274.513 251.048 274.68 251.101 274.84C251.168 274.987 251.268 275.107 251.401 275.2C251.534 275.293 251.708 275.34 251.921 275.34ZM243.461 270.06C242.541 270.06 241.808 269.827 241.261 269.36C240.728 268.88 240.434 268.24 240.381 267.44C240.354 267.093 240.341 266.793 240.341 266.54C240.354 266.273 240.368 265.953 240.381 265.58C240.421 264.767 240.701 264.12 241.221 263.64C241.754 263.147 242.501 262.9 243.461 262.9C244.421 262.9 245.161 263.147 245.681 263.64C246.201 264.12 246.481 264.767 246.521 265.58C246.548 265.953 246.561 266.273 246.561 266.54C246.561 266.793 246.548 267.093 246.521 267.44C246.481 268.24 246.188 268.88 245.641 269.36C245.094 269.827 244.368 270.06 243.461 270.06ZM243.461 268.34C243.674 268.34 243.848 268.293 243.981 268.2C244.114 268.093 244.214 267.967 244.281 267.82C244.348 267.66 244.381 267.5 244.381 267.34C244.408 267.033 244.421 266.753 244.421 266.5C244.421 266.247 244.408 265.973 244.381 265.68C244.368 265.427 244.288 265.2 244.141 265C244.008 264.787 243.781 264.68 243.461 264.68C243.128 264.68 242.888 264.787 242.741 265C242.608 265.2 242.534 265.427 242.521 265.68C242.508 265.973 242.501 266.247 242.501 266.5C242.501 266.753 242.508 267.033 242.521 267.34C242.534 267.5 242.568 267.66 242.621 267.82C242.688 267.967 242.788 268.093 242.921 268.2C243.054 268.293 243.234 268.34 243.461 268.34Z" fill="black"/>
<rect x="150" width="155" height="43" rx="18" fill="#0C71BC"/>
<path d="M171.98 28C171.833 28 171.713 27.9533 171.62 27.86C171.527 27.7667 171.48 27.6467 171.48 27.5V14.5C171.48 14.3533 171.527 14.2333 171.62 14.14C171.713 14.0467 171.833 14 171.98 14H177.44C178.52 14 179.453 14.1667 180.24 14.5C181.04 14.8333 181.66 15.34 182.1 16.02C182.553 16.6867 182.78 17.52 182.78 18.52C182.78 19.5333 182.553 20.3733 182.1 21.04C181.66 21.6933 181.04 22.18 180.24 22.5C179.453 22.82 178.52 22.98 177.44 22.98H174.76V27.5C174.76 27.6467 174.713 27.7667 174.62 27.86C174.527 27.9533 174.407 28 174.26 28H171.98ZM174.7 20.5H177.34C178.02 20.5 178.547 20.3333 178.92 20C179.307 19.6667 179.5 19.1667 179.5 18.5C179.5 17.9133 179.327 17.4333 178.98 17.06C178.647 16.6867 178.1 16.5 177.34 16.5H174.7V20.5ZM189.123 28.2C187.589 28.2 186.369 27.7733 185.463 26.92C184.569 26.0667 184.096 24.8267 184.043 23.2C184.043 23.0933 184.043 22.9533 184.043 22.78C184.043 22.5933 184.043 22.4467 184.043 22.34C184.096 21.3133 184.329 20.4333 184.743 19.7C185.156 18.9533 185.736 18.3867 186.483 18C187.229 17.6 188.103 17.4 189.103 17.4C190.223 17.4 191.156 17.6333 191.903 18.1C192.663 18.5533 193.229 19.18 193.603 19.98C193.989 20.7667 194.183 21.6733 194.183 22.7V23.16C194.183 23.2933 194.129 23.4067 194.023 23.5C193.929 23.5933 193.816 23.64 193.683 23.64H187.143C187.143 23.6533 187.143 23.68 187.143 23.72C187.143 23.7467 187.143 23.7733 187.143 23.8C187.156 24.2267 187.236 24.62 187.383 24.98C187.543 25.3267 187.763 25.6067 188.043 25.82C188.336 26.0333 188.683 26.14 189.083 26.14C189.416 26.14 189.689 26.0933 189.903 26C190.116 25.9067 190.289 25.7933 190.423 25.66C190.569 25.5267 190.676 25.4133 190.743 25.32C190.863 25.1867 190.956 25.1067 191.023 25.08C191.103 25.04 191.223 25.02 191.383 25.02H193.463C193.596 25.02 193.703 25.06 193.783 25.14C193.876 25.2067 193.916 25.3067 193.903 25.44C193.889 25.6533 193.776 25.92 193.563 26.24C193.363 26.5467 193.063 26.8533 192.663 27.16C192.263 27.4533 191.763 27.7 191.163 27.9C190.576 28.1 189.896 28.2 189.123 28.2ZM187.143 21.82H191.063V21.78C191.063 21.3 190.983 20.8867 190.823 20.54C190.676 20.18 190.456 19.9 190.163 19.7C189.869 19.5 189.516 19.4 189.103 19.4C188.689 19.4 188.336 19.5 188.043 19.7C187.749 19.9 187.523 20.18 187.363 20.54C187.216 20.8867 187.143 21.3 187.143 21.78V21.82ZM196.662 28C196.529 28 196.415 27.9533 196.322 27.86C196.229 27.7667 196.182 27.6467 196.182 27.5V18.1C196.182 17.9667 196.229 17.8533 196.322 17.76C196.415 17.6533 196.529 17.6 196.662 17.6H198.622C198.755 17.6 198.869 17.6533 198.962 17.76C199.069 17.8533 199.122 17.9667 199.122 18.1V18.9C199.455 18.4867 199.862 18.1667 200.342 17.94C200.835 17.7133 201.402 17.6 202.042 17.6H202.902C203.035 17.6 203.149 17.6467 203.242 17.74C203.335 17.8333 203.382 17.9533 203.382 18.1V19.82C203.382 19.9667 203.335 20.0867 203.242 20.18C203.149 20.2733 203.035 20.32 202.902 20.32H201.142C200.555 20.32 200.095 20.4867 199.762 20.82C199.429 21.14 199.262 21.6 199.262 22.2V27.5C199.262 27.6467 199.215 27.7667 199.122 27.86C199.029 27.9533 198.909 28 198.762 28H196.662ZM209.376 28.2C208.403 28.2 207.543 28.02 206.796 27.66C206.063 27.3 205.483 26.78 205.056 26.1C204.629 25.4067 204.396 24.58 204.356 23.62C204.343 23.4067 204.336 23.14 204.336 22.82C204.336 22.4867 204.343 22.2133 204.356 22C204.396 21.0267 204.623 20.2 205.036 19.52C205.463 18.8267 206.049 18.3 206.796 17.94C207.543 17.58 208.403 17.4 209.376 17.4C210.269 17.4 211.029 17.5267 211.656 17.78C212.283 18.02 212.796 18.3267 213.196 18.7C213.596 19.0733 213.889 19.4667 214.076 19.88C214.276 20.28 214.383 20.6333 214.396 20.94C214.409 21.0733 214.363 21.1933 214.256 21.3C214.163 21.3933 214.049 21.44 213.916 21.44H211.776C211.643 21.44 211.536 21.4067 211.456 21.34C211.389 21.26 211.323 21.1533 211.256 21.02C211.069 20.5533 210.829 20.22 210.536 20.02C210.243 19.82 209.876 19.72 209.436 19.72C208.836 19.72 208.363 19.9133 208.016 20.3C207.669 20.6867 207.483 21.2867 207.456 22.1C207.443 22.62 207.443 23.0933 207.456 23.52C207.496 24.3467 207.683 24.9467 208.016 25.32C208.363 25.6933 208.836 25.88 209.436 25.88C209.903 25.88 210.276 25.78 210.556 25.58C210.836 25.38 211.069 25.0467 211.256 24.58C211.309 24.4467 211.376 24.3467 211.456 24.28C211.536 24.2 211.643 24.16 211.776 24.16H213.916C214.049 24.16 214.163 24.2133 214.256 24.32C214.363 24.4133 214.409 24.5267 214.396 24.66C214.383 24.8867 214.316 25.1533 214.196 25.46C214.089 25.7667 213.909 26.08 213.656 26.4C213.416 26.72 213.103 27.02 212.716 27.3C212.329 27.5667 211.856 27.7867 211.296 27.96C210.749 28.12 210.109 28.2 209.376 28.2ZM220.998 28.2C219.464 28.2 218.244 27.7733 217.338 26.92C216.444 26.0667 215.971 24.8267 215.918 23.2C215.918 23.0933 215.918 22.9533 215.918 22.78C215.918 22.5933 215.918 22.4467 215.918 22.34C215.971 21.3133 216.204 20.4333 216.618 19.7C217.031 18.9533 217.611 18.3867 218.358 18C219.104 17.6 219.978 17.4 220.978 17.4C222.098 17.4 223.031 17.6333 223.778 18.1C224.538 18.5533 225.104 19.18 225.478 19.98C225.864 20.7667 226.058 21.6733 226.058 22.7V23.16C226.058 23.2933 226.004 23.4067 225.898 23.5C225.804 23.5933 225.691 23.64 225.558 23.64H219.018C219.018 23.6533 219.018 23.68 219.018 23.72C219.018 23.7467 219.018 23.7733 219.018 23.8C219.031 24.2267 219.111 24.62 219.258 24.98C219.418 25.3267 219.638 25.6067 219.918 25.82C220.211 26.0333 220.558 26.14 220.958 26.14C221.291 26.14 221.564 26.0933 221.778 26C221.991 25.9067 222.164 25.7933 222.298 25.66C222.444 25.5267 222.551 25.4133 222.618 25.32C222.738 25.1867 222.831 25.1067 222.898 25.08C222.978 25.04 223.098 25.02 223.258 25.02H225.338C225.471 25.02 225.578 25.06 225.658 25.14C225.751 25.2067 225.791 25.3067 225.778 25.44C225.764 25.6533 225.651 25.92 225.438 26.24C225.238 26.5467 224.938 26.8533 224.538 27.16C224.138 27.4533 223.638 27.7 223.038 27.9C222.451 28.1 221.771 28.2 220.998 28.2ZM219.018 21.82H222.938V21.78C222.938 21.3 222.858 20.8867 222.698 20.54C222.551 20.18 222.331 19.9 222.038 19.7C221.744 19.5 221.391 19.4 220.978 19.4C220.564 19.4 220.211 19.5 219.918 19.7C219.624 19.9 219.398 20.18 219.238 20.54C219.091 20.8867 219.018 21.3 219.018 21.78V21.82ZM228.537 28C228.404 28 228.29 27.9533 228.197 27.86C228.104 27.7667 228.057 27.6467 228.057 27.5V18.1C228.057 17.9533 228.104 17.8333 228.197 17.74C228.29 17.6467 228.404 17.6 228.537 17.6H230.497C230.644 17.6 230.764 17.6467 230.857 17.74C230.95 17.8333 230.997 17.9533 230.997 18.1V18.88C231.344 18.4533 231.79 18.1 232.337 17.82C232.884 17.54 233.55 17.4 234.337 17.4C235.124 17.4 235.81 17.58 236.397 17.94C236.997 18.2867 237.464 18.8 237.797 19.48C238.144 20.1467 238.317 20.96 238.317 21.92V27.5C238.317 27.6467 238.264 27.7667 238.157 27.86C238.064 27.9533 237.95 28 237.817 28H235.697C235.55 28 235.43 27.9533 235.337 27.86C235.244 27.7667 235.197 27.6467 235.197 27.5V22.04C235.197 21.3333 235.024 20.7867 234.677 20.4C234.344 20 233.85 19.8 233.197 19.8C232.57 19.8 232.07 20 231.697 20.4C231.324 20.7867 231.137 21.3333 231.137 22.04V27.5C231.137 27.6467 231.09 27.7667 230.997 27.86C230.904 27.9533 230.79 28 230.657 28H228.537ZM245.596 28C244.769 28 244.063 27.8667 243.476 27.6C242.889 27.32 242.443 26.8933 242.136 26.32C241.843 25.7467 241.696 25.0267 241.696 24.16V19.96H240.136C239.989 19.96 239.869 19.9133 239.776 19.82C239.683 19.7267 239.636 19.6067 239.636 19.46V18.1C239.636 17.9533 239.683 17.8333 239.776 17.74C239.869 17.6467 239.989 17.6 240.136 17.6H241.696V14.3C241.696 14.1533 241.743 14.0333 241.836 13.94C241.943 13.8467 242.063 13.8 242.196 13.8H244.156C244.303 13.8 244.423 13.8467 244.516 13.94C244.609 14.0333 244.656 14.1533 244.656 14.3V17.6H247.156C247.289 17.6 247.403 17.6467 247.496 17.74C247.589 17.8333 247.636 17.9533 247.636 18.1V19.46C247.636 19.6067 247.589 19.7267 247.496 19.82C247.403 19.9133 247.289 19.96 247.156 19.96H244.656V23.92C244.656 24.4267 244.743 24.8267 244.916 25.12C245.103 25.4 245.423 25.54 245.876 25.54H247.336C247.469 25.54 247.583 25.5867 247.676 25.68C247.769 25.7733 247.816 25.8867 247.816 26.02V27.5C247.816 27.6467 247.769 27.7667 247.676 27.86C247.583 27.9533 247.469 28 247.336 28H245.596ZM252.621 28.2C251.914 28.2 251.281 28.0667 250.721 27.8C250.161 27.52 249.714 27.1467 249.381 26.68C249.047 26.2133 248.881 25.6933 248.881 25.12C248.881 24.1733 249.261 23.4267 250.021 22.88C250.794 22.3333 251.807 21.96 253.061 21.76L255.681 21.38V21.02C255.681 20.5 255.561 20.1 255.321 19.82C255.081 19.54 254.661 19.4 254.061 19.4C253.621 19.4 253.267 19.4867 253.001 19.66C252.734 19.8333 252.527 20.06 252.381 20.34C252.274 20.5133 252.121 20.6 251.921 20.6H250.021C249.874 20.6 249.761 20.56 249.681 20.48C249.601 20.3867 249.567 20.28 249.581 20.16C249.581 19.9333 249.667 19.6667 249.841 19.36C250.014 19.0533 250.281 18.7533 250.641 18.46C251.001 18.1533 251.461 17.9 252.021 17.7C252.581 17.5 253.267 17.4 254.081 17.4C254.921 17.4 255.641 17.5 256.241 17.7C256.841 17.9 257.321 18.18 257.681 18.54C258.041 18.9 258.307 19.32 258.481 19.8C258.654 20.2667 258.741 20.7733 258.741 21.32V27.5C258.741 27.6467 258.694 27.7667 258.601 27.86C258.507 27.9533 258.387 28 258.241 28H256.281C256.147 28 256.034 27.9533 255.941 27.86C255.847 27.7667 255.801 27.6467 255.801 27.5V26.76C255.627 27.0133 255.394 27.2533 255.101 27.48C254.807 27.6933 254.454 27.8667 254.041 28C253.641 28.1333 253.167 28.2 252.621 28.2ZM253.421 26.12C253.861 26.12 254.254 26.0267 254.601 25.84C254.947 25.6533 255.221 25.3667 255.421 24.98C255.621 24.5933 255.721 24.1067 255.721 23.52V23.18L253.861 23.48C253.141 23.6 252.614 23.78 252.281 24.02C251.947 24.26 251.781 24.5533 251.781 24.9C251.781 25.1533 251.854 25.3733 252.001 25.56C252.161 25.7467 252.367 25.8867 252.621 25.98C252.874 26.0733 253.141 26.12 253.421 26.12ZM266.042 32.4C265.056 32.4 264.236 32.2667 263.582 32C262.929 31.7467 262.409 31.4333 262.022 31.06C261.649 30.7 261.382 30.34 261.222 29.98C261.062 29.62 260.976 29.34 260.962 29.14C260.949 28.9933 260.996 28.8733 261.102 28.78C261.209 28.6867 261.329 28.64 261.462 28.64H263.602C263.722 28.64 263.822 28.6667 263.902 28.72C263.996 28.7867 264.069 28.8933 264.122 29.04C264.189 29.2 264.282 29.3667 264.402 29.54C264.522 29.7267 264.702 29.88 264.942 30C265.196 30.12 265.529 30.18 265.942 30.18C266.409 30.18 266.796 30.1133 267.102 29.98C267.409 29.8467 267.636 29.62 267.782 29.3C267.942 28.98 268.022 28.5467 268.022 28V26.66C267.702 27.0067 267.296 27.2933 266.802 27.52C266.322 27.7467 265.729 27.86 265.022 27.86C264.329 27.86 263.716 27.7533 263.182 27.54C262.662 27.3133 262.229 27 261.882 26.6C261.536 26.1867 261.269 25.6933 261.082 25.12C260.896 24.5467 260.789 23.9 260.762 23.18C260.749 22.82 260.749 22.4667 260.762 22.12C260.789 21.4267 260.896 20.7933 261.082 20.22C261.269 19.6467 261.536 19.1533 261.882 18.74C262.229 18.3133 262.662 17.9867 263.182 17.76C263.716 17.52 264.329 17.4 265.022 17.4C265.756 17.4 266.382 17.54 266.902 17.82C267.422 18.1 267.849 18.4467 268.182 18.86V18.1C268.182 17.9667 268.229 17.8533 268.322 17.76C268.416 17.6533 268.529 17.6 268.662 17.6H270.622C270.756 17.6 270.869 17.6533 270.962 17.76C271.069 17.8533 271.122 17.9667 271.122 18.1L271.142 27.72C271.142 28.72 270.949 29.5667 270.562 30.26C270.176 30.9533 269.602 31.48 268.842 31.84C268.096 32.2133 267.162 32.4 266.042 32.4ZM265.942 25.52C266.422 25.52 266.809 25.4133 267.102 25.2C267.409 24.9733 267.636 24.6933 267.782 24.36C267.929 24.0133 268.009 23.6533 268.022 23.28C268.036 23.1333 268.042 22.9267 268.042 22.66C268.042 22.38 268.036 22.1667 268.022 22.02C268.009 21.6467 267.929 21.2933 267.782 20.96C267.636 20.6133 267.409 20.3333 267.102 20.12C266.809 19.9067 266.422 19.8 265.942 19.8C265.436 19.8 265.036 19.9133 264.742 20.14C264.449 20.3533 264.236 20.64 264.102 21C263.969 21.36 263.889 21.7533 263.862 22.18C263.849 22.5 263.849 22.8133 263.862 23.12C263.889 23.56 263.969 23.96 264.102 24.32C264.236 24.68 264.449 24.9733 264.742 25.2C265.036 25.4133 265.436 25.52 265.942 25.52ZM278.302 28.2C276.769 28.2 275.549 27.7733 274.642 26.92C273.749 26.0667 273.276 24.8267 273.222 23.2C273.222 23.0933 273.222 22.9533 273.222 22.78C273.222 22.5933 273.222 22.4467 273.222 22.34C273.276 21.3133 273.509 20.4333 273.922 19.7C274.336 18.9533 274.916 18.3867 275.662 18C276.409 17.6 277.282 17.4 278.282 17.4C279.402 17.4 280.336 17.6333 281.082 18.1C281.842 18.5533 282.409 19.18 282.782 19.98C283.169 20.7667 283.362 21.6733 283.362 22.7V23.16C283.362 23.2933 283.309 23.4067 283.202 23.5C283.109 23.5933 282.996 23.64 282.862 23.64H276.322C276.322 23.6533 276.322 23.68 276.322 23.72C276.322 23.7467 276.322 23.7733 276.322 23.8C276.336 24.2267 276.416 24.62 276.562 24.98C276.722 25.3267 276.942 25.6067 277.222 25.82C277.516 26.0333 277.862 26.14 278.262 26.14C278.596 26.14 278.869 26.0933 279.082 26C279.296 25.9067 279.469 25.7933 279.602 25.66C279.749 25.5267 279.856 25.4133 279.922 25.32C280.042 25.1867 280.136 25.1067 280.202 25.08C280.282 25.04 280.402 25.02 280.562 25.02H282.642C282.776 25.02 282.882 25.06 282.962 25.14C283.056 25.2067 283.096 25.3067 283.082 25.44C283.069 25.6533 282.956 25.92 282.742 26.24C282.542 26.5467 282.242 26.8533 281.842 27.16C281.442 27.4533 280.942 27.7 280.342 27.9C279.756 28.1 279.076 28.2 278.302 28.2ZM276.322 21.82H280.242V21.78C280.242 21.3 280.162 20.8867 280.002 20.54C279.856 20.18 279.636 19.9 279.342 19.7C279.049 19.5 278.696 19.4 278.282 19.4C277.869 19.4 277.516 19.5 277.222 19.7C276.929 19.9 276.702 20.18 276.542 20.54C276.396 20.8867 276.322 21.3 276.322 21.78V21.82Z" fill="white"/>
</svg>
