{
	"asset":{
		"generator":"Khronos glTF Blender I/O v4.3.47",
		"version":"2.0"
	},
	"extensionsUsed":[
		"KHR_materials_emissive_strength"
	],
	"scene":0,
	"scenes":[
		{
			"name":"Scene",
			"nodes":[
				0,
				1,
				2,
				3
			]
		}
	],
	"nodes":[
		{
			"mesh":0,
			"name":"Circle.005",
			"rotation":[
				0.7071068286895752,
				0,
				0,
				0.7071068286895752
			],
			"scale":[
				0.15173709392547607,
				0.15173709392547607,
				0.15173709392547607
			],
			"translation":[
				-0.0014301866758614779,
				0,
				-0.012389183044433594
			]
		},
		{
			"mesh":1,
			"name":"Cube",
			"rotation":[
				0.1831437647342682,
				-0.01796906441450119,
				0.08924061059951782,
				0.978862464427948
			],
			"scale":[
				0.241581991314888,
				0.2415820062160492,
				0.2415820062160492
			],
			"translation":[
				-1.613581895828247,
				2.0819807052612305,
				-0.050051044672727585
			]
		},
		{
			"mesh":2,
			"name":"Cube.001",
			"rotation":[
				-0.005097898654639721,
				-0.2979336380958557,
				0.17259430885314941,
				0.9388402104377747
			],
			"scale":[
				0.12490883469581604,
				0.12490881979465485,
				0.12490884959697723
			],
			"translation":[
				-1.4661571979522705,
				2.4948601722717285,
				-0.06829532235860825
			]
		},
		{
			"mesh":3,
			"name":"Plane.067",
			"rotation":[
				0.6361052989959717,
				-0.30882054567337036,
				-0.3088204860687256,
				0.6361052989959717
			],
			"scale":[
				0.8694100975990295,
				0.8694101572036743,
				0.8694100975990295
			],
			"translation":[
				1.5040051937103271,
				2.4165093898773193,
				-0.33249735832214355
			]
		}
	],
	"animations":[
		{
			"channels":[
				{
					"sampler":0,
					"target":{
						"node":0,
						"path":"translation"
					}
				},
				{
					"sampler":1,
					"target":{
						"node":0,
						"path":"rotation"
					}
				},
				{
					"sampler":2,
					"target":{
						"node":0,
						"path":"scale"
					}
				}
			],
			"name":"Circle.005Action",
			"samplers":[
				{
					"input":19,
					"interpolation":"LINEAR",
					"output":20
				},
				{
					"input":19,
					"interpolation":"LINEAR",
					"output":21
				},
				{
					"input":22,
					"interpolation":"STEP",
					"output":23
				}
			]
		},
		{
			"channels":[
				{
					"sampler":0,
					"target":{
						"node":1,
						"path":"translation"
					}
				},
				{
					"sampler":1,
					"target":{
						"node":1,
						"path":"rotation"
					}
				},
				{
					"sampler":2,
					"target":{
						"node":1,
						"path":"scale"
					}
				}
			],
			"name":"CubeAction",
			"samplers":[
				{
					"input":24,
					"interpolation":"LINEAR",
					"output":25
				},
				{
					"input":24,
					"interpolation":"LINEAR",
					"output":26
				},
				{
					"input":27,
					"interpolation":"STEP",
					"output":28
				}
			]
		},
		{
			"channels":[
				{
					"sampler":0,
					"target":{
						"node":2,
						"path":"translation"
					}
				},
				{
					"sampler":1,
					"target":{
						"node":2,
						"path":"rotation"
					}
				},
				{
					"sampler":2,
					"target":{
						"node":2,
						"path":"scale"
					}
				}
			],
			"name":"Cube.001Action",
			"samplers":[
				{
					"input":24,
					"interpolation":"LINEAR",
					"output":29
				},
				{
					"input":24,
					"interpolation":"LINEAR",
					"output":30
				},
				{
					"input":27,
					"interpolation":"STEP",
					"output":31
				}
			]
		},
		{
			"channels":[
				{
					"sampler":0,
					"target":{
						"node":3,
						"path":"translation"
					}
				},
				{
					"sampler":1,
					"target":{
						"node":3,
						"path":"rotation"
					}
				},
				{
					"sampler":2,
					"target":{
						"node":3,
						"path":"scale"
					}
				}
			],
			"name":"Plane.067Action",
			"samplers":[
				{
					"input":32,
					"interpolation":"STEP",
					"output":33
				},
				{
					"input":34,
					"interpolation":"LINEAR",
					"output":35
				},
				{
					"input":32,
					"interpolation":"STEP",
					"output":36
				}
			]
		}
	],
	"materials":[
		{
			"doubleSided":true,
			"emissiveFactor":[
				1,
				1,
				1
			],
			"extensions":{
				"KHR_materials_emissive_strength":{
					"emissiveStrength":1.6999999284744263
				}
			},
			"name":"Material.002",
			"pbrMetallicRoughness":{
				"baseColorFactor":[
					0.800000011920929,
					0.800000011920929,
					0.800000011920929,
					1
				],
				"metallicFactor":0,
				"roughnessFactor":0.5
			}
		},
		{
			"doubleSided":true,
			"emissiveFactor":[
				0,
				0.3578920066356659,
				1
			],
			"extensions":{
				"KHR_materials_emissive_strength":{
					"emissiveStrength":7.699999809265137
				}
			},
			"name":"Material.001",
			"pbrMetallicRoughness":{
				"baseColorFactor":[
					0.04091520607471466,
					0.24620138108730316,
					0.5209956765174866,
					1
				],
				"metallicFactor":0,
				"roughnessFactor":0.5
			}
		},
		{
			"doubleSided":true,
			"emissiveFactor":[
				0.025772560194448825,
				0.5253320350476185,
				1
			],
			"extensions":{
				"KHR_materials_emissive_strength":{
					"emissiveStrength":3.3245155215263367
				}
			},
			"name":"Material.003",
			"pbrMetallicRoughness":{
				"baseColorFactor":[
					0.008023194968700409,
					0.16202937066555023,
					0.30054378509521484,
					1
				],
				"metallicFactor":0,
				"roughnessFactor":0.5
			}
		}
	],
	"meshes":[
		{
			"name":"Circle.005",
			"primitives":[
				{
					"attributes":{
						"POSITION":0,
						"NORMAL":1,
						"TEXCOORD_0":2
					},
					"indices":3,
					"material":0
				},
				{
					"attributes":{
						"POSITION":4,
						"NORMAL":5,
						"TEXCOORD_0":6
					},
					"indices":7,
					"material":1
				}
			]
		},
		{
			"name":"Cube.001",
			"primitives":[
				{
					"attributes":{
						"POSITION":8,
						"NORMAL":9,
						"TEXCOORD_0":10
					},
					"indices":11,
					"material":2
				}
			]
		},
		{
			"name":"Cube.002",
			"primitives":[
				{
					"attributes":{
						"POSITION":12,
						"NORMAL":13,
						"TEXCOORD_0":14
					},
					"indices":11,
					"material":2
				}
			]
		},
		{
			"name":"Plane.072",
			"primitives":[
				{
					"attributes":{
						"POSITION":15,
						"NORMAL":16,
						"TEXCOORD_0":17
					},
					"indices":18,
					"material":2
				}
			]
		}
	],
	"accessors":[
		{
			"bufferView":0,
			"componentType":5126,
			"count":816,
			"max":[
				6.259637355804443,
				0.06957387179136276,
				0.9882908463478088
			],
			"min":[
				-6.243957042694092,
				0,
				-13.149613380432129
			],
			"type":"VEC3"
		},
		{
			"bufferView":1,
			"componentType":5126,
			"count":816,
			"type":"VEC3"
		},
		{
			"bufferView":2,
			"componentType":5126,
			"count":816,
			"type":"VEC2"
		},
		{
			"bufferView":3,
			"componentType":5123,
			"count":2340,
			"type":"SCALAR"
		},
		{
			"bufferView":4,
			"componentType":5126,
			"count":2005,
			"max":[
				2.7624809741973877,
				0.00028747133910655975,
				-3.379695415496826
			],
			"min":[
				-2.626368999481201,
				-0.019074175506830215,
				-8.814970016479492
			],
			"type":"VEC3"
		},
		{
			"bufferView":5,
			"componentType":5126,
			"count":2005,
			"type":"VEC3"
		},
		{
			"bufferView":6,
			"componentType":5126,
			"count":2005,
			"type":"VEC2"
		},
		{
			"bufferView":7,
			"componentType":5123,
			"count":5787,
			"type":"SCALAR"
		},
		{
			"bufferView":8,
			"componentType":5126,
			"count":48,
			"max":[
				1,
				1,
				1
			],
			"min":[
				-1,
				-1,
				-1
			],
			"type":"VEC3"
		},
		{
			"bufferView":9,
			"componentType":5126,
			"count":48,
			"type":"VEC3"
		},
		{
			"bufferView":10,
			"componentType":5126,
			"count":48,
			"type":"VEC2"
		},
		{
			"bufferView":11,
			"componentType":5123,
			"count":144,
			"type":"SCALAR"
		},
		{
			"bufferView":12,
			"componentType":5126,
			"count":48,
			"max":[
				1,
				1,
				1
			],
			"min":[
				-1,
				-1,
				-1
			],
			"type":"VEC3"
		},
		{
			"bufferView":13,
			"componentType":5126,
			"count":48,
			"type":"VEC3"
		},
		{
			"bufferView":14,
			"componentType":5126,
			"count":48,
			"type":"VEC2"
		},
		{
			"bufferView":15,
			"componentType":5126,
			"count":384,
			"max":[
				0.11220677942037582,
				0,
				0.44174420833587646
			],
			"min":[
				-0.11633739620447159,
				0,
				-0.43889373540878296
			],
			"type":"VEC3"
		},
		{
			"bufferView":16,
			"componentType":5126,
			"count":384,
			"type":"VEC3"
		},
		{
			"bufferView":17,
			"componentType":5126,
			"count":384,
			"type":"VEC2"
		},
		{
			"bufferView":18,
			"componentType":5123,
			"count":1152,
			"type":"SCALAR"
		},
		{
			"bufferView":19,
			"componentType":5126,
			"count":85,
			"max":[
				3.5416666666666665
			],
			"min":[
				0.041666666666666664
			],
			"type":"SCALAR"
		},
		{
			"bufferView":20,
			"componentType":5126,
			"count":85,
			"type":"VEC3"
		},
		{
			"bufferView":21,
			"componentType":5126,
			"count":85,
			"type":"VEC4"
		},
		{
			"bufferView":22,
			"componentType":5126,
			"count":2,
			"max":[
				3.5416666666666665
			],
			"min":[
				0.041666666666666664
			],
			"type":"SCALAR"
		},
		{
			"bufferView":23,
			"componentType":5126,
			"count":2,
			"type":"VEC3"
		},
		{
			"bufferView":24,
			"componentType":5126,
			"count":44,
			"max":[
				1.8333333333333333
			],
			"min":[
				0.041666666666666664
			],
			"type":"SCALAR"
		},
		{
			"bufferView":25,
			"componentType":5126,
			"count":44,
			"type":"VEC3"
		},
		{
			"bufferView":26,
			"componentType":5126,
			"count":44,
			"type":"VEC4"
		},
		{
			"bufferView":27,
			"componentType":5126,
			"count":2,
			"max":[
				1.8333333333333333
			],
			"min":[
				0.041666666666666664
			],
			"type":"SCALAR"
		},
		{
			"bufferView":28,
			"componentType":5126,
			"count":2,
			"type":"VEC3"
		},
		{
			"bufferView":29,
			"componentType":5126,
			"count":44,
			"type":"VEC3"
		},
		{
			"bufferView":30,
			"componentType":5126,
			"count":44,
			"type":"VEC4"
		},
		{
			"bufferView":31,
			"componentType":5126,
			"count":2,
			"type":"VEC3"
		},
		{
			"bufferView":32,
			"componentType":5126,
			"count":2,
			"max":[
				1.1666666666666667
			],
			"min":[
				0.041666666666666664
			],
			"type":"SCALAR"
		},
		{
			"bufferView":33,
			"componentType":5126,
			"count":2,
			"type":"VEC3"
		},
		{
			"bufferView":34,
			"componentType":5126,
			"count":28,
			"max":[
				1.1666666666666667
			],
			"min":[
				0.041666666666666664
			],
			"type":"SCALAR"
		},
		{
			"bufferView":35,
			"componentType":5126,
			"count":28,
			"type":"VEC4"
		},
		{
			"bufferView":36,
			"componentType":5126,
			"count":2,
			"type":"VEC3"
		}
	],
	"bufferViews":[
		{
			"buffer":0,
			"byteLength":9792,
			"byteOffset":0,
			"target":34962
		},
		{
			"buffer":0,
			"byteLength":9792,
			"byteOffset":9792,
			"target":34962
		},
		{
			"buffer":0,
			"byteLength":6528,
			"byteOffset":19584,
			"target":34962
		},
		{
			"buffer":0,
			"byteLength":4680,
			"byteOffset":26112,
			"target":34963
		},
		{
			"buffer":0,
			"byteLength":24060,
			"byteOffset":30792,
			"target":34962
		},
		{
			"buffer":0,
			"byteLength":24060,
			"byteOffset":54852,
			"target":34962
		},
		{
			"buffer":0,
			"byteLength":16040,
			"byteOffset":78912,
			"target":34962
		},
		{
			"buffer":0,
			"byteLength":11574,
			"byteOffset":94952,
			"target":34963
		},
		{
			"buffer":0,
			"byteLength":576,
			"byteOffset":106528,
			"target":34962
		},
		{
			"buffer":0,
			"byteLength":576,
			"byteOffset":107104,
			"target":34962
		},
		{
			"buffer":0,
			"byteLength":384,
			"byteOffset":107680,
			"target":34962
		},
		{
			"buffer":0,
			"byteLength":288,
			"byteOffset":108064,
			"target":34963
		},
		{
			"buffer":0,
			"byteLength":576,
			"byteOffset":108352,
			"target":34962
		},
		{
			"buffer":0,
			"byteLength":576,
			"byteOffset":108928,
			"target":34962
		},
		{
			"buffer":0,
			"byteLength":384,
			"byteOffset":109504,
			"target":34962
		},
		{
			"buffer":0,
			"byteLength":4608,
			"byteOffset":109888,
			"target":34962
		},
		{
			"buffer":0,
			"byteLength":4608,
			"byteOffset":114496,
			"target":34962
		},
		{
			"buffer":0,
			"byteLength":3072,
			"byteOffset":119104,
			"target":34962
		},
		{
			"buffer":0,
			"byteLength":2304,
			"byteOffset":122176,
			"target":34963
		},
		{
			"buffer":0,
			"byteLength":340,
			"byteOffset":124480
		},
		{
			"buffer":0,
			"byteLength":1020,
			"byteOffset":124820
		},
		{
			"buffer":0,
			"byteLength":1360,
			"byteOffset":125840
		},
		{
			"buffer":0,
			"byteLength":8,
			"byteOffset":127200
		},
		{
			"buffer":0,
			"byteLength":24,
			"byteOffset":127208
		},
		{
			"buffer":0,
			"byteLength":176,
			"byteOffset":127232
		},
		{
			"buffer":0,
			"byteLength":528,
			"byteOffset":127408
		},
		{
			"buffer":0,
			"byteLength":704,
			"byteOffset":127936
		},
		{
			"buffer":0,
			"byteLength":8,
			"byteOffset":128640
		},
		{
			"buffer":0,
			"byteLength":24,
			"byteOffset":128648
		},
		{
			"buffer":0,
			"byteLength":528,
			"byteOffset":128672
		},
		{
			"buffer":0,
			"byteLength":704,
			"byteOffset":129200
		},
		{
			"buffer":0,
			"byteLength":24,
			"byteOffset":129904
		},
		{
			"buffer":0,
			"byteLength":8,
			"byteOffset":129928
		},
		{
			"buffer":0,
			"byteLength":24,
			"byteOffset":129936
		},
		{
			"buffer":0,
			"byteLength":112,
			"byteOffset":129960
		},
		{
			"buffer":0,
			"byteLength":448,
			"byteOffset":130072
		},
		{
			"buffer":0,
			"byteLength":24,
			"byteOffset":130520
		}
	],
	"buffers":[
		{
			"byteLength":130544,
			"uri":"ideo%20logo%202.bin"
		}
	]
}
