<svg xmlns="http://www.w3.org/2000/svg" width="144.988" height="45.665" viewBox="0 0 144.988 45.665"><defs><style>.a{fill:#0071bc;}.b{fill:#3b3b3b;}</style></defs><g transform="translate(-0.019 0)"><g transform="translate(0.019 0)"><path class="a" d="M49.563,38.559c.332.132.17.5.166.754a.859.859,0,0,0,1.395.271.535.535,0,0,0-.064-.8c-.283-.245-.754-.1-.987-.4-.075-.173,0-.377,0-.55a.866.866,0,0,0-1.432.106C48.624,38.446,49.209,38.446,49.563,38.559Z" transform="translate(-30.315 -23.37)"/><path class="a" d="M56.174,37.982c-.158-.482-.84-.52-1.232-.32a.4.4,0,0,0-.211.313C54.832,38.664,56.14,38.71,56.174,37.982Z" transform="translate(-34.11 -23.396)"/><path class="a" d="M58.088,41.187c.185.66,1.372.754,1.508,0,.023-.577-.72-.852-1.18-.637a.5.5,0,0,0-.328.637Z" transform="translate(-36.186 -25.221)"/><path class="a" d="M65.755,41.886a.754.754,0,0,0-.84-.961.418.418,0,0,0-.46.4C64.387,41.961,65.37,42.455,65.755,41.886Z" transform="translate(-40.167 -25.494)"/><path class="a" d="M37.087,43.385c.264-.324,0-.807.3-1.1s.678-.222.942-.482a.588.588,0,0,0,.094-.81c-.464-.449-1.425.06-1.263.69a.754.754,0,0,1-.644.754.8.8,0,0,0-.433,1.232.716.716,0,0,0,1.006-.279Z" transform="translate(-22.396 -25.434)"/><path class="a" d="M41.823,42.28a.66.66,0,0,0,0,.942c.2.2.543.079.754.29a.637.637,0,0,1,.155.675.754.754,0,0,0,.889.871.8.8,0,0,0,.524-1.263c-.241-.339-.754-.173-.991-.52s0-.69-.068-1.036c0-.449.509-.55.859-.592,0,0,.516-.29.5-.573.057-.437-.471-.648-.833-.577a.791.791,0,0,0-.663,1.04C42.772,42.039,42.105,41.9,41.823,42.28Z" transform="translate(-25.944 -25.226)"/><path class="a" d="M48.606,44.276a.671.671,0,0,0-.377,1.063.819.819,0,0,0,1.413-.43C49.691,44.374,49.047,44.107,48.606,44.276Z" transform="translate(-29.972 -27.557)"/><path class="a" d="M56.433,45.1c.155-.588-.554-1.021-1.07-.825a.637.637,0,0,0-.377.969A.827.827,0,0,0,56.433,45.1Z" transform="translate(-34.204 -27.556)"/><path class="a" d="M59.719,45.51c-.087.641-.938.377-1.172.874a.81.81,0,0,0,.505,1.131.754.754,0,0,0,.98-.494c.113-.286-.151-.6.026-.874a.716.716,0,0,1,.622-.324.562.562,0,0,0,.449-.652A.844.844,0,0,0,60,44.511C59.576,44.662,59.689,45.159,59.719,45.51Z" transform="translate(-36.438 -27.701)"/><path class="a" d="M68.947,46.333c.607-.5-.181-1.606-.859-1.217C67.428,45.591,68.284,46.74,68.947,46.333Z" transform="translate(-42.285 -28.061)"/><path class="a" d="M51.947,48.485a.754.754,0,0,0-.482,1.165c.23.422.807.268,1.1.6a1.4,1.4,0,0,1,.132.641c-.068.332.139.712-.09,1.01s-.735.215-1.021.49a.844.844,0,1,0,1.334.976c.2-.377-.109-.807.124-1.165s.784-.207,1.07-.531a.818.818,0,0,0-.1-1.214c-.219-.177-.52-.166-.754-.286a.712.712,0,0,1-.271-.754.81.81,0,0,0-1.044-.931Z" transform="translate(-31.979 -30.187)"/><path class="a" d="M66.018,50.49a.626.626,0,0,0,.6-.66.834.834,0,0,0-1.131-.784C64.823,49.434,65.306,50.546,66.018,50.49Z" transform="translate(-40.615 -30.514)"/><path class="a" d="M71.824,51.125h.03c.471.339.041.961.328,1.387.094.226.377.418.611.237a.931.931,0,0,0,.162-1c-.09-.377-.656-.377-.69-.791a1.428,1.428,0,0,0-.249-1.153.505.505,0,0,0-.856.1.954.954,0,0,0,.663,1.221Z" transform="translate(-44.318 -30.912)"/><path class="a" d="M31.329,52.394c.49.053.671-.565.6-.954-.087-.3.06-.754.422-.784.358.072.377.505.309.791-.083.4.177.916.637.871s.716-.667.607-1.131.335-.754.754-.81h.03A.84.84,0,0,0,35,49.157a.72.72,0,0,0-1.089.121c-.253.286-.162.69-.188,1.04a.8.8,0,0,1-.418.46.6.6,0,0,1-.426-.294c-.053-.377.2-.754-.053-1.093a.528.528,0,0,0-.825.038c-.3.305-.2.754-.219,1.131a.569.569,0,0,1-.32.4A.851.851,0,0,0,31.329,52.394Z" transform="translate(-19.317 -30.508)"/><path class="a" d="M41.538,54.984c.588.328,1.285-.377,1.074-.972a.72.72,0,0,0-.969-.5.837.837,0,0,0-.106,1.47Z" transform="translate(-25.647 -33.312)"/><path class="a" d="M64.542,55.617c-.207-.335-.724-.219-.9-.592-.237-.332.034-.754-.173-1.1a.754.754,0,0,0-.957-.418.814.814,0,0,0-.249,1.289c.226.328.716.215.931.554.3.377-.049.874.226,1.259a.663.663,0,0,0,1.01.192.874.874,0,0,0,.113-1.18Z" transform="translate(-38.668 -33.309)"/><path class="a" d="M69.2,55.327c.822-.181.554-1.67-.3-1.508C68.113,54.034,68.376,55.448,69.2,55.327Z" transform="translate(-42.645 -33.528)"/><path class="a" d="M33.391,58.617c-.66.23-.565,1.508.192,1.481C34.345,59.937,34.213,58.493,33.391,58.617Z" transform="translate(-20.539 -36.52)"/><path class="a" d="M58.643,59.533a.8.8,0,0,0,1.059.437.837.837,0,0,0,.377-1.18.8.8,0,0,0-1.131-.29A.833.833,0,0,0,58.643,59.533Z" transform="translate(-36.504 -36.373)"/><path class="a" d="M71.752,60.108c.844,0,.754-1.643-.094-1.477A.8.8,0,0,0,71.752,60.108Z" transform="translate(-44.378 -36.526)"/><path class="a" d="M40.448,61.766a.837.837,0,0,0-.377-1.395.712.712,0,0,1-.69-.622,1.4,1.4,0,0,0-.072-.935.675.675,0,0,0-.923-.26A.886.886,0,0,0,38.27,59.9h0c.237.2.614.147.8.418.26.343-.034.784.155,1.15a.754.754,0,0,0,1.221.3Z" transform="translate(-23.695 -36.431)"/><path class="a" d="M47.114,58.483a.829.829,0,0,0-.46-1.312c-.324-.049-.727-.2-.754-.577a3.569,3.569,0,0,0,0-.961.686.686,0,0,1,.675-.712.833.833,0,0,0,.72-.788.822.822,0,0,0-.833-.844.833.833,0,0,0-.8.837c0,.275.094.6-.113.833s-.678.188-.935.441a.852.852,0,0,0-.109,1.172c.264.32.754.207,1.01.55.332.377-.034.878.253,1.255a.833.833,0,0,0,1.346.106Z" transform="translate(-27.624 -33.205)"/><path class="a" d="M31.244,63.168a.886.886,0,0,0,.128,1.346C32.243,64.638,32.05,62.851,31.244,63.168Z" transform="translate(-19.319 -39.337)"/><path class="a" d="M70.7,63.133c-.377.245-.335.754-.3,1.131,0,.29-.317.7-.6.437-.377-.4.136-1.131-.422-1.466-.648-.377-1.259.592-.878,1.131.121.264.422.3.671.358.343.109.328.524.245.807a.554.554,0,0,0,.456.724.822.822,0,0,0,.675-.954.716.716,0,0,1,.358-.814.906.906,0,0,0,.354-1.131C71.194,63.14,70.9,62.956,70.7,63.133Z" transform="translate(-42.614 -39.294)"/><path class="a" d="M36.592,66.269a.727.727,0,0,0,1.131.185.833.833,0,0,0-.475-1.274.776.776,0,0,1-.562-.377c-.151-.332.075-.712-.1-1.04a.629.629,0,0,0-.984-.332.863.863,0,0,0,.2,1.349c.226.075.494.162.592.4C36.536,65.531,36.355,65.953,36.592,66.269Z" transform="translate(-22.04 -39.446)"/><path class="a" d="M51.925,66.909a.807.807,0,0,0,1.112-.863.663.663,0,0,1,.524-.859.874.874,0,0,0,.844-.863.818.818,0,0,0-1.168-.724.886.886,0,0,0-.433.479c-.132.339.113.724-.094,1.044-.264.377-.856.219-1.131.6a.754.754,0,0,0,.347,1.183Z" transform="translate(-32.044 -39.58)"/><path class="a" d="M61.1,64.807a.852.852,0,0,0,.041-1.108.7.7,0,0,0-.78-.2.818.818,0,0,0-.467.449c-.188.347.079.776-.147,1.112s-.72.237-1,.513a.754.754,0,0,0-.083,1.1.829.829,0,0,0,1.312-.222c.2-.339-.068-.754.17-1.089S60.848,65.109,61.1,64.807Z" transform="translate(-36.436 -39.536)"/><path class="a" d="M33.324,67.783c-.607.377-.173,1.564.543,1.364C34.56,68.842,34.051,67.519,33.324,67.783Z" transform="translate(-20.592 -42.214)"/><path class="a" d="M65.487,69.641c.614.317,1.33-.452,1.055-1.059a.637.637,0,0,0-.942-.253C65.152,68.579,64.978,69.355,65.487,69.641Z" transform="translate(-40.619 -42.505)"/><path class="a" d="M44.81,69.868a.788.788,0,0,0,1.255-.377.848.848,0,0,0-1.217-.889.754.754,0,0,0-.038,1.266Z" transform="translate(-27.725 -42.69)"/><path class="a" d="M36.141,72.493a.68.68,0,0,0-.106,1.029c.253.275.776.46,1.033.109A.813.813,0,0,0,36.141,72.493Z" transform="translate(-22.346 -45.145)"/><path class="a" d="M68.426,72.482a.821.821,0,0,0-.471,1.176c.418.43,1.131,0,1.195-.546a.535.535,0,0,0-.724-.629Z" transform="translate(-42.276 -45.138)"/><path class="a" d="M42.788,75.642c.211-.26-.094-.592.072-.863.241-.339.754-.162,1.021-.475a.644.644,0,0,0-.072-.961.829.829,0,0,0-1.27.207c-.185.313.188.754-.132,1.006a.554.554,0,0,1-.9-.479.856.856,0,0,0-1.131-.961c-.377.173-.332.641-.237.972s-.271.46-.52.46a.5.5,0,0,0-.52.467.792.792,0,0,0,1.33.562c.222-.3-.185-.678.068-.961.335-.347.946.072.874.513C41.235,75.86,42.384,76.211,42.788,75.642Z" transform="translate(-24.368 -45.528)"/><path class="a" d="M63.142,74.37c-.268-.294.109-.686-.072-1.01a.641.641,0,0,0-.818-.309.793.793,0,0,0-.505,1.131c.2.32.622.185.9.377.305.294-.162.724.121,1.025.486.535,1.56-.117,1.248-.8C63.854,74.4,63.4,74.581,63.142,74.37Z" transform="translate(-38.417 -45.488)"/><path class="a" d="M56.507,73.951a.756.756,0,0,0-1.093-.641.69.69,0,0,0-.377,1A.826.826,0,0,0,56.507,73.951Z" transform="translate(-34.243 -45.635)"/><path class="a" d="M53.191,78.7c-.219-.2-.026-.479-.072-.716a.814.814,0,0,0-1.131-.4.539.539,0,0,0-.249.822c.249.351.754.192,1.055.46.207.222-.124.577.17.754.377.29,1.248.219,1.285-.377C54.126,78.775,53.527,78.922,53.191,78.7Z" transform="translate(-32.183 -48.284)"/><path class="a" d="M58.544,77.526a.592.592,0,0,0-.343.848.84.84,0,0,0,1.406-.309C59.667,77.519,58.951,77.289,58.544,77.526Z" transform="translate(-36.227 -48.249)"/><path class="a" d="M48.9,81.173a.377.377,0,0,0-.083.72c.377.219,1.1.23,1.214-.275C49.973,81.113,49.287,80.985,48.9,81.173Z" transform="translate(-30.28 -50.528)"/><path class="b" d="M6.249,31.749A3.219,3.219,0,0,0,3.2,29.507a3.052,3.052,0,0,0-.622.064A3.207,3.207,0,0,0,.1,32.006,3.173,3.173,0,0,0,1.5,35.4a3.117,3.117,0,0,0,1.7.49,3.253,3.253,0,0,0,.957-.143,3.049,3.049,0,0,0,.848-.411A3.192,3.192,0,0,0,6.249,31.749Zm33.265-1.266a3.187,3.187,0,1,0-4.074,4.854,2.989,2.989,0,0,0,1.749.543,3.335,3.335,0,0,0,1.553-.377,2.985,2.985,0,0,0,1.131-1.04A3.219,3.219,0,0,0,39.514,30.483ZM6.1,11.638A3.215,3.215,0,0,0,3.189,9.784a2.815,2.815,0,0,0-.878.136,3.185,3.185,0,0,0,.9,6.23,3.313,3.313,0,0,0,1.044-.17,3.015,3.015,0,0,0,.9-.486A3.189,3.189,0,0,0,6.1,11.627ZM23.33,41.824a3.226,3.226,0,0,0-3.14-2.552,2.9,2.9,0,0,0-.8.109,3.143,3.143,0,0,0-1.922,1.455,3.1,3.1,0,0,0-.377,2.333,3.234,3.234,0,0,0,3.121,2.5,2.853,2.853,0,0,0,.754-.1,3.17,3.17,0,0,0,1.956-1.425,3.091,3.091,0,0,0,.4-2.329ZM39.759,11.058A3.211,3.211,0,0,0,37.185,9.78a2.989,2.989,0,0,0-1.176.234,3.2,3.2,0,0,0-1.922,3.6,3.166,3.166,0,0,0,2.928,2.529,2.155,2.155,0,0,0,.222,0,3.151,3.151,0,0,0,1.538-.411,3.117,3.117,0,0,0,1.131-1.1,3.17,3.17,0,0,0-.147-3.588ZM23.149,1.952A3.241,3.241,0,0,0,20.183,0a2.9,2.9,0,0,0-1.014.177A3.136,3.136,0,0,0,17.3,1.884a3.06,3.06,0,0,0-.064,2.472,3.211,3.211,0,0,0,3.015,2.028,2.891,2.891,0,0,0,1.312-.3,3.151,3.151,0,0,0,1.628-1.775,3.1,3.1,0,0,0-.045-2.356Z" transform="translate(-0.019 0)"/><path class="b" d="M16.588,18.6a3.064,3.064,0,0,1,.185.479l3.475-2.024c2.126-1.232,4.9-2.815,7.135-4.1a3.562,3.562,0,0,1-.727-1.172c-.026-.064-.053-.132-.075-.2-2.985,1.711-6.513,3.743-9.373,5.4L16,17.7a3.626,3.626,0,0,1,.588.9Z" transform="translate(-9.977 -7.222)"/><path class="b" d="M61.727,11.7A3.908,3.908,0,0,1,61,12.888c.241.155.5.317.611.377,1.364.776,2.744,1.579,4.082,2.352,1.734,1.006,4.037,2.363,5.9,3.418a3.882,3.882,0,0,1,.754-1.372h0c-3.494-2.013-7.632-4.451-10.553-6.143Q61.766,11.612,61.727,11.7Z" transform="translate(-38.017 -7.178)"/><path class="b" d="M98.2,54.646h0V44.15a3.769,3.769,0,0,1-.754.083h-.253a3.513,3.513,0,0,1-.565-.072v7.847a4.414,4.414,0,0,0,0,.5V54.1h0v1.843h0v.573h.026a3.581,3.581,0,0,1,.754-.079,3.859,3.859,0,0,1,.807.087c0-.58,0-1.308,0-1.662Z" transform="translate(-60.213 -27.51)"/><path class="b" d="M71.591,89.68l-3.279,1.884c-2.261,1.3-5,2.9-7.342,4.229a3.652,3.652,0,0,1,.81,1.379c1.952-1.131,4.3-2.5,6.177-3.577l4.4-2.536a3.769,3.769,0,0,1-.765-1.379Z" transform="translate(-37.998 -55.88)"/><path class="b" d="M7.15,56.443a3.833,3.833,0,0,1,.807.09c0-.709,0-1.4,0-1.628,0-.754.019-1.508-.034-2.284.041-1.052.034-2.126.03-3.158v-5.3a3.916,3.916,0,0,1-.791.083h0a3.716,3.716,0,0,1-.791-.087V54.525h0v2.013h.072A3.656,3.656,0,0,1,7.15,56.443Z" transform="translate(-3.976 -27.516)"/><path class="b" d="M26.93,96.42a3.89,3.89,0,0,1,.445-.6c-3.124-1.783-6.694-3.859-9.724-5.627l-.9-.49A3.89,3.89,0,0,1,16,91.095c1.508.871,3.516,2.009,4.715,2.7,1.775,1.025,4.025,2.325,5.88,3.392A3.629,3.629,0,0,1,26.93,96.42Z" transform="translate(-9.977 -55.893)"/><path class="b" d="M22.713,41.135a8.555,8.555,0,0,0-.8,1.372c-1.817-1.044-3.972-2.288-4.285-2.457-.546-.32-1.131-.648-1.677-.965l-.136-.075a3.769,3.769,0,0,0,.8-1.349l.113.06c.66.354,1.315.735,1.949,1.1C18.941,38.964,20.976,40.136,22.713,41.135Z" transform="translate(-9.865 -23.466)"/><path class="b" d="M22.765,72.2c-2.043,1.131-5.152,2.834-6.03,3.351l-.106.083a3.6,3.6,0,0,0-.829-1.383l.155-.083c.976-.546,1.96-1.131,2.913-1.673l3.087-1.681A8.857,8.857,0,0,0,22.765,72.2Z" transform="translate(-9.852 -44.122)"/><path class="b" d="M53.067,20.5v4.768c-.264-.026-.528-.038-.8-.038a7.84,7.84,0,0,0-.791.038V18.26a3.769,3.769,0,0,0,.829.094,3.49,3.49,0,0,0,.754-.079v.147C53.067,19.108,53.067,19.8,53.067,20.5Z" transform="translate(-32.085 -11.378)"/><path class="b" d="M53.067,91.138v.136a3.633,3.633,0,0,0-.81-.09,3.554,3.554,0,0,0-.776.087V84.26q.377.034.791.034a6.209,6.209,0,0,0,.8-.034v5.277C53.07,90.057,53.07,90.6,53.067,91.138Z" transform="translate(-32.085 -52.503)"/><path class="b" d="M80.036,38.916l-.136.075c-.565.32-1.131.652-1.692.976-.283.162-2.374,1.41-4.251,2.529a8.883,8.883,0,0,0-.776-1.368c2.348-1.391,5.243-3.117,5.913-3.513l.124-.075A3.724,3.724,0,0,0,80.036,38.916Z" transform="translate(-45.606 -23.391)"/><path class="b" d="M79.955,74.119a3.652,3.652,0,0,0-.339.426,3.441,3.441,0,0,0-.482.954l-.124-.075c-.682-.4-3.682-2.133-5.959-3.437a8.755,8.755,0,0,0,.8-1.376l2.932,1.681.754.433c.754.433,1.508.886,2.3,1.315Z" transform="translate(-45.525 -43.997)"/><rect class="b" width="2.668" height="12.641" transform="translate(44.896 16.504)"/><path class="b" d="M137.825,43.79H132.59V56.435h5.235a5.994,5.994,0,0,0,6.354-6.324A5.991,5.991,0,0,0,137.825,43.79Zm-.132,10.255h-2.435V46.195h2.435a3.6,3.6,0,0,1,3.788,3.916A3.618,3.618,0,0,1,137.693,54.045Z" transform="translate(-82.625 -27.286)"/><rect class="a" width="8.001" height="2.276" transform="translate(63.236 21.596)"/><rect class="b" width="8.706" height="2.348" transform="translate(63.236 16.504)"/><rect class="b" width="8.921" height="2.348" transform="translate(63.236 26.801)"/><path class="b" d="M197.353,43.79,192.22,56.435h2.732l1.018-2.71h5.352l1.021,2.71h2.8L199.988,43.79Zm-.528,7.711,1.828-4.839,1.828,4.839Z" transform="translate(-119.781 -27.286)"/><path class="b" d="M232.765,43.22a6.241,6.241,0,0,0-6.305,6.535,6.31,6.31,0,1,0,12.611,0A6.237,6.237,0,0,0,232.765,43.22Zm0,10.583c-2.058,0-3.607-1.643-3.607-4.048s1.549-4.044,3.607-4.044,3.6,1.643,3.6,4.044S234.823,53.8,232.765,53.8Z" transform="translate(-141.116 -26.931)"/><path class="b" d="M267.045,43.79H264.38V56.435h8.442V54.049h-5.778Z" transform="translate(-164.744 -27.286)"/><path class="b" d="M293.745,43.22a6.239,6.239,0,0,0-6.305,6.535,6.31,6.31,0,1,0,12.611,0A6.237,6.237,0,0,0,293.745,43.22Zm0,10.583c-2.058,0-3.607-1.643-3.607-4.048s1.549-4.044,3.607-4.044,3.6,1.643,3.6,4.044S295.8,53.8,293.745,53.8Z" transform="translate(-179.113 -26.931)"/><path class="b" d="M329.876,45.7a3.746,3.746,0,0,1,2.977,1.428l1.7-1.741a5.9,5.9,0,0,0-4.82-2.186,6.216,6.216,0,0,0-6.339,6.535,6.209,6.209,0,0,0,6.29,6.539,7.485,7.485,0,0,0,4.658-1.606v-5.3h-5.416v2.427h2.989V53.24a3.912,3.912,0,0,1-2.073.543,3.74,3.74,0,0,1-3.739-4.048A3.74,3.74,0,0,1,329.876,45.7Z" transform="translate(-201.513 -26.918)"/><path class="b" d="M362.909,43.79l-3.079,5.619L356.75,43.79h-2.83l4.462,8.13v4.515h2.665V51.954l4.478-8.164Z" transform="translate(-220.537 -27.286)"/></g></g></svg>