<svg xmlns="http://www.w3.org/2000/svg" width="27" height="27" viewBox="0 0 27 27"><defs><style>.a{fill:#efefef;opacity:0.5;}</style></defs><path class="a" d="M4.5,4.5v27h27V4.5Zm22.431,6.4-1.45,1.387a.424.424,0,0,0-.161.406v10.2a.424.424,0,0,0,.161.406L26.9,24.686v.3H19.782v-.3l1.466-1.422c.144-.144.144-.187.144-.405V14.613L17.32,24.958h-.551L12.027,14.613v6.933a.956.956,0,0,0,.262.8l1.906,2.312v.3h-5.4v-.3l1.907-2.31a.922.922,0,0,0,.245-.8V13.53a.7.7,0,0,0-.228-.592l-1.7-2.04v-.305h5.258l4.065,8.913,3.573-8.915H26.93Z" transform="translate(-4.5 -4.5)"/></svg>