<svg xmlns="http://www.w3.org/2000/svg" width="26.211" height="27" viewBox="0 0 26.211 27"><defs><style>.a{fill:#efefef;opacity:0.5;}</style></defs><path class="a" d="M17.391,19.693l2.15-10.442a1.017,1.017,0,0,0-.154-.949.651.651,0,0,0-.754-.106L6,13.214a1.279,1.279,0,0,0-.578.377.332.332,0,0,0-.036.4.8.8,0,0,0,.468.294l3.233,1.04,7.5-4.867q.307-.211.468-.091.1.075-.058.226l-6.07,5.65-.234,3.435a.928.928,0,0,0,.658-.331l1.58-1.567,3.276,2.486q.936.542,1.185-.572Zm8.82-6.193a13.886,13.886,0,0,1-3.832,9.553A13.145,13.145,0,0,1,18.2,25.931a12.647,12.647,0,0,1-10.18,0,13.145,13.145,0,0,1-4.184-2.878A13.886,13.886,0,0,1,0,13.5,13.886,13.886,0,0,1,3.832,3.947,13.145,13.145,0,0,1,8.016,1.07a12.647,12.647,0,0,1,10.18,0,13.145,13.145,0,0,1,4.184,2.878A13.886,13.886,0,0,1,26.211,13.5Z"/></svg>