<svg xmlns="http://www.w3.org/2000/svg" width="26.325" height="21.937" viewBox="0 0 26.325 21.937"><defs><style>.a{fill:#efefef;opacity:0.5;}</style></defs><path class="a" d="M26.325,5.566a7.075,7.075,0,0,1-.983,1.408,7.256,7.256,0,0,1-1.775,1.5q.03.235.044.44a15.973,15.973,0,0,1-1.13,6.119A16.113,16.113,0,0,1,16.068,23,16.86,16.86,0,0,1,6.031,24.833,11.525,11.525,0,0,1,0,22.5a11.238,11.238,0,0,0,8.041-2.319A5.54,5.54,0,0,1,2.935,16.4a3.434,3.434,0,0,0,1.144.058,10.647,10.647,0,0,0,1.291-.176A6.054,6.054,0,0,1,1.7,13.431a6.137,6.137,0,0,1-.616-2.7,5.156,5.156,0,0,0,2.436.733A6.293,6.293,0,0,1,1.13,7.576a7.2,7.2,0,0,1,.66-3.507,18.445,18.445,0,0,0,6.266,4.7,12.98,12.98,0,0,0,4.915,1.027,6.569,6.569,0,0,1,.66-4.167,5.677,5.677,0,0,1,3.389-2.465A5,5,0,0,1,22.04,4.715a8.933,8.933,0,0,0,3.492-1.291,5.3,5.3,0,0,1-2.407,3.111,15.26,15.26,0,0,0,3.2-.968Z" transform="translate(0 -3)"/></svg>